<?xml version="1.0" encoding="UTF-8" standalone="no"?><svg xmlns="http://www.w3.org/2000/svg" xmlns:xlink="http://www.w3.org/1999/xlink" contentScriptType="application/ecmascript" contentStyleType="text/css" height="536px" preserveAspectRatio="none" style="width:834px;height:536px;" version="1.1" viewBox="0 0 834 536"
    width="834px" zoomAndPan="magnify"><defs><filter height="300%" id="fu0gfntj2scuq" width="300%" x="-1" y="-1"><feGaussianBlur result="blurOut" stdDeviation="2.0"/><feColorMatrix in="blurOut" result="blurOut2" type="matrix" values="0 0 0 0 0 0 0 0 0 0 0 0 0 0 0 0 0 0 .4 0"/><feOffset dx="4.0" dy="4.0" in="blurOut2" result="blurOut3"/><feBlend in="SourceGraphic" in2="blurOut3" mode="normal"/></filter></defs><g><rect fill="#FEFECE" filter="url(#fu0gfntj2scuq)" height="30.4883" style="stroke: #A80036; stroke-width: 1.5;" width="161" x="255" y="165.1094"/><text fill="#000000" font-family="sans-serif" font-size="14" lengthAdjust="spacingAndGlyphs" text-decoration="underline" textLength="147" x="262" y="185.6445">:AdjustSensorControl</text><line style="stroke: #000000; stroke-width: 1.0;" x1="262" x2="409" y1="187.6445" y2="187.6445"/><rect fill="#FFFFFF" filter="url(#fu0gfntj2scuq)" height="221.1738" style="stroke: #000000; stroke-width: 2.0;" width="552.5" x="13" y="256.9082"/><rect fill="#FFFFFF" filter="url(#fu0gfntj2scuq)" height="101.9316" style="stroke: #000000; stroke-width: 2.0;" width="532.5" x="23" y="339.8398"/><line style="stroke: #A80036; stroke-width: 1.0; stroke-dasharray: 5.0,5.0;" x1="51" x2="51" y1="86.4883" y2="524.3926"/><line style="stroke: #A80036; stroke-width: 1.0; stroke-dasharray: 5.0,5.0;" x1="153" x2="153" y1="86.4883" y2="524.3926"/><line style="stroke: #A80036; stroke-width: 1.0; stroke-dasharray: 5.0,5.0;" x1="337" x2="337" y1="197.8535" y2="524.3926"/><line style="stroke: #A80036; stroke-width: 1.0; stroke-dasharray: 5.0,5.0;" x1="465" x2="465" y1="86.4883" y2="524.3926"/><text fill="#000000" font-family="sans-serif" font-size="14" lengthAdjust="spacingAndGlyphs" text-decoration="underline" textLength="31" x="33" y="83.5352">User</text><line style="stroke: #000000; stroke-width: 1.0;" x1="33" x2="64" y1="85.5352" y2="85.5352"/><ellipse cx="51.5" cy="13" fill="#FEFECE" filter="url(#fu0gfntj2scuq)" rx="8" ry="8" style="stroke: #A80036; stroke-width: 2.0;"/><path d="M51.5,21 L51.5,48 M38.5,29 L64.5,29 M51.5,48 L38.5,63 M51.5,48 L64.5,63 " fill="none" filter="url(#fu0gfntj2scuq)" style="stroke: #A80036; stroke-width: 2.0;"/><rect fill="#FEFECE" filter="url(#fu0gfntj2scuq)" height="30.4883" style="stroke: #A80036; stroke-width: 1.5;" width="142" x="80" y="51"/><text fill="#000000" font-family="sans-serif" font-size="14" lengthAdjust="spacingAndGlyphs" text-decoration="underline" textLength="128" x="87" y="71.5352">:AdjustSensorPage</text><line style="stroke: #000000; stroke-width: 1.0;" x1="87" x2="215" y1="73.5352" y2="73.5352"/><rect fill="#FEFECE" filter="url(#fu0gfntj2scuq)" height="30.4883" style="stroke: #A80036; stroke-width: 1.5;" width="65" x="431" y="51"/><text fill="#000000" font-family="sans-serif" font-size="14" lengthAdjust="spacingAndGlyphs" text-decoration="underline" textLength="51" x="438" y="71.5352">:Sensor</text><line style="stroke: #000000; stroke-width: 1.0;" x1="438" x2="489" y1="73.5352" y2="73.5352"/><polygon fill="#A80036" points="141,113.4883,151,117.4883,141,121.4883,145,117.4883" style="stroke: #A80036; stroke-width: 1.0;"/><line style="stroke: #A80036; stroke-width: 1.0;" x1="3" x2="147" y1="117.4883" y2="117.4883"/><text fill="#000000" font-family="sans-serif" font-size="13" lengthAdjust="spacingAndGlyphs" textLength="78" x="10" y="113.0566">&lt;&lt;create&gt;&gt;</text><path d="M181,130.7988 L181,155.7988 L490,155.7988 L490,140.7988 L480,130.7988 L181,130.7988 " fill="#FBFB77" filter="url(#fu0gfntj2scuq)" style="stroke: #A80036; stroke-width: 1.0;"/><path d="M480,130.7988 L480,140.7988 L490,140.7988 L480,130.7988 " fill="#FBFB77" style="stroke: #A80036; stroke-width: 1.0;"/><text fill="#000000" font-family="sans-serif" font-size="13" lengthAdjust="spacingAndGlyphs" textLength="288" x="187" y="148.3672">Sensor control should be coupled with Sensor</text><polygon fill="#A80036" points="243,182.1094,253,186.1094,243,190.1094,247,186.1094" style="stroke: #A80036; stroke-width: 1.0;"/><line style="stroke: #A80036; stroke-width: 1.0;" x1="153" x2="249" y1="186.1094" y2="186.1094"/><text fill="#000000" font-family="sans-serif" font-size="13" lengthAdjust="spacingAndGlyphs" textLength="78" x="160" y="181.6777">&lt;&lt;create&gt;&gt;</text><rect fill="#FEFECE" filter="url(#fu0gfntj2scuq)" height="30.4883" style="stroke: #A80036; stroke-width: 1.5;" width="161" x="255" y="165.1094"/><text fill="#000000" font-family="sans-serif" font-size="14" lengthAdjust="spacingAndGlyphs" text-decoration="underline" textLength="147" x="262" y="185.6445">:AdjustSensorControl</text><line style="stroke: #000000; stroke-width: 1.0;" x1="262" x2="409" y1="187.6445" y2="187.6445"/><path d="M470,215.5977 L470,240.5977 L822,240.5977 L822,225.5977 L812,215.5977 L470,215.5977 " fill="#FBFB77" filter="url(#fu0gfntj2scuq)" style="stroke: #A80036; stroke-width: 1.0;"/><path d="M812,215.5977 L812,225.5977 L822,225.5977 L812,215.5977 " fill="#FBFB77" style="stroke: #A80036; stroke-width: 1.0;"/><text fill="#000000" font-family="sans-serif" font-size="13" lengthAdjust="spacingAndGlyphs" textLength="331" x="476" y="233.166">this sensor object is created before adjusting sensor</text><path d="M13,256.9082 L87,256.9082 L87,263.9082 L77,273.9082 L13,273.9082 L13,256.9082 " fill="#EEEEEE" style="stroke: #000000; stroke-width: 1.0;"/><rect fill="none" height="221.1738" style="stroke: #000000; stroke-width: 2.0;" width="552.5" x="13" y="256.9082"/><text fill="#000000" font-family="sans-serif" font-size="13" font-weight="bold" lengthAdjust="spacingAndGlyphs" textLength="29" x="28" y="270.4766">loop</text><text fill="#000000" font-family="sans-serif" font-size="11" font-weight="bold" lengthAdjust="spacingAndGlyphs" textLength="111" x="102" y="269.543">[for each operation]</text><polygon fill="#A80036" points="164,291.2188,154,295.2188,164,299.2188,160,295.2188" style="stroke: #A80036; stroke-width: 1.0;"/><line style="stroke: #A80036; stroke-width: 1.0;" x1="158" x2="336.5" y1="295.2188" y2="295.2188"/><text fill="#000000" font-family="sans-serif" font-size="13" lengthAdjust="spacingAndGlyphs" textLength="50" x="170" y="290.7871">demand</text><polygon fill="#A80036" points="62.5,320.5293,52.5,324.5293,62.5,328.5293,58.5,324.5293" style="stroke: #A80036; stroke-width: 1.0;"/><line style="stroke: #A80036; stroke-width: 1.0;" x1="56.5" x2="152" y1="324.5293" y2="324.5293"/><text fill="#000000" font-family="sans-serif" font-size="13" lengthAdjust="spacingAndGlyphs" textLength="50" x="68.5" y="320.0977">demand</text><path d="M23,339.8398 L97,339.8398 L97,346.8398 L87,356.8398 L23,356.8398 L23,339.8398 " fill="#EEEEEE" style="stroke: #000000; stroke-width: 1.0;"/><rect fill="none" height="101.9316" style="stroke: #000000; stroke-width: 2.0;" width="532.5" x="23" y="339.8398"/><text fill="#000000" font-family="sans-serif" font-size="13" font-weight="bold" lengthAdjust="spacingAndGlyphs" textLength="29" x="38" y="353.4082">loop</text><text fill="#000000" font-family="sans-serif" font-size="11" font-weight="bold" lengthAdjust="spacingAndGlyphs" textLength="176" x="112" y="352.4746">[while adjust demand satisfied]</text><line style="stroke: #A80036; stroke-width: 1.0;" x1="51.5" x2="93.5" y1="378.4609" y2="378.4609"/><line style="stroke: #A80036; stroke-width: 1.0;" x1="93.5" x2="93.5" y1="378.4609" y2="391.4609"/><line style="stroke: #A80036; stroke-width: 1.0;" x1="52.5" x2="93.5" y1="391.4609" y2="391.4609"/><polygon fill="#A80036" points="62.5,387.4609,52.5,391.4609,62.5,395.4609,58.5,391.4609" style="stroke: #A80036; stroke-width: 1.0;"/><text fill="#000000" font-family="sans-serif" font-size="13" lengthAdjust="spacingAndGlyphs" textLength="34" x="58.5" y="373.7188">move</text><line style="stroke: #A80036; stroke-width: 1.0;" x1="465.5" x2="507.5" y1="420.7715" y2="420.7715"/><line style="stroke: #A80036; stroke-width: 1.0;" x1="507.5" x2="507.5" y1="420.7715" y2="433.7715"/><line style="stroke: #A80036; stroke-width: 1.0;" x1="466.5" x2="507.5" y1="433.7715" y2="433.7715"/><polygon fill="#A80036" points="476.5,429.7715,466.5,433.7715,476.5,437.7715,472.5,433.7715" style="stroke: #A80036; stroke-width: 1.0;"/><text fill="#000000" font-family="sans-serif" font-size="13" lengthAdjust="spacingAndGlyphs" textLength="71" x="472.5" y="416.0293">collectData</text><polygon fill="#A80036" points="348.5,465.7715,338.5,469.7715,348.5,473.7715,344.5,469.7715" style="stroke: #A80036; stroke-width: 1.0;"/><line style="stroke: #A80036; stroke-width: 1.0;" x1="342.5" x2="464.5" y1="469.7715" y2="469.7715"/><text fill="#000000" font-family="sans-serif" font-size="13" lengthAdjust="spacingAndGlyphs" textLength="104" x="354.5" y="465.3398">demandSatisfied</text><polygon fill="#A80036" points="164,502.082,154,506.082,164,510.082,160,506.082" style="stroke: #A80036; stroke-width: 1.0;"/><line style="stroke: #A80036; stroke-width: 1.0;" x1="158" x2="336.5" y1="506.082" y2="506.082"/><text fill="#000000" font-family="sans-serif" font-size="13" lengthAdjust="spacingAndGlyphs" textLength="87" x="170" y="501.6504">&lt;&lt;destroy&gt;&gt;</text><line style="stroke: #A80036; stroke-width: 2.0;" x1="144" x2="162" y1="497.082" y2="515.082"/><line style="stroke: #A80036; stroke-width: 2.0;" x1="144" x2="162" y1="515.082" y2="497.082"/><line style="stroke: #A80036; stroke-width: 2.0;" x1="328.5" x2="346.5" y1="497.082" y2="515.082"/><line style="stroke: #A80036; stroke-width: 2.0;" x1="328.5" x2="346.5" y1="515.082" y2="497.082"/><!--
@startuml Diagrams/AdjustSensor
hide footbox
skinparam sequenceParticipant underline

actor User as user
participant ":AdjustSensorPage" as page
participant ":AdjustSensorControl" as control
participant ":Sensor" as sensor

[-> page: <<create>>
note over control: Sensor control should be coupled with Sensor
create control
page -> control: <<create>>
note right of sensor: this sensor object is created before adjusting sensor
loop for each operation
    control -> page: demand
    page -> user: demand
    loop while adjust demand satisfied
        user -> user: move
        sensor -> sensor: collectData
    end
    sensor -> control: demandSatisfied
end

control -> page: <<destroy>>
destroy page
destroy control



@enduml

PlantUML version 1.2018.01(Mon Jan 29 02:08:22 CST 2018)
(GPL source distribution)
Java Runtime: Java(TM) SE Runtime Environment
JVM: Java HotSpot(TM) 64-Bit Server VM
Java Version: 9+181
Operating System: Mac OS X
OS Version: 10.12.6
Default Encoding: UTF-8
Language: zh
Country: CN
--></g></svg>