<?xml version="1.0" encoding="UTF-8" standalone="no"?><svg xmlns="http://www.w3.org/2000/svg" xmlns:xlink="http://www.w3.org/1999/xlink" contentScriptType="application/ecmascript" contentStyleType="text/css" height="471px" preserveAspectRatio="none" style="width:789px;height:471px;" version="1.1" viewBox="0 0 789 471"
    width="789px" zoomAndPan="magnify"><defs><filter height="300%" id="f124hox6qi5m1g" width="300%" x="-1" y="-1"><feGaussianBlur result="blurOut" stdDeviation="2.0"/><feColorMatrix in="blurOut" result="blurOut2" type="matrix" values="0 0 0 0 0 0 0 0 0 0 0 0 0 0 0 0 0 0 .4 0"/><feOffset dx="4.0" dy="4.0" in="blurOut2" result="blurOut3"/><feBlend in="SourceGraphic" in2="blurOut3" mode="normal"/></filter></defs><g><rect fill="#FEFECE" filter="url(#f124hox6qi5m1g)" height="30.4883" style="stroke: #A80036; stroke-width: 1.5;" width="121" x="259.5" y="125.7988"/><text fill="#000000" font-family="sans-serif" font-size="14" lengthAdjust="spacingAndGlyphs" text-decoration="underline" textLength="107" x="266.5" y="146.334">:CreateVSSPage</text><line style="stroke: #000000; stroke-width: 1.0;" x1="266.5" x2="373.5" y1="148.334" y2="148.334"/><rect fill="#FFFFFF" filter="url(#f124hox6qi5m1g)" height="263.7734" style="stroke: #000000; stroke-width: 2.0;" width="764" x="13" y="178.2871"/><rect fill="#FEFECE" filter="url(#f124hox6qi5m1g)" height="30.4883" style="stroke: #A80036; stroke-width: 1.5;" width="150" x="424" y="224.9082"/><text fill="#000000" font-family="sans-serif" font-size="14" lengthAdjust="spacingAndGlyphs" text-decoration="underline" textLength="136" x="431" y="245.4434">:CreateMapVSSPage</text><line style="stroke: #000000; stroke-width: 1.0;" x1="431" x2="567" y1="247.4434" y2="247.4434"/><rect fill="#FFFFFF" height="130.709" style="stroke: none; stroke-width: 1.0;" width="764" x="13" y="311.3516"/><rect fill="#FEFECE" filter="url(#f124hox6qi5m1g)" height="30.4883" style="stroke: #A80036; stroke-width: 1.5;" width="175" x="588" y="355.6172"/><text fill="#000000" font-family="sans-serif" font-size="14" lengthAdjust="spacingAndGlyphs" text-decoration="underline" textLength="161" x="595" y="376.1523">:CreateConcertVSSPage</text><line style="stroke: #000000; stroke-width: 1.0;" x1="595" x2="756" y1="378.1523" y2="378.1523"/><line style="stroke: #A80036; stroke-width: 1.0;" x1="41" x2="41" y1="86.4883" y2="270.3965"/><line style="stroke: #A80036; stroke-width: 1.0; stroke-dasharray: 1.0,4.0;" x1="41" x2="41" y1="270.3965" y2="311.3516"/><line style="stroke: #A80036; stroke-width: 1.0;" x1="41" x2="41" y1="311.3516" y2="401.1055"/><line style="stroke: #A80036; stroke-width: 1.0; stroke-dasharray: 1.0,4.0;" x1="41" x2="41" y1="401.1055" y2="442.0605"/><line style="stroke: #A80036; stroke-width: 1.0;" x1="41" x2="41" y1="442.0605" y2="459.0605"/><line style="stroke: #A80036; stroke-width: 1.0;" x1="157" x2="157" y1="86.4883" y2="270.3965"/><line style="stroke: #A80036; stroke-width: 1.0; stroke-dasharray: 1.0,4.0;" x1="157" x2="157" y1="270.3965" y2="311.3516"/><line style="stroke: #A80036; stroke-width: 1.0;" x1="157" x2="157" y1="311.3516" y2="401.1055"/><line style="stroke: #A80036; stroke-width: 1.0; stroke-dasharray: 1.0,4.0;" x1="157" x2="157" y1="401.1055" y2="442.0605"/><line style="stroke: #A80036; stroke-width: 1.0;" x1="157" x2="157" y1="442.0605" y2="459.0605"/><line style="stroke: #A80036; stroke-width: 1.0;" x1="321.5" x2="321.5" y1="158.543" y2="270.3965"/><line style="stroke: #A80036; stroke-width: 1.0; stroke-dasharray: 1.0,4.0;" x1="321.5" x2="321.5" y1="270.3965" y2="311.3516"/><line style="stroke: #A80036; stroke-width: 1.0;" x1="321.5" x2="321.5" y1="311.3516" y2="401.1055"/><line style="stroke: #A80036; stroke-width: 1.0; stroke-dasharray: 1.0,4.0;" x1="321.5" x2="321.5" y1="401.1055" y2="442.0605"/><line style="stroke: #A80036; stroke-width: 1.0;" x1="321.5" x2="321.5" y1="442.0605" y2="459.0605"/><line style="stroke: #A80036; stroke-width: 1.0;" x1="501" x2="501" y1="257.6523" y2="270.3965"/><line style="stroke: #A80036; stroke-width: 1.0; stroke-dasharray: 1.0,4.0;" x1="501" x2="501" y1="270.3965" y2="311.3516"/><line style="stroke: #A80036; stroke-width: 1.0;" x1="501" x2="501" y1="311.3516" y2="401.1055"/><line style="stroke: #A80036; stroke-width: 1.0; stroke-dasharray: 1.0,4.0;" x1="501" x2="501" y1="401.1055" y2="442.0605"/><line style="stroke: #A80036; stroke-width: 1.0;" x1="501" x2="501" y1="442.0605" y2="459.0605"/><line style="stroke: #A80036; stroke-width: 1.0;" x1="677" x2="677" y1="388.3613" y2="401.1055"/><line style="stroke: #A80036; stroke-width: 1.0; stroke-dasharray: 1.0,4.0;" x1="677" x2="677" y1="401.1055" y2="442.0605"/><line style="stroke: #A80036; stroke-width: 1.0;" x1="677" x2="677" y1="442.0605" y2="459.0605"/><text fill="#000000" font-family="sans-serif" font-size="14" lengthAdjust="spacingAndGlyphs" text-decoration="underline" textLength="31" x="23" y="83.5352">User</text><line style="stroke: #000000; stroke-width: 1.0;" x1="23" x2="54" y1="85.5352" y2="85.5352"/><ellipse cx="41.5" cy="13" fill="#FEFECE" filter="url(#f124hox6qi5m1g)" rx="8" ry="8" style="stroke: #A80036; stroke-width: 2.0;"/><path d="M41.5,21 L41.5,48 M28.5,29 L54.5,29 M41.5,48 L28.5,63 M41.5,48 L54.5,63 " fill="none" filter="url(#f124hox6qi5m1g)" style="stroke: #A80036; stroke-width: 2.0;"/><rect fill="#FEFECE" filter="url(#f124hox6qi5m1g)" height="30.4883" style="stroke: #A80036; stroke-width: 1.5;" width="171" x="70" y="51"/><text fill="#000000" font-family="sans-serif" font-size="14" lengthAdjust="spacingAndGlyphs" text-decoration="underline" textLength="157" x="77" y="71.5352">:LocalVSSManagerPage</text><line style="stroke: #000000; stroke-width: 1.0;" x1="77" x2="234" y1="73.5352" y2="73.5352"/><polygon fill="#A80036" points="145.5,113.4883,155.5,117.4883,145.5,121.4883,149.5,117.4883" style="stroke: #A80036; stroke-width: 1.0;"/><line style="stroke: #A80036; stroke-width: 1.0;" x1="41.5" x2="151.5" y1="117.4883" y2="117.4883"/><text fill="#000000" font-family="sans-serif" font-size="13" lengthAdjust="spacingAndGlyphs" textLength="60" x="48.5" y="113.0566">createVSS</text><polygon fill="#A80036" points="247.5,142.7988,257.5,146.7988,247.5,150.7988,251.5,146.7988" style="stroke: #A80036; stroke-width: 1.0;"/><line style="stroke: #A80036; stroke-width: 1.0;" x1="157.5" x2="253.5" y1="146.7988" y2="146.7988"/><text fill="#000000" font-family="sans-serif" font-size="13" lengthAdjust="spacingAndGlyphs" textLength="78" x="164.5" y="142.3672">&lt;&lt;create&gt;&gt;</text><rect fill="#FEFECE" filter="url(#f124hox6qi5m1g)" height="30.4883" style="stroke: #A80036; stroke-width: 1.5;" width="121" x="259.5" y="125.7988"/><text fill="#000000" font-family="sans-serif" font-size="14" lengthAdjust="spacingAndGlyphs" text-decoration="underline" textLength="107" x="266.5" y="146.334">:CreateVSSPage</text><line style="stroke: #000000; stroke-width: 1.0;" x1="266.5" x2="373.5" y1="148.334" y2="148.334"/><path d="M13,178.2871 L75,178.2871 L75,185.2871 L65,195.2871 L13,195.2871 L13,178.2871 " fill="#EEEEEE" style="stroke: #000000; stroke-width: 1.0;"/><rect fill="none" height="263.7734" style="stroke: #000000; stroke-width: 2.0;" width="764" x="13" y="178.2871"/><text fill="#000000" font-family="sans-serif" font-size="13" font-weight="bold" lengthAdjust="spacingAndGlyphs" textLength="17" x="28" y="191.8555">alt</text><text fill="#000000" font-family="sans-serif" font-size="11" font-weight="bold" lengthAdjust="spacingAndGlyphs" textLength="126" x="90" y="190.9219">[create Map Mode VSS]</text><polygon fill="#A80036" points="310,212.5977,320,216.5977,310,220.5977,314,216.5977" style="stroke: #A80036; stroke-width: 1.0;"/><line style="stroke: #A80036; stroke-width: 1.0;" x1="41.5" x2="316" y1="216.5977" y2="216.5977"/><text fill="#000000" font-family="sans-serif" font-size="13" lengthAdjust="spacingAndGlyphs" textLength="120" x="48.5" y="212.166">createMapModeVSS</text><polygon fill="#A80036" points="412,241.9082,422,245.9082,412,249.9082,416,245.9082" style="stroke: #A80036; stroke-width: 1.0;"/><line style="stroke: #A80036; stroke-width: 1.0;" x1="322" x2="418" y1="245.9082" y2="245.9082"/><text fill="#000000" font-family="sans-serif" font-size="13" lengthAdjust="spacingAndGlyphs" textLength="78" x="329" y="241.4766">&lt;&lt;create&gt;&gt;</text><rect fill="#FEFECE" filter="url(#f124hox6qi5m1g)" height="30.4883" style="stroke: #A80036; stroke-width: 1.5;" width="150" x="424" y="224.9082"/><text fill="#000000" font-family="sans-serif" font-size="14" lengthAdjust="spacingAndGlyphs" text-decoration="underline" textLength="136" x="431" y="245.4434">:CreateMapVSSPage</text><line style="stroke: #000000; stroke-width: 1.0;" x1="431" x2="567" y1="247.4434" y2="247.4434"/><text fill="#000000" font-family="sans-serif" font-size="11" lengthAdjust="spacingAndGlyphs" textLength="108" x="305.5" y="295.0313">Go to CreateMapVSS</text><line style="stroke: #000000; stroke-width: 1.0; stroke-dasharray: 2.0,2.0;" x1="13" x2="777" y1="312.3516" y2="312.3516"/><text fill="#000000" font-family="sans-serif" font-size="11" font-weight="bold" lengthAdjust="spacingAndGlyphs" textLength="146" x="18" y="322.9863">[create Concert Mode VSS]</text><polygon fill="#A80036" points="310,343.3066,320,347.3066,310,351.3066,314,347.3066" style="stroke: #A80036; stroke-width: 1.0;"/><line style="stroke: #A80036; stroke-width: 1.0;" x1="41.5" x2="316" y1="347.3066" y2="347.3066"/><text fill="#000000" font-family="sans-serif" font-size="13" lengthAdjust="spacingAndGlyphs" textLength="143" x="48.5" y="342.875">createConcertModeVSS</text><polygon fill="#A80036" points="576,372.6172,586,376.6172,576,380.6172,580,376.6172" style="stroke: #A80036; stroke-width: 1.0;"/><line style="stroke: #A80036; stroke-width: 1.0;" x1="322" x2="582" y1="376.6172" y2="376.6172"/><text fill="#000000" font-family="sans-serif" font-size="13" lengthAdjust="spacingAndGlyphs" textLength="78" x="329" y="372.1855">&lt;&lt;create&gt;&gt;</text><rect fill="#FEFECE" filter="url(#f124hox6qi5m1g)" height="30.4883" style="stroke: #A80036; stroke-width: 1.5;" width="175" x="588" y="355.6172"/><text fill="#000000" font-family="sans-serif" font-size="14" lengthAdjust="spacingAndGlyphs" text-decoration="underline" textLength="161" x="595" y="376.1523">:CreateConcertVSSPage</text><line style="stroke: #000000; stroke-width: 1.0;" x1="595" x2="756" y1="378.1523" y2="378.1523"/><text fill="#000000" font-family="sans-serif" font-size="11" lengthAdjust="spacingAndGlyphs" textLength="158" x="280.5" y="425.7402">Go to CreateConcertModeVSS</text><!--
@startuml Diagrams/CreateVSS
hide footbox
skinparam sequenceParticipant underline

actor User as user
participant ":LocalVSSManagerPage" as manage
participant ":CreateVSSPage" as page
participant ":CreateMapVSSPage" as map
participant ":CreateConcertVSSPage" as concert

user -> manage: createVSS
create page
manage -> page: <<create>>
alt create Map Mode VSS
    user -> page: createMapModeVSS
    create map
    page -> map: <<create>>
    ...Go to CreateMapVSS...
else create Concert Mode VSS
    user -> page: createConcertModeVSS
    create concert
    page -> concert: <<create>>
    ...Go to CreateConcertModeVSS...
end

@enduml

PlantUML version 1.2018.01(Mon Jan 29 02:08:22 CST 2018)
(GPL source distribution)
Java Runtime: Java(TM) SE Runtime Environment
JVM: Java HotSpot(TM) 64-Bit Server VM
Java Version: 9+181
Operating System: Mac OS X
OS Version: 10.12.6
Default Encoding: UTF-8
Language: zh
Country: CN
--></g></svg>