<?xml version="1.0" encoding="UTF-8" standalone="no"?><svg xmlns="http://www.w3.org/2000/svg" xmlns:xlink="http://www.w3.org/1999/xlink" contentScriptType="application/ecmascript" contentStyleType="text/css" height="1221px" preserveAspectRatio="none" style="width:1347px;height:1221px;" version="1.1" viewBox="0 0 1347 1221"
    width="1347px" zoomAndPan="magnify"><defs><filter height="300%" id="f1lsa1au7rcto7" width="300%" x="-1" y="-1"><feGaussianBlur result="blurOut" stdDeviation="2.0"/><feColorMatrix in="blurOut" result="blurOut2" type="matrix" values="0 0 0 0 0 0 0 0 0 0 0 0 0 0 0 0 0 0 .4 0"/><feOffset dx="4.0" dy="4.0" in="blurOut2" result="blurOut3"/><feBlend in="SourceGraphic" in2="blurOut3" mode="normal"/></filter></defs><g><rect fill="#FEFECE" filter="url(#f1lsa1au7rcto7)" height="30.4883" style="stroke: #A80036; stroke-width: 1.5;" width="194" x="415.5" y="125.7988"/><text fill="#000000" font-family="sans-serif" font-size="14" lengthAdjust="spacingAndGlyphs" text-decoration="underline" textLength="180" x="422.5" y="146.334">:CreateConcertVSSControl</text><line style="stroke: #000000; stroke-width: 1.0;" x1="422.5" x2="602.5" y1="148.334" y2="148.334"/><rect fill="#FEFECE" filter="url(#f1lsa1au7rcto7)" height="30.4883" style="stroke: #A80036; stroke-width: 1.5;" width="351" x="848.5" y="171.2871"/><text fill="#000000" font-family="sans-serif" font-size="14" lengthAdjust="spacingAndGlyphs" text-decoration="underline" textLength="337" x="855.5" y="191.8223">newSoundSpace:ConcertModeVirtualSoundSpace</text><line style="stroke: #000000; stroke-width: 1.0;" x1="855.5" x2="1192.5" y1="193.8223" y2="193.8223"/><rect fill="#FFFFFF" filter="url(#f1lsa1au7rcto7)" height="717.5645" style="stroke: #000000; stroke-width: 2.0;" width="1323.5" x="13" y="223.7754"/><rect fill="#FFFFFF" filter="url(#f1lsa1au7rcto7)" height="347.0156" style="stroke: #000000; stroke-width: 2.0;" width="825.5" x="23" y="248.0859"/><rect fill="#FFFFFF" height="85.2207" style="stroke: none; stroke-width: 1.0;" width="825.5" x="23" y="509.8809"/><rect fill="#FEFECE" filter="url(#f1lsa1au7rcto7)" height="30.4883" style="stroke: #A80036; stroke-width: 1.5;" width="109" x="1213.5" y="644.4121"/><text fill="#000000" font-family="sans-serif" font-size="14" lengthAdjust="spacingAndGlyphs" text-decoration="underline" textLength="95" x="1220.5" y="664.9473">:SoundSource</text><line style="stroke: #000000; stroke-width: 1.0;" x1="1220.5" x2="1315.5" y1="666.9473" y2="666.9473"/><rect fill="#FFFFFF" filter="url(#f1lsa1au7rcto7)" height="208.1289" style="stroke: #000000; stroke-width: 2.0;" width="1190.5" x="23" y="726.2109"/><rect fill="#FFFFFF" height="102.8867" style="stroke: none; stroke-width: 1.0;" width="1190.5" x="23" y="831.4531"/><rect fill="#FFFFFF" filter="url(#f1lsa1au7rcto7)" height="120.1973" style="stroke: #000000; stroke-width: 2.0;" width="825.5" x="23" y="1043.2715"/><rect fill="#FFFFFF" height="14.9551" style="stroke: none; stroke-width: 1.0;" width="825.5" x="23" y="1148.5137"/><line style="stroke: #A80036; stroke-width: 1.0;" x1="51" x2="51" y1="86.4883" y2="554.1465"/><line style="stroke: #A80036; stroke-width: 1.0; stroke-dasharray: 1.0,4.0;" x1="51" x2="51" y1="554.1465" y2="595.1016"/><line style="stroke: #A80036; stroke-width: 1.0;" x1="51" x2="51" y1="595.1016" y2="1209.7793"/><line style="stroke: #A80036; stroke-width: 1.0;" x1="250" x2="250" y1="86.4883" y2="554.1465"/><line style="stroke: #A80036; stroke-width: 1.0; stroke-dasharray: 1.0,4.0;" x1="250" x2="250" y1="554.1465" y2="595.1016"/><line style="stroke: #A80036; stroke-width: 1.0;" x1="250" x2="250" y1="595.1016" y2="1209.7793"/><line style="stroke: #A80036; stroke-width: 1.0;" x1="514.5" x2="514.5" y1="158.543" y2="554.1465"/><line style="stroke: #A80036; stroke-width: 1.0; stroke-dasharray: 1.0,4.0;" x1="514.5" x2="514.5" y1="554.1465" y2="595.1016"/><line style="stroke: #A80036; stroke-width: 1.0;" x1="514.5" x2="514.5" y1="595.1016" y2="1209.7793"/><line style="stroke: #A80036; stroke-width: 1.0;" x1="744.5" x2="744.5" y1="86.4883" y2="554.1465"/><line style="stroke: #A80036; stroke-width: 1.0; stroke-dasharray: 1.0,4.0;" x1="744.5" x2="744.5" y1="554.1465" y2="595.1016"/><line style="stroke: #A80036; stroke-width: 1.0;" x1="744.5" x2="744.5" y1="595.1016" y2="1209.7793"/><line style="stroke: #A80036; stroke-width: 1.0;" x1="1025.5" x2="1025.5" y1="204.0313" y2="554.1465"/><line style="stroke: #A80036; stroke-width: 1.0; stroke-dasharray: 1.0,4.0;" x1="1025.5" x2="1025.5" y1="554.1465" y2="595.1016"/><line style="stroke: #A80036; stroke-width: 1.0;" x1="1025.5" x2="1025.5" y1="595.1016" y2="1209.7793"/><line style="stroke: #A80036; stroke-width: 1.0;" x1="1269.5" x2="1269.5" y1="677.1563" y2="1209.7793"/><text fill="#000000" font-family="sans-serif" font-size="14" lengthAdjust="spacingAndGlyphs" text-decoration="underline" textLength="31" x="33" y="83.5352">User</text><line style="stroke: #000000; stroke-width: 1.0;" x1="33" x2="64" y1="85.5352" y2="85.5352"/><ellipse cx="51.5" cy="13" fill="#FEFECE" filter="url(#f1lsa1au7rcto7)" rx="8" ry="8" style="stroke: #A80036; stroke-width: 2.0;"/><path d="M51.5,21 L51.5,48 M38.5,29 L64.5,29 M51.5,48 L38.5,63 M51.5,48 L64.5,63 " fill="none" filter="url(#f1lsa1au7rcto7)" style="stroke: #A80036; stroke-width: 2.0;"/><rect fill="#FEFECE" filter="url(#f1lsa1au7rcto7)" height="30.4883" style="stroke: #A80036; stroke-width: 1.5;" width="175" x="161" y="51"/><text fill="#000000" font-family="sans-serif" font-size="14" lengthAdjust="spacingAndGlyphs" text-decoration="underline" textLength="161" x="168" y="71.5352">:CreateConcertVSSPage</text><line style="stroke: #000000; stroke-width: 1.0;" x1="168" x2="329" y1="73.5352" y2="73.5352"/><rect fill="#FEFECE" filter="url(#f1lsa1au7rcto7)" height="30.4883" style="stroke: #A80036; stroke-width: 1.5;" width="184" x="650.5" y="51"/><text fill="#000000" font-family="sans-serif" font-size="14" lengthAdjust="spacingAndGlyphs" text-decoration="underline" textLength="170" x="657.5" y="71.5352">:LocalSoundSpaceLibrary</text><line style="stroke: #000000; stroke-width: 1.0;" x1="657.5" x2="827.5" y1="73.5352" y2="73.5352"/><polygon fill="#A80036" points="238.5,113.4883,248.5,117.4883,238.5,121.4883,242.5,117.4883" style="stroke: #A80036; stroke-width: 1.0;"/><line style="stroke: #A80036; stroke-width: 1.0;" x1="3" x2="244.5" y1="117.4883" y2="117.4883"/><text fill="#000000" font-family="sans-serif" font-size="13" lengthAdjust="spacingAndGlyphs" textLength="78" x="10" y="113.0566">&lt;&lt;create&gt;&gt;</text><polygon fill="#A80036" points="403.5,142.7988,413.5,146.7988,403.5,150.7988,407.5,146.7988" style="stroke: #A80036; stroke-width: 1.0;"/><line style="stroke: #A80036; stroke-width: 1.0;" x1="250.5" x2="409.5" y1="146.7988" y2="146.7988"/><text fill="#000000" font-family="sans-serif" font-size="13" lengthAdjust="spacingAndGlyphs" textLength="78" x="257.5" y="142.3672">&lt;&lt;create&gt;&gt;</text><rect fill="#FEFECE" filter="url(#f1lsa1au7rcto7)" height="30.4883" style="stroke: #A80036; stroke-width: 1.5;" width="194" x="415.5" y="125.7988"/><text fill="#000000" font-family="sans-serif" font-size="14" lengthAdjust="spacingAndGlyphs" text-decoration="underline" textLength="180" x="422.5" y="146.334">:CreateConcertVSSControl</text><line style="stroke: #000000; stroke-width: 1.0;" x1="422.5" x2="602.5" y1="148.334" y2="148.334"/><polygon fill="#A80036" points="836.5,188.2871,846.5,192.2871,836.5,196.2871,840.5,192.2871" style="stroke: #A80036; stroke-width: 1.0;"/><line style="stroke: #A80036; stroke-width: 1.0;" x1="514.5" x2="842.5" y1="192.2871" y2="192.2871"/><text fill="#000000" font-family="sans-serif" font-size="13" lengthAdjust="spacingAndGlyphs" textLength="78" x="521.5" y="187.8555">&lt;&lt;create&gt;&gt;</text><rect fill="#FEFECE" filter="url(#f1lsa1au7rcto7)" height="30.4883" style="stroke: #A80036; stroke-width: 1.5;" width="351" x="848.5" y="171.2871"/><text fill="#000000" font-family="sans-serif" font-size="14" lengthAdjust="spacingAndGlyphs" text-decoration="underline" textLength="337" x="855.5" y="191.8223">newSoundSpace:ConcertModeVirtualSoundSpace</text><line style="stroke: #000000; stroke-width: 1.0;" x1="855.5" x2="1192.5" y1="193.8223" y2="193.8223"/><path d="M13,223.7754 L87,223.7754 L87,230.7754 L77,240.7754 L13,240.7754 L13,223.7754 " fill="#EEEEEE" style="stroke: #000000; stroke-width: 1.0;"/><rect fill="none" height="717.5645" style="stroke: #000000; stroke-width: 2.0;" width="1323.5" x="13" y="223.7754"/><text fill="#000000" font-family="sans-serif" font-size="13" font-weight="bold" lengthAdjust="spacingAndGlyphs" textLength="29" x="28" y="237.3438">loop</text><text fill="#000000" font-family="sans-serif" font-size="11" font-weight="bold" lengthAdjust="spacingAndGlyphs" textLength="144" x="102" y="236.4102">[add virual sound source]</text><path d="M23,248.0859 L85,248.0859 L85,255.0859 L75,265.0859 L23,265.0859 L23,248.0859 " fill="#EEEEEE" style="stroke: #000000; stroke-width: 1.0;"/><rect fill="none" height="347.0156" style="stroke: #000000; stroke-width: 2.0;" width="825.5" x="23" y="248.0859"/><text fill="#000000" font-family="sans-serif" font-size="13" font-weight="bold" lengthAdjust="spacingAndGlyphs" textLength="17" x="38" y="261.6543">alt</text><text fill="#000000" font-family="sans-serif" font-size="11" font-weight="bold" lengthAdjust="spacingAndGlyphs" textLength="101" x="100" y="260.7207">[add from library]</text><path d="M56,270.3965 L56,295.3965 L733,295.3965 L733,280.3965 L723,270.3965 L56,270.3965 " fill="#FBFB77" filter="url(#f1lsa1au7rcto7)" style="stroke: #A80036; stroke-width: 1.0;"/><path d="M723,270.3965 L723,280.3965 L733,280.3965 L723,270.3965 " fill="#FBFB77" style="stroke: #A80036; stroke-width: 1.0;"/><text fill="#000000" font-family="sans-serif" font-size="13" lengthAdjust="spacingAndGlyphs" textLength="656" x="62" y="287.9648">Notice that there are no shared SoundSources here, each time, only the SoundFragment object is reused.</text><polygon fill="#A80036" points="238.5,321.707,248.5,325.707,238.5,329.707,242.5,325.707" style="stroke: #A80036; stroke-width: 1.0;"/><line style="stroke: #A80036; stroke-width: 1.0;" x1="51.5" x2="244.5" y1="325.707" y2="325.707"/><text fill="#000000" font-family="sans-serif" font-size="13" lengthAdjust="spacingAndGlyphs" textLength="164" x="58.5" y="321.2754">selectExistedSoundSource</text><polygon fill="#A80036" points="502.5,351.0176,512.5,355.0176,502.5,359.0176,506.5,355.0176" style="stroke: #A80036; stroke-width: 1.0;"/><line style="stroke: #A80036; stroke-width: 1.0;" x1="250.5" x2="508.5" y1="355.0176" y2="355.0176"/><text fill="#000000" font-family="sans-serif" font-size="13" lengthAdjust="spacingAndGlyphs" textLength="158" x="257.5" y="350.5859">getLocalSoundFragments</text><polygon fill="#A80036" points="732.5,380.3281,742.5,384.3281,732.5,388.3281,736.5,384.3281" style="stroke: #A80036; stroke-width: 1.0;"/><line style="stroke: #A80036; stroke-width: 1.0;" x1="514.5" x2="738.5" y1="384.3281" y2="384.3281"/><text fill="#000000" font-family="sans-serif" font-size="13" lengthAdjust="spacingAndGlyphs" textLength="158" x="521.5" y="379.8965">getLocalSoundFragments</text><polygon fill="#A80036" points="525.5,409.6387,515.5,413.6387,525.5,417.6387,521.5,413.6387" style="stroke: #A80036; stroke-width: 1.0;"/><line style="stroke: #A80036; stroke-width: 1.0; stroke-dasharray: 2.0,2.0;" x1="519.5" x2="743.5" y1="413.6387" y2="413.6387"/><text fill="#000000" font-family="sans-serif" font-size="13" lengthAdjust="spacingAndGlyphs" textLength="150" x="531.5" y="409.207">filteredSoundFragments</text><polygon fill="#A80036" points="261.5,438.9492,251.5,442.9492,261.5,446.9492,257.5,442.9492" style="stroke: #A80036; stroke-width: 1.0;"/><line style="stroke: #A80036; stroke-width: 1.0; stroke-dasharray: 2.0,2.0;" x1="255.5" x2="513.5" y1="442.9492" y2="442.9492"/><text fill="#000000" font-family="sans-serif" font-size="13" lengthAdjust="spacingAndGlyphs" textLength="240" x="267.5" y="438.5176">displayAvailableLocalSoundFragments</text><polygon fill="#A80036" points="238.5,468.2598,248.5,472.2598,238.5,476.2598,242.5,472.2598" style="stroke: #A80036; stroke-width: 1.0;"/><line style="stroke: #A80036; stroke-width: 1.0;" x1="51.5" x2="244.5" y1="472.2598" y2="472.2598"/><text fill="#000000" font-family="sans-serif" font-size="13" lengthAdjust="spacingAndGlyphs" textLength="135" x="58.5" y="467.8281">selectSoundFragment</text><polygon fill="#A80036" points="502.5,497.5703,512.5,501.5703,502.5,505.5703,506.5,501.5703" style="stroke: #A80036; stroke-width: 1.0;"/><line style="stroke: #A80036; stroke-width: 1.0;" x1="250.5" x2="508.5" y1="501.5703" y2="501.5703"/><text fill="#000000" font-family="sans-serif" font-size="13" lengthAdjust="spacingAndGlyphs" textLength="121" x="257.5" y="497.1387">addSoundFragment</text><line style="stroke: #000000; stroke-width: 1.0; stroke-dasharray: 2.0,2.0;" x1="23" x2="848.5" y1="510.8809" y2="510.8809"/><text fill="#000000" font-family="sans-serif" font-size="11" font-weight="bold" lengthAdjust="spacingAndGlyphs" textLength="83" x="28" y="521.5156">[add from file]</text><polygon fill="#A80036" points="238.5,541.8359,248.5,545.8359,238.5,549.8359,242.5,545.8359" style="stroke: #A80036; stroke-width: 1.0;"/><line style="stroke: #A80036; stroke-width: 1.0;" x1="51.5" x2="244.5" y1="545.8359" y2="545.8359"/><text fill="#000000" font-family="sans-serif" font-size="13" lengthAdjust="spacingAndGlyphs" textLength="136" x="58.5" y="541.4043">selectFromFileSystem</text><text fill="#000000" font-family="sans-serif" font-size="11" lengthAdjust="spacingAndGlyphs" textLength="500" x="410.75" y="578.7813">somehow CreateMapVSSControl got the new SoundFragment # specify during implementation</text><line style="stroke: #A80036; stroke-width: 1.0;" x1="51.5" x2="93.5" y1="623.4121" y2="623.4121"/><line style="stroke: #A80036; stroke-width: 1.0;" x1="93.5" x2="93.5" y1="623.4121" y2="636.4121"/><line style="stroke: #A80036; stroke-width: 1.0;" x1="52.5" x2="93.5" y1="636.4121" y2="636.4121"/><polygon fill="#A80036" points="62.5,632.4121,52.5,636.4121,62.5,640.4121,58.5,636.4121" style="stroke: #A80036; stroke-width: 1.0;"/><text fill="#000000" font-family="sans-serif" font-size="13" lengthAdjust="spacingAndGlyphs" textLength="80" x="58.5" y="618.6699">wakeUp(self)</text><polygon fill="#A80036" points="1201.5,661.4121,1211.5,665.4121,1201.5,669.4121,1205.5,665.4121" style="stroke: #A80036; stroke-width: 1.0;"/><line style="stroke: #A80036; stroke-width: 1.0;" x1="514.5" x2="1207.5" y1="665.4121" y2="665.4121"/><text fill="#000000" font-family="sans-serif" font-size="13" lengthAdjust="spacingAndGlyphs" textLength="78" x="521.5" y="660.9805">&lt;&lt;create&gt;&gt;</text><rect fill="#FEFECE" filter="url(#f1lsa1au7rcto7)" height="30.4883" style="stroke: #A80036; stroke-width: 1.5;" width="109" x="1213.5" y="644.4121"/><text fill="#000000" font-family="sans-serif" font-size="14" lengthAdjust="spacingAndGlyphs" text-decoration="underline" textLength="95" x="1220.5" y="664.9473">:SoundSource</text><line style="stroke: #000000; stroke-width: 1.0;" x1="1220.5" x2="1315.5" y1="666.9473" y2="666.9473"/><polygon fill="#A80036" points="1258,706.9004,1268,710.9004,1258,714.9004,1262,710.9004" style="stroke: #A80036; stroke-width: 1.0;"/><line style="stroke: #A80036; stroke-width: 1.0;" x1="514.5" x2="1264" y1="710.9004" y2="710.9004"/><text fill="#000000" font-family="sans-serif" font-size="13" lengthAdjust="spacingAndGlyphs" textLength="117" x="521.5" y="706.4688">setSoundFragment</text><path d="M23,726.2109 L85,726.2109 L85,733.2109 L75,743.2109 L23,743.2109 L23,726.2109 " fill="#EEEEEE" style="stroke: #000000; stroke-width: 1.0;"/><rect fill="none" height="208.1289" style="stroke: #000000; stroke-width: 2.0;" width="1190.5" x="23" y="726.2109"/><text fill="#000000" font-family="sans-serif" font-size="13" font-weight="bold" lengthAdjust="spacingAndGlyphs" textLength="17" x="38" y="739.7793">alt</text><text fill="#000000" font-family="sans-serif" font-size="11" font-weight="bold" lengthAdjust="spacingAndGlyphs" textLength="53" x="100" y="738.8457">[confirm]</text><polygon fill="#A80036" points="238.5,760.5215,248.5,764.5215,238.5,768.5215,242.5,764.5215" style="stroke: #A80036; stroke-width: 1.0;"/><line style="stroke: #A80036; stroke-width: 1.0;" x1="51.5" x2="244.5" y1="764.5215" y2="764.5215"/><text fill="#000000" font-family="sans-serif" font-size="13" lengthAdjust="spacingAndGlyphs" textLength="103" x="58.5" y="760.0898">confirmAddition</text><polygon fill="#A80036" points="502.5,789.832,512.5,793.832,502.5,797.832,506.5,793.832" style="stroke: #A80036; stroke-width: 1.0;"/><line style="stroke: #A80036; stroke-width: 1.0;" x1="250.5" x2="508.5" y1="793.832" y2="793.832"/><text fill="#000000" font-family="sans-serif" font-size="13" lengthAdjust="spacingAndGlyphs" textLength="103" x="257.5" y="789.4004">confirmAddition</text><polygon fill="#A80036" points="1014,819.1426,1024,823.1426,1014,827.1426,1018,823.1426" style="stroke: #A80036; stroke-width: 1.0;"/><line style="stroke: #A80036; stroke-width: 1.0;" x1="514.5" x2="1020" y1="823.1426" y2="823.1426"/><text fill="#000000" font-family="sans-serif" font-size="13" lengthAdjust="spacingAndGlyphs" textLength="193" x="521.5" y="818.7109">addSoundSource(soundSource)</text><line style="stroke: #000000; stroke-width: 1.0; stroke-dasharray: 2.0,2.0;" x1="23" x2="1213.5" y1="832.4531" y2="832.4531"/><text fill="#000000" font-family="sans-serif" font-size="11" font-weight="bold" lengthAdjust="spacingAndGlyphs" textLength="43" x="28" y="843.0879">[cancel]</text><polygon fill="#A80036" points="238.5,863.4082,248.5,867.4082,238.5,871.4082,242.5,867.4082" style="stroke: #A80036; stroke-width: 1.0;"/><line style="stroke: #A80036; stroke-width: 1.0;" x1="51.5" x2="244.5" y1="867.4082" y2="867.4082"/><text fill="#000000" font-family="sans-serif" font-size="13" lengthAdjust="spacingAndGlyphs" textLength="94" x="58.5" y="862.9766">cancelAddition</text><polygon fill="#A80036" points="502.5,892.7188,512.5,896.7188,502.5,900.7188,506.5,896.7188" style="stroke: #A80036; stroke-width: 1.0;"/><line style="stroke: #A80036; stroke-width: 1.0;" x1="250.5" x2="508.5" y1="896.7188" y2="896.7188"/><text fill="#000000" font-family="sans-serif" font-size="13" lengthAdjust="spacingAndGlyphs" textLength="103" x="257.5" y="892.2871">confirmAddition</text><polygon fill="#A80036" points="1014,922.0293,1024,926.0293,1014,930.0293,1018,926.0293" style="stroke: #A80036; stroke-width: 1.0;"/><line style="stroke: #A80036; stroke-width: 1.0;" x1="514.5" x2="1020" y1="926.0293" y2="926.0293"/><text fill="#000000" font-family="sans-serif" font-size="13" lengthAdjust="spacingAndGlyphs" textLength="87" x="521.5" y="921.5977">&lt;&lt;destroy&gt;&gt;</text><line style="stroke: #A80036; stroke-width: 2.0;" x1="1017" x2="1035" y1="917.0293" y2="935.0293"/><line style="stroke: #A80036; stroke-width: 2.0;" x1="1017" x2="1035" y1="935.0293" y2="917.0293"/><polygon fill="#A80036" points="238.5,965.3398,248.5,969.3398,238.5,973.3398,242.5,969.3398" style="stroke: #A80036; stroke-width: 1.0;"/><line style="stroke: #A80036; stroke-width: 1.0;" x1="51.5" x2="244.5" y1="969.3398" y2="969.3398"/><text fill="#000000" font-family="sans-serif" font-size="13" lengthAdjust="spacingAndGlyphs" textLength="175" x="58.5" y="964.9082">setVSSNameAndDescription</text><polygon fill="#A80036" points="502.5,994.6504,512.5,998.6504,502.5,1002.6504,506.5,998.6504" style="stroke: #A80036; stroke-width: 1.0;"/><line style="stroke: #A80036; stroke-width: 1.0;" x1="250.5" x2="508.5" y1="998.6504" y2="998.6504"/><text fill="#000000" font-family="sans-serif" font-size="13" lengthAdjust="spacingAndGlyphs" textLength="175" x="257.5" y="994.2188">setVSSNameAndDescription</text><polygon fill="#A80036" points="1014,1023.9609,1024,1027.9609,1014,1031.9609,1018,1027.9609" style="stroke: #A80036; stroke-width: 1.0;"/><line style="stroke: #A80036; stroke-width: 1.0;" x1="514.5" x2="1020" y1="1027.9609" y2="1027.9609"/><text fill="#000000" font-family="sans-serif" font-size="13" lengthAdjust="spacingAndGlyphs" textLength="175" x="521.5" y="1023.5293">setVSSNameAndDescription</text><path d="M23,1043.2715 L85,1043.2715 L85,1050.2715 L75,1060.2715 L23,1060.2715 L23,1043.2715 " fill="#EEEEEE" style="stroke: #000000; stroke-width: 1.0;"/><rect fill="none" height="120.1973" style="stroke: #000000; stroke-width: 2.0;" width="825.5" x="23" y="1043.2715"/><text fill="#000000" font-family="sans-serif" font-size="13" font-weight="bold" lengthAdjust="spacingAndGlyphs" textLength="17" x="38" y="1056.8398">alt</text><text fill="#000000" font-family="sans-serif" font-size="11" font-weight="bold" lengthAdjust="spacingAndGlyphs" textLength="53" x="100" y="1055.9063">[confirm]</text><polygon fill="#A80036" points="238.5,1077.582,248.5,1081.582,238.5,1085.582,242.5,1081.582" style="stroke: #A80036; stroke-width: 1.0;"/><line style="stroke: #A80036; stroke-width: 1.0;" x1="51.5" x2="244.5" y1="1081.582" y2="1081.582"/><text fill="#000000" font-family="sans-serif" font-size="13" lengthAdjust="spacingAndGlyphs" textLength="128" x="58.5" y="1077.1504">comfirmVSSCreation</text><polygon fill="#A80036" points="502.5,1106.8926,512.5,1110.8926,502.5,1114.8926,506.5,1110.8926" style="stroke: #A80036; stroke-width: 1.0;"/><line style="stroke: #A80036; stroke-width: 1.0;" x1="250.5" x2="508.5" y1="1110.8926" y2="1110.8926"/><text fill="#000000" font-family="sans-serif" font-size="13" lengthAdjust="spacingAndGlyphs" textLength="128" x="257.5" y="1106.4609">comfirmVSSCreation</text><polygon fill="#A80036" points="732.5,1136.2031,742.5,1140.2031,732.5,1144.2031,736.5,1140.2031" style="stroke: #A80036; stroke-width: 1.0;"/><line style="stroke: #A80036; stroke-width: 1.0;" x1="514.5" x2="738.5" y1="1140.2031" y2="1140.2031"/><text fill="#000000" font-family="sans-serif" font-size="13" lengthAdjust="spacingAndGlyphs" textLength="206" x="521.5" y="1135.7715">addSoundSpace(newSoundSpace)</text><line style="stroke: #000000; stroke-width: 1.0; stroke-dasharray: 2.0,2.0;" x1="23" x2="848.5" y1="1149.5137" y2="1149.5137"/><text fill="#000000" font-family="sans-serif" font-size="11" font-weight="bold" lengthAdjust="spacingAndGlyphs" textLength="43" x="28" y="1160.1484">[cancel]</text><polygon fill="#A80036" points="261.5,1187.4688,251.5,1191.4688,261.5,1195.4688,257.5,1191.4688" style="stroke: #A80036; stroke-width: 1.0;"/><line style="stroke: #A80036; stroke-width: 1.0;" x1="255.5" x2="513.5" y1="1191.4688" y2="1191.4688"/><text fill="#000000" font-family="sans-serif" font-size="13" lengthAdjust="spacingAndGlyphs" textLength="87" x="267.5" y="1187.0371">&lt;&lt;destroy&gt;&gt;</text><line style="stroke: #A80036; stroke-width: 2.0;" x1="241.5" x2="259.5" y1="1182.4688" y2="1200.4688"/><line style="stroke: #A80036; stroke-width: 2.0;" x1="241.5" x2="259.5" y1="1200.4688" y2="1182.4688"/><line style="stroke: #A80036; stroke-width: 2.0;" x1="505.5" x2="523.5" y1="1182.4688" y2="1200.4688"/><line style="stroke: #A80036; stroke-width: 2.0;" x1="505.5" x2="523.5" y1="1200.4688" y2="1182.4688"/><!--
@startuml Diagrams/CreateConcertModeVSS
hide footbox
skinparam sequenceParticipant underline


actor User as user
participant ":CreateConcertVSSPage" as createboundary
participant ":CreateConcertVSSControl" as createcontrol
participant ":LocalSoundSpaceLibrary" as library
participant "newSoundSpace:ConcertModeVirtualSoundSpace" as newspace

create createboundary
-> createboundary: <<create>>
create createcontrol
createboundary -> createcontrol: <<create>>
create newspace
createcontrol -> newspace: <<create>>

loop add virual sound source
    alt add from library
        note right of user: Notice that there are no shared SoundSources here, each time, only the SoundFragment object is reused.
        user -> createboundary: selectExistedSoundSource
        createboundary -> createcontrol: getLocalSoundFragments
        createcontrol -> library: getLocalSoundFragments
        library - -> createcontrol: filteredSoundFragments
        createcontrol - -> createboundary: displayAvailableLocalSoundFragments
        user -> createboundary: selectSoundFragment
        createboundary -> createcontrol: addSoundFragment
    else add from file
        user -> createboundary: selectFromFileSystem
        ...somehow CreateMapVSSControl got the new SoundFragment # specify during implementation...
    end


    participant ":SoundSource" as source
    user -> user: wakeUp(self)
    create source
    createcontrol -> source: <<create>>
    createcontrol -> source: setSoundFragment
    alt confirm
        user -> createboundary: confirmAddition
        createboundary -> createcontrol: confirmAddition
        createcontrol -> newspace: addSoundSource(soundSource)
    else cancel
        user -> createboundary: cancelAddition
        createboundary -> createcontrol: confirmAddition
        createcontrol -> newspace: <<destroy>>
        destroy newspace
    end

end
user -> createboundary: setVSSNameAndDescription
createboundary -> createcontrol: setVSSNameAndDescription
createcontrol -> newspace: setVSSNameAndDescription
alt confirm
    user -> createboundary: comfirmVSSCreation
    createboundary -> createcontrol: comfirmVSSCreation
    createcontrol -> library: addSoundSpace(newSoundSpace)
else cancel
end
createcontrol -> createboundary: <<destroy>>
destroy createboundary
destroy createcontrol
@enduml

PlantUML version 1.2018.01(Mon Jan 29 02:08:22 CST 2018)
(GPL source distribution)
Java Runtime: Java(TM) SE Runtime Environment
JVM: Java HotSpot(TM) 64-Bit Server VM
Java Version: 9+181
Operating System: Mac OS X
OS Version: 10.12.6
Default Encoding: UTF-8
Language: zh
Country: CN
--></g></svg>