<?xml version="1.0" encoding="UTF-8" standalone="no"?><svg xmlns="http://www.w3.org/2000/svg" xmlns:xlink="http://www.w3.org/1999/xlink" contentScriptType="application/ecmascript" contentStyleType="text/css" height="487px" preserveAspectRatio="none" style="width:691px;height:487px;" version="1.1" viewBox="0 0 691 487"
    width="691px" zoomAndPan="magnify"><defs><filter height="300%" id="fpjriyfvmybf5" width="300%" x="-1" y="-1"><feGaussianBlur result="blurOut" stdDeviation="2.0"/><feColorMatrix in="blurOut" result="blurOut2" type="matrix" values="0 0 0 0 0 0 0 0 0 0 0 0 0 0 0 0 0 0 .4 0"/><feOffset dx="4.0" dy="4.0" in="blurOut2" result="blurOut3"/><feBlend in="SourceGraphic" in2="blurOut3" mode="normal"/></filter></defs><g><rect fill="#FFFFFF" filter="url(#fpjriyfvmybf5)" height="266.75" style="stroke: #000000; stroke-width: 2.0;" width="666" x="13" y="191.4199"/><rect fill="#FFFFFF" height="73.5762" style="stroke: none; stroke-width: 1.0;" width="666" x="13" y="384.5938"/><line style="stroke: #A80036; stroke-width: 1.0; stroke-dasharray: 5.0,5.0;" x1="41" x2="41" y1="86.4883" y2="475.1699"/><line style="stroke: #A80036; stroke-width: 1.0; stroke-dasharray: 5.0,5.0;" x1="192" x2="192" y1="86.4883" y2="475.1699"/><line style="stroke: #A80036; stroke-width: 1.0; stroke-dasharray: 5.0,5.0;" x1="380" x2="380" y1="86.4883" y2="475.1699"/><line style="stroke: #A80036; stroke-width: 1.0; stroke-dasharray: 5.0,5.0;" x1="575" x2="575" y1="86.4883" y2="475.1699"/><text fill="#000000" font-family="sans-serif" font-size="14" lengthAdjust="spacingAndGlyphs" text-decoration="underline" textLength="31" x="23" y="83.5352">User</text><line style="stroke: #000000; stroke-width: 1.0;" x1="23" x2="54" y1="85.5352" y2="85.5352"/><ellipse cx="41.5" cy="13" fill="#FEFECE" filter="url(#fpjriyfvmybf5)" rx="8" ry="8" style="stroke: #A80036; stroke-width: 2.0;"/><path d="M41.5,21 L41.5,48 M28.5,29 L54.5,29 M41.5,48 L28.5,63 M41.5,48 L54.5,63 " fill="none" filter="url(#fpjriyfvmybf5)" style="stroke: #A80036; stroke-width: 2.0;"/><rect fill="#FEFECE" filter="url(#fpjriyfvmybf5)" height="30.4883" style="stroke: #A80036; stroke-width: 1.5;" width="171" x="105" y="51"/><text fill="#000000" font-family="sans-serif" font-size="14" lengthAdjust="spacingAndGlyphs" text-decoration="underline" textLength="157" x="112" y="71.5352">:LocalVSSManagerPage</text><line style="stroke: #000000; stroke-width: 1.0;" x1="112" x2="269" y1="73.5352" y2="73.5352"/><rect fill="#FEFECE" filter="url(#fpjriyfvmybf5)" height="30.4883" style="stroke: #A80036; stroke-width: 1.5;" width="177" x="290" y="51"/><text fill="#000000" font-family="sans-serif" font-size="14" lengthAdjust="spacingAndGlyphs" text-decoration="underline" textLength="163" x="297" y="71.5352">:LocalVSSLibraryControl</text><line style="stroke: #000000; stroke-width: 1.0;" x1="297" x2="460" y1="73.5352" y2="73.5352"/><rect fill="#FEFECE" filter="url(#fpjriyfvmybf5)" height="30.4883" style="stroke: #A80036; stroke-width: 1.5;" width="184" x="481" y="51"/><text fill="#000000" font-family="sans-serif" font-size="14" lengthAdjust="spacingAndGlyphs" text-decoration="underline" textLength="170" x="488" y="71.5352">:LocalSoundSpaceLibrary</text><line style="stroke: #000000; stroke-width: 1.0;" x1="488" x2="658" y1="73.5352" y2="73.5352"/><polygon fill="#A80036" points="180.5,113.4883,190.5,117.4883,180.5,121.4883,184.5,117.4883" style="stroke: #A80036; stroke-width: 1.0;"/><line style="stroke: #A80036; stroke-width: 1.0;" x1="41.5" x2="186.5" y1="117.4883" y2="117.4883"/><text fill="#000000" font-family="sans-serif" font-size="13" lengthAdjust="spacingAndGlyphs" textLength="127" x="48.5" y="113.0566">deleteVSS(whichVSS)</text><polygon fill="#A80036" points="368.5,142.7988,378.5,146.7988,368.5,150.7988,372.5,146.7988" style="stroke: #A80036; stroke-width: 1.0;"/><line style="stroke: #A80036; stroke-width: 1.0;" x1="192.5" x2="374.5" y1="146.7988" y2="146.7988"/><text fill="#000000" font-family="sans-serif" font-size="13" lengthAdjust="spacingAndGlyphs" textLength="127" x="199.5" y="142.3672">deleteVSS(whichVSS)</text><polygon fill="#A80036" points="203.5,172.1094,193.5,176.1094,203.5,180.1094,199.5,176.1094" style="stroke: #A80036; stroke-width: 1.0;"/><line style="stroke: #A80036; stroke-width: 1.0;" x1="197.5" x2="379.5" y1="176.1094" y2="176.1094"/><text fill="#000000" font-family="sans-serif" font-size="13" lengthAdjust="spacingAndGlyphs" textLength="94" x="209.5" y="171.6777">comfirmDialog</text><path d="M13,191.4199 L75,191.4199 L75,198.4199 L65,208.4199 L13,208.4199 L13,191.4199 " fill="#EEEEEE" style="stroke: #000000; stroke-width: 1.0;"/><rect fill="none" height="266.75" style="stroke: #000000; stroke-width: 2.0;" width="666" x="13" y="191.4199"/><text fill="#000000" font-family="sans-serif" font-size="13" font-weight="bold" lengthAdjust="spacingAndGlyphs" textLength="17" x="28" y="204.9883">alt</text><text fill="#000000" font-family="sans-serif" font-size="11" font-weight="bold" lengthAdjust="spacingAndGlyphs" textLength="53" x="90" y="204.0547">[confirm]</text><polygon fill="#A80036" points="180.5,225.7305,190.5,229.7305,180.5,233.7305,184.5,229.7305" style="stroke: #A80036; stroke-width: 1.0;"/><line style="stroke: #A80036; stroke-width: 1.0;" x1="41.5" x2="186.5" y1="229.7305" y2="229.7305"/><text fill="#000000" font-family="sans-serif" font-size="13" lengthAdjust="spacingAndGlyphs" textLength="89" x="48.5" y="225.2988">confirmDelete</text><polygon fill="#A80036" points="368.5,255.041,378.5,259.041,368.5,263.041,372.5,259.041" style="stroke: #A80036; stroke-width: 1.0;"/><line style="stroke: #A80036; stroke-width: 1.0;" x1="192.5" x2="374.5" y1="259.041" y2="259.041"/><text fill="#000000" font-family="sans-serif" font-size="13" lengthAdjust="spacingAndGlyphs" textLength="49" x="199.5" y="254.6094">confirm</text><polygon fill="#A80036" points="563,284.3516,573,288.3516,563,292.3516,567,288.3516" style="stroke: #A80036; stroke-width: 1.0;"/><line style="stroke: #A80036; stroke-width: 1.0;" x1="380.5" x2="569" y1="288.3516" y2="288.3516"/><text fill="#000000" font-family="sans-serif" font-size="13" lengthAdjust="spacingAndGlyphs" textLength="127" x="387.5" y="283.9199">deleteVSS(whichVSS)</text><polygon fill="#A80036" points="563,313.6621,573,317.6621,563,321.6621,567,317.6621" style="stroke: #A80036; stroke-width: 1.0;"/><line style="stroke: #A80036; stroke-width: 1.0;" x1="380.5" x2="569" y1="317.6621" y2="317.6621"/><text fill="#000000" font-family="sans-serif" font-size="13" lengthAdjust="spacingAndGlyphs" textLength="121" x="387.5" y="313.2305">getVSSList(pageNo)</text><polygon fill="#A80036" points="391.5,342.9727,381.5,346.9727,391.5,350.9727,387.5,346.9727" style="stroke: #A80036; stroke-width: 1.0;"/><line style="stroke: #A80036; stroke-width: 1.0; stroke-dasharray: 2.0,2.0;" x1="385.5" x2="574" y1="346.9727" y2="346.9727"/><text fill="#000000" font-family="sans-serif" font-size="13" lengthAdjust="spacingAndGlyphs" textLength="90" x="397.5" y="342.541">listOfLocalVSS</text><polygon fill="#A80036" points="203.5,372.2832,193.5,376.2832,203.5,380.2832,199.5,376.2832" style="stroke: #A80036; stroke-width: 1.0;"/><line style="stroke: #A80036; stroke-width: 1.0;" x1="197.5" x2="574" y1="376.2832" y2="376.2832"/><text fill="#000000" font-family="sans-serif" font-size="13" lengthAdjust="spacingAndGlyphs" textLength="188" x="209.5" y="371.8516">displayVSSList(listOfLocalVSS)</text><line style="stroke: #000000; stroke-width: 1.0; stroke-dasharray: 2.0,2.0;" x1="13" x2="679" y1="385.5938" y2="385.5938"/><text fill="#000000" font-family="sans-serif" font-size="11" font-weight="bold" lengthAdjust="spacingAndGlyphs" textLength="43" x="18" y="396.2285">[cancel]</text><polygon fill="#A80036" points="180.5,416.5488,190.5,420.5488,180.5,424.5488,184.5,420.5488" style="stroke: #A80036; stroke-width: 1.0;"/><line style="stroke: #A80036; stroke-width: 1.0;" x1="41.5" x2="186.5" y1="420.5488" y2="420.5488"/><text fill="#000000" font-family="sans-serif" font-size="13" lengthAdjust="spacingAndGlyphs" textLength="80" x="48.5" y="416.1172">cancelDelete</text><polygon fill="#A80036" points="368.5,445.8594,378.5,449.8594,368.5,453.8594,372.5,449.8594" style="stroke: #A80036; stroke-width: 1.0;"/><line style="stroke: #A80036; stroke-width: 1.0;" x1="192.5" x2="374.5" y1="449.8594" y2="449.8594"/><text fill="#000000" font-family="sans-serif" font-size="13" lengthAdjust="spacingAndGlyphs" textLength="80" x="199.5" y="445.4277">cancelDelete</text><!--
@startuml Diagrams/DeleteVSS
hide footbox
skinparam sequenceParticipant underline

actor User as user
participant ":LocalVSSManagerPage" as page
participant ":LocalVSSLibraryControl" as control
participant ":LocalSoundSpaceLibrary" as library

user -> page: deleteVSS(whichVSS)
page -> control: deleteVSS(whichVSS)
control -> page: comfirmDialog
alt confirm
    user -> page: confirmDelete
    page -> control: confirm
    control -> library: deleteVSS(whichVSS)
    control -> library: getVSSList(pageNo)
    library - -> control: listOfLocalVSS
    library -> page: displayVSSList(listOfLocalVSS)
else cancel
    user -> page: cancelDelete
    page -> control: cancelDelete
end


@enduml

PlantUML version 1.2018.01(Mon Jan 29 02:08:22 CST 2018)
(GPL source distribution)
Java Runtime: Java(TM) SE Runtime Environment
JVM: Java HotSpot(TM) 64-Bit Server VM
Java Version: 9+181
Operating System: Mac OS X
OS Version: 10.12.6
Default Encoding: UTF-8
Language: zh
Country: CN
--></g></svg>