<?xml version="1.0" encoding="UTF-8" standalone="no"?><svg xmlns="http://www.w3.org/2000/svg" xmlns:xlink="http://www.w3.org/1999/xlink" contentScriptType="application/ecmascript" contentStyleType="text/css" height="428px" preserveAspectRatio="none" style="width:816px;height:428px;" version="1.1" viewBox="0 0 816 428"
    width="816px" zoomAndPan="magnify"><defs><filter height="300%" id="f1whfw1oa9omga" width="300%" x="-1" y="-1"><feGaussianBlur result="blurOut" stdDeviation="2.0"/><feColorMatrix in="blurOut" result="blurOut2" type="matrix" values="0 0 0 0 0 0 0 0 0 0 0 0 0 0 0 0 0 0 .4 0"/><feOffset dx="4.0" dy="4.0" in="blurOut2" result="blurOut3"/><feBlend in="SourceGraphic" in2="blurOut3" mode="normal"/></filter></defs><g><rect fill="#FFFFFF" filter="url(#f1whfw1oa9omga)" height="266.75" style="stroke: #000000; stroke-width: 2.0;" width="745" x="59" y="132.7988"/><rect fill="#FFFFFF" height="132.1973" style="stroke: none; stroke-width: 1.0;" width="745" x="59" y="267.3516"/><line style="stroke: #A80036; stroke-width: 1.0; stroke-dasharray: 5.0,5.0;" x1="26" x2="26" y1="86.4883" y2="416.5488"/><line style="stroke: #A80036; stroke-width: 1.0; stroke-dasharray: 5.0,5.0;" x1="155" x2="155" y1="86.4883" y2="416.5488"/><line style="stroke: #A80036; stroke-width: 1.0; stroke-dasharray: 5.0,5.0;" x1="348" x2="348" y1="86.4883" y2="416.5488"/><line style="stroke: #A80036; stroke-width: 1.0; stroke-dasharray: 5.0,5.0;" x1="520" x2="520" y1="86.4883" y2="416.5488"/><line style="stroke: #A80036; stroke-width: 1.0; stroke-dasharray: 5.0,5.0;" x1="695" x2="695" y1="86.4883" y2="416.5488"/><text fill="#000000" font-family="sans-serif" font-size="14" lengthAdjust="spacingAndGlyphs" text-decoration="underline" textLength="31" x="8" y="83.5352">User</text><line style="stroke: #000000; stroke-width: 1.0;" x1="8" x2="39" y1="85.5352" y2="85.5352"/><ellipse cx="26.5" cy="13" fill="#FEFECE" filter="url(#f1whfw1oa9omga)" rx="8" ry="8" style="stroke: #A80036; stroke-width: 2.0;"/><path d="M26.5,21 L26.5,48 M13.5,29 L39.5,29 M26.5,48 L13.5,63 M26.5,48 L39.5,63 " fill="none" filter="url(#f1whfw1oa9omga)" style="stroke: #A80036; stroke-width: 2.0;"/><rect fill="#FEFECE" filter="url(#f1whfw1oa9omga)" height="30.4883" style="stroke: #A80036; stroke-width: 1.5;" width="169" x="69" y="51"/><text fill="#000000" font-family="sans-serif" font-size="14" lengthAdjust="spacingAndGlyphs" text-decoration="underline" textLength="155" x="76" y="71.5352">:PreviewOnline***Page</text><line style="stroke: #000000; stroke-width: 1.0;" x1="76" x2="231" y1="73.5352" y2="73.5352"/><rect fill="#FEFECE" filter="url(#f1whfw1oa9omga)" height="30.4883" style="stroke: #A80036; stroke-width: 1.5;" width="188" x="252" y="51"/><text fill="#000000" font-family="sans-serif" font-size="14" lengthAdjust="spacingAndGlyphs" text-decoration="underline" textLength="174" x="259" y="71.5352">:PreviewOnline***Control</text><line style="stroke: #000000; stroke-width: 1.0;" x1="259" x2="433" y1="73.5352" y2="73.5352"/><rect fill="#FEFECE" filter="url(#f1whfw1oa9omga)" height="30.4883" style="stroke: #A80036; stroke-width: 1.5;" width="128" x="454" y="51"/><text fill="#000000" font-family="sans-serif" font-size="14" lengthAdjust="spacingAndGlyphs" text-decoration="underline" textLength="114" x="461" y="71.5352">:UserInfoControl</text><line style="stroke: #000000; stroke-width: 1.0;" x1="461" x2="575" y1="73.5352" y2="73.5352"/><rect fill="#FEFECE" filter="url(#f1whfw1oa9omga)" height="30.4883" style="stroke: #A80036; stroke-width: 1.5;" width="194" x="596" y="51"/><text fill="#000000" font-family="sans-serif" font-size="14" lengthAdjust="spacingAndGlyphs" text-decoration="underline" textLength="180" x="603" y="71.5352">:OnlineSoundSpaceLibrary</text><line style="stroke: #000000; stroke-width: 1.0;" x1="603" x2="783" y1="73.5352" y2="73.5352"/><polygon fill="#A80036" points="143.5,113.4883,153.5,117.4883,143.5,121.4883,147.5,117.4883" style="stroke: #A80036; stroke-width: 1.0;"/><line style="stroke: #A80036; stroke-width: 1.0;" x1="26.5" x2="149.5" y1="117.4883" y2="117.4883"/><text fill="#000000" font-family="sans-serif" font-size="13" lengthAdjust="spacingAndGlyphs" textLength="105" x="33.5" y="113.0566">toggleLikeStatus</text><path d="M59,132.7988 L121,132.7988 L121,139.7988 L111,149.7988 L59,149.7988 L59,132.7988 " fill="#EEEEEE" style="stroke: #000000; stroke-width: 1.0;"/><rect fill="none" height="266.75" style="stroke: #000000; stroke-width: 2.0;" width="745" x="59" y="132.7988"/><text fill="#000000" font-family="sans-serif" font-size="13" font-weight="bold" lengthAdjust="spacingAndGlyphs" textLength="17" x="74" y="146.3672">alt</text><text fill="#000000" font-family="sans-serif" font-size="11" font-weight="bold" lengthAdjust="spacingAndGlyphs" textLength="58" x="136" y="145.4336">[not liked]</text><polygon fill="#A80036" points="336,167.1094,346,171.1094,336,175.1094,340,171.1094" style="stroke: #A80036; stroke-width: 1.0;"/><line style="stroke: #A80036; stroke-width: 1.0;" x1="155.5" x2="342" y1="171.1094" y2="171.1094"/><text fill="#000000" font-family="sans-serif" font-size="13" lengthAdjust="spacingAndGlyphs" textLength="45" x="162.5" y="166.6777">likeVSS</text><polygon fill="#A80036" points="508,196.4199,518,200.4199,508,204.4199,512,200.4199" style="stroke: #A80036; stroke-width: 1.0;"/><line style="stroke: #A80036; stroke-width: 1.0;" x1="348" x2="514" y1="200.4199" y2="200.4199"/><text fill="#000000" font-family="sans-serif" font-size="13" lengthAdjust="spacingAndGlyphs" textLength="117" x="355" y="195.9883">getCurrentUserID()</text><polygon fill="#A80036" points="359,225.7305,349,229.7305,359,233.7305,355,229.7305" style="stroke: #A80036; stroke-width: 1.0;"/><line style="stroke: #A80036; stroke-width: 1.0; stroke-dasharray: 2.0,2.0;" x1="353" x2="519" y1="229.7305" y2="229.7305"/><text fill="#000000" font-family="sans-serif" font-size="13" lengthAdjust="spacingAndGlyphs" textLength="87" x="365" y="225.2988">currentUserID</text><polygon fill="#A80036" points="683,255.041,693,259.041,683,263.041,687,259.041" style="stroke: #A80036; stroke-width: 1.0;"/><line style="stroke: #A80036; stroke-width: 1.0;" x1="348" x2="689" y1="259.041" y2="259.041"/><text fill="#000000" font-family="sans-serif" font-size="13" lengthAdjust="spacingAndGlyphs" textLength="103" x="355" y="254.6094">addLike(thisVSS)</text><line style="stroke: #000000; stroke-width: 1.0; stroke-dasharray: 2.0,2.0;" x1="59" x2="804" y1="268.3516" y2="268.3516"/><text fill="#000000" font-family="sans-serif" font-size="11" font-weight="bold" lengthAdjust="spacingAndGlyphs" textLength="80" x="64" y="278.9863">[already liked]</text><polygon fill="#A80036" points="336,299.3066,346,303.3066,336,307.3066,340,303.3066" style="stroke: #A80036; stroke-width: 1.0;"/><line style="stroke: #A80036; stroke-width: 1.0;" x1="155.5" x2="342" y1="303.3066" y2="303.3066"/><text fill="#000000" font-family="sans-serif" font-size="13" lengthAdjust="spacingAndGlyphs" textLength="64" x="162.5" y="298.875">dislikeVSS</text><polygon fill="#A80036" points="508,328.6172,518,332.6172,508,336.6172,512,332.6172" style="stroke: #A80036; stroke-width: 1.0;"/><line style="stroke: #A80036; stroke-width: 1.0;" x1="348" x2="514" y1="332.6172" y2="332.6172"/><text fill="#000000" font-family="sans-serif" font-size="13" lengthAdjust="spacingAndGlyphs" textLength="117" x="355" y="328.1855">getCurrentUserID()</text><polygon fill="#A80036" points="359,357.9277,349,361.9277,359,365.9277,355,361.9277" style="stroke: #A80036; stroke-width: 1.0;"/><line style="stroke: #A80036; stroke-width: 1.0; stroke-dasharray: 2.0,2.0;" x1="353" x2="519" y1="361.9277" y2="361.9277"/><text fill="#000000" font-family="sans-serif" font-size="13" lengthAdjust="spacingAndGlyphs" textLength="87" x="365" y="357.4961">currentUserID</text><polygon fill="#A80036" points="683,387.2383,693,391.2383,683,395.2383,687,391.2383" style="stroke: #A80036; stroke-width: 1.0;"/><line style="stroke: #A80036; stroke-width: 1.0;" x1="348" x2="689" y1="391.2383" y2="391.2383"/><text fill="#000000" font-family="sans-serif" font-size="13" lengthAdjust="spacingAndGlyphs" textLength="126" x="355" y="386.8066">removeLike(thisVSS)</text><!--
@startuml Diagrams/LikeVSS
hide footbox
skinparam sequenceParticipant underline
actor User as user
participant ":PreviewOnline***Page" as page
participant ":PreviewOnline***Control" as control
participant ":UserInfoControl" as info
participant ":OnlineSoundSpaceLibrary" as library

user -> page: toggleLikeStatus
alt not liked
    page -> control: likeVSS
    control -> info: getCurrentUserID()
    info - -> control: currentUserID
    control -> library: addLike(thisVSS)
else already liked
    page -> control: dislikeVSS
    control -> info: getCurrentUserID()
    info - -> control: currentUserID
    control -> library: removeLike(thisVSS)
end

@enduml

PlantUML version 1.2018.01(Mon Jan 29 02:08:22 CST 2018)
(GPL source distribution)
Java Runtime: Java(TM) SE Runtime Environment
JVM: Java HotSpot(TM) 64-Bit Server VM
Java Version: 9+181
Operating System: Mac OS X
OS Version: 10.12.6
Default Encoding: UTF-8
Language: zh
Country: CN
--></g></svg>