<?xml version="1.0" encoding="UTF-8" standalone="no"?><svg xmlns="http://www.w3.org/2000/svg" xmlns:xlink="http://www.w3.org/1999/xlink" contentScriptType="application/ecmascript" contentStyleType="text/css" height="1098px" preserveAspectRatio="none" style="width:1227px;height:1098px;" version="1.1" viewBox="0 0 1227 1098"
    width="1227px" zoomAndPan="magnify"><defs><filter height="300%" id="fqky6gkoml10w" width="300%" x="-1" y="-1"><feGaussianBlur result="blurOut" stdDeviation="2.0"/><feColorMatrix in="blurOut" result="blurOut2" type="matrix" values="0 0 0 0 0 0 0 0 0 0 0 0 0 0 0 0 0 0 .4 0"/><feOffset dx="4.0" dy="4.0" in="blurOut2" result="blurOut3"/><feBlend in="SourceGraphic" in2="blurOut3" mode="normal"/></filter></defs><g><rect fill="#FEFECE" filter="url(#fqky6gkoml10w)" height="30.4883" style="stroke: #A80036; stroke-width: 1.5;" width="177" x="334" y="125.7988"/><text fill="#000000" font-family="sans-serif" font-size="14" lengthAdjust="spacingAndGlyphs" text-decoration="underline" textLength="163" x="341" y="146.334">:LocalVSSLibraryControl</text><line style="stroke: #000000; stroke-width: 1.0;" x1="341" x2="504" y1="148.334" y2="148.334"/><rect fill="#FFFFFF" filter="url(#fqky6gkoml10w)" height="802.7852" style="stroke: #000000; stroke-width: 2.0;" width="1203.5" x="13" y="266.2188"/><rect fill="#FFFFFF" filter="url(#fqky6gkoml10w)" height="771.4746" style="stroke: #000000; stroke-width: 2.0;" width="1183.5" x="23" y="290.5293"/><rect fill="#FFFFFF" height="85.2207" style="stroke: none; stroke-width: 1.0;" width="1183.5" x="23" y="378.1055"/><rect fill="#FFFFFF" height="85.2207" style="stroke: none; stroke-width: 1.0;" width="1183.5" x="23" y="463.3262"/><rect fill="#FFFFFF" height="85.2207" style="stroke: none; stroke-width: 1.0;" width="1183.5" x="23" y="548.5469"/><rect fill="#FFFFFF" height="210.8184" style="stroke: none; stroke-width: 1.0;" width="1183.5" x="23" y="633.7676"/><rect fill="#FFFFFF" filter="url(#fqky6gkoml10w)" height="123.2422" style="stroke: #000000; stroke-width: 2.0;" width="872.5" x="324" y="714.3438"/><rect fill="#FEFECE" filter="url(#fqky6gkoml10w)" height="30.4883" style="stroke: #A80036; stroke-width: 1.5;" width="167" x="809.5" y="731.6543"/><text fill="#000000" font-family="sans-serif" font-size="14" lengthAdjust="spacingAndGlyphs" text-decoration="underline" textLength="153" x="816.5" y="752.1895">:PreviewLocalMapPage</text><line style="stroke: #000000; stroke-width: 1.0;" x1="816.5" x2="969.5" y1="754.1895" y2="754.1895"/><rect fill="#FFFFFF" height="60.4434" style="stroke: none; stroke-width: 1.0;" width="872.5" x="324" y="777.1426"/><rect fill="#FEFECE" filter="url(#fqky6gkoml10w)" height="30.4883" style="stroke: #A80036; stroke-width: 1.5;" width="192" x="990.5" y="792.0977"/><text fill="#000000" font-family="sans-serif" font-size="14" lengthAdjust="spacingAndGlyphs" text-decoration="underline" textLength="178" x="997.5" y="812.6328">:PreviewLocalConcertPage</text><line style="stroke: #000000; stroke-width: 1.0;" x1="997.5" x2="1175.5" y1="814.6328" y2="814.6328"/><rect fill="#FFFFFF" height="161.5078" style="stroke: none; stroke-width: 1.0;" width="1183.5" x="23" y="844.5859"/><rect fill="#FFFFFF" height="55.9102" style="stroke: none; stroke-width: 1.0;" width="1183.5" x="23" y="1006.0938"/><line style="stroke: #A80036; stroke-width: 1.0;" x1="51" x2="51" y1="86.4883" y2="337.1504"/><line style="stroke: #A80036; stroke-width: 1.0; stroke-dasharray: 1.0,4.0;" x1="51" x2="51" y1="337.1504" y2="378.1055"/><line style="stroke: #A80036; stroke-width: 1.0;" x1="51" x2="51" y1="378.1055" y2="422.3711"/><line style="stroke: #A80036; stroke-width: 1.0; stroke-dasharray: 1.0,4.0;" x1="51" x2="51" y1="422.3711" y2="463.3262"/><line style="stroke: #A80036; stroke-width: 1.0;" x1="51" x2="51" y1="463.3262" y2="507.5918"/><line style="stroke: #A80036; stroke-width: 1.0; stroke-dasharray: 1.0,4.0;" x1="51" x2="51" y1="507.5918" y2="548.5469"/><line style="stroke: #A80036; stroke-width: 1.0;" x1="51" x2="51" y1="548.5469" y2="592.8125"/><line style="stroke: #A80036; stroke-width: 1.0; stroke-dasharray: 1.0,4.0;" x1="51" x2="51" y1="592.8125" y2="633.7676"/><line style="stroke: #A80036; stroke-width: 1.0;" x1="51" x2="51" y1="633.7676" y2="1021.0488"/><line style="stroke: #A80036; stroke-width: 1.0; stroke-dasharray: 1.0,4.0;" x1="51" x2="51" y1="1021.0488" y2="1062.0039"/><line style="stroke: #A80036; stroke-width: 1.0;" x1="51" x2="51" y1="1062.0039" y2="1086.0039"/><line style="stroke: #A80036; stroke-width: 1.0;" x1="212" x2="212" y1="86.4883" y2="337.1504"/><line style="stroke: #A80036; stroke-width: 1.0; stroke-dasharray: 1.0,4.0;" x1="212" x2="212" y1="337.1504" y2="378.1055"/><line style="stroke: #A80036; stroke-width: 1.0;" x1="212" x2="212" y1="378.1055" y2="422.3711"/><line style="stroke: #A80036; stroke-width: 1.0; stroke-dasharray: 1.0,4.0;" x1="212" x2="212" y1="422.3711" y2="463.3262"/><line style="stroke: #A80036; stroke-width: 1.0;" x1="212" x2="212" y1="463.3262" y2="507.5918"/><line style="stroke: #A80036; stroke-width: 1.0; stroke-dasharray: 1.0,4.0;" x1="212" x2="212" y1="507.5918" y2="548.5469"/><line style="stroke: #A80036; stroke-width: 1.0;" x1="212" x2="212" y1="548.5469" y2="592.8125"/><line style="stroke: #A80036; stroke-width: 1.0; stroke-dasharray: 1.0,4.0;" x1="212" x2="212" y1="592.8125" y2="633.7676"/><line style="stroke: #A80036; stroke-width: 1.0;" x1="212" x2="212" y1="633.7676" y2="1021.0488"/><line style="stroke: #A80036; stroke-width: 1.0; stroke-dasharray: 1.0,4.0;" x1="212" x2="212" y1="1021.0488" y2="1062.0039"/><line style="stroke: #A80036; stroke-width: 1.0;" x1="212" x2="212" y1="1062.0039" y2="1086.0039"/><line style="stroke: #A80036; stroke-width: 1.0;" x1="424" x2="424" y1="158.543" y2="337.1504"/><line style="stroke: #A80036; stroke-width: 1.0; stroke-dasharray: 1.0,4.0;" x1="424" x2="424" y1="337.1504" y2="378.1055"/><line style="stroke: #A80036; stroke-width: 1.0;" x1="424" x2="424" y1="378.1055" y2="422.3711"/><line style="stroke: #A80036; stroke-width: 1.0; stroke-dasharray: 1.0,4.0;" x1="424" x2="424" y1="422.3711" y2="463.3262"/><line style="stroke: #A80036; stroke-width: 1.0;" x1="424" x2="424" y1="463.3262" y2="507.5918"/><line style="stroke: #A80036; stroke-width: 1.0; stroke-dasharray: 1.0,4.0;" x1="424" x2="424" y1="507.5918" y2="548.5469"/><line style="stroke: #A80036; stroke-width: 1.0;" x1="424" x2="424" y1="548.5469" y2="592.8125"/><line style="stroke: #A80036; stroke-width: 1.0; stroke-dasharray: 1.0,4.0;" x1="424" x2="424" y1="592.8125" y2="633.7676"/><line style="stroke: #A80036; stroke-width: 1.0;" x1="424" x2="424" y1="633.7676" y2="1021.0488"/><line style="stroke: #A80036; stroke-width: 1.0; stroke-dasharray: 1.0,4.0;" x1="424" x2="424" y1="1021.0488" y2="1062.0039"/><line style="stroke: #A80036; stroke-width: 1.0;" x1="424" x2="424" y1="1062.0039" y2="1086.0039"/><line style="stroke: #A80036; stroke-width: 1.0;" x1="705.5" x2="705.5" y1="86.4883" y2="337.1504"/><line style="stroke: #A80036; stroke-width: 1.0; stroke-dasharray: 1.0,4.0;" x1="705.5" x2="705.5" y1="337.1504" y2="378.1055"/><line style="stroke: #A80036; stroke-width: 1.0;" x1="705.5" x2="705.5" y1="378.1055" y2="422.3711"/><line style="stroke: #A80036; stroke-width: 1.0; stroke-dasharray: 1.0,4.0;" x1="705.5" x2="705.5" y1="422.3711" y2="463.3262"/><line style="stroke: #A80036; stroke-width: 1.0;" x1="705.5" x2="705.5" y1="463.3262" y2="507.5918"/><line style="stroke: #A80036; stroke-width: 1.0; stroke-dasharray: 1.0,4.0;" x1="705.5" x2="705.5" y1="507.5918" y2="548.5469"/><line style="stroke: #A80036; stroke-width: 1.0;" x1="705.5" x2="705.5" y1="548.5469" y2="592.8125"/><line style="stroke: #A80036; stroke-width: 1.0; stroke-dasharray: 1.0,4.0;" x1="705.5" x2="705.5" y1="592.8125" y2="633.7676"/><line style="stroke: #A80036; stroke-width: 1.0;" x1="705.5" x2="705.5" y1="633.7676" y2="1021.0488"/><line style="stroke: #A80036; stroke-width: 1.0; stroke-dasharray: 1.0,4.0;" x1="705.5" x2="705.5" y1="1021.0488" y2="1062.0039"/><line style="stroke: #A80036; stroke-width: 1.0;" x1="705.5" x2="705.5" y1="1062.0039" y2="1086.0039"/><line style="stroke: #A80036; stroke-width: 1.0;" x1="894.5" x2="894.5" y1="764.3984" y2="1021.0488"/><line style="stroke: #A80036; stroke-width: 1.0; stroke-dasharray: 1.0,4.0;" x1="894.5" x2="894.5" y1="1021.0488" y2="1062.0039"/><line style="stroke: #A80036; stroke-width: 1.0;" x1="894.5" x2="894.5" y1="1062.0039" y2="1086.0039"/><line style="stroke: #A80036; stroke-width: 1.0;" x1="1088.5" x2="1088.5" y1="824.8418" y2="1021.0488"/><line style="stroke: #A80036; stroke-width: 1.0; stroke-dasharray: 1.0,4.0;" x1="1088.5" x2="1088.5" y1="1021.0488" y2="1062.0039"/><line style="stroke: #A80036; stroke-width: 1.0;" x1="1088.5" x2="1088.5" y1="1062.0039" y2="1086.0039"/><text fill="#000000" font-family="sans-serif" font-size="14" lengthAdjust="spacingAndGlyphs" text-decoration="underline" textLength="31" x="33" y="83.5352">User</text><line style="stroke: #000000; stroke-width: 1.0;" x1="33" x2="64" y1="85.5352" y2="85.5352"/><ellipse cx="51.5" cy="13" fill="#FEFECE" filter="url(#fqky6gkoml10w)" rx="8" ry="8" style="stroke: #A80036; stroke-width: 2.0;"/><path d="M51.5,21 L51.5,48 M38.5,29 L64.5,29 M51.5,48 L38.5,63 M51.5,48 L64.5,63 " fill="none" filter="url(#fqky6gkoml10w)" style="stroke: #A80036; stroke-width: 2.0;"/><rect fill="#FEFECE" filter="url(#fqky6gkoml10w)" height="30.4883" style="stroke: #A80036; stroke-width: 1.5;" width="171" x="125" y="51"/><text fill="#000000" font-family="sans-serif" font-size="14" lengthAdjust="spacingAndGlyphs" text-decoration="underline" textLength="157" x="132" y="71.5352">:LocalVSSManagerPage</text><line style="stroke: #000000; stroke-width: 1.0;" x1="132" x2="289" y1="73.5352" y2="73.5352"/><rect fill="#FEFECE" filter="url(#fqky6gkoml10w)" height="30.4883" style="stroke: #A80036; stroke-width: 1.5;" width="184" x="611.5" y="51"/><text fill="#000000" font-family="sans-serif" font-size="14" lengthAdjust="spacingAndGlyphs" text-decoration="underline" textLength="170" x="618.5" y="71.5352">:LocalSoundSpaceLibrary</text><line style="stroke: #000000; stroke-width: 1.0;" x1="618.5" x2="788.5" y1="73.5352" y2="73.5352"/><polygon fill="#A80036" points="200.5,113.4883,210.5,117.4883,200.5,121.4883,204.5,117.4883" style="stroke: #A80036; stroke-width: 1.0;"/><line style="stroke: #A80036; stroke-width: 1.0;" x1="3" x2="206.5" y1="117.4883" y2="117.4883"/><text fill="#000000" font-family="sans-serif" font-size="13" lengthAdjust="spacingAndGlyphs" textLength="78" x="10" y="113.0566">&lt;&lt;create&gt;&gt;</text><polygon fill="#A80036" points="322,142.7988,332,146.7988,322,150.7988,326,146.7988" style="stroke: #A80036; stroke-width: 1.0;"/><line style="stroke: #A80036; stroke-width: 1.0;" x1="212.5" x2="328" y1="146.7988" y2="146.7988"/><text fill="#000000" font-family="sans-serif" font-size="13" lengthAdjust="spacingAndGlyphs" textLength="78" x="219.5" y="142.3672">&lt;&lt;create&gt;&gt;</text><rect fill="#FEFECE" filter="url(#fqky6gkoml10w)" height="30.4883" style="stroke: #A80036; stroke-width: 1.5;" width="177" x="334" y="125.7988"/><text fill="#000000" font-family="sans-serif" font-size="14" lengthAdjust="spacingAndGlyphs" text-decoration="underline" textLength="163" x="341" y="146.334">:LocalVSSLibraryControl</text><line style="stroke: #000000; stroke-width: 1.0;" x1="341" x2="504" y1="148.334" y2="148.334"/><polygon fill="#A80036" points="693.5,188.2871,703.5,192.2871,693.5,196.2871,697.5,192.2871" style="stroke: #A80036; stroke-width: 1.0;"/><line style="stroke: #A80036; stroke-width: 1.0;" x1="424.5" x2="699.5" y1="192.2871" y2="192.2871"/><text fill="#000000" font-family="sans-serif" font-size="13" lengthAdjust="spacingAndGlyphs" textLength="177" x="431.5" y="187.8555">getVSSList(pageNo: int): List</text><polygon fill="#A80036" points="435.5,217.5977,425.5,221.5977,435.5,225.5977,431.5,221.5977" style="stroke: #A80036; stroke-width: 1.0;"/><line style="stroke: #A80036; stroke-width: 1.0; stroke-dasharray: 2.0,2.0;" x1="429.5" x2="704.5" y1="221.5977" y2="221.5977"/><text fill="#000000" font-family="sans-serif" font-size="13" lengthAdjust="spacingAndGlyphs" textLength="257" x="441.5" y="217.166">listOfLocalVSS: List&lt;VirtualSoundSpace&gt;</text><polygon fill="#A80036" points="223.5,246.9082,213.5,250.9082,223.5,254.9082,219.5,250.9082" style="stroke: #A80036; stroke-width: 1.0;"/><line style="stroke: #A80036; stroke-width: 1.0;" x1="217.5" x2="423.5" y1="250.9082" y2="250.9082"/><text fill="#000000" font-family="sans-serif" font-size="13" lengthAdjust="spacingAndGlyphs" textLength="188" x="229.5" y="246.4766">displayVSSList(listOfLocalVSS)</text><path d="M13,266.2188 L87,266.2188 L87,273.2188 L77,283.2188 L13,283.2188 L13,266.2188 " fill="#EEEEEE" style="stroke: #000000; stroke-width: 1.0;"/><rect fill="none" height="802.7852" style="stroke: #000000; stroke-width: 2.0;" width="1203.5" x="13" y="266.2188"/><text fill="#000000" font-family="sans-serif" font-size="13" font-weight="bold" lengthAdjust="spacingAndGlyphs" textLength="29" x="28" y="279.7871">loop</text><path d="M23,290.5293 L85,290.5293 L85,297.5293 L75,307.5293 L23,307.5293 L23,290.5293 " fill="#EEEEEE" style="stroke: #000000; stroke-width: 1.0;"/><rect fill="none" height="771.4746" style="stroke: #000000; stroke-width: 2.0;" width="1183.5" x="23" y="290.5293"/><text fill="#000000" font-family="sans-serif" font-size="13" font-weight="bold" lengthAdjust="spacingAndGlyphs" textLength="17" x="38" y="304.0977">alt</text><text fill="#000000" font-family="sans-serif" font-size="11" font-weight="bold" lengthAdjust="spacingAndGlyphs" textLength="63" x="100" y="303.1641">[CreateVSS]</text><polygon fill="#A80036" points="200.5,324.8398,210.5,328.8398,200.5,332.8398,204.5,328.8398" style="stroke: #A80036; stroke-width: 1.0;"/><line style="stroke: #A80036; stroke-width: 1.0;" x1="51.5" x2="206.5" y1="328.8398" y2="328.8398"/><text fill="#000000" font-family="sans-serif" font-size="13" lengthAdjust="spacingAndGlyphs" textLength="60" x="58.5" y="324.4082">createVSS</text><text fill="#000000" font-family="sans-serif" font-size="11" lengthAdjust="spacingAndGlyphs" textLength="109" x="515.5" y="361.7852">described in PlayVSS</text><line style="stroke: #000000; stroke-width: 1.0; stroke-dasharray: 2.0,2.0;" x1="23" x2="1206.5" y1="379.1055" y2="379.1055"/><text fill="#000000" font-family="sans-serif" font-size="11" font-weight="bold" lengthAdjust="spacingAndGlyphs" textLength="72" x="28" y="389.7402">[RenameVSS]</text><polygon fill="#A80036" points="200.5,410.0605,210.5,414.0605,200.5,418.0605,204.5,414.0605" style="stroke: #A80036; stroke-width: 1.0;"/><line style="stroke: #A80036; stroke-width: 1.0;" x1="51.5" x2="206.5" y1="414.0605" y2="414.0605"/><text fill="#000000" font-family="sans-serif" font-size="13" lengthAdjust="spacingAndGlyphs" textLength="135" x="58.5" y="409.6289">renameVSS(whichVSS)</text><text fill="#000000" font-family="sans-serif" font-size="11" lengthAdjust="spacingAndGlyphs" textLength="130" x="505" y="447.0059">described in RenameVSS</text><line style="stroke: #000000; stroke-width: 1.0; stroke-dasharray: 2.0,2.0;" x1="23" x2="1206.5" y1="464.3262" y2="464.3262"/><text fill="#000000" font-family="sans-serif" font-size="11" font-weight="bold" lengthAdjust="spacingAndGlyphs" textLength="63" x="28" y="474.9609">[DeleteVSS]</text><polygon fill="#A80036" points="200.5,495.2813,210.5,499.2813,200.5,503.2813,204.5,499.2813" style="stroke: #A80036; stroke-width: 1.0;"/><line style="stroke: #A80036; stroke-width: 1.0;" x1="51.5" x2="206.5" y1="499.2813" y2="499.2813"/><text fill="#000000" font-family="sans-serif" font-size="13" lengthAdjust="spacingAndGlyphs" textLength="127" x="58.5" y="494.8496">deleteVSS(whichVSS)</text><text fill="#000000" font-family="sans-serif" font-size="11" lengthAdjust="spacingAndGlyphs" textLength="121" x="509.5" y="532.2266">described in DeleteVSS</text><line style="stroke: #000000; stroke-width: 1.0; stroke-dasharray: 2.0,2.0;" x1="23" x2="1206.5" y1="549.5469" y2="549.5469"/><text fill="#000000" font-family="sans-serif" font-size="11" font-weight="bold" lengthAdjust="spacingAndGlyphs" textLength="67" x="28" y="560.1816">[UploadVSS]</text><polygon fill="#A80036" points="200.5,580.502,210.5,584.502,200.5,588.502,204.5,584.502" style="stroke: #A80036; stroke-width: 1.0;"/><line style="stroke: #A80036; stroke-width: 1.0;" x1="51.5" x2="206.5" y1="584.502" y2="584.502"/><text fill="#000000" font-family="sans-serif" font-size="13" lengthAdjust="spacingAndGlyphs" textLength="132" x="58.5" y="580.0703">uploadVSS(whichVSS)</text><text fill="#000000" font-family="sans-serif" font-size="11" lengthAdjust="spacingAndGlyphs" textLength="126" x="507" y="617.4473">described in UploadVSS</text><line style="stroke: #000000; stroke-width: 1.0; stroke-dasharray: 2.0,2.0;" x1="23" x2="1206.5" y1="634.7676" y2="634.7676"/><text fill="#000000" font-family="sans-serif" font-size="11" font-weight="bold" lengthAdjust="spacingAndGlyphs" textLength="72" x="28" y="645.4023">[PreviewVSS]</text><polygon fill="#A80036" points="200.5,665.7227,210.5,669.7227,200.5,673.7227,204.5,669.7227" style="stroke: #A80036; stroke-width: 1.0;"/><line style="stroke: #A80036; stroke-width: 1.0;" x1="51.5" x2="206.5" y1="669.7227" y2="669.7227"/><text fill="#000000" font-family="sans-serif" font-size="13" lengthAdjust="spacingAndGlyphs" textLength="137" x="58.5" y="665.291">previewVSS(whichVSS)</text><polygon fill="#A80036" points="412.5,695.0332,422.5,699.0332,412.5,703.0332,416.5,699.0332" style="stroke: #A80036; stroke-width: 1.0;"/><line style="stroke: #A80036; stroke-width: 1.0;" x1="212.5" x2="418.5" y1="699.0332" y2="699.0332"/><text fill="#000000" font-family="sans-serif" font-size="13" lengthAdjust="spacingAndGlyphs" textLength="137" x="219.5" y="694.6016">previewVSS(whichVSS)</text><path d="M324,714.3438 L386,714.3438 L386,721.3438 L376,731.3438 L324,731.3438 L324,714.3438 " fill="#EEEEEE" style="stroke: #000000; stroke-width: 1.0;"/><rect fill="none" height="123.2422" style="stroke: #000000; stroke-width: 2.0;" width="872.5" x="324" y="714.3438"/><text fill="#000000" font-family="sans-serif" font-size="13" font-weight="bold" lengthAdjust="spacingAndGlyphs" textLength="17" x="339" y="727.9121">alt</text><text fill="#000000" font-family="sans-serif" font-size="11" font-weight="bold" lengthAdjust="spacingAndGlyphs" textLength="63" x="401" y="726.9785">[local map]</text><polygon fill="#A80036" points="797.5,748.6543,807.5,752.6543,797.5,756.6543,801.5,752.6543" style="stroke: #A80036; stroke-width: 1.0;"/><line style="stroke: #A80036; stroke-width: 1.0;" x1="424.5" x2="803.5" y1="752.6543" y2="752.6543"/><text fill="#000000" font-family="sans-serif" font-size="13" lengthAdjust="spacingAndGlyphs" textLength="78" x="431.5" y="748.2227">&lt;&lt;create&gt;&gt;</text><rect fill="#FEFECE" filter="url(#fqky6gkoml10w)" height="30.4883" style="stroke: #A80036; stroke-width: 1.5;" width="167" x="809.5" y="731.6543"/><text fill="#000000" font-family="sans-serif" font-size="14" lengthAdjust="spacingAndGlyphs" text-decoration="underline" textLength="153" x="816.5" y="752.1895">:PreviewLocalMapPage</text><line style="stroke: #000000; stroke-width: 1.0;" x1="816.5" x2="969.5" y1="754.1895" y2="754.1895"/><line style="stroke: #000000; stroke-width: 1.0; stroke-dasharray: 2.0,2.0;" x1="324" x2="1196.5" y1="778.1426" y2="778.1426"/><text fill="#000000" font-family="sans-serif" font-size="11" font-weight="bold" lengthAdjust="spacingAndGlyphs" textLength="80" x="329" y="788.7773">[local concert]</text><polygon fill="#A80036" points="978.5,809.0977,988.5,813.0977,978.5,817.0977,982.5,813.0977" style="stroke: #A80036; stroke-width: 1.0;"/><line style="stroke: #A80036; stroke-width: 1.0;" x1="424.5" x2="984.5" y1="813.0977" y2="813.0977"/><text fill="#000000" font-family="sans-serif" font-size="13" lengthAdjust="spacingAndGlyphs" textLength="78" x="431.5" y="808.666">&lt;&lt;create&gt;&gt;</text><rect fill="#FEFECE" filter="url(#fqky6gkoml10w)" height="30.4883" style="stroke: #A80036; stroke-width: 1.5;" width="192" x="990.5" y="792.0977"/><text fill="#000000" font-family="sans-serif" font-size="14" lengthAdjust="spacingAndGlyphs" text-decoration="underline" textLength="178" x="997.5" y="812.6328">:PreviewLocalConcertPage</text><line style="stroke: #000000; stroke-width: 1.0;" x1="997.5" x2="1175.5" y1="814.6328" y2="814.6328"/><line style="stroke: #000000; stroke-width: 1.0; stroke-dasharray: 2.0,2.0;" x1="23" x2="1206.5" y1="845.5859" y2="845.5859"/><text fill="#000000" font-family="sans-serif" font-size="11" font-weight="bold" lengthAdjust="spacingAndGlyphs" textLength="59" x="28" y="856.2207">[prevPage]</text><polygon fill="#A80036" points="200.5,876.541,210.5,880.541,200.5,884.541,204.5,880.541" style="stroke: #A80036; stroke-width: 1.0;"/><line style="stroke: #A80036; stroke-width: 1.0;" x1="51.5" x2="206.5" y1="880.541" y2="880.541"/><text fill="#000000" font-family="sans-serif" font-size="13" lengthAdjust="spacingAndGlyphs" textLength="64" x="58.5" y="876.1094">prevPage()</text><polygon fill="#A80036" points="412.5,905.8516,422.5,909.8516,412.5,913.8516,416.5,909.8516" style="stroke: #A80036; stroke-width: 1.0;"/><line style="stroke: #A80036; stroke-width: 1.0;" x1="212.5" x2="418.5" y1="909.8516" y2="909.8516"/><text fill="#000000" font-family="sans-serif" font-size="13" lengthAdjust="spacingAndGlyphs" textLength="64" x="219.5" y="905.4199">prevPage()</text><polygon fill="#A80036" points="693.5,935.1621,703.5,939.1621,693.5,943.1621,697.5,939.1621" style="stroke: #A80036; stroke-width: 1.0;"/><line style="stroke: #A80036; stroke-width: 1.0;" x1="424.5" x2="699.5" y1="939.1621" y2="939.1621"/><text fill="#000000" font-family="sans-serif" font-size="13" lengthAdjust="spacingAndGlyphs" textLength="148" x="431.5" y="934.7305">getVSSList(nextPageNo)</text><polygon fill="#A80036" points="435.5,964.4727,425.5,968.4727,435.5,972.4727,431.5,968.4727" style="stroke: #A80036; stroke-width: 1.0;"/><line style="stroke: #A80036; stroke-width: 1.0; stroke-dasharray: 2.0,2.0;" x1="429.5" x2="704.5" y1="968.4727" y2="968.4727"/><text fill="#000000" font-family="sans-serif" font-size="13" lengthAdjust="spacingAndGlyphs" textLength="257" x="441.5" y="964.041">listOfLocalVSS: List&lt;VirtualSoundSpace&gt;</text><polygon fill="#A80036" points="223.5,993.7832,213.5,997.7832,223.5,1001.7832,219.5,997.7832" style="stroke: #A80036; stroke-width: 1.0;"/><line style="stroke: #A80036; stroke-width: 1.0;" x1="217.5" x2="423.5" y1="997.7832" y2="997.7832"/><text fill="#000000" font-family="sans-serif" font-size="13" lengthAdjust="spacingAndGlyphs" textLength="188" x="229.5" y="993.3516">displayVSSList(listOfLocalVSS)</text><line style="stroke: #000000; stroke-width: 1.0; stroke-dasharray: 2.0,2.0;" x1="23" x2="1206.5" y1="1007.0938" y2="1007.0938"/><text fill="#000000" font-family="sans-serif" font-size="11" font-weight="bold" lengthAdjust="spacingAndGlyphs" textLength="57" x="28" y="1017.7285">[nextPage]</text><text fill="#000000" font-family="sans-serif" font-size="11" lengthAdjust="spacingAndGlyphs" textLength="83" x="528.5" y="1045.6836">similar, omitted</text><!--
@startuml Diagrams/ManageLocalVSSLibrary
hide footbox
skinparam sequenceParticipant underline

actor User as user
participant ":LocalVSSManagerPage" as boundary
participant ":LocalVSSLibraryControl" as control
participant ":LocalSoundSpaceLibrary" as library

create boundary
[-> boundary: <<create>>
create control
boundary -> control: <<create>>
control -> library: getVSSList(pageNo: int): List
library - -> control: listOfLocalVSS: List<VirtualSoundSpace>
control -> boundary: displayVSSList(listOfLocalVSS)

loop
    alt CreateVSS
        user -> boundary: createVSS
        ...described in PlayVSS...
    else RenameVSS
        user -> boundary: renameVSS(whichVSS)
        ...described in RenameVSS...
    else DeleteVSS
        user -> boundary: deleteVSS(whichVSS)
        ...described in DeleteVSS...
    else UploadVSS
        user -> boundary: uploadVSS(whichVSS)
        ...described in UploadVSS...
    else PreviewVSS
        user -> boundary: previewVSS(whichVSS)
        boundary -> control: previewVSS(whichVSS)
        alt local map
            participant ":PreviewLocalMapPage" as plmp
            create plmp
            control -> plmp: <<create>>

        else local concert
            participant ":PreviewLocalConcertPage" as plcp
            create plcp
            control -> plcp: <<create>>
        end
    else prevPage
        user -> boundary: prevPage()
        boundary -> control: prevPage()
        control -> library: getVSSList(nextPageNo)
        library - -> control: listOfLocalVSS: List<VirtualSoundSpace>
        control -> boundary: displayVSSList(listOfLocalVSS)
    else nextPage
    ...similar, omitted...
    end
end
@enduml

PlantUML version 1.2018.01(Mon Jan 29 02:08:22 CST 2018)
(GPL source distribution)
Java Runtime: Java(TM) SE Runtime Environment
JVM: Java HotSpot(TM) 64-Bit Server VM
Java Version: 9+181
Operating System: Mac OS X
OS Version: 10.12.6
Default Encoding: UTF-8
Language: zh
Country: CN
--></g></svg>