<?xml version="1.0" encoding="UTF-8" standalone="no"?><svg xmlns="http://www.w3.org/2000/svg" xmlns:xlink="http://www.w3.org/1999/xlink" contentScriptType="application/ecmascript" contentStyleType="text/css" height="1368px" preserveAspectRatio="none" style="width:1444px;height:1368px;" version="1.1" viewBox="0 0 1444 1368"
    width="1444px" zoomAndPan="magnify"><defs><filter height="300%" id="f1j186qlpn4wsy" width="300%" x="-1" y="-1"><feGaussianBlur result="blurOut" stdDeviation="2.0"/><feColorMatrix in="blurOut" result="blurOut2" type="matrix" values="0 0 0 0 0 0 0 0 0 0 0 0 0 0 0 0 0 0 .4 0"/><feOffset dx="4.0" dy="4.0" in="blurOut2" result="blurOut3"/><feBlend in="SourceGraphic" in2="blurOut3" mode="normal"/></filter></defs><g><rect fill="#FEFECE" filter="url(#f1j186qlpn4wsy)" height="30.4883" style="stroke: #A80036; stroke-width: 1.5;" width="151" x="292.5" y="125.7988"/><text fill="#000000" font-family="sans-serif" font-size="14" lengthAdjust="spacingAndGlyphs" text-decoration="underline" textLength="137" x="299.5" y="146.334">:MapVSSPlayControl</text><line style="stroke: #000000; stroke-width: 1.0;" x1="299.5" x2="436.5" y1="148.334" y2="148.334"/><rect fill="#FFFFFF" filter="url(#f1j186qlpn4wsy)" height="149.5078" style="stroke: #000000; stroke-width: 2.0;" width="692.5" x="93.5" y="207.5977"/><rect fill="#FFFFFF" height="102.8867" style="stroke: none; stroke-width: 1.0;" width="692.5" x="93.5" y="254.2188"/><rect fill="#FEFECE" filter="url(#f1j186qlpn4wsy)" height="30.4883" style="stroke: #A80036; stroke-width: 1.5;" width="65" x="1064" y="452.0371"/><text fill="#000000" font-family="sans-serif" font-size="14" lengthAdjust="spacingAndGlyphs" text-decoration="underline" textLength="51" x="1071" y="472.5723">:Sensor</text><line style="stroke: #000000; stroke-width: 1.0;" x1="1071" x2="1122" y1="474.5723" y2="474.5723"/><rect fill="#FEFECE" filter="url(#f1j186qlpn4wsy)" height="30.4883" style="stroke: #A80036; stroke-width: 1.5;" width="134" x="1143" y="497.5254"/><text fill="#000000" font-family="sans-serif" font-size="14" lengthAdjust="spacingAndGlyphs" text-decoration="underline" textLength="120" x="1150" y="518.0605">:GVRAudioEngine</text><line style="stroke: #000000; stroke-width: 1.0;" x1="1150" x2="1270" y1="520.0605" y2="520.0605"/><rect fill="#FEFECE" filter="url(#f1j186qlpn4wsy)" height="30.4883" style="stroke: #A80036; stroke-width: 1.5;" width="142" x="1291" y="543.0137"/><text fill="#000000" font-family="sans-serif" font-size="14" lengthAdjust="spacingAndGlyphs" text-decoration="underline" textLength="128" x="1298" y="563.5488">:AdjustSensorPage</text><line style="stroke: #000000; stroke-width: 1.0;" x1="1298" x2="1426" y1="565.5488" y2="565.5488"/><rect fill="#FFFFFF" filter="url(#f1j186qlpn4wsy)" height="543.1445" style="stroke: #000000; stroke-width: 2.0;" width="1341.5" x="13" y="678.7676"/><rect fill="#FFFFFF" filter="url(#f1j186qlpn4wsy)" height="413.9023" style="stroke: #000000; stroke-width: 2.0;" width="1268" x="23" y="801.0098"/><rect fill="#FFFFFF" height="102.8867" style="stroke: none; stroke-width: 1.0;" width="1268" x="23" y="906.252"/><rect fill="#FFFFFF" height="102.8867" style="stroke: none; stroke-width: 1.0;" width="1268" x="23" y="1009.1387"/><rect fill="#FFFFFF" height="102.8867" style="stroke: none; stroke-width: 1.0;" width="1268" x="23" y="1112.0254"/><line style="stroke: #A80036; stroke-width: 1.0;" x1="51" x2="51" y1="86.4883" y2="588.502"/><line style="stroke: #A80036; stroke-width: 1.0; stroke-dasharray: 1.0,4.0;" x1="51" x2="51" y1="588.502" y2="629.457"/><line style="stroke: #A80036; stroke-width: 1.0;" x1="51" x2="51" y1="629.457" y2="1356.1543"/><line style="stroke: #A80036; stroke-width: 1.0;" x1="190.5" x2="190.5" y1="86.4883" y2="588.502"/><line style="stroke: #A80036; stroke-width: 1.0; stroke-dasharray: 1.0,4.0;" x1="190.5" x2="190.5" y1="588.502" y2="629.457"/><line style="stroke: #A80036; stroke-width: 1.0;" x1="190.5" x2="190.5" y1="629.457" y2="1356.1543"/><line style="stroke: #A80036; stroke-width: 1.0;" x1="369.5" x2="369.5" y1="158.543" y2="588.502"/><line style="stroke: #A80036; stroke-width: 1.0; stroke-dasharray: 1.0,4.0;" x1="369.5" x2="369.5" y1="588.502" y2="629.457"/><line style="stroke: #A80036; stroke-width: 1.0;" x1="369.5" x2="369.5" y1="629.457" y2="1356.1543"/><line style="stroke: #A80036; stroke-width: 1.0;" x1="682" x2="682" y1="86.4883" y2="588.502"/><line style="stroke: #A80036; stroke-width: 1.0; stroke-dasharray: 1.0,4.0;" x1="682" x2="682" y1="588.502" y2="629.457"/><line style="stroke: #A80036; stroke-width: 1.0;" x1="682" x2="682" y1="629.457" y2="1356.1543"/><line style="stroke: #A80036; stroke-width: 1.0;" x1="920" x2="920" y1="86.4883" y2="588.502"/><line style="stroke: #A80036; stroke-width: 1.0; stroke-dasharray: 1.0,4.0;" x1="920" x2="920" y1="588.502" y2="629.457"/><line style="stroke: #A80036; stroke-width: 1.0;" x1="920" x2="920" y1="629.457" y2="1356.1543"/><line style="stroke: #A80036; stroke-width: 1.0;" x1="1098" x2="1098" y1="484.7813" y2="588.502"/><line style="stroke: #A80036; stroke-width: 1.0; stroke-dasharray: 1.0,4.0;" x1="1098" x2="1098" y1="588.502" y2="629.457"/><line style="stroke: #A80036; stroke-width: 1.0;" x1="1098" x2="1098" y1="629.457" y2="1356.1543"/><line style="stroke: #A80036; stroke-width: 1.0;" x1="1212" x2="1212" y1="530.2695" y2="588.502"/><line style="stroke: #A80036; stroke-width: 1.0; stroke-dasharray: 1.0,4.0;" x1="1212" x2="1212" y1="588.502" y2="629.457"/><line style="stroke: #A80036; stroke-width: 1.0;" x1="1212" x2="1212" y1="629.457" y2="1356.1543"/><line style="stroke: #A80036; stroke-width: 1.0;" x1="1364" x2="1364" y1="575.7578" y2="588.502"/><line style="stroke: #A80036; stroke-width: 1.0; stroke-dasharray: 1.0,4.0;" x1="1364" x2="1364" y1="588.502" y2="629.457"/><line style="stroke: #A80036; stroke-width: 1.0;" x1="1364" x2="1364" y1="629.457" y2="1356.1543"/><text fill="#000000" font-family="sans-serif" font-size="14" lengthAdjust="spacingAndGlyphs" text-decoration="underline" textLength="31" x="33" y="83.5352">User</text><line style="stroke: #000000; stroke-width: 1.0;" x1="33" x2="64" y1="85.5352" y2="85.5352"/><ellipse cx="51.5" cy="13" fill="#FEFECE" filter="url(#f1j186qlpn4wsy)" rx="8" ry="8" style="stroke: #A80036; stroke-width: 2.0;"/><path d="M51.5,21 L51.5,48 M38.5,29 L64.5,29 M51.5,48 L38.5,63 M51.5,48 L64.5,63 " fill="none" filter="url(#f1j186qlpn4wsy)" style="stroke: #A80036; stroke-width: 2.0;"/><rect fill="#FEFECE" filter="url(#f1j186qlpn4wsy)" height="30.4883" style="stroke: #A80036; stroke-width: 1.5;" width="170" x="103.5" y="51"/><text fill="#000000" font-family="sans-serif" font-size="14" lengthAdjust="spacingAndGlyphs" text-decoration="underline" textLength="156" x="110.5" y="71.5352">:PlayMapModeVSSPage</text><line style="stroke: #000000; stroke-width: 1.0;" x1="110.5" x2="266.5" y1="73.5352" y2="73.5352"/><rect fill="#FEFECE" filter="url(#f1j186qlpn4wsy)" height="30.4883" style="stroke: #A80036; stroke-width: 1.5;" width="184" x="588" y="51"/><text fill="#000000" font-family="sans-serif" font-size="14" lengthAdjust="spacingAndGlyphs" text-decoration="underline" textLength="170" x="595" y="71.5352">:LocalSoundSpaceLibrary</text><line style="stroke: #000000; stroke-width: 1.0;" x1="595" x2="765" y1="73.5352" y2="73.5352"/><rect fill="#FEFECE" filter="url(#f1j186qlpn4wsy)" height="30.4883" style="stroke: #A80036; stroke-width: 1.5;" width="264" x="786" y="51"/><text fill="#000000" font-family="sans-serif" font-size="14" lengthAdjust="spacingAndGlyphs" text-decoration="underline" textLength="250" x="793" y="71.5352">thisVSS:MapModeVirtualSoundSpace</text><line style="stroke: #000000; stroke-width: 1.0;" x1="793" x2="1043" y1="73.5352" y2="73.5352"/><polygon fill="#A80036" points="178.5,113.4883,188.5,117.4883,178.5,121.4883,182.5,117.4883" style="stroke: #A80036; stroke-width: 1.0;"/><line style="stroke: #A80036; stroke-width: 1.0;" x1="3" x2="184.5" y1="117.4883" y2="117.4883"/><text fill="#000000" font-family="sans-serif" font-size="13" lengthAdjust="spacingAndGlyphs" textLength="78" x="10" y="113.0566">&lt;&lt;create&gt;&gt;</text><polygon fill="#A80036" points="280.5,142.7988,290.5,146.7988,280.5,150.7988,284.5,146.7988" style="stroke: #A80036; stroke-width: 1.0;"/><line style="stroke: #A80036; stroke-width: 1.0;" x1="190.5" x2="286.5" y1="146.7988" y2="146.7988"/><text fill="#000000" font-family="sans-serif" font-size="13" lengthAdjust="spacingAndGlyphs" textLength="78" x="197.5" y="142.3672">&lt;&lt;create&gt;&gt;</text><rect fill="#FEFECE" filter="url(#f1j186qlpn4wsy)" height="30.4883" style="stroke: #A80036; stroke-width: 1.5;" width="151" x="292.5" y="125.7988"/><text fill="#000000" font-family="sans-serif" font-size="14" lengthAdjust="spacingAndGlyphs" text-decoration="underline" textLength="137" x="299.5" y="146.334">:MapVSSPlayControl</text><line style="stroke: #000000; stroke-width: 1.0;" x1="299.5" x2="436.5" y1="148.334" y2="148.334"/><polygon fill="#A80036" points="670,188.2871,680,192.2871,670,196.2871,674,192.2871" style="stroke: #A80036; stroke-width: 1.0;"/><line style="stroke: #A80036; stroke-width: 1.0;" x1="370" x2="676" y1="192.2871" y2="192.2871"/><text fill="#000000" font-family="sans-serif" font-size="13" lengthAdjust="spacingAndGlyphs" textLength="288" x="377" y="187.8555">checkAllNessarySoundFragmentDownloaded()</text><path d="M93.5,207.5977 L155.5,207.5977 L155.5,214.5977 L145.5,224.5977 L93.5,224.5977 L93.5,207.5977 " fill="#EEEEEE" style="stroke: #000000; stroke-width: 1.0;"/><rect fill="none" height="149.5078" style="stroke: #000000; stroke-width: 2.0;" width="692.5" x="93.5" y="207.5977"/><text fill="#000000" font-family="sans-serif" font-size="13" font-weight="bold" lengthAdjust="spacingAndGlyphs" textLength="17" x="108.5" y="221.166">alt</text><text fill="#000000" font-family="sans-serif" font-size="11" font-weight="bold" lengthAdjust="spacingAndGlyphs" textLength="75" x="170.5" y="220.2324">[downloaded]</text><polygon fill="#A80036" points="381,241.9082,371,245.9082,381,249.9082,377,245.9082" style="stroke: #A80036; stroke-width: 1.0;"/><line style="stroke: #A80036; stroke-width: 1.0; stroke-dasharray: 2.0,2.0;" x1="375" x2="681" y1="245.9082" y2="245.9082"/><text fill="#000000" font-family="sans-serif" font-size="13" lengthAdjust="spacingAndGlyphs" textLength="49" x="387" y="241.4766">confirm</text><line style="stroke: #000000; stroke-width: 1.0; stroke-dasharray: 2.0,2.0;" x1="93.5" x2="786" y1="255.2188" y2="255.2188"/><text fill="#000000" font-family="sans-serif" font-size="11" font-weight="bold" lengthAdjust="spacingAndGlyphs" textLength="46" x="98.5" y="265.8535">[not yet]</text><polygon fill="#A80036" points="381,286.1738,371,290.1738,381,294.1738,377,290.1738" style="stroke: #A80036; stroke-width: 1.0;"/><line style="stroke: #A80036; stroke-width: 1.0; stroke-dasharray: 2.0,2.0;" x1="375" x2="681" y1="290.1738" y2="290.1738"/><text fill="#000000" font-family="sans-serif" font-size="13" lengthAdjust="spacingAndGlyphs" textLength="30" x="387" y="285.7422">deny</text><polygon fill="#A80036" points="201.5,315.4844,191.5,319.4844,201.5,323.4844,197.5,319.4844" style="stroke: #A80036; stroke-width: 1.0;"/><line style="stroke: #A80036; stroke-width: 1.0;" x1="195.5" x2="369" y1="319.4844" y2="319.4844"/><text fill="#000000" font-family="sans-serif" font-size="13" lengthAdjust="spacingAndGlyphs" textLength="50" x="207.5" y="315.0527">warning</text><polygon fill="#A80036" points="201.5,344.7949,191.5,348.7949,201.5,352.7949,197.5,348.7949" style="stroke: #A80036; stroke-width: 1.0;"/><line style="stroke: #A80036; stroke-width: 1.0;" x1="195.5" x2="369" y1="348.7949" y2="348.7949"/><text fill="#000000" font-family="sans-serif" font-size="13" lengthAdjust="spacingAndGlyphs" textLength="87" x="207.5" y="344.3633">&lt;&lt;destroy&gt;&gt;</text><line style="stroke: #A80036; stroke-width: 2.0;" x1="361" x2="379" y1="339.7949" y2="357.7949"/><line style="stroke: #A80036; stroke-width: 2.0;" x1="361" x2="379" y1="357.7949" y2="339.7949"/><line style="stroke: #A80036; stroke-width: 2.0;" x1="181.5" x2="199.5" y1="339.7949" y2="357.7949"/><line style="stroke: #A80036; stroke-width: 2.0;" x1="181.5" x2="199.5" y1="357.7949" y2="339.7949"/><polygon fill="#A80036" points="908,381.1055,918,385.1055,908,389.1055,912,385.1055" style="stroke: #A80036; stroke-width: 1.0;"/><line style="stroke: #A80036; stroke-width: 1.0;" x1="370" x2="914" y1="385.1055" y2="385.1055"/><text fill="#000000" font-family="sans-serif" font-size="13" lengthAdjust="spacingAndGlyphs" textLength="116" x="377" y="380.6738">getSoundSources()</text><polygon fill="#A80036" points="381,410.416,371,414.416,381,418.416,377,414.416" style="stroke: #A80036; stroke-width: 1.0;"/><line style="stroke: #A80036; stroke-width: 1.0; stroke-dasharray: 2.0,2.0;" x1="375" x2="919" y1="414.416" y2="414.416"/><text fill="#000000" font-family="sans-serif" font-size="13" lengthAdjust="spacingAndGlyphs" textLength="104" x="387" y="409.9844">soundSourceList</text><polygon fill="#A80036" points="201.5,439.7266,191.5,443.7266,201.5,447.7266,197.5,443.7266" style="stroke: #A80036; stroke-width: 1.0;"/><line style="stroke: #A80036; stroke-width: 1.0;" x1="195.5" x2="369" y1="443.7266" y2="443.7266"/><text fill="#000000" font-family="sans-serif" font-size="13" lengthAdjust="spacingAndGlyphs" textLength="149" x="207.5" y="439.2949">displaySoundSourceList</text><polygon fill="#A80036" points="1052,469.0371,1062,473.0371,1052,477.0371,1056,473.0371" style="stroke: #A80036; stroke-width: 1.0;"/><line style="stroke: #A80036; stroke-width: 1.0;" x1="370" x2="1058" y1="473.0371" y2="473.0371"/><text fill="#000000" font-family="sans-serif" font-size="13" lengthAdjust="spacingAndGlyphs" textLength="78" x="377" y="468.6055">&lt;&lt;create&gt;&gt;</text><rect fill="#FEFECE" filter="url(#f1j186qlpn4wsy)" height="30.4883" style="stroke: #A80036; stroke-width: 1.5;" width="65" x="1064" y="452.0371"/><text fill="#000000" font-family="sans-serif" font-size="14" lengthAdjust="spacingAndGlyphs" text-decoration="underline" textLength="51" x="1071" y="472.5723">:Sensor</text><line style="stroke: #000000; stroke-width: 1.0;" x1="1071" x2="1122" y1="474.5723" y2="474.5723"/><polygon fill="#A80036" points="1131,514.5254,1141,518.5254,1131,522.5254,1135,518.5254" style="stroke: #A80036; stroke-width: 1.0;"/><line style="stroke: #A80036; stroke-width: 1.0;" x1="370" x2="1137" y1="518.5254" y2="518.5254"/><text fill="#000000" font-family="sans-serif" font-size="13" lengthAdjust="spacingAndGlyphs" textLength="78" x="377" y="514.0938">&lt;&lt;create&gt;&gt;</text><rect fill="#FEFECE" filter="url(#f1j186qlpn4wsy)" height="30.4883" style="stroke: #A80036; stroke-width: 1.5;" width="134" x="1143" y="497.5254"/><text fill="#000000" font-family="sans-serif" font-size="14" lengthAdjust="spacingAndGlyphs" text-decoration="underline" textLength="120" x="1150" y="518.0605">:GVRAudioEngine</text><line style="stroke: #000000; stroke-width: 1.0;" x1="1150" x2="1270" y1="520.0605" y2="520.0605"/><polygon fill="#A80036" points="1279,560.0137,1289,564.0137,1279,568.0137,1283,564.0137" style="stroke: #A80036; stroke-width: 1.0;"/><line style="stroke: #A80036; stroke-width: 1.0;" x1="370" x2="1285" y1="564.0137" y2="564.0137"/><text fill="#000000" font-family="sans-serif" font-size="13" lengthAdjust="spacingAndGlyphs" textLength="78" x="377" y="559.582">&lt;&lt;create&gt;&gt;</text><rect fill="#FEFECE" filter="url(#f1j186qlpn4wsy)" height="30.4883" style="stroke: #A80036; stroke-width: 1.5;" width="142" x="1291" y="543.0137"/><text fill="#000000" font-family="sans-serif" font-size="14" lengthAdjust="spacingAndGlyphs" text-decoration="underline" textLength="128" x="1298" y="563.5488">:AdjustSensorPage</text><line style="stroke: #000000; stroke-width: 1.0;" x1="1298" x2="1426" y1="565.5488" y2="565.5488"/><text fill="#000000" font-family="sans-serif" font-size="11" lengthAdjust="spacingAndGlyphs" textLength="73" x="671.25" y="613.1367">adjust sensor</text><line style="stroke: #A80036; stroke-width: 1.0;" x1="51.5" x2="93.5" y1="650.7676" y2="650.7676"/><line style="stroke: #A80036; stroke-width: 1.0;" x1="93.5" x2="93.5" y1="650.7676" y2="663.7676"/><line style="stroke: #A80036; stroke-width: 1.0;" x1="52.5" x2="93.5" y1="663.7676" y2="663.7676"/><polygon fill="#A80036" points="62.5,659.7676,52.5,663.7676,62.5,667.7676,58.5,663.7676" style="stroke: #A80036; stroke-width: 1.0;"/><text fill="#000000" font-family="sans-serif" font-size="13" lengthAdjust="spacingAndGlyphs" textLength="48" x="58.5" y="646.0254">wakeup</text><line style="stroke: #A80036; stroke-width: 2.0;" x1="1355" x2="1373" y1="654.457" y2="672.457"/><line style="stroke: #A80036; stroke-width: 2.0;" x1="1355" x2="1373" y1="672.457" y2="654.457"/><path d="M13,678.7676 L87,678.7676 L87,685.7676 L77,695.7676 L13,695.7676 L13,678.7676 " fill="#EEEEEE" style="stroke: #000000; stroke-width: 1.0;"/><rect fill="none" height="543.1445" style="stroke: #000000; stroke-width: 2.0;" width="1341.5" x="13" y="678.7676"/><text fill="#000000" font-family="sans-serif" font-size="13" font-weight="bold" lengthAdjust="spacingAndGlyphs" textLength="29" x="28" y="692.3359">loop</text><polygon fill="#A80036" points="1086.5,718.0781,1096.5,722.0781,1086.5,722.0781" style="stroke: #A80036; stroke-width: 1.0;"/><line style="stroke: #A80036; stroke-width: 1.0;" x1="370" x2="1097.5" y1="722.0781" y2="722.0781"/><text fill="#000000" font-family="sans-serif" font-size="13" lengthAdjust="spacingAndGlyphs" textLength="129" x="377" y="717.6465">getCurrentLocation()</text><path d="M1103,701.0781 L1103,726.0781 L1335,726.0781 L1335,711.0781 L1325,701.0781 L1103,701.0781 " fill="#FBFB77" filter="url(#f1j186qlpn4wsy)" style="stroke: #A80036; stroke-width: 1.0;"/><path d="M1325,701.0781 L1325,711.0781 L1335,711.0781 L1325,701.0781 " fill="#FBFB77" style="stroke: #A80036; stroke-width: 1.0;"/><text fill="#000000" font-family="sans-serif" font-size="13" lengthAdjust="spacingAndGlyphs" textLength="211" x="1109" y="718.6465">async message, in another thread</text><polygon fill="#A80036" points="381,752.3887,371,756.3887,381,756.3887" style="stroke: #A80036; stroke-width: 1.0;"/><line style="stroke: #A80036; stroke-width: 1.0; stroke-dasharray: 2.0,2.0;" x1="370" x2="1097.5" y1="756.3887" y2="756.3887"/><text fill="#000000" font-family="sans-serif" font-size="13" lengthAdjust="spacingAndGlyphs" textLength="99" x="387" y="751.957">currentLocation</text><polygon fill="#A80036" points="1200,781.6992,1210,785.6992,1200,789.6992,1204,785.6992" style="stroke: #A80036; stroke-width: 1.0;"/><line style="stroke: #A80036; stroke-width: 1.0;" x1="370" x2="1206" y1="785.6992" y2="785.6992"/><text fill="#000000" font-family="sans-serif" font-size="13" lengthAdjust="spacingAndGlyphs" textLength="251" x="377" y="781.2676">updateCurrentLocation(currentLocation)</text><path d="M23,801.0098 L85,801.0098 L85,808.0098 L75,818.0098 L23,818.0098 L23,801.0098 " fill="#EEEEEE" style="stroke: #000000; stroke-width: 1.0;"/><rect fill="none" height="413.9023" style="stroke: #000000; stroke-width: 2.0;" width="1268" x="23" y="801.0098"/><text fill="#000000" font-family="sans-serif" font-size="13" font-weight="bold" lengthAdjust="spacingAndGlyphs" textLength="17" x="38" y="814.5781">alt</text><text fill="#000000" font-family="sans-serif" font-size="11" font-weight="bold" lengthAdjust="spacingAndGlyphs" textLength="56" x="100" y="813.6445">[startPlay&#8;]</text><polygon fill="#A80036" points="178.5,835.3203,188.5,839.3203,178.5,843.3203,182.5,839.3203" style="stroke: #A80036; stroke-width: 1.0;"/><line style="stroke: #A80036; stroke-width: 1.0;" x1="51.5" x2="184.5" y1="839.3203" y2="839.3203"/><text fill="#000000" font-family="sans-serif" font-size="13" lengthAdjust="spacingAndGlyphs" textLength="115" x="58.5" y="834.8887">play(soundSource)</text><polygon fill="#A80036" points="358,864.6309,368,868.6309,358,872.6309,362,868.6309" style="stroke: #A80036; stroke-width: 1.0;"/><line style="stroke: #A80036; stroke-width: 1.0;" x1="190.5" x2="364" y1="868.6309" y2="868.6309"/><text fill="#000000" font-family="sans-serif" font-size="13" lengthAdjust="spacingAndGlyphs" textLength="115" x="197.5" y="864.1992">play(soundSource)</text><polygon fill="#A80036" points="1200,893.9414,1210,897.9414,1200,901.9414,1204,897.9414" style="stroke: #A80036; stroke-width: 1.0;"/><line style="stroke: #A80036; stroke-width: 1.0;" x1="370" x2="1206" y1="897.9414" y2="897.9414"/><text fill="#000000" font-family="sans-serif" font-size="13" lengthAdjust="spacingAndGlyphs" textLength="132" x="377" y="893.5098">play(soundFragment)</text><line style="stroke: #000000; stroke-width: 1.0; stroke-dasharray: 2.0,2.0;" x1="23" x2="1291" y1="907.252" y2="907.252"/><text fill="#000000" font-family="sans-serif" font-size="11" font-weight="bold" lengthAdjust="spacingAndGlyphs" textLength="40" x="28" y="917.8867">[pause]</text><polygon fill="#A80036" points="178.5,938.207,188.5,942.207,178.5,946.207,182.5,942.207" style="stroke: #A80036; stroke-width: 1.0;"/><line style="stroke: #A80036; stroke-width: 1.0;" x1="51.5" x2="184.5" y1="942.207" y2="942.207"/><text fill="#000000" font-family="sans-serif" font-size="13" lengthAdjust="spacingAndGlyphs" textLength="45" x="58.5" y="937.7754">pause()</text><polygon fill="#A80036" points="358,967.5176,368,971.5176,358,975.5176,362,971.5176" style="stroke: #A80036; stroke-width: 1.0;"/><line style="stroke: #A80036; stroke-width: 1.0;" x1="190.5" x2="364" y1="971.5176" y2="971.5176"/><text fill="#000000" font-family="sans-serif" font-size="13" lengthAdjust="spacingAndGlyphs" textLength="45" x="197.5" y="967.0859">pause()</text><polygon fill="#A80036" points="1200,996.8281,1210,1000.8281,1200,1004.8281,1204,1000.8281" style="stroke: #A80036; stroke-width: 1.0;"/><line style="stroke: #A80036; stroke-width: 1.0;" x1="370" x2="1206" y1="1000.8281" y2="1000.8281"/><text fill="#000000" font-family="sans-serif" font-size="13" lengthAdjust="spacingAndGlyphs" textLength="45" x="377" y="996.3965">pause()</text><line style="stroke: #000000; stroke-width: 1.0; stroke-dasharray: 2.0,2.0;" x1="23" x2="1291" y1="1010.1387" y2="1010.1387"/><text fill="#000000" font-family="sans-serif" font-size="11" font-weight="bold" lengthAdjust="spacingAndGlyphs" textLength="31" x="28" y="1020.7734">[next]</text><polygon fill="#A80036" points="178.5,1041.0938,188.5,1045.0938,178.5,1049.0938,182.5,1045.0938" style="stroke: #A80036; stroke-width: 1.0;"/><line style="stroke: #A80036; stroke-width: 1.0;" x1="51.5" x2="184.5" y1="1045.0938" y2="1045.0938"/><text fill="#000000" font-family="sans-serif" font-size="13" lengthAdjust="spacingAndGlyphs" textLength="36" x="58.5" y="1040.6621">next()</text><polygon fill="#A80036" points="358,1070.4043,368,1074.4043,358,1078.4043,362,1074.4043" style="stroke: #A80036; stroke-width: 1.0;"/><line style="stroke: #A80036; stroke-width: 1.0;" x1="190.5" x2="364" y1="1074.4043" y2="1074.4043"/><text fill="#000000" font-family="sans-serif" font-size="13" lengthAdjust="spacingAndGlyphs" textLength="115" x="197.5" y="1069.9727">play(soundSource)</text><polygon fill="#A80036" points="1200,1099.7148,1210,1103.7148,1200,1107.7148,1204,1103.7148" style="stroke: #A80036; stroke-width: 1.0;"/><line style="stroke: #A80036; stroke-width: 1.0;" x1="370" x2="1206" y1="1103.7148" y2="1103.7148"/><text fill="#000000" font-family="sans-serif" font-size="13" lengthAdjust="spacingAndGlyphs" textLength="132" x="377" y="1099.2832">play(soundFragment)</text><line style="stroke: #000000; stroke-width: 1.0; stroke-dasharray: 2.0,2.0;" x1="23" x2="1291" y1="1113.0254" y2="1113.0254"/><text fill="#000000" font-family="sans-serif" font-size="11" font-weight="bold" lengthAdjust="spacingAndGlyphs" textLength="33" x="28" y="1123.6602">[prev]</text><polygon fill="#A80036" points="178.5,1143.9805,188.5,1147.9805,178.5,1151.9805,182.5,1147.9805" style="stroke: #A80036; stroke-width: 1.0;"/><line style="stroke: #A80036; stroke-width: 1.0;" x1="51.5" x2="184.5" y1="1147.9805" y2="1147.9805"/><text fill="#000000" font-family="sans-serif" font-size="13" lengthAdjust="spacingAndGlyphs" textLength="35" x="58.5" y="1143.5488">prev()</text><polygon fill="#A80036" points="358,1173.291,368,1177.291,358,1181.291,362,1177.291" style="stroke: #A80036; stroke-width: 1.0;"/><line style="stroke: #A80036; stroke-width: 1.0;" x1="190.5" x2="364" y1="1177.291" y2="1177.291"/><text fill="#000000" font-family="sans-serif" font-size="13" lengthAdjust="spacingAndGlyphs" textLength="115" x="197.5" y="1172.8594">play(soundSource)</text><polygon fill="#A80036" points="1200,1202.6016,1210,1206.6016,1200,1210.6016,1204,1206.6016" style="stroke: #A80036; stroke-width: 1.0;"/><line style="stroke: #A80036; stroke-width: 1.0;" x1="370" x2="1206" y1="1206.6016" y2="1206.6016"/><text fill="#000000" font-family="sans-serif" font-size="13" lengthAdjust="spacingAndGlyphs" textLength="132" x="377" y="1202.1699">play(soundFragment)</text><polygon fill="#A80036" points="1200,1245.9121,1210,1249.9121,1200,1253.9121,1204,1249.9121" style="stroke: #A80036; stroke-width: 1.0;"/><line style="stroke: #A80036; stroke-width: 1.0;" x1="370" x2="1206" y1="1249.9121" y2="1249.9121"/><text fill="#000000" font-family="sans-serif" font-size="13" lengthAdjust="spacingAndGlyphs" textLength="53" x="377" y="1245.4805">stopAll()</text><polygon fill="#A80036" points="1200,1275.2227,1210,1279.2227,1200,1283.2227,1204,1279.2227" style="stroke: #A80036; stroke-width: 1.0;"/><line style="stroke: #A80036; stroke-width: 1.0;" x1="370" x2="1206" y1="1279.2227" y2="1279.2227"/><text fill="#000000" font-family="sans-serif" font-size="13" lengthAdjust="spacingAndGlyphs" textLength="87" x="377" y="1274.791">&lt;&lt;destroy&gt;&gt;</text><line style="stroke: #A80036; stroke-width: 2.0;" x1="1203" x2="1221" y1="1270.2227" y2="1288.2227"/><line style="stroke: #A80036; stroke-width: 2.0;" x1="1203" x2="1221" y1="1288.2227" y2="1270.2227"/><polygon fill="#A80036" points="1086.5,1304.5332,1096.5,1308.5332,1086.5,1312.5332,1090.5,1308.5332" style="stroke: #A80036; stroke-width: 1.0;"/><line style="stroke: #A80036; stroke-width: 1.0;" x1="370" x2="1092.5" y1="1308.5332" y2="1308.5332"/><text fill="#000000" font-family="sans-serif" font-size="13" lengthAdjust="spacingAndGlyphs" textLength="87" x="377" y="1304.1016">&lt;&lt;destroy&gt;&gt;</text><line style="stroke: #A80036; stroke-width: 2.0;" x1="1089.5" x2="1107.5" y1="1299.5332" y2="1317.5332"/><line style="stroke: #A80036; stroke-width: 2.0;" x1="1089.5" x2="1107.5" y1="1317.5332" y2="1299.5332"/><polygon fill="#A80036" points="201.5,1333.8438,191.5,1337.8438,201.5,1341.8438,197.5,1337.8438" style="stroke: #A80036; stroke-width: 1.0;"/><line style="stroke: #A80036; stroke-width: 1.0;" x1="195.5" x2="369" y1="1337.8438" y2="1337.8438"/><text fill="#000000" font-family="sans-serif" font-size="13" lengthAdjust="spacingAndGlyphs" textLength="87" x="207.5" y="1333.4121">&lt;&lt;destroy&gt;&gt;</text><line style="stroke: #A80036; stroke-width: 2.0;" x1="181.5" x2="199.5" y1="1328.8438" y2="1346.8438"/><line style="stroke: #A80036; stroke-width: 2.0;" x1="181.5" x2="199.5" y1="1346.8438" y2="1328.8438"/><line style="stroke: #A80036; stroke-width: 2.0;" x1="361" x2="379" y1="1328.8438" y2="1346.8438"/><line style="stroke: #A80036; stroke-width: 2.0;" x1="361" x2="379" y1="1346.8438" y2="1328.8438"/><!--
@startuml Diagrams/PlayMapModeVSS
hide footbox
skinparam sequenceParticipant underline

actor User as user
participant ":PlayMapModeVSSPage" as page
participant ":MapVSSPlayControl" as control
participant ":LocalSoundSpaceLibrary" as library
participant "thisVSS:MapModeVirtualSoundSpace" as vss
participant ":Sensor" as sensor
participant ":GVRAudioEngine" as audio
participant ":AdjustSensorPage" as adpage

create page
[-> page: <<create>>
create control
page -> control: <<create>>
control -> library: checkAllNessarySoundFragmentDownloaded()
alt downloaded
    library - -> control: confirm
else not yet
    library - -> control: deny
    control -> page: warning
    control -> page: <<destroy>>
    destroy control
    destroy page
end
control -> vss: getSoundSources()
vss - -> control: soundSourceList
control -> page: displaySoundSourceList
create sensor
control -> sensor: <<create>>
create audio
control -> audio: <<create>>
create adpage
control -> adpage: <<create>>
...adjust sensor...
user -> user: wakeup
destroy adpage
loop
    control -\ sensor: getCurrentLocation()
    note right
    async message, in another thread
    end note
    sensor - -\ control: currentLocation
    control -> audio: updateCurrentLocation(currentLocation)

    alt startPlay
        user -> page: play(soundSource)
        page -> control: play(soundSource)
        control -> audio: play(soundFragment)
    else pause
        user -> page: pause()
        page -> control: pause()
        control -> audio: pause()
    else next
        user -> page: next()
        page -> control: play(soundSource)
        control -> audio: play(soundFragment)
    else prev
        user -> page: prev()
        page -> control: play(soundSource)
        control -> audio: play(soundFragment)
    end
end
control -> audio: stopAll()
control -> audio: <<destroy>>
destroy audio
control -> sensor: <<destroy>>
destroy sensor
control -> page: <<destroy>>
destroy page
destroy control


@enduml

PlantUML version 1.2018.01(Mon Jan 29 02:08:22 CST 2018)
(GPL source distribution)
Java Runtime: Java(TM) SE Runtime Environment
JVM: Java HotSpot(TM) 64-Bit Server VM
Java Version: 9+181
Operating System: Mac OS X
OS Version: 10.12.6
Default Encoding: UTF-8
Language: zh
Country: CN
--></g></svg>