<?xml version="1.0" encoding="UTF-8" standalone="no"?><svg xmlns="http://www.w3.org/2000/svg" xmlns:xlink="http://www.w3.org/1999/xlink" contentScriptType="application/ecmascript" contentStyleType="text/css" height="291px" preserveAspectRatio="none" style="width:712px;height:291px;" version="1.1" viewBox="0 0 712 291"
    width="712px" zoomAndPan="magnify"><defs><filter height="300%" id="fzdeidfx73oul" width="300%" x="-1" y="-1"><feGaussianBlur result="blurOut" stdDeviation="2.0"/><feColorMatrix in="blurOut" result="blurOut2" type="matrix" values="0 0 0 0 0 0 0 0 0 0 0 0 0 0 0 0 0 0 .4 0"/><feOffset dx="4.0" dy="4.0" in="blurOut2" result="blurOut3"/><feBlend in="SourceGraphic" in2="blurOut3" mode="normal"/></filter></defs><g><rect fill="#FEFECE" filter="url(#fzdeidfx73oul)" height="30.4883" style="stroke: #A80036; stroke-width: 1.5;" width="196" x="247.5" y="125.7988"/><text fill="#000000" font-family="sans-serif" font-size="14" lengthAdjust="spacingAndGlyphs" text-decoration="underline" textLength="182" x="254.5" y="146.334">:PreviewOnlineMapControl</text><line style="stroke: #000000; stroke-width: 1.0;" x1="254.5" x2="436.5" y1="148.334" y2="148.334"/><line style="stroke: #A80036; stroke-width: 1.0; stroke-dasharray: 5.0,5.0;" x1="26" x2="26" y1="86.4883" y2="279.2188"/><line style="stroke: #A80036; stroke-width: 1.0; stroke-dasharray: 5.0,5.0;" x1="145" x2="145" y1="86.4883" y2="279.2188"/><line style="stroke: #A80036; stroke-width: 1.0; stroke-dasharray: 5.0,5.0;" x1="347.5" x2="347.5" y1="158.543" y2="279.2188"/><line style="stroke: #A80036; stroke-width: 1.0; stroke-dasharray: 5.0,5.0;" x1="581.5" x2="581.5" y1="86.4883" y2="279.2188"/><text fill="#000000" font-family="sans-serif" font-size="14" lengthAdjust="spacingAndGlyphs" text-decoration="underline" textLength="31" x="8" y="83.5352">User</text><line style="stroke: #000000; stroke-width: 1.0;" x1="8" x2="39" y1="85.5352" y2="85.5352"/><ellipse cx="26.5" cy="13" fill="#FEFECE" filter="url(#fzdeidfx73oul)" rx="8" ry="8" style="stroke: #A80036; stroke-width: 2.0;"/><path d="M26.5,21 L26.5,48 M13.5,29 L39.5,29 M26.5,48 L13.5,63 M26.5,48 L39.5,63 " fill="none" filter="url(#fzdeidfx73oul)" style="stroke: #A80036; stroke-width: 2.0;"/><rect fill="#FEFECE" filter="url(#fzdeidfx73oul)" height="30.4883" style="stroke: #A80036; stroke-width: 1.5;" width="177" x="55" y="51"/><text fill="#000000" font-family="sans-serif" font-size="14" lengthAdjust="spacingAndGlyphs" text-decoration="underline" textLength="163" x="62" y="71.5352">:PreviewOnlineMapPage</text><line style="stroke: #000000; stroke-width: 1.0;" x1="62" x2="225" y1="73.5352" y2="73.5352"/><rect fill="#FEFECE" filter="url(#fzdeidfx73oul)" height="30.4883" style="stroke: #A80036; stroke-width: 1.5;" width="244" x="457.5" y="51"/><text fill="#000000" font-family="sans-serif" font-size="14" lengthAdjust="spacingAndGlyphs" text-decoration="underline" textLength="230" x="464.5" y="71.5352">onlineMapVSS:VirtualSoundSpace</text><line style="stroke: #000000; stroke-width: 1.0;" x1="464.5" x2="694.5" y1="73.5352" y2="73.5352"/><polygon fill="#A80036" points="133.5,113.4883,143.5,117.4883,133.5,121.4883,137.5,117.4883" style="stroke: #A80036; stroke-width: 1.0;"/><line style="stroke: #A80036; stroke-width: 1.0;" x1="3" x2="139.5" y1="117.4883" y2="117.4883"/><text fill="#000000" font-family="sans-serif" font-size="13" lengthAdjust="spacingAndGlyphs" textLength="78" x="10" y="113.0566">&lt;&lt;create&gt;&gt;</text><polygon fill="#A80036" points="235.5,142.7988,245.5,146.7988,235.5,150.7988,239.5,146.7988" style="stroke: #A80036; stroke-width: 1.0;"/><line style="stroke: #A80036; stroke-width: 1.0;" x1="145.5" x2="241.5" y1="146.7988" y2="146.7988"/><text fill="#000000" font-family="sans-serif" font-size="13" lengthAdjust="spacingAndGlyphs" textLength="78" x="152.5" y="142.3672">&lt;&lt;create&gt;&gt;</text><rect fill="#FEFECE" filter="url(#fzdeidfx73oul)" height="30.4883" style="stroke: #A80036; stroke-width: 1.5;" width="196" x="247.5" y="125.7988"/><text fill="#000000" font-family="sans-serif" font-size="14" lengthAdjust="spacingAndGlyphs" text-decoration="underline" textLength="182" x="254.5" y="146.334">:PreviewOnlineMapControl</text><line style="stroke: #000000; stroke-width: 1.0;" x1="254.5" x2="436.5" y1="148.334" y2="148.334"/><polygon fill="#A80036" points="569.5,188.2871,579.5,192.2871,569.5,196.2871,573.5,192.2871" style="stroke: #A80036; stroke-width: 1.0;"/><line style="stroke: #A80036; stroke-width: 1.0;" x1="347.5" x2="575.5" y1="192.2871" y2="192.2871"/><text fill="#000000" font-family="sans-serif" font-size="13" lengthAdjust="spacingAndGlyphs" textLength="82" x="354.5" y="187.8555">get metadata</text><polygon fill="#A80036" points="358.5,217.5977,348.5,221.5977,358.5,225.5977,354.5,221.5977" style="stroke: #A80036; stroke-width: 1.0;"/><line style="stroke: #A80036; stroke-width: 1.0;" x1="352.5" x2="580.5" y1="221.5977" y2="221.5977"/><text fill="#000000" font-family="sans-serif" font-size="13" lengthAdjust="spacingAndGlyphs" textLength="58" x="364.5" y="217.166">metadata</text><polygon fill="#A80036" points="156.5,251.9082,146.5,255.9082,156.5,259.9082,152.5,255.9082" style="stroke: #A80036; stroke-width: 1.0;"/><line style="stroke: #A80036; stroke-width: 1.0;" x1="150.5" x2="346.5" y1="255.9082" y2="255.9082"/><text fill="#000000" font-family="sans-serif" font-size="13" lengthAdjust="spacingAndGlyphs" textLength="107" x="162.5" y="251.4766">display metadata</text><path d="M352,234.9082 L352,259.9082 L567,259.9082 L567,244.9082 L557,234.9082 L352,234.9082 " fill="#FBFB77" filter="url(#fzdeidfx73oul)" style="stroke: #A80036; stroke-width: 1.0;"/><path d="M557,234.9082 L557,244.9082 L567,244.9082 L557,234.9082 " fill="#FBFB77" style="stroke: #A80036; stroke-width: 1.0;"/><text fill="#000000" font-family="sans-serif" font-size="13" lengthAdjust="spacingAndGlyphs" textLength="194" x="358" y="252.4766">details are left out for designs.</text><!--
@startuml Diagrams/PreviewOnlineMapVSS
hide footbox
skinparam sequenceParticipant underline
actor User as user

participant ":PreviewOnlineMapPage" as page
participant ":PreviewOnlineMapControl" as control
participant "onlineMapVSS:VirtualSoundSpace" as vss
create page
[-> page: <<create>>
create control
page -> control: <<create>>
control -> vss: get metadata
vss -> control: metadata
control -> page: display metadata
note right
details are left out for designs.
end note
@enduml

PlantUML version 1.2018.01(Mon Jan 29 02:08:22 CST 2018)
(GPL source distribution)
Java Runtime: Java(TM) SE Runtime Environment
JVM: Java HotSpot(TM) 64-Bit Server VM
Java Version: 9+181
Operating System: Mac OS X
OS Version: 10.12.6
Default Encoding: UTF-8
Language: zh
Country: CN
--></g></svg>