<?xml version="1.0" encoding="UTF-8" standalone="no"?><svg xmlns="http://www.w3.org/2000/svg" xmlns:xlink="http://www.w3.org/1999/xlink" contentScriptType="application/ecmascript" contentStyleType="text/css" height="686px" preserveAspectRatio="none" style="width:900px;height:686px;" version="1.1" viewBox="0 0 900 686"
    width="900px" zoomAndPan="magnify"><defs><filter height="300%" id="fnftoiuoi1yx8" width="300%" x="-1" y="-1"><feGaussianBlur result="blurOut" stdDeviation="2.0"/><feColorMatrix in="blurOut" result="blurOut2" type="matrix" values="0 0 0 0 0 0 0 0 0 0 0 0 0 0 0 0 0 0 .4 0"/><feOffset dx="4.0" dy="4.0" in="blurOut2" result="blurOut3"/><feBlend in="SourceGraphic" in2="blurOut3" mode="normal"/></filter></defs><g><rect fill="#FEFECE" filter="url(#fnftoiuoi1yx8)" height="30.4883" style="stroke: #A80036; stroke-width: 1.5;" width="107" x="210" y="194.4199"/><text fill="#000000" font-family="sans-serif" font-size="14" lengthAdjust="spacingAndGlyphs" text-decoration="underline" textLength="93" x="217" y="214.9551">:RegisterPage</text><line style="stroke: #000000; stroke-width: 1.0;" x1="217" x2="310" y1="216.9551" y2="216.9551"/><rect fill="#FFFFFF" filter="url(#fnftoiuoi1yx8)" height="147.5527" style="stroke: #000000; stroke-width: 2.0;" width="458" x="101" y="347.8398"/><rect fill="#FEFECE" filter="url(#fnftoiuoi1yx8)" height="30.4883" style="stroke: #A80036; stroke-width: 1.5;" width="49" x="527.5" y="531.7031"/><text fill="#000000" font-family="sans-serif" font-size="14" lengthAdjust="spacingAndGlyphs" text-decoration="underline" textLength="35" x="534.5" y="552.2383">:User</text><line style="stroke: #000000; stroke-width: 1.0;" x1="534.5" x2="569.5" y1="554.2383" y2="554.2383"/><rect fill="#FEFECE" filter="url(#fnftoiuoi1yx8)" height="30.4883" style="stroke: #A80036; stroke-width: 1.5;" width="171" x="590.5" y="619.502"/><text fill="#000000" font-family="sans-serif" font-size="14" lengthAdjust="spacingAndGlyphs" text-decoration="underline" textLength="157" x="597.5" y="640.0371">:LocalVSSManagerPage</text><line style="stroke: #000000; stroke-width: 1.0;" x1="597.5" x2="754.5" y1="642.0371" y2="642.0371"/><line style="stroke: #A80036; stroke-width: 1.0; stroke-dasharray: 5.0,5.0;" x1="54" x2="54" y1="86.4883" y2="674.9902"/><line style="stroke: #A80036; stroke-width: 1.0; stroke-dasharray: 5.0,5.0;" x1="129" x2="129" y1="86.4883" y2="674.9902"/><line style="stroke: #A80036; stroke-width: 1.0; stroke-dasharray: 5.0,5.0;" x1="265" x2="265" y1="227.1641" y2="674.9902"/><line style="stroke: #A80036; stroke-width: 1.0; stroke-dasharray: 5.0,5.0;" x1="423" x2="423" y1="86.4883" y2="674.9902"/><line style="stroke: #A80036; stroke-width: 1.0; stroke-dasharray: 5.0,5.0;" x1="553.5" x2="553.5" y1="564.4473" y2="674.9902"/><line style="stroke: #A80036; stroke-width: 1.0; stroke-dasharray: 5.0,5.0;" x1="677.5" x2="677.5" y1="652.2461" y2="674.9902"/><rect fill="#FEFECE" filter="url(#fnftoiuoi1yx8)" height="30.4883" style="stroke: #A80036; stroke-width: 1.5;" width="89" x="8" y="51"/><text fill="#000000" font-family="sans-serif" font-size="14" lengthAdjust="spacingAndGlyphs" text-decoration="underline" textLength="75" x="15" y="71.5352">:LoginPage</text><line style="stroke: #000000; stroke-width: 1.0;" x1="15" x2="90" y1="73.5352" y2="73.5352"/><text fill="#000000" font-family="sans-serif" font-size="14" lengthAdjust="spacingAndGlyphs" text-decoration="underline" textLength="31" x="111" y="83.5352">User</text><line style="stroke: #000000; stroke-width: 1.0;" x1="111" x2="142" y1="85.5352" y2="85.5352"/><ellipse cx="129.5" cy="13" fill="#FEFECE" filter="url(#fnftoiuoi1yx8)" rx="8" ry="8" style="stroke: #A80036; stroke-width: 2.0;"/><path d="M129.5,21 L129.5,48 M116.5,29 L142.5,29 M129.5,48 L116.5,63 M129.5,48 L142.5,63 " fill="none" filter="url(#fnftoiuoi1yx8)" style="stroke: #A80036; stroke-width: 2.0;"/><rect fill="#FEFECE" filter="url(#fnftoiuoi1yx8)" height="30.4883" style="stroke: #A80036; stroke-width: 1.5;" width="128" x="357" y="51"/><text fill="#000000" font-family="sans-serif" font-size="14" lengthAdjust="spacingAndGlyphs" text-decoration="underline" textLength="114" x="364" y="71.5352">:UserInfoControl</text><line style="stroke: #000000; stroke-width: 1.0;" x1="364" x2="478" y1="73.5352" y2="73.5352"/><path d="M428,101.4883 L428,126.4883 L888,126.4883 L888,111.4883 L878,101.4883 L428,101.4883 " fill="#FBFB77" filter="url(#fnftoiuoi1yx8)" style="stroke: #A80036; stroke-width: 1.0;"/><path d="M878,101.4883 L878,111.4883 L888,111.4883 L878,101.4883 " fill="#FBFB77" style="stroke: #A80036; stroke-width: 1.0;"/><text fill="#000000" font-family="sans-serif" font-size="13" lengthAdjust="spacingAndGlyphs" textLength="439" x="434" y="119.0566">The UserInfoControl is activated since the start of the entire program.</text><polygon fill="#A80036" points="65.5,152.7988,55.5,156.7988,65.5,160.7988,61.5,156.7988" style="stroke: #A80036; stroke-width: 1.0;"/><line style="stroke: #A80036; stroke-width: 1.0;" x1="59.5" x2="128.5" y1="156.7988" y2="156.7988"/><text fill="#000000" font-family="sans-serif" font-size="13" lengthAdjust="spacingAndGlyphs" textLength="48" x="71.5" y="152.3672">register</text><polygon fill="#A80036" points="411,182.1094,421,186.1094,411,190.1094,415,186.1094" style="stroke: #A80036; stroke-width: 1.0;"/><line style="stroke: #A80036; stroke-width: 1.0;" x1="54.5" x2="417" y1="186.1094" y2="186.1094"/><text fill="#000000" font-family="sans-serif" font-size="13" lengthAdjust="spacingAndGlyphs" textLength="48" x="61.5" y="181.6777">register</text><polygon fill="#A80036" points="332,211.4199,322,215.4199,332,219.4199,328,215.4199" style="stroke: #A80036; stroke-width: 1.0;"/><line style="stroke: #A80036; stroke-width: 1.0;" x1="326" x2="422" y1="215.4199" y2="215.4199"/><text fill="#000000" font-family="sans-serif" font-size="13" lengthAdjust="spacingAndGlyphs" textLength="78" x="338" y="210.9883">&lt;&lt;create&gt;&gt;</text><rect fill="#FEFECE" filter="url(#fnftoiuoi1yx8)" height="30.4883" style="stroke: #A80036; stroke-width: 1.5;" width="107" x="210" y="194.4199"/><text fill="#000000" font-family="sans-serif" font-size="14" lengthAdjust="spacingAndGlyphs" text-decoration="underline" textLength="93" x="217" y="214.9551">:RegisterPage</text><line style="stroke: #000000; stroke-width: 1.0;" x1="217" x2="310" y1="216.9551" y2="216.9551"/><polygon fill="#A80036" points="253.5,256.9082,263.5,260.9082,253.5,264.9082,257.5,260.9082" style="stroke: #A80036; stroke-width: 1.0;"/><line style="stroke: #A80036; stroke-width: 1.0;" x1="129.5" x2="259.5" y1="260.9082" y2="260.9082"/><text fill="#000000" font-family="sans-serif" font-size="13" lengthAdjust="spacingAndGlyphs" textLength="112" x="136.5" y="256.4766">enterRegisterData</text><polygon fill="#A80036" points="411,286.2188,421,290.2188,411,294.2188,415,290.2188" style="stroke: #A80036; stroke-width: 1.0;"/><line style="stroke: #A80036; stroke-width: 1.0;" x1="265.5" x2="417" y1="290.2188" y2="290.2188"/><text fill="#000000" font-family="sans-serif" font-size="13" lengthAdjust="spacingAndGlyphs" textLength="110" x="272.5" y="285.7871">sendRegisterData</text><line style="stroke: #A80036; stroke-width: 1.0;" x1="423" x2="465" y1="319.8398" y2="319.8398"/><line style="stroke: #A80036; stroke-width: 1.0;" x1="465" x2="465" y1="319.8398" y2="332.8398"/><line style="stroke: #A80036; stroke-width: 1.0;" x1="424" x2="465" y1="332.8398" y2="332.8398"/><polygon fill="#A80036" points="434,328.8398,424,332.8398,434,336.8398,430,332.8398" style="stroke: #A80036; stroke-width: 1.0;"/><text fill="#000000" font-family="sans-serif" font-size="13" lengthAdjust="spacingAndGlyphs" textLength="117" x="430" y="315.0977">checkRegisterData</text><path d="M101,347.8398 L175,347.8398 L175,354.8398 L165,364.8398 L101,364.8398 L101,347.8398 " fill="#EEEEEE" style="stroke: #000000; stroke-width: 1.0;"/><rect fill="none" height="147.5527" style="stroke: #000000; stroke-width: 2.0;" width="458" x="101" y="347.8398"/><text fill="#000000" font-family="sans-serif" font-size="13" font-weight="bold" lengthAdjust="spacingAndGlyphs" textLength="29" x="116" y="361.4082">loop</text><text fill="#000000" font-family="sans-serif" font-size="11" font-weight="bold" lengthAdjust="spacingAndGlyphs" textLength="76" x="190" y="360.4746">[wrong input]</text><polygon fill="#A80036" points="276.5,382.1504,266.5,386.1504,276.5,390.1504,272.5,386.1504" style="stroke: #A80036; stroke-width: 1.0;"/><line style="stroke: #A80036; stroke-width: 1.0; stroke-dasharray: 2.0,2.0;" x1="270.5" x2="422" y1="386.1504" y2="386.1504"/><text fill="#000000" font-family="sans-serif" font-size="13" lengthAdjust="spacingAndGlyphs" textLength="117" x="282.5" y="381.7188">registerDataWrong</text><polygon fill="#A80036" points="253.5,411.4609,263.5,415.4609,253.5,419.4609,257.5,415.4609" style="stroke: #A80036; stroke-width: 1.0;"/><line style="stroke: #A80036; stroke-width: 1.0;" x1="129.5" x2="259.5" y1="415.4609" y2="415.4609"/><text fill="#000000" font-family="sans-serif" font-size="13" lengthAdjust="spacingAndGlyphs" textLength="112" x="136.5" y="411.0293">enterRegisterData</text><polygon fill="#A80036" points="411,440.7715,421,444.7715,411,448.7715,415,444.7715" style="stroke: #A80036; stroke-width: 1.0;"/><line style="stroke: #A80036; stroke-width: 1.0;" x1="265.5" x2="417" y1="444.7715" y2="444.7715"/><text fill="#000000" font-family="sans-serif" font-size="13" lengthAdjust="spacingAndGlyphs" textLength="110" x="272.5" y="440.3398">sendRegisterData</text><line style="stroke: #A80036; stroke-width: 1.0;" x1="423" x2="465" y1="474.3926" y2="474.3926"/><line style="stroke: #A80036; stroke-width: 1.0;" x1="465" x2="465" y1="474.3926" y2="487.3926"/><line style="stroke: #A80036; stroke-width: 1.0;" x1="424" x2="465" y1="487.3926" y2="487.3926"/><polygon fill="#A80036" points="434,483.3926,424,487.3926,434,491.3926,430,487.3926" style="stroke: #A80036; stroke-width: 1.0;"/><text fill="#000000" font-family="sans-serif" font-size="13" lengthAdjust="spacingAndGlyphs" textLength="117" x="430" y="469.6504">checkRegisterData</text><polygon fill="#A80036" points="276.5,519.3926,266.5,523.3926,276.5,527.3926,272.5,523.3926" style="stroke: #A80036; stroke-width: 1.0;"/><line style="stroke: #A80036; stroke-width: 1.0; stroke-dasharray: 2.0,2.0;" x1="270.5" x2="422" y1="523.3926" y2="523.3926"/><text fill="#000000" font-family="sans-serif" font-size="13" lengthAdjust="spacingAndGlyphs" textLength="98" x="282.5" y="518.9609">registerSuccess</text><polygon fill="#A80036" points="515.5,548.7031,525.5,552.7031,515.5,556.7031,519.5,552.7031" style="stroke: #A80036; stroke-width: 1.0;"/><line style="stroke: #A80036; stroke-width: 1.0;" x1="423" x2="521.5" y1="552.7031" y2="552.7031"/><text fill="#000000" font-family="sans-serif" font-size="13" lengthAdjust="spacingAndGlyphs" textLength="78" x="430" y="548.2715">&lt;&lt;create&gt;&gt;</text><rect fill="#FEFECE" filter="url(#fnftoiuoi1yx8)" height="30.4883" style="stroke: #A80036; stroke-width: 1.5;" width="49" x="527.5" y="531.7031"/><text fill="#000000" font-family="sans-serif" font-size="14" lengthAdjust="spacingAndGlyphs" text-decoration="underline" textLength="35" x="534.5" y="552.2383">:User</text><line style="stroke: #000000; stroke-width: 1.0;" x1="534.5" x2="569.5" y1="554.2383" y2="554.2383"/><line style="stroke: #A80036; stroke-width: 1.0;" x1="423" x2="465" y1="598.502" y2="598.502"/><line style="stroke: #A80036; stroke-width: 1.0;" x1="465" x2="465" y1="598.502" y2="611.502"/><line style="stroke: #A80036; stroke-width: 1.0;" x1="424" x2="465" y1="611.502" y2="611.502"/><polygon fill="#A80036" points="434,607.502,424,611.502,434,615.502,430,611.502" style="stroke: #A80036; stroke-width: 1.0;"/><text fill="#000000" font-family="sans-serif" font-size="13" lengthAdjust="spacingAndGlyphs" textLength="94" x="430" y="593.7598">setCurrentUser</text><polygon fill="#A80036" points="578.5,636.502,588.5,640.502,578.5,644.502,582.5,640.502" style="stroke: #A80036; stroke-width: 1.0;"/><line style="stroke: #A80036; stroke-width: 1.0;" x1="423" x2="584.5" y1="640.502" y2="640.502"/><text fill="#000000" font-family="sans-serif" font-size="13" lengthAdjust="spacingAndGlyphs" textLength="78" x="430" y="636.0703">&lt;&lt;create&gt;&gt;</text><rect fill="#FEFECE" filter="url(#fnftoiuoi1yx8)" height="30.4883" style="stroke: #A80036; stroke-width: 1.5;" width="171" x="590.5" y="619.502"/><text fill="#000000" font-family="sans-serif" font-size="14" lengthAdjust="spacingAndGlyphs" text-decoration="underline" textLength="157" x="597.5" y="640.0371">:LocalVSSManagerPage</text><line style="stroke: #000000; stroke-width: 1.0;" x1="597.5" x2="754.5" y1="642.0371" y2="642.0371"/><!--
@startuml Diagrams/Register
hide footbox
skinparam sequenceParticipant underline

participant ":LoginPage" as loginpage
actor User as user
participant ":RegisterPage" as boundary
participant ":UserInfoControl" as control
participant ":User" as userdata
participant ":LocalVSSManagerPage" as nextpage

note right of control: The UserInfoControl is activated since the start of the entire program.

user -> loginpage: register
loginpage -> control: register

create boundary
control -> boundary: <<create>>
user -> boundary: enterRegisterData
boundary -> control: sendRegisterData
control -> control: checkRegisterData
loop wrong input
    control - -> boundary: registerDataWrong
    user -> boundary: enterRegisterData
    boundary -> control: sendRegisterData
    control -> control: checkRegisterData
end
control - -> boundary: registerSuccess
create userdata
control -> userdata: <<create>>
control -> control: setCurrentUser
create nextpage
control -> nextpage: <<create>>
@enduml

PlantUML version 1.2018.01(Mon Jan 29 02:08:22 CST 2018)
(GPL source distribution)
Java Runtime: Java(TM) SE Runtime Environment
JVM: Java HotSpot(TM) 64-Bit Server VM
Java Version: 9+181
Operating System: Mac OS X
OS Version: 10.12.6
Default Encoding: UTF-8
Language: zh
Country: CN
--></g></svg>