<?xml version="1.0" encoding="UTF-8" standalone="no"?><svg xmlns="http://www.w3.org/2000/svg" xmlns:xlink="http://www.w3.org/1999/xlink" contentScriptType="application/ecmascript" contentStyleType="text/css" height="353px" preserveAspectRatio="none" style="width:1305px;height:353px;" version="1.1" viewBox="0 0 1305 353"
    width="1305px" zoomAndPan="magnify"><defs><filter height="300%" id="f18a4fow2zdwq7" width="300%" x="-1" y="-1"><feGaussianBlur result="blurOut" stdDeviation="2.0"/><feColorMatrix in="blurOut" result="blurOut2" type="matrix" values="0 0 0 0 0 0 0 0 0 0 0 0 0 0 0 0 0 0 .4 0"/><feOffset dx="4.0" dy="4.0" in="blurOut2" result="blurOut3"/><feBlend in="SourceGraphic" in2="blurOut3" mode="normal"/></filter></defs><g><rect fill="#FFFFFF" filter="url(#f18a4fow2zdwq7)" height="90.8867" style="stroke: #000000; stroke-width: 2.0;" width="1092.5" x="201" y="233.7305"/><rect fill="#FFFFFF" height="44.2656" style="stroke: none; stroke-width: 1.0;" width="1092.5" x="201" y="280.3516"/><line style="stroke: #A80036; stroke-width: 1.0; stroke-dasharray: 5.0,5.0;" x1="26" x2="26" y1="86.4883" y2="341.6172"/><line style="stroke: #A80036; stroke-width: 1.0; stroke-dasharray: 5.0,5.0;" x1="298" x2="298" y1="86.4883" y2="341.6172"/><line style="stroke: #A80036; stroke-width: 1.0; stroke-dasharray: 5.0,5.0;" x1="770" x2="770" y1="86.4883" y2="341.6172"/><line style="stroke: #A80036; stroke-width: 1.0; stroke-dasharray: 5.0,5.0;" x1="1189.5" x2="1189.5" y1="86.4883" y2="341.6172"/><text fill="#000000" font-family="sans-serif" font-size="14" lengthAdjust="spacingAndGlyphs" text-decoration="underline" textLength="31" x="8" y="83.5352">User</text><line style="stroke: #000000; stroke-width: 1.0;" x1="8" x2="39" y1="85.5352" y2="85.5352"/><ellipse cx="26.5" cy="13" fill="#FEFECE" filter="url(#f18a4fow2zdwq7)" rx="8" ry="8" style="stroke: #A80036; stroke-width: 2.0;"/><path d="M26.5,21 L26.5,48 M13.5,29 L39.5,29 M26.5,48 L13.5,63 M26.5,48 L39.5,63 " fill="none" filter="url(#f18a4fow2zdwq7)" style="stroke: #A80036; stroke-width: 2.0;"/><rect fill="#FEFECE" filter="url(#f18a4fow2zdwq7)" height="30.4883" style="stroke: #A80036; stroke-width: 1.5;" width="171" x="211" y="51"/><text fill="#000000" font-family="sans-serif" font-size="14" lengthAdjust="spacingAndGlyphs" text-decoration="underline" textLength="157" x="218" y="71.5352">:LocalVSSManagerPage</text><line style="stroke: #000000; stroke-width: 1.0;" x1="218" x2="375" y1="73.5352" y2="73.5352"/><rect fill="#FEFECE" filter="url(#f18a4fow2zdwq7)" height="30.4883" style="stroke: #A80036; stroke-width: 1.5;" width="177" x="680" y="51"/><text fill="#000000" font-family="sans-serif" font-size="14" lengthAdjust="spacingAndGlyphs" text-decoration="underline" textLength="163" x="687" y="71.5352">:LocalVSSLibraryControl</text><line style="stroke: #000000; stroke-width: 1.0;" x1="687" x2="850" y1="73.5352" y2="73.5352"/><rect fill="#FEFECE" filter="url(#f18a4fow2zdwq7)" height="30.4883" style="stroke: #A80036; stroke-width: 1.5;" width="184" x="1095.5" y="51"/><text fill="#000000" font-family="sans-serif" font-size="14" lengthAdjust="spacingAndGlyphs" text-decoration="underline" textLength="170" x="1102.5" y="71.5352">:LocalSoundSpaceLibrary</text><line style="stroke: #000000; stroke-width: 1.0;" x1="1102.5" x2="1272.5" y1="73.5352" y2="73.5352"/><polygon fill="#A80036" points="286.5,113.4883,296.5,117.4883,286.5,121.4883,290.5,117.4883" style="stroke: #A80036; stroke-width: 1.0;"/><line style="stroke: #A80036; stroke-width: 1.0;" x1="26.5" x2="292.5" y1="117.4883" y2="117.4883"/><text fill="#000000" font-family="sans-serif" font-size="13" lengthAdjust="spacingAndGlyphs" textLength="68" x="33.5" y="113.0566">renameVSS</text><polygon fill="#A80036" points="286.5,142.7988,296.5,146.7988,286.5,150.7988,290.5,146.7988" style="stroke: #A80036; stroke-width: 1.0;"/><line style="stroke: #A80036; stroke-width: 1.0;" x1="26.5" x2="292.5" y1="146.7988" y2="146.7988"/><text fill="#000000" font-family="sans-serif" font-size="13" lengthAdjust="spacingAndGlyphs" textLength="248" x="33.5" y="142.3672">enterNewLocalVSSNameAndDescription</text><polygon fill="#A80036" points="758.5,172.1094,768.5,176.1094,758.5,180.1094,762.5,176.1094" style="stroke: #A80036; stroke-width: 1.0;"/><line style="stroke: #A80036; stroke-width: 1.0;" x1="298.5" x2="764.5" y1="176.1094" y2="176.1094"/><text fill="#000000" font-family="sans-serif" font-size="13" lengthAdjust="spacingAndGlyphs" textLength="448" x="305.5" y="171.6777">newNameAndDescriptionEntered(whichVSS, newName, newDescription)</text><line style="stroke: #A80036; stroke-width: 1.0;" x1="770.5" x2="812.5" y1="205.7305" y2="205.7305"/><line style="stroke: #A80036; stroke-width: 1.0;" x1="812.5" x2="812.5" y1="205.7305" y2="218.7305"/><line style="stroke: #A80036; stroke-width: 1.0;" x1="771.5" x2="812.5" y1="218.7305" y2="218.7305"/><polygon fill="#A80036" points="781.5,214.7305,771.5,218.7305,781.5,222.7305,777.5,218.7305" style="stroke: #A80036; stroke-width: 1.0;"/><text fill="#000000" font-family="sans-serif" font-size="13" lengthAdjust="spacingAndGlyphs" textLength="198" x="777.5" y="200.9883">checkNewNameAndDescription</text><path d="M201,233.7305 L263,233.7305 L263,240.7305 L253,250.7305 L201,250.7305 L201,233.7305 " fill="#EEEEEE" style="stroke: #000000; stroke-width: 1.0;"/><rect fill="none" height="90.8867" style="stroke: #000000; stroke-width: 2.0;" width="1092.5" x="201" y="233.7305"/><text fill="#000000" font-family="sans-serif" font-size="13" font-weight="bold" lengthAdjust="spacingAndGlyphs" textLength="17" x="216" y="247.2988">alt</text><text fill="#000000" font-family="sans-serif" font-size="11" font-weight="bold" lengthAdjust="spacingAndGlyphs" textLength="76" x="278" y="246.3652">[wrong input]</text><polygon fill="#A80036" points="309.5,268.041,299.5,272.041,309.5,276.041,305.5,272.041" style="stroke: #A80036; stroke-width: 1.0;"/><line style="stroke: #A80036; stroke-width: 1.0;" x1="303.5" x2="769.5" y1="272.041" y2="272.041"/><text fill="#000000" font-family="sans-serif" font-size="13" lengthAdjust="spacingAndGlyphs" textLength="110" x="315.5" y="267.6094">notifyWrongInput</text><line style="stroke: #000000; stroke-width: 1.0; stroke-dasharray: 2.0,2.0;" x1="201" x2="1293.5" y1="281.3516" y2="281.3516"/><text fill="#000000" font-family="sans-serif" font-size="11" font-weight="bold" lengthAdjust="spacingAndGlyphs" textLength="69" x="206" y="291.9863">[good input]</text><polygon fill="#A80036" points="1177.5,312.3066,1187.5,316.3066,1177.5,320.3066,1181.5,316.3066" style="stroke: #A80036; stroke-width: 1.0;"/><line style="stroke: #A80036; stroke-width: 1.0;" x1="770.5" x2="1183.5" y1="316.3066" y2="316.3066"/><text fill="#000000" font-family="sans-serif" font-size="13" lengthAdjust="spacingAndGlyphs" textLength="395" x="777.5" y="311.875">setNameAndDescription(whichVSS, newName, newDescription)</text><!--
@startuml Diagrams/RenameVSS
hide footbox
skinparam sequenceParticipant underline

actor User as user
participant ":LocalVSSManagerPage" as page
participant ":LocalVSSLibraryControl" as control
participant ":LocalSoundSpaceLibrary" as library

user -> page: renameVSS
user -> page: enterNewLocalVSSNameAndDescription
page -> control: newNameAndDescriptionEntered(whichVSS, newName, newDescription)
control -> control: checkNewNameAndDescription
alt wrong input
    control -> page: notifyWrongInput
else good input
    control -> library: setNameAndDescription(whichVSS, newName, newDescription)
end

@enduml

PlantUML version 1.2018.01(Mon Jan 29 02:08:22 CST 2018)
(GPL source distribution)
Java Runtime: Java(TM) SE Runtime Environment
JVM: Java HotSpot(TM) 64-Bit Server VM
Java Version: 9+181
Operating System: Mac OS X
OS Version: 10.12.6
Default Encoding: UTF-8
Language: zh
Country: CN
--></g></svg>