<?xml version="1.0" encoding="UTF-8" standalone="no"?><svg xmlns="http://www.w3.org/2000/svg" xmlns:xlink="http://www.w3.org/1999/xlink" contentScriptType="application/ecmascript" contentStyleType="text/css" height="729px" preserveAspectRatio="none" style="width:1115px;height:729px;" version="1.1" viewBox="0 0 1115 729"
    width="1115px" zoomAndPan="magnify"><defs><filter height="300%" id="fvv4g77ex5dgc" width="300%" x="-1" y="-1"><feGaussianBlur result="blurOut" stdDeviation="2.0"/><feColorMatrix in="blurOut" result="blurOut2" type="matrix" values="0 0 0 0 0 0 0 0 0 0 0 0 0 0 0 0 0 0 .4 0"/><feOffset dx="4.0" dy="4.0" in="blurOut2" result="blurOut3"/><feBlend in="SourceGraphic" in2="blurOut3" mode="normal"/></filter></defs><g><rect fill="#FEFECE" filter="url(#fvv4g77ex5dgc)" height="50" rx="12.5" ry="12.5" style="stroke: #A80036; stroke-width: 1.5;" width="66" x="668.5" y="8"/><line style="stroke: #A80036; stroke-width: 1.5;" x1="668.5" x2="734.5" y1="34.4883" y2="34.4883"/><text fill="#000000" font-family="sans-serif" font-size="14" lengthAdjust="spacingAndGlyphs" textLength="46" x="678.5" y="26.5352">Config</text><rect fill="#FEFECE" filter="url(#fvv4g77ex5dgc)" height="50" rx="12.5" ry="12.5" style="stroke: #A80036; stroke-width: 1.5;" width="58" x="462.5" y="118"/><line style="stroke: #A80036; stroke-width: 1.5;" x1="462.5" x2="520.5" y1="144.4883" y2="144.4883"/><text fill="#000000" font-family="sans-serif" font-size="14" lengthAdjust="spacingAndGlyphs" textLength="38" x="472.5" y="136.5352">Login</text><ellipse cx="491.5" cy="33" fill="#000000" filter="url(#fvv4g77ex5dgc)" rx="10" ry="10" style="stroke: none; stroke-width: 1.0;"/><rect fill="#FEFECE" filter="url(#fvv4g77ex5dgc)" height="50" rx="12.5" ry="12.5" style="stroke: #A80036; stroke-width: 1.5;" width="76" x="555.5" y="118"/><line style="stroke: #A80036; stroke-width: 1.5;" x1="555.5" x2="631.5" y1="144.4883" y2="144.4883"/><text fill="#000000" font-family="sans-serif" font-size="14" lengthAdjust="spacingAndGlyphs" textLength="56" x="565.5" y="136.5352">Register</text><rect fill="#FEFECE" filter="url(#fvv4g77ex5dgc)" height="50" rx="12.5" ry="12.5" style="stroke: #A80036; stroke-width: 1.5;" width="134" x="492.5" y="228"/><line style="stroke: #A80036; stroke-width: 1.5;" x1="492.5" x2="626.5" y1="254.4883" y2="254.4883"/><text fill="#000000" font-family="sans-serif" font-size="14" lengthAdjust="spacingAndGlyphs" textLength="114" x="502.5" y="246.5352">ManageLocalVSS</text><rect fill="#FEFECE" filter="url(#fvv4g77ex5dgc)" height="50" rx="12.5" ry="12.5" style="stroke: #A80036; stroke-width: 1.5;" width="136" x="474.5" y="338"/><line style="stroke: #A80036; stroke-width: 1.5;" x1="474.5" x2="610.5" y1="364.4883" y2="364.4883"/><text fill="#000000" font-family="sans-serif" font-size="14" lengthAdjust="spacingAndGlyphs" textLength="116" x="484.5" y="356.5352">PreviewLocalMap</text><rect fill="#FEFECE" filter="url(#fvv4g77ex5dgc)" height="50" rx="12.5" ry="12.5" style="stroke: #A80036; stroke-width: 1.5;" width="161" x="458" y="668"/><line style="stroke: #A80036; stroke-width: 1.5;" x1="458" x2="619" y1="694.4883" y2="694.4883"/><text fill="#000000" font-family="sans-serif" font-size="14" lengthAdjust="spacingAndGlyphs" textLength="141" x="468" y="686.5352">PreviewLocalConcert</text><rect fill="#FEFECE" filter="url(#fvv4g77ex5dgc)" height="50" rx="12.5" ry="12.5" style="stroke: #A80036; stroke-width: 1.5;" width="111" x="487" y="448"/><line style="stroke: #A80036; stroke-width: 1.5;" x1="487" x2="598" y1="474.4883" y2="474.4883"/><text fill="#000000" font-family="sans-serif" font-size="14" lengthAdjust="spacingAndGlyphs" textLength="91" x="497" y="466.5352">AdjustSensor</text><rect fill="#FEFECE" filter="url(#fvv4g77ex5dgc)" height="50" rx="12.5" ry="12.5" style="stroke: #A80036; stroke-width: 1.5;" width="139" x="177" y="558"/><line style="stroke: #A80036; stroke-width: 1.5;" x1="177" x2="316" y1="584.4883" y2="584.4883"/><text fill="#000000" font-family="sans-serif" font-size="14" lengthAdjust="spacingAndGlyphs" textLength="119" x="187" y="576.5352">PlayMapModeVSS</text><rect fill="#FEFECE" filter="url(#fvv4g77ex5dgc)" height="50" rx="12.5" ry="12.5" style="stroke: #A80036; stroke-width: 1.5;" width="164" x="456.5" y="558"/><line style="stroke: #A80036; stroke-width: 1.5;" x1="456.5" x2="620.5" y1="584.4883" y2="584.4883"/><text fill="#000000" font-family="sans-serif" font-size="14" lengthAdjust="spacingAndGlyphs" textLength="144" x="466.5" y="576.5352">PlayConcertModeVSS</text><rect fill="#FEFECE" filter="url(#fvv4g77ex5dgc)" height="50" rx="12.5" ry="12.5" style="stroke: #A80036; stroke-width: 1.5;" width="90" x="252.5" y="338"/><line style="stroke: #A80036; stroke-width: 1.5;" x1="252.5" x2="342.5" y1="364.4883" y2="364.4883"/><text fill="#000000" font-family="sans-serif" font-size="14" lengthAdjust="spacingAndGlyphs" textLength="70" x="262.5" y="356.5352">CreateVSS</text><rect fill="#FEFECE" filter="url(#fvv4g77ex5dgc)" height="50" rx="12.5" ry="12.5" style="stroke: #A80036; stroke-width: 1.5;" width="157" x="6" y="448"/><line style="stroke: #A80036; stroke-width: 1.5;" x1="6" x2="163" y1="474.4883" y2="474.4883"/><text fill="#000000" font-family="sans-serif" font-size="14" lengthAdjust="spacingAndGlyphs" textLength="137" x="16" y="466.5352">CreateMapModeVSS</text><rect fill="#FEFECE" filter="url(#fvv4g77ex5dgc)" height="50" rx="12.5" ry="12.5" style="stroke: #A80036; stroke-width: 1.5;" width="182" x="198.5" y="448"/><line style="stroke: #A80036; stroke-width: 1.5;" x1="198.5" x2="380.5" y1="474.4883" y2="474.4883"/><text fill="#000000" font-family="sans-serif" font-size="14" lengthAdjust="spacingAndGlyphs" textLength="162" x="208.5" y="466.5352">CreateConcertModeVSS</text><rect fill="#FEFECE" filter="url(#fvv4g77ex5dgc)" height="50" rx="12.5" ry="12.5" style="stroke: #A80036; stroke-width: 1.5;" width="139" x="749" y="228"/><line style="stroke: #A80036; stroke-width: 1.5;" x1="749" x2="888" y1="254.4883" y2="254.4883"/><text fill="#000000" font-family="sans-serif" font-size="14" lengthAdjust="spacingAndGlyphs" textLength="119" x="759" y="246.5352">BrowseOnlineVSS</text><rect fill="#FEFECE" filter="url(#fvv4g77ex5dgc)" height="50" rx="12.5" ry="12.5" style="stroke: #A80036; stroke-width: 1.5;" width="171" x="932" y="338"/><line style="stroke: #A80036; stroke-width: 1.5;" x1="932" x2="1103" y1="364.4883" y2="364.4883"/><text fill="#000000" font-family="sans-serif" font-size="14" lengthAdjust="spacingAndGlyphs" textLength="151" x="942" y="356.5352">PreviewOnlineConcert</text><rect fill="#FEFECE" filter="url(#fvv4g77ex5dgc)" height="50" rx="12.5" ry="12.5" style="stroke: #A80036; stroke-width: 1.5;" width="146" x="750.5" y="338"/><line style="stroke: #A80036; stroke-width: 1.5;" x1="750.5" x2="896.5" y1="364.4883" y2="364.4883"/><text fill="#000000" font-family="sans-serif" font-size="14" lengthAdjust="spacingAndGlyphs" textLength="126" x="760.5" y="356.5352">PreviewOnlineMap</text><!--link Config to Login--><path d="M668.4872,44.139 C632.3456,59.7496 574.9231,89.1764 525.2708,115.4705 " fill="none" id="Config-Login" style="stroke: #A80036; stroke-width: 1.0;"/><polygon fill="#A80036" points="520.7972,117.8423,530.6225,117.1609,525.2148,115.5004,526.8753,110.0927,520.7972,117.8423" style="stroke: #A80036; stroke-width: 1.0;"/><!--link Config to Login--><path d="M668.2024,57.8563 C638.2234,74.6729 594.1648,97.4759 555.5,118 C546.1012,122.9891 535.6787,128.6433 525.4129,133.311 " fill="none" id="Config-Login" style="stroke: #A80036; stroke-width: 1.0;"/><polygon fill="#A80036" points="520.7115,135.3802,530.5603,135.4156,525.2878,133.366,527.3375,128.0935,520.7115,135.3802" style="stroke: #A80036; stroke-width: 1.0;"/><!--link *start to Login--><path d="M491.5,43.1514 C491.5,58.7765 491.5,89.3444 491.5,112.5625 " fill="none" id="*start-Login" style="stroke: #A80036; stroke-width: 1.0;"/><polygon fill="#A80036" points="491.5,117.6947,495.5,108.6947,491.5,112.6947,487.5,108.6947,491.5,117.6947" style="stroke: #A80036; stroke-width: 1.0;"/><!--link Register to Login--><path d="M550.1761,161.3252 C540.3127,162.4168 530.4493,161.4045 520.5859,158.2882 " fill="none" id="Register-Login" style="stroke: #A80036; stroke-width: 1.0;"/><polygon fill="#A80036" points="555.334,160.5626,545.8457,157.9222,550.3878,161.294,547.016,165.8361,555.334,160.5626" style="stroke: #A80036; stroke-width: 1.0;"/><!--link Register to Login--><path d="M555.334,125.4374 C545.3802,123.5956 535.4263,123.8965 525.4724,126.3401 " fill="none" id="Register-Login" style="stroke: #A80036; stroke-width: 1.0;"/><polygon fill="#A80036" points="520.5859,127.7118,530.3321,129.1304,525.3998,126.3604,528.1698,121.4281,520.5859,127.7118" style="stroke: #A80036; stroke-width: 1.0;"/><!--link Register to ManageLocalVSS--><path d="M585.6997,168.2362 C580.6893,184.4464 574.1532,205.5926 568.8628,222.7087 " fill="none" id="Register-ManageLocalVSS" style="stroke: #A80036; stroke-width: 1.0;"/><polygon fill="#A80036" points="567.264,227.8812,573.7434,220.4639,568.7406,223.1042,566.1002,218.1013,567.264,227.8812" style="stroke: #A80036; stroke-width: 1.0;"/><!--link Login to ManageLocalVSS--><path d="M507.1006,168.2362 C517.2942,184.7258 530.6453,206.3233 541.3195,223.5903 " fill="none" id="Login-ManageLocalVSS" style="stroke: #A80036; stroke-width: 1.0;"/><polygon fill="#A80036" points="543.972,227.8812,542.642,218.1226,541.3429,223.6282,535.8372,222.3292,543.972,227.8812" style="stroke: #A80036; stroke-width: 1.0;"/><!--link ManageLocalVSS to PreviewLocalMap--><path d="M544.6804,278.2362 C539.9584,294.4464 536.487,315.5926 535.6517,332.7087 " fill="none" id="ManageLocalVSS-PreviewLocalMap" style="stroke: #A80036; stroke-width: 1.0;"/><polygon fill="#A80036" points="535.4786,337.8812,539.7775,329.0201,535.6459,332.884,531.782,328.7524,535.4786,337.8812" style="stroke: #A80036; stroke-width: 1.0;"/><!--link PreviewLocalMap to ManageLocalVSS--><path d="M557.9267,337.8812 C562.7857,321.695 566.2791,300.5509 567.0212,283.4155 " fill="none" id="PreviewLocalMap-ManageLocalVSS" style="stroke: #A80036; stroke-width: 1.0;"/><polygon fill="#A80036" points="567.1617,278.2362,562.9189,287.1243,567.026,283.2344,570.9159,287.3415,567.1617,278.2362" style="stroke: #A80036; stroke-width: 1.0;"/><!--link ManageLocalVSS to PreviewLocalConcert--><path d="M571.9347,278.1569 C584.7106,293.7798 601.9102,315.1849 610.5,338 C652.8111,450.3811 670.6318,498.8829 620.5,608 C609.8612,631.1564 589.4562,650.3747 571.3646,664.6446 " fill="none" id="ManageLocalVSS-PreviewLocalConcert" style="stroke: #A80036; stroke-width: 1.0;"/><polygon fill="#A80036" points="567.3047,667.797,576.8666,665.4368,571.254,664.7306,571.9603,659.118,567.3047,667.797" style="stroke: #A80036; stroke-width: 1.0;"/><!--link PreviewLocalConcert to ManageLocalVSS--><path d="M598.3274,667.9769 C621.1257,653.4273 644.0093,633.0106 655.5,608 C705.6318,498.8829 687.8111,450.3811 645.5,338 C637.5813,316.9673 622.3455,297.133 606.4952,281.9223 " fill="none" id="PreviewLocalConcert-ManageLocalVSS" style="stroke: #A80036; stroke-width: 1.0;"/><polygon fill="#A80036" points="602.4563,278.1569,606.3115,287.2199,606.1135,281.5665,611.7668,281.3684,602.4563,278.1569" style="stroke: #A80036; stroke-width: 1.0;"/><!--link PreviewLocalMap to AdjustSensor--><path d="M531.5805,388.2362 C529.3638,404.4464 529.1604,425.5926 530.9703,442.7087 " fill="none" id="PreviewLocalMap-AdjustSensor" style="stroke: #A80036; stroke-width: 1.0;"/><polygon fill="#A80036" points="531.5966,447.8812,534.4855,438.4656,530.9955,442.9175,526.5436,439.4274,531.5966,447.8812" style="stroke: #A80036; stroke-width: 1.0;"/><!--link AdjustSensor to PreviewLocalMap--><path d="M554.0448,447.8812 C556.4022,431.695 556.6279,410.5509 554.7218,393.4155 " fill="none" id="AdjustSensor-PreviewLocalMap" style="stroke: #A80036; stroke-width: 1.0;"/><polygon fill="#A80036" points="554.0618,388.2362,551.2317,397.6697,554.6939,393.1961,559.1675,396.6583,554.0618,388.2362" style="stroke: #A80036; stroke-width: 1.0;"/><!--link PreviewLocalConcert to AdjustSensor--><path d="M510.1562,667.8942 C491.0454,653.382 468.0722,633.0242 456.5,608 C447.1726,587.8301 446.9785,578.0791 456.5,558 C467.6466,534.4938 488.8291,515.3325 507.6937,501.1934 " fill="none" id="PreviewLocalConcert-AdjustSensor" style="stroke: #A80036; stroke-width: 1.0;"/><polygon fill="#A80036" points="511.9288,498.0718,502.3109,500.192,507.904,501.0385,507.0575,506.6316,511.9288,498.0718" style="stroke: #A80036; stroke-width: 1.0;"/><!--link AdjustSensor to PreviewLocalConcert--><path d="M486.9675,494.2639 C461.515,508.7875 434.5887,530.3984 421.5,558 C411.9785,578.0791 412.1726,587.8301 421.5,608 C432.3489,631.4602 453.2183,650.8191 474.5766,665.1049 " fill="none" id="AdjustSensor-PreviewLocalConcert" style="stroke: #A80036; stroke-width: 1.0;"/><polygon fill="#A80036" points="478.852,667.8942,473.5001,659.6263,474.6645,665.1621,469.1287,666.3264,478.852,667.8942" style="stroke: #A80036; stroke-width: 1.0;"/><!--link AdjustSensor to PlayMapModeVSS--><path d="M486.8247,493.6902 C439.2897,511.3552 370.5985,536.8823 318.8177,556.1252 " fill="none" id="AdjustSensor-PlayMapModeVSS" style="stroke: #A80036; stroke-width: 1.0;"/><polygon fill="#A80036" points="313.8608,557.9673,323.6905,558.5817,318.5476,556.2256,320.9037,551.0828,313.8608,557.9673" style="stroke: #A80036; stroke-width: 1.0;"/><!--link AdjustSensor to PlayConcertModeVSS--><path d="M541.5823,498.2362 C540.9929,514.4464 540.2239,535.5926 539.6015,552.7087 " fill="none" id="AdjustSensor-PlayConcertModeVSS" style="stroke: #A80036; stroke-width: 1.0;"/><polygon fill="#A80036" points="539.4134,557.8812,543.7379,549.0325,539.5951,552.8845,535.7431,548.7418,539.4134,557.8812" style="stroke: #A80036; stroke-width: 1.0;"/><!--link PlayMapModeVSS to PreviewLocalMap--><path d="M297.9834,557.9064 C328.0726,542.3053 366.1699,520.9009 397.5,498 C442.0127,465.4632 487.6344,420.7402 515.5226,391.8505 " fill="none" id="PlayMapModeVSS-PreviewLocalMap" style="stroke: #A80036; stroke-width: 1.0;"/><polygon fill="#A80036" points="519.17,388.0575,510.0485,391.7721,515.7043,391.6615,515.8149,397.3173,519.17,388.0575" style="stroke: #A80036; stroke-width: 1.0;"/><!--link PlayConcertModeVSS to PreviewLocalConcert--><path d="M538.5,608.2362 C538.5,624.4464 538.5,645.5926 538.5,662.7087 " fill="none" id="PlayConcertModeVSS-PreviewLocalConcert" style="stroke: #A80036; stroke-width: 1.0;"/><polygon fill="#A80036" points="538.5,667.8812,542.5,658.8812,538.5,662.8812,534.5,658.8812,538.5,667.8812" style="stroke: #A80036; stroke-width: 1.0;"/><!--link ManageLocalVSS to CreateVSS--><path d="M492.2665,276.7329 C447.0457,294.6124 388.6501,319.093 347.485,337.4092 " fill="none" id="ManageLocalVSS-CreateVSS" style="stroke: #A80036; stroke-width: 1.0;"/><polygon fill="#A80036" points="342.8041,339.4987,352.6529,339.4827,347.3699,337.4606,349.392,332.1775,342.8041,339.4987" style="stroke: #A80036; stroke-width: 1.0;"/><!--link CreateVSS to ManageLocalVSS--><path d="M342.8657,347.9922 C388.6133,330.5847 458.5202,301.5432 506.6717,280.1447 " fill="none" id="CreateVSS-ManageLocalVSS" style="stroke: #A80036; stroke-width: 1.0;"/><polygon fill="#A80036" points="511.2621,278.0983,501.4132,278.1094,506.6953,280.1341,504.6706,285.4162,511.2621,278.0983" style="stroke: #A80036; stroke-width: 1.0;"/><!--link CreateVSS to CreateMapModeVSS--><path d="M252.3282,386.3282 C218.7864,403.6502 172.933,427.3304 137.6304,445.5618 " fill="none" id="CreateVSS-CreateMapModeVSS" style="stroke: #A80036; stroke-width: 1.0;"/><polygon fill="#A80036" points="132.9412,447.9834,142.7732,447.4077,137.3838,445.6891,139.1024,440.2997,132.9412,447.9834" style="stroke: #A80036; stroke-width: 1.0;"/><!--link CreateMapModeVSS to ManageLocalVSS--><path d="M105.451,447.9019 C132.2629,417.406 181.6067,366.5063 234.5,338 C314.9337,294.6511 418.6401,272.5252 487.0094,261.8814 " fill="none" id="CreateMapModeVSS-ManageLocalVSS" style="stroke: #A80036; stroke-width: 1.0;"/><polygon fill="#A80036" points="492.2799,261.0727,482.7773,258.4842,487.3378,261.8311,483.9908,266.3916,492.2799,261.0727" style="stroke: #A80036; stroke-width: 1.0;"/><!--link CreateVSS to CreateConcertModeVSS--><path d="M295.6646,388.2362 C294.4857,404.4464 292.9478,425.5926 291.703,442.7087 " fill="none" id="CreateVSS-CreateConcertModeVSS" style="stroke: #A80036; stroke-width: 1.0;"/><polygon fill="#A80036" points="291.3268,447.8812,295.9691,439.1951,291.6895,442.8944,287.9902,438.6147,291.3268,447.8812" style="stroke: #A80036; stroke-width: 1.0;"/><!--link CreateConcertModeVSS to ManageLocalVSS--><path d="M320.5965,447.6621 C371.3647,406.2955 471.6979,324.5425 524.7427,281.3208 " fill="none" id="CreateConcertModeVSS-ManageLocalVSS" style="stroke: #A80036; stroke-width: 1.0;"/><polygon fill="#A80036" points="528.7904,278.0226,519.2866,280.6067,524.9142,281.1809,524.3399,286.8086,528.7904,278.0226" style="stroke: #A80036; stroke-width: 1.0;"/><!--link ManageLocalVSS to BrowseOnlineVSS--><path d="M626.5264,267.3863 C665.52,272.8336 704.5137,273.1809 743.5074,268.4282 " fill="none" id="ManageLocalVSS-BrowseOnlineVSS" style="stroke: #A80036; stroke-width: 1.0;"/><polygon fill="#A80036" points="748.7596,267.7572,739.3252,264.9301,743.7999,268.3909,740.3391,272.8656,748.7596,267.7572" style="stroke: #A80036; stroke-width: 1.0;"/><!--link BrowseOnlineVSS to ManageLocalVSS--><path d="M748.7596,238.2428 C709.7659,233.0321 670.7722,232.9215 631.7786,237.9108 " fill="none" id="BrowseOnlineVSS-ManageLocalVSS" style="stroke: #A80036; stroke-width: 1.0;"/><polygon fill="#A80036" points="626.5264,238.6137,635.9775,241.3844,631.4822,237.9504,634.9162,233.4551,626.5264,238.6137" style="stroke: #A80036; stroke-width: 1.0;"/><!--link Config to BrowseOnlineVSS--><path d="M708.4208,63.1199 C726.5856,106.7968 769.4071,186.9378 796.561,227.7196 " fill="none" id="Config-BrowseOnlineVSS" style="stroke: #A80036; stroke-width: 1.0;"/><polygon fill="#A80036" points="706.4328,58.2368,706.1218,68.0807,708.3182,62.8677,713.5312,65.0641,706.4328,58.2368" style="stroke: #A80036; stroke-width: 1.0;"/><!--link Config to BrowseOnlineVSS--><path d="M723.9093,58.2368 C751.3738,98.9905 794.2104,179.1305 812.0952,222.8334 " fill="none" id="Config-BrowseOnlineVSS" style="stroke: #A80036; stroke-width: 1.0;"/><polygon fill="#A80036" points="814.0495,227.7196,814.4211,217.8778,812.1926,223.0772,806.9932,220.8487,814.0495,227.7196" style="stroke: #A80036; stroke-width: 1.0;"/><!--link Config to ManageLocalVSS--><path d="M680.7506,63.0125 C668.5513,91.6221 653.5897,135.097 631.5,168 C616.1369,190.8836 593.6579,212.2881 577.3107,227.8936 " fill="none" id="Config-ManageLocalVSS" style="stroke: #A80036; stroke-width: 1.0;"/><polygon fill="#A80036" points="682.841,58.2014,675.5857,64.8618,680.8484,62.7872,682.9231,68.0499,682.841,58.2014" style="stroke: #A80036; stroke-width: 1.0;"/><!--link Config to ManageLocalVSS--><path d="M708.2118,58.2014 C705.2585,86.5566 689.8676,133.1935 666.5,168 C652.2171,189.2746 631.7839,209.2708 612.2468,224.5173 " fill="none" id="Config-ManageLocalVSS" style="stroke: #A80036; stroke-width: 1.0;"/><polygon fill="#A80036" points="607.8324,227.8936,617.4112,225.6032,611.804,224.856,612.5512,219.2488,607.8324,227.8936" style="stroke: #A80036; stroke-width: 1.0;"/><!--link BrowseOnlineVSS to PreviewOnlineConcert--><path d="M853.2351,278.2362 C881.863,295.3547 922.695,317.978 956.6274,335.5464 " fill="none" id="BrowseOnlineVSS-PreviewOnlineConcert" style="stroke: #A80036; stroke-width: 1.0;"/><polygon fill="#A80036" points="961.1544,337.8812,954.989,330.2008,956.7106,335.5894,951.3221,337.3109,961.1544,337.8812" style="stroke: #A80036; stroke-width: 1.0;"/><!--link PreviewOnlineConcert to BrowseOnlineVSS--><path d="M983.4995,337.8193 C954.9957,320.6885 914.1001,298.0258 879.9975,280.436 " fill="none" id="PreviewOnlineConcert-BrowseOnlineVSS" style="stroke: #A80036; stroke-width: 1.0;"/><polygon fill="#A80036" points="875.447,278.0983,881.6248,285.7687,879.8945,280.383,885.2802,278.6527,875.447,278.0983" style="stroke: #A80036; stroke-width: 1.0;"/><!--link BrowseOnlineVSS to PreviewOnlineMap--><path d="M808.7276,278.2362 C807.2477,294.4464 808.0055,315.5926 810.5934,332.7087 " fill="none" id="BrowseOnlineVSS-PreviewOnlineMap" style="stroke: #A80036; stroke-width: 1.0;"/><polygon fill="#A80036" points="811.4549,337.8812,813.9217,328.3463,810.6333,332.9492,806.0304,329.6608,811.4549,337.8812" style="stroke: #A80036; stroke-width: 1.0;"/><!--link PreviewOnlineMap to BrowseOnlineVSS--><path d="M833.903,337.8812 C835.5247,321.695 834.7893,300.5509 832.1043,283.4155 " fill="none" id="PreviewOnlineMap-BrowseOnlineVSS" style="stroke: #A80036; stroke-width: 1.0;"/><polygon fill="#A80036" points="831.2089,278.2362,828.8007,287.7861,832.0607,283.1631,836.6837,286.4232,831.2089,278.2362" style="stroke: #A80036; stroke-width: 1.0;"/><!--
@startuml Diagrams/UIStateDiagram
Config - -> Login

Config - -> Login

[*] - -> Login
Login -left-> Register
Register -right-> Login
Register -down-> ManageLocalVSS
Login -down-> ManageLocalVSS

ManageLocalVSS - -> PreviewLocalMap
ManageLocalVSS - -> PreviewLocalConcert
PreviewLocalMap - -> ManageLocalVSS
PreviewLocalConcert - -> ManageLocalVSS
PreviewLocalMap - -> AdjustSensor
PreviewLocalConcert - -> AdjustSensor
AdjustSensor - -> PreviewLocalMap
AdjustSensor - -> PreviewLocalConcert
AdjustSensor - -> PlayMapModeVSS
AdjustSensor - -> PlayConcertModeVSS
PlayMapModeVSS - -> PreviewLocalMap
PlayConcertModeVSS - -> PreviewLocalConcert

ManageLocalVSS - -> CreateVSS
CreateVSS - -> ManageLocalVSS
CreateVSS - -> CreateMapModeVSS
CreateMapModeVSS - -> ManageLocalVSS
CreateVSS - -> CreateConcertModeVSS
CreateConcertModeVSS - -> ManageLocalVSS

ManageLocalVSS -> BrowseOnlineVSS
BrowseOnlineVSS -> ManageLocalVSS

BrowseOnlineVSS -up-> Config
Config -down-> BrowseOnlineVSS
ManageLocalVSS -up-> Config
Config -down-> ManageLocalVSS

BrowseOnlineVSS - -> PreviewOnlineConcert
PreviewOnlineConcert - -> BrowseOnlineVSS
BrowseOnlineVSS - -> PreviewOnlineMap
PreviewOnlineMap - -> BrowseOnlineVSS

@enduml

PlantUML version 1.2018.01(Mon Jan 29 02:08:22 CST 2018)
(GPL source distribution)
Java Runtime: Java(TM) SE Runtime Environment
JVM: Java HotSpot(TM) 64-Bit Server VM
Java Version: 9+181
Operating System: Mac OS X
OS Version: 10.12.6
Default Encoding: UTF-8
Language: zh
Country: CN
--></g></svg>