<?xml version="1.0" encoding="UTF-8" standalone="no"?><svg xmlns="http://www.w3.org/2000/svg" xmlns:xlink="http://www.w3.org/1999/xlink" contentScriptType="application/ecmascript" contentStyleType="text/css" height="288px" preserveAspectRatio="none" style="width:666px;height:288px;" version="1.1" viewBox="0 0 666 288"
    width="666px" zoomAndPan="magnify"><defs><filter height="300%" id="fb6iyfw9qv662" width="300%" x="-1" y="-1"><feGaussianBlur result="blurOut" stdDeviation="2.0"/><feColorMatrix in="blurOut" result="blurOut2" type="matrix" values="0 0 0 0 0 0 0 0 0 0 0 0 0 0 0 0 0 0 .4 0"/><feOffset dx="4.0" dy="4.0" in="blurOut2" result="blurOut3"/><feBlend in="SourceGraphic" in2="blurOut3" mode="normal"/></filter></defs><g><line style="stroke: #A80036; stroke-width: 1.0;" x1="26" x2="26" y1="86.4883" y2="184.4199"/><line style="stroke: #A80036; stroke-width: 1.0; stroke-dasharray: 1.0,4.0;" x1="26" x2="26" y1="184.4199" y2="225.375"/><line style="stroke: #A80036; stroke-width: 1.0;" x1="26" x2="26" y1="225.375" y2="225.375"/><line style="stroke: #A80036; stroke-width: 1.0; stroke-dasharray: 1.0,4.0;" x1="26" x2="26" y1="225.375" y2="266.3301"/><line style="stroke: #A80036; stroke-width: 1.0;" x1="26" x2="26" y1="266.3301" y2="276.3301"/><line style="stroke: #A80036; stroke-width: 1.0;" x1="182" x2="182" y1="86.4883" y2="184.4199"/><line style="stroke: #A80036; stroke-width: 1.0; stroke-dasharray: 1.0,4.0;" x1="182" x2="182" y1="184.4199" y2="225.375"/><line style="stroke: #A80036; stroke-width: 1.0;" x1="182" x2="182" y1="225.375" y2="225.375"/><line style="stroke: #A80036; stroke-width: 1.0; stroke-dasharray: 1.0,4.0;" x1="182" x2="182" y1="225.375" y2="266.3301"/><line style="stroke: #A80036; stroke-width: 1.0;" x1="182" x2="182" y1="266.3301" y2="276.3301"/><line style="stroke: #A80036; stroke-width: 1.0;" x1="370" x2="370" y1="86.4883" y2="184.4199"/><line style="stroke: #A80036; stroke-width: 1.0; stroke-dasharray: 1.0,4.0;" x1="370" x2="370" y1="184.4199" y2="225.375"/><line style="stroke: #A80036; stroke-width: 1.0;" x1="370" x2="370" y1="225.375" y2="225.375"/><line style="stroke: #A80036; stroke-width: 1.0; stroke-dasharray: 1.0,4.0;" x1="370" x2="370" y1="225.375" y2="266.3301"/><line style="stroke: #A80036; stroke-width: 1.0;" x1="370" x2="370" y1="266.3301" y2="276.3301"/><line style="stroke: #A80036; stroke-width: 1.0;" x1="565" x2="565" y1="86.4883" y2="184.4199"/><line style="stroke: #A80036; stroke-width: 1.0; stroke-dasharray: 1.0,4.0;" x1="565" x2="565" y1="184.4199" y2="225.375"/><line style="stroke: #A80036; stroke-width: 1.0;" x1="565" x2="565" y1="225.375" y2="225.375"/><line style="stroke: #A80036; stroke-width: 1.0; stroke-dasharray: 1.0,4.0;" x1="565" x2="565" y1="225.375" y2="266.3301"/><line style="stroke: #A80036; stroke-width: 1.0;" x1="565" x2="565" y1="266.3301" y2="276.3301"/><text fill="#000000" font-family="sans-serif" font-size="14" lengthAdjust="spacingAndGlyphs" text-decoration="underline" textLength="31" x="8" y="83.5352">User</text><line style="stroke: #000000; stroke-width: 1.0;" x1="8" x2="39" y1="85.5352" y2="85.5352"/><ellipse cx="26.5" cy="13" fill="#FEFECE" filter="url(#fb6iyfw9qv662)" rx="8" ry="8" style="stroke: #A80036; stroke-width: 2.0;"/><path d="M26.5,21 L26.5,48 M13.5,29 L39.5,29 M26.5,48 L13.5,63 M26.5,48 L39.5,63 " fill="none" filter="url(#fb6iyfw9qv662)" style="stroke: #A80036; stroke-width: 2.0;"/><rect fill="#FEFECE" filter="url(#fb6iyfw9qv662)" height="30.4883" style="stroke: #A80036; stroke-width: 1.5;" width="171" x="95" y="51"/><text fill="#000000" font-family="sans-serif" font-size="14" lengthAdjust="spacingAndGlyphs" text-decoration="underline" textLength="157" x="102" y="71.5352">:LocalVSSManagerPage</text><line style="stroke: #000000; stroke-width: 1.0;" x1="102" x2="259" y1="73.5352" y2="73.5352"/><rect fill="#FEFECE" filter="url(#fb6iyfw9qv662)" height="30.4883" style="stroke: #A80036; stroke-width: 1.5;" width="177" x="280" y="51"/><text fill="#000000" font-family="sans-serif" font-size="14" lengthAdjust="spacingAndGlyphs" text-decoration="underline" textLength="163" x="287" y="71.5352">:LocalVSSLibraryControl</text><line style="stroke: #000000; stroke-width: 1.0;" x1="287" x2="450" y1="73.5352" y2="73.5352"/><rect fill="#FEFECE" filter="url(#fb6iyfw9qv662)" height="30.4883" style="stroke: #A80036; stroke-width: 1.5;" width="184" x="471" y="51"/><text fill="#000000" font-family="sans-serif" font-size="14" lengthAdjust="spacingAndGlyphs" text-decoration="underline" textLength="170" x="478" y="71.5352">:LocalSoundSpaceLibrary</text><line style="stroke: #000000; stroke-width: 1.0;" x1="478" x2="648" y1="73.5352" y2="73.5352"/><polygon fill="#A80036" points="170.5,113.4883,180.5,117.4883,170.5,121.4883,174.5,117.4883" style="stroke: #A80036; stroke-width: 1.0;"/><line style="stroke: #A80036; stroke-width: 1.0;" x1="26.5" x2="176.5" y1="117.4883" y2="117.4883"/><text fill="#000000" font-family="sans-serif" font-size="13" lengthAdjust="spacingAndGlyphs" textLength="132" x="33.5" y="113.0566">uploadVSS(whichVSS)</text><polygon fill="#A80036" points="358.5,142.7988,368.5,146.7988,358.5,150.7988,362.5,146.7988" style="stroke: #A80036; stroke-width: 1.0;"/><line style="stroke: #A80036; stroke-width: 1.0;" x1="182.5" x2="364.5" y1="146.7988" y2="146.7988"/><text fill="#000000" font-family="sans-serif" font-size="13" lengthAdjust="spacingAndGlyphs" textLength="132" x="189.5" y="142.3672">uploadVSS(whichVSS)</text><polygon fill="#A80036" points="553,172.1094,563,176.1094,553,180.1094,557,176.1094" style="stroke: #A80036; stroke-width: 1.0;"/><line style="stroke: #A80036; stroke-width: 1.0;" x1="370.5" x2="559" y1="176.1094" y2="176.1094"/><text fill="#000000" font-family="sans-serif" font-size="13" lengthAdjust="spacingAndGlyphs" textLength="136" x="377.5" y="171.6777">beamMeUp(whichVSS)</text><text fill="#000000" font-family="sans-serif" font-size="11" lengthAdjust="spacingAndGlyphs" textLength="501" x="45.25" y="209.0547">LocalSoundSpaceLibrary doing magic trick, using android system to show download progress</text><!--
@startuml Diagrams/UploadVSS
hide footbox
skinparam sequenceParticipant underline

actor User as user
participant ":LocalVSSManagerPage" as page
participant ":LocalVSSLibraryControl" as control
participant ":LocalSoundSpaceLibrary" as library

user -> page: uploadVSS(whichVSS)
page -> control: uploadVSS(whichVSS)
control -> library: beamMeUp(whichVSS)
...LocalSoundSpaceLibrary doing magic trick, using android system to show download progress...
...There are no other ways to show that a local sound space is finished uploading other than android system notices...
@enduml

PlantUML version 1.2018.01(Mon Jan 29 02:08:22 CST 2018)
(GPL source distribution)
Java Runtime: Java(TM) SE Runtime Environment
JVM: Java HotSpot(TM) 64-Bit Server VM
Java Version: 9+181
Operating System: Mac OS X
OS Version: 10.12.6
Default Encoding: UTF-8
Language: zh
Country: CN
--></g></svg>