<?xml version="1.0" encoding="UTF-8" standalone="no"?><svg xmlns="http://www.w3.org/2000/svg" xmlns:xlink="http://www.w3.org/1999/xlink" contentScriptType="application/ecmascript" contentStyleType="text/css" height="890px" preserveAspectRatio="none" style="width:1174px;height:890px;" version="1.1" viewBox="0 0 1174 890"
    width="1174px" zoomAndPan="magnify"><defs><filter height="300%" id="fe590pastldeg" width="300%" x="-1" y="-1"><feGaussianBlur result="blurOut" stdDeviation="2.0"/><feColorMatrix in="blurOut" result="blurOut2" type="matrix" values="0 0 0 0 0 0 0 0 0 0 0 0 0 0 0 0 0 0 .4 0"/><feOffset dx="4.0" dy="4.0" in="blurOut2" result="blurOut3"/><feBlend in="SourceGraphic" in2="blurOut3" mode="normal"/></filter></defs><g><rect fill="#FEFECE" filter="url(#fe590pastldeg)" height="30.4883" style="stroke: #A80036; stroke-width: 1.5;" width="187" x="327" y="125.7988"/><text fill="#000000" font-family="sans-serif" font-size="14" lengthAdjust="spacingAndGlyphs" text-decoration="underline" textLength="173" x="334" y="146.334">:OnlineVSSLibraryControl</text><line style="stroke: #000000; stroke-width: 1.0;" x1="334" x2="507" y1="148.334" y2="148.334"/><rect fill="#FFFFFF" filter="url(#fe590pastldeg)" height="536.1895" style="stroke: #000000; stroke-width: 2.0;" width="1140" x="13" y="324.8398"/><rect fill="#FFFFFF" filter="url(#fe590pastldeg)" height="123.2422" style="stroke: #000000; stroke-width: 2.0;" width="826" x="317" y="407.7715"/><rect fill="#FEFECE" filter="url(#fe590pastldeg)" height="30.4883" style="stroke: #A80036; stroke-width: 1.5;" width="202" x="736" y="425.082"/><text fill="#000000" font-family="sans-serif" font-size="14" lengthAdjust="spacingAndGlyphs" text-decoration="underline" textLength="188" x="743" y="445.6172">:PreviewOnlineConcertPage</text><line style="stroke: #000000; stroke-width: 1.0;" x1="743" x2="931" y1="447.6172" y2="447.6172"/><rect fill="#FFFFFF" height="60.4434" style="stroke: none; stroke-width: 1.0;" width="826" x="317" y="470.5703"/><rect fill="#FEFECE" filter="url(#fe590pastldeg)" height="30.4883" style="stroke: #A80036; stroke-width: 1.5;" width="177" x="952" y="485.5254"/><text fill="#000000" font-family="sans-serif" font-size="14" lengthAdjust="spacingAndGlyphs" text-decoration="underline" textLength="163" x="959" y="506.0605">:PreviewOnlineMapPage</text><line style="stroke: #000000; stroke-width: 1.0;" x1="959" x2="1122" y1="508.0605" y2="508.0605"/><rect fill="#FFFFFF" height="161.5078" style="stroke: none; stroke-width: 1.0;" width="1140" x="13" y="538.0137"/><rect fill="#FFFFFF" height="161.5078" style="stroke: none; stroke-width: 1.0;" width="1140" x="13" y="699.5215"/><line style="stroke: #A80036; stroke-width: 1.0; stroke-dasharray: 5.0,5.0;" x1="41" x2="41" y1="86.4883" y2="878.0293"/><line style="stroke: #A80036; stroke-width: 1.0; stroke-dasharray: 5.0,5.0;" x1="202" x2="202" y1="86.4883" y2="878.0293"/><line style="stroke: #A80036; stroke-width: 1.0; stroke-dasharray: 5.0,5.0;" x1="422" x2="422" y1="158.543" y2="878.0293"/><line style="stroke: #A80036; stroke-width: 1.0; stroke-dasharray: 5.0,5.0;" x1="627" x2="627" y1="86.4883" y2="878.0293"/><line style="stroke: #A80036; stroke-width: 1.0; stroke-dasharray: 5.0,5.0;" x1="839" x2="839" y1="457.8262" y2="878.0293"/><line style="stroke: #A80036; stroke-width: 1.0; stroke-dasharray: 5.0,5.0;" x1="1042" x2="1042" y1="518.2695" y2="878.0293"/><text fill="#000000" font-family="sans-serif" font-size="14" lengthAdjust="spacingAndGlyphs" text-decoration="underline" textLength="31" x="23" y="83.5352">User</text><line style="stroke: #000000; stroke-width: 1.0;" x1="23" x2="54" y1="85.5352" y2="85.5352"/><ellipse cx="41.5" cy="13" fill="#FEFECE" filter="url(#fe590pastldeg)" rx="8" ry="8" style="stroke: #A80036; stroke-width: 2.0;"/><path d="M41.5,21 L41.5,48 M28.5,29 L54.5,29 M41.5,48 L28.5,63 M41.5,48 L54.5,63 " fill="none" filter="url(#fe590pastldeg)" style="stroke: #A80036; stroke-width: 2.0;"/><rect fill="#FEFECE" filter="url(#fe590pastldeg)" height="30.4883" style="stroke: #A80036; stroke-width: 1.5;" width="167" x="117" y="51"/><text fill="#000000" font-family="sans-serif" font-size="14" lengthAdjust="spacingAndGlyphs" text-decoration="underline" textLength="153" x="124" y="71.5352">:OnlineVSSViewerPage</text><line style="stroke: #000000; stroke-width: 1.0;" x1="124" x2="277" y1="73.5352" y2="73.5352"/><rect fill="#FEFECE" filter="url(#fe590pastldeg)" height="30.4883" style="stroke: #A80036; stroke-width: 1.5;" width="194" x="528" y="51"/><text fill="#000000" font-family="sans-serif" font-size="14" lengthAdjust="spacingAndGlyphs" text-decoration="underline" textLength="180" x="535" y="71.5352">:OnlineSoundSpaceLibrary</text><line style="stroke: #000000; stroke-width: 1.0;" x1="535" x2="715" y1="73.5352" y2="73.5352"/><polygon fill="#A80036" points="190.5,113.4883,200.5,117.4883,190.5,121.4883,194.5,117.4883" style="stroke: #A80036; stroke-width: 1.0;"/><line style="stroke: #A80036; stroke-width: 1.0;" x1="3" x2="196.5" y1="117.4883" y2="117.4883"/><text fill="#000000" font-family="sans-serif" font-size="13" lengthAdjust="spacingAndGlyphs" textLength="78" x="10" y="113.0566">&lt;&lt;create&gt;&gt;</text><polygon fill="#A80036" points="315,142.7988,325,146.7988,315,150.7988,319,146.7988" style="stroke: #A80036; stroke-width: 1.0;"/><line style="stroke: #A80036; stroke-width: 1.0;" x1="202.5" x2="321" y1="146.7988" y2="146.7988"/><text fill="#000000" font-family="sans-serif" font-size="13" lengthAdjust="spacingAndGlyphs" textLength="78" x="209.5" y="142.3672">&lt;&lt;create&gt;&gt;</text><rect fill="#FEFECE" filter="url(#fe590pastldeg)" height="30.4883" style="stroke: #A80036; stroke-width: 1.5;" width="187" x="327" y="125.7988"/><text fill="#000000" font-family="sans-serif" font-size="14" lengthAdjust="spacingAndGlyphs" text-decoration="underline" textLength="173" x="334" y="146.334">:OnlineVSSLibraryControl</text><line style="stroke: #000000; stroke-width: 1.0;" x1="334" x2="507" y1="148.334" y2="148.334"/><polygon fill="#A80036" points="615,188.2871,625,192.2871,615,196.2871,619,192.2871" style="stroke: #A80036; stroke-width: 1.0;"/><line style="stroke: #A80036; stroke-width: 1.0;" x1="422.5" x2="621" y1="192.2871" y2="192.2871"/><text fill="#000000" font-family="sans-serif" font-size="13" lengthAdjust="spacingAndGlyphs" textLength="173" x="429.5" y="187.8555">getVSSList(pageNo: int):List</text><polygon fill="#A80036" points="1151,217.5977,1161,221.5977,1151,225.5977,1155,221.5977" style="stroke: #A80036; stroke-width: 1.0;"/><line style="stroke: #A80036; stroke-width: 1.0;" x1="627" x2="1157" y1="221.5977" y2="221.5977"/><text fill="#000000" font-family="sans-serif" font-size="13" lengthAdjust="spacingAndGlyphs" textLength="202" x="634" y="217.166">BrowseRequest(low:int, high:int)</text><polygon fill="#A80036" points="638,246.9082,628,250.9082,638,254.9082,634,250.9082" style="stroke: #A80036; stroke-width: 1.0;"/><line style="stroke: #A80036; stroke-width: 1.0; stroke-dasharray: 2.0,2.0;" x1="632" x2="1162" y1="250.9082" y2="250.9082"/><text fill="#000000" font-family="sans-serif" font-size="13" lengthAdjust="spacingAndGlyphs" textLength="176" x="644" y="246.4766">listOfOnlineVSS:List&lt;JSON&gt;</text><polygon fill="#A80036" points="433.5,276.2188,423.5,280.2188,433.5,284.2188,429.5,280.2188" style="stroke: #A80036; stroke-width: 1.0;"/><line style="stroke: #A80036; stroke-width: 1.0; stroke-dasharray: 2.0,2.0;" x1="427.5" x2="626" y1="280.2188" y2="280.2188"/><text fill="#000000" font-family="sans-serif" font-size="13" lengthAdjust="spacingAndGlyphs" textLength="180" x="439.5" y="275.7871">listOfOnlineVSS: List&lt;JSON&gt;</text><polygon fill="#A80036" points="213.5,305.5293,203.5,309.5293,213.5,313.5293,209.5,309.5293" style="stroke: #A80036; stroke-width: 1.0;"/><line style="stroke: #A80036; stroke-width: 1.0;" x1="207.5" x2="421.5" y1="309.5293" y2="309.5293"/><text fill="#000000" font-family="sans-serif" font-size="13" lengthAdjust="spacingAndGlyphs" textLength="196" x="219.5" y="305.0977">displayVSSList(listOfOnlineVSS)</text><path d="M13,324.8398 L75,324.8398 L75,331.8398 L65,341.8398 L13,341.8398 L13,324.8398 " fill="#EEEEEE" style="stroke: #000000; stroke-width: 1.0;"/><rect fill="none" height="536.1895" style="stroke: #000000; stroke-width: 2.0;" width="1140" x="13" y="324.8398"/><text fill="#000000" font-family="sans-serif" font-size="13" font-weight="bold" lengthAdjust="spacingAndGlyphs" textLength="17" x="28" y="338.4082">alt</text><text fill="#000000" font-family="sans-serif" font-size="11" font-weight="bold" lengthAdjust="spacingAndGlyphs" textLength="72" x="90" y="337.4746">[previewVSS]</text><polygon fill="#A80036" points="190.5,359.1504,200.5,363.1504,190.5,367.1504,194.5,363.1504" style="stroke: #A80036; stroke-width: 1.0;"/><line style="stroke: #A80036; stroke-width: 1.0;" x1="41.5" x2="196.5" y1="363.1504" y2="363.1504"/><text fill="#000000" font-family="sans-serif" font-size="13" lengthAdjust="spacingAndGlyphs" textLength="137" x="48.5" y="358.7188">previewVSS(whichVSS)</text><polygon fill="#A80036" points="410.5,388.4609,420.5,392.4609,410.5,396.4609,414.5,392.4609" style="stroke: #A80036; stroke-width: 1.0;"/><line style="stroke: #A80036; stroke-width: 1.0;" x1="202.5" x2="416.5" y1="392.4609" y2="392.4609"/><text fill="#000000" font-family="sans-serif" font-size="13" lengthAdjust="spacingAndGlyphs" textLength="137" x="209.5" y="388.0293">previewVSS(whichVSS)</text><path d="M317,407.7715 L379,407.7715 L379,414.7715 L369,424.7715 L317,424.7715 L317,407.7715 " fill="#EEEEEE" style="stroke: #000000; stroke-width: 1.0;"/><rect fill="none" height="123.2422" style="stroke: #000000; stroke-width: 2.0;" width="826" x="317" y="407.7715"/><text fill="#000000" font-family="sans-serif" font-size="13" font-weight="bold" lengthAdjust="spacingAndGlyphs" textLength="17" x="332" y="421.3398">alt</text><text fill="#000000" font-family="sans-serif" font-size="11" font-weight="bold" lengthAdjust="spacingAndGlyphs" textLength="170" x="394" y="420.4063">[concert mode vss is selected]</text><polygon fill="#A80036" points="724,442.082,734,446.082,724,450.082,728,446.082" style="stroke: #A80036; stroke-width: 1.0;"/><line style="stroke: #A80036; stroke-width: 1.0;" x1="422.5" x2="730" y1="446.082" y2="446.082"/><text fill="#000000" font-family="sans-serif" font-size="13" lengthAdjust="spacingAndGlyphs" textLength="78" x="429.5" y="441.6504">&lt;&lt;create&gt;&gt;</text><rect fill="#FEFECE" filter="url(#fe590pastldeg)" height="30.4883" style="stroke: #A80036; stroke-width: 1.5;" width="202" x="736" y="425.082"/><text fill="#000000" font-family="sans-serif" font-size="14" lengthAdjust="spacingAndGlyphs" text-decoration="underline" textLength="188" x="743" y="445.6172">:PreviewOnlineConcertPage</text><line style="stroke: #000000; stroke-width: 1.0;" x1="743" x2="931" y1="447.6172" y2="447.6172"/><line style="stroke: #000000; stroke-width: 1.0; stroke-dasharray: 2.0,2.0;" x1="317" x2="1143" y1="471.5703" y2="471.5703"/><text fill="#000000" font-family="sans-serif" font-size="11" font-weight="bold" lengthAdjust="spacingAndGlyphs" textLength="153" x="322" y="482.2051">[map mode vss is selected]</text><polygon fill="#A80036" points="940,502.5254,950,506.5254,940,510.5254,944,506.5254" style="stroke: #A80036; stroke-width: 1.0;"/><line style="stroke: #A80036; stroke-width: 1.0;" x1="422.5" x2="946" y1="506.5254" y2="506.5254"/><text fill="#000000" font-family="sans-serif" font-size="13" lengthAdjust="spacingAndGlyphs" textLength="78" x="429.5" y="502.0938">&lt;&lt;create&gt;&gt;</text><rect fill="#FEFECE" filter="url(#fe590pastldeg)" height="30.4883" style="stroke: #A80036; stroke-width: 1.5;" width="177" x="952" y="485.5254"/><text fill="#000000" font-family="sans-serif" font-size="14" lengthAdjust="spacingAndGlyphs" text-decoration="underline" textLength="163" x="959" y="506.0605">:PreviewOnlineMapPage</text><line style="stroke: #000000; stroke-width: 1.0;" x1="959" x2="1122" y1="508.0605" y2="508.0605"/><line style="stroke: #000000; stroke-width: 1.0; stroke-dasharray: 2.0,2.0;" x1="13" x2="1153" y1="539.0137" y2="539.0137"/><text fill="#000000" font-family="sans-serif" font-size="11" font-weight="bold" lengthAdjust="spacingAndGlyphs" textLength="57" x="18" y="549.6484">[nextPage]</text><polygon fill="#A80036" points="615,569.9688,625,573.9688,615,577.9688,619,573.9688" style="stroke: #A80036; stroke-width: 1.0;"/><line style="stroke: #A80036; stroke-width: 1.0;" x1="422.5" x2="621" y1="573.9688" y2="573.9688"/><text fill="#000000" font-family="sans-serif" font-size="13" lengthAdjust="spacingAndGlyphs" textLength="173" x="429.5" y="569.5371">getVSSList(pageNo: int):List</text><polygon fill="#A80036" points="1151,599.2793,1161,603.2793,1151,607.2793,1155,603.2793" style="stroke: #A80036; stroke-width: 1.0;"/><line style="stroke: #A80036; stroke-width: 1.0;" x1="627" x2="1157" y1="603.2793" y2="603.2793"/><text fill="#000000" font-family="sans-serif" font-size="13" lengthAdjust="spacingAndGlyphs" textLength="202" x="634" y="598.8477">BrowseRequest(low:int, high:int)</text><polygon fill="#A80036" points="638,628.5898,628,632.5898,638,636.5898,634,632.5898" style="stroke: #A80036; stroke-width: 1.0;"/><line style="stroke: #A80036; stroke-width: 1.0; stroke-dasharray: 2.0,2.0;" x1="632" x2="1162" y1="632.5898" y2="632.5898"/><text fill="#000000" font-family="sans-serif" font-size="13" lengthAdjust="spacingAndGlyphs" textLength="176" x="644" y="628.1582">listOfOnlineVSS:List&lt;JSON&gt;</text><polygon fill="#A80036" points="433.5,657.9004,423.5,661.9004,433.5,665.9004,429.5,661.9004" style="stroke: #A80036; stroke-width: 1.0;"/><line style="stroke: #A80036; stroke-width: 1.0; stroke-dasharray: 2.0,2.0;" x1="427.5" x2="626" y1="661.9004" y2="661.9004"/><text fill="#000000" font-family="sans-serif" font-size="13" lengthAdjust="spacingAndGlyphs" textLength="180" x="439.5" y="657.4688">listOfOnlineVSS: List&lt;JSON&gt;</text><polygon fill="#A80036" points="213.5,687.2109,203.5,691.2109,213.5,695.2109,209.5,691.2109" style="stroke: #A80036; stroke-width: 1.0;"/><line style="stroke: #A80036; stroke-width: 1.0;" x1="207.5" x2="421.5" y1="691.2109" y2="691.2109"/><text fill="#000000" font-family="sans-serif" font-size="13" lengthAdjust="spacingAndGlyphs" textLength="196" x="219.5" y="686.7793">displayVSSList(listOfOnlineVSS)</text><line style="stroke: #000000; stroke-width: 1.0; stroke-dasharray: 2.0,2.0;" x1="13" x2="1153" y1="700.5215" y2="700.5215"/><text fill="#000000" font-family="sans-serif" font-size="11" font-weight="bold" lengthAdjust="spacingAndGlyphs" textLength="59" x="18" y="711.1563">[prevPage]</text><polygon fill="#A80036" points="615,731.4766,625,735.4766,615,739.4766,619,735.4766" style="stroke: #A80036; stroke-width: 1.0;"/><line style="stroke: #A80036; stroke-width: 1.0;" x1="422.5" x2="621" y1="735.4766" y2="735.4766"/><text fill="#000000" font-family="sans-serif" font-size="13" lengthAdjust="spacingAndGlyphs" textLength="173" x="429.5" y="731.0449">getVSSList(pageNo: int):List</text><polygon fill="#A80036" points="1151,760.7871,1161,764.7871,1151,768.7871,1155,764.7871" style="stroke: #A80036; stroke-width: 1.0;"/><line style="stroke: #A80036; stroke-width: 1.0;" x1="627" x2="1157" y1="764.7871" y2="764.7871"/><text fill="#000000" font-family="sans-serif" font-size="13" lengthAdjust="spacingAndGlyphs" textLength="202" x="634" y="760.3555">BrowseRequest(low:int, high:int)</text><polygon fill="#A80036" points="638,790.0977,628,794.0977,638,798.0977,634,794.0977" style="stroke: #A80036; stroke-width: 1.0;"/><line style="stroke: #A80036; stroke-width: 1.0; stroke-dasharray: 2.0,2.0;" x1="632" x2="1162" y1="794.0977" y2="794.0977"/><text fill="#000000" font-family="sans-serif" font-size="13" lengthAdjust="spacingAndGlyphs" textLength="176" x="644" y="789.666">listOfOnlineVSS:List&lt;JSON&gt;</text><polygon fill="#A80036" points="433.5,819.4082,423.5,823.4082,433.5,827.4082,429.5,823.4082" style="stroke: #A80036; stroke-width: 1.0;"/><line style="stroke: #A80036; stroke-width: 1.0; stroke-dasharray: 2.0,2.0;" x1="427.5" x2="626" y1="823.4082" y2="823.4082"/><text fill="#000000" font-family="sans-serif" font-size="13" lengthAdjust="spacingAndGlyphs" textLength="180" x="439.5" y="818.9766">listOfOnlineVSS: List&lt;JSON&gt;</text><polygon fill="#A80036" points="213.5,848.7188,203.5,852.7188,213.5,856.7188,209.5,852.7188" style="stroke: #A80036; stroke-width: 1.0;"/><line style="stroke: #A80036; stroke-width: 1.0;" x1="207.5" x2="421.5" y1="852.7188" y2="852.7188"/><text fill="#000000" font-family="sans-serif" font-size="13" lengthAdjust="spacingAndGlyphs" textLength="196" x="219.5" y="848.2871">displayVSSList(listOfOnlineVSS)</text><!--
@startuml Diagrams/BrowseOnlineVSSLibrary
hide footbox
skinparam sequenceParticipant underline

actor User as user
participant ":OnlineVSSViewerPage" as page
participant ":OnlineVSSLibraryControl" as control
participant ":OnlineSoundSpaceLibrary" as library



create page
[-> page: <<create>>
create control
page -> control: <<create>>
control -> library: getVSSList(pageNo: int):List
library->:BrowseRequest(low:int, high:int)
library<- -:listOfOnlineVSS:List<JSON>
library - -> control: listOfOnlineVSS: List<JSON>
control -> page: displayVSSList(listOfOnlineVSS)
alt previewVSS
    user -> page: previewVSS(whichVSS)
    page -> control: previewVSS(whichVSS)
    alt concert mode vss is selected
        participant ":PreviewOnlineConcertPage" as pocp
        create pocp
        control -> pocp: <<create>>
    else map mode vss is selected
        participant ":PreviewOnlineMapPage" as pomp
        create pomp
        control -> pomp: <<create>>

    end
else nextPage
    control -> library: getVSSList(pageNo: int):List
    library->:BrowseRequest(low:int, high:int)
    library<- -:listOfOnlineVSS:List<JSON>
    library - -> control: listOfOnlineVSS: List<JSON>
    control -> page: displayVSSList(listOfOnlineVSS)
else prevPage
    control -> library: getVSSList(pageNo: int):List
    library->:BrowseRequest(low:int, high:int)
    library<- -:listOfOnlineVSS:List<JSON>
    library - -> control: listOfOnlineVSS: List<JSON>
    control -> page: displayVSSList(listOfOnlineVSS)
end

@enduml

PlantUML version 1.2018.01(Mon Jan 29 02:08:22 CST 2018)
(GPL source distribution)
Java Runtime: Java(TM) SE Runtime Environment
JVM: Java HotSpot(TM) 64-Bit Server VM
Java Version: 9+181
Operating System: Mac OS X
OS Version: 10.12.6
Default Encoding: UTF-8
Language: zh
Country: CN
--></g></svg>