<?xml version="1.0" encoding="UTF-8" standalone="no"?><svg xmlns="http://www.w3.org/2000/svg" xmlns:xlink="http://www.w3.org/1999/xlink" contentScriptType="application/ecmascript" contentStyleType="text/css" height="370px" preserveAspectRatio="none" style="width:1029px;height:370px;" version="1.1" viewBox="0 0 1029 370"
    width="1029px" zoomAndPan="magnify"><defs><filter height="300%" id="f179lnf9vl2g7z" width="300%" x="-1" y="-1"><feGaussianBlur result="blurOut" stdDeviation="2.0"/><feColorMatrix in="blurOut" result="blurOut2" type="matrix" values="0 0 0 0 0 0 0 0 0 0 0 0 0 0 0 0 0 0 .4 0"/><feOffset dx="4.0" dy="4.0" in="blurOut2" result="blurOut3"/><feBlend in="SourceGraphic" in2="blurOut3" mode="normal"/></filter></defs><g><text fill="#000000" font-family="sans-serif" font-size="14" font-weight="bold" lengthAdjust="spacingAndGlyphs" textLength="126" x="452" y="23.5352">BrowseOnlineVSS</text><rect fill="#FEFECE" filter="url(#f179lnf9vl2g7z)" height="30.4883" style="stroke: #A80036; stroke-width: 1.5;" width="142" x="636" y="156.2871"/><text fill="#000000" font-family="sans-serif" font-size="14" lengthAdjust="spacingAndGlyphs" text-decoration="underline" textLength="128" x="643" y="176.8223">:WebServerControl</text><line style="stroke: #000000; stroke-width: 1.0;" x1="643" x2="771" y1="178.8223" y2="178.8223"/><line style="stroke: #A80036; stroke-width: 1.0; stroke-dasharray: 5.0,5.0;" x1="101" x2="101" y1="116.9766" y2="358.3281"/><line style="stroke: #A80036; stroke-width: 1.0; stroke-dasharray: 5.0,5.0;" x1="405" x2="405" y1="116.9766" y2="358.3281"/><line style="stroke: #A80036; stroke-width: 1.0; stroke-dasharray: 5.0,5.0;" x1="709" x2="709" y1="189.0313" y2="358.3281"/><line style="stroke: #A80036; stroke-width: 1.0; stroke-dasharray: 5.0,5.0;" x1="957" x2="957" y1="116.9766" y2="358.3281"/><text fill="#000000" font-family="sans-serif" font-size="14" lengthAdjust="spacingAndGlyphs" text-decoration="underline" textLength="180" x="8" y="114.0234">:OnlineSoundSpaceLibrary</text><line style="stroke: #000000; stroke-width: 1.0;" x1="8" x2="188" y1="116.0234" y2="116.0234"/><ellipse cx="101" cy="43.4883" fill="#FEFECE" filter="url(#f179lnf9vl2g7z)" rx="8" ry="8" style="stroke: #A80036; stroke-width: 2.0;"/><path d="M101,51.4883 L101,78.4883 M88,59.4883 L114,59.4883 M101,78.4883 L88,93.4883 M101,78.4883 L114,93.4883 " fill="none" filter="url(#f179lnf9vl2g7z)" style="stroke: #A80036; stroke-width: 2.0;"/><rect fill="#FEFECE" filter="url(#f179lnf9vl2g7z)" height="30.4883" style="stroke: #A80036; stroke-width: 1.5;" width="120" x="343" y="81.4883"/><text fill="#000000" font-family="sans-serif" font-size="14" lengthAdjust="spacingAndGlyphs" text-decoration="underline" textLength="106" x="350" y="102.0234">:Communicator</text><line style="stroke: #000000; stroke-width: 1.0;" x1="350" x2="456" y1="104.0234" y2="104.0234"/><rect fill="#FEFECE" filter="url(#f179lnf9vl2g7z)" height="30.4883" style="stroke: #A80036; stroke-width: 1.5;" width="126" x="892" y="81.4883"/><text fill="#000000" font-family="sans-serif" font-size="14" lengthAdjust="spacingAndGlyphs" text-decoration="underline" textLength="112" x="899" y="102.0234">:DatabaseHelper</text><line style="stroke: #000000; stroke-width: 1.0;" x1="899" x2="1011" y1="104.0234" y2="104.0234"/><polygon fill="#A80036" points="393,143.9766,403,147.9766,393,151.9766,397,147.9766" style="stroke: #A80036; stroke-width: 1.0;"/><line style="stroke: #A80036; stroke-width: 1.0;" x1="101" x2="399" y1="147.9766" y2="147.9766"/><text fill="#000000" font-family="sans-serif" font-size="13" lengthAdjust="spacingAndGlyphs" textLength="280" x="108" y="143.5449">BrowseRequest(low:int, high:int):List&lt;JSON&gt;</text><polygon fill="#A80036" points="624,173.2871,634,177.2871,624,181.2871,628,177.2871" style="stroke: #A80036; stroke-width: 1.0;"/><line style="stroke: #A80036; stroke-width: 1.0;" x1="405" x2="630" y1="177.2871" y2="177.2871"/><text fill="#000000" font-family="sans-serif" font-size="13" lengthAdjust="spacingAndGlyphs" textLength="78" x="412" y="172.8555">&lt;&lt;create&gt;&gt;</text><rect fill="#FEFECE" filter="url(#f179lnf9vl2g7z)" height="30.4883" style="stroke: #A80036; stroke-width: 1.5;" width="142" x="636" y="156.2871"/><text fill="#000000" font-family="sans-serif" font-size="14" lengthAdjust="spacingAndGlyphs" text-decoration="underline" textLength="128" x="643" y="176.8223">:WebServerControl</text><line style="stroke: #000000; stroke-width: 1.0;" x1="643" x2="771" y1="178.8223" y2="178.8223"/><polygon fill="#A80036" points="697,218.7754,707,222.7754,697,226.7754,701,222.7754" style="stroke: #A80036; stroke-width: 1.0;"/><line style="stroke: #A80036; stroke-width: 1.0;" x1="405" x2="703" y1="222.7754" y2="222.7754"/><text fill="#000000" font-family="sans-serif" font-size="13" lengthAdjust="spacingAndGlyphs" textLength="280" x="412" y="218.3438">BrowseRequest(low:int, high:int):List&lt;JSON&gt;</text><polygon fill="#A80036" points="945,248.0859,955,252.0859,945,256.0859,949,252.0859" style="stroke: #A80036; stroke-width: 1.0;"/><line style="stroke: #A80036; stroke-width: 1.0;" x1="709" x2="951" y1="252.0859" y2="252.0859"/><text fill="#000000" font-family="sans-serif" font-size="13" lengthAdjust="spacingAndGlyphs" textLength="224" x="716" y="247.6543">GetVSS(low:int, high:int):List&lt;Dict&gt;</text><polygon fill="#A80036" points="720,277.3965,710,281.3965,720,285.3965,716,281.3965" style="stroke: #A80036; stroke-width: 1.0;"/><line style="stroke: #A80036; stroke-width: 1.0; stroke-dasharray: 2.0,2.0;" x1="714" x2="956" y1="281.3965" y2="281.3965"/><text fill="#000000" font-family="sans-serif" font-size="13" lengthAdjust="spacingAndGlyphs" textLength="59" x="726" y="276.9648">VSSIDList</text><polygon fill="#A80036" points="416,306.707,406,310.707,416,314.707,412,310.707" style="stroke: #A80036; stroke-width: 1.0;"/><line style="stroke: #A80036; stroke-width: 1.0; stroke-dasharray: 2.0,2.0;" x1="410" x2="708" y1="310.707" y2="310.707"/><text fill="#000000" font-family="sans-serif" font-size="13" lengthAdjust="spacingAndGlyphs" textLength="98" x="422" y="306.2754">listOfOnlineVSS</text><line style="stroke: #A80036; stroke-width: 2.0;" x1="700" x2="718" y1="301.707" y2="319.707"/><line style="stroke: #A80036; stroke-width: 2.0;" x1="700" x2="718" y1="319.707" y2="301.707"/><polygon fill="#A80036" points="112,336.0176,102,340.0176,112,344.0176,108,340.0176" style="stroke: #A80036; stroke-width: 1.0;"/><line style="stroke: #A80036; stroke-width: 1.0; stroke-dasharray: 2.0,2.0;" x1="106" x2="404" y1="340.0176" y2="340.0176"/><text fill="#000000" font-family="sans-serif" font-size="13" lengthAdjust="spacingAndGlyphs" textLength="98" x="118" y="335.5859">listOfOnlineVSS</text><!--
@startuml Diagrams/BrowseOnlineVSSLibraryServer
title BrowseOnlineVSS
hide footbox
skinparam sequenceParticipant underline

actor ":OnlineSoundSpaceLibrary" as Client
participant ":Communicator" as Communicator
participant ":WebServerControl" as WebServer
participant ":DatabaseHelper" as VSSInformationDatabase

Client->Communicator:BrowseRequest(low:int, high:int):List<JSON>
create WebServer
Communicator->WebServer:<<create>>
Communicator->WebServer:BrowseRequest(low:int, high:int):List<JSON>
WebServer->VSSInformationDatabase:GetVSS(low:int, high:int):List<Dict>
VSSInformationDatabase- ->WebServer:VSSIDList
WebServer- ->Communicator:listOfOnlineVSS
destroy WebServer
Communicator- ->Client:listOfOnlineVSS
@enduml

PlantUML version 1.2018.01(Mon Jan 29 02:08:22 CST 2018)
(GPL source distribution)
Java Runtime: Java(TM) SE Runtime Environment
JVM: Java HotSpot(TM) 64-Bit Server VM
Java Version: 9+181
Operating System: Mac OS X
OS Version: 10.12.6
Default Encoding: UTF-8
Language: zh
Country: CN
--></g></svg>