<?xml version="1.0" encoding="UTF-8" standalone="no"?><svg xmlns="http://www.w3.org/2000/svg" xmlns:xlink="http://www.w3.org/1999/xlink" contentScriptType="application/ecmascript" contentStyleType="text/css" height="1218px" preserveAspectRatio="none" style="width:1382px;height:1218px;" version="1.1" viewBox="0 0 1382 1218"
    width="1382px" zoomAndPan="magnify"><defs><filter height="300%" id="f141jvxfe2my0a" width="300%" x="-1" y="-1"><feGaussianBlur result="blurOut" stdDeviation="2.0"/><feColorMatrix in="blurOut" result="blurOut2" type="matrix" values="0 0 0 0 0 0 0 0 0 0 0 0 0 0 0 0 0 0 .4 0"/><feOffset dx="4.0" dy="4.0" in="blurOut2" result="blurOut3"/><feBlend in="SourceGraphic" in2="blurOut3" mode="normal"/></filter></defs><g><rect fill="#FEFECE" filter="url(#f141jvxfe2my0a)" height="30.4883" style="stroke: #A80036; stroke-width: 1.5;" width="194" x="477.5" y="125.7988"/><text fill="#000000" font-family="sans-serif" font-size="14" lengthAdjust="spacingAndGlyphs" text-decoration="underline" textLength="180" x="484.5" y="146.334">:CreateConcertVSSControl</text><line style="stroke: #000000; stroke-width: 1.0;" x1="484.5" x2="664.5" y1="148.334" y2="148.334"/><rect fill="#FEFECE" filter="url(#f141jvxfe2my0a)" height="30.4883" style="stroke: #A80036; stroke-width: 1.5;" width="351" x="883.5" y="171.2871"/><text fill="#000000" font-family="sans-serif" font-size="14" lengthAdjust="spacingAndGlyphs" text-decoration="underline" textLength="337" x="890.5" y="191.8223">newSoundSpace:ConcertModeVirtualSoundSpace</text><line style="stroke: #000000; stroke-width: 1.0;" x1="890.5" x2="1227.5" y1="193.8223" y2="193.8223"/><rect fill="#FFFFFF" filter="url(#f141jvxfe2my0a)" height="701.2539" style="stroke: #000000; stroke-width: 2.0;" width="1358.5" x="13" y="223.7754"/><rect fill="#FFFFFF" filter="url(#f141jvxfe2my0a)" height="330.7051" style="stroke: #000000; stroke-width: 2.0;" width="860.5" x="23" y="248.0859"/><rect fill="#FFFFFF" height="85.2207" style="stroke: none; stroke-width: 1.0;" width="860.5" x="23" y="493.5703"/><rect fill="#FEFECE" filter="url(#f141jvxfe2my0a)" height="30.4883" style="stroke: #A80036; stroke-width: 1.5;" width="109" x="1248.5" y="628.1016"/><text fill="#000000" font-family="sans-serif" font-size="14" lengthAdjust="spacingAndGlyphs" text-decoration="underline" textLength="95" x="1255.5" y="648.6367">:SoundSource</text><line style="stroke: #000000; stroke-width: 1.0;" x1="1255.5" x2="1350.5" y1="650.6367" y2="650.6367"/><rect fill="#FFFFFF" filter="url(#f141jvxfe2my0a)" height="208.1289" style="stroke: #000000; stroke-width: 2.0;" width="1225.5" x="23" y="709.9004"/><rect fill="#FFFFFF" height="102.8867" style="stroke: none; stroke-width: 1.0;" width="1225.5" x="23" y="815.1426"/><rect fill="#FFFFFF" filter="url(#f141jvxfe2my0a)" height="162.5078" style="stroke: #000000; stroke-width: 2.0;" width="860.5" x="23" y="997.6504"/><rect fill="#FFFFFF" height="44.2656" style="stroke: none; stroke-width: 1.0;" width="860.5" x="23" y="1115.8926"/><line style="stroke: #A80036; stroke-width: 1.0;" x1="51" x2="51" y1="86.4883" y2="537.8359"/><line style="stroke: #A80036; stroke-width: 1.0; stroke-dasharray: 1.0,4.0;" x1="51" x2="51" y1="537.8359" y2="578.791"/><line style="stroke: #A80036; stroke-width: 1.0;" x1="51" x2="51" y1="578.791" y2="1206.4688"/><line style="stroke: #A80036; stroke-width: 1.0;" x1="322" x2="322" y1="86.4883" y2="537.8359"/><line style="stroke: #A80036; stroke-width: 1.0; stroke-dasharray: 1.0,4.0;" x1="322" x2="322" y1="537.8359" y2="578.791"/><line style="stroke: #A80036; stroke-width: 1.0;" x1="322" x2="322" y1="578.791" y2="1206.4688"/><line style="stroke: #A80036; stroke-width: 1.0;" x1="576.5" x2="576.5" y1="158.543" y2="537.8359"/><line style="stroke: #A80036; stroke-width: 1.0; stroke-dasharray: 1.0,4.0;" x1="576.5" x2="576.5" y1="537.8359" y2="578.791"/><line style="stroke: #A80036; stroke-width: 1.0;" x1="576.5" x2="576.5" y1="578.791" y2="1206.4688"/><line style="stroke: #A80036; stroke-width: 1.0;" x1="779.5" x2="779.5" y1="86.4883" y2="537.8359"/><line style="stroke: #A80036; stroke-width: 1.0; stroke-dasharray: 1.0,4.0;" x1="779.5" x2="779.5" y1="537.8359" y2="578.791"/><line style="stroke: #A80036; stroke-width: 1.0;" x1="779.5" x2="779.5" y1="578.791" y2="1206.4688"/><line style="stroke: #A80036; stroke-width: 1.0;" x1="1060.5" x2="1060.5" y1="204.0313" y2="537.8359"/><line style="stroke: #A80036; stroke-width: 1.0; stroke-dasharray: 1.0,4.0;" x1="1060.5" x2="1060.5" y1="537.8359" y2="578.791"/><line style="stroke: #A80036; stroke-width: 1.0;" x1="1060.5" x2="1060.5" y1="578.791" y2="1206.4688"/><line style="stroke: #A80036; stroke-width: 1.0;" x1="1304.5" x2="1304.5" y1="660.8457" y2="1206.4688"/><text fill="#000000" font-family="sans-serif" font-size="14" lengthAdjust="spacingAndGlyphs" text-decoration="underline" textLength="31" x="33" y="83.5352">User</text><line style="stroke: #000000; stroke-width: 1.0;" x1="33" x2="64" y1="85.5352" y2="85.5352"/><ellipse cx="51.5" cy="13" fill="#FEFECE" filter="url(#f141jvxfe2my0a)" rx="8" ry="8" style="stroke: #A80036; stroke-width: 2.0;"/><path d="M51.5,21 L51.5,48 M38.5,29 L64.5,29 M51.5,48 L38.5,63 M51.5,48 L64.5,63 " fill="none" filter="url(#f141jvxfe2my0a)" style="stroke: #A80036; stroke-width: 2.0;"/><rect fill="#FEFECE" filter="url(#f141jvxfe2my0a)" height="30.4883" style="stroke: #A80036; stroke-width: 1.5;" width="175" x="233" y="51"/><text fill="#000000" font-family="sans-serif" font-size="14" lengthAdjust="spacingAndGlyphs" text-decoration="underline" textLength="161" x="240" y="71.5352">:CreateConcertVSSPage</text><line style="stroke: #000000; stroke-width: 1.0;" x1="240" x2="401" y1="73.5352" y2="73.5352"/><rect fill="#FEFECE" filter="url(#f141jvxfe2my0a)" height="30.4883" style="stroke: #A80036; stroke-width: 1.5;" width="184" x="685.5" y="51"/><text fill="#000000" font-family="sans-serif" font-size="14" lengthAdjust="spacingAndGlyphs" text-decoration="underline" textLength="170" x="692.5" y="71.5352">:LocalSoundSpaceLibrary</text><line style="stroke: #000000; stroke-width: 1.0;" x1="692.5" x2="862.5" y1="73.5352" y2="73.5352"/><polygon fill="#A80036" points="310.5,113.4883,320.5,117.4883,310.5,121.4883,314.5,117.4883" style="stroke: #A80036; stroke-width: 1.0;"/><line style="stroke: #A80036; stroke-width: 1.0;" x1="3" x2="316.5" y1="117.4883" y2="117.4883"/><text fill="#000000" font-family="sans-serif" font-size="13" lengthAdjust="spacingAndGlyphs" textLength="78" x="10" y="113.0566">&lt;&lt;create&gt;&gt;</text><polygon fill="#A80036" points="465.5,142.7988,475.5,146.7988,465.5,150.7988,469.5,146.7988" style="stroke: #A80036; stroke-width: 1.0;"/><line style="stroke: #A80036; stroke-width: 1.0;" x1="322.5" x2="471.5" y1="146.7988" y2="146.7988"/><text fill="#000000" font-family="sans-serif" font-size="13" lengthAdjust="spacingAndGlyphs" textLength="78" x="329.5" y="142.3672">&lt;&lt;create&gt;&gt;</text><rect fill="#FEFECE" filter="url(#f141jvxfe2my0a)" height="30.4883" style="stroke: #A80036; stroke-width: 1.5;" width="194" x="477.5" y="125.7988"/><text fill="#000000" font-family="sans-serif" font-size="14" lengthAdjust="spacingAndGlyphs" text-decoration="underline" textLength="180" x="484.5" y="146.334">:CreateConcertVSSControl</text><line style="stroke: #000000; stroke-width: 1.0;" x1="484.5" x2="664.5" y1="148.334" y2="148.334"/><polygon fill="#A80036" points="871.5,188.2871,881.5,192.2871,871.5,196.2871,875.5,192.2871" style="stroke: #A80036; stroke-width: 1.0;"/><line style="stroke: #A80036; stroke-width: 1.0;" x1="322.5" x2="877.5" y1="192.2871" y2="192.2871"/><text fill="#000000" font-family="sans-serif" font-size="13" lengthAdjust="spacingAndGlyphs" textLength="78" x="329.5" y="187.8555">&lt;&lt;create&gt;&gt;</text><rect fill="#FEFECE" filter="url(#f141jvxfe2my0a)" height="30.4883" style="stroke: #A80036; stroke-width: 1.5;" width="351" x="883.5" y="171.2871"/><text fill="#000000" font-family="sans-serif" font-size="14" lengthAdjust="spacingAndGlyphs" text-decoration="underline" textLength="337" x="890.5" y="191.8223">newSoundSpace:ConcertModeVirtualSoundSpace</text><line style="stroke: #000000; stroke-width: 1.0;" x1="890.5" x2="1227.5" y1="193.8223" y2="193.8223"/><path d="M13,223.7754 L87,223.7754 L87,230.7754 L77,240.7754 L13,240.7754 L13,223.7754 " fill="#EEEEEE" style="stroke: #000000; stroke-width: 1.0;"/><rect fill="none" height="701.2539" style="stroke: #000000; stroke-width: 2.0;" width="1358.5" x="13" y="223.7754"/><text fill="#000000" font-family="sans-serif" font-size="13" font-weight="bold" lengthAdjust="spacingAndGlyphs" textLength="29" x="28" y="237.3438">loop</text><text fill="#000000" font-family="sans-serif" font-size="11" font-weight="bold" lengthAdjust="spacingAndGlyphs" textLength="144" x="102" y="236.4102">[add virual sound source]</text><path d="M23,248.0859 L85,248.0859 L85,255.0859 L75,265.0859 L23,265.0859 L23,248.0859 " fill="#EEEEEE" style="stroke: #000000; stroke-width: 1.0;"/><rect fill="none" height="330.7051" style="stroke: #000000; stroke-width: 2.0;" width="860.5" x="23" y="248.0859"/><text fill="#000000" font-family="sans-serif" font-size="13" font-weight="bold" lengthAdjust="spacingAndGlyphs" textLength="17" x="38" y="261.6543">alt</text><text fill="#000000" font-family="sans-serif" font-size="11" font-weight="bold" lengthAdjust="spacingAndGlyphs" textLength="101" x="100" y="260.7207">[add from library]</text><path d="M56,270.3965 L56,295.3965 L733,295.3965 L733,280.3965 L723,270.3965 L56,270.3965 " fill="#FBFB77" filter="url(#f141jvxfe2my0a)" style="stroke: #A80036; stroke-width: 1.0;"/><path d="M723,270.3965 L723,280.3965 L733,280.3965 L723,270.3965 " fill="#FBFB77" style="stroke: #A80036; stroke-width: 1.0;"/><text fill="#000000" font-family="sans-serif" font-size="13" lengthAdjust="spacingAndGlyphs" textLength="656" x="62" y="287.9648">Notice that there are no shared SoundSources here, each time, only the SoundFragment object is reused.</text><polygon fill="#A80036" points="310.5,321.707,320.5,325.707,310.5,329.707,314.5,325.707" style="stroke: #A80036; stroke-width: 1.0;"/><line style="stroke: #A80036; stroke-width: 1.0;" x1="51.5" x2="316.5" y1="325.707" y2="325.707"/><text fill="#000000" font-family="sans-serif" font-size="13" lengthAdjust="spacingAndGlyphs" textLength="247" x="58.5" y="321.2754">onAddFromLibraryButtonClicked(): void</text><polygon fill="#A80036" points="767.5,351.0176,777.5,355.0176,767.5,359.0176,771.5,355.0176" style="stroke: #A80036; stroke-width: 1.0;"/><line style="stroke: #A80036; stroke-width: 1.0;" x1="322.5" x2="773.5" y1="355.0176" y2="355.0176"/><text fill="#000000" font-family="sans-serif" font-size="13" lengthAdjust="spacingAndGlyphs" textLength="158" x="329.5" y="350.5859">getLocalSoundFragments</text><polygon fill="#A80036" points="333.5,380.3281,323.5,384.3281,333.5,388.3281,329.5,384.3281" style="stroke: #A80036; stroke-width: 1.0;"/><line style="stroke: #A80036; stroke-width: 1.0; stroke-dasharray: 2.0,2.0;" x1="327.5" x2="778.5" y1="384.3281" y2="384.3281"/><text fill="#000000" font-family="sans-serif" font-size="13" lengthAdjust="spacingAndGlyphs" textLength="150" x="339.5" y="379.8965">filteredSoundFragments</text><line style="stroke: #A80036; stroke-width: 1.0; stroke-dasharray: 2.0,2.0;" x1="322.5" x2="364.5" y1="413.9492" y2="413.9492"/><line style="stroke: #A80036; stroke-width: 1.0; stroke-dasharray: 2.0,2.0;" x1="364.5" x2="364.5" y1="413.9492" y2="426.9492"/><line style="stroke: #A80036; stroke-width: 1.0; stroke-dasharray: 2.0,2.0;" x1="323.5" x2="364.5" y1="426.9492" y2="426.9492"/><polygon fill="#A80036" points="333.5,422.9492,323.5,426.9492,333.5,430.9492,329.5,426.9492" style="stroke: #A80036; stroke-width: 1.0;"/><text fill="#000000" font-family="sans-serif" font-size="13" lengthAdjust="spacingAndGlyphs" textLength="240" x="329.5" y="409.207">displayAvailableLocalSoundFragments</text><polygon fill="#A80036" points="310.5,451.9492,320.5,455.9492,310.5,459.9492,314.5,455.9492" style="stroke: #A80036; stroke-width: 1.0;"/><line style="stroke: #A80036; stroke-width: 1.0;" x1="51.5" x2="316.5" y1="455.9492" y2="455.9492"/><text fill="#000000" font-family="sans-serif" font-size="13" lengthAdjust="spacingAndGlyphs" textLength="135" x="58.5" y="451.5176">selectSoundFragment</text><polygon fill="#A80036" points="564.5,481.2598,574.5,485.2598,564.5,489.2598,568.5,485.2598" style="stroke: #A80036; stroke-width: 1.0;"/><line style="stroke: #A80036; stroke-width: 1.0;" x1="322.5" x2="570.5" y1="485.2598" y2="485.2598"/><text fill="#000000" font-family="sans-serif" font-size="13" lengthAdjust="spacingAndGlyphs" textLength="121" x="329.5" y="480.8281">addSoundFragment</text><line style="stroke: #000000; stroke-width: 1.0; stroke-dasharray: 2.0,2.0;" x1="23" x2="883.5" y1="494.5703" y2="494.5703"/><text fill="#000000" font-family="sans-serif" font-size="11" font-weight="bold" lengthAdjust="spacingAndGlyphs" textLength="83" x="28" y="505.2051">[add from file]</text><polygon fill="#A80036" points="310.5,525.5254,320.5,529.5254,310.5,533.5254,314.5,529.5254" style="stroke: #A80036; stroke-width: 1.0;"/><line style="stroke: #A80036; stroke-width: 1.0;" x1="51.5" x2="316.5" y1="529.5254" y2="529.5254"/><text fill="#000000" font-family="sans-serif" font-size="13" lengthAdjust="spacingAndGlyphs" textLength="226" x="58.5" y="525.0938">onAddFromFileButtonClicked(): void</text><text fill="#000000" font-family="sans-serif" font-size="11" lengthAdjust="spacingAndGlyphs" textLength="500" x="428.25" y="562.4707">somehow CreateMapVSSControl got the new SoundFragment # specify during implementation</text><line style="stroke: #A80036; stroke-width: 1.0;" x1="51.5" x2="93.5" y1="607.1016" y2="607.1016"/><line style="stroke: #A80036; stroke-width: 1.0;" x1="93.5" x2="93.5" y1="607.1016" y2="620.1016"/><line style="stroke: #A80036; stroke-width: 1.0;" x1="52.5" x2="93.5" y1="620.1016" y2="620.1016"/><polygon fill="#A80036" points="62.5,616.1016,52.5,620.1016,62.5,624.1016,58.5,620.1016" style="stroke: #A80036; stroke-width: 1.0;"/><text fill="#000000" font-family="sans-serif" font-size="13" lengthAdjust="spacingAndGlyphs" textLength="80" x="58.5" y="602.3594">wakeUp(self)</text><polygon fill="#A80036" points="1236.5,645.1016,1246.5,649.1016,1236.5,653.1016,1240.5,649.1016" style="stroke: #A80036; stroke-width: 1.0;"/><line style="stroke: #A80036; stroke-width: 1.0;" x1="576.5" x2="1242.5" y1="649.1016" y2="649.1016"/><text fill="#000000" font-family="sans-serif" font-size="13" lengthAdjust="spacingAndGlyphs" textLength="78" x="583.5" y="644.6699">&lt;&lt;create&gt;&gt;</text><rect fill="#FEFECE" filter="url(#f141jvxfe2my0a)" height="30.4883" style="stroke: #A80036; stroke-width: 1.5;" width="109" x="1248.5" y="628.1016"/><text fill="#000000" font-family="sans-serif" font-size="14" lengthAdjust="spacingAndGlyphs" text-decoration="underline" textLength="95" x="1255.5" y="648.6367">:SoundSource</text><line style="stroke: #000000; stroke-width: 1.0;" x1="1255.5" x2="1350.5" y1="650.6367" y2="650.6367"/><polygon fill="#A80036" points="1293,690.5898,1303,694.5898,1293,698.5898,1297,694.5898" style="stroke: #A80036; stroke-width: 1.0;"/><line style="stroke: #A80036; stroke-width: 1.0;" x1="576.5" x2="1299" y1="694.5898" y2="694.5898"/><text fill="#000000" font-family="sans-serif" font-size="13" lengthAdjust="spacingAndGlyphs" textLength="117" x="583.5" y="690.1582">setSoundFragment</text><path d="M23,709.9004 L85,709.9004 L85,716.9004 L75,726.9004 L23,726.9004 L23,709.9004 " fill="#EEEEEE" style="stroke: #000000; stroke-width: 1.0;"/><rect fill="none" height="208.1289" style="stroke: #000000; stroke-width: 2.0;" width="1225.5" x="23" y="709.9004"/><text fill="#000000" font-family="sans-serif" font-size="13" font-weight="bold" lengthAdjust="spacingAndGlyphs" textLength="17" x="38" y="723.4688">alt</text><text fill="#000000" font-family="sans-serif" font-size="11" font-weight="bold" lengthAdjust="spacingAndGlyphs" textLength="53" x="100" y="722.5352">[confirm]</text><polygon fill="#A80036" points="310.5,744.2109,320.5,748.2109,310.5,752.2109,314.5,748.2109" style="stroke: #A80036; stroke-width: 1.0;"/><line style="stroke: #A80036; stroke-width: 1.0;" x1="51.5" x2="316.5" y1="748.2109" y2="748.2109"/><text fill="#000000" font-family="sans-serif" font-size="13" lengthAdjust="spacingAndGlyphs" textLength="103" x="58.5" y="743.7793">confirmAddition</text><polygon fill="#A80036" points="564.5,773.5215,574.5,777.5215,564.5,781.5215,568.5,777.5215" style="stroke: #A80036; stroke-width: 1.0;"/><line style="stroke: #A80036; stroke-width: 1.0;" x1="322.5" x2="570.5" y1="777.5215" y2="777.5215"/><text fill="#000000" font-family="sans-serif" font-size="13" lengthAdjust="spacingAndGlyphs" textLength="103" x="329.5" y="773.0898">confirmAddition</text><polygon fill="#A80036" points="1049,802.832,1059,806.832,1049,810.832,1053,806.832" style="stroke: #A80036; stroke-width: 1.0;"/><line style="stroke: #A80036; stroke-width: 1.0;" x1="576.5" x2="1055" y1="806.832" y2="806.832"/><text fill="#000000" font-family="sans-serif" font-size="13" lengthAdjust="spacingAndGlyphs" textLength="193" x="583.5" y="802.4004">addSoundSource(soundSource)</text><line style="stroke: #000000; stroke-width: 1.0; stroke-dasharray: 2.0,2.0;" x1="23" x2="1248.5" y1="816.1426" y2="816.1426"/><text fill="#000000" font-family="sans-serif" font-size="11" font-weight="bold" lengthAdjust="spacingAndGlyphs" textLength="43" x="28" y="826.7773">[cancel]</text><polygon fill="#A80036" points="310.5,847.0977,320.5,851.0977,310.5,855.0977,314.5,851.0977" style="stroke: #A80036; stroke-width: 1.0;"/><line style="stroke: #A80036; stroke-width: 1.0;" x1="51.5" x2="316.5" y1="851.0977" y2="851.0977"/><text fill="#000000" font-family="sans-serif" font-size="13" lengthAdjust="spacingAndGlyphs" textLength="94" x="58.5" y="846.666">cancelAddition</text><polygon fill="#A80036" points="564.5,876.4082,574.5,880.4082,564.5,884.4082,568.5,880.4082" style="stroke: #A80036; stroke-width: 1.0;"/><line style="stroke: #A80036; stroke-width: 1.0;" x1="322.5" x2="570.5" y1="880.4082" y2="880.4082"/><text fill="#000000" font-family="sans-serif" font-size="13" lengthAdjust="spacingAndGlyphs" textLength="103" x="329.5" y="875.9766">confirmAddition</text><polygon fill="#A80036" points="1049,905.7188,1059,909.7188,1049,913.7188,1053,909.7188" style="stroke: #A80036; stroke-width: 1.0;"/><line style="stroke: #A80036; stroke-width: 1.0;" x1="576.5" x2="1055" y1="909.7188" y2="909.7188"/><text fill="#000000" font-family="sans-serif" font-size="13" lengthAdjust="spacingAndGlyphs" textLength="87" x="583.5" y="905.2871">&lt;&lt;destroy&gt;&gt;</text><line style="stroke: #A80036; stroke-width: 2.0;" x1="1052" x2="1070" y1="900.7188" y2="918.7188"/><line style="stroke: #A80036; stroke-width: 2.0;" x1="1052" x2="1070" y1="918.7188" y2="900.7188"/><polygon fill="#A80036" points="310.5,949.0293,320.5,953.0293,310.5,957.0293,314.5,953.0293" style="stroke: #A80036; stroke-width: 1.0;"/><line style="stroke: #A80036; stroke-width: 1.0;" x1="51.5" x2="316.5" y1="953.0293" y2="953.0293"/><text fill="#000000" font-family="sans-serif" font-size="13" lengthAdjust="spacingAndGlyphs" textLength="175" x="58.5" y="948.5977">setVSSNameAndDescription</text><polygon fill="#A80036" points="1049,978.3398,1059,982.3398,1049,986.3398,1053,982.3398" style="stroke: #A80036; stroke-width: 1.0;"/><line style="stroke: #A80036; stroke-width: 1.0;" x1="322.5" x2="1055" y1="982.3398" y2="982.3398"/><text fill="#000000" font-family="sans-serif" font-size="13" lengthAdjust="spacingAndGlyphs" textLength="175" x="329.5" y="977.9082">setVSSNameAndDescription</text><path d="M23,997.6504 L85,997.6504 L85,1004.6504 L75,1014.6504 L23,1014.6504 L23,997.6504 " fill="#EEEEEE" style="stroke: #000000; stroke-width: 1.0;"/><rect fill="none" height="162.5078" style="stroke: #000000; stroke-width: 2.0;" width="860.5" x="23" y="997.6504"/><text fill="#000000" font-family="sans-serif" font-size="13" font-weight="bold" lengthAdjust="spacingAndGlyphs" textLength="17" x="38" y="1011.2188">alt</text><text fill="#000000" font-family="sans-serif" font-size="11" font-weight="bold" lengthAdjust="spacingAndGlyphs" textLength="53" x="100" y="1010.2852">[confirm]</text><polygon fill="#A80036" points="310.5,1031.9609,320.5,1035.9609,310.5,1039.9609,314.5,1035.9609" style="stroke: #A80036; stroke-width: 1.0;"/><line style="stroke: #A80036; stroke-width: 1.0;" x1="51.5" x2="316.5" y1="1035.9609" y2="1035.9609"/><text fill="#000000" font-family="sans-serif" font-size="13" lengthAdjust="spacingAndGlyphs" textLength="198" x="58.5" y="1031.5293">onConfirmButtonClicked(): void</text><line style="stroke: #A80036; stroke-width: 1.0;" x1="322.5" x2="364.5" y1="1065.582" y2="1065.582"/><line style="stroke: #A80036; stroke-width: 1.0;" x1="364.5" x2="364.5" y1="1065.582" y2="1078.582"/><line style="stroke: #A80036; stroke-width: 1.0;" x1="323.5" x2="364.5" y1="1078.582" y2="1078.582"/><polygon fill="#A80036" points="333.5,1074.582,323.5,1078.582,333.5,1082.582,329.5,1078.582" style="stroke: #A80036; stroke-width: 1.0;"/><text fill="#000000" font-family="sans-serif" font-size="13" lengthAdjust="spacingAndGlyphs" textLength="128" x="329.5" y="1060.8398">comfirmVSSCreation</text><polygon fill="#A80036" points="767.5,1103.582,777.5,1107.582,767.5,1111.582,771.5,1107.582" style="stroke: #A80036; stroke-width: 1.0;"/><line style="stroke: #A80036; stroke-width: 1.0;" x1="322.5" x2="773.5" y1="1107.582" y2="1107.582"/><text fill="#000000" font-family="sans-serif" font-size="13" lengthAdjust="spacingAndGlyphs" textLength="206" x="329.5" y="1103.1504">addSoundSpace(newSoundSpace)</text><line style="stroke: #000000; stroke-width: 1.0; stroke-dasharray: 2.0,2.0;" x1="23" x2="883.5" y1="1116.8926" y2="1116.8926"/><text fill="#000000" font-family="sans-serif" font-size="11" font-weight="bold" lengthAdjust="spacingAndGlyphs" textLength="43" x="28" y="1127.5273">[cancel]</text><polygon fill="#A80036" points="310.5,1147.8477,320.5,1151.8477,310.5,1155.8477,314.5,1151.8477" style="stroke: #A80036; stroke-width: 1.0;"/><line style="stroke: #A80036; stroke-width: 1.0;" x1="51.5" x2="316.5" y1="1151.8477" y2="1151.8477"/><text fill="#000000" font-family="sans-serif" font-size="13" lengthAdjust="spacingAndGlyphs" textLength="189" x="58.5" y="1147.416">onCancelButtonClicked(): void</text><polygon fill="#A80036" points="333.5,1184.1582,323.5,1188.1582,333.5,1192.1582,329.5,1188.1582" style="stroke: #A80036; stroke-width: 1.0;"/><line style="stroke: #A80036; stroke-width: 1.0;" x1="327.5" x2="575.5" y1="1188.1582" y2="1188.1582"/><text fill="#000000" font-family="sans-serif" font-size="13" lengthAdjust="spacingAndGlyphs" textLength="87" x="339.5" y="1183.7266">&lt;&lt;destroy&gt;&gt;</text><line style="stroke: #A80036; stroke-width: 2.0;" x1="313.5" x2="331.5" y1="1179.1582" y2="1197.1582"/><line style="stroke: #A80036; stroke-width: 2.0;" x1="313.5" x2="331.5" y1="1197.1582" y2="1179.1582"/><line style="stroke: #A80036; stroke-width: 2.0;" x1="567.5" x2="585.5" y1="1179.1582" y2="1197.1582"/><line style="stroke: #A80036; stroke-width: 2.0;" x1="567.5" x2="585.5" y1="1197.1582" y2="1179.1582"/><!--
@startuml Diagrams/CreateConcertModeVSS
hide footbox
skinparam sequenceParticipant underline


actor User as user
participant ":CreateConcertVSSPage" as createboundary
participant ":CreateConcertVSSControl" as createcontrol
participant ":LocalSoundSpaceLibrary" as library
participant "newSoundSpace:ConcertModeVirtualSoundSpace" as newspace

create createboundary
-> createboundary: <<create>>
create createcontrol
createboundary -> createcontrol: <<create>>
create newspace
createboundary -> newspace: <<create>>

loop add virual sound source
    alt add from library
        note right of user: Notice that there are no shared SoundSources here, each time, only the SoundFragment object is reused.
        user -> createboundary: onAddFromLibraryButtonClicked(): void
        createboundary -> library: getLocalSoundFragments
        library - -> createboundary: filteredSoundFragments
        createboundary - -> createboundary: displayAvailableLocalSoundFragments
        user -> createboundary: selectSoundFragment
        createboundary -> createcontrol: addSoundFragment
    else add from file
        user -> createboundary: onAddFromFileButtonClicked(): void
        ...somehow CreateMapVSSControl got the new SoundFragment # specify during implementation...
    end


    participant ":SoundSource" as source
    user -> user: wakeUp(self)
    create source
    createcontrol -> source: <<create>>
    createcontrol -> source: setSoundFragment
    alt confirm
        user -> createboundary: confirmAddition
        createboundary -> createcontrol: confirmAddition
        createcontrol -> newspace: addSoundSource(soundSource)
    else cancel
        user -> createboundary: cancelAddition
        createboundary -> createcontrol: confirmAddition
        createcontrol -> newspace: <<destroy>>
        destroy newspace
    end

end
user -> createboundary: setVSSNameAndDescription
createboundary -> newspace: setVSSNameAndDescription
alt confirm
    user -> createboundary: onConfirmButtonClicked(): void
    createboundary -> createboundary: comfirmVSSCreation
    createboundary -> library: addSoundSpace(newSoundSpace)
else cancel
    user -> createboundary: onCancelButtonClicked(): void
end
createcontrol -> createboundary: <<destroy>>
destroy createboundary
destroy createcontrol
@enduml

PlantUML version 1.2018.01(Mon Jan 29 02:08:22 CST 2018)
(GPL source distribution)
Java Runtime: Java(TM) SE Runtime Environment
JVM: Java HotSpot(TM) 64-Bit Server VM
Java Version: 9+181
Operating System: Mac OS X
OS Version: 10.12.6
Default Encoding: UTF-8
Language: zh
Country: CN
--></g></svg>