<?xml version="1.0" encoding="UTF-8" standalone="no"?><svg xmlns="http://www.w3.org/2000/svg" xmlns:xlink="http://www.w3.org/1999/xlink" contentScriptType="application/ecmascript" contentStyleType="text/css" height="407px" preserveAspectRatio="none" style="width:698px;height:407px;" version="1.1" viewBox="0 0 698 407"
    width="698px" zoomAndPan="magnify"><defs><filter height="300%" id="fi9v9quaev31x" width="300%" x="-1" y="-1"><feGaussianBlur result="blurOut" stdDeviation="2.0"/><feColorMatrix in="blurOut" result="blurOut2" type="matrix" values="0 0 0 0 0 0 0 0 0 0 0 0 0 0 0 0 0 0 .4 0"/><feOffset dx="4.0" dy="4.0" in="blurOut2" result="blurOut3"/><feBlend in="SourceGraphic" in2="blurOut3" mode="normal"/></filter></defs><g><rect fill="#FFFFFF" filter="url(#fi9v9quaev31x)" height="85.9316" style="stroke: #000000; stroke-width: 2.0;" width="626" x="61" y="233.7305"/><line style="stroke: #A80036; stroke-width: 1.0; stroke-dasharray: 5.0,5.0;" x1="26" x2="26" y1="86.4883" y2="395.2832"/><line style="stroke: #A80036; stroke-width: 1.0; stroke-dasharray: 5.0,5.0;" x1="133" x2="133" y1="86.4883" y2="395.2832"/><line style="stroke: #A80036; stroke-width: 1.0; stroke-dasharray: 5.0,5.0;" x1="282" x2="282" y1="86.4883" y2="395.2832"/><line style="stroke: #A80036; stroke-width: 1.0; stroke-dasharray: 5.0,5.0;" x1="472" x2="472" y1="86.4883" y2="395.2832"/><text fill="#000000" font-family="sans-serif" font-size="14" lengthAdjust="spacingAndGlyphs" text-decoration="underline" textLength="31" x="8" y="83.5352">User</text><line style="stroke: #000000; stroke-width: 1.0;" x1="8" x2="39" y1="85.5352" y2="85.5352"/><ellipse cx="26.5" cy="13" fill="#FEFECE" filter="url(#fi9v9quaev31x)" rx="8" ry="8" style="stroke: #A80036; stroke-width: 2.0;"/><path d="M26.5,21 L26.5,48 M13.5,29 L39.5,29 M26.5,48 L13.5,63 M26.5,48 L39.5,63 " fill="none" filter="url(#fi9v9quaev31x)" style="stroke: #A80036; stroke-width: 2.0;"/><rect fill="#FEFECE" filter="url(#fi9v9quaev31x)" height="30.4883" style="stroke: #A80036; stroke-width: 1.5;" width="103" x="80" y="51"/><text fill="#000000" font-family="sans-serif" font-size="14" lengthAdjust="spacingAndGlyphs" text-decoration="underline" textLength="89" x="87" y="71.5352">:PreviewPage</text><line style="stroke: #000000; stroke-width: 1.0;" x1="87" x2="176" y1="73.5352" y2="73.5352"/><rect fill="#FEFECE" filter="url(#fi9v9quaev31x)" height="30.4883" style="stroke: #A80036; stroke-width: 1.5;" width="167" x="197" y="51"/><text fill="#000000" font-family="sans-serif" font-size="14" lengthAdjust="spacingAndGlyphs" text-decoration="underline" textLength="153" x="204" y="71.5352">:PreviewOnlineControl</text><line style="stroke: #000000; stroke-width: 1.0;" x1="204" x2="357" y1="73.5352" y2="73.5352"/><rect fill="#FEFECE" filter="url(#fi9v9quaev31x)" height="30.4883" style="stroke: #A80036; stroke-width: 1.5;" width="184" x="378" y="51"/><text fill="#000000" font-family="sans-serif" font-size="14" lengthAdjust="spacingAndGlyphs" text-decoration="underline" textLength="170" x="385" y="71.5352">:LocalSoundSpaceLibrary</text><line style="stroke: #000000; stroke-width: 1.0;" x1="385" x2="555" y1="73.5352" y2="73.5352"/><polygon fill="#A80036" points="121.5,113.4883,131.5,117.4883,121.5,121.4883,125.5,117.4883" style="stroke: #A80036; stroke-width: 1.0;"/><line style="stroke: #A80036; stroke-width: 1.0;" x1="26.5" x2="127.5" y1="117.4883" y2="117.4883"/><text fill="#000000" font-family="sans-serif" font-size="13" lengthAdjust="spacingAndGlyphs" textLength="83" x="33.5" y="113.0566">downloadVSS</text><polygon fill="#A80036" points="270.5,142.7988,280.5,146.7988,270.5,150.7988,274.5,146.7988" style="stroke: #A80036; stroke-width: 1.0;"/><line style="stroke: #A80036; stroke-width: 1.0;" x1="133.5" x2="276.5" y1="146.7988" y2="146.7988"/><text fill="#000000" font-family="sans-serif" font-size="13" lengthAdjust="spacingAndGlyphs" textLength="83" x="140.5" y="142.3672">downloadVSS</text><polygon fill="#A80036" points="460,172.1094,470,176.1094,460,180.1094,464,176.1094" style="stroke: #A80036; stroke-width: 1.0;"/><line style="stroke: #A80036; stroke-width: 1.0;" x1="282.5" x2="466" y1="176.1094" y2="176.1094"/><text fill="#000000" font-family="sans-serif" font-size="13" lengthAdjust="spacingAndGlyphs" textLength="137" x="289.5" y="171.6777">downloadVSS(thisVSS)</text><line style="stroke: #A80036; stroke-width: 1.0;" x1="472" x2="514" y1="205.7305" y2="205.7305"/><line style="stroke: #A80036; stroke-width: 1.0;" x1="514" x2="514" y1="205.7305" y2="218.7305"/><line style="stroke: #A80036; stroke-width: 1.0;" x1="473" x2="514" y1="218.7305" y2="218.7305"/><polygon fill="#A80036" points="483,214.7305,473,218.7305,483,222.7305,479,218.7305" style="stroke: #A80036; stroke-width: 1.0;"/><text fill="#000000" font-family="sans-serif" font-size="13" lengthAdjust="spacingAndGlyphs" textLength="201" x="479" y="200.9883">GetVSSID(thisVSS):list&lt;SFHash&gt;</text><path d="M61,233.7305 L135,233.7305 L135,240.7305 L125,250.7305 L61,250.7305 L61,233.7305 " fill="#EEEEEE" style="stroke: #000000; stroke-width: 1.0;"/><rect fill="none" height="85.9316" style="stroke: #000000; stroke-width: 2.0;" width="626" x="61" y="233.7305"/><text fill="#000000" font-family="sans-serif" font-size="13" font-weight="bold" lengthAdjust="spacingAndGlyphs" textLength="29" x="76" y="247.2988">loop</text><text fill="#000000" font-family="sans-serif" font-size="11" font-weight="bold" lengthAdjust="spacingAndGlyphs" textLength="100" x="150" y="246.3652">[list is not empty]</text><polygon fill="#A80036" points="675,273.041,685,277.041,675,281.041,679,277.041" style="stroke: #A80036; stroke-width: 1.0;"/><line style="stroke: #A80036; stroke-width: 1.0;" x1="472" x2="681" y1="277.041" y2="277.041"/><text fill="#000000" font-family="sans-serif" font-size="13" lengthAdjust="spacingAndGlyphs" textLength="167" x="479" y="272.6094">DownloadRequest(SFHash)</text><path d="M71,256.041 L71,281.041 L463,281.041 L463,266.041 L453,256.041 L71,256.041 " fill="#FBFB77" filter="url(#fi9v9quaev31x)" style="stroke: #A80036; stroke-width: 1.0;"/><path d="M453,256.041 L453,266.041 L463,266.041 L453,256.041 " fill="#FBFB77" style="stroke: #A80036; stroke-width: 1.0;"/><text fill="#000000" font-family="sans-serif" font-size="13" lengthAdjust="spacingAndGlyphs" textLength="371" x="77" y="273.6094">每完成一个SF的下载便从&#8;任务列表中pop出这个SF对应的SFHash</text><polygon fill="#A80036" points="483,307.3516,473,311.3516,483,315.3516,479,311.3516" style="stroke: #A80036; stroke-width: 1.0;"/><line style="stroke: #A80036; stroke-width: 1.0; stroke-dasharray: 2.0,2.0;" x1="477" x2="686" y1="311.3516" y2="311.3516"/><text fill="#000000" font-family="sans-serif" font-size="13" lengthAdjust="spacingAndGlyphs" textLength="14" x="489" y="306.9199">SF</text><polygon fill="#A80036" points="293.5,343.6621,283.5,347.6621,293.5,351.6621,289.5,347.6621" style="stroke: #A80036; stroke-width: 1.0;"/><line style="stroke: #A80036; stroke-width: 1.0; stroke-dasharray: 2.0,2.0;" x1="287.5" x2="471" y1="347.6621" y2="347.6621"/><text fill="#000000" font-family="sans-serif" font-size="13" lengthAdjust="spacingAndGlyphs" textLength="60" x="299.5" y="343.2305">Response</text><polygon fill="#A80036" points="144.5,372.9727,134.5,376.9727,144.5,380.9727,140.5,376.9727" style="stroke: #A80036; stroke-width: 1.0;"/><line style="stroke: #A80036; stroke-width: 1.0; stroke-dasharray: 2.0,2.0;" x1="138.5" x2="281.5" y1="376.9727" y2="376.9727"/><text fill="#000000" font-family="sans-serif" font-size="13" lengthAdjust="spacingAndGlyphs" textLength="60" x="150.5" y="372.541">Response</text><!--
@startuml Diagrams/DownloadVSS
hide footbox
skinparam sequenceParticipant underline
actor User as user
participant ":PreviewPage" as page
participant ":PreviewOnlineControl" as control
participant ":LocalSoundSpaceLibrary" as library
user -> page: downloadVSS
page -> control: downloadVSS
control -> library: downloadVSS(thisVSS)
library->library:GetVSSID(thisVSS):list<SFHash>
loop list is not empty
  library->:DownloadRequest(SFHash)
  note left: 每完成一个SF的下载便从任务列表中pop出这个SF对应的SFHash
  library<- -:SF
end
library- ->control:Response
control- ->page:Response


@enduml

PlantUML version 1.2018.01(Mon Jan 29 02:08:22 CST 2018)
(GPL source distribution)
Java Runtime: Java(TM) SE Runtime Environment
JVM: Java HotSpot(TM) 64-Bit Server VM
Java Version: 9+181
Operating System: Mac OS X
OS Version: 10.12.6
Default Encoding: UTF-8
Language: zh
Country: CN
--></g></svg>