<?xml version="1.0" encoding="UTF-8" standalone="no"?><svg xmlns="http://www.w3.org/2000/svg" xmlns:xlink="http://www.w3.org/1999/xlink" contentScriptType="application/ecmascript" contentStyleType="text/css" height="522px" preserveAspectRatio="none" style="width:1197px;height:522px;" version="1.1" viewBox="0 0 1197 522"
    width="1197px" zoomAndPan="magnify"><defs><filter height="300%" id="fdrh6v0jcut7w" width="300%" x="-1" y="-1"><feGaussianBlur result="blurOut" stdDeviation="2.0"/><feColorMatrix in="blurOut" result="blurOut2" type="matrix" values="0 0 0 0 0 0 0 0 0 0 0 0 0 0 0 0 0 0 .4 0"/><feOffset dx="4.0" dy="4.0" in="blurOut2" result="blurOut3"/><feBlend in="SourceGraphic" in2="blurOut3" mode="normal"/></filter></defs><g><text fill="#000000" font-family="sans-serif" font-size="14" font-weight="bold" lengthAdjust="spacingAndGlyphs" textLength="40" x="579" y="23.5352">Login</text><rect fill="#FEFECE" filter="url(#fdrh6v0jcut7w)" height="30.4883" style="stroke: #A80036; stroke-width: 1.5;" width="142" x="724" y="156.2871"/><text fill="#000000" font-family="sans-serif" font-size="14" lengthAdjust="spacingAndGlyphs" text-decoration="underline" textLength="128" x="731" y="176.8223">:WebServerControl</text><line style="stroke: #000000; stroke-width: 1.0;" x1="731" x2="859" y1="178.8223" y2="178.8223"/><rect fill="#FFFFFF" filter="url(#fdrh6v0jcut7w)" height="208.1289" style="stroke: #000000; stroke-width: 2.0;" width="1172" x="13" y="267.3965"/><rect fill="#FFFFFF" height="102.8867" style="stroke: none; stroke-width: 1.0;" width="1172" x="13" y="372.6387"/><line style="stroke: #A80036; stroke-width: 1.0; stroke-dasharray: 5.0,5.0;" x1="83" x2="83" y1="116.9766" y2="510.5254"/><line style="stroke: #A80036; stroke-width: 1.0; stroke-dasharray: 5.0,5.0;" x1="440" x2="440" y1="116.9766" y2="510.5254"/><line style="stroke: #A80036; stroke-width: 1.0; stroke-dasharray: 5.0,5.0;" x1="797" x2="797" y1="189.0313" y2="510.5254"/><line style="stroke: #A80036; stroke-width: 1.0; stroke-dasharray: 5.0,5.0;" x1="1110" x2="1110" y1="116.9766" y2="510.5254"/><text fill="#000000" font-family="sans-serif" font-size="14" lengthAdjust="spacingAndGlyphs" text-decoration="underline" textLength="114" x="23" y="114.0234">:UserInfoControl</text><line style="stroke: #000000; stroke-width: 1.0;" x1="23" x2="137" y1="116.0234" y2="116.0234"/><ellipse cx="83" cy="43.4883" fill="#FEFECE" filter="url(#fdrh6v0jcut7w)" rx="8" ry="8" style="stroke: #A80036; stroke-width: 2.0;"/><path d="M83,51.4883 L83,78.4883 M70,59.4883 L96,59.4883 M83,78.4883 L70,93.4883 M83,78.4883 L96,93.4883 " fill="none" filter="url(#fdrh6v0jcut7w)" style="stroke: #A80036; stroke-width: 2.0;"/><rect fill="#FEFECE" filter="url(#fdrh6v0jcut7w)" height="30.4883" style="stroke: #A80036; stroke-width: 1.5;" width="120" x="378" y="81.4883"/><text fill="#000000" font-family="sans-serif" font-size="14" lengthAdjust="spacingAndGlyphs" text-decoration="underline" textLength="106" x="385" y="102.0234">:Communicator</text><line style="stroke: #000000; stroke-width: 1.0;" x1="385" x2="491" y1="104.0234" y2="104.0234"/><rect fill="#FEFECE" filter="url(#fdrh6v0jcut7w)" height="30.4883" style="stroke: #A80036; stroke-width: 1.5;" width="126" x="1045" y="81.4883"/><text fill="#000000" font-family="sans-serif" font-size="14" lengthAdjust="spacingAndGlyphs" text-decoration="underline" textLength="112" x="1052" y="102.0234">:DatabaseHelper</text><line style="stroke: #000000; stroke-width: 1.0;" x1="1052" x2="1164" y1="104.0234" y2="104.0234"/><polygon fill="#A80036" points="428,143.9766,438,147.9766,428,151.9766,432,147.9766" style="stroke: #A80036; stroke-width: 1.0;"/><line style="stroke: #A80036; stroke-width: 1.0;" x1="83" x2="434" y1="147.9766" y2="147.9766"/><text fill="#000000" font-family="sans-serif" font-size="13" lengthAdjust="spacingAndGlyphs" textLength="333" x="90" y="143.5449">LoginRequest(username: String, password: String):int</text><polygon fill="#A80036" points="712,173.2871,722,177.2871,712,181.2871,716,177.2871" style="stroke: #A80036; stroke-width: 1.0;"/><line style="stroke: #A80036; stroke-width: 1.0;" x1="440" x2="718" y1="177.2871" y2="177.2871"/><text fill="#000000" font-family="sans-serif" font-size="13" lengthAdjust="spacingAndGlyphs" textLength="78" x="447" y="172.8555">&lt;&lt;create&gt;&gt;</text><rect fill="#FEFECE" filter="url(#fdrh6v0jcut7w)" height="30.4883" style="stroke: #A80036; stroke-width: 1.5;" width="142" x="724" y="156.2871"/><text fill="#000000" font-family="sans-serif" font-size="14" lengthAdjust="spacingAndGlyphs" text-decoration="underline" textLength="128" x="731" y="176.8223">:WebServerControl</text><line style="stroke: #000000; stroke-width: 1.0;" x1="731" x2="859" y1="178.8223" y2="178.8223"/><polygon fill="#A80036" points="785,218.7754,795,222.7754,785,226.7754,789,222.7754" style="stroke: #A80036; stroke-width: 1.0;"/><line style="stroke: #A80036; stroke-width: 1.0;" x1="440" x2="791" y1="222.7754" y2="222.7754"/><text fill="#000000" font-family="sans-serif" font-size="13" lengthAdjust="spacingAndGlyphs" textLength="333" x="447" y="218.3438">LoginRequest(username: String, password: String):int</text><polygon fill="#A80036" points="1098,248.0859,1108,252.0859,1098,256.0859,1102,252.0859" style="stroke: #A80036; stroke-width: 1.0;"/><line style="stroke: #A80036; stroke-width: 1.0;" x1="797" x2="1104" y1="252.0859" y2="252.0859"/><text fill="#000000" font-family="sans-serif" font-size="13" lengthAdjust="spacingAndGlyphs" textLength="289" x="804" y="247.6543">Search(username: String, password: String):int</text><path d="M13,267.3965 L75,267.3965 L75,274.3965 L65,284.3965 L13,284.3965 L13,267.3965 " fill="#EEEEEE" style="stroke: #000000; stroke-width: 1.0;"/><rect fill="none" height="208.1289" style="stroke: #000000; stroke-width: 2.0;" width="1172" x="13" y="267.3965"/><text fill="#000000" font-family="sans-serif" font-size="13" font-weight="bold" lengthAdjust="spacingAndGlyphs" textLength="17" x="28" y="280.9648">alt</text><text fill="#000000" font-family="sans-serif" font-size="11" font-weight="bold" lengthAdjust="spacingAndGlyphs" textLength="35" x="90" y="280.0313">[Exist]</text><polygon fill="#A80036" points="808,301.707,798,305.707,808,309.707,804,305.707" style="stroke: #A80036; stroke-width: 1.0;"/><line style="stroke: #A80036; stroke-width: 1.0; stroke-dasharray: 2.0,2.0;" x1="802" x2="1109" y1="305.707" y2="305.707"/><text fill="#000000" font-family="sans-serif" font-size="13" lengthAdjust="spacingAndGlyphs" textLength="42" x="814" y="301.2754">UserID</text><polygon fill="#A80036" points="451,331.0176,441,335.0176,451,339.0176,447,335.0176" style="stroke: #A80036; stroke-width: 1.0;"/><line style="stroke: #A80036; stroke-width: 1.0; stroke-dasharray: 2.0,2.0;" x1="445" x2="796" y1="335.0176" y2="335.0176"/><text fill="#000000" font-family="sans-serif" font-size="13" lengthAdjust="spacingAndGlyphs" textLength="42" x="457" y="330.5859">UserID</text><polygon fill="#A80036" points="94,360.3281,84,364.3281,94,368.3281,90,364.3281" style="stroke: #A80036; stroke-width: 1.0;"/><line style="stroke: #A80036; stroke-width: 1.0; stroke-dasharray: 2.0,2.0;" x1="88" x2="439" y1="364.3281" y2="364.3281"/><text fill="#000000" font-family="sans-serif" font-size="13" lengthAdjust="spacingAndGlyphs" textLength="42" x="100" y="359.8965">UserID</text><line style="stroke: #000000; stroke-width: 1.0; stroke-dasharray: 2.0,2.0;" x1="13" x2="1185" y1="373.6387" y2="373.6387"/><text fill="#000000" font-family="sans-serif" font-size="11" font-weight="bold" lengthAdjust="spacingAndGlyphs" textLength="54" x="18" y="384.2734">[NotExist]</text><polygon fill="#A80036" points="808,404.5938,798,408.5938,808,412.5938,804,408.5938" style="stroke: #A80036; stroke-width: 1.0;"/><line style="stroke: #A80036; stroke-width: 1.0; stroke-dasharray: 2.0,2.0;" x1="802" x2="1109" y1="408.5938" y2="408.5938"/><text fill="#000000" font-family="sans-serif" font-size="13" lengthAdjust="spacingAndGlyphs" textLength="42" x="814" y="404.1621">UserID</text><polygon fill="#A80036" points="451,433.9043,441,437.9043,451,441.9043,447,437.9043" style="stroke: #A80036; stroke-width: 1.0;"/><line style="stroke: #A80036; stroke-width: 1.0; stroke-dasharray: 2.0,2.0;" x1="445" x2="796" y1="437.9043" y2="437.9043"/><text fill="#000000" font-family="sans-serif" font-size="13" lengthAdjust="spacingAndGlyphs" textLength="42" x="457" y="433.4727">UserID</text><polygon fill="#A80036" points="94,463.2148,84,467.2148,94,471.2148,90,467.2148" style="stroke: #A80036; stroke-width: 1.0;"/><line style="stroke: #A80036; stroke-width: 1.0; stroke-dasharray: 2.0,2.0;" x1="88" x2="439" y1="467.2148" y2="467.2148"/><text fill="#000000" font-family="sans-serif" font-size="13" lengthAdjust="spacingAndGlyphs" textLength="42" x="100" y="462.7832">UserID</text><line style="stroke: #A80036; stroke-width: 2.0;" x1="788" x2="806" y1="482.5254" y2="500.5254"/><line style="stroke: #A80036; stroke-width: 2.0;" x1="788" x2="806" y1="500.5254" y2="482.5254"/><!--
@startuml Diagrams/LoginServerSequenceDiagram.svg
hide footbox
title Login
skinparam sequenceParticipant underline
actor ":UserInfoControl" as Client
participant ":Communicator" as Communicator
participant ":WebServerControl" as WebServer
participant ":DatabaseHelper" as UserDatabase
Client->Communicator:LoginRequest(username: String, password: String):int
create WebServer
Communicator->WebServer:<<create>>
Communicator->WebServer:LoginRequest(username: String, password: String):int
WebServer->UserDatabase:Search(username: String, password: String):int
alt Exist
  UserDatabase- ->WebServer:UserID
  WebServer- ->Communicator:UserID
  Communicator- ->Client:UserID
else NotExist
  UserDatabase- ->WebServer:UserID
  WebServer- ->Communicator:UserID
  Communicator- ->Client:UserID
end
destroy WebServer
@enduml

PlantUML version 1.2018.01(Mon Jan 29 02:08:22 CST 2018)
(GPL source distribution)
Java Runtime: Java(TM) SE Runtime Environment
JVM: Java HotSpot(TM) 64-Bit Server VM
Java Version: 9+181
Operating System: Mac OS X
OS Version: 10.12.6
Default Encoding: UTF-8
Language: zh
Country: CN
--></g></svg>