<?xml version="1.0" encoding="UTF-8" standalone="no"?><svg xmlns="http://www.w3.org/2000/svg" xmlns:xlink="http://www.w3.org/1999/xlink" contentScriptType="application/ecmascript" contentStyleType="text/css" height="292px" preserveAspectRatio="none" style="width:154px;height:292px;" version="1.1" viewBox="0 0 154 292" width="154px" zoomAndPan="magnify"><defs/><g><text fill="#000000" font-family="sans-serif" font-size="12" lengthAdjust="spacingAndGlyphs" textLength="138" x="6" y="17.6016">User's LocalVSSManager</text><line style="stroke: #AAAAAA; stroke-width: 1.0;" x1="6" x2="147" y1="24.6328" y2="24.6328"/><line style="stroke: #AAAAAA; stroke-width: 1.0;" x1="6" x2="147" y1="26.6328" y2="26.6328"/><text fill="#000000" font-family="sans-serif" font-size="12" font-weight="bold" lengthAdjust="spacingAndGlyphs" textLength="54" x="8" y="41.7344">LocalVSS</text><line style="stroke: #000000; stroke-width: 1.0;" x1="6" x2="6" y1="30.1328" y2="44.2656"/><line style="stroke: #000000; stroke-width: 1.0;" x1="6" x2="65" y1="30.1328" y2="30.1328"/><line style="stroke: #000000; stroke-width: 1.0;" x1="65" x2="65" y1="30.1328" y2="44.2656"/><line style="stroke: #000000; stroke-width: 1.0;" x1="65" x2="75" y1="44.2656" y2="44.2656"/><text fill="#000000" font-family="sans-serif" font-size="12" lengthAdjust="spacingAndGlyphs" textLength="56" x="77" y="41.7344">OnlineVSS</text><line style="stroke: #000000; stroke-width: 1.0;" x1="75" x2="75" y1="30.1328" y2="44.2656"/><line style="stroke: #000000; stroke-width: 1.0;" x1="75" x2="136" y1="30.1328" y2="30.1328"/><line style="stroke: #000000; stroke-width: 1.0;" x1="136" x2="136" y1="30.1328" y2="44.2656"/><line style="stroke: #000000; stroke-width: 1.0;" x1="136" x2="146" y1="44.2656" y2="44.2656"/><text fill="#000000" font-family="sans-serif" font-size="12" lengthAdjust="spacingAndGlyphs" textLength="50" x="7" y="58.8672">VSS1.vss</text><line style="stroke: #AAAAAA; stroke-width: 1.0;" x1="7" x2="81" y1="66.8984" y2="66.8984"/><text fill="#000000" font-family="sans-serif" font-size="12" lengthAdjust="spacingAndGlyphs" textLength="73" x="7" y="83">Description1</text><rect fill="#EEEEEE" height="18.1328" rx="5" ry="5" style="stroke: #000000; stroke-width: 2.5;" width="52" x="9.5" y="90.0313"/><text fill="#000000" font-family="sans-serif" font-size="12" lengthAdjust="spacingAndGlyphs" textLength="37" x="17" y="103.6328">Delete</text><rect fill="#EEEEEE" height="18.1328" rx="5" ry="5" style="stroke: #000000; stroke-width: 2.5;" width="52" x="84.5" y="90.0313"/><text fill="#000000" font-family="sans-serif" font-size="12" lengthAdjust="spacingAndGlyphs" textLength="47" x="87" y="103.6328">Rename</text><rect fill="#EEEEEE" height="18.1328" rx="5" ry="5" style="stroke: #000000; stroke-width: 2.5;" width="60" x="9.5" y="115.1641"/><text fill="#000000" font-family="sans-serif" font-size="12" lengthAdjust="spacingAndGlyphs" textLength="44" x="17.5" y="128.7656">Preview</text><rect fill="#EEEEEE" height="18.1328" rx="5" ry="5" style="stroke: #000000; stroke-width: 2.5;" width="52" x="84.5" y="115.1641"/><text fill="#000000" font-family="sans-serif" font-size="12" lengthAdjust="spacingAndGlyphs" textLength="41" x="90" y="128.7656">Upload</text><line style="stroke: #000000; stroke-width: 1.0;" x1="6" x2="81" y1="46.2656" y2="46.2656"/><line style="stroke: #000000; stroke-width: 1.0;" x1="81" x2="140" y1="46.2656" y2="46.2656"/><line style="stroke: #000000; stroke-width: 1.0;" x1="6" x2="81" y1="136.7969" y2="136.7969"/><line style="stroke: #000000; stroke-width: 1.0;" x1="81" x2="140" y1="136.7969" y2="136.7969"/><line style="stroke: #000000; stroke-width: 1.0;" x1="6" x2="6" y1="46.2656" y2="62.3984"/><line style="stroke: #000000; stroke-width: 1.0;" x1="140" x2="140" y1="70.3984" y2="86.5313"/><line style="stroke: #000000; stroke-width: 1.0;" x1="140" x2="140" y1="62.3984" y2="70.3984"/><line style="stroke: #000000; stroke-width: 1.0;" x1="140" x2="140" y1="46.2656" y2="62.3984"/><line style="stroke: #000000; stroke-width: 1.0;" x1="6" x2="6" y1="111.6641" y2="136.7969"/><line style="stroke: #000000; stroke-width: 1.0;" x1="6" x2="6" y1="86.5313" y2="111.6641"/><line style="stroke: #000000; stroke-width: 1.0;" x1="6" x2="6" y1="70.3984" y2="86.5313"/><line style="stroke: #000000; stroke-width: 1.0;" x1="140" x2="140" y1="111.6641" y2="136.7969"/><line style="stroke: #000000; stroke-width: 1.0;" x1="6" x2="6" y1="62.3984" y2="70.3984"/><line style="stroke: #000000; stroke-width: 1.0;" x1="140" x2="140" y1="86.5313" y2="111.6641"/><text fill="#000000" font-family="sans-serif" font-size="12" lengthAdjust="spacingAndGlyphs" textLength="50" x="7" y="151.3984">VSS2.vss</text><line style="stroke: #AAAAAA; stroke-width: 1.0;" x1="7" x2="81" y1="159.4297" y2="159.4297"/><text fill="#000000" font-family="sans-serif" font-size="12" lengthAdjust="spacingAndGlyphs" textLength="73" x="7" y="175.5313">Description2</text><rect fill="#EEEEEE" height="18.1328" rx="5" ry="5" style="stroke: #000000; stroke-width: 2.5;" width="52" x="9.5" y="182.5625"/><text fill="#000000" font-family="sans-serif" font-size="12" lengthAdjust="spacingAndGlyphs" textLength="37" x="17" y="196.1641">Delete</text><rect fill="#EEEEEE" height="18.1328" rx="5" ry="5" style="stroke: #000000; stroke-width: 2.5;" width="52" x="84.5" y="182.5625"/><text fill="#000000" font-family="sans-serif" font-size="12" lengthAdjust="spacingAndGlyphs" textLength="47" x="87" y="196.1641">Rename</text><rect fill="#EEEEEE" height="18.1328" rx="5" ry="5" style="stroke: #000000; stroke-width: 2.5;" width="60" x="9.5" y="207.6953"/><text fill="#000000" font-family="sans-serif" font-size="12" lengthAdjust="spacingAndGlyphs" textLength="44" x="17.5" y="221.2969">Preview</text><rect fill="#EEEEEE" height="18.1328" rx="5" ry="5" style="stroke: #000000; stroke-width: 2.5;" width="52" x="84.5" y="207.6953"/><text fill="#000000" font-family="sans-serif" font-size="12" lengthAdjust="spacingAndGlyphs" textLength="41" x="90" y="221.2969">Upload</text><line style="stroke: #000000; stroke-width: 1.0;" x1="6" x2="81" y1="138.7969" y2="138.7969"/><line style="stroke: #000000; stroke-width: 1.0;" x1="81" x2="140" y1="138.7969" y2="138.7969"/><line style="stroke: #000000; stroke-width: 1.0;" x1="6" x2="81" y1="229.3281" y2="229.3281"/><line style="stroke: #000000; stroke-width: 1.0;" x1="81" x2="140" y1="229.3281" y2="229.3281"/><line style="stroke: #000000; stroke-width: 1.0;" x1="6" x2="6" y1="138.7969" y2="154.9297"/><line style="stroke: #000000; stroke-width: 1.0;" x1="140" x2="140" y1="162.9297" y2="179.0625"/><line style="stroke: #000000; stroke-width: 1.0;" x1="140" x2="140" y1="154.9297" y2="162.9297"/><line style="stroke: #000000; stroke-width: 1.0;" x1="140" x2="140" y1="138.7969" y2="154.9297"/><line style="stroke: #000000; stroke-width: 1.0;" x1="6" x2="6" y1="204.1953" y2="229.3281"/><line style="stroke: #000000; stroke-width: 1.0;" x1="6" x2="6" y1="179.0625" y2="204.1953"/><line style="stroke: #000000; stroke-width: 1.0;" x1="6" x2="6" y1="162.9297" y2="179.0625"/><line style="stroke: #000000; stroke-width: 1.0;" x1="140" x2="140" y1="204.1953" y2="229.3281"/><line style="stroke: #000000; stroke-width: 1.0;" x1="6" x2="6" y1="154.9297" y2="162.9297"/><line style="stroke: #000000; stroke-width: 1.0;" x1="140" x2="140" y1="179.0625" y2="204.1953"/><line style="stroke: #AAAAAA; stroke-width: 1.0;" x1="6" x2="147" y1="233.8281" y2="233.8281"/><line style="stroke: #AAAAAA; stroke-width: 1.0;" x1="6" x2="147" y1="235.8281" y2="235.8281"/><rect fill="#EEEEEE" height="18.1328" rx="5" ry="5" style="stroke: #000000; stroke-width: 2.5;" width="52" x="8.5" y="241.8281"/><text fill="#000000" font-family="sans-serif" font-size="12" lengthAdjust="spacingAndGlyphs" textLength="38" x="15.5" y="255.4297">Create</text><rect fill="#EEEEEE" height="18.1328" rx="5" ry="5" style="stroke: #000000; stroke-width: 2.5;" width="36" x="9.5" y="267.9609"/><text fill="#000000" font-family="sans-serif" font-size="12" lengthAdjust="spacingAndGlyphs" textLength="25" x="15" y="281.5625">Prev</text><rect fill="#EEEEEE" height="18.1328" rx="5" ry="5" style="stroke: #000000; stroke-width: 2.5;" width="36" x="52.5" y="267.9609"/><text fill="#000000" font-family="sans-serif" font-size="12" lengthAdjust="spacingAndGlyphs" textLength="27" x="57" y="281.5625">Next</text></g></svg>