<?xml version="1.0" encoding="UTF-8" standalone="no"?><svg xmlns="http://www.w3.org/2000/svg" xmlns:xlink="http://www.w3.org/1999/xlink" contentScriptType="application/ecmascript" contentStyleType="text/css" height="155px" preserveAspectRatio="none" style="width:168px;height:155px;" version="1.1" viewBox="0 0 168 155" width="168px" zoomAndPan="magnify"><defs/><g><text fill="#000000" font-family="sans-serif" font-size="12" lengthAdjust="spacingAndGlyphs" textLength="131" x="6" y="17.6016">Play Concert Mode VSS</text><line style="stroke: #AAAAAA; stroke-width: 1.0;" x1="6" x2="161" y1="24.6328" y2="24.6328"/><line style="stroke: #AAAAAA; stroke-width: 1.0;" x1="6" x2="161" y1="26.6328" y2="26.6328"/><text fill="#000000" font-family="sans-serif" font-size="12" lengthAdjust="spacingAndGlyphs" textLength="54" x="7" y="42.7344">VSSName</text><text fill="#000000" font-family="sans-serif" font-size="12" lengthAdjust="spacingAndGlyphs" textLength="34" x="94" y="42.7344">Name</text><text fill="#000000" font-family="sans-serif" font-size="12" lengthAdjust="spacingAndGlyphs" textLength="85" x="7" y="58.8672">VSSDescription</text><text fill="#000000" font-family="sans-serif" font-size="12" lengthAdjust="spacingAndGlyphs" textLength="65" x="94" y="58.8672">Description</text><line style="stroke: #000000; stroke-width: 1.0;" x1="6" x2="93" y1="30.1328" y2="30.1328"/><line style="stroke: #000000; stroke-width: 1.0;" x1="93" x2="160" y1="30.1328" y2="30.1328"/><line style="stroke: #000000; stroke-width: 1.0;" x1="6" x2="93" y1="62.3984" y2="62.3984"/><line style="stroke: #000000; stroke-width: 1.0;" x1="93" x2="160" y1="62.3984" y2="62.3984"/><line style="stroke: #000000; stroke-width: 1.0;" x1="6" x2="6" y1="30.1328" y2="46.2656"/><line style="stroke: #000000; stroke-width: 1.0;" x1="160" x2="160" y1="46.2656" y2="62.3984"/><line style="stroke: #000000; stroke-width: 1.0;" x1="160" x2="160" y1="30.1328" y2="46.2656"/><line style="stroke: #000000; stroke-width: 1.0;" x1="6" x2="6" y1="46.2656" y2="62.3984"/><text fill="#000000" font-family="sans-serif" font-size="12" lengthAdjust="spacingAndGlyphs" textLength="81" x="7" y="77">SoundSource1</text><line style="stroke: #000000; stroke-width: 1.0;" x1="6" x2="89" y1="64.3984" y2="64.3984"/><line style="stroke: #000000; stroke-width: 1.0;" x1="6" x2="89" y1="80.5313" y2="80.5313"/><line style="stroke: #000000; stroke-width: 1.0;" x1="6" x2="6" y1="64.3984" y2="80.5313"/><line style="stroke: #000000; stroke-width: 1.0;" x1="89" x2="89" y1="64.3984" y2="80.5313"/><text fill="#000000" font-family="sans-serif" font-size="12" lengthAdjust="spacingAndGlyphs" textLength="81" x="7" y="95.1328">SoundSource2</text><line style="stroke: #000000; stroke-width: 1.0;" x1="6" x2="89" y1="82.5313" y2="82.5313"/><line style="stroke: #000000; stroke-width: 1.0;" x1="6" x2="89" y1="98.6641" y2="98.6641"/><line style="stroke: #000000; stroke-width: 1.0;" x1="6" x2="6" y1="82.5313" y2="98.6641"/><line style="stroke: #000000; stroke-width: 1.0;" x1="89" x2="89" y1="82.5313" y2="98.6641"/><rect fill="#EEEEEE" height="18.1328" rx="5" ry="5" style="stroke: #000000; stroke-width: 2.5;" width="36" x="9.5" y="104.1641"/><text fill="#000000" font-family="sans-serif" font-size="12" lengthAdjust="spacingAndGlyphs" textLength="23" x="16" y="117.7656">Play</text><rect fill="#EEEEEE" height="18.1328" rx="5" ry="5" style="stroke: #000000; stroke-width: 2.5;" width="44" x="52.5" y="104.1641"/><text fill="#000000" font-family="sans-serif" font-size="12" lengthAdjust="spacingAndGlyphs" textLength="34" x="57.5" y="117.7656">Pause</text><rect fill="#EEEEEE" height="18.1328" rx="5" ry="5" style="stroke: #000000; stroke-width: 2.5;" width="36" x="9.5" y="131.2969"/><text fill="#000000" font-family="sans-serif" font-size="12" lengthAdjust="spacingAndGlyphs" textLength="25" x="15" y="144.8984">Prev</text><rect fill="#EEEEEE" height="18.1328" rx="5" ry="5" style="stroke: #000000; stroke-width: 2.5;" width="36" x="52.5" y="131.2969"/><text fill="#000000" font-family="sans-serif" font-size="12" lengthAdjust="spacingAndGlyphs" textLength="27" x="57" y="144.8984">Next</text></g></svg>