<?xml version="1.0" encoding="UTF-8" standalone="no"?><svg xmlns="http://www.w3.org/2000/svg" xmlns:xlink="http://www.w3.org/1999/xlink" contentScriptType="application/ecmascript" contentStyleType="text/css" height="384px" preserveAspectRatio="none" style="width:860px;height:384px;" version="1.1" viewBox="0 0 860 384"
    width="860px" zoomAndPan="magnify"><defs><filter height="300%" id="f1qnldybghohr3" width="300%" x="-1" y="-1"><feGaussianBlur result="blurOut" stdDeviation="2.0"/><feColorMatrix in="blurOut" result="blurOut2" type="matrix" values="0 0 0 0 0 0 0 0 0 0 0 0 0 0 0 0 0 0 .4 0"/><feOffset dx="4.0" dy="4.0" in="blurOut2" result="blurOut3"/><feBlend in="SourceGraphic" in2="blurOut3" mode="normal"/></filter></defs><g><rect fill="#FFFFFF" filter="url(#f1qnldybghohr3)" height="266.7949" style="stroke: #A80036; stroke-width: 1.0;" width="10" x="36.5" y="96.4883"/><rect fill="#FFFFFF" filter="url(#f1qnldybghohr3)" height="245.7949" style="stroke: #A80036; stroke-width: 1.0;" width="10" x="138.5" y="117.4883"/><rect fill="#FFFFFF" filter="url(#f1qnldybghohr3)" height="157.8633" style="stroke: #A80036; stroke-width: 1.0;" width="10" x="276.5" y="205.4199"/><rect fill="#FFFFFF" filter="url(#f1qnldybghohr3)" height="157.8633" style="stroke: #A80036; stroke-width: 1.0;" width="10" x="454" y="205.4199"/><rect fill="#FFFFFF" filter="url(#f1qnldybghohr3)" height="29.3105" style="stroke: #A80036; stroke-width: 1.0;" width="10" x="624.5" y="146.7988"/><rect fill="#FFFFFF" filter="url(#f1qnldybghohr3)" height="157.8633" style="stroke: #A80036; stroke-width: 1.0;" width="10" x="766.5" y="205.4199"/><rect fill="#FFFFFF" filter="url(#f1qnldybghohr3)" height="134.5527" style="stroke: #000000; stroke-width: 2.0;" width="836.5" x="13" y="220.7305"/><line style="stroke: #A80036; stroke-width: 1.0; stroke-dasharray: 5.0,5.0;" x1="41" x2="41" y1="86.4883" y2="372.2832"/><line style="stroke: #A80036; stroke-width: 1.0; stroke-dasharray: 5.0,5.0;" x1="143" x2="143" y1="86.4883" y2="372.2832"/><line style="stroke: #A80036; stroke-width: 1.0; stroke-dasharray: 5.0,5.0;" x1="281.5" x2="281.5" y1="86.4883" y2="372.2832"/><line style="stroke: #A80036; stroke-width: 1.0; stroke-dasharray: 5.0,5.0;" x1="458.5" x2="458.5" y1="86.4883" y2="372.2832"/><line style="stroke: #A80036; stroke-width: 1.0; stroke-dasharray: 5.0,5.0;" x1="629.5" x2="629.5" y1="86.4883" y2="372.2832"/><line style="stroke: #A80036; stroke-width: 1.0; stroke-dasharray: 5.0,5.0;" x1="771.5" x2="771.5" y1="86.4883" y2="372.2832"/><text fill="#000000" font-family="sans-serif" font-size="14" lengthAdjust="spacingAndGlyphs" text-decoration="underline" textLength="31" x="23" y="83.5352">User</text><line style="stroke: #000000; stroke-width: 1.0;" x1="23" x2="54" y1="85.5352" y2="85.5352"/><ellipse cx="41.5" cy="13" fill="#FEFECE" filter="url(#f1qnldybghohr3)" rx="8" ry="8" style="stroke: #A80036; stroke-width: 2.0;"/><path d="M41.5,21 L41.5,48 M28.5,29 L54.5,29 M41.5,48 L28.5,63 M41.5,48 L54.5,63 " fill="none" filter="url(#f1qnldybghohr3)" style="stroke: #A80036; stroke-width: 2.0;"/><rect fill="#FEFECE" filter="url(#f1qnldybghohr3)" height="30.4883" style="stroke: #A80036; stroke-width: 1.5;" width="105" x="89" y="51"/><text fill="#000000" font-family="sans-serif" font-size="14" lengthAdjust="spacingAndGlyphs" text-decoration="underline" textLength="91" x="96" y="71.5352">:UISubsystem</text><line style="stroke: #000000; stroke-width: 1.0;" x1="96" x2="187" y1="73.5352" y2="73.5352"/><rect fill="#FEFECE" filter="url(#f1qnldybghohr3)" height="30.4883" style="stroke: #A80036; stroke-width: 1.5;" width="138" x="210.5" y="51"/><text fill="#000000" font-family="sans-serif" font-size="14" lengthAdjust="spacingAndGlyphs" text-decoration="underline" textLength="124" x="217.5" y="71.5352">:SensorSubsystem</text><line style="stroke: #000000; stroke-width: 1.0;" x1="217.5" x2="341.5" y1="73.5352" y2="73.5352"/><rect fill="#FEFECE" filter="url(#f1qnldybghohr3)" height="30.4883" style="stroke: #A80036; stroke-width: 1.5;" width="189" x="362.5" y="51"/><text fill="#000000" font-family="sans-serif" font-size="14" lengthAdjust="spacingAndGlyphs" text-decoration="underline" textLength="175" x="369.5" y="71.5352">:SensorHardwareWrapper</text><line style="stroke: #000000; stroke-width: 1.0;" x1="369.5" x2="544.5" y1="73.5352" y2="73.5352"/><rect fill="#FEFECE" filter="url(#f1qnldybghohr3)" height="30.4883" style="stroke: #A80036; stroke-width: 1.5;" width="124" x="565.5" y="51"/><text fill="#000000" font-family="sans-serif" font-size="14" lengthAdjust="spacingAndGlyphs" text-decoration="underline" textLength="110" x="572.5" y="71.5352">:LocalVSSAccess</text><line style="stroke: #000000; stroke-width: 1.0;" x1="572.5" x2="682.5" y1="73.5352" y2="73.5352"/><rect fill="#FEFECE" filter="url(#f1qnldybghohr3)" height="30.4883" style="stroke: #A80036; stroke-width: 1.5;" width="132" x="703.5" y="51"/><text fill="#000000" font-family="sans-serif" font-size="14" lengthAdjust="spacingAndGlyphs" text-decoration="underline" textLength="118" x="710.5" y="71.5352">:AudioSubsystem</text><line style="stroke: #000000; stroke-width: 1.0;" x1="710.5" x2="828.5" y1="73.5352" y2="73.5352"/><rect fill="#FFFFFF" filter="url(#f1qnldybghohr3)" height="266.7949" style="stroke: #A80036; stroke-width: 1.0;" width="10" x="36.5" y="96.4883"/><rect fill="#FFFFFF" filter="url(#f1qnldybghohr3)" height="245.7949" style="stroke: #A80036; stroke-width: 1.0;" width="10" x="138.5" y="117.4883"/><rect fill="#FFFFFF" filter="url(#f1qnldybghohr3)" height="157.8633" style="stroke: #A80036; stroke-width: 1.0;" width="10" x="276.5" y="205.4199"/><rect fill="#FFFFFF" filter="url(#f1qnldybghohr3)" height="157.8633" style="stroke: #A80036; stroke-width: 1.0;" width="10" x="454" y="205.4199"/><rect fill="#FFFFFF" filter="url(#f1qnldybghohr3)" height="29.3105" style="stroke: #A80036; stroke-width: 1.0;" width="10" x="624.5" y="146.7988"/><rect fill="#FFFFFF" filter="url(#f1qnldybghohr3)" height="157.8633" style="stroke: #A80036; stroke-width: 1.0;" width="10" x="766.5" y="205.4199"/><polygon fill="#A80036" points="126.5,113.4883,136.5,117.4883,126.5,121.4883,130.5,117.4883" style="stroke: #A80036; stroke-width: 1.0;"/><line style="stroke: #A80036; stroke-width: 1.0;" x1="46.5" x2="132.5" y1="117.4883" y2="117.4883"/><text fill="#000000" font-family="sans-serif" font-size="13" lengthAdjust="spacingAndGlyphs" textLength="48" x="53.5" y="113.0566">playVSS</text><polygon fill="#A80036" points="612.5,142.7988,622.5,146.7988,612.5,150.7988,616.5,146.7988" style="stroke: #A80036; stroke-width: 1.0;"/><line style="stroke: #A80036; stroke-width: 1.0;" x1="148.5" x2="618.5" y1="146.7988" y2="146.7988"/><text fill="#000000" font-family="sans-serif" font-size="13" lengthAdjust="spacingAndGlyphs" textLength="125" x="155.5" y="142.3672">getSoundFragments</text><polygon fill="#A80036" points="159.5,172.1094,149.5,176.1094,159.5,180.1094,155.5,176.1094" style="stroke: #A80036; stroke-width: 1.0;"/><line style="stroke: #A80036; stroke-width: 1.0; stroke-dasharray: 2.0,2.0;" x1="153.5" x2="628.5" y1="176.1094" y2="176.1094"/><text fill="#000000" font-family="sans-serif" font-size="13" lengthAdjust="spacingAndGlyphs" textLength="166" x="165.5" y="171.6777">soundFragmentReferences</text><polygon fill="#A80036" points="264.5,201.4199,274.5,205.4199,264.5,209.4199,268.5,205.4199" style="stroke: #A80036; stroke-width: 1.0;"/><line style="stroke: #A80036; stroke-width: 1.0;" x1="148.5" x2="270.5" y1="205.4199" y2="205.4199"/><text fill="#000000" font-family="sans-serif" font-size="13" lengthAdjust="spacingAndGlyphs" textLength="109" x="155.5" y="200.9883">registerCallbacks</text><path d="M13,220.7305 L87,220.7305 L87,227.7305 L77,237.7305 L13,237.7305 L13,220.7305 " fill="#EEEEEE" style="stroke: #000000; stroke-width: 1.0;"/><rect fill="none" height="134.5527" style="stroke: #000000; stroke-width: 2.0;" width="836.5" x="13" y="220.7305"/><text fill="#000000" font-family="sans-serif" font-size="13" font-weight="bold" lengthAdjust="spacingAndGlyphs" textLength="29" x="28" y="234.2988">loop</text><text fill="#000000" font-family="sans-serif" font-size="11" font-weight="bold" lengthAdjust="spacingAndGlyphs" textLength="83" x="102" y="233.3652">[while playing]</text><polygon fill="#A80036" points="297.5,255.041,287.5,259.041,297.5,259.041" style="stroke: #A80036; stroke-width: 1.0;"/><line style="stroke: #A80036; stroke-width: 1.0;" x1="286.5" x2="453" y1="259.041" y2="259.041"/><text fill="#000000" font-family="sans-serif" font-size="13" lengthAdjust="spacingAndGlyphs" textLength="51" x="303.5" y="254.6094">rawData</text><polygon fill="#A80036" points="754.5,284.3516,764.5,288.3516,754.5,288.3516" style="stroke: #A80036; stroke-width: 1.0;"/><line style="stroke: #A80036; stroke-width: 1.0;" x1="286.5" x2="765.5" y1="288.3516" y2="288.3516"/><text fill="#000000" font-family="sans-serif" font-size="13" lengthAdjust="spacingAndGlyphs" textLength="144" x="293.5" y="283.9199">updateCurrentLocation</text><polygon fill="#A80036" points="126.5,313.6621,136.5,317.6621,126.5,317.6621" style="stroke: #A80036; stroke-width: 1.0;"/><line style="stroke: #A80036; stroke-width: 1.0;" x1="46.5" x2="137.5" y1="317.6621" y2="317.6621"/><text fill="#000000" font-family="sans-serif" font-size="13" lengthAdjust="spacingAndGlyphs" textLength="68" x="53.5" y="313.2305">interaction</text><polygon fill="#A80036" points="754.5,342.9727,764.5,346.9727,754.5,346.9727" style="stroke: #A80036; stroke-width: 1.0;"/><line style="stroke: #A80036; stroke-width: 1.0;" x1="148.5" x2="765.5" y1="346.9727" y2="346.9727"/><text fill="#000000" font-family="sans-serif" font-size="13" lengthAdjust="spacingAndGlyphs" textLength="147" x="155.5" y="342.541">controlCurrentPlayback</text><!--
@startuml Diagrams/PlayVSSSubsystemSequenceDiagram
hide footbox
skinparam sequenceParticipant underline
actor "User" as user
participant ":UISubsystem" as ui
participant ":SensorSubsystem" as sensor
participant ":SensorHardwareWrapper" as hard
participant ":LocalVSSAccess" as local
participant ":AudioSubsystem" as audio

activate user
    user -> ui: playVSS
activate ui
    ui -> local: getSoundFragments
    activate local
    local - -> ui: soundFragmentReferences
    deactivate local
    ui -> sensor: registerCallbacks
    activate audio
    activate hard
    activate sensor
    loop while playing
        hard -\ sensor: rawData
        sensor -\ audio: updateCurrentLocation
        user -\ ui: interaction
        ui -\ audio: controlCurrentPlayback

    end
@enduml

PlantUML version 1.2018.01(Mon Jan 29 02:08:22 CST 2018)
(GPL source distribution)
Java Runtime: Java(TM) SE Runtime Environment
JVM: Java HotSpot(TM) 64-Bit Server VM
Java Version: 9+181
Operating System: Mac OS X
OS Version: 10.12.6
Default Encoding: UTF-8
Language: zh
Country: CN
--></g></svg>