<?xml version="1.0" encoding="UTF-8" standalone="no"?><svg xmlns="http://www.w3.org/2000/svg" xmlns:xlink="http://www.w3.org/1999/xlink" contentScriptType="application/ecmascript" contentStyleType="text/css" height="149px" preserveAspectRatio="none" style="width:231px;height:149px;" version="1.1" viewBox="0 0 231 149" width="231px" zoomAndPan="magnify"><defs/><g><text fill="#000000" font-family="sans-serif" font-size="12" lengthAdjust="spacingAndGlyphs" textLength="166" x="6" y="17.6016">Preview Local Map Mode VSS</text><line style="stroke: #AAAAAA; stroke-width: 1.0;" x1="6" x2="224" y1="24.6328" y2="24.6328"/><line style="stroke: #AAAAAA; stroke-width: 1.0;" x1="6" x2="224" y1="26.6328" y2="26.6328"/><text fill="#000000" font-family="sans-serif" font-size="12" lengthAdjust="spacingAndGlyphs" textLength="97" x="7" y="42.7344">SoundSource1.ss</text><rect fill="#EEEEEE" height="18.1328" rx="5" ry="5" style="stroke: #000000; stroke-width: 2.5;" width="68" x="108.5" y="33.6328"/><text fill="#000000" font-family="sans-serif" font-size="12" lengthAdjust="spacingAndGlyphs" textLength="44" x="120.5" y="47.2344">Position</text><rect fill="#EEEEEE" height="18.1328" rx="5" ry="5" style="stroke: #000000; stroke-width: 2.5;" width="36" x="183.5" y="33.6328"/><text fill="#000000" font-family="sans-serif" font-size="12" lengthAdjust="spacingAndGlyphs" textLength="32" x="185.5" y="47.2344">Mode</text><line style="stroke: #000000; stroke-width: 1.0;" x1="6" x2="105" y1="30.1328" y2="30.1328"/><line style="stroke: #000000; stroke-width: 1.0;" x1="105" x2="180" y1="55.2656" y2="55.2656"/><line style="stroke: #000000; stroke-width: 1.0;" x1="105" x2="180" y1="30.1328" y2="30.1328"/><line style="stroke: #000000; stroke-width: 1.0;" x1="180" x2="223" y1="55.2656" y2="55.2656"/><line style="stroke: #000000; stroke-width: 1.0;" x1="180" x2="223" y1="30.1328" y2="30.1328"/><line style="stroke: #000000; stroke-width: 1.0;" x1="6" x2="105" y1="55.2656" y2="55.2656"/><line style="stroke: #000000; stroke-width: 1.0;" x1="6" x2="6" y1="30.1328" y2="55.2656"/><line style="stroke: #000000; stroke-width: 1.0;" x1="223" x2="223" y1="30.1328" y2="55.2656"/><text fill="#000000" font-family="sans-serif" font-size="12" lengthAdjust="spacingAndGlyphs" textLength="97" x="7" y="69.8672">SoundSource2.ss</text><rect fill="#EEEEEE" height="18.1328" rx="5" ry="5" style="stroke: #000000; stroke-width: 2.5;" width="68" x="108.5" y="60.7656"/><text fill="#000000" font-family="sans-serif" font-size="12" lengthAdjust="spacingAndGlyphs" textLength="44" x="120.5" y="74.3672">Position</text><rect fill="#EEEEEE" height="18.1328" rx="5" ry="5" style="stroke: #000000; stroke-width: 2.5;" width="36" x="183.5" y="60.7656"/><text fill="#000000" font-family="sans-serif" font-size="12" lengthAdjust="spacingAndGlyphs" textLength="32" x="185.5" y="74.3672">Mode</text><line style="stroke: #000000; stroke-width: 1.0;" x1="6" x2="105" y1="57.2656" y2="57.2656"/><line style="stroke: #000000; stroke-width: 1.0;" x1="105" x2="180" y1="82.3984" y2="82.3984"/><line style="stroke: #000000; stroke-width: 1.0;" x1="105" x2="180" y1="57.2656" y2="57.2656"/><line style="stroke: #000000; stroke-width: 1.0;" x1="180" x2="223" y1="82.3984" y2="82.3984"/><line style="stroke: #000000; stroke-width: 1.0;" x1="180" x2="223" y1="57.2656" y2="57.2656"/><line style="stroke: #000000; stroke-width: 1.0;" x1="6" x2="105" y1="82.3984" y2="82.3984"/><line style="stroke: #000000; stroke-width: 1.0;" x1="6" x2="6" y1="57.2656" y2="82.3984"/><line style="stroke: #000000; stroke-width: 1.0;" x1="223" x2="223" y1="57.2656" y2="82.3984"/><text fill="#000000" font-family="sans-serif" font-size="12" lengthAdjust="spacingAndGlyphs" textLength="54" x="7" y="97">VSSName</text><text fill="#000000" font-family="sans-serif" font-size="12" lengthAdjust="spacingAndGlyphs" textLength="32" x="97" y="97">name</text><line style="stroke: #000000; stroke-width: 1.0;" x1="95" x2="130" y1="99.5313" y2="99.5313"/><line style="stroke: #000000; stroke-width: 1.0;" x1="95" x2="95" y1="96.5313" y2="98.5313"/><line style="stroke: #000000; stroke-width: 1.0;" x1="130" x2="130" y1="96.5313" y2="98.5313"/><text fill="#000000" font-family="sans-serif" font-size="12" lengthAdjust="spacingAndGlyphs" textLength="85" x="7" y="115.1328">VSSDescription</text><text fill="#000000" font-family="sans-serif" font-size="12" lengthAdjust="spacingAndGlyphs" textLength="64" x="97" y="115.1328">description</text><line style="stroke: #000000; stroke-width: 1.0;" x1="95" x2="186" y1="117.6641" y2="117.6641"/><line style="stroke: #000000; stroke-width: 1.0;" x1="95" x2="95" y1="114.6641" y2="116.6641"/><line style="stroke: #000000; stroke-width: 1.0;" x1="186" x2="186" y1="114.6641" y2="116.6641"/><line style="stroke: #000000; stroke-width: 1.0;" x1="6" x2="93" y1="84.3984" y2="84.3984"/><line style="stroke: #000000; stroke-width: 1.0;" x1="93" x2="189" y1="84.3984" y2="84.3984"/><line style="stroke: #000000; stroke-width: 1.0;" x1="6" x2="93" y1="120.6641" y2="120.6641"/><line style="stroke: #000000; stroke-width: 1.0;" x1="93" x2="189" y1="120.6641" y2="120.6641"/><line style="stroke: #000000; stroke-width: 1.0;" x1="6" x2="6" y1="84.3984" y2="102.5313"/><line style="stroke: #000000; stroke-width: 1.0;" x1="189" x2="189" y1="102.5313" y2="120.6641"/><line style="stroke: #000000; stroke-width: 1.0;" x1="189" x2="189" y1="84.3984" y2="102.5313"/><line style="stroke: #000000; stroke-width: 1.0;" x1="6" x2="6" y1="102.5313" y2="120.6641"/><rect fill="#EEEEEE" height="18.1328" rx="5" ry="5" style="stroke: #000000; stroke-width: 2.5;" width="36" x="8.5" y="125.1641"/><text fill="#000000" font-family="sans-serif" font-size="12" lengthAdjust="spacingAndGlyphs" textLength="21" x="16" y="138.7656">Exit</text></g></svg>