<?xml version="1.0" encoding="UTF-8" standalone="no"?><svg xmlns="http://www.w3.org/2000/svg" xmlns:xlink="http://www.w3.org/1999/xlink" contentScriptType="application/ecmascript" contentStyleType="text/css" height="764px" preserveAspectRatio="none" style="width:1452px;height:764px;" version="1.1" viewBox="0 0 1452 764"
    width="1452px" zoomAndPan="magnify"><defs><filter height="300%" id="fh2x64wijtida" width="300%" x="-1" y="-1"><feGaussianBlur result="blurOut" stdDeviation="2.0"/><feColorMatrix in="blurOut" result="blurOut2" type="matrix" values="0 0 0 0 0 0 0 0 0 0 0 0 0 0 0 0 0 0 .4 0"/><feOffset dx="4.0" dy="4.0" in="blurOut2" result="blurOut3"/><feBlend in="SourceGraphic" in2="blurOut3" mode="normal"/></filter></defs><g><rect fill="#FEFECE" filter="url(#fh2x64wijtida)" height="30.4883" style="stroke: #A80036; stroke-width: 1.5;" width="107" x="411.5" y="165.1094"/><text fill="#000000" font-family="sans-serif" font-size="14" lengthAdjust="spacingAndGlyphs" text-decoration="underline" textLength="93" x="418.5" y="185.6445">:RegisterPage</text><line style="stroke: #000000; stroke-width: 1.0;" x1="418.5" x2="511.5" y1="187.6445" y2="187.6445"/><rect fill="#FFFFFF" filter="url(#fh2x64wijtida)" height="297.7949" style="stroke: #000000; stroke-width: 2.0;" width="1418" x="13" y="246.9082"/><rect fill="#FFFFFF" filter="url(#fh2x64wijtida)" height="59.6211" style="stroke: #000000; stroke-width: 2.0;" width="276" x="873" y="630.3242"/><rect fill="#FEFECE" filter="url(#fh2x64wijtida)" height="30.4883" style="stroke: #A80036; stroke-width: 1.5;" width="171" x="1192.5" y="696.9453"/><text fill="#000000" font-family="sans-serif" font-size="14" lengthAdjust="spacingAndGlyphs" text-decoration="underline" textLength="157" x="1199.5" y="717.4805">:LocalVSSManagerPage</text><line style="stroke: #000000; stroke-width: 1.0;" x1="1199.5" x2="1356.5" y1="719.4805" y2="719.4805"/><line style="stroke: #A80036; stroke-width: 1.0; stroke-dasharray: 5.0,5.0;" x1="87" x2="87" y1="86.4883" y2="752.4336"/><line style="stroke: #A80036; stroke-width: 1.0; stroke-dasharray: 5.0,5.0;" x1="309" x2="309" y1="86.4883" y2="752.4336"/><line style="stroke: #A80036; stroke-width: 1.0; stroke-dasharray: 5.0,5.0;" x1="466.5" x2="466.5" y1="197.8535" y2="752.4336"/><line style="stroke: #A80036; stroke-width: 1.0; stroke-dasharray: 5.0,5.0;" x1="949" x2="949" y1="86.4883" y2="752.4336"/><line style="stroke: #A80036; stroke-width: 1.0; stroke-dasharray: 5.0,5.0;" x1="1279.5" x2="1279.5" y1="729.6895" y2="752.4336"/><text fill="#000000" font-family="sans-serif" font-size="14" lengthAdjust="spacingAndGlyphs" text-decoration="underline" textLength="31" x="69" y="83.5352">User</text><line style="stroke: #000000; stroke-width: 1.0;" x1="69" x2="100" y1="85.5352" y2="85.5352"/><ellipse cx="87.5" cy="13" fill="#FEFECE" filter="url(#fh2x64wijtida)" rx="8" ry="8" style="stroke: #A80036; stroke-width: 2.0;"/><path d="M87.5,21 L87.5,48 M74.5,29 L100.5,29 M87.5,48 L74.5,63 M87.5,48 L100.5,63 " fill="none" filter="url(#fh2x64wijtida)" style="stroke: #A80036; stroke-width: 2.0;"/><rect fill="#FEFECE" filter="url(#fh2x64wijtida)" height="30.4883" style="stroke: #A80036; stroke-width: 1.5;" width="89" x="263" y="51"/><text fill="#000000" font-family="sans-serif" font-size="14" lengthAdjust="spacingAndGlyphs" text-decoration="underline" textLength="75" x="270" y="71.5352">:LoginPage</text><line style="stroke: #000000; stroke-width: 1.0;" x1="270" x2="345" y1="73.5352" y2="73.5352"/><rect fill="#FEFECE" filter="url(#fh2x64wijtida)" height="30.4883" style="stroke: #A80036; stroke-width: 1.5;" width="128" x="883" y="51"/><text fill="#000000" font-family="sans-serif" font-size="14" lengthAdjust="spacingAndGlyphs" text-decoration="underline" textLength="114" x="890" y="71.5352">:UserInfoControl</text><line style="stroke: #000000; stroke-width: 1.0;" x1="890" x2="1004" y1="73.5352" y2="73.5352"/><path d="M954,101.4883 L954,126.4883 L1414,126.4883 L1414,111.4883 L1404,101.4883 L954,101.4883 " fill="#FBFB77" filter="url(#fh2x64wijtida)" style="stroke: #A80036; stroke-width: 1.0;"/><path d="M1404,101.4883 L1404,111.4883 L1414,111.4883 L1404,101.4883 " fill="#FBFB77" style="stroke: #A80036; stroke-width: 1.0;"/><text fill="#000000" font-family="sans-serif" font-size="13" lengthAdjust="spacingAndGlyphs" textLength="439" x="960" y="119.0566">The UserInfoControl is activated since the start of the entire program.</text><polygon fill="#A80036" points="297.5,152.7988,307.5,156.7988,297.5,160.7988,301.5,156.7988" style="stroke: #A80036; stroke-width: 1.0;"/><line style="stroke: #A80036; stroke-width: 1.0;" x1="87.5" x2="303.5" y1="156.7988" y2="156.7988"/><text fill="#000000" font-family="sans-serif" font-size="13" lengthAdjust="spacingAndGlyphs" textLength="198" x="94.5" y="152.3672">onRegisterButtonClicked(): void</text><polygon fill="#A80036" points="399.5,182.1094,409.5,186.1094,399.5,190.1094,403.5,186.1094" style="stroke: #A80036; stroke-width: 1.0;"/><line style="stroke: #A80036; stroke-width: 1.0;" x1="309.5" x2="405.5" y1="186.1094" y2="186.1094"/><text fill="#000000" font-family="sans-serif" font-size="13" lengthAdjust="spacingAndGlyphs" textLength="78" x="316.5" y="181.6777">&lt;&lt;create&gt;&gt;</text><rect fill="#FEFECE" filter="url(#fh2x64wijtida)" height="30.4883" style="stroke: #A80036; stroke-width: 1.5;" width="107" x="411.5" y="165.1094"/><text fill="#000000" font-family="sans-serif" font-size="14" lengthAdjust="spacingAndGlyphs" text-decoration="underline" textLength="93" x="418.5" y="185.6445">:RegisterPage</text><line style="stroke: #000000; stroke-width: 1.0;" x1="418.5" x2="511.5" y1="187.6445" y2="187.6445"/><polygon fill="#A80036" points="455,227.5977,465,231.5977,455,235.5977,459,231.5977" style="stroke: #A80036; stroke-width: 1.0;"/><line style="stroke: #A80036; stroke-width: 1.0;" x1="87.5" x2="461" y1="231.5977" y2="231.5977"/><text fill="#000000" font-family="sans-serif" font-size="13" lengthAdjust="spacingAndGlyphs" textLength="217" x="94.5" y="227.166">onRememberButtonToggled(): void</text><path d="M13,246.9082 L87,246.9082 L87,253.9082 L77,263.9082 L13,263.9082 L13,246.9082 " fill="#EEEEEE" style="stroke: #000000; stroke-width: 1.0;"/><rect fill="none" height="297.7949" style="stroke: #000000; stroke-width: 2.0;" width="1418" x="13" y="246.9082"/><text fill="#000000" font-family="sans-serif" font-size="13" font-weight="bold" lengthAdjust="spacingAndGlyphs" textLength="29" x="28" y="260.4766">loop</text><text fill="#000000" font-family="sans-serif" font-size="11" font-weight="bold" lengthAdjust="spacingAndGlyphs" textLength="229" x="102" y="259.543">[not finished or incorrect or UserID is 0]</text><path d="M92,269.2188 L92,294.2188 L524,294.2188 L524,279.2188 L514,269.2188 L92,269.2188 " fill="#FBFB77" filter="url(#fh2x64wijtida)" style="stroke: #A80036; stroke-width: 1.0;"/><path d="M514,269.2188 L514,279.2188 L524,279.2188 L514,269.2188 " fill="#FBFB77" style="stroke: #A80036; stroke-width: 1.0;"/><text fill="#000000" font-family="sans-serif" font-size="13" lengthAdjust="spacingAndGlyphs" textLength="411" x="98" y="286.7871">the UI will give the user some reaction if the form is not finished.</text><polygon fill="#A80036" points="455,320.5293,465,324.5293,455,328.5293,459,324.5293" style="stroke: #A80036; stroke-width: 1.0;"/><line style="stroke: #A80036; stroke-width: 1.0;" x1="87.5" x2="461" y1="324.5293" y2="324.5293"/><text fill="#000000" font-family="sans-serif" font-size="13" lengthAdjust="spacingAndGlyphs" textLength="186" x="94.5" y="320.0977">onChangeRegisterData(): void</text><line style="stroke: #A80036; stroke-width: 1.0;" x1="467" x2="509" y1="354.1504" y2="354.1504"/><line style="stroke: #A80036; stroke-width: 1.0;" x1="509" x2="509" y1="354.1504" y2="367.1504"/><line style="stroke: #A80036; stroke-width: 1.0;" x1="468" x2="509" y1="367.1504" y2="367.1504"/><polygon fill="#A80036" points="478,363.1504,468,367.1504,478,371.1504,474,367.1504" style="stroke: #A80036; stroke-width: 1.0;"/><text fill="#000000" font-family="sans-serif" font-size="13" lengthAdjust="spacingAndGlyphs" textLength="179" x="474" y="349.4082">checkInputLegitimate(): void</text><line style="stroke: #A80036; stroke-width: 1.0;" x1="467" x2="509" y1="396.4609" y2="396.4609"/><line style="stroke: #A80036; stroke-width: 1.0;" x1="509" x2="509" y1="396.4609" y2="409.4609"/><line style="stroke: #A80036; stroke-width: 1.0;" x1="468" x2="509" y1="409.4609" y2="409.4609"/><polygon fill="#A80036" points="478,405.4609,468,409.4609,478,413.4609,474,409.4609" style="stroke: #A80036; stroke-width: 1.0;"/><text fill="#000000" font-family="sans-serif" font-size="13" lengthAdjust="spacingAndGlyphs" textLength="182" x="474" y="391.7188">checkPasswordStrength(): int</text><polygon fill="#A80036" points="937,434.4609,947,438.4609,937,442.4609,941,438.4609" style="stroke: #A80036; stroke-width: 1.0;"/><line style="stroke: #A80036; stroke-width: 1.0;" x1="467" x2="943" y1="438.4609" y2="438.4609"/><text fill="#000000" font-family="sans-serif" font-size="13" lengthAdjust="spacingAndGlyphs" textLength="101" x="474" y="434.0293">isAvailable(): int</text><polygon fill="#A80036" points="1429,463.7715,1439,467.7715,1429,471.7715,1433,467.7715" style="stroke: #A80036; stroke-width: 1.0;"/><line style="stroke: #A80036; stroke-width: 1.0;" x1="949" x2="1435" y1="467.7715" y2="467.7715"/><text fill="#000000" font-family="sans-serif" font-size="13" lengthAdjust="spacingAndGlyphs" textLength="461" x="956" y="463.3398">RegisterRequest(username:String, password:String, email:String):int,input</text><polygon fill="#A80036" points="960,493.082,950,497.082,960,501.082,956,497.082" style="stroke: #A80036; stroke-width: 1.0;"/><line style="stroke: #A80036; stroke-width: 1.0; stroke-dasharray: 2.0,2.0;" x1="954" x2="1440" y1="497.082" y2="497.082"/><text fill="#000000" font-family="sans-serif" font-size="13" lengthAdjust="spacingAndGlyphs" textLength="42" x="966" y="492.6504">UserID</text><polygon fill="#A80036" points="478,527.3926,468,531.3926,478,535.3926,474,531.3926" style="stroke: #A80036; stroke-width: 1.0;"/><line style="stroke: #A80036; stroke-width: 1.0; stroke-dasharray: 2.0,2.0;" x1="472" x2="948" y1="531.3926" y2="531.3926"/><text fill="#000000" font-family="sans-serif" font-size="13" lengthAdjust="spacingAndGlyphs" textLength="42" x="484" y="526.9609">UserID</text><path d="M23,510.3926 L23,535.3926 L458,535.3926 L458,520.3926 L448,510.3926 L23,510.3926 " fill="#FBFB77" filter="url(#fh2x64wijtida)" style="stroke: #A80036; stroke-width: 1.0;"/><path d="M448,510.3926 L448,520.3926 L458,520.3926 L448,510.3926 " fill="#FBFB77" style="stroke: #A80036; stroke-width: 1.0;"/><text fill="#000000" font-family="sans-serif" font-size="13" lengthAdjust="spacingAndGlyphs" textLength="414" x="29" y="527.9609">若UserID=-1则说明用户名已被注册，若UserID=0则说明邮箱已被使用</text><polygon fill="#A80036" points="937,568.7031,947,572.7031,937,576.7031,941,572.7031" style="stroke: #A80036; stroke-width: 1.0;"/><line style="stroke: #A80036; stroke-width: 1.0;" x1="467" x2="943" y1="572.7031" y2="572.7031"/><text fill="#000000" font-family="sans-serif" font-size="13" lengthAdjust="spacingAndGlyphs" textLength="458" x="474" y="568.2715">signUp(username: String, password: String, remember: boolean): boolean</text><line style="stroke: #A80036; stroke-width: 1.0;" x1="949" x2="991" y1="602.3242" y2="602.3242"/><line style="stroke: #A80036; stroke-width: 1.0;" x1="991" x2="991" y1="602.3242" y2="615.3242"/><line style="stroke: #A80036; stroke-width: 1.0;" x1="950" x2="991" y1="615.3242" y2="615.3242"/><polygon fill="#A80036" points="960,611.3242,950,615.3242,960,619.3242,956,615.3242" style="stroke: #A80036; stroke-width: 1.0;"/><text fill="#000000" font-family="sans-serif" font-size="13" lengthAdjust="spacingAndGlyphs" textLength="317" x="956" y="597.582">setCurrentUser(userID: int, username: String): void</text><path d="M873,630.3242 L935,630.3242 L935,637.3242 L925,647.3242 L873,647.3242 L873,630.3242 " fill="#EEEEEE" style="stroke: #000000; stroke-width: 1.0;"/><rect fill="none" height="59.6211" style="stroke: #000000; stroke-width: 2.0;" width="276" x="873" y="630.3242"/><text fill="#000000" font-family="sans-serif" font-size="13" font-weight="bold" lengthAdjust="spacingAndGlyphs" textLength="17" x="888" y="643.8926">alt</text><text fill="#000000" font-family="sans-serif" font-size="11" font-weight="bold" lengthAdjust="spacingAndGlyphs" textLength="135" x="950" y="642.959">[remember me selected]</text><line style="stroke: #A80036; stroke-width: 1.0;" x1="949" x2="991" y1="668.9453" y2="668.9453"/><line style="stroke: #A80036; stroke-width: 1.0;" x1="991" x2="991" y1="668.9453" y2="681.9453"/><line style="stroke: #A80036; stroke-width: 1.0;" x1="950" x2="991" y1="681.9453" y2="681.9453"/><polygon fill="#A80036" points="960,677.9453,950,681.9453,960,685.9453,956,681.9453" style="stroke: #A80036; stroke-width: 1.0;"/><text fill="#000000" font-family="sans-serif" font-size="13" lengthAdjust="spacingAndGlyphs" textLength="181" x="956" y="664.2031">rememberCurrentUser(): void</text><polygon fill="#A80036" points="1180.5,713.9453,1190.5,717.9453,1180.5,721.9453,1184.5,717.9453" style="stroke: #A80036; stroke-width: 1.0;"/><line style="stroke: #A80036; stroke-width: 1.0;" x1="949" x2="1186.5" y1="717.9453" y2="717.9453"/><text fill="#000000" font-family="sans-serif" font-size="13" lengthAdjust="spacingAndGlyphs" textLength="78" x="956" y="713.5137">&lt;&lt;create&gt;&gt;</text><rect fill="#FEFECE" filter="url(#fh2x64wijtida)" height="30.4883" style="stroke: #A80036; stroke-width: 1.5;" width="171" x="1192.5" y="696.9453"/><text fill="#000000" font-family="sans-serif" font-size="14" lengthAdjust="spacingAndGlyphs" text-decoration="underline" textLength="157" x="1199.5" y="717.4805">:LocalVSSManagerPage</text><line style="stroke: #000000; stroke-width: 1.0;" x1="1199.5" x2="1356.5" y1="719.4805" y2="719.4805"/><!--
@startuml Diagrams/Register
hide footbox
skinparam sequenceParticipant underline

actor User as user
participant ":LoginPage" as loginpage
participant ":RegisterPage" as boundary
participant ":UserInfoControl" as control
participant ":LocalVSSManagerPage" as nextpage

note right of control: The UserInfoControl is activated since the start of the entire program.

user -> loginpage: onRegisterButtonClicked(): void

create boundary
loginpage -> boundary: <<create>>

user -> boundary: onRememberButtonToggled(): void
loop not finished or incorrect or UserID is 0
    note right of user
        the UI will give the user some reaction if the form is not finished.
    end note
    user -> boundary: onChangeRegisterData(): void
    boundary -> boundary: checkInputLegitimate(): void
    boundary -> boundary: checkPasswordStrength(): int
    boundary -> control: isAvailable(): int
    control ->:RegisterRequest(username:String, password:String, email:String):int,input
    control <- -:UserID
    control- ->boundary:UserID
    note left:若UserID=-1则说明用户名已被注册，若UserID=0则说明邮箱已被使用
end

boundary -> control: signUp(username: String, password: String, remember: boolean): boolean

control -> control: setCurrentUser(userID: int, username: String): void
alt remember me selected
    control -> control: rememberCurrentUser(): void
end
create nextpage
control -> nextpage: <<create>>
@enduml

PlantUML version 1.2018.01(Mon Jan 29 02:08:22 CST 2018)
(GPL source distribution)
Java Runtime: Java(TM) SE Runtime Environment
JVM: Java HotSpot(TM) 64-Bit Server VM
Java Version: 9+181
Operating System: Mac OS X
OS Version: 10.12.6
Default Encoding: UTF-8
Language: zh
Country: CN
--></g></svg>