<?xml version="1.0" encoding="UTF-8" standalone="no"?><svg xmlns="http://www.w3.org/2000/svg" xmlns:xlink="http://www.w3.org/1999/xlink" contentScriptType="application/ecmascript" contentStyleType="text/css" height="470px" preserveAspectRatio="none" style="width:737px;height:470px;" version="1.1" viewBox="0 0 737 470"
    width="737px" zoomAndPan="magnify"><defs><filter height="300%" id="f10y8x390l9rjy" width="300%" x="-1" y="-1"><feGaussianBlur result="blurOut" stdDeviation="2.0"/><feColorMatrix in="blurOut" result="blurOut2" type="matrix" values="0 0 0 0 0 0 0 0 0 0 0 0 0 0 0 0 0 0 .4 0"/><feOffset dx="4.0" dy="4.0" in="blurOut2" result="blurOut3"/><feBlend in="SourceGraphic" in2="blurOut3" mode="normal"/></filter></defs><g><rect fill="#FFFFFF" filter="url(#f10y8x390l9rjy)" height="353.416" style="stroke: #A80036; stroke-width: 1.0;" width="10" x="21.5" y="96.4883"/><rect fill="#FFFFFF" filter="url(#f10y8x390l9rjy)" height="175.8633" style="stroke: #A80036; stroke-width: 1.0;" width="10" x="172.5" y="117.4883"/><rect fill="#FFFFFF" filter="url(#f10y8x390l9rjy)" height="29.3105" style="stroke: #A80036; stroke-width: 1.0;" width="10" x="172.5" y="322.6621"/><rect fill="#FFFFFF" filter="url(#f10y8x390l9rjy)" height="146.5527" style="stroke: #A80036; stroke-width: 1.0;" width="10" x="300.5" y="146.7988"/><rect fill="#FFFFFF" filter="url(#f10y8x390l9rjy)" height="59.3105" style="stroke: #A80036; stroke-width: 1.0;" width="10" x="300.5" y="351.9727"/><rect fill="#FFFFFF" filter="url(#f10y8x390l9rjy)" height="87.9316" style="stroke: #A80036; stroke-width: 1.0;" width="10" x="475.5" y="176.1094"/><rect fill="#FFFFFF" filter="url(#f10y8x390l9rjy)" height="59.3105" style="stroke: #A80036; stroke-width: 1.0;" width="10" x="475.5" y="381.2832"/><rect fill="#FFFFFF" filter="url(#f10y8x390l9rjy)" height="29.3105" style="stroke: #A80036; stroke-width: 1.0;" width="10" x="656.5" y="205.4199"/><rect fill="#FFFFFF" filter="url(#f10y8x390l9rjy)" height="9.3105" style="stroke: #A80036; stroke-width: 1.0;" width="10" x="656.5" y="440.5938"/><line style="stroke: #A80036; stroke-width: 1.0; stroke-dasharray: 5.0,5.0;" x1="26" x2="26" y1="86.4883" y2="458.9043"/><line style="stroke: #A80036; stroke-width: 1.0; stroke-dasharray: 5.0,5.0;" x1="177" x2="177" y1="86.4883" y2="458.9043"/><line style="stroke: #A80036; stroke-width: 1.0; stroke-dasharray: 5.0,5.0;" x1="305.5" x2="305.5" y1="86.4883" y2="458.9043"/><line style="stroke: #A80036; stroke-width: 1.0; stroke-dasharray: 5.0,5.0;" x1="480.5" x2="480.5" y1="86.4883" y2="458.9043"/><line style="stroke: #A80036; stroke-width: 1.0; stroke-dasharray: 5.0,5.0;" x1="661.5" x2="661.5" y1="86.4883" y2="458.9043"/><text fill="#000000" font-family="sans-serif" font-size="14" lengthAdjust="spacingAndGlyphs" text-decoration="underline" textLength="31" x="8" y="83.5352">User</text><line style="stroke: #000000; stroke-width: 1.0;" x1="8" x2="39" y1="85.5352" y2="85.5352"/><ellipse cx="26.5" cy="13" fill="#FEFECE" filter="url(#f10y8x390l9rjy)" rx="8" ry="8" style="stroke: #A80036; stroke-width: 2.0;"/><path d="M26.5,21 L26.5,48 M13.5,29 L39.5,29 M26.5,48 L13.5,63 M26.5,48 L39.5,63 " fill="none" filter="url(#f10y8x390l9rjy)" style="stroke: #A80036; stroke-width: 2.0;"/><rect fill="#FEFECE" filter="url(#f10y8x390l9rjy)" height="30.4883" style="stroke: #A80036; stroke-width: 1.5;" width="105" x="123" y="51"/><text fill="#000000" font-family="sans-serif" font-size="14" lengthAdjust="spacingAndGlyphs" text-decoration="underline" textLength="91" x="130" y="71.5352">:UISubsystem</text><line style="stroke: #000000; stroke-width: 1.0;" x1="130" x2="221" y1="73.5352" y2="73.5352"/><rect fill="#FEFECE" filter="url(#f10y8x390l9rjy)" height="30.4883" style="stroke: #A80036; stroke-width: 1.5;" width="122" x="242.5" y="51"/><text fill="#000000" font-family="sans-serif" font-size="14" lengthAdjust="spacingAndGlyphs" text-decoration="underline" textLength="108" x="249.5" y="71.5352">:UserSubsystem</text><line style="stroke: #000000; stroke-width: 1.0;" x1="249.5" x2="357.5" y1="73.5352" y2="73.5352"/><rect fill="#FEFECE" filter="url(#f10y8x390l9rjy)" height="30.4883" style="stroke: #A80036; stroke-width: 1.5;" width="200" x="378.5" y="51"/><text fill="#000000" font-family="sans-serif" font-size="14" lengthAdjust="spacingAndGlyphs" text-decoration="underline" textLength="186" x="385.5" y="71.5352">:CommunicationSubsystem</text><line style="stroke: #000000; stroke-width: 1.0;" x1="385.5" x2="571.5" y1="73.5352" y2="73.5352"/><rect fill="#FEFECE" filter="url(#f10y8x390l9rjy)" height="30.4883" style="stroke: #A80036; stroke-width: 1.5;" width="134" x="592.5" y="51"/><text fill="#000000" font-family="sans-serif" font-size="14" lengthAdjust="spacingAndGlyphs" text-decoration="underline" textLength="120" x="599.5" y="71.5352">:ServerSubsystem</text><line style="stroke: #000000; stroke-width: 1.0;" x1="599.5" x2="719.5" y1="73.5352" y2="73.5352"/><rect fill="#FFFFFF" filter="url(#f10y8x390l9rjy)" height="353.416" style="stroke: #A80036; stroke-width: 1.0;" width="10" x="21.5" y="96.4883"/><rect fill="#FFFFFF" filter="url(#f10y8x390l9rjy)" height="175.8633" style="stroke: #A80036; stroke-width: 1.0;" width="10" x="172.5" y="117.4883"/><rect fill="#FFFFFF" filter="url(#f10y8x390l9rjy)" height="29.3105" style="stroke: #A80036; stroke-width: 1.0;" width="10" x="172.5" y="322.6621"/><rect fill="#FFFFFF" filter="url(#f10y8x390l9rjy)" height="146.5527" style="stroke: #A80036; stroke-width: 1.0;" width="10" x="300.5" y="146.7988"/><rect fill="#FFFFFF" filter="url(#f10y8x390l9rjy)" height="59.3105" style="stroke: #A80036; stroke-width: 1.0;" width="10" x="300.5" y="351.9727"/><rect fill="#FFFFFF" filter="url(#f10y8x390l9rjy)" height="87.9316" style="stroke: #A80036; stroke-width: 1.0;" width="10" x="475.5" y="176.1094"/><rect fill="#FFFFFF" filter="url(#f10y8x390l9rjy)" height="59.3105" style="stroke: #A80036; stroke-width: 1.0;" width="10" x="475.5" y="381.2832"/><rect fill="#FFFFFF" filter="url(#f10y8x390l9rjy)" height="29.3105" style="stroke: #A80036; stroke-width: 1.0;" width="10" x="656.5" y="205.4199"/><rect fill="#FFFFFF" filter="url(#f10y8x390l9rjy)" height="9.3105" style="stroke: #A80036; stroke-width: 1.0;" width="10" x="656.5" y="440.5938"/><polygon fill="#A80036" points="160.5,113.4883,170.5,117.4883,160.5,121.4883,164.5,117.4883" style="stroke: #A80036; stroke-width: 1.0;"/><line style="stroke: #A80036; stroke-width: 1.0;" x1="31.5" x2="166.5" y1="117.4883" y2="117.4883"/><text fill="#000000" font-family="sans-serif" font-size="13" lengthAdjust="spacingAndGlyphs" textLength="122" x="38.5" y="113.0566">registerInformation</text><polygon fill="#A80036" points="288.5,142.7988,298.5,146.7988,288.5,150.7988,292.5,146.7988" style="stroke: #A80036; stroke-width: 1.0;"/><line style="stroke: #A80036; stroke-width: 1.0;" x1="182.5" x2="294.5" y1="146.7988" y2="146.7988"/><text fill="#000000" font-family="sans-serif" font-size="13" lengthAdjust="spacingAndGlyphs" textLength="99" x="189.5" y="142.3672">checkUsername</text><polygon fill="#A80036" points="463.5,172.1094,473.5,176.1094,463.5,180.1094,467.5,176.1094" style="stroke: #A80036; stroke-width: 1.0;"/><line style="stroke: #A80036; stroke-width: 1.0;" x1="310.5" x2="469.5" y1="176.1094" y2="176.1094"/><text fill="#000000" font-family="sans-serif" font-size="13" lengthAdjust="spacingAndGlyphs" textLength="84" x="317.5" y="171.6777">askUsername</text><polygon fill="#A80036" points="644.5,201.4199,654.5,205.4199,644.5,209.4199,648.5,205.4199" style="stroke: #A80036; stroke-width: 1.0;"/><line style="stroke: #A80036; stroke-width: 1.0;" x1="485.5" x2="650.5" y1="205.4199" y2="205.4199"/><text fill="#000000" font-family="sans-serif" font-size="13" lengthAdjust="spacingAndGlyphs" textLength="112" x="492.5" y="200.9883">GET askUsername</text><polygon fill="#A80036" points="496.5,230.7305,486.5,234.7305,496.5,238.7305,492.5,234.7305" style="stroke: #A80036; stroke-width: 1.0;"/><line style="stroke: #A80036; stroke-width: 1.0; stroke-dasharray: 2.0,2.0;" x1="490.5" x2="660.5" y1="234.7305" y2="234.7305"/><text fill="#000000" font-family="sans-serif" font-size="13" lengthAdjust="spacingAndGlyphs" textLength="57" x="502.5" y="230.2988">response</text><polygon fill="#A80036" points="321.5,260.041,311.5,264.041,321.5,268.041,317.5,264.041" style="stroke: #A80036; stroke-width: 1.0;"/><line style="stroke: #A80036; stroke-width: 1.0; stroke-dasharray: 2.0,2.0;" x1="315.5" x2="479.5" y1="264.041" y2="264.041"/><text fill="#000000" font-family="sans-serif" font-size="13" lengthAdjust="spacingAndGlyphs" textLength="57" x="327.5" y="259.6094">response</text><polygon fill="#A80036" points="188.5,289.3516,178.5,293.3516,188.5,297.3516,184.5,293.3516" style="stroke: #A80036; stroke-width: 1.0;"/><line style="stroke: #A80036; stroke-width: 1.0; stroke-dasharray: 2.0,2.0;" x1="182.5" x2="304.5" y1="293.3516" y2="293.3516"/><text fill="#000000" font-family="sans-serif" font-size="13" lengthAdjust="spacingAndGlyphs" textLength="57" x="194.5" y="288.9199">response</text><polygon fill="#A80036" points="160.5,318.6621,170.5,322.6621,160.5,326.6621,164.5,322.6621" style="stroke: #A80036; stroke-width: 1.0;"/><line style="stroke: #A80036; stroke-width: 1.0;" x1="31.5" x2="166.5" y1="322.6621" y2="322.6621"/><text fill="#000000" font-family="sans-serif" font-size="13" lengthAdjust="spacingAndGlyphs" textLength="48" x="38.5" y="318.2305">register</text><polygon fill="#A80036" points="288.5,347.9727,298.5,351.9727,288.5,355.9727,292.5,351.9727" style="stroke: #A80036; stroke-width: 1.0;"/><line style="stroke: #A80036; stroke-width: 1.0;" x1="177.5" x2="294.5" y1="351.9727" y2="351.9727"/><text fill="#000000" font-family="sans-serif" font-size="13" lengthAdjust="spacingAndGlyphs" textLength="48" x="184.5" y="347.541">register</text><polygon fill="#A80036" points="463.5,377.2832,473.5,381.2832,463.5,385.2832,467.5,381.2832" style="stroke: #A80036; stroke-width: 1.0;"/><line style="stroke: #A80036; stroke-width: 1.0;" x1="310.5" x2="469.5" y1="381.2832" y2="381.2832"/><text fill="#000000" font-family="sans-serif" font-size="13" lengthAdjust="spacingAndGlyphs" textLength="48" x="317.5" y="376.8516">register</text><polygon fill="#A80036" points="644.5,436.5938,654.5,440.5938,644.5,444.5938,648.5,440.5938" style="stroke: #A80036; stroke-width: 1.0;"/><line style="stroke: #A80036; stroke-width: 1.0;" x1="480.5" x2="650.5" y1="440.5938" y2="440.5938"/><text fill="#000000" font-family="sans-serif" font-size="13" lengthAdjust="spacingAndGlyphs" textLength="48" x="487.5" y="436.1621">register</text><!--
@startuml Diagrams/RegisterSubsystemSequenceDiagram
hide footbox
skinparam sequenceParticipant underline
actor "User" as user
participant ":UISubsystem" as ui
participant ":UserSubsystem" as info
participant ":CommunicationSubsystem" as com
participant ":ServerSubsystem" as server

activate user
    user -> ui: registerInformation
activate ui
    ui -> info: checkUsername
    activate info
    info -> com: askUsername
activate com
    com -> server: GET askUsername
    activate server
    server - -> com: response
    deactivate server
    com - -> info: response
deactivate com
    info - -> ui: response
deactivate info
deactivate ui
    user -> ui: register
activate ui
    ui -> info: register
deactivate ui

activate info
    info -> com: register
activate com
    deactivate info

    com -> server: register
deactivate com

activate server

@enduml

PlantUML version 1.2018.01(Mon Jan 29 02:08:22 CST 2018)
(GPL source distribution)
Java Runtime: Java(TM) SE Runtime Environment
JVM: Java HotSpot(TM) 64-Bit Server VM
Java Version: 9+181
Operating System: Mac OS X
OS Version: 10.12.6
Default Encoding: UTF-8
Language: zh
Country: CN
--></g></svg>