<?xml version="1.0" encoding="UTF-8" standalone="no"?><svg xmlns="http://www.w3.org/2000/svg" xmlns:xlink="http://www.w3.org/1999/xlink" contentScriptType="application/ecmascript" contentStyleType="text/css" height="169px" preserveAspectRatio="none" style="width:367px;height:169px;" version="1.1" viewBox="0 0 367 169" width="367px" zoomAndPan="magnify"><defs/><g><text fill="#000000" font-family="sans-serif" font-size="12" lengthAdjust="spacingAndGlyphs" textLength="119" x="6" y="17.6016">Welcome to AudioAR</text><line style="stroke: #AAAAAA; stroke-width: 1.0;" x1="6" x2="171" y1="24.6328" y2="24.6328"/><line style="stroke: #AAAAAA; stroke-width: 1.0;" x1="6" x2="171" y1="26.6328" y2="26.6328"/><text fill="#000000" font-family="sans-serif" font-size="12" lengthAdjust="spacingAndGlyphs" textLength="30" x="6" y="41.7344">Login</text><text fill="#000000" font-family="sans-serif" font-size="12" lengthAdjust="spacingAndGlyphs" textLength="50" x="175" y="41.7344">MyName</text><line style="stroke: #000000; stroke-width: 1.0;" x1="173" x2="226" y1="44.2656" y2="44.2656"/><line style="stroke: #000000; stroke-width: 1.0;" x1="173" x2="173" y1="41.2656" y2="43.2656"/><line style="stroke: #000000; stroke-width: 1.0;" x1="226" x2="226" y1="41.2656" y2="43.2656"/><text fill="#000000" font-family="sans-serif" font-size="12" lengthAdjust="spacingAndGlyphs" textLength="31" x="6" y="59.8672">Email</text><text fill="#000000" font-family="sans-serif" font-size="12" lengthAdjust="spacingAndGlyphs" textLength="158" x="175" y="59.8672">Development@AudioAR.org</text><line style="stroke: #000000; stroke-width: 1.0;" x1="173" x2="360" y1="62.3984" y2="62.3984"/><line style="stroke: #000000; stroke-width: 1.0;" x1="173" x2="173" y1="59.3984" y2="61.3984"/><line style="stroke: #000000; stroke-width: 1.0;" x1="360" x2="360" y1="59.3984" y2="61.3984"/><text fill="#000000" font-family="sans-serif" font-size="12" lengthAdjust="spacingAndGlyphs" textLength="55" x="6" y="78">Password</text><text fill="#000000" font-family="sans-serif" font-size="12" font-weight="bold" lengthAdjust="spacingAndGlyphs" textLength="6" x="175" y="78">*</text><text fill="#000000" font-family="sans-serif" font-size="12" lengthAdjust="spacingAndGlyphs" textLength="6" x="181" y="78">*</text><line style="stroke: #000000; stroke-width: 1.0;" x1="173" x2="224" y1="80.5313" y2="80.5313"/><line style="stroke: #000000; stroke-width: 1.0;" x1="173" x2="173" y1="77.5313" y2="79.5313"/><line style="stroke: #000000; stroke-width: 1.0;" x1="224" x2="224" y1="77.5313" y2="79.5313"/><text fill="#000000" font-family="sans-serif" font-size="12" lengthAdjust="spacingAndGlyphs" textLength="104" x="6" y="96.1328">Reenter Password</text><text fill="#000000" font-family="sans-serif" font-size="12" font-weight="bold" lengthAdjust="spacingAndGlyphs" textLength="6" x="175" y="96.1328">*</text><text fill="#000000" font-family="sans-serif" font-size="12" lengthAdjust="spacingAndGlyphs" textLength="6" x="181" y="96.1328">*</text><line style="stroke: #000000; stroke-width: 1.0;" x1="173" x2="224" y1="98.6641" y2="98.6641"/><line style="stroke: #000000; stroke-width: 1.0;" x1="173" x2="173" y1="95.6641" y2="97.6641"/><line style="stroke: #000000; stroke-width: 1.0;" x1="224" x2="224" y1="95.6641" y2="97.6641"/><text fill="#000000" font-family="sans-serif" font-size="12" lengthAdjust="spacingAndGlyphs" textLength="103" x="6" y="114.2656">passwordStrength</text><path d="M120.406,106.7969 L119.687,107.4849 L116.906,110.2659 L116.125,109.4849 L115.406,108.7969 L114,110.2029 L114.688,110.9219 L116.188,112.4219 L116.907,113.1099 L117.626,112.4219 L121.126,108.9219 L121.814,108.2029 L120.408,106.7969 " fill="#000000" style="stroke: ; stroke-width: 0.0; stroke-dasharray: ;"/><path d="M130.406,106.7969 L129.687,107.4849 L126.906,110.2659 L126.125,109.4849 L125.406,108.7969 L124,110.2029 L124.688,110.9219 L126.188,112.4219 L126.907,113.1099 L127.626,112.4219 L131.126,108.9219 L131.814,108.2029 L130.408,106.7969 " fill="#000000" style="stroke: ; stroke-width: 0.0; stroke-dasharray: ;"/><path d="M140.406,106.7969 L139.687,107.4849 L136.906,110.2659 L136.125,109.4849 L135.406,108.7969 L134,110.2029 L134.688,110.9219 L136.188,112.4219 L136.907,113.1099 L137.626,112.4219 L141.126,108.9219 L141.814,108.2029 L140.408,106.7969 " fill="#000000" style="stroke: ; stroke-width: 0.0; stroke-dasharray: ;"/><path d="M150.406,106.7969 L149.687,107.4849 L146.906,110.2659 L146.125,109.4849 L145.406,108.7969 L144,110.2029 L144.688,110.9219 L146.188,112.4219 L146.907,113.1099 L147.626,112.4219 L151.126,108.9219 L151.814,108.2029 L150.408,106.7969 " fill="#000000" style="stroke: ; stroke-width: 0.0; stroke-dasharray: ;"/><path d="M155.406,105.7969 L154,107.2029 L154.688,107.9219 L156.469,109.7029 L154.688,111.4839 L154,112.2029 L155.406,113.6089 L156.125,112.9209 L157.906,111.1399 L159.687,112.9209 L160.406,113.6089 L161.812,112.2029 L161.124,111.4839 L159.343,109.7029 L161.124,107.9219 L161.812,107.2029 L160.406,105.7969 L159.687,106.4849 L157.906,108.2659 L156.125,106.4849 L155.406,105.7969 " fill="#000000" style="stroke: ; stroke-width: 0.0; stroke-dasharray: ;"/><text fill="#000000" font-family="sans-serif" font-size="12" lengthAdjust="spacingAndGlyphs" textLength="144" x="26" y="130.3984">Remember me next time</text><rect fill="none" height="10" style="stroke: #000000; stroke-width: 1.5;" width="10" x="8" y="120.8633"/><polygon fill="#000000" points="9,124.7969,12,127.7969,19,118.7969,12,125.7969" style="stroke: #000000; stroke-width: 1.5;"/><line style="stroke: #AAAAAA; stroke-width: 1.0;" x1="6" x2="171" y1="137.4297" y2="137.4297"/><line style="stroke: #AAAAAA; stroke-width: 1.0;" x1="6" x2="171" y1="139.4297" y2="139.4297"/><rect fill="#EEEEEE" height="18.1328" rx="5" ry="5" style="stroke: #000000; stroke-width: 2.5;" width="52" x="8.5" y="145.4297"/><text fill="#000000" font-family="sans-serif" font-size="12" lengthAdjust="spacingAndGlyphs" textLength="38" x="15.5" y="159.0313">Cancel</text><rect fill="#EEEEEE" height="18.1328" rx="5" ry="5" style="stroke: #000000; stroke-width: 2.5;" width="92" x="174.5" y="145.4297"/><text fill="#000000" font-family="sans-serif" font-size="12" lengthAdjust="spacingAndGlyphs" textLength="47" x="190" y="159.0313">Register</text><path d="M245,150.5625 L245,151.5625 L249,151.5625 L249,156.5625 L245,156.5625 L245,157.5625 L250,157.5625 L250,150.5625 L245,150.5625 M246,152.5625 L246,153.5625 L242,153.5625 L242,154.5625 L246,154.5625 L246,155.5625 L248,154.0625 L246,152.5625 " fill="#000000" style="stroke: ; stroke-width: 0.0; stroke-dasharray: ;"/></g></svg>