<?xml version="1.0" encoding="UTF-8" standalone="no"?><svg xmlns="http://www.w3.org/2000/svg" xmlns:xlink="http://www.w3.org/1999/xlink" contentScriptType="application/ecmascript" contentStyleType="text/css" height="98px" preserveAspectRatio="none" style="width:201px;height:98px;" version="1.1" viewBox="0 0 201 98" width="201px" zoomAndPan="magnify"><defs/><g><text fill="#000000" font-family="sans-serif" font-size="12" lengthAdjust="spacingAndGlyphs" textLength="71" x="6" y="17.6016">Rename VSS</text><line style="stroke: #AAAAAA; stroke-width: 1.0;" x1="6" x2="194" y1="24.6328" y2="24.6328"/><line style="stroke: #AAAAAA; stroke-width: 1.0;" x1="6" x2="194" y1="26.6328" y2="26.6328"/><text fill="#000000" font-family="sans-serif" font-size="12" lengthAdjust="spacingAndGlyphs" textLength="34" x="7" y="42.7344">Name</text><text fill="#000000" font-family="sans-serif" font-size="12" lengthAdjust="spacingAndGlyphs" textLength="57" x="77" y="42.7344">newName</text><line style="stroke: #000000; stroke-width: 1.0;" x1="75" x2="158" y1="45.2656" y2="45.2656"/><line style="stroke: #000000; stroke-width: 1.0;" x1="75" x2="75" y1="42.2656" y2="44.2656"/><line style="stroke: #000000; stroke-width: 1.0;" x1="158" x2="158" y1="42.2656" y2="44.2656"/><text fill="#000000" font-family="sans-serif" font-size="12" lengthAdjust="spacingAndGlyphs" textLength="65" x="7" y="60.8672">Description</text><text fill="#000000" font-family="sans-serif" font-size="12" lengthAdjust="spacingAndGlyphs" textLength="88" x="77" y="60.8672">newDescription</text><line style="stroke: #000000; stroke-width: 1.0;" x1="75" x2="190" y1="63.3984" y2="63.3984"/><line style="stroke: #000000; stroke-width: 1.0;" x1="75" x2="75" y1="60.3984" y2="62.3984"/><line style="stroke: #000000; stroke-width: 1.0;" x1="190" x2="190" y1="60.3984" y2="62.3984"/><rect fill="#EEEEEE" height="18.1328" rx="5" ry="5" style="stroke: #000000; stroke-width: 2.5;" width="52" x="9.5" y="69.8984"/><text fill="#000000" font-family="sans-serif" font-size="12" lengthAdjust="spacingAndGlyphs" textLength="38" x="16.5" y="83.5">Cancel</text><rect fill="#EEEEEE" height="18.1328" rx="5" ry="5" style="stroke: #000000; stroke-width: 2.5;" width="36" x="76.5" y="69.8984"/><text fill="#000000" font-family="sans-serif" font-size="12" lengthAdjust="spacingAndGlyphs" textLength="26" x="81.5" y="83.5">Save</text><line style="stroke: #000000; stroke-width: 1.0;" x1="6" x2="73" y1="30.1328" y2="30.1328"/><line style="stroke: #000000; stroke-width: 1.0;" x1="73" x2="193" y1="30.1328" y2="30.1328"/><line style="stroke: #000000; stroke-width: 1.0;" x1="6" x2="73" y1="91.5313" y2="91.5313"/><line style="stroke: #000000; stroke-width: 1.0;" x1="73" x2="193" y1="91.5313" y2="91.5313"/><line style="stroke: #000000; stroke-width: 1.0;" x1="6" x2="6" y1="30.1328" y2="48.2656"/><line style="stroke: #000000; stroke-width: 1.0;" x1="193" x2="193" y1="66.3984" y2="91.5313"/><line style="stroke: #000000; stroke-width: 1.0;" x1="193" x2="193" y1="48.2656" y2="66.3984"/><line style="stroke: #000000; stroke-width: 1.0;" x1="193" x2="193" y1="30.1328" y2="48.2656"/><line style="stroke: #000000; stroke-width: 1.0;" x1="6" x2="6" y1="66.3984" y2="91.5313"/><line style="stroke: #000000; stroke-width: 1.0;" x1="6" x2="6" y1="48.2656" y2="66.3984"/></g></svg>