<?xml version="1.0" encoding="UTF-8" standalone="no"?><svg xmlns="http://www.w3.org/2000/svg" xmlns:xlink="http://www.w3.org/1999/xlink" contentScriptType="application/ecmascript" contentStyleType="text/css" height="498px" preserveAspectRatio="none" style="width:1026px;height:498px;" version="1.1" viewBox="0 0 1026 498"
    width="1026px" zoomAndPan="magnify"><defs><filter height="300%" id="f54m0brxl5x76" width="300%" x="-1" y="-1"><feGaussianBlur result="blurOut" stdDeviation="2.0"/><feColorMatrix in="blurOut" result="blurOut2" type="matrix" values="0 0 0 0 0 0 0 0 0 0 0 0 0 0 0 0 0 0 .4 0"/><feOffset dx="4.0" dy="4.0" in="blurOut2" result="blurOut3"/><feBlend in="SourceGraphic" in2="blurOut3" mode="normal"/></filter></defs><g><rect fill="#FFFFFF" filter="url(#f54m0brxl5x76)" height="147.5527" style="stroke: #000000; stroke-width: 2.0;" width="1002.5" x="13" y="263.041"/><line style="stroke: #A80036; stroke-width: 1.0; stroke-dasharray: 5.0,5.0;" x1="41" x2="41" y1="86.4883" y2="486.2148"/><line style="stroke: #A80036; stroke-width: 1.0; stroke-dasharray: 5.0,5.0;" x1="222" x2="222" y1="86.4883" y2="486.2148"/><line style="stroke: #A80036; stroke-width: 1.0; stroke-dasharray: 5.0,5.0;" x1="556.5" x2="556.5" y1="86.4883" y2="486.2148"/><text fill="#000000" font-family="sans-serif" font-size="14" lengthAdjust="spacingAndGlyphs" text-decoration="underline" textLength="31" x="23" y="83.5352">User</text><line style="stroke: #000000; stroke-width: 1.0;" x1="23" x2="54" y1="85.5352" y2="85.5352"/><ellipse cx="41.5" cy="13" fill="#FEFECE" filter="url(#f54m0brxl5x76)" rx="8" ry="8" style="stroke: #A80036; stroke-width: 2.0;"/><path d="M41.5,21 L41.5,48 M28.5,29 L54.5,29 M41.5,48 L28.5,63 M41.5,48 L54.5,63 " fill="none" filter="url(#f54m0brxl5x76)" style="stroke: #A80036; stroke-width: 2.0;"/><rect fill="#FEFECE" filter="url(#f54m0brxl5x76)" height="30.4883" style="stroke: #A80036; stroke-width: 1.5;" width="131" x="155" y="51"/><text fill="#000000" font-family="sans-serif" font-size="14" lengthAdjust="spacingAndGlyphs" text-decoration="underline" textLength="117" x="162" y="71.5352">:RenameVSSPage</text><line style="stroke: #000000; stroke-width: 1.0;" x1="162" x2="279" y1="73.5352" y2="73.5352"/><rect fill="#FEFECE" filter="url(#f54m0brxl5x76)" height="30.4883" style="stroke: #A80036; stroke-width: 1.5;" width="184" x="462.5" y="51"/><text fill="#000000" font-family="sans-serif" font-size="14" lengthAdjust="spacingAndGlyphs" text-decoration="underline" textLength="170" x="469.5" y="71.5352">:LocalSoundSpaceLibrary</text><line style="stroke: #000000; stroke-width: 1.0;" x1="469.5" x2="639.5" y1="73.5352" y2="73.5352"/><polygon fill="#A80036" points="210.5,113.4883,220.5,117.4883,210.5,121.4883,214.5,117.4883" style="stroke: #A80036; stroke-width: 1.0;"/><line style="stroke: #A80036; stroke-width: 1.0;" x1="3" x2="216.5" y1="117.4883" y2="117.4883"/><text fill="#000000" font-family="sans-serif" font-size="13" lengthAdjust="spacingAndGlyphs" textLength="78" x="10" y="113.0566">&lt;&lt;create&gt;&gt;</text><polygon fill="#A80036" points="210.5,142.7988,220.5,146.7988,210.5,150.7988,214.5,146.7988" style="stroke: #A80036; stroke-width: 1.0;"/><line style="stroke: #A80036; stroke-width: 1.0;" x1="41.5" x2="216.5" y1="146.7988" y2="146.7988"/><text fill="#000000" font-family="sans-serif" font-size="13" lengthAdjust="spacingAndGlyphs" textLength="157" x="48.5" y="142.3672">onRenameDataChanged()</text><polygon fill="#A80036" points="210.5,172.1094,220.5,176.1094,210.5,180.1094,214.5,176.1094" style="stroke: #A80036; stroke-width: 1.0;"/><line style="stroke: #A80036; stroke-width: 1.0;" x1="41.5" x2="216.5" y1="176.1094" y2="176.1094"/><text fill="#000000" font-family="sans-serif" font-size="13" lengthAdjust="spacingAndGlyphs" textLength="140" x="48.5" y="171.6777">onSaveButtonClicked()</text><polygon fill="#A80036" points="544.5,201.4199,554.5,205.4199,544.5,209.4199,548.5,205.4199" style="stroke: #A80036; stroke-width: 1.0;"/><line style="stroke: #A80036; stroke-width: 1.0;" x1="222.5" x2="550.5" y1="205.4199" y2="205.4199"/><text fill="#000000" font-family="sans-serif" font-size="13" lengthAdjust="spacingAndGlyphs" textLength="310" x="229.5" y="200.9883">renameVSS(whichVSS, newName, newDescription)</text><line style="stroke: #A80036; stroke-width: 1.0;" x1="556.5" x2="598.5" y1="235.041" y2="235.041"/><line style="stroke: #A80036; stroke-width: 1.0;" x1="598.5" x2="598.5" y1="235.041" y2="248.041"/><line style="stroke: #A80036; stroke-width: 1.0;" x1="557.5" x2="598.5" y1="248.041" y2="248.041"/><polygon fill="#A80036" points="567.5,244.041,557.5,248.041,567.5,252.041,563.5,248.041" style="stroke: #A80036; stroke-width: 1.0;"/><text fill="#000000" font-family="sans-serif" font-size="13" lengthAdjust="spacingAndGlyphs" textLength="440" x="563.5" y="230.2988">checkNewNameAndDescription(whichVSS, newName, newDescription)</text><path d="M13,263.041 L87,263.041 L87,270.041 L77,280.041 L13,280.041 L13,263.041 " fill="#EEEEEE" style="stroke: #000000; stroke-width: 1.0;"/><rect fill="none" height="147.5527" style="stroke: #000000; stroke-width: 2.0;" width="1002.5" x="13" y="263.041"/><text fill="#000000" font-family="sans-serif" font-size="13" font-weight="bold" lengthAdjust="spacingAndGlyphs" textLength="29" x="28" y="276.6094">loop</text><text fill="#000000" font-family="sans-serif" font-size="11" font-weight="bold" lengthAdjust="spacingAndGlyphs" textLength="76" x="102" y="275.6758">[wrong input]</text><polygon fill="#A80036" points="233.5,297.3516,223.5,301.3516,233.5,305.3516,229.5,301.3516" style="stroke: #A80036; stroke-width: 1.0;"/><line style="stroke: #A80036; stroke-width: 1.0;" x1="227.5" x2="555.5" y1="301.3516" y2="301.3516"/><text fill="#000000" font-family="sans-serif" font-size="13" lengthAdjust="spacingAndGlyphs" textLength="110" x="239.5" y="296.9199">notifyWrongInput</text><polygon fill="#A80036" points="210.5,326.6621,220.5,330.6621,210.5,334.6621,214.5,330.6621" style="stroke: #A80036; stroke-width: 1.0;"/><line style="stroke: #A80036; stroke-width: 1.0;" x1="41.5" x2="216.5" y1="330.6621" y2="330.6621"/><text fill="#000000" font-family="sans-serif" font-size="13" lengthAdjust="spacingAndGlyphs" textLength="157" x="48.5" y="326.2305">onRenameDataChanged()</text><polygon fill="#A80036" points="210.5,355.9727,220.5,359.9727,210.5,363.9727,214.5,359.9727" style="stroke: #A80036; stroke-width: 1.0;"/><line style="stroke: #A80036; stroke-width: 1.0;" x1="41.5" x2="216.5" y1="359.9727" y2="359.9727"/><text fill="#000000" font-family="sans-serif" font-size="13" lengthAdjust="spacingAndGlyphs" textLength="140" x="48.5" y="355.541">onSaveButtonClicked()</text><line style="stroke: #A80036; stroke-width: 1.0;" x1="556.5" x2="598.5" y1="389.5938" y2="389.5938"/><line style="stroke: #A80036; stroke-width: 1.0;" x1="598.5" x2="598.5" y1="389.5938" y2="402.5938"/><line style="stroke: #A80036; stroke-width: 1.0;" x1="557.5" x2="598.5" y1="402.5938" y2="402.5938"/><polygon fill="#A80036" points="567.5,398.5938,557.5,402.5938,567.5,406.5938,563.5,402.5938" style="stroke: #A80036; stroke-width: 1.0;"/><text fill="#000000" font-family="sans-serif" font-size="13" lengthAdjust="spacingAndGlyphs" textLength="440" x="563.5" y="384.8516">checkNewNameAndDescription(whichVSS, newName, newDescription)</text><polygon fill="#A80036" points="233.5,434.5938,223.5,438.5938,233.5,442.5938,229.5,438.5938" style="stroke: #A80036; stroke-width: 1.0;"/><line style="stroke: #A80036; stroke-width: 1.0;" x1="227.5" x2="555.5" y1="438.5938" y2="438.5938"/><text fill="#000000" font-family="sans-serif" font-size="13" lengthAdjust="spacingAndGlyphs" textLength="101" x="239.5" y="434.1621">notifyValidInput</text><polygon fill="#A80036" points="233.5,463.9043,223.5,467.9043,233.5,471.9043,229.5,467.9043" style="stroke: #A80036; stroke-width: 1.0;"/><line style="stroke: #A80036; stroke-width: 1.0;" x1="227.5" x2="555.5" y1="467.9043" y2="467.9043"/><text fill="#000000" font-family="sans-serif" font-size="13" lengthAdjust="spacingAndGlyphs" textLength="87" x="239.5" y="463.4727">&lt;&lt;destroy&gt;&gt;</text><line style="stroke: #A80036; stroke-width: 2.0;" x1="213.5" x2="231.5" y1="458.9043" y2="476.9043"/><line style="stroke: #A80036; stroke-width: 2.0;" x1="213.5" x2="231.5" y1="476.9043" y2="458.9043"/><!--
@startuml Diagrams/RenameVSS
hide footbox
skinparam sequenceParticipant underline

actor User as user
participant ":RenameVSSPage" as viewModel
participant ":LocalSoundSpaceLibrary" as library

-> viewModel: <<create>>
user -> viewModel: onRenameDataChanged()
user -> viewModel: onSaveButtonClicked()
viewModel -> library: renameVSS(whichVSS, newName, newDescription)
library -> library: checkNewNameAndDescription(whichVSS, newName, newDescription)
loop wrong input
    library -> viewModel: notifyWrongInput
    user -> viewModel: onRenameDataChanged()
    user -> viewModel: onSaveButtonClicked()
    library -> library: checkNewNameAndDescription(whichVSS, newName, newDescription)
end
    library -> viewModel: notifyValidInput
    library -> viewModel: <<destroy>>
    destroy viewModel


@enduml

PlantUML version 1.2018.01(Mon Jan 29 02:08:22 CST 2018)
(GPL source distribution)
Java Runtime: Java(TM) SE Runtime Environment
JVM: Java HotSpot(TM) 64-Bit Server VM
Java Version: 9+181
Operating System: Mac OS X
OS Version: 10.12.6
Default Encoding: UTF-8
Language: zh
Country: CN
--></g></svg>