<?xml version="1.0" encoding="UTF-8" standalone="no"?><svg xmlns="http://www.w3.org/2000/svg" xmlns:xlink="http://www.w3.org/1999/xlink" contentScriptType="application/ecmascript" contentStyleType="text/css" height="186px" preserveAspectRatio="none" style="width:167px;height:186px;" version="1.1" viewBox="0 0 167 186"
    width="167px" zoomAndPan="magnify"><defs><filter height="300%" id="fxdqclqc42g8l" width="300%" x="-1" y="-1"><feGaussianBlur result="blurOut" stdDeviation="2.0"/><feColorMatrix in="blurOut" result="blurOut2" type="matrix" values="0 0 0 0 0 0 0 0 0 0 0 0 0 0 0 0 0 0 .4 0"/><feOffset dx="4.0" dy="4.0" in="blurOut2" result="blurOut3"/><feBlend in="SourceGraphic" in2="blurOut3" mode="normal"/></filter></defs><g><!--cluster SensorSubsystem--><rect fill="#FFFFFF" filter="url(#fxdqclqc42g8l)" height="83" style="stroke: #000000; stroke-width: 1.5;" width="142" x="14" y="16"/><rect fill="#FFFFFF" height="10" style="stroke: #000000; stroke-width: 1.5;" width="15" x="136" y="21"/><rect fill="#FFFFFF" height="2" style="stroke: #000000; stroke-width: 1.5;" width="4" x="134" y="23"/><rect fill="#FFFFFF" height="2" style="stroke: #000000; stroke-width: 1.5;" width="4" x="134" y="27"/><text fill="#000000" font-family="sans-serif" font-size="14" font-weight="bold" lengthAdjust="spacingAndGlyphs" textLength="126" x="22" y="42.5352">SensorSubsystem</text><!--class Sensor--><rect fill="#FEFECE" filter="url(#fxdqclqc42g8l)" height="48" id="Sensor" style="stroke: #A80036; stroke-width: 1.5;" width="70" x="50" y="43"/><ellipse cx="65" cy="59" fill="#ADD1B2" rx="11" ry="11" style="stroke: #A80036; stroke-width: 1.0;"/><path d="M67.9731,64.6431 Q67.3921,64.9419 66.7529,65.0913 Q66.1138,65.2407 65.4082,65.2407 Q62.9014,65.2407 61.5815,63.5889 Q60.2617,61.937 60.2617,58.8159 Q60.2617,55.6865 61.5815,54.0347 Q62.9014,52.3828 65.4082,52.3828 Q66.1138,52.3828 66.7612,52.5322 Q67.4087,52.6816 67.9731,52.9805 L67.9731,55.7031 Q67.3423,55.1221 66.7488,54.8523 Q66.1553,54.5825 65.5244,54.5825 Q64.1797,54.5825 63.4949,55.6492 Q62.8101,56.7158 62.8101,58.8159 Q62.8101,60.9077 63.4949,61.9744 Q64.1797,63.041 65.5244,63.041 Q66.1553,63.041 66.7488,62.7712 Q67.3423,62.5015 67.9731,61.9204 Z "/><text fill="#000000" font-family="sans-serif" font-size="12" lengthAdjust="spacingAndGlyphs" textLength="38" x="79" y="63.5352">Sensor</text><line style="stroke: #A80036; stroke-width: 1.5;" x1="51" x2="119" y1="75" y2="75"/><line style="stroke: #A80036; stroke-width: 1.5;" x1="51" x2="119" y1="83" y2="83"/><ellipse cx="85" cy="156" fill="#FEFECE" filter="url(#fxdqclqc42g8l)" rx="5" ry="5" style="stroke: #A80036; stroke-width: 1.5;"/><text fill="#000000" font-family="sans-serif" font-size="12" lengthAdjust="spacingAndGlyphs" textLength="77" x="46.5" y="172.6016">SensorAccess</text><!--link Sensor to Sensorlol137--><path d="M85,91.3196 C85,111.7007 85,139.247 85,150.6827 " fill="none" id="Sensor-Sensorlol137" style="stroke: #A80036; stroke-width: 1.0;"/><!--
@startuml Diagrams/SensorSubsystemClassDiagram
component SensorSubsystem {
    class Sensor {

    }
}
Sensor - -() SensorAccess

@enduml

PlantUML version 1.2018.01(Mon Jan 29 02:08:22 CST 2018)
(GPL source distribution)
Java Runtime: Java(TM) SE Runtime Environment
JVM: Java HotSpot(TM) 64-Bit Server VM
Java Version: 9+181
Operating System: Mac OS X
OS Version: 10.12.6
Default Encoding: UTF-8
Language: zh
Country: CN
--></g></svg>