<?xml version="1.0" encoding="UTF-8" standalone="no"?><svg xmlns="http://www.w3.org/2000/svg" xmlns:xlink="http://www.w3.org/1999/xlink" contentScriptType="application/ecmascript" contentStyleType="text/css" height="458px" preserveAspectRatio="none" style="width:1172px;height:458px;" version="1.1" viewBox="0 0 1172 458"
    width="1172px" zoomAndPan="magnify"><defs><filter height="300%" id="f60kng3mrwdnj" width="300%" x="-1" y="-1"><feGaussianBlur result="blurOut" stdDeviation="2.0"/><feColorMatrix in="blurOut" result="blurOut2" type="matrix" values="0 0 0 0 0 0 0 0 0 0 0 0 0 0 0 0 0 0 .4 0"/><feOffset dx="4.0" dy="4.0" in="blurOut2" result="blurOut3"/><feBlend in="SourceGraphic" in2="blurOut3" mode="normal"/></filter></defs><g><!--cluster UISubsystem--><rect fill="#FFFFFF" filter="url(#f60kng3mrwdnj)" height="431" style="stroke: #000000; stroke-width: 1.5;" width="903" x="14" y="16"/><rect fill="#FFFFFF" height="10" style="stroke: #000000; stroke-width: 1.5;" width="15" x="897" y="21"/><rect fill="#FFFFFF" height="2" style="stroke: #000000; stroke-width: 1.5;" width="4" x="895" y="23"/><rect fill="#FFFFFF" height="2" style="stroke: #000000; stroke-width: 1.5;" width="4" x="895" y="27"/><text fill="#000000" font-family="sans-serif" font-size="14" font-weight="bold" lengthAdjust="spacingAndGlyphs" textLength="93" x="419" y="42.5352">UISubsystem</text><!--class RegisterViewModel--><rect fill="#FEFECE" filter="url(#f60kng3mrwdnj)" height="54.2656" id="RegisterViewModel" style="stroke: #A80036; stroke-width: 1.5;" width="141" x="57.5" y="43"/><ellipse cx="72.5" cy="62.1328" fill="#ADD1B2" rx="11" ry="11" style="stroke: #A80036; stroke-width: 1.0;"/><path d="M75.4731,67.7759 Q74.8921,68.0747 74.2529,68.2241 Q73.6138,68.3735 72.9082,68.3735 Q70.4014,68.3735 69.0815,66.7217 Q67.7617,65.0698 67.7617,61.9487 Q67.7617,58.8193 69.0815,57.1675 Q70.4014,55.5156 72.9082,55.5156 Q73.6138,55.5156 74.2612,55.665 Q74.9087,55.8145 75.4731,56.1133 L75.4731,58.8359 Q74.8423,58.2549 74.2488,57.9851 Q73.6553,57.7153 73.0244,57.7153 Q71.6797,57.7153 70.9949,58.782 Q70.3101,59.8486 70.3101,61.9487 Q70.3101,64.0405 70.9949,65.1072 Q71.6797,66.1738 73.0244,66.1738 Q73.6553,66.1738 74.2488,65.9041 Q74.8423,65.6343 75.4731,65.0532 Z "/><text fill="#000000" font-family="sans-serif" font-size="12" font-style="italic" lengthAdjust="spacingAndGlyphs" textLength="72" x="105" y="59.6016">«viewModel»</text><text fill="#000000" font-family="sans-serif" font-size="12" lengthAdjust="spacingAndGlyphs" textLength="109" x="86.5" y="73.7344">RegisterViewModel</text><line style="stroke: #A80036; stroke-width: 1.5;" x1="58.5" x2="197.5" y1="81.2656" y2="81.2656"/><line style="stroke: #A80036; stroke-width: 1.5;" x1="58.5" x2="197.5" y1="89.2656" y2="89.2656"/><!--class LocalVSSManagerViewModel--><rect fill="#FEFECE" filter="url(#f60kng3mrwdnj)" height="54.2656" id="LocalVSSManagerViewModel" style="stroke: #A80036; stroke-width: 1.5;" width="193" x="233.5" y="43"/><ellipse cx="248.5" cy="62.1328" fill="#ADD1B2" rx="11" ry="11" style="stroke: #A80036; stroke-width: 1.0;"/><path d="M251.4731,67.7759 Q250.8921,68.0747 250.2529,68.2241 Q249.6138,68.3735 248.9082,68.3735 Q246.4014,68.3735 245.0815,66.7217 Q243.7617,65.0698 243.7617,61.9487 Q243.7617,58.8193 245.0815,57.1675 Q246.4014,55.5156 248.9082,55.5156 Q249.6138,55.5156 250.2612,55.665 Q250.9087,55.8145 251.4731,56.1133 L251.4731,58.8359 Q250.8423,58.2549 250.2488,57.9851 Q249.6553,57.7153 249.0244,57.7153 Q247.6797,57.7153 246.9949,58.782 Q246.3101,59.8486 246.3101,61.9487 Q246.3101,64.0405 246.9949,65.1072 Q247.6797,66.1738 249.0244,66.1738 Q249.6553,66.1738 250.2488,65.9041 Q250.8423,65.6343 251.4731,65.0532 Z "/><text fill="#000000" font-family="sans-serif" font-size="12" font-style="italic" lengthAdjust="spacingAndGlyphs" textLength="72" x="307" y="59.6016">«viewModel»</text><text fill="#000000" font-family="sans-serif" font-size="12" lengthAdjust="spacingAndGlyphs" textLength="161" x="262.5" y="73.7344">LocalVSSManagerViewModel</text><line style="stroke: #A80036; stroke-width: 1.5;" x1="234.5" x2="425.5" y1="81.2656" y2="81.2656"/><line style="stroke: #A80036; stroke-width: 1.5;" x1="234.5" x2="425.5" y1="89.2656" y2="89.2656"/><!--class LoginViewModel--><rect fill="#FEFECE" filter="url(#f60kng3mrwdnj)" height="54.2656" id="LoginViewModel" style="stroke: #A80036; stroke-width: 1.5;" width="124" x="462" y="43"/><ellipse cx="477" cy="62.1328" fill="#ADD1B2" rx="11" ry="11" style="stroke: #A80036; stroke-width: 1.0;"/><path d="M479.9731,67.7759 Q479.3921,68.0747 478.7529,68.2241 Q478.1138,68.3735 477.4082,68.3735 Q474.9014,68.3735 473.5815,66.7217 Q472.2617,65.0698 472.2617,61.9487 Q472.2617,58.8193 473.5815,57.1675 Q474.9014,55.5156 477.4082,55.5156 Q478.1138,55.5156 478.7612,55.665 Q479.4087,55.8145 479.9731,56.1133 L479.9731,58.8359 Q479.3423,58.2549 478.7488,57.9851 Q478.1553,57.7153 477.5244,57.7153 Q476.1797,57.7153 475.4949,58.782 Q474.8101,59.8486 474.8101,61.9487 Q474.8101,64.0405 475.4949,65.1072 Q476.1797,66.1738 477.5244,66.1738 Q478.1553,66.1738 478.7488,65.9041 Q479.3423,65.6343 479.9731,65.0532 Z "/><text fill="#000000" font-family="sans-serif" font-size="12" font-style="italic" lengthAdjust="spacingAndGlyphs" textLength="72" x="501" y="59.6016">«viewModel»</text><text fill="#000000" font-family="sans-serif" font-size="12" lengthAdjust="spacingAndGlyphs" textLength="92" x="491" y="73.7344">LoginViewModel</text><line style="stroke: #A80036; stroke-width: 1.5;" x1="463" x2="585" y1="81.2656" y2="81.2656"/><line style="stroke: #A80036; stroke-width: 1.5;" x1="463" x2="585" y1="89.2656" y2="89.2656"/><!--class PreviewLocalMapViewModel--><rect fill="#FEFECE" filter="url(#f60kng3mrwdnj)" height="54.2656" id="PreviewLocalMapViewModel" style="stroke: #A80036; stroke-width: 1.5;" width="192" x="621" y="43"/><ellipse cx="636" cy="62.1328" fill="#ADD1B2" rx="11" ry="11" style="stroke: #A80036; stroke-width: 1.0;"/><path d="M638.9731,67.7759 Q638.3921,68.0747 637.7529,68.2241 Q637.1138,68.3735 636.4082,68.3735 Q633.9014,68.3735 632.5815,66.7217 Q631.2617,65.0698 631.2617,61.9487 Q631.2617,58.8193 632.5815,57.1675 Q633.9014,55.5156 636.4082,55.5156 Q637.1138,55.5156 637.7612,55.665 Q638.4087,55.8145 638.9731,56.1133 L638.9731,58.8359 Q638.3423,58.2549 637.7488,57.9851 Q637.1553,57.7153 636.5244,57.7153 Q635.1797,57.7153 634.4949,58.782 Q633.8101,59.8486 633.8101,61.9487 Q633.8101,64.0405 634.4949,65.1072 Q635.1797,66.1738 636.5244,66.1738 Q637.1553,66.1738 637.7488,65.9041 Q638.3423,65.6343 638.9731,65.0532 Z "/><text fill="#000000" font-family="sans-serif" font-size="12" font-style="italic" lengthAdjust="spacingAndGlyphs" textLength="72" x="694" y="59.6016">«viewModel»</text><text fill="#000000" font-family="sans-serif" font-size="12" lengthAdjust="spacingAndGlyphs" textLength="160" x="650" y="73.7344">PreviewLocalMapViewModel</text><line style="stroke: #A80036; stroke-width: 1.5;" x1="622" x2="812" y1="81.2656" y2="81.2656"/><line style="stroke: #A80036; stroke-width: 1.5;" x1="622" x2="812" y1="89.2656" y2="89.2656"/><!--class PreviewLocalConcertViewModel--><rect fill="#FEFECE" filter="url(#f60kng3mrwdnj)" height="54.2656" id="PreviewLocalConcertViewModel" style="stroke: #A80036; stroke-width: 1.5;" width="211" x="22.5" y="157"/><ellipse cx="37.5" cy="176.1328" fill="#ADD1B2" rx="11" ry="11" style="stroke: #A80036; stroke-width: 1.0;"/><path d="M40.4731,181.7759 Q39.8921,182.0747 39.2529,182.2241 Q38.6138,182.3735 37.9082,182.3735 Q35.4014,182.3735 34.0815,180.7217 Q32.7617,179.0698 32.7617,175.9487 Q32.7617,172.8193 34.0815,171.1675 Q35.4014,169.5156 37.9082,169.5156 Q38.6138,169.5156 39.2612,169.665 Q39.9087,169.8145 40.4731,170.1133 L40.4731,172.8359 Q39.8423,172.2549 39.2488,171.9851 Q38.6553,171.7153 38.0244,171.7153 Q36.6797,171.7153 35.9949,172.782 Q35.3101,173.8486 35.3101,175.9487 Q35.3101,178.0405 35.9949,179.1072 Q36.6797,180.1738 38.0244,180.1738 Q38.6553,180.1738 39.2488,179.9041 Q39.8423,179.6343 40.4731,179.0532 Z "/><text fill="#000000" font-family="sans-serif" font-size="12" font-style="italic" lengthAdjust="spacingAndGlyphs" textLength="72" x="105" y="173.6016">«viewModel»</text><text fill="#000000" font-family="sans-serif" font-size="12" lengthAdjust="spacingAndGlyphs" textLength="179" x="51.5" y="187.7344">PreviewLocalConcertViewModel</text><line style="stroke: #A80036; stroke-width: 1.5;" x1="23.5" x2="232.5" y1="195.2656" y2="195.2656"/><line style="stroke: #A80036; stroke-width: 1.5;" x1="23.5" x2="232.5" y1="203.2656" y2="203.2656"/><!--class CreateVSSViewModel--><rect fill="#FEFECE" filter="url(#f60kng3mrwdnj)" height="54.2656" id="CreateVSSViewModel" style="stroke: #A80036; stroke-width: 1.5;" width="152" x="269" y="157"/><ellipse cx="284" cy="176.1328" fill="#ADD1B2" rx="11" ry="11" style="stroke: #A80036; stroke-width: 1.0;"/><path d="M286.9731,181.7759 Q286.3921,182.0747 285.7529,182.2241 Q285.1138,182.3735 284.4082,182.3735 Q281.9014,182.3735 280.5815,180.7217 Q279.2617,179.0698 279.2617,175.9487 Q279.2617,172.8193 280.5815,171.1675 Q281.9014,169.5156 284.4082,169.5156 Q285.1138,169.5156 285.7612,169.665 Q286.4087,169.8145 286.9731,170.1133 L286.9731,172.8359 Q286.3423,172.2549 285.7488,171.9851 Q285.1553,171.7153 284.5244,171.7153 Q283.1797,171.7153 282.4949,172.782 Q281.8101,173.8486 281.8101,175.9487 Q281.8101,178.0405 282.4949,179.1072 Q283.1797,180.1738 284.5244,180.1738 Q285.1553,180.1738 285.7488,179.9041 Q286.3423,179.6343 286.9731,179.0532 Z "/><text fill="#000000" font-family="sans-serif" font-size="12" font-style="italic" lengthAdjust="spacingAndGlyphs" textLength="72" x="322" y="173.6016">«viewModel»</text><text fill="#000000" font-family="sans-serif" font-size="12" lengthAdjust="spacingAndGlyphs" textLength="120" x="298" y="187.7344">CreateVSSViewModel</text><line style="stroke: #A80036; stroke-width: 1.5;" x1="270" x2="420" y1="195.2656" y2="195.2656"/><line style="stroke: #A80036; stroke-width: 1.5;" x1="270" x2="420" y1="203.2656" y2="203.2656"/><!--class CreateMapVSSViewModel--><rect fill="#FEFECE" filter="url(#f60kng3mrwdnj)" height="54.2656" id="CreateMapVSSViewModel" style="stroke: #A80036; stroke-width: 1.5;" width="177" x="456.5" y="157"/><ellipse cx="471.5" cy="176.1328" fill="#ADD1B2" rx="11" ry="11" style="stroke: #A80036; stroke-width: 1.0;"/><path d="M474.4731,181.7759 Q473.8921,182.0747 473.2529,182.2241 Q472.6138,182.3735 471.9082,182.3735 Q469.4014,182.3735 468.0815,180.7217 Q466.7617,179.0698 466.7617,175.9487 Q466.7617,172.8193 468.0815,171.1675 Q469.4014,169.5156 471.9082,169.5156 Q472.6138,169.5156 473.2612,169.665 Q473.9087,169.8145 474.4731,170.1133 L474.4731,172.8359 Q473.8423,172.2549 473.2488,171.9851 Q472.6553,171.7153 472.0244,171.7153 Q470.6797,171.7153 469.9949,172.782 Q469.3101,173.8486 469.3101,175.9487 Q469.3101,178.0405 469.9949,179.1072 Q470.6797,180.1738 472.0244,180.1738 Q472.6553,180.1738 473.2488,179.9041 Q473.8423,179.6343 474.4731,179.0532 Z "/><text fill="#000000" font-family="sans-serif" font-size="12" font-style="italic" lengthAdjust="spacingAndGlyphs" textLength="72" x="522" y="173.6016">«viewModel»</text><text fill="#000000" font-family="sans-serif" font-size="12" lengthAdjust="spacingAndGlyphs" textLength="145" x="485.5" y="187.7344">CreateMapVSSViewModel</text><line style="stroke: #A80036; stroke-width: 1.5;" x1="457.5" x2="632.5" y1="195.2656" y2="195.2656"/><line style="stroke: #A80036; stroke-width: 1.5;" x1="457.5" x2="632.5" y1="203.2656" y2="203.2656"/><!--class CreateConcertVSSViewModel--><rect fill="#FEFECE" filter="url(#f60kng3mrwdnj)" height="54.2656" id="CreateConcertVSSViewModel" style="stroke: #A80036; stroke-width: 1.5;" width="196" x="669" y="157"/><ellipse cx="684" cy="176.1328" fill="#ADD1B2" rx="11" ry="11" style="stroke: #A80036; stroke-width: 1.0;"/><path d="M686.9731,181.7759 Q686.3921,182.0747 685.7529,182.2241 Q685.1138,182.3735 684.4082,182.3735 Q681.9014,182.3735 680.5815,180.7217 Q679.2617,179.0698 679.2617,175.9487 Q679.2617,172.8193 680.5815,171.1675 Q681.9014,169.5156 684.4082,169.5156 Q685.1138,169.5156 685.7612,169.665 Q686.4087,169.8145 686.9731,170.1133 L686.9731,172.8359 Q686.3423,172.2549 685.7488,171.9851 Q685.1553,171.7153 684.5244,171.7153 Q683.1797,171.7153 682.4949,172.782 Q681.8101,173.8486 681.8101,175.9487 Q681.8101,178.0405 682.4949,179.1072 Q683.1797,180.1738 684.5244,180.1738 Q685.1553,180.1738 685.7488,179.9041 Q686.3423,179.6343 686.9731,179.0532 Z "/><text fill="#000000" font-family="sans-serif" font-size="12" font-style="italic" lengthAdjust="spacingAndGlyphs" textLength="72" x="744" y="173.6016">«viewModel»</text><text fill="#000000" font-family="sans-serif" font-size="12" lengthAdjust="spacingAndGlyphs" textLength="164" x="698" y="187.7344">CreateConcertVSSViewModel</text><line style="stroke: #A80036; stroke-width: 1.5;" x1="670" x2="864" y1="195.2656" y2="195.2656"/><line style="stroke: #A80036; stroke-width: 1.5;" x1="670" x2="864" y1="203.2656" y2="203.2656"/><!--class PreviewOnlineMapViewModel--><rect fill="#FEFECE" filter="url(#f60kng3mrwdnj)" height="54.2656" id="PreviewOnlineMapViewModel" style="stroke: #A80036; stroke-width: 1.5;" width="199" x="22.5" y="271"/><ellipse cx="37.5" cy="290.1328" fill="#ADD1B2" rx="11" ry="11" style="stroke: #A80036; stroke-width: 1.0;"/><path d="M40.4731,295.7759 Q39.8921,296.0747 39.2529,296.2241 Q38.6138,296.3735 37.9082,296.3735 Q35.4014,296.3735 34.0815,294.7217 Q32.7617,293.0698 32.7617,289.9487 Q32.7617,286.8193 34.0815,285.1675 Q35.4014,283.5156 37.9082,283.5156 Q38.6138,283.5156 39.2612,283.665 Q39.9087,283.8145 40.4731,284.1133 L40.4731,286.8359 Q39.8423,286.2549 39.2488,285.9851 Q38.6553,285.7153 38.0244,285.7153 Q36.6797,285.7153 35.9949,286.782 Q35.3101,287.8486 35.3101,289.9487 Q35.3101,292.0405 35.9949,293.1072 Q36.6797,294.1738 38.0244,294.1738 Q38.6553,294.1738 39.2488,293.9041 Q39.8423,293.6343 40.4731,293.0532 Z "/><text fill="#000000" font-family="sans-serif" font-size="12" font-style="italic" lengthAdjust="spacingAndGlyphs" textLength="72" x="99" y="287.6016">«viewModel»</text><text fill="#000000" font-family="sans-serif" font-size="12" lengthAdjust="spacingAndGlyphs" textLength="167" x="51.5" y="301.7344">PreviewOnlineMapViewModel</text><line style="stroke: #A80036; stroke-width: 1.5;" x1="23.5" x2="220.5" y1="309.2656" y2="309.2656"/><line style="stroke: #A80036; stroke-width: 1.5;" x1="23.5" x2="220.5" y1="317.2656" y2="317.2656"/><!--class PreviewOnlineConcertViewModel--><rect fill="#FEFECE" filter="url(#f60kng3mrwdnj)" height="54.2656" id="PreviewOnlineConcertViewModel" style="stroke: #A80036; stroke-width: 1.5;" width="218" x="257" y="271"/><ellipse cx="272" cy="290.1328" fill="#ADD1B2" rx="11" ry="11" style="stroke: #A80036; stroke-width: 1.0;"/><path d="M274.9731,295.7759 Q274.3921,296.0747 273.7529,296.2241 Q273.1138,296.3735 272.4082,296.3735 Q269.9014,296.3735 268.5815,294.7217 Q267.2617,293.0698 267.2617,289.9487 Q267.2617,286.8193 268.5815,285.1675 Q269.9014,283.5156 272.4082,283.5156 Q273.1138,283.5156 273.7612,283.665 Q274.4087,283.8145 274.9731,284.1133 L274.9731,286.8359 Q274.3423,286.2549 273.7488,285.9851 Q273.1553,285.7153 272.5244,285.7153 Q271.1797,285.7153 270.4949,286.782 Q269.8101,287.8486 269.8101,289.9487 Q269.8101,292.0405 270.4949,293.1072 Q271.1797,294.1738 272.5244,294.1738 Q273.1553,294.1738 273.7488,293.9041 Q274.3423,293.6343 274.9731,293.0532 Z "/><text fill="#000000" font-family="sans-serif" font-size="12" font-style="italic" lengthAdjust="spacingAndGlyphs" textLength="72" x="343" y="287.6016">«viewModel»</text><text fill="#000000" font-family="sans-serif" font-size="12" lengthAdjust="spacingAndGlyphs" textLength="186" x="286" y="301.7344">PreviewOnlineConcertViewModel</text><line style="stroke: #A80036; stroke-width: 1.5;" x1="258" x2="474" y1="309.2656" y2="309.2656"/><line style="stroke: #A80036; stroke-width: 1.5;" x1="258" x2="474" y1="317.2656" y2="317.2656"/><!--class PlayMapModeVSSViewModel--><rect fill="#FEFECE" filter="url(#f60kng3mrwdnj)" height="54.2656" id="PlayMapModeVSSViewModel" style="stroke: #A80036; stroke-width: 1.5;" width="194" x="510" y="271"/><ellipse cx="525" cy="290.1328" fill="#ADD1B2" rx="11" ry="11" style="stroke: #A80036; stroke-width: 1.0;"/><path d="M527.9731,295.7759 Q527.3921,296.0747 526.7529,296.2241 Q526.1138,296.3735 525.4082,296.3735 Q522.9014,296.3735 521.5815,294.7217 Q520.2617,293.0698 520.2617,289.9487 Q520.2617,286.8193 521.5815,285.1675 Q522.9014,283.5156 525.4082,283.5156 Q526.1138,283.5156 526.7612,283.665 Q527.4087,283.8145 527.9731,284.1133 L527.9731,286.8359 Q527.3423,286.2549 526.7488,285.9851 Q526.1553,285.7153 525.5244,285.7153 Q524.1797,285.7153 523.4949,286.782 Q522.8101,287.8486 522.8101,289.9487 Q522.8101,292.0405 523.4949,293.1072 Q524.1797,294.1738 525.5244,294.1738 Q526.1553,294.1738 526.7488,293.9041 Q527.3423,293.6343 527.9731,293.0532 Z "/><text fill="#000000" font-family="sans-serif" font-size="12" font-style="italic" lengthAdjust="spacingAndGlyphs" textLength="72" x="584" y="287.6016">«viewModel»</text><text fill="#000000" font-family="sans-serif" font-size="12" lengthAdjust="spacingAndGlyphs" textLength="162" x="539" y="301.7344">PlayMapModeVSSViewModel</text><line style="stroke: #A80036; stroke-width: 1.5;" x1="511" x2="703" y1="309.2656" y2="309.2656"/><line style="stroke: #A80036; stroke-width: 1.5;" x1="511" x2="703" y1="317.2656" y2="317.2656"/><!--class AdjustSensorViewModel--><rect fill="#FEFECE" filter="url(#f60kng3mrwdnj)" height="54.2656" id="AdjustSensorViewModel" style="stroke: #A80036; stroke-width: 1.5;" width="169" x="739.5" y="271"/><ellipse cx="754.5" cy="290.1328" fill="#ADD1B2" rx="11" ry="11" style="stroke: #A80036; stroke-width: 1.0;"/><path d="M757.4731,295.7759 Q756.8921,296.0747 756.2529,296.2241 Q755.6138,296.3735 754.9082,296.3735 Q752.4014,296.3735 751.0815,294.7217 Q749.7617,293.0698 749.7617,289.9487 Q749.7617,286.8193 751.0815,285.1675 Q752.4014,283.5156 754.9082,283.5156 Q755.6138,283.5156 756.2612,283.665 Q756.9087,283.8145 757.4731,284.1133 L757.4731,286.8359 Q756.8423,286.2549 756.2488,285.9851 Q755.6553,285.7153 755.0244,285.7153 Q753.6797,285.7153 752.9949,286.782 Q752.3101,287.8486 752.3101,289.9487 Q752.3101,292.0405 752.9949,293.1072 Q753.6797,294.1738 755.0244,294.1738 Q755.6553,294.1738 756.2488,293.9041 Q756.8423,293.6343 757.4731,293.0532 Z "/><text fill="#000000" font-family="sans-serif" font-size="12" font-style="italic" lengthAdjust="spacingAndGlyphs" textLength="72" x="801" y="287.6016">«viewModel»</text><text fill="#000000" font-family="sans-serif" font-size="12" lengthAdjust="spacingAndGlyphs" textLength="137" x="768.5" y="301.7344">AdjustSensorViewModel</text><line style="stroke: #A80036; stroke-width: 1.5;" x1="740.5" x2="907.5" y1="309.2656" y2="309.2656"/><line style="stroke: #A80036; stroke-width: 1.5;" x1="740.5" x2="907.5" y1="317.2656" y2="317.2656"/><!--class PlayConcertModeVSSViewModel--><rect fill="#FEFECE" filter="url(#f60kng3mrwdnj)" height="54.2656" id="PlayConcertModeVSSViewModel" style="stroke: #A80036; stroke-width: 1.5;" width="213" x="22.5" y="385"/><ellipse cx="37.5" cy="404.1328" fill="#ADD1B2" rx="11" ry="11" style="stroke: #A80036; stroke-width: 1.0;"/><path d="M40.4731,409.7759 Q39.8921,410.0747 39.2529,410.2241 Q38.6138,410.3735 37.9082,410.3735 Q35.4014,410.3735 34.0815,408.7217 Q32.7617,407.0698 32.7617,403.9487 Q32.7617,400.8193 34.0815,399.1675 Q35.4014,397.5156 37.9082,397.5156 Q38.6138,397.5156 39.2612,397.665 Q39.9087,397.8145 40.4731,398.1133 L40.4731,400.8359 Q39.8423,400.2549 39.2488,399.9851 Q38.6553,399.7153 38.0244,399.7153 Q36.6797,399.7153 35.9949,400.782 Q35.3101,401.8486 35.3101,403.9487 Q35.3101,406.0405 35.9949,407.1072 Q36.6797,408.1738 38.0244,408.1738 Q38.6553,408.1738 39.2488,407.9041 Q39.8423,407.6343 40.4731,407.0532 Z "/><text fill="#000000" font-family="sans-serif" font-size="12" font-style="italic" lengthAdjust="spacingAndGlyphs" textLength="72" x="106" y="401.6016">«viewModel»</text><text fill="#000000" font-family="sans-serif" font-size="12" lengthAdjust="spacingAndGlyphs" textLength="181" x="51.5" y="415.7344">PlayConcertModeVSSViewModel</text><line style="stroke: #A80036; stroke-width: 1.5;" x1="23.5" x2="234.5" y1="423.2656" y2="423.2656"/><line style="stroke: #A80036; stroke-width: 1.5;" x1="23.5" x2="234.5" y1="431.2656" y2="431.2656"/><!--class OnlineVSSViewerViewModel--><rect fill="#FEFECE" filter="url(#f60kng3mrwdnj)" height="54.2656" id="OnlineVSSViewerViewModel" style="stroke: #A80036; stroke-width: 1.5;" width="189" x="270.5" y="385"/><ellipse cx="285.5" cy="404.1328" fill="#ADD1B2" rx="11" ry="11" style="stroke: #A80036; stroke-width: 1.0;"/><path d="M288.4731,409.7759 Q287.8921,410.0747 287.2529,410.2241 Q286.6138,410.3735 285.9082,410.3735 Q283.4014,410.3735 282.0815,408.7217 Q280.7617,407.0698 280.7617,403.9487 Q280.7617,400.8193 282.0815,399.1675 Q283.4014,397.5156 285.9082,397.5156 Q286.6138,397.5156 287.2612,397.665 Q287.9087,397.8145 288.4731,398.1133 L288.4731,400.8359 Q287.8423,400.2549 287.2488,399.9851 Q286.6553,399.7153 286.0244,399.7153 Q284.6797,399.7153 283.9949,400.782 Q283.3101,401.8486 283.3101,403.9487 Q283.3101,406.0405 283.9949,407.1072 Q284.6797,408.1738 286.0244,408.1738 Q286.6553,408.1738 287.2488,407.9041 Q287.8423,407.6343 288.4731,407.0532 Z "/><text fill="#000000" font-family="sans-serif" font-size="12" font-style="italic" lengthAdjust="spacingAndGlyphs" textLength="72" x="342" y="401.6016">«viewModel»</text><text fill="#000000" font-family="sans-serif" font-size="12" lengthAdjust="spacingAndGlyphs" textLength="157" x="299.5" y="415.7344">OnlineVSSViewerViewModel</text><line style="stroke: #A80036; stroke-width: 1.5;" x1="271.5" x2="458.5" y1="423.2656" y2="423.2656"/><line style="stroke: #A80036; stroke-width: 1.5;" x1="271.5" x2="458.5" y1="431.2656" y2="431.2656"/><path d="M925.5,57.5 L925.5,82.8105 L1160.5,82.8105 L1160.5,67.5 L1150.5,57.5 L925.5,57.5 " fill="#FBFB77" filter="url(#f60kng3mrwdnj)" style="stroke: #A80036; stroke-width: 1.0;"/><path d="M1150.5,57.5 L1150.5,67.5 L1160.5,67.5 L1150.5,57.5 " fill="#FBFB77" style="stroke: #A80036; stroke-width: 1.0;"/><text fill="#000000" font-family="sans-serif" font-size="13" lengthAdjust="spacingAndGlyphs" textLength="214" x="931.5" y="75.0684">This diagram will be updated later</text><!--link RegisterViewModel to LocalVSSManagerViewModel--><!--link LocalVSSManagerViewModel to LoginViewModel--><!--link LoginViewModel to PreviewLocalMapViewModel--><!--link RegisterViewModel to PreviewLocalConcertViewModel--><!--link PreviewLocalConcertViewModel to CreateVSSViewModel--><!--link CreateVSSViewModel to CreateMapVSSViewModel--><!--link CreateMapVSSViewModel to CreateConcertVSSViewModel--><!--link PreviewLocalConcertViewModel to PreviewOnlineMapViewModel--><!--link PreviewOnlineMapViewModel to PreviewOnlineConcertViewModel--><!--link PreviewOnlineConcertViewModel to PlayMapModeVSSViewModel--><!--link PlayMapModeVSSViewModel to AdjustSensorViewModel--><!--link PreviewOnlineMapViewModel to PlayConcertModeVSSViewModel--><!--link PlayConcertModeVSSViewModel to OnlineVSSViewerViewModel--><!--
@startuml Diagrams/UISubsystemClassDiagram
note "This diagram will be updated later" as notes

component UISubsystem {
    class RegisterViewModel <<viewModel>> {
    }
    class LocalVSSManagerViewModel <<viewModel>> {

    }
    class LoginViewModel <<viewModel>> {

    }
    class PreviewLocalMapViewModel <<viewModel>> {

    }
    class PreviewLocalConcertViewModel <<viewModel>> {

    }
    class CreateVSSViewModel <<viewModel>> {

    }
    class CreateMapVSSViewModel <<viewModel>> {

    }
    class CreateConcertVSSViewModel <<viewModel>> {

    }
    class PreviewOnlineMapViewModel <<viewModel>> {

    }
    class PreviewOnlineConcertViewModel <<viewModel>> {

    }
    class PlayMapModeVSSViewModel <<viewModel>> {

    }

    class AdjustSensorViewModel <<viewModel>> {

    }
    class PlayConcertModeVSSViewModel <<viewModel>> {

    }

    class OnlineVSSViewerViewModel <<viewModel>> {

    }
}

@enduml

PlantUML version 1.2018.01(Mon Jan 29 02:08:22 CST 2018)
(GPL source distribution)
Java Runtime: Java(TM) SE Runtime Environment
JVM: Java HotSpot(TM) 64-Bit Server VM
Java Version: 9+181
Operating System: Mac OS X
OS Version: 10.12.6
Default Encoding: UTF-8
Language: zh
Country: CN
--></g></svg>