<?xml version="1.0" encoding="UTF-8" standalone="no"?><svg xmlns="http://www.w3.org/2000/svg" xmlns:xlink="http://www.w3.org/1999/xlink" contentScriptType="application/ecmascript" contentStyleType="text/css" height="384px" preserveAspectRatio="none" style="width:769px;height:384px;" version="1.1" viewBox="0 0 769 384"
    width="769px" zoomAndPan="magnify"><defs><filter height="300%" id="f1kbkgejkbxvib" width="300%" x="-1" y="-1"><feGaussianBlur result="blurOut" stdDeviation="2.0"/><feColorMatrix in="blurOut" result="blurOut2" type="matrix" values="0 0 0 0 0 0 0 0 0 0 0 0 0 0 0 0 0 0 .4 0"/><feOffset dx="4.0" dy="4.0" in="blurOut2" result="blurOut3"/><feBlend in="SourceGraphic" in2="blurOut3" mode="normal"/></filter></defs><g><rect fill="#FFFFFF" filter="url(#f1kbkgejkbxvib)" height="51" style="stroke: #A80036; stroke-width: 1.0;" width="10" x="21.5" y="96.4883"/><rect fill="#FFFFFF" filter="url(#f1kbkgejkbxvib)" height="59.3105" style="stroke: #A80036; stroke-width: 1.0;" width="10" x="142.5" y="117.4883"/><rect fill="#FFFFFF" filter="url(#f1kbkgejkbxvib)" height="117.9316" style="stroke: #A80036; stroke-width: 1.0;" width="10" x="317.5" y="176.7988"/><rect fill="#FFFFFF" filter="url(#f1kbkgejkbxvib)" height="59.3105" style="stroke: #A80036; stroke-width: 1.0;" width="10" x="507" y="206.1094"/><rect fill="#FFFFFF" filter="url(#f1kbkgejkbxvib)" height="59.3105" style="stroke: #A80036; stroke-width: 1.0;" width="10" x="507" y="294.7305"/><rect fill="#FFFFFF" filter="url(#f1kbkgejkbxvib)" height="30" style="stroke: #A80036; stroke-width: 1.0;" width="10" x="688" y="235.4199"/><rect fill="#FFFFFF" filter="url(#f1kbkgejkbxvib)" height="30" style="stroke: #A80036; stroke-width: 1.0;" width="10" x="688" y="324.041"/><line style="stroke: #A80036; stroke-width: 1.0; stroke-dasharray: 5.0,5.0;" x1="26" x2="26" y1="86.4883" y2="372.3516"/><line style="stroke: #A80036; stroke-width: 1.0; stroke-dasharray: 5.0,5.0;" x1="147" x2="147" y1="86.4883" y2="372.3516"/><line style="stroke: #A80036; stroke-width: 1.0; stroke-dasharray: 5.0,5.0;" x1="322" x2="322" y1="86.4883" y2="372.3516"/><line style="stroke: #A80036; stroke-width: 1.0; stroke-dasharray: 5.0,5.0;" x1="512" x2="512" y1="86.4883" y2="372.3516"/><line style="stroke: #A80036; stroke-width: 1.0; stroke-dasharray: 5.0,5.0;" x1="693" x2="693" y1="86.4883" y2="372.3516"/><text fill="#000000" font-family="sans-serif" font-size="14" lengthAdjust="spacingAndGlyphs" text-decoration="underline" textLength="31" x="8" y="83.5352">User</text><line style="stroke: #000000; stroke-width: 1.0;" x1="8" x2="39" y1="85.5352" y2="85.5352"/><ellipse cx="26.5" cy="13" fill="#FEFECE" filter="url(#f1kbkgejkbxvib)" rx="8" ry="8" style="stroke: #A80036; stroke-width: 2.0;"/><path d="M26.5,21 L26.5,48 M13.5,29 L39.5,29 M26.5,48 L13.5,63 M26.5,48 L39.5,63 " fill="none" filter="url(#f1kbkgejkbxvib)" style="stroke: #A80036; stroke-width: 2.0;"/><rect fill="#FEFECE" filter="url(#f1kbkgejkbxvib)" height="30.4883" style="stroke: #A80036; stroke-width: 1.5;" width="105" x="93" y="51"/><text fill="#000000" font-family="sans-serif" font-size="14" lengthAdjust="spacingAndGlyphs" text-decoration="underline" textLength="91" x="100" y="71.5352">:UISubsystem</text><line style="stroke: #000000; stroke-width: 1.0;" x1="100" x2="191" y1="73.5352" y2="73.5352"/><rect fill="#FEFECE" filter="url(#f1kbkgejkbxvib)" height="30.4883" style="stroke: #A80036; stroke-width: 1.5;" width="151" x="245" y="51"/><text fill="#000000" font-family="sans-serif" font-size="14" lengthAdjust="spacingAndGlyphs" text-decoration="underline" textLength="137" x="252" y="71.5352">:LocalVSSSubsystem</text><line style="stroke: #000000; stroke-width: 1.0;" x1="252" x2="389" y1="73.5352" y2="73.5352"/><rect fill="#FEFECE" filter="url(#f1kbkgejkbxvib)" height="30.4883" style="stroke: #A80036; stroke-width: 1.5;" width="200" x="410" y="51"/><text fill="#000000" font-family="sans-serif" font-size="14" lengthAdjust="spacingAndGlyphs" text-decoration="underline" textLength="186" x="417" y="71.5352">:CommunicationSubsystem</text><line style="stroke: #000000; stroke-width: 1.0;" x1="417" x2="603" y1="73.5352" y2="73.5352"/><rect fill="#FEFECE" filter="url(#f1kbkgejkbxvib)" height="30.4883" style="stroke: #A80036; stroke-width: 1.5;" width="134" x="624" y="51"/><text fill="#000000" font-family="sans-serif" font-size="14" lengthAdjust="spacingAndGlyphs" text-decoration="underline" textLength="120" x="631" y="71.5352">:ServerSubsystem</text><line style="stroke: #000000; stroke-width: 1.0;" x1="631" x2="751" y1="73.5352" y2="73.5352"/><rect fill="#FFFFFF" filter="url(#f1kbkgejkbxvib)" height="51" style="stroke: #A80036; stroke-width: 1.0;" width="10" x="21.5" y="96.4883"/><rect fill="#FFFFFF" filter="url(#f1kbkgejkbxvib)" height="59.3105" style="stroke: #A80036; stroke-width: 1.0;" width="10" x="142.5" y="117.4883"/><rect fill="#FFFFFF" filter="url(#f1kbkgejkbxvib)" height="117.9316" style="stroke: #A80036; stroke-width: 1.0;" width="10" x="317.5" y="176.7988"/><rect fill="#FFFFFF" filter="url(#f1kbkgejkbxvib)" height="59.3105" style="stroke: #A80036; stroke-width: 1.0;" width="10" x="507" y="206.1094"/><rect fill="#FFFFFF" filter="url(#f1kbkgejkbxvib)" height="59.3105" style="stroke: #A80036; stroke-width: 1.0;" width="10" x="507" y="294.7305"/><rect fill="#FFFFFF" filter="url(#f1kbkgejkbxvib)" height="30" style="stroke: #A80036; stroke-width: 1.0;" width="10" x="688" y="235.4199"/><rect fill="#FFFFFF" filter="url(#f1kbkgejkbxvib)" height="30" style="stroke: #A80036; stroke-width: 1.0;" width="10" x="688" y="324.041"/><polygon fill="#A80036" points="130.5,113.4883,140.5,117.4883,130.5,121.4883,134.5,117.4883" style="stroke: #A80036; stroke-width: 1.0;"/><line style="stroke: #A80036; stroke-width: 1.0;" x1="31.5" x2="136.5" y1="117.4883" y2="117.4883"/><text fill="#000000" font-family="sans-serif" font-size="13" lengthAdjust="spacingAndGlyphs" textLength="92" x="38.5" y="113.0566">uploadThisVSS</text><polygon fill="#A80036" points="305.5,172.7988,315.5,176.7988,305.5,180.7988,309.5,176.7988" style="stroke: #A80036; stroke-width: 1.0;"/><line style="stroke: #A80036; stroke-width: 1.0;" x1="147.5" x2="311.5" y1="176.7988" y2="176.7988"/><text fill="#000000" font-family="sans-serif" font-size="13" lengthAdjust="spacingAndGlyphs" textLength="146" x="154.5" y="172.3672">uploadThisVSS(thisVSS)</text><polygon fill="#A80036" points="495,202.1094,505,206.1094,495,210.1094,499,206.1094" style="stroke: #A80036; stroke-width: 1.0;"/><line style="stroke: #A80036; stroke-width: 1.0;" x1="327.5" x2="501" y1="206.1094" y2="206.1094"/><text fill="#000000" font-family="sans-serif" font-size="13" lengthAdjust="spacingAndGlyphs" textLength="96" x="334.5" y="201.6777">UploadVSSMeta</text><polygon fill="#A80036" points="676,231.4199,686,235.4199,676,239.4199,680,235.4199" style="stroke: #A80036; stroke-width: 1.0;"/><line style="stroke: #A80036; stroke-width: 1.0;" x1="517" x2="682" y1="235.4199" y2="235.4199"/><text fill="#000000" font-family="sans-serif" font-size="13" lengthAdjust="spacingAndGlyphs" textLength="82" x="524" y="230.9883">sendVSSMeta</text><polygon fill="#A80036" points="495,290.7305,505,294.7305,495,298.7305,499,294.7305" style="stroke: #A80036; stroke-width: 1.0;"/><line style="stroke: #A80036; stroke-width: 1.0;" x1="322.5" x2="501" y1="294.7305" y2="294.7305"/><text fill="#000000" font-family="sans-serif" font-size="13" lengthAdjust="spacingAndGlyphs" textLength="148" x="329.5" y="290.2988">uploadSoundFragments</text><polygon fill="#A80036" points="676,320.041,686,324.041,676,328.041,680,324.041" style="stroke: #A80036; stroke-width: 1.0;"/><line style="stroke: #A80036; stroke-width: 1.0;" x1="517" x2="682" y1="324.041" y2="324.041"/><text fill="#000000" font-family="sans-serif" font-size="13" lengthAdjust="spacingAndGlyphs" textLength="135" x="524" y="319.6094">sendSoundFragments</text><!--
@startuml Diagrams/UploadVSSSubsystemSequenceDiagram
hide footbox
skinparam sequenceParticipant underline

actor "User" as user
participant ":UISubsystem" as ui
participant ":LocalVSSSubsystem" as local
participant ":CommunicationSubsystem" as com
participant ":ServerSubsystem" as server

activate user
    user -> ui: uploadThisVSS
activate ui
deactivate user
    ui -> local: uploadThisVSS(thisVSS)
deactivate ui
activate local
    local -> com: UploadVSSMeta
activate com
    com -> server: sendVSSMeta
activate server
deactivate com
deactivate server
    local -> com: uploadSoundFragments
deactivate local

activate com
    com -> server: sendSoundFragments
activate server
deactivate server
deactivate com

@enduml

PlantUML version 1.2018.01(Mon Jan 29 02:08:22 CST 2018)
(GPL source distribution)
Java Runtime: Java(TM) SE Runtime Environment
JVM: Java HotSpot(TM) 64-Bit Server VM
Java Version: 9+181
Operating System: Mac OS X
OS Version: 10.12.6
Default Encoding: UTF-8
Language: zh
Country: CN
--></g></svg>