<?xml version="1.0" encoding="UTF-8" standalone="no"?><svg xmlns="http://www.w3.org/2000/svg" xmlns:xlink="http://www.w3.org/1999/xlink" contentScriptType="application/ecmascript" contentStyleType="text/css" height="335px" preserveAspectRatio="none" style="width:884px;height:335px;" version="1.1" viewBox="0 0 884 335"
    width="884px" zoomAndPan="magnify"><defs><filter height="300%" id="fytfvmpdo8y17" width="300%" x="-1" y="-1"><feGaussianBlur result="blurOut" stdDeviation="2.0"/><feColorMatrix in="blurOut" result="blurOut2" type="matrix" values="0 0 0 0 0 0 0 0 0 0 0 0 0 0 0 0 0 0 .4 0"/><feOffset dx="4.0" dy="4.0" in="blurOut2" result="blurOut3"/><feBlend in="SourceGraphic" in2="blurOut3" mode="normal"/></filter></defs><g><!--cluster UserSubsystem--><rect fill="#FFFFFF" filter="url(#fytfvmpdo8y17)" height="232" style="stroke: #000000; stroke-width: 1.5;" width="859" x="14" y="16"/><rect fill="#FFFFFF" height="10" style="stroke: #000000; stroke-width: 1.5;" width="15" x="853" y="21"/><rect fill="#FFFFFF" height="2" style="stroke: #000000; stroke-width: 1.5;" width="4" x="851" y="23"/><rect fill="#FFFFFF" height="2" style="stroke: #000000; stroke-width: 1.5;" width="4" x="851" y="27"/><text fill="#000000" font-family="sans-serif" font-size="14" font-weight="bold" lengthAdjust="spacingAndGlyphs" textLength="110" x="388.5" y="42.5352">UserSubsystem</text><!--class UserInfoControl--><rect fill="#FEFECE" filter="url(#fytfvmpdo8y17)" height="99.8203" id="UserInfoControl" style="stroke: #A80036; stroke-width: 1.5;" width="364" x="501" y="91.5"/><ellipse cx="634.75" cy="107.5" fill="#ADD1B2" rx="11" ry="11" style="stroke: #A80036; stroke-width: 1.0;"/><path d="M637.7231,113.1431 Q637.1421,113.4419 636.5029,113.5913 Q635.8638,113.7407 635.1582,113.7407 Q632.6514,113.7407 631.3315,112.0889 Q630.0117,110.437 630.0117,107.3159 Q630.0117,104.1865 631.3315,102.5347 Q632.6514,100.8828 635.1582,100.8828 Q635.8638,100.8828 636.5112,101.0322 Q637.1587,101.1816 637.7231,101.4805 L637.7231,104.2031 Q637.0923,103.6221 636.4988,103.3523 Q635.9053,103.0825 635.2744,103.0825 Q633.9297,103.0825 633.2449,104.1492 Q632.5601,105.2158 632.5601,107.3159 Q632.5601,109.4077 633.2449,110.4744 Q633.9297,111.541 635.2744,111.541 Q635.9053,111.541 636.4988,111.2712 Q637.0923,111.0015 637.7231,110.4204 Z "/><text fill="#000000" font-family="sans-serif" font-size="12" lengthAdjust="spacingAndGlyphs" textLength="88" x="655.25" y="112.0352">UserInfoControl</text><line style="stroke: #A80036; stroke-width: 1.5;" x1="502" x2="864" y1="123.5" y2="123.5"/><line style="stroke: #A80036; stroke-width: 1.5;" x1="502" x2="864" y1="131.5" y2="131.5"/><text fill="#000000" font-family="sans-serif" font-size="11" lengthAdjust="spacingAndGlyphs" textLength="352" x="507" y="146.1348">login(username: String, password: String, remember: boolean): int</text><text fill="#000000" font-family="sans-serif" font-size="11" lengthAdjust="spacingAndGlyphs" textLength="272" x="507" y="159.0898">setCurrentUser(userID: int, username: String): void</text><text fill="#000000" font-family="sans-serif" font-size="11" lengthAdjust="spacingAndGlyphs" textLength="159" x="507" y="172.0449">rememberCurrentUser(): void</text><text fill="#000000" font-family="sans-serif" font-size="11" lengthAdjust="spacingAndGlyphs" textLength="329" x="507" y="185">checkLoginData(username: String, password: String): boolean</text><!--class RegisterViewModel--><rect fill="#FEFECE" filter="url(#fytfvmpdo8y17)" height="183.8164" id="RegisterViewModel" style="stroke: #A80036; stroke-width: 1.5;" width="195" x="270.5" y="49.5"/><ellipse cx="309.8" cy="68.6328" fill="#ADD1B2" rx="11" ry="11" style="stroke: #A80036; stroke-width: 1.0;"/><path d="M312.7731,74.2759 Q312.1921,74.5747 311.5529,74.7241 Q310.9138,74.8735 310.2082,74.8735 Q307.7014,74.8735 306.3815,73.2217 Q305.0617,71.5698 305.0617,68.4487 Q305.0617,65.3193 306.3815,63.6675 Q307.7014,62.0156 310.2082,62.0156 Q310.9138,62.0156 311.5612,62.165 Q312.2087,62.3145 312.7731,62.6133 L312.7731,65.3359 Q312.1423,64.7549 311.5488,64.4851 Q310.9553,64.2153 310.3244,64.2153 Q308.9797,64.2153 308.2949,65.282 Q307.6101,66.3486 307.6101,68.4487 Q307.6101,70.5405 308.2949,71.6072 Q308.9797,72.6738 310.3244,72.6738 Q310.9553,72.6738 311.5488,72.4041 Q312.1423,72.1343 312.7731,71.5532 Z "/><text fill="#000000" font-family="sans-serif" font-size="12" font-style="italic" lengthAdjust="spacingAndGlyphs" textLength="72" x="347.7" y="66.1016">«viewModel»</text><text fill="#000000" font-family="sans-serif" font-size="12" lengthAdjust="spacingAndGlyphs" textLength="109" x="329.2" y="80.2344">RegisterViewModel</text><line style="stroke: #A80036; stroke-width: 1.5;" x1="271.5" x2="464.5" y1="87.7656" y2="87.7656"/><rect fill="none" height="6" style="stroke: #C82930; stroke-width: 1.0;" width="6" x="278.5" y="113.6982"/><text fill="#000000" font-family="sans-serif" font-size="11" lengthAdjust="spacingAndGlyphs" textLength="91" x="290.5" y="119.3555">username: String</text><rect fill="none" height="6" style="stroke: #C82930; stroke-width: 1.0;" width="6" x="278.5" y="126.6533"/><text fill="#000000" font-family="sans-serif" font-size="11" lengthAdjust="spacingAndGlyphs" textLength="90" x="290.5" y="132.3105">password: String</text><rect fill="none" height="6" style="stroke: #C82930; stroke-width: 1.0;" width="6" x="278.5" y="139.6084"/><text fill="#000000" font-family="sans-serif" font-size="11" lengthAdjust="spacingAndGlyphs" textLength="66" x="290.5" y="145.2656">email: String</text><rect fill="none" height="6" style="stroke: #C82930; stroke-width: 1.0;" width="6" x="278.5" y="152.5635"/><text fill="#000000" font-family="sans-serif" font-size="11" lengthAdjust="spacingAndGlyphs" textLength="120" x="290.5" y="158.2207">allowRegister: boolean</text><line style="stroke: #A80036; stroke-width: 1.0; stroke-dasharray: 1.0,2.0;" x1="271.5" x2="349.5" y1="102.2432" y2="102.2432"/><text fill="#000000" font-family="sans-serif" font-size="11" lengthAdjust="spacingAndGlyphs" textLength="37" x="349.5" y="105.9004">private</text><line style="stroke: #A80036; stroke-width: 1.0; stroke-dasharray: 1.0,2.0;" x1="386.5" x2="464.5" y1="102.2432" y2="102.2432"/><ellipse cx="281.5" cy="185.4736" fill="#84BE84" rx="3" ry="3" style="stroke: #038048; stroke-width: 1.0;"/><text fill="#000000" font-family="sans-serif" font-size="11" lengthAdjust="spacingAndGlyphs" textLength="169" x="290.5" y="188.1309">onRegisterButtonClicked(): void</text><ellipse cx="281.5" cy="198.4287" fill="#84BE84" rx="3" ry="3" style="stroke: #038048; stroke-width: 1.0;"/><text fill="#000000" font-family="sans-serif" font-size="11" lengthAdjust="spacingAndGlyphs" textLength="129" x="290.5" y="201.0859">alertUserExistent(): void</text><ellipse cx="281.5" cy="211.3838" fill="#84BE84" rx="3" ry="3" style="stroke: #038048; stroke-width: 1.0;"/><text fill="#000000" font-family="sans-serif" font-size="11" lengthAdjust="spacingAndGlyphs" textLength="143" x="290.5" y="214.041">alertPasswordIllegal(): void</text><ellipse cx="281.5" cy="224.3389" fill="#84BE84" rx="3" ry="3" style="stroke: #038048; stroke-width: 1.0;"/><text fill="#000000" font-family="sans-serif" font-size="11" lengthAdjust="spacingAndGlyphs" textLength="161" x="290.5" y="226.9961">alertRegisterSuccessed(): void</text><line style="stroke: #A80036; stroke-width: 1.0; stroke-dasharray: 1.0,2.0;" x1="271.5" x2="351.5" y1="171.0186" y2="171.0186"/><text fill="#000000" font-family="sans-serif" font-size="11" lengthAdjust="spacingAndGlyphs" textLength="33" x="351.5" y="174.6758">public</text><line style="stroke: #A80036; stroke-width: 1.0; stroke-dasharray: 1.0,2.0;" x1="384.5" x2="464.5" y1="171.0186" y2="171.0186"/><!--class LoginViewModel--><rect fill="#FEFECE" filter="url(#fytfvmpdo8y17)" height="196.7715" id="LoginViewModel" style="stroke: #A80036; stroke-width: 1.5;" width="213" x="22.5" y="43"/><ellipse cx="78.75" cy="62.1328" fill="#ADD1B2" rx="11" ry="11" style="stroke: #A80036; stroke-width: 1.0;"/><path d="M81.7231,67.7759 Q81.1421,68.0747 80.5029,68.2241 Q79.8638,68.3735 79.1582,68.3735 Q76.6514,68.3735 75.3315,66.7217 Q74.0117,65.0698 74.0117,61.9487 Q74.0117,58.8193 75.3315,57.1675 Q76.6514,55.5156 79.1582,55.5156 Q79.8638,55.5156 80.5112,55.665 Q81.1587,55.8145 81.7231,56.1133 L81.7231,58.8359 Q81.0923,58.2549 80.4988,57.9851 Q79.9053,57.7153 79.2744,57.7153 Q77.9297,57.7153 77.2449,58.782 Q76.5601,59.8486 76.5601,61.9487 Q76.5601,64.0405 77.2449,65.1072 Q77.9297,66.1738 79.2744,66.1738 Q79.9053,66.1738 80.4988,65.9041 Q81.0923,65.6343 81.7231,65.0532 Z "/><text fill="#000000" font-family="sans-serif" font-size="12" font-style="italic" lengthAdjust="spacingAndGlyphs" textLength="72" x="109.25" y="59.6016">«viewModel»</text><text fill="#000000" font-family="sans-serif" font-size="12" lengthAdjust="spacingAndGlyphs" textLength="92" x="99.25" y="73.7344">LoginViewModel</text><line style="stroke: #A80036; stroke-width: 1.5;" x1="23.5" x2="234.5" y1="81.2656" y2="81.2656"/><rect fill="none" height="6" style="stroke: #C82930; stroke-width: 1.0;" width="6" x="30.5" y="107.1982"/><text fill="#000000" font-family="sans-serif" font-size="11" lengthAdjust="spacingAndGlyphs" textLength="171" x="42.5" y="112.8555">isLoginButtonClickable: boolean</text><rect fill="none" height="6" style="stroke: #C82930; stroke-width: 1.0;" width="6" x="30.5" y="120.1533"/><text fill="#000000" font-family="sans-serif" font-size="11" lengthAdjust="spacingAndGlyphs" textLength="91" x="42.5" y="125.8105">username: String</text><rect fill="none" height="6" style="stroke: #C82930; stroke-width: 1.0;" width="6" x="30.5" y="133.1084"/><text fill="#000000" font-family="sans-serif" font-size="11" lengthAdjust="spacingAndGlyphs" textLength="90" x="42.5" y="138.7656">password: String</text><rect fill="none" height="6" style="stroke: #C82930; stroke-width: 1.0;" width="6" x="30.5" y="146.0635"/><text fill="#000000" font-family="sans-serif" font-size="11" lengthAdjust="spacingAndGlyphs" textLength="119" x="42.5" y="151.7207">rememberMe: boolean</text><line style="stroke: #A80036; stroke-width: 1.0; stroke-dasharray: 1.0,2.0;" x1="23.5" x2="110.5" y1="95.7432" y2="95.7432"/><text fill="#000000" font-family="sans-serif" font-size="11" lengthAdjust="spacingAndGlyphs" textLength="37" x="110.5" y="99.4004">private</text><line style="stroke: #A80036; stroke-width: 1.0; stroke-dasharray: 1.0,2.0;" x1="147.5" x2="234.5" y1="95.7432" y2="95.7432"/><ellipse cx="33.5" cy="178.9736" fill="#84BE84" rx="3" ry="3" style="stroke: #038048; stroke-width: 1.0;"/><text fill="#000000" font-family="sans-serif" font-size="11" lengthAdjust="spacingAndGlyphs" textLength="153" x="42.5" y="181.6309">onLoginDataChanged(): void</text><ellipse cx="33.5" cy="191.9287" fill="#84BE84" rx="3" ry="3" style="stroke: #038048; stroke-width: 1.0;"/><text fill="#000000" font-family="sans-serif" font-size="11" lengthAdjust="spacingAndGlyphs" textLength="187" x="42.5" y="194.5859">onRememberButtonToggled(): void</text><ellipse cx="33.5" cy="204.8838" fill="#84BE84" rx="3" ry="3" style="stroke: #038048; stroke-width: 1.0;"/><text fill="#000000" font-family="sans-serif" font-size="11" lengthAdjust="spacingAndGlyphs" textLength="151" x="42.5" y="207.541">alertUserNonexistent(): void</text><ellipse cx="33.5" cy="217.8389" fill="#84BE84" rx="3" ry="3" style="stroke: #038048; stroke-width: 1.0;"/><text fill="#000000" font-family="sans-serif" font-size="11" lengthAdjust="spacingAndGlyphs" textLength="140" x="42.5" y="220.4961">alertPasswordError(): void</text><ellipse cx="33.5" cy="230.7939" fill="#84BE84" rx="3" ry="3" style="stroke: #038048; stroke-width: 1.0;"/><text fill="#000000" font-family="sans-serif" font-size="11" lengthAdjust="spacingAndGlyphs" textLength="147" x="42.5" y="233.4512">alertLoginSuccessed(): void</text><line style="stroke: #A80036; stroke-width: 1.0; stroke-dasharray: 1.0,2.0;" x1="23.5" x2="112.5" y1="164.5186" y2="164.5186"/><text fill="#000000" font-family="sans-serif" font-size="11" lengthAdjust="spacingAndGlyphs" textLength="33" x="112.5" y="168.1758">public</text><line style="stroke: #A80036; stroke-width: 1.0; stroke-dasharray: 1.0,2.0;" x1="145.5" x2="234.5" y1="164.5186" y2="164.5186"/><ellipse cx="683" cy="305" fill="#FEFECE" filter="url(#fytfvmpdo8y17)" rx="5" ry="5" style="stroke: #A80036; stroke-width: 1.5;"/><text fill="#000000" font-family="sans-serif" font-size="12" lengthAdjust="spacingAndGlyphs" textLength="86" x="640" y="321.6016">UserInfoAccess</text><!--link UserInfoControl to UserInfoControllol113--><path d="M683,191.8895 C683,231.6728 683,283.1352 683,299.6501 " fill="none" id="UserInfoControl-UserInfoControllol113" style="stroke: #A80036; stroke-width: 1.0;"/><!--
@startuml Diagrams/UserSubsystemClassDiagram

component UserSubsystem {

    class UserInfoControl {
        login(username: String, password: String, remember: boolean): int
        setCurrentUser(userID: int, username: String): void
        rememberCurrentUser(): void
        checkLoginData(username: String, password: String): boolean
        }

    class RegisterViewModel <<viewModel>> {
        ..private..
        - username: String
        - password: String
        - email: String
        - allowRegister: boolean
        ..public..
        + onRegisterButtonClicked(): void
        + alertUserExistent(): void
        + alertPasswordIllegal(): void
        + alertRegisterSuccessed(): void
    }

    class LoginViewModel <<viewModel>> {
        ..private..
        - isLoginButtonClickable: boolean
        - username: String
        - password: String
        - rememberMe: boolean
        ..public..
        + onLoginDataChanged(): void
        + onRememberButtonToggled(): void
        + alertUserNonexistent(): void
        + alertPasswordError(): void
        + alertLoginSuccessed(): void
    }
}
UserInfoControl - -() UserInfoAccess
@enduml

PlantUML version 1.2018.01(Mon Jan 29 02:08:22 CST 2018)
(GPL source distribution)
Java Runtime: Java(TM) SE Runtime Environment
JVM: Java HotSpot(TM) 64-Bit Server VM
Java Version: 9+181
Operating System: Mac OS X
OS Version: 10.12.6
Default Encoding: UTF-8
Language: zh
Country: CN
--></g></svg>