<svg xmlns="http://www.w3.org/2000/svg" xmlns:xlink="http://www.w3.org/1999/xlink" id="processonSvg1000" viewBox="991.0 235.87288171824707 1342.0000000000005 576.1789035542854" width="1342.0000000000005" height="576.1789035542854"><defs id="ProcessOnDefs1001"><marker id="ProcessOnMarker1156" markerUnits="userSpaceOnUse" orient="auto" markerWidth="16.23606797749979" markerHeight="10.550836550532098" viewBox="-1.0 -1.3763819204711736 16.23606797749979 10.550836550532098" refX="-1.0" refY="3.8990363547948754"><path id="ProcessOnPath1157" d="M12.0 3.8990363547948754L0.0 7.798072709589751V0.0Z" stroke="#323232" stroke-width="2.0" fill="#323232" transform="matrix(1.0,0.0,0.0,1.0,0.0,0.0)"/></marker><marker id="ProcessOnMarker1160" markerUnits="userSpaceOnUse" orient="auto" markerWidth="16.23606797749979" markerHeight="10.550836550532098" viewBox="-1.0 -1.3763819204711736 16.23606797749979 10.550836550532098" refX="-1.0" refY="3.8990363547948754"><path id="ProcessOnPath1161" d="M12.0 3.8990363547948754L0.0 7.798072709589751V0.0Z" stroke="#323232" stroke-width="2.0" fill="#323232" transform="matrix(1.0,0.0,0.0,1.0,0.0,0.0)"/></marker><marker id="ProcessOnMarker1180" markerUnits="userSpaceOnUse" orient="auto" markerWidth="16.23606797749979" markerHeight="10.550836550532098" viewBox="-1.0 -1.3763819204711736 16.23606797749979 10.550836550532098" refX="-1.0" refY="3.8990363547948754"><path id="ProcessOnPath1181" d="M12.0 3.8990363547948754L0.0 7.798072709589751V0.0Z" stroke="#323232" stroke-width="2.0" fill="#323232" transform="matrix(1.0,0.0,0.0,1.0,0.0,0.0)"/></marker><marker id="ProcessOnMarker1192" markerUnits="userSpaceOnUse" orient="auto" markerWidth="16.23606797749979" markerHeight="10.550836550532098" viewBox="-1.0 -1.3763819204711736 16.23606797749979 10.550836550532098" refX="-1.0" refY="3.8990363547948754"><path id="ProcessOnPath1193" d="M12.0 3.8990363547948754L0.0 7.798072709589751V0.0Z" stroke="#323232" stroke-width="2.0" fill="#323232" transform="matrix(1.0,0.0,0.0,1.0,0.0,0.0)"/></marker><marker id="ProcessOnMarker1204" markerUnits="userSpaceOnUse" orient="auto" markerWidth="16.23606797749979" markerHeight="10.550836550532098" viewBox="-1.0 -1.3763819204711736 16.23606797749979 10.550836550532098" refX="-1.0" refY="3.8990363547948754"><path id="ProcessOnPath1205" d="M12.0 3.8990363547948754L0.0 7.798072709589751V0.0Z" stroke="#323232" stroke-width="2.0" fill="#323232" transform="matrix(1.0,0.0,0.0,1.0,0.0,0.0)"/></marker></defs><g id="ProcessOnG1002"><path id="ProcessOnPath1003" d="M991.0 235.87288171824707H2333.0000000000005V812.0517852725325H991.0V235.87288171824707Z" fill="#ffffff"/><g id="ProcessOnG1004"><g id="ProcessOnG1005" transform="matrix(1.0,0.0,0.0,1.0,2010.3499457501946,720.7758926362662)" opacity="1.0"><path id="ProcessOnPath1006" d="M0.0 4.0Q0.0 0.0 4.0 0.0L188.6500542498054 0.0Q192.6500542498054 0.0 192.6500542498054 4.0L192.6500542498054 66.0Q192.6500542498054 70.0 188.6500542498054 70.0L4.0 70.0Q0.0 70.0 0.0 66.0Z" stroke="#323232" stroke-width="2.0" stroke-dasharray="none" opacity="1.0" fill="#ffffff"/></g><g id="ProcessOnG1007" transform="matrix(1.0,0.0,0.0,1.0,1518.476445351526,449.6177710045937)" opacity="1.0"><path id="ProcessOnPath1008" d="M0.0 4.0Q0.0 0.0 4.0 0.0L474.10666953458474 0.0Q478.10666953458474 0.0 478.10666953458474 4.0L478.10666953458474 97.01754808906517Q478.10666953458474 101.01754808906517 474.10666953458474 101.01754808906517L4.0 101.01754808906517Q0.0 101.01754808906517 0.0 97.01754808906517Z" stroke="#323232" stroke-width="2.0" stroke-dasharray="none" opacity="1.0" fill="#ffcccc"/><g id="ProcessOnG1009" transform="matrix(1.0,0.0,0.0,1.0,10.0,0.0)"><text id="ProcessOnText1010" fill="#000000" font-size="15" x="228.05333476729237" y="15.375" font-family="微软雅黑" font-weight="bold" font-style="normal" text-decoration="none" family="微软雅黑" text-anchor="middle" size="15">LocalVSSSubsystem</text></g></g><g id="ProcessOnG1011" transform="matrix(1.0,0.0,0.0,1.0,1019.7463460927661,255.87288171824707)" opacity="1.0"><path id="ProcessOnPath1012" d="M17.52 45.5C-14.600000000000001 32.5 5.84 22.75 13.139999999999999 19.5C10.22 3.25 46.72 0.0 61.32 6.5C73.0 -3.25 109.5 0.0 109.5 9.75C138.7 6.5 150.38 19.5 138.7 35.75C148.92000000000002 48.75 138.7 65.0 105.11999999999999 58.5C97.82000000000001 66.95 68.61999999999999 66.95 61.32 58.5C46.72 65.0 17.52 61.75 17.52 45.5Z" stroke="#323232" stroke-width="2.0" stroke-dasharray="none" opacity="1.0" fill="#66ffb3"/><g id="ProcessOnG1013" transform="matrix(1.0,0.0,0.0,1.0,10.0,24.375)"><text id="ProcessOnText1014" fill="#000000" font-size="13" x="62.0" y="13.325" font-family="微软雅黑" font-weight="bold" font-style="normal" text-decoration="none" family="微软雅黑" text-anchor="middle" size="13">Baidu Map Service</text></g></g><g id="ProcessOnG1015" transform="matrix(1.0,0.0,0.0,1.0,1011.0,678.6406023020994)" opacity="1.0"><path id="ProcessOnPath1016" d="M0.0 4.0Q0.0 0.0 4.0 0.0L702.6165341361751 0.0Q706.6165341361751 0.0 706.6165341361751 4.0L706.6165341361751 109.41118297043305Q706.6165341361751 113.41118297043305 702.6165341361751 113.41118297043305L4.0 113.41118297043305Q0.0 113.41118297043305 0.0 109.41118297043305Z" stroke="#323232" stroke-width="2.0" stroke-dasharray="none" opacity="1.0" fill="#ff6666"/><g id="ProcessOnG1017" transform="matrix(1.0,0.0,0.0,1.0,10.0,0.0)"><text id="ProcessOnText1018" fill="#000000" font-size="15" x="342.30826706808756" y="15.375" font-family="微软雅黑" font-weight="bold" font-style="normal" text-decoration="none" family="微软雅黑" text-anchor="middle" size="15">ServerSubsystem</text></g></g><g id="ProcessOnG1019" transform="matrix(1.0,0.0,0.0,1.0,1522.815398795628,492.61848404250657)" opacity="1.0"><path id="ProcessOnPath1020" d="M0.0 0.0L147.12144482182106 0.0L147.12144482182106 45.048366039718246L0.0 45.048366039718246Z" stroke="#323232" stroke-width="2.0" stroke-dasharray="none" opacity="1.0" fill="#ffffff"/><g id="ProcessOnG1021" transform="matrix(1.0,0.0,0.0,1.0,10.0,6.274183019859123)"><text id="ProcessOnText1022" fill="#000000" font-size="13" x="62.56072241091053" y="13.325" font-family="微软雅黑" font-weight="normal" font-style="normal" text-decoration="none" family="微软雅黑" text-anchor="middle" size="13">Local VSS </text><text id="ProcessOnText1023" fill="#000000" font-size="13" x="62.56072241091053" y="29.575" font-family="微软雅黑" font-weight="normal" font-style="normal" text-decoration="none" family="微软雅黑" text-anchor="middle" size="13">Management</text></g></g><g id="ProcessOnG1024" transform="matrix(-1.8369701987210297E-16,-1.0,1.0,-1.8369701987210297E-16,1646.3673212441781,772.9999999999999)" opacity="1.0"><path id="ProcessOnPath1025" d="M11.628043482396219 0.0L68.41484342333781 0.0C80.00359346245155 0.0 80.00359346245155 54.63267875582187 68.41484342333781 54.63267875582187L11.628043482396219 54.63267875582187C-3.8760144941320736 54.63267875582187 -3.8760144941320736 0.0 11.628043482396219 0.0ZM68.41484342333781 0.0C57.03303534920826 0.0 57.03303534920826 54.63267875582187 68.41484342333781 54.63267875582187C57.03303534920826 54.63267875582187 57.03303534920826 0.0 68.41484342333781 0.0" stroke="#323232" stroke-width="2.0" stroke-dasharray="none" opacity="1.0" fill="#ffffff"/><g id="ProcessOnG1026" transform="matrix(1.0,0.0,0.0,1.0,0.0,11.066339377910936)"><text id="ProcessOnText1027" fill="#000000" font-size="13" x="30.00811595305659" y="13.325" font-family="微软雅黑" font-weight="bold" font-style="normal" text-decoration="none" family="微软雅黑" text-anchor="middle" size="13">Local</text><text id="ProcessOnText1028" fill="#000000" font-size="13" x="30.00811595305659" y="29.575" font-family="微软雅黑" font-weight="bold" font-style="normal" text-decoration="none" family="微软雅黑" text-anchor="middle" size="13">Storage</text></g></g><g id="ProcessOnG1029" transform="matrix(-1.8369701987210297E-16,-1.0,1.0,-1.8369701987210297E-16,1031.0,771.0000000000001)" opacity="1.0"><path id="ProcessOnPath1030" d="M11.217856771728076 0.0L66.07264447867833 0.0C77.16200290229565 0.0 77.16200290229565 52.27840399705315 66.07264447867833 52.27840399705315L11.217856771728076 52.27840399705315C-3.739285590576026 52.27840399705315 -3.739285590576026 0.0 11.217856771728076 0.0ZM66.07264447867833 0.0C55.181310312625584 0.0 55.181310312625584 52.27840399705315 66.07264447867833 52.27840399705315C55.181310312625584 52.27840399705315 55.181310312625584 0.0 66.07264447867833 0.0" stroke="#323232" stroke-width="2.0" stroke-dasharray="none" opacity="1.0" fill="#ffffff"/><g id="ProcessOnG1031" transform="matrix(1.0,0.0,0.0,1.0,0.0,18.014201998526573)"><text id="ProcessOnText1032" fill="#000000" font-size="13" x="28.91428472460821" y="13.325" font-family="微软雅黑" font-weight="normal" font-style="normal" text-decoration="none" family="微软雅黑" text-anchor="middle" size="13">MySQL</text></g></g><g id="ProcessOnG1033" transform="matrix(1.0,0.0,0.0,1.0,2007.6078182504752,568.1750570751448)" opacity="1.0"><path id="ProcessOnPath1034" d="M0.0 4.0Q0.0 0.0 4.0 0.0L191.39218174952453 0.0Q195.39218174952453 0.0 195.39218174952453 4.0L195.39218174952453 134.71131894727486Q195.39218174952453 138.71131894727486 191.39218174952453 138.71131894727486L4.0 138.71131894727486Q0.0 138.71131894727486 0.0 134.71131894727486Z" stroke="#323232" stroke-width="2.0" stroke-dasharray="none" opacity="1.0" fill="#ff66ff"/><g id="ProcessOnG1035" transform="matrix(1.0,0.0,0.0,1.0,10.0,0.0)"><text id="ProcessOnText1036" fill="#000000" font-size="15" x="86.69609087476226" y="15.375" font-family="微软雅黑" font-weight="bold" font-style="normal" text-decoration="none" family="微软雅黑" text-anchor="middle" size="15">SensorSubsystem</text></g></g><g id="ProcessOnG1037" transform="matrix(1.0,0.0,0.0,1.0,2007.6078182504752,449.6177710045937)" opacity="1.0"><path id="ProcessOnPath1038" d="M0.0 4.0Q0.0 0.0 4.0 0.0L301.39218174952464 0.0Q305.39218174952464 0.0 305.39218174952464 4.0L305.39218174952464 97.01754808906517Q305.39218174952464 101.01754808906517 301.39218174952464 101.01754808906517L4.0 101.01754808906517Q0.0 101.01754808906517 0.0 97.01754808906517Z" stroke="#323232" stroke-width="2.0" stroke-dasharray="none" opacity="1.0" fill="#e6ffcc"/><g id="ProcessOnG1039" transform="matrix(1.0,0.0,0.0,1.0,10.0,0.0)"><text id="ProcessOnText1040" fill="#000000" font-size="15" x="141.69609087476232" y="15.375" font-family="微软雅黑" font-weight="bold" font-style="normal" text-decoration="none" family="微软雅黑" text-anchor="middle" size="15">AudioSubsystem</text></g></g><g id="ProcessOnG1041" transform="matrix(1.0,0.0,0.0,1.0,1339.9790092025469,449.6177710045937)" opacity="1.0"><path id="ProcessOnPath1042" d="M0.0 4.0Q0.0 0.0 4.0 0.0L163.5978552444705 0.0Q167.5978552444705 0.0 167.5978552444705 4.0L167.5978552444705 97.01754808906517Q167.5978552444705 101.01754808906517 163.5978552444705 101.01754808906517L4.0 101.01754808906517Q0.0 101.01754808906517 0.0 97.01754808906517Z" stroke="#323232" stroke-width="2.0" stroke-dasharray="none" opacity="1.0" fill="#e5ccff"/><g id="ProcessOnG1043" transform="matrix(1.0,0.0,0.0,1.0,10.0,0.0)"><text id="ProcessOnText1044" fill="#000000" font-size="15" x="72.79892762223525" y="15.375" font-family="微软雅黑" font-weight="bold" font-style="normal" text-decoration="none" family="微软雅黑" text-anchor="middle" size="15">UserSubsystem</text></g></g><g id="ProcessOnG1045" transform="matrix(1.0,0.0,0.0,1.0,1011.0,336.0)" opacity="1.0"><path id="ProcessOnPath1046" d="M0.0 4.0Q0.0 0.0 4.0 0.0L1298.0 0.0Q1302.0 0.0 1302.0 4.0L1302.0 87.46183408064009Q1302.0 91.46183408064009 1298.0 91.46183408064009L4.0 91.46183408064009Q0.0 91.46183408064009 0.0 87.46183408064009Z" stroke="#323232" stroke-width="2.0" stroke-dasharray="none" opacity="1.0" fill="#ccffcc"/><g id="ProcessOnG1047" transform="matrix(1.0,0.0,0.0,1.0,10.0,0.0)"><text id="ProcessOnText1048" fill="#000000" font-size="15" x="640.0" y="15.375" font-family="微软雅黑" font-weight="bold" font-style="normal" text-decoration="none" family="微软雅黑" text-anchor="middle" size="15">User Interface</text></g></g><g id="ProcessOnG1049" transform="matrix(1.0,0.0,0.0,1.0,1836.2285009283737,492.61848404250657)" opacity="1.0"><path id="ProcessOnPath1050" d="M0.0 0.0L147.12144482182106 0.0L147.12144482182106 45.048366039718246L0.0 45.048366039718246Z" stroke="#323232" stroke-width="2.0" stroke-dasharray="none" opacity="1.0" fill="#ffffff"/><g id="ProcessOnG1051" transform="matrix(1.0,0.0,0.0,1.0,10.0,6.274183019859123)"><text id="ProcessOnText1052" fill="#000000" font-size="13" x="62.56072241091053" y="13.325" font-family="微软雅黑" font-weight="normal" font-style="normal" text-decoration="none" family="微软雅黑" text-anchor="middle" size="13">Upload / Download </text><text id="ProcessOnText1053" fill="#000000" font-size="13" x="62.56072241091053" y="29.575" font-family="微软雅黑" font-weight="normal" font-style="normal" text-decoration="none" family="微软雅黑" text-anchor="middle" size="13">Management</text></g></g><g id="ProcessOnG1054" transform="matrix(1.0,0.0,0.0,1.0,1729.9441400456574,568.1750570751448)" opacity="1.0"><path id="ProcessOnPath1055" d="M0.0 4.0Q0.0 0.0 4.0 0.0L262.75613547220775 0.0Q266.75613547220775 0.0 266.75613547220775 4.0L266.75613547220775 219.87672819738765Q266.75613547220775 223.87672819738765 262.75613547220775 223.87672819738765L4.0 223.87672819738765Q0.0 223.87672819738765 0.0 219.87672819738765Z" stroke="#323232" stroke-width="2.0" stroke-dasharray="none" opacity="1.0" fill="#66b2ff"/><g id="ProcessOnG1056" transform="matrix(1.0,0.0,0.0,1.0,10.0,0.0)"><text id="ProcessOnText1057" fill="#000000" font-size="15" x="122.37806773610387" y="15.375" font-family="微软雅黑" font-weight="bold" font-style="normal" text-decoration="none" family="微软雅黑" text-anchor="middle" size="15">LocalStorageSubsystem</text></g></g><g id="ProcessOnG1058" transform="matrix(1.0,0.0,0.0,1.0,1029.3711675345608,367.7020496005142)" opacity="1.0"><path id="ProcessOnPath1059" d="M0.0 0.0L147.12144482182106 0.0L147.12144482182106 45.048366039718246L0.0 45.048366039718246Z" stroke="#323232" stroke-width="2.0" stroke-dasharray="none" opacity="1.0" fill="#ffffff"/><g id="ProcessOnG1060" transform="matrix(1.0,0.0,0.0,1.0,10.0,6.274183019859123)"><text id="ProcessOnText1061" fill="#000000" font-size="13" x="62.56072241091053" y="13.325" font-family="微软雅黑" font-weight="normal" font-style="normal" text-decoration="none" family="微软雅黑" text-anchor="middle" size="13">Position </text><text id="ProcessOnText1062" fill="#000000" font-size="13" x="62.56072241091053" y="29.575" font-family="微软雅黑" font-weight="normal" font-style="normal" text-decoration="none" family="微软雅黑" text-anchor="middle" size="13">Visualization</text></g></g><g id="ProcessOnG1063" transform="matrix(1.0,0.0,0.0,1.0,1774.0,367.7020496005142)" opacity="1.0"><path id="ProcessOnPath1064" d="M0.0 0.0L222.58311488611093 0.0L222.58311488611093 45.0483660397183L0.0 45.0483660397183Z" stroke="#323232" stroke-width="2.0" stroke-dasharray="none" opacity="1.0" fill="#ffffff"/><g id="ProcessOnG1065" transform="matrix(1.0,0.0,0.0,1.0,10.0,14.399183019859151)"><text id="ProcessOnText1066" fill="#000000" font-size="13" x="100.29155744305547" y="13.325" font-family="微软雅黑" font-weight="normal" font-style="normal" text-decoration="none" family="微软雅黑" text-anchor="middle" size="13">VSS Manage UI</text></g></g><g id="ProcessOnG1067" transform="matrix(1.0,0.0,0.0,1.0,1011.0,449.6177710045937)" opacity="1.0"><path id="ProcessOnPath1068" d="M0.0 4.0Q0.0 0.0 4.0 0.0L313.470229668445 0.0Q317.470229668445 0.0 317.470229668445 4.0L317.470229668445 97.01754808906517Q317.470229668445 101.01754808906517 313.470229668445 101.01754808906517L4.0 101.01754808906517Q0.0 101.01754808906517 0.0 97.01754808906517Z" stroke="#323232" stroke-width="2.0" stroke-dasharray="none" opacity="1.0" fill="#cce5ff"/><g id="ProcessOnG1069" transform="matrix(1.0,0.0,0.0,1.0,10.0,0.0)"><text id="ProcessOnText1070" fill="#000000" font-size="15" x="147.7351148342225" y="15.375" font-family="微软雅黑" font-weight="bold" font-style="normal" text-decoration="none" family="微软雅黑" text-anchor="middle" size="15">OnlineVSSSubsystem</text></g></g><g id="ProcessOnG1071" transform="matrix(1.0,0.0,0.0,1.0,1015.2217928123475,492.61848404250657)" opacity="1.0"><path id="ProcessOnPath1072" d="M0.0 0.0L147.12144482182106 0.0L147.12144482182106 45.048366039718246L0.0 45.048366039718246Z" stroke="#323232" stroke-width="2.0" stroke-dasharray="none" opacity="1.0" fill="#ffffff"/><g id="ProcessOnG1073" transform="matrix(1.0,0.0,0.0,1.0,10.0,14.399183019859123)"><text id="ProcessOnText1074" fill="#000000" font-size="13" x="62.56072241091053" y="13.325" font-family="微软雅黑" font-weight="normal" font-style="normal" text-decoration="none" family="微软雅黑" text-anchor="middle" size="13">View Online VSS</text></g></g><g id="ProcessOnG1075" transform="matrix(1.0,0.0,0.0,1.0,1176.4926123563819,492.61848404250657)" opacity="1.0"><path id="ProcessOnPath1076" d="M0.0 0.0L147.12144482182106 0.0L147.12144482182106 45.048366039718246L0.0 45.048366039718246Z" stroke="#323232" stroke-width="2.0" stroke-dasharray="none" opacity="1.0" fill="#ffffff"/><g id="ProcessOnG1077" transform="matrix(1.0,0.0,0.0,1.0,10.0,14.399183019859123)"><text id="ProcessOnText1078" fill="#000000" font-size="13" x="62.56072241091053" y="13.325" font-family="微软雅黑" font-weight="normal" font-style="normal" text-decoration="none" family="微软雅黑" text-anchor="middle" size="13">Socialization</text></g></g><g id="ProcessOnG1079" transform="matrix(1.0,0.0,0.0,1.0,2214.5470683319577,568.1750570751448)" opacity="1.0"><path id="ProcessOnPath1080" d="M0.0 4.0Q0.0 0.0 4.0 0.0L94.45293166804277 0.0Q98.45293166804277 0.0 98.45293166804277 4.0L98.45293166804277 219.8767281973876Q98.45293166804277 223.8767281973876 94.45293166804277 223.8767281973876L4.0 223.8767281973876Q0.0 223.8767281973876 0.0 219.8767281973876Z" stroke="#323232" stroke-width="2.0" stroke-dasharray="none" opacity="1.0" fill="#ff66b3"/><g id="ProcessOnG1081" transform="matrix(1.0,0.0,0.0,1.0,10.0,0.0)"><text id="ProcessOnText1082" fill="#000000" font-size="15" x="38.22646583402138" y="15.375" font-family="微软雅黑" font-weight="bold" font-style="normal" text-decoration="none" family="微软雅黑" text-anchor="middle" size="15">AudioEngi</text><text id="ProcessOnText1083" fill="#000000" font-size="15" x="38.22646583402138" y="34.125" font-family="微软雅黑" font-weight="bold" font-style="normal" text-decoration="none" family="微软雅黑" text-anchor="middle" size="15">neControl</text><text id="ProcessOnText1084" fill="#000000" font-size="15" x="38.22646583402138" y="52.875" font-family="微软雅黑" font-weight="bold" font-style="normal" text-decoration="none" family="微软雅黑" text-anchor="middle" size="15">ler</text><text id="ProcessOnText1085" fill="#000000" font-size="15" x="38.22646583402138" y="71.625" font-family="微软雅黑" font-weight="bold" font-style="normal" text-decoration="none" family="微软雅黑" text-anchor="middle" size="15"></text></g></g><g id="ProcessOnG1086" transform="matrix(1.0,0.0,0.0,1.0,2221.4874169083982,648.6643801934408)" opacity="1.0"><path id="ProcessOnPath1087" d="M42.2861172575809 0.0L84.5722345151618 99.57132304202999L0.0 99.57132304202999Z" stroke="#323232" stroke-width="2.0" stroke-dasharray="none" opacity="1.0" fill="#ffffff"/><g id="ProcessOnG1088" transform="matrix(1.0,0.0,0.0,1.0,10.0,37.85707690126874)"><text id="ProcessOnText1089" fill="#000000" font-size="13" x="31.286117257580898" y="13.325" font-family="微软雅黑" font-weight="bold" font-style="normal" text-decoration="none" family="微软雅黑" text-anchor="middle" size="13">GVR</text><text id="ProcessOnText1090" fill="#000000" font-size="13" x="31.286117257580898" y="29.575" font-family="微软雅黑" font-weight="bold" font-style="normal" text-decoration="none" family="微软雅黑" text-anchor="middle" size="13">Audio</text><text id="ProcessOnText1091" fill="#000000" font-size="13" x="31.286117257580898" y="45.825" font-family="微软雅黑" font-weight="bold" font-style="normal" text-decoration="none" family="微软雅黑" text-anchor="middle" size="13">Engine</text></g></g><g id="ProcessOnG1092" transform="matrix(1.0,0.0,0.0,1.0,2024.1813233761711,494.21125874795337)" opacity="1.0"><path id="ProcessOnPath1093" d="M0.0 0.0L111.50790797860743 0.0L111.50790797860743 45.27954140094987L0.0 45.27954140094987Z" stroke="#323232" stroke-width="2.0" stroke-dasharray="none" opacity="1.0" fill="#ffffff"/><g id="ProcessOnG1094" transform="matrix(1.0,0.0,0.0,1.0,10.0,6.389770700474934)"><text id="ProcessOnText1095" fill="#000000" font-size="13" x="44.75395398930372" y="13.325" font-family="微软雅黑" font-weight="normal" font-style="normal" text-decoration="none" family="微软雅黑" text-anchor="middle" size="13">Audio </text><text id="ProcessOnText1096" fill="#000000" font-size="13" x="44.75395398930372" y="29.575" font-family="微软雅黑" font-weight="normal" font-style="normal" text-decoration="none" family="微软雅黑" text-anchor="middle" size="13">Generation</text></g></g><g id="ProcessOnG1097" transform="matrix(1.0,0.0,0.0,1.0,2184.918586895697,494.21125874795337)" opacity="1.0"><path id="ProcessOnPath1098" d="M0.0 0.0L111.50790797860743 0.0L111.50790797860743 45.27954140094987L0.0 45.27954140094987Z" stroke="#323232" stroke-width="2.0" stroke-dasharray="none" opacity="1.0" fill="#ffffff"/><g id="ProcessOnG1099" transform="matrix(1.0,0.0,0.0,1.0,10.0,6.389770700474934)"><text id="ProcessOnText1100" fill="#000000" font-size="13" x="44.75395398930372" y="13.325" font-family="微软雅黑" font-weight="normal" font-style="normal" text-decoration="none" family="微软雅黑" text-anchor="middle" size="13">Audio Player </text><text id="ProcessOnText1101" fill="#000000" font-size="13" x="44.75395398930372" y="29.575" font-family="微软雅黑" font-weight="normal" font-style="normal" text-decoration="none" family="微软雅黑" text-anchor="middle" size="13">Statemachine</text></g></g><g id="ProcessOnG1102" transform="matrix(1.0,0.0,0.0,1.0,2025.8379435063746,593.9719791964367)" opacity="1.0"><path id="ProcessOnPath1103" d="M0.0 0.0L158.93193123772608 0.0L158.93193123772608 27.911423934512623L0.0 27.911423934512623Z" stroke="#323232" stroke-width="2.0" stroke-dasharray="none" opacity="1.0" fill="#ffffff"/><g id="ProcessOnG1104" transform="matrix(1.0,0.0,0.0,1.0,10.0,5.8307119672563115)"><text id="ProcessOnText1105" fill="#000000" font-size="13" x="68.46596561886304" y="13.325" font-family="微软雅黑" font-weight="normal" font-style="normal" text-decoration="none" family="微软雅黑" text-anchor="middle" size="13">Bluetooth Service</text></g></g><g id="ProcessOnG1106" transform="matrix(1.0,0.0,0.0,1.0,2025.8379435063746,632.8788125596968)" opacity="1.0"><path id="ProcessOnPath1107" d="M0.0 0.0L158.93193123772608 0.0L158.93193123772608 27.911423934512623L0.0 27.911423934512623Z" stroke="#323232" stroke-width="2.0" stroke-dasharray="none" opacity="1.0" fill="#ffffff"/><g id="ProcessOnG1108" transform="matrix(1.0,0.0,0.0,1.0,10.0,5.8307119672563115)"><text id="ProcessOnText1109" fill="#000000" font-size="13" x="68.46596561886304" y="13.325" font-family="微软雅黑" font-weight="normal" font-style="normal" text-decoration="none" family="微软雅黑" text-anchor="middle" size="13">GPS IMU Data</text></g></g><g id="ProcessOnG1110" transform="matrix(1.0,0.0,0.0,1.0,2025.8379435063746,670.9398451976685)" opacity="1.0"><path id="ProcessOnPath1111" d="M0.0 0.0L158.93193123772608 0.0L158.93193123772608 27.911423934512623L0.0 27.911423934512623Z" stroke="#323232" stroke-width="2.0" stroke-dasharray="none" opacity="1.0" fill="#ffffff"/><g id="ProcessOnG1112" transform="matrix(1.0,0.0,0.0,1.0,10.0,-2.2942880327436885)"><text id="ProcessOnText1113" fill="#000000" font-size="13" x="68.46596561886304" y="13.325" font-family="微软雅黑" font-weight="normal" font-style="normal" text-decoration="none" family="微软雅黑" text-anchor="middle" size="13">Positioning</text><text id="ProcessOnText1114" fill="#000000" font-size="13" x="68.46596561886304" y="29.575" font-family="微软雅黑" font-weight="normal" font-style="normal" text-decoration="none" family="微软雅黑" text-anchor="middle" size="13">Algorithm</text></g></g><g id="ProcessOnG1115" transform="matrix(1.0,0.0,0.0,1.0,1350.2172144138717,495.34868804491373)" opacity="1.0"><path id="ProcessOnPath1116" d="M0.0 0.0L147.12144482182106 0.0L147.12144482182106 45.048366039718246L0.0 45.048366039718246Z" stroke="#323232" stroke-width="2.0" stroke-dasharray="none" opacity="1.0" fill="#ffffff"/><g id="ProcessOnG1117" transform="matrix(1.0,0.0,0.0,1.0,10.0,6.274183019859123)"><text id="ProcessOnText1118" fill="#000000" font-size="13" x="62.56072241091053" y="13.325" font-family="微软雅黑" font-weight="normal" font-style="normal" text-decoration="none" family="微软雅黑" text-anchor="middle" size="13">Login / Register </text><text id="ProcessOnText1119" fill="#000000" font-size="13" x="62.56072241091053" y="29.575" font-family="微软雅黑" font-weight="normal" font-style="normal" text-decoration="none" family="微软雅黑" text-anchor="middle" size="13">Service</text></g></g><g id="ProcessOnG1120" transform="matrix(1.0,0.0,0.0,1.0,1011.0,568.1750570751448)" opacity="1.0"><path id="ProcessOnPath1121" d="M0.0 4.0Q0.0 0.0 4.0 0.0L702.6165341361751 0.0Q706.6165341361751 0.0 706.6165341361751 4.0L706.6165341361751 95.42201161738619Q706.6165341361751 99.42201161738619 702.6165341361751 99.42201161738619L4.0 99.42201161738619Q0.0 99.42201161738619 0.0 95.42201161738619Z" stroke="#323232" stroke-width="2.0" stroke-dasharray="none" opacity="1.0" fill="#ff9933"/><g id="ProcessOnG1122" transform="matrix(1.0,0.0,0.0,1.0,10.0,0.0)"><text id="ProcessOnText1123" fill="#000000" font-size="15" x="342.30826706808756" y="15.375" font-family="微软雅黑" font-weight="bold" font-style="normal" text-decoration="none" family="微软雅黑" text-anchor="middle" size="15">CommunicatorSubsystem</text></g></g><g id="ProcessOnG1124" transform="matrix(1.0,0.0,0.0,1.0,1029.3711675345608,611.1757701130578)" opacity="1.0"><path id="ProcessOnPath1125" d="M0.0 0.0L147.12144482182106 0.0L147.12144482182106 45.048366039718246L0.0 45.048366039718246Z" stroke="#323232" stroke-width="2.0" stroke-dasharray="none" opacity="1.0" fill="#ffffff"/><g id="ProcessOnG1126" transform="matrix(1.0,0.0,0.0,1.0,10.0,6.274183019859123)"><text id="ProcessOnText1127" fill="#000000" font-size="13" x="62.56072241091053" y="13.325" font-family="微软雅黑" font-weight="normal" font-style="normal" text-decoration="none" family="微软雅黑" text-anchor="middle" size="13">Http Service</text><text id="ProcessOnText1128" fill="#000000" font-size="13" x="62.56072241091053" y="29.575" font-family="微软雅黑" font-weight="normal" font-style="normal" text-decoration="none" family="微软雅黑" text-anchor="middle" size="13">Wrapping</text></g></g><g id="ProcessOnG1129" transform="matrix(1.0,0.0,0.0,1.0,1290.747544657177,611.1757701130578)" opacity="1.0"><path id="ProcessOnPath1130" d="M0.0 0.0L147.12144482182106 0.0L147.12144482182106 45.048366039718246L0.0 45.048366039718246Z" stroke="#323232" stroke-width="2.0" stroke-dasharray="none" opacity="1.0" fill="#ffffff"/><g id="ProcessOnG1131" transform="matrix(1.0,0.0,0.0,1.0,10.0,14.399183019859123)"><text id="ProcessOnText1132" fill="#000000" font-size="13" x="62.56072241091053" y="13.325" font-family="微软雅黑" font-weight="normal" font-style="normal" text-decoration="none" family="微软雅黑" text-anchor="middle" size="13">Data Transfer</text></g></g><g id="ProcessOnG1133" transform="matrix(1.0,0.0,0.0,1.0,1554.6298039572964,611.1757701130578)" opacity="1.0"><path id="ProcessOnPath1134" d="M0.0 0.0L147.12144482182106 0.0L147.12144482182106 45.048366039718246L0.0 45.048366039718246Z" stroke="#323232" stroke-width="2.0" stroke-dasharray="none" opacity="1.0" fill="#ffffff"/><g id="ProcessOnG1135" transform="matrix(1.0,0.0,0.0,1.0,10.0,14.399183019859123)"><text id="ProcessOnText1136" fill="#000000" font-size="13" x="62.56072241091053" y="13.325" font-family="微软雅黑" font-weight="normal" font-style="normal" text-decoration="none" family="微软雅黑" text-anchor="middle" size="13">Transfer Protocol</text></g></g><g id="ProcessOnG1137" transform="matrix(1.0,0.0,0.0,1.0,1740.8860038394478,611.1757701130578)" opacity="1.0"><path id="ProcessOnPath1138" d="M0.0 0.0L147.12144482182106 0.0L147.12144482182106 45.048366039718246L0.0 45.048366039718246Z" stroke="#323232" stroke-width="2.0" stroke-dasharray="none" opacity="1.0" fill="#ffffff"/><g id="ProcessOnG1139" transform="matrix(1.0,0.0,0.0,1.0,10.0,14.399183019859123)"><text id="ProcessOnText1140" fill="#000000" font-size="13" x="62.56072241091053" y="13.325" font-family="微软雅黑" font-weight="normal" font-style="normal" text-decoration="none" family="微软雅黑" text-anchor="middle" size="13">VSS Meta Storage</text></g></g><g id="ProcessOnG1141" transform="matrix(1.0,0.0,0.0,1.0,1740.8860038394478,712.8220107674567)" opacity="1.0"><path id="ProcessOnPath1142" d="M0.0 0.0L147.12144482182106 0.0L147.12144482182106 45.048366039718246L0.0 45.048366039718246Z" stroke="#323232" stroke-width="2.0" stroke-dasharray="none" opacity="1.0" fill="#ffffff"/><g id="ProcessOnG1143" transform="matrix(1.0,0.0,0.0,1.0,10.0,14.399183019859123)"><text id="ProcessOnText1144" fill="#000000" font-size="13" x="62.56072241091053" y="13.325" font-family="微软雅黑" font-weight="normal" font-style="normal" text-decoration="none" family="微软雅黑" text-anchor="middle" size="13">Local Audio Storage</text></g></g><g id="ProcessOnG1145" transform="matrix(-1.8369701987210297E-16,-1.0,1.0,-1.8369701987210297E-16,1931.4756530609911,671.6564120528117)" opacity="1.0"><path id="ProcessOnPath1146" d="M11.386937675968431 0.0L66.82352999412983 0.0C78.39184179769674 0.0 78.39184179769674 54.53632707395832 66.82352999412983 54.53632707395832L11.386937675968431 54.53632707395832C-3.7956458919894773 54.53632707395832 -3.7956458919894773 0.0 11.386937675968431 0.0ZM66.82352999412983 0.0C55.46179518705517 0.0 55.46179518705517 54.53632707395832 66.82352999412983 54.53632707395832C55.46179518705517 54.53632707395832 55.46179518705517 0.0 66.82352999412983 0.0" stroke="#323232" stroke-width="2.0" stroke-dasharray="none" opacity="1.0" fill="#ffffff"/><g id="ProcessOnG1147" transform="matrix(1.0,0.0,0.0,1.0,0.0,19.14316353697916)"><text id="ProcessOnText1148" fill="#000000" font-size="13" x="29.36516713591582" y="13.325" font-family="微软雅黑" font-weight="bold" font-style="normal" text-decoration="none" family="微软雅黑" text-anchor="middle" size="13">SQLite</text></g></g><g id="ProcessOnG1149" transform="matrix(-1.8369701987210297E-16,-1.0,1.0,-1.8369701987210297E-16,1931.2041632037872,772.2653277047436)" opacity="1.0"><path id="ProcessOnPath1150" d="M11.351789486442259 0.0L66.49871211155403 0.0C78.18220143029838 0.0 78.18220143029838 55.07930678836624 66.49871211155403 55.07930678836624L11.351789486442259 55.07930678836624C-3.783929828814087 55.07930678836624 -3.783929828814087 0.0 11.351789486442259 0.0ZM66.49871211155403 0.0C55.023856530644395 0.0 55.023856530644395 55.07930678836624 66.49871211155403 55.07930678836624C55.023856530644395 55.07930678836624 55.023856530644395 0.0 66.49871211155403 0.0" stroke="#323232" stroke-width="2.0" stroke-dasharray="none" opacity="1.0" fill="#ffffff"/><g id="ProcessOnG1151" transform="matrix(1.0,0.0,0.0,1.0,0.0,11.28965339418312)"><text id="ProcessOnText1152" fill="#000000" font-size="13" x="29.271438630512694" y="13.325" font-family="微软雅黑" font-weight="bold" font-style="normal" text-decoration="none" family="微软雅黑" text-anchor="middle" size="13">Local</text><text id="ProcessOnText1153" fill="#000000" font-size="13" x="29.271438630512694" y="29.575" font-family="微软雅黑" font-weight="bold" font-style="normal" text-decoration="none" family="微软雅黑" text-anchor="middle" size="13">Storage</text></g></g><g id="ProcessOnG1154"><path id="ProcessOnPath1155" d="M1888.0074486612689 735.3461937873159L1909.6058059325278 735.3461937873159L1909.6058059325278 734.4260294166028L1915.9680952262872 734.4260294166028" stroke="#323232" stroke-width="2.0" stroke-dasharray="none" fill="none" marker-end="url(#ProcessOnMarker1156)"/></g><g id="ProcessOnG1158"><path id="ProcessOnPath1159" d="M1888.0074486612689 633.6999531329169L1909.7415508611298 633.6999531329169L1909.7415508611298 633.6999531329169L1916.2395850834912 633.6999531329169" stroke="#323232" stroke-width="2.0" stroke-dasharray="none" fill="none" marker-end="url(#ProcessOnMarker1160)"/></g><g id="ProcessOnG1162" transform="matrix(1.0,0.0,0.0,1.0,1118.2137986861208,716.9173167710676)" opacity="1.0"><path id="ProcessOnPath1163" d="M0.0 0.0L147.12144482182106 0.0L147.12144482182106 45.048366039718246L0.0 45.048366039718246Z" stroke="#323232" stroke-width="2.0" stroke-dasharray="none" opacity="1.0" fill="#ffffff"/><g id="ProcessOnG1164" transform="matrix(1.0,0.0,0.0,1.0,10.0,6.274183019859123)"><text id="ProcessOnText1165" fill="#000000" font-size="13" x="62.56072241091053" y="13.325" font-family="微软雅黑" font-weight="normal" font-style="normal" text-decoration="none" family="微软雅黑" text-anchor="middle" size="13">User Data </text><text id="ProcessOnText1166" fill="#000000" font-size="13" x="62.56072241091053" y="29.575" font-family="微软雅黑" font-weight="normal" font-style="normal" text-decoration="none" family="微软雅黑" text-anchor="middle" size="13">Preservation</text></g></g><g id="ProcessOnG1167" transform="matrix(1.0,0.0,0.0,1.0,1290.747544657177,716.9173167710676)" opacity="1.0"><path id="ProcessOnPath1168" d="M0.0 0.0L147.12144482182106 0.0L147.12144482182106 45.048366039718246L0.0 45.048366039718246Z" stroke="#323232" stroke-width="2.0" stroke-dasharray="none" opacity="1.0" fill="#ffffff"/><g id="ProcessOnG1169" transform="matrix(1.0,0.0,0.0,1.0,10.0,6.274183019859123)"><text id="ProcessOnText1170" fill="#000000" font-size="13" x="62.56072241091053" y="13.325" font-family="微软雅黑" font-weight="normal" font-style="normal" text-decoration="none" family="微软雅黑" text-anchor="middle" size="13">Shared VSS </text><text id="ProcessOnText1171" fill="#000000" font-size="13" x="62.56072241091053" y="29.575" font-family="微软雅黑" font-weight="normal" font-style="normal" text-decoration="none" family="微软雅黑" text-anchor="middle" size="13">Preservation</text></g></g><g id="ProcessOnG1172" transform="matrix(1.0,0.0,0.0,1.0,1463.4124044347277,716.9173167710676)" opacity="1.0"><path id="ProcessOnPath1173" d="M0.0 0.0L147.12144482182106 0.0L147.12144482182106 45.048366039718246L0.0 45.048366039718246Z" stroke="#323232" stroke-width="2.0" stroke-dasharray="none" opacity="1.0" fill="#ffffff"/><g id="ProcessOnG1174" transform="matrix(1.0,0.0,0.0,1.0,10.0,-1.850816980140877)"><text id="ProcessOnText1175" fill="#000000" font-size="13" x="62.56072241091053" y="13.325" font-family="微软雅黑" font-weight="normal" font-style="normal" text-decoration="none" family="微软雅黑" text-anchor="middle" size="13">Audio File </text><text id="ProcessOnText1176" fill="#000000" font-size="13" x="62.56072241091053" y="29.575" font-family="微软雅黑" font-weight="normal" font-style="normal" text-decoration="none" family="微软雅黑" text-anchor="middle" size="13">Download / Upload </text><text id="ProcessOnText1177" fill="#000000" font-size="13" x="62.56072241091053" y="45.825" font-family="微软雅黑" font-weight="normal" font-style="normal" text-decoration="none" family="微软雅黑" text-anchor="middle" size="13">Service</text></g></g><g id="ProcessOnG1178"><path id="ProcessOnPath1179" d="M1958.7438165979702 671.6564120528118L1958.7438165979702 684.1215715906369L1958.7438165979702 684.1215715906369L1958.7438165979702 685.1215715906369" stroke="#323232" stroke-width="2.0" stroke-dasharray="none" fill="none" marker-end="url(#ProcessOnMarker1180)"/></g><g id="ProcessOnG1182" transform="matrix(1.0,0.0,0.0,1.0,2007.6078182504752,367.7020496005142)" opacity="1.0"><path id="ProcessOnPath1183" d="M0.0 0.0L295.39218174952475 0.0L295.39218174952475 45.0483660397183L0.0 45.0483660397183Z" stroke="#323232" stroke-width="2.0" stroke-dasharray="none" opacity="1.0" fill="#ffffff"/><g id="ProcessOnG1184" transform="matrix(1.0,0.0,0.0,1.0,10.0,14.399183019859151)"><text id="ProcessOnText1185" fill="#000000" font-size="13" x="136.69609087476238" y="13.325" font-family="微软雅黑" font-weight="normal" font-style="normal" text-decoration="none" family="微软雅黑" text-anchor="middle" size="13">Replay Control</text></g></g><g id="ProcessOnG1186" transform="matrix(1.0,0.0,0.0,1.0,1189.0,367.7020496005142)" opacity="1.0"><path id="ProcessOnPath1187" d="M0.0 0.0L567.0 0.0L567.0 45.0483660397183L0.0 45.0483660397183Z" stroke="#323232" stroke-width="2.0" stroke-dasharray="none" opacity="1.0" fill="#ffffff"/><g id="ProcessOnG1188" transform="matrix(1.0,0.0,0.0,1.0,10.0,14.399183019859151)"><text id="ProcessOnText1189" fill="#000000" font-size="13" x="272.5" y="13.325" font-family="微软雅黑" font-weight="normal" font-style="normal" text-decoration="none" family="微软雅黑" text-anchor="middle" size="13">Share and Like</text></g></g><g id="ProcessOnG1190"><path id="ProcessOnPath1191" d="M1102.9318899454713 367.7020496005142L1102.9318899454713 344.28746565938064L1102.9663460927661 344.28746565938064L1102.9663460927661 336.10894969574684" stroke="#323232" stroke-width="2.0" stroke-dasharray="none" fill="none" marker-end="url(#ProcessOnMarker1192)"/></g><g id="ProcessOnG1194" transform="matrix(1.0,0.0,0.0,1.0,1429.2920804376129,267.8871984243584)" opacity="1.0"><path id="ProcessOnPath1195" d="M18.0 0.0L0.0 4.097136658777731L0.0 36.87422992899958L18.0 40.97136658777731M447.41583912477427 40.97136658777731L465.41583912477427 36.87422992899958L465.41583912477427 4.097136658777731L447.41583912477427 0.0" stroke="#323232" stroke-width="2.0" stroke-dasharray="none" opacity="1.0" fill="none"/><path id="ProcessOnPath1196" d="M0.0 0.0L465.41583912477427 0.0L465.41583912477427 40.97136658777731L0.0 40.97136658777731Z" stroke="none" stroke-width="0.0" stroke-dasharray="none" opacity="1.0" fill="none"/><g id="ProcessOnG1197" transform="matrix(1.0,0.0,0.0,1.0,10.0,8.610683293888655)"><text id="ProcessOnText1198" fill="#000000" font-size="19" x="221.70791956238713" y="19.475" font-family="Garamond" font-weight="normal" font-style="italic" text-decoration="none" family="Garamond" text-anchor="middle" size="19">System Structure of AudioAR APP</text></g></g><g id="ProcessOnG1199" transform="matrix(1.0,0.0,0.0,1.0,2067.8039091252376,719.5)" opacity="1.0"><g id="ProcessOnG1201" transform="matrix(1.0,0.0,0.0,0.9673571369670981,0.0,0.0)"> <g id="Layer_1"> <path fill="#19486F" d="M55.829,68.048H19.171c-5.267,0-9.585-4.318-9.585-9.585V21.805c0-5.267,4.318-9.585,9.585-9.585h36.658 c5.267,0,9.586,4.318,9.586,9.585v36.658C65.415,63.835,61.096,68.048,55.829,68.048z"/> <path fill="#2E73B8" d="M55.829,65.52H19.171c-5.267,0-9.585-4.318-9.585-9.585V19.276c0-5.267,4.318-9.585,9.585-9.585h36.658 c5.267,0,9.586,4.318,9.586,9.585v36.658C65.415,61.201,61.096,65.52,55.829,65.52z"/> <rect x="48.034" y="0" fill="#2E73B8" width="4.213" height="14.432"/> <rect x="22.752" y="0" fill="#2E73B8" width="4.214" height="14.432"/> <rect x="41.713" y="0" fill="#2E73B8" width="4.214" height="14.432"/> <rect x="29.073" y="0" fill="#2E73B8" width="4.214" height="14.432"/> <rect x="35.393" y="0" fill="#2E73B8" width="4.214" height="14.432"/> <rect y="48.034" fill="#2E73B8" width="19.066" height="4.213"/> <rect y="29.073" fill="#2E73B8" width="19.066" height="4.214"/> <rect y="41.714" fill="#2E73B8" width="19.066" height="4.214"/> <rect y="35.394" fill="#2E73B8" width="19.066" height="4.214"/> <rect y="22.753" fill="#2E73B8" width="19.066" height="4.214"/> <rect x="22.752" y="58.463" fill="#2E73B8" width="4.214" height="16.537"/> <rect x="48.034" y="58.463" fill="#2E73B8" width="4.213" height="16.537"/> <rect x="29.073" y="58.463" fill="#2E73B8" width="4.214" height="16.537"/> <rect x="41.713" y="58.463" fill="#2E73B8" width="4.214" height="16.537"/> <rect x="35.393" y="58.463" fill="#2E73B8" width="4.214" height="16.537"/> <rect x="58.252" y="41.714" fill="#2E73B8" width="16.748" height="4.214"/> <rect x="58.252" y="22.753" fill="#2E73B8" width="16.748" height="4.214"/> <rect x="58.252" y="35.394" fill="#2E73B8" width="16.748" height="4.214"/> <rect x="58.252" y="29.073" fill="#2E73B8" width="16.748" height="4.214"/> <rect x="58.252" y="48.034" fill="#2E73B8" width="16.748" height="4.213"/> <path fill="#FFFFFF" d="M47.402,49.93H27.704c-1.369,0-2.422-1.053-2.422-2.422V27.809c0-1.369,1.053-2.422,2.422-2.422h19.699 c1.369,0,2.422,1.053,2.422,2.422v19.699C49.825,48.771,48.771,49.93,47.402,49.93z"/> <g> <path fill="#2E73B8" d="M53.09,33.392H31.391c-0.843,0-1.58-0.738-1.58-1.58c0-0.843,0.737-1.58,1.58-1.58H53.09 c0.843,0,1.58,0.737,1.58,1.58C54.67,32.654,54.038,33.392,53.09,33.392z"/> </g> <g> <path fill="#2E73B8" d="M43.504,44.874h-21.7c-0.842,0-1.58-0.737-1.58-1.58c0-0.843,0.738-1.58,1.58-1.58h21.7 c0.843,0,1.58,0.737,1.58,1.58C45.084,44.137,44.452,44.874,43.504,44.874z"/> </g> <circle fill="#2E73B8" cx="31.496" cy="31.812" r="4.214"/> <circle fill="#2E73B8" cx="43.504" cy="43.294" r="4.214"/> </g>  </g></g><g id="ProcessOnG1202"><path id="ProcessOnPath1203" d="M2105.3039091252376 706.8863760224197L2105.3039091252376 713.1931880112098L2105.3039091252376 713.1931880112098L2105.3039091252376 714.1931880112098" stroke="#323232" stroke-width="2.0" stroke-dasharray="none" fill="none" marker-end="url(#ProcessOnMarker1204)"/></g></g></g></svg>