<?xml version="1.0" encoding="UTF-8" standalone="no"?><svg xmlns="http://www.w3.org/2000/svg" xmlns:xlink="http://www.w3.org/1999/xlink" contentScriptType="application/ecmascript" contentStyleType="text/css" height="523px" preserveAspectRatio="none" style="width:263px;height:523px;" version="1.1" viewBox="0 0 263 523"
    width="263px" zoomAndPan="magnify"><defs><filter height="300%" id="fiove2gehfpak" width="300%" x="-1" y="-1"><feGaussianBlur result="blurOut" stdDeviation="2.0"/><feColorMatrix in="blurOut" result="blurOut2" type="matrix" values="0 0 0 0 0 0 0 0 0 0 0 0 0 0 0 0 0 0 .4 0"/><feOffset dx="4.0" dy="4.0" in="blurOut2" result="blurOut3"/><feBlend in="SourceGraphic" in2="blurOut3" mode="normal"/></filter></defs><g><rect fill="#FFFFFF" filter="url(#fiove2gehfpak)" height="246.6411" style="stroke: #000000; stroke-width: 2.0;" width="238.5" x="13" y="137.8745"/><rect fill="#FFFFFF" height="48.7773" style="stroke: none; stroke-width: 1.0;" width="238.5" x="13" y="189.4063"/><rect fill="#FFFFFF" height="48.7773" style="stroke: none; stroke-width: 1.0;" width="238.5" x="13" y="238.1836"/><rect fill="#FFFFFF" height="48.7773" style="stroke: none; stroke-width: 1.0;" width="238.5" x="13" y="286.9609"/><rect fill="#FFFFFF" height="48.7773" style="stroke: none; stroke-width: 1.0;" width="238.5" x="13" y="335.7383"/><line style="stroke: #A80036; stroke-width: 1.0; stroke-dasharray: 5.0,5.0;" x1="40" x2="40" y1="89.1201" y2="433.27"/><line style="stroke: #A80036; stroke-width: 1.0; stroke-dasharray: 5.0,5.0;" x1="207.5" x2="207.5" y1="89.1201" y2="433.27"/><text fill="#000000" font-family="sans-serif" font-size="14" lengthAdjust="spacingAndGlyphs" textLength="29" x="23" y="86.0439">User</text><ellipse cx="40.5" cy="13" fill="#FEFECE" filter="url(#fiove2gehfpak)" rx="8" ry="8" style="stroke: #A80036; stroke-width: 2.0;"/><path d="M40.5,21 L40.5,48 M27.5,29 L53.5,29 M40.5,48 L27.5,63 M40.5,48 L53.5,63 " fill="none" filter="url(#fiove2gehfpak)" style="stroke: #A80036; stroke-width: 2.0;"/><text fill="#000000" font-family="sans-serif" font-size="14" lengthAdjust="spacingAndGlyphs" textLength="29" x="23" y="448.314">User</text><ellipse cx="40.5" cy="461.3901" fill="#FEFECE" filter="url(#fiove2gehfpak)" rx="8" ry="8" style="stroke: #A80036; stroke-width: 2.0;"/><path d="M40.5,469.3901 L40.5,496.3901 M27.5,477.3901 L53.5,477.3901 M40.5,496.3901 L27.5,511.3901 M40.5,496.3901 L53.5,511.3901 " fill="none" filter="url(#fiove2gehfpak)" style="stroke: #A80036; stroke-width: 2.0;"/><rect fill="#FEFECE" filter="url(#fiove2gehfpak)" height="33.1201" style="stroke: #A80036; stroke-width: 1.5;" width="64" x="173.5" y="51"/><text fill="#000000" font-family="sans-serif" font-size="14" lengthAdjust="spacingAndGlyphs" textLength="50" x="180.5" y="74.0439">:System</text><rect fill="#FEFECE" filter="url(#fiove2gehfpak)" height="33.1201" style="stroke: #A80036; stroke-width: 1.5;" width="64" x="173.5" y="432.27"/><text fill="#000000" font-family="sans-serif" font-size="14" lengthAdjust="spacingAndGlyphs" textLength="50" x="180.5" y="455.314">:System</text><polygon fill="#A80036" points="195.5,118.8745,205.5,122.8745,195.5,126.8745,199.5,122.8745" style="stroke: #A80036; stroke-width: 1.0;"/><line style="stroke: #A80036; stroke-width: 1.0;" x1="40.5" x2="201.5" y1="122.8745" y2="122.8745"/><text fill="#000000" font-family="sans-serif" font-size="13" lengthAdjust="spacingAndGlyphs" textLength="143" x="47.5" y="118.0181">manageLocalVSSLibrary</text><path d="M13,137.8745 L74,137.8745 L74,146.8745 L64,156.8745 L13,156.8745 L13,137.8745 " fill="#EEEEEE" style="stroke: #000000; stroke-width: 1.0;"/><rect fill="none" height="246.6411" style="stroke: #000000; stroke-width: 2.0;" width="238.5" x="13" y="137.8745"/><text fill="#000000" font-family="sans-serif" font-size="13" font-weight="bold" lengthAdjust="spacingAndGlyphs" textLength="16" x="28" y="153.7725">alt</text><text fill="#000000" font-family="sans-serif" font-size="11" font-weight="bold" lengthAdjust="spacingAndGlyphs" textLength="102" x="89" y="152.4805">[Create Operation]</text><polygon fill="#A80036" points="195.5,177.4063,205.5,181.4063,195.5,185.4063,199.5,181.4063" style="stroke: #A80036; stroke-width: 1.0;"/><line style="stroke: #A80036; stroke-width: 1.0;" x1="40.5" x2="201.5" y1="181.4063" y2="181.4063"/><text fill="#000000" font-family="sans-serif" font-size="13" lengthAdjust="spacingAndGlyphs" textLength="65" x="47.5" y="176.5498">CreateVSS</text><line style="stroke: #000000; stroke-width: 1.0; stroke-dasharray: 2.0,2.0;" x1="13" x2="251.5" y1="190.4063" y2="190.4063"/><text fill="#000000" font-family="sans-serif" font-size="11" font-weight="bold" lengthAdjust="spacingAndGlyphs" textLength="110" x="18" y="203.0122">[Rename Operation]</text><polygon fill="#A80036" points="195.5,226.1836,205.5,230.1836,195.5,234.1836,199.5,230.1836" style="stroke: #A80036; stroke-width: 1.0;"/><line style="stroke: #A80036; stroke-width: 1.0;" x1="40.5" x2="201.5" y1="230.1836" y2="230.1836"/><text fill="#000000" font-family="sans-serif" font-size="13" lengthAdjust="spacingAndGlyphs" textLength="75" x="47.5" y="225.3271">RenameVSS</text><line style="stroke: #000000; stroke-width: 1.0; stroke-dasharray: 2.0,2.0;" x1="13" x2="251.5" y1="239.1836" y2="239.1836"/><text fill="#000000" font-family="sans-serif" font-size="11" font-weight="bold" lengthAdjust="spacingAndGlyphs" textLength="100" x="18" y="251.7896">[Delete Operation]</text><polygon fill="#A80036" points="195.5,274.9609,205.5,278.9609,195.5,282.9609,199.5,278.9609" style="stroke: #A80036; stroke-width: 1.0;"/><line style="stroke: #A80036; stroke-width: 1.0;" x1="40.5" x2="201.5" y1="278.9609" y2="278.9609"/><text fill="#000000" font-family="sans-serif" font-size="13" lengthAdjust="spacingAndGlyphs" textLength="64" x="47.5" y="274.1045">DeleteVSS</text><line style="stroke: #000000; stroke-width: 1.0; stroke-dasharray: 2.0,2.0;" x1="13" x2="251.5" y1="287.9609" y2="287.9609"/><text fill="#000000" font-family="sans-serif" font-size="11" font-weight="bold" lengthAdjust="spacingAndGlyphs" textLength="102" x="18" y="300.5669">[Upload Operation]</text><polygon fill="#A80036" points="195.5,323.7383,205.5,327.7383,195.5,331.7383,199.5,327.7383" style="stroke: #A80036; stroke-width: 1.0;"/><line style="stroke: #A80036; stroke-width: 1.0;" x1="40.5" x2="201.5" y1="327.7383" y2="327.7383"/><text fill="#000000" font-family="sans-serif" font-size="13" lengthAdjust="spacingAndGlyphs" textLength="67" x="47.5" y="322.8818">UploadVSS</text><line style="stroke: #000000; stroke-width: 1.0; stroke-dasharray: 2.0,2.0;" x1="13" x2="251.5" y1="336.7383" y2="336.7383"/><text fill="#000000" font-family="sans-serif" font-size="11" font-weight="bold" lengthAdjust="spacingAndGlyphs" textLength="110" x="18" y="349.3442">[Preview Operation]</text><polygon fill="#A80036" points="195.5,372.5156,205.5,376.5156,195.5,380.5156,199.5,376.5156" style="stroke: #A80036; stroke-width: 1.0;"/><line style="stroke: #A80036; stroke-width: 1.0;" x1="40.5" x2="201.5" y1="376.5156" y2="376.5156"/><text fill="#000000" font-family="sans-serif" font-size="13" lengthAdjust="spacingAndGlyphs" textLength="71" x="47.5" y="371.6592">PreviewVSS</text><polygon fill="#A80036" points="195.5,411.27,205.5,415.27,195.5,419.27,199.5,415.27" style="stroke: #A80036; stroke-width: 1.0;"/><line style="stroke: #A80036; stroke-width: 1.0;" x1="40.5" x2="201.5" y1="415.27" y2="415.27"/><text fill="#000000" font-family="sans-serif" font-size="13" lengthAdjust="spacingAndGlyphs" textLength="116" x="47.5" y="410.4136">saveManageChange</text><!--
@startuml
actor User
participant ":System"
User -> ":System": manageLocalVSSLibrary
alt Create Operation
  User -> ":System": CreateVSS
else Rename Operation
  User -> ":System": RenameVSS
else Delete Operation
  User -> ":System": DeleteVSS
else Upload Operation
  User -> ":System": UploadVSS
else Preview Operation
  User -> ":System": PreviewVSS
end
User -> ":System": saveManageChange
@enduml

PlantUML version 1.2018.02(Sat Mar 10 01:20:44 CST 2018)
(GPL source distribution)
Java Runtime: Java(TM) SE Runtime Environment
JVM: Java HotSpot(TM) Client VM
Java Version: 1.8.0_162-b12
Operating System: Windows 10
OS Version: 10.0
Default Encoding: GBK
Language: zh
Country: CN
--></g></svg>