<?xml version="1.0" encoding="UTF-8" standalone="no"?><svg xmlns="http://www.w3.org/2000/svg" xmlns:xlink="http://www.w3.org/1999/xlink" contentScriptType="application/ecmascript" contentStyleType="text/css" height="294px" preserveAspectRatio="none" style="width:353px;height:294px;" version="1.1" viewBox="0 0 353 294"
    width="353px" zoomAndPan="magnify"><defs><filter height="300%" id="fpbj9xi7c8rf3" width="300%" x="-1" y="-1"><feGaussianBlur result="blurOut" stdDeviation="2.0"/><feColorMatrix in="blurOut" result="blurOut2" type="matrix" values="0 0 0 0 0 0 0 0 0 0 0 0 0 0 0 0 0 0 .4 0"/><feOffset dx="4.0" dy="4.0" in="blurOut2" result="blurOut3"/><feBlend in="SourceGraphic" in2="blurOut3" mode="normal"/></filter></defs><g><line style="stroke: #A80036; stroke-width: 1.0; stroke-dasharray: 5.0,5.0;" x1="25" x2="25" y1="89.1201" y2="204.3833"/><line style="stroke: #A80036; stroke-width: 1.0; stroke-dasharray: 5.0,5.0;" x1="199.5" x2="199.5" y1="89.1201" y2="204.3833"/><line style="stroke: #A80036; stroke-width: 1.0; stroke-dasharray: 5.0,5.0;" x1="312" x2="312" y1="89.1201" y2="204.3833"/><text fill="#000000" font-family="sans-serif" font-size="14" lengthAdjust="spacingAndGlyphs" textLength="29" x="8" y="86.0439">User</text><ellipse cx="25.5" cy="13" fill="#FEFECE" filter="url(#fpbj9xi7c8rf3)" rx="8" ry="8" style="stroke: #A80036; stroke-width: 2.0;"/><path d="M25.5,21 L25.5,48 M12.5,29 L38.5,29 M25.5,48 L12.5,63 M25.5,48 L38.5,63 " fill="none" filter="url(#fpbj9xi7c8rf3)" style="stroke: #A80036; stroke-width: 2.0;"/><text fill="#000000" font-family="sans-serif" font-size="14" lengthAdjust="spacingAndGlyphs" textLength="29" x="8" y="219.4272">User</text><ellipse cx="25.5" cy="232.5034" fill="#FEFECE" filter="url(#fpbj9xi7c8rf3)" rx="8" ry="8" style="stroke: #A80036; stroke-width: 2.0;"/><path d="M25.5,240.5034 L25.5,267.5034 M12.5,248.5034 L38.5,248.5034 M25.5,267.5034 L12.5,282.5034 M25.5,267.5034 L38.5,282.5034 " fill="none" filter="url(#fpbj9xi7c8rf3)" style="stroke: #A80036; stroke-width: 2.0;"/><rect fill="#FEFECE" filter="url(#fpbj9xi7c8rf3)" height="33.1201" style="stroke: #A80036; stroke-width: 1.5;" width="64" x="165.5" y="51"/><text fill="#000000" font-family="sans-serif" font-size="14" lengthAdjust="spacingAndGlyphs" textLength="50" x="172.5" y="74.0439">:System</text><rect fill="#FEFECE" filter="url(#fpbj9xi7c8rf3)" height="33.1201" style="stroke: #A80036; stroke-width: 1.5;" width="64" x="165.5" y="203.3833"/><text fill="#000000" font-family="sans-serif" font-size="14" lengthAdjust="spacingAndGlyphs" textLength="50" x="172.5" y="226.4272">:System</text><rect fill="#FEFECE" filter="url(#fpbj9xi7c8rf3)" height="33.1201" style="stroke: #A80036; stroke-width: 1.5;" width="63" x="279" y="51"/><text fill="#000000" font-family="sans-serif" font-size="14" lengthAdjust="spacingAndGlyphs" textLength="49" x="286" y="74.0439">:Sensor</text><rect fill="#FEFECE" filter="url(#fpbj9xi7c8rf3)" height="33.1201" style="stroke: #A80036; stroke-width: 1.5;" width="63" x="279" y="203.3833"/><text fill="#000000" font-family="sans-serif" font-size="14" lengthAdjust="spacingAndGlyphs" textLength="49" x="286" y="226.4272">:Sensor</text><polygon fill="#A80036" points="36.5,118.8745,26.5,122.8745,36.5,126.8745,32.5,122.8745" style="stroke: #A80036; stroke-width: 1.0;"/><line style="stroke: #A80036; stroke-width: 1.0;" x1="30.5" x2="198.5" y1="122.8745" y2="122.8745"/><text fill="#000000" font-family="sans-serif" font-size="13" lengthAdjust="spacingAndGlyphs" textLength="150" x="42.5" y="118.0181">PlayVSSRemindMessage</text><polygon fill="#A80036" points="210.5,150.6289,200.5,154.6289,210.5,158.6289,206.5,154.6289" style="stroke: #A80036; stroke-width: 1.0;"/><line style="stroke: #A80036; stroke-width: 1.0;" x1="204.5" x2="311.5" y1="154.6289" y2="154.6289"/><text fill="#000000" font-family="sans-serif" font-size="13" lengthAdjust="spacingAndGlyphs" textLength="89" x="216.5" y="149.7725">HeadMovement</text><polygon fill="#A80036" points="36.5,182.3833,26.5,186.3833,36.5,190.3833,32.5,186.3833" style="stroke: #A80036; stroke-width: 1.0;"/><line style="stroke: #A80036; stroke-width: 1.0;" x1="30.5" x2="198.5" y1="186.3833" y2="186.3833"/><text fill="#000000" font-family="sans-serif" font-size="13" lengthAdjust="spacingAndGlyphs" textLength="37" x="42.5" y="181.5269">Sound</text><!--
@startuml
actor User
participant ":System"
participant ":Sensor"
":System" -> User: PlayVSSRemindMessage
":Sensor" -> ":System": HeadMovement
":System" -> User: Sound
@enduml

PlantUML version 1.2018.02(Sat Mar 10 01:20:44 CST 2018)
(GPL source distribution)
Java Runtime: Java(TM) SE Runtime Environment
JVM: Java HotSpot(TM) Client VM
Java Version: 1.8.0_162-b12
Operating System: Windows 10
OS Version: 10.0
Default Encoding: GBK
Language: zh
Country: CN
--></g></svg>