<?xml version="1.0" encoding="UTF-8" standalone="no"?><svg xmlns="http://www.w3.org/2000/svg" xmlns:xlink="http://www.w3.org/1999/xlink" contentScriptType="application/ecmascript" contentStyleType="text/css" height="345px" preserveAspectRatio="none" style="width:250px;height:345px;" version="1.1" viewBox="0 0 250 345"
    width="250px" zoomAndPan="magnify"><defs><filter height="300%" id="f1l0w5gilvmzt1" width="300%" x="-1" y="-1"><feGaussianBlur result="blurOut" stdDeviation="2.0"/><feColorMatrix in="blurOut" result="blurOut2" type="matrix" values="0 0 0 0 0 0 0 0 0 0 0 0 0 0 0 0 0 0 .4 0"/><feOffset dx="4.0" dy="4.0" in="blurOut2" result="blurOut3"/><feBlend in="SourceGraphic" in2="blurOut3" mode="normal"/></filter></defs><g><rect fill="#FFFFFF" filter="url(#f1l0w5gilvmzt1)" height="100.3091" style="stroke: #000000; stroke-width: 2.0;" width="225.5" x="13" y="137.8745"/><rect fill="#FFFFFF" height="48.7773" style="stroke: none; stroke-width: 1.0;" width="225.5" x="13" y="189.4063"/><line style="stroke: #A80036; stroke-width: 1.0; stroke-dasharray: 5.0,5.0;" x1="40" x2="40" y1="89.1201" y2="255.1836"/><line style="stroke: #A80036; stroke-width: 1.0; stroke-dasharray: 5.0,5.0;" x1="194.5" x2="194.5" y1="89.1201" y2="255.1836"/><text fill="#000000" font-family="sans-serif" font-size="14" lengthAdjust="spacingAndGlyphs" textLength="29" x="23" y="86.0439">User</text><ellipse cx="40.5" cy="13" fill="#FEFECE" filter="url(#f1l0w5gilvmzt1)" rx="8" ry="8" style="stroke: #A80036; stroke-width: 2.0;"/><path d="M40.5,21 L40.5,48 M27.5,29 L53.5,29 M40.5,48 L27.5,63 M40.5,48 L53.5,63 " fill="none" filter="url(#f1l0w5gilvmzt1)" style="stroke: #A80036; stroke-width: 2.0;"/><text fill="#000000" font-family="sans-serif" font-size="14" lengthAdjust="spacingAndGlyphs" textLength="29" x="23" y="270.2275">User</text><ellipse cx="40.5" cy="283.3037" fill="#FEFECE" filter="url(#f1l0w5gilvmzt1)" rx="8" ry="8" style="stroke: #A80036; stroke-width: 2.0;"/><path d="M40.5,291.3037 L40.5,318.3037 M27.5,299.3037 L53.5,299.3037 M40.5,318.3037 L27.5,333.3037 M40.5,318.3037 L53.5,333.3037 " fill="none" filter="url(#f1l0w5gilvmzt1)" style="stroke: #A80036; stroke-width: 2.0;"/><rect fill="#FEFECE" filter="url(#f1l0w5gilvmzt1)" height="33.1201" style="stroke: #A80036; stroke-width: 1.5;" width="64" x="160.5" y="51"/><text fill="#000000" font-family="sans-serif" font-size="14" lengthAdjust="spacingAndGlyphs" textLength="50" x="167.5" y="74.0439">:System</text><rect fill="#FEFECE" filter="url(#f1l0w5gilvmzt1)" height="33.1201" style="stroke: #A80036; stroke-width: 1.5;" width="64" x="160.5" y="254.1836"/><text fill="#000000" font-family="sans-serif" font-size="14" lengthAdjust="spacingAndGlyphs" textLength="50" x="167.5" y="277.2275">:System</text><polygon fill="#A80036" points="182.5,118.8745,192.5,122.8745,182.5,126.8745,186.5,122.8745" style="stroke: #A80036; stroke-width: 1.0;"/><line style="stroke: #A80036; stroke-width: 1.0;" x1="40.5" x2="188.5" y1="122.8745" y2="122.8745"/><text fill="#000000" font-family="sans-serif" font-size="13" lengthAdjust="spacingAndGlyphs" textLength="78" x="47.5" y="118.0181">AdjustSensor</text><path d="M13,137.8745 L74,137.8745 L74,146.8745 L64,156.8745 L13,156.8745 L13,137.8745 " fill="#EEEEEE" style="stroke: #000000; stroke-width: 1.0;"/><rect fill="none" height="100.3091" style="stroke: #000000; stroke-width: 2.0;" width="225.5" x="13" y="137.8745"/><text fill="#000000" font-family="sans-serif" font-size="13" font-weight="bold" lengthAdjust="spacingAndGlyphs" textLength="16" x="28" y="153.7725">alt</text><text fill="#000000" font-family="sans-serif" font-size="11" font-weight="bold" lengthAdjust="spacingAndGlyphs" textLength="62" x="89" y="152.4805">[MapMode]</text><polygon fill="#A80036" points="182.5,177.4063,192.5,181.4063,182.5,185.4063,186.5,181.4063" style="stroke: #A80036; stroke-width: 1.0;"/><line style="stroke: #A80036; stroke-width: 1.0;" x1="40.5" x2="188.5" y1="181.4063" y2="181.4063"/><text fill="#000000" font-family="sans-serif" font-size="13" lengthAdjust="spacingAndGlyphs" textLength="110" x="47.5" y="176.5498">PlayMapModeVSS</text><line style="stroke: #000000; stroke-width: 1.0; stroke-dasharray: 2.0,2.0;" x1="13" x2="238.5" y1="190.4063" y2="190.4063"/><text fill="#000000" font-family="sans-serif" font-size="11" font-weight="bold" lengthAdjust="spacingAndGlyphs" textLength="83" x="18" y="203.0122">[ConcertMode]</text><polygon fill="#A80036" points="182.5,226.1836,192.5,230.1836,182.5,234.1836,186.5,230.1836" style="stroke: #A80036; stroke-width: 1.0;"/><line style="stroke: #A80036; stroke-width: 1.0;" x1="40.5" x2="188.5" y1="230.1836" y2="230.1836"/><text fill="#000000" font-family="sans-serif" font-size="13" lengthAdjust="spacingAndGlyphs" textLength="130" x="47.5" y="225.3271">PlayConcertModeVSS</text><!--
@startuml
actor User
participant ":System"
User -> ":System": AdjustSensor
alt MapMode
  User -> ":System": PlayMapModeVSS
else ConcertMode
  User -> ":System": PlayConcertModeVSS
end
@enduml

PlantUML version 1.2018.02(Sat Mar 10 01:20:44 CST 2018)
(GPL source distribution)
Java Runtime: Java(TM) SE Runtime Environment
JVM: Java HotSpot(TM) Client VM
Java Version: 1.8.0_162-b12
Operating System: Windows 10
OS Version: 10.0
Default Encoding: GBK
Language: zh
Country: CN
--></g></svg>