<?xml version="1.0" encoding="UTF-8" standalone="no"?><svg xmlns="http://www.w3.org/2000/svg" xmlns:xlink="http://www.w3.org/1999/xlink" contentScriptType="application/ecmascript" contentStyleType="text/css" height="200px" preserveAspectRatio="none" style="width:526px;height:200px;" version="1.1" viewBox="0 0 526 200"
    width="526px" zoomAndPan="magnify"><defs><filter height="300%" id="f1j122piuk33tv" width="300%" x="-1" y="-1"><feGaussianBlur result="blurOut" stdDeviation="2.0"/><feColorMatrix in="blurOut" result="blurOut2" type="matrix" values="0 0 0 0 0 0 0 0 0 0 0 0 0 0 0 0 0 0 .4 0"/><feOffset dx="4.0" dy="4.0" in="blurOut2" result="blurOut3"/><feBlend in="SourceGraphic" in2="blurOut3" mode="normal"/></filter></defs><g><line style="stroke: #A80036; stroke-width: 1.0; stroke-dasharray: 5.0,5.0;" x1="75" x2="75" y1="38.4883" y2="188.7305"/><line style="stroke: #A80036; stroke-width: 1.0; stroke-dasharray: 5.0,5.0;" x1="218" x2="218" y1="38.4883" y2="188.7305"/><line style="stroke: #A80036; stroke-width: 1.0; stroke-dasharray: 5.0,5.0;" x1="363" x2="363" y1="38.4883" y2="188.7305"/><line style="stroke: #A80036; stroke-width: 1.0; stroke-dasharray: 5.0,5.0;" x1="480" x2="480" y1="38.4883" y2="188.7305"/><rect fill="#FEFECE" filter="url(#f1j122piuk33tv)" height="30.4883" style="stroke: #A80036; stroke-width: 1.5;" width="130" x="8" y="3"/><text fill="#000000" font-family="sans-serif" font-size="14" lengthAdjust="spacingAndGlyphs" text-decoration="underline" textLength="116" x="15" y="23.5352">:LoginViewModel</text><line style="stroke: #000000; stroke-width: 1.0;" x1="15" x2="131" y1="25.5352" y2="25.5352"/><rect fill="#FEFECE" filter="url(#f1j122piuk33tv)" height="30.4883" style="stroke: #A80036; stroke-width: 1.5;" width="128" x="152" y="3"/><text fill="#000000" font-family="sans-serif" font-size="14" lengthAdjust="spacingAndGlyphs" text-decoration="underline" textLength="114" x="159" y="23.5352">:UserInfoControl</text><line style="stroke: #000000; stroke-width: 1.0;" x1="159" x2="273" y1="25.5352" y2="25.5352"/><rect fill="#FEFECE" filter="url(#f1j122piuk33tv)" height="30.4883" style="stroke: #A80036; stroke-width: 1.5;" width="134" x="294" y="3"/><text fill="#000000" font-family="sans-serif" font-size="14" lengthAdjust="spacingAndGlyphs" text-decoration="underline" textLength="120" x="301" y="23.5352">:GVRAudioEngine</text><line style="stroke: #000000; stroke-width: 1.0;" x1="301" x2="421" y1="25.5352" y2="25.5352"/><rect fill="#FEFECE" filter="url(#f1j122piuk33tv)" height="30.4883" style="stroke: #A80036; stroke-width: 1.5;" width="73" x="442" y="3"/><text fill="#000000" font-family="sans-serif" font-size="14" lengthAdjust="spacingAndGlyphs" text-decoration="underline" textLength="59" x="449" y="23.5352">:Callable</text><line style="stroke: #000000; stroke-width: 1.0;" x1="449" x2="508" y1="25.5352" y2="25.5352"/><polygon fill="#A80036" points="206,65.4883,216,69.4883,206,73.4883,210,69.4883" style="stroke: #A80036; stroke-width: 1.0;"/><line style="stroke: #A80036; stroke-width: 1.0;" x1="75" x2="212" y1="69.4883" y2="69.4883"/><text fill="#000000" font-family="sans-serif" font-size="13" lengthAdjust="spacingAndGlyphs" textLength="87" x="82" y="65.0566">&lt;&lt;destroy&gt;&gt;</text><line style="stroke: #A80036; stroke-width: 2.0;" x1="209" x2="227" y1="60.4883" y2="78.4883"/><line style="stroke: #A80036; stroke-width: 2.0;" x1="209" x2="227" y1="78.4883" y2="60.4883"/><polygon fill="#A80036" points="351,94.7988,361,98.7988,351,102.7988,355,98.7988" style="stroke: #A80036; stroke-width: 1.0;"/><line style="stroke: #A80036; stroke-width: 1.0;" x1="75" x2="357" y1="98.7988" y2="98.7988"/><text fill="#000000" font-family="sans-serif" font-size="13" lengthAdjust="spacingAndGlyphs" textLength="87" x="82" y="94.3672">&lt;&lt;destroy&gt;&gt;</text><line style="stroke: #A80036; stroke-width: 2.0;" x1="354" x2="372" y1="89.7988" y2="107.7988"/><line style="stroke: #A80036; stroke-width: 2.0;" x1="354" x2="372" y1="107.7988" y2="89.7988"/><polygon fill="#A80036" points="468.5,124.1094,478.5,128.1094,468.5,132.1094,472.5,128.1094" style="stroke: #A80036; stroke-width: 1.0;"/><line style="stroke: #A80036; stroke-width: 1.0;" x1="75" x2="474.5" y1="128.1094" y2="128.1094"/><text fill="#000000" font-family="sans-serif" font-size="13" lengthAdjust="spacingAndGlyphs" textLength="87" x="82" y="123.6777">&lt;&lt;destroy&gt;&gt;</text><line style="stroke: #A80036; stroke-width: 2.0;" x1="471.5" x2="489.5" y1="119.1094" y2="137.1094"/><line style="stroke: #A80036; stroke-width: 2.0;" x1="471.5" x2="489.5" y1="137.1094" y2="119.1094"/><line style="stroke: #A80036; stroke-width: 1.0;" x1="75" x2="117" y1="157.7305" y2="157.7305"/><line style="stroke: #A80036; stroke-width: 1.0;" x1="117" x2="117" y1="157.7305" y2="170.7305"/><line style="stroke: #A80036; stroke-width: 1.0;" x1="76" x2="117" y1="170.7305" y2="170.7305"/><polygon fill="#A80036" points="86,166.7305,76,170.7305,86,174.7305,82,170.7305" style="stroke: #A80036; stroke-width: 1.0;"/><text fill="#000000" font-family="sans-serif" font-size="13" lengthAdjust="spacingAndGlyphs" textLength="87" x="82" y="152.9883">&lt;&lt;destroy&gt;&gt;</text><line style="stroke: #A80036; stroke-width: 2.0;" x1="66" x2="84" y1="161.4199" y2="179.4199"/><line style="stroke: #A80036; stroke-width: 2.0;" x1="66" x2="84" y1="179.4199" y2="161.4199"/><!--
@startuml Diagrams/AppOff
hide footbox
skinparam sequenceParticipant underline
Participant ":LoginViewModel" as LoginViewModel
Participant ":UserInfoControl" as UserInfoControl
Participant ":GVRAudioEngine" as GVRAudioEngine
Participant ":Callable" as Callable

LoginViewModel -> UserInfoControl: <<destroy>>
destroy UserInfoControl
LoginViewModel -> GVRAudioEngine: <<destroy>>
destroy GVRAudioEngine
LoginViewModel -> Callable: <<destroy>>
destroy Callable
LoginViewModel -> LoginViewModel: <<destroy>>
destroy LoginViewModel
@enduml

PlantUML version 1.2018.01(Mon Jan 29 02:08:22 CST 2018)
(GPL source distribution)
Java Runtime: Java(TM) SE Runtime Environment
JVM: Java HotSpot(TM) 64-Bit Server VM
Java Version: 9+181
Operating System: Mac OS X
OS Version: 10.12.6
Default Encoding: UTF-8
Language: zh
Country: CN
--></g></svg>