<?xml version="1.0" encoding="UTF-8" standalone="no"?><svg xmlns="http://www.w3.org/2000/svg" xmlns:xlink="http://www.w3.org/1999/xlink" contentScriptType="application/ecmascript" contentStyleType="text/css" height="186px" preserveAspectRatio="none" style="width:169px;height:186px;" version="1.1" viewBox="0 0 169 186"
    width="169px" zoomAndPan="magnify"><defs><filter height="300%" id="fe2occ0ze875e" width="300%" x="-1" y="-1"><feGaussianBlur result="blurOut" stdDeviation="2.0"/><feColorMatrix in="blurOut" result="blurOut2" type="matrix" values="0 0 0 0 0 0 0 0 0 0 0 0 0 0 0 0 0 0 .4 0"/><feOffset dx="4.0" dy="4.0" in="blurOut2" result="blurOut3"/><feBlend in="SourceGraphic" in2="blurOut3" mode="normal"/></filter></defs><g><!--cluster AudioSubsystem--><rect fill="#FFFFFF" filter="url(#fe2occ0ze875e)" height="83" style="stroke: #000000; stroke-width: 1.5;" width="144" x="14" y="16"/><rect fill="#FFFFFF" height="10" style="stroke: #000000; stroke-width: 1.5;" width="15" x="138" y="21"/><rect fill="#FFFFFF" height="2" style="stroke: #000000; stroke-width: 1.5;" width="4" x="136" y="23"/><rect fill="#FFFFFF" height="2" style="stroke: #000000; stroke-width: 1.5;" width="4" x="136" y="27"/><text fill="#000000" font-family="sans-serif" font-size="14" font-weight="bold" lengthAdjust="spacingAndGlyphs" textLength="120" x="26" y="42.5352">AudioSubsystem</text><!--class GVRAudioEngine--><rect fill="#FEFECE" filter="url(#fe2occ0ze875e)" height="48" id="GVRAudioEngine" style="stroke: #A80036; stroke-width: 1.5;" width="128" x="22" y="43"/><ellipse cx="37" cy="59" fill="#ADD1B2" rx="11" ry="11" style="stroke: #A80036; stroke-width: 1.0;"/><path d="M39.9731,64.6431 Q39.3921,64.9419 38.7529,65.0913 Q38.1138,65.2407 37.4082,65.2407 Q34.9014,65.2407 33.5815,63.5889 Q32.2617,61.937 32.2617,58.8159 Q32.2617,55.6865 33.5815,54.0347 Q34.9014,52.3828 37.4082,52.3828 Q38.1138,52.3828 38.7612,52.5322 Q39.4087,52.6816 39.9731,52.9805 L39.9731,55.7031 Q39.3423,55.1221 38.7488,54.8523 Q38.1553,54.5825 37.5244,54.5825 Q36.1797,54.5825 35.4949,55.6492 Q34.8101,56.7158 34.8101,58.8159 Q34.8101,60.9077 35.4949,61.9744 Q36.1797,63.041 37.5244,63.041 Q38.1553,63.041 38.7488,62.7712 Q39.3423,62.5015 39.9731,61.9204 Z "/><text fill="#000000" font-family="sans-serif" font-size="12" lengthAdjust="spacingAndGlyphs" textLength="96" x="51" y="63.5352">GVRAudioEngine</text><line style="stroke: #A80036; stroke-width: 1.5;" x1="23" x2="149" y1="75" y2="75"/><line style="stroke: #A80036; stroke-width: 1.5;" x1="23" x2="149" y1="83" y2="83"/><ellipse cx="86" cy="156" fill="#FEFECE" filter="url(#fe2occ0ze875e)" rx="5" ry="5" style="stroke: #A80036; stroke-width: 1.5;"/><text fill="#000000" font-family="sans-serif" font-size="12" lengthAdjust="spacingAndGlyphs" textLength="96" x="38" y="172.6016">AudioGeneration</text><!--link GVRAudioEngine to GVRAudioEnginelol152--><path d="M86,91.3196 C86,111.7007 86,139.247 86,150.6827 " fill="none" id="GVRAudioEngine-GVRAudioEnginelol152" style="stroke: #A80036; stroke-width: 1.0;"/><!--
@startuml Diagrams/AudioSubsystemClassDiagram
component AudioSubsystem {
    class GVRAudioEngine {

    }
}
GVRAudioEngine - -() AudioGeneration
@enduml

PlantUML version 1.2018.01(Mon Jan 29 02:08:22 CST 2018)
(GPL source distribution)
Java Runtime: Java(TM) SE Runtime Environment
JVM: Java HotSpot(TM) 64-Bit Server VM
Java Version: 9+181
Operating System: Mac OS X
OS Version: 10.12.6
Default Encoding: UTF-8
Language: zh
Country: CN
--></g></svg>