<?xml version="1.0" encoding="UTF-8" standalone="no"?><svg xmlns="http://www.w3.org/2000/svg" xmlns:xlink="http://www.w3.org/1999/xlink" contentScriptType="application/ecmascript" contentStyleType="text/css" height="256px" preserveAspectRatio="none" style="width:300px;height:256px;" version="1.1" viewBox="0 0 300 256"
    width="300px" zoomAndPan="magnify"><defs><filter height="300%" id="f1ppndlhmpgq4m" width="300%" x="-1" y="-1"><feGaussianBlur result="blurOut" stdDeviation="2.0"/><feColorMatrix in="blurOut" result="blurOut2" type="matrix" values="0 0 0 0 0 0 0 0 0 0 0 0 0 0 0 0 0 0 .4 0"/><feOffset dx="4.0" dy="4.0" in="blurOut2" result="blurOut3"/><feBlend in="SourceGraphic" in2="blurOut3" mode="normal"/></filter></defs><g><!--cluster CommunicationSubsystem--><rect fill="#FFFFFF" filter="url(#f1ppndlhmpgq4m)" height="83" style="stroke: #000000; stroke-width: 1.5;" width="208" x="14" y="16"/><rect fill="#FFFFFF" height="10" style="stroke: #000000; stroke-width: 1.5;" width="15" x="202" y="21"/><rect fill="#FFFFFF" height="2" style="stroke: #000000; stroke-width: 1.5;" width="4" x="200" y="23"/><rect fill="#FFFFFF" height="2" style="stroke: #000000; stroke-width: 1.5;" width="4" x="200" y="27"/><text fill="#000000" font-family="sans-serif" font-size="14" font-weight="bold" lengthAdjust="spacingAndGlyphs" textLength="192" x="22" y="42.5352">CommunicationSubsystem</text><!--class Communicator--><rect fill="#FEFECE" filter="url(#f1ppndlhmpgq4m)" height="48" id="Communicator" style="stroke: #A80036; stroke-width: 1.5;" width="115" x="88.5" y="43"/><ellipse cx="103.5" cy="59" fill="#ADD1B2" rx="11" ry="11" style="stroke: #A80036; stroke-width: 1.0;"/><path d="M106.4731,64.6431 Q105.8921,64.9419 105.2529,65.0913 Q104.6138,65.2407 103.9082,65.2407 Q101.4014,65.2407 100.0815,63.5889 Q98.7617,61.937 98.7617,58.8159 Q98.7617,55.6865 100.0815,54.0347 Q101.4014,52.3828 103.9082,52.3828 Q104.6138,52.3828 105.2612,52.5322 Q105.9087,52.6816 106.4731,52.9805 L106.4731,55.7031 Q105.8423,55.1221 105.2488,54.8523 Q104.6553,54.5825 104.0244,54.5825 Q102.6797,54.5825 101.9949,55.6492 Q101.3101,56.7158 101.3101,58.8159 Q101.3101,60.9077 101.9949,61.9744 Q102.6797,63.041 104.0244,63.041 Q104.6553,63.041 105.2488,62.7712 Q105.8423,62.5015 106.4731,61.9204 Z "/><text fill="#000000" font-family="sans-serif" font-size="12" lengthAdjust="spacingAndGlyphs" textLength="83" x="117.5" y="63.5352">Communicator</text><line style="stroke: #A80036; stroke-width: 1.5;" x1="89.5" x2="202.5" y1="75" y2="75"/><line style="stroke: #A80036; stroke-width: 1.5;" x1="89.5" x2="202.5" y1="83" y2="83"/><ellipse cx="244" cy="67" fill="#FEFECE" filter="url(#f1ppndlhmpgq4m)" rx="5" ry="5" style="stroke: #A80036; stroke-width: 1.5;"/><text fill="#000000" font-family="sans-serif" font-size="12" lengthAdjust="spacingAndGlyphs" textLength="89" x="199.5" y="83.6016">UploadVSSMeta</text><ellipse cx="88" cy="226" fill="#FEFECE" filter="url(#f1ppndlhmpgq4m)" rx="5" ry="5" style="stroke: #A80036; stroke-width: 1.5;"/><text fill="#000000" font-family="sans-serif" font-size="12" lengthAdjust="spacingAndGlyphs" textLength="105" x="35.5" y="242.6016">DownloadVSSMeta</text><ellipse cx="146" cy="156" fill="#FEFECE" filter="url(#f1ppndlhmpgq4m)" rx="5" ry="5" style="stroke: #A80036; stroke-width: 1.5;"/><text fill="#000000" font-family="sans-serif" font-size="12" lengthAdjust="spacingAndGlyphs" textLength="53" x="119.5" y="172.6016">UploadSF</text><ellipse cx="204" cy="226" fill="#FEFECE" filter="url(#f1ppndlhmpgq4m)" rx="5" ry="5" style="stroke: #A80036; stroke-width: 1.5;"/><text fill="#000000" font-family="sans-serif" font-size="12" lengthAdjust="spacingAndGlyphs" textLength="69" x="169.5" y="242.6016">DownloadSF</text><!--link Communicator to Communicatorlol123--><path d="M203.8047,67 C215.5283,67 227.252,67 238.9756,67 " fill="none" id="Communicator-Communicatorlol123" style="stroke: #A80036; stroke-width: 1.0;"/><!--link Communicator to Communicatorlol126--><path d="M137.191,91.1487 C123.184,129.5472 96.7012,202.1468 89.7216,221.2805 " fill="none" id="Communicator-Communicatorlol126" style="stroke: #A80036; stroke-width: 1.0;"/><!--link Communicator to Communicatorlol129--><path d="M146,91.3196 C146,111.7007 146,139.247 146,150.6827 " fill="none" id="Communicator-Communicatorlol129" style="stroke: #A80036; stroke-width: 1.0;"/><!--link Communicator to Communicatorlol132--><path d="M154.809,91.1487 C168.816,129.5472 195.2988,202.1468 202.2784,221.2805 " fill="none" id="Communicator-Communicatorlol132" style="stroke: #A80036; stroke-width: 1.0;"/><!--
@startuml Diagrams/CommunicationSubsystemClassDiagram
component CommunicationSubsystem {
    class Communicator {

    }
}
Communicator -() UploadVSSMeta
Communicator - - -() DownloadVSSMeta
Communicator - -() UploadSF
Communicator - - -() DownloadSF
@enduml

PlantUML version 1.2018.01(Mon Jan 29 02:08:22 CST 2018)
(GPL source distribution)
Java Runtime: Java(TM) SE Runtime Environment
JVM: Java HotSpot(TM) 64-Bit Server VM
Java Version: 9+181
Operating System: Mac OS X
OS Version: 10.12.6
Default Encoding: UTF-8
Language: zh
Country: CN
--></g></svg>