<?xml version="1.0" encoding="UTF-8" standalone="no"?><svg xmlns="http://www.w3.org/2000/svg" xmlns:xlink="http://www.w3.org/1999/xlink" contentScriptType="application/ecmascript" contentStyleType="text/css" height="294px" preserveAspectRatio="none" style="width:1343px;height:294px;" version="1.1" viewBox="0 0 1343 294"
    width="1343px" zoomAndPan="magnify"><defs><filter height="300%" id="f4untnjyvi0rt" width="300%" x="-1" y="-1"><feGaussianBlur result="blurOut" stdDeviation="2.0"/><feColorMatrix in="blurOut" result="blurOut2" type="matrix" values="0 0 0 0 0 0 0 0 0 0 0 0 0 0 0 0 0 0 .4 0"/><feOffset dx="4.0" dy="4.0" in="blurOut2" result="blurOut3"/><feBlend in="SourceGraphic" in2="blurOut3" mode="normal"/></filter></defs><g><line style="stroke: #A80036; stroke-width: 1.0; stroke-dasharray: 5.0,5.0;" x1="26" x2="26" y1="86.4883" y2="282.3516"/><line style="stroke: #A80036; stroke-width: 1.0; stroke-dasharray: 5.0,5.0;" x1="298" x2="298" y1="86.4883" y2="282.3516"/><line style="stroke: #A80036; stroke-width: 1.0; stroke-dasharray: 5.0,5.0;" x1="559" x2="559" y1="86.4883" y2="282.3516"/><line style="stroke: #A80036; stroke-width: 1.0; stroke-dasharray: 5.0,5.0;" x1="721" x2="721" y1="86.4883" y2="282.3516"/><line style="stroke: #A80036; stroke-width: 1.0; stroke-dasharray: 5.0,5.0;" x1="930.5" x2="930.5" y1="86.4883" y2="282.3516"/><text fill="#000000" font-family="sans-serif" font-size="14" lengthAdjust="spacingAndGlyphs" text-decoration="underline" textLength="31" x="8" y="83.5352">User</text><line style="stroke: #000000; stroke-width: 1.0;" x1="8" x2="39" y1="85.5352" y2="85.5352"/><ellipse cx="26.5" cy="13" fill="#FEFECE" filter="url(#f4untnjyvi0rt)" rx="8" ry="8" style="stroke: #A80036; stroke-width: 2.0;"/><path d="M26.5,21 L26.5,48 M13.5,29 L39.5,29 M26.5,48 L13.5,63 M26.5,48 L39.5,63 " fill="none" filter="url(#f4untnjyvi0rt)" style="stroke: #A80036; stroke-width: 2.0;"/><rect fill="#FEFECE" filter="url(#f4untnjyvi0rt)" height="30.4883" style="stroke: #A80036; stroke-width: 1.5;" width="103" x="245" y="51"/><text fill="#000000" font-family="sans-serif" font-size="14" lengthAdjust="spacingAndGlyphs" text-decoration="underline" textLength="89" x="252" y="71.5352">:PreviewPage</text><line style="stroke: #000000; stroke-width: 1.0;" x1="252" x2="341" y1="73.5352" y2="73.5352"/><rect fill="#FEFECE" filter="url(#f4untnjyvi0rt)" height="30.4883" style="stroke: #A80036; stroke-width: 1.5;" width="167" x="474" y="51"/><text fill="#000000" font-family="sans-serif" font-size="14" lengthAdjust="spacingAndGlyphs" text-decoration="underline" textLength="153" x="481" y="71.5352">:PreviewOnlineControl</text><line style="stroke: #000000; stroke-width: 1.0;" x1="481" x2="634" y1="73.5352" y2="73.5352"/><rect fill="#FEFECE" filter="url(#f4untnjyvi0rt)" height="30.4883" style="stroke: #A80036; stroke-width: 1.5;" width="128" x="655" y="51"/><text fill="#000000" font-family="sans-serif" font-size="14" lengthAdjust="spacingAndGlyphs" text-decoration="underline" textLength="114" x="662" y="71.5352">:UserInfoControl</text><line style="stroke: #000000; stroke-width: 1.0;" x1="662" x2="776" y1="73.5352" y2="73.5352"/><rect fill="#FEFECE" filter="url(#f4untnjyvi0rt)" height="30.4883" style="stroke: #A80036; stroke-width: 1.5;" width="194" x="831.5" y="51"/><text fill="#000000" font-family="sans-serif" font-size="14" lengthAdjust="spacingAndGlyphs" text-decoration="underline" textLength="180" x="838.5" y="71.5352">:OnlineSoundSpaceLibrary</text><line style="stroke: #000000; stroke-width: 1.0;" x1="838.5" x2="1018.5" y1="73.5352" y2="73.5352"/><polygon fill="#A80036" points="286.5,113.4883,296.5,117.4883,286.5,121.4883,290.5,117.4883" style="stroke: #A80036; stroke-width: 1.0;"/><line style="stroke: #A80036; stroke-width: 1.0;" x1="26.5" x2="292.5" y1="117.4883" y2="117.4883"/><text fill="#000000" font-family="sans-serif" font-size="13" lengthAdjust="spacingAndGlyphs" textLength="248" x="33.5" y="113.0566">submitComment(comment: String):void</text><polygon fill="#A80036" points="547.5,142.7988,557.5,146.7988,547.5,150.7988,551.5,146.7988" style="stroke: #A80036; stroke-width: 1.0;"/><line style="stroke: #A80036; stroke-width: 1.0;" x1="298.5" x2="553.5" y1="146.7988" y2="146.7988"/><text fill="#000000" font-family="sans-serif" font-size="13" lengthAdjust="spacingAndGlyphs" textLength="237" x="305.5" y="142.3672">submitComment(commit: String):void</text><polygon fill="#A80036" points="709,172.1094,719,176.1094,709,180.1094,713,176.1094" style="stroke: #A80036; stroke-width: 1.0;"/><line style="stroke: #A80036; stroke-width: 1.0;" x1="559.5" x2="715" y1="176.1094" y2="176.1094"/><text fill="#000000" font-family="sans-serif" font-size="13" lengthAdjust="spacingAndGlyphs" textLength="117" x="566.5" y="171.6777">getCurrentUserID()</text><polygon fill="#A80036" points="570.5,201.4199,560.5,205.4199,570.5,209.4199,566.5,205.4199" style="stroke: #A80036; stroke-width: 1.0;"/><line style="stroke: #A80036; stroke-width: 1.0; stroke-dasharray: 2.0,2.0;" x1="564.5" x2="720" y1="205.4199" y2="205.4199"/><text fill="#000000" font-family="sans-serif" font-size="13" lengthAdjust="spacingAndGlyphs" textLength="87" x="576.5" y="200.9883">currentUserID</text><polygon fill="#A80036" points="918.5,230.7305,928.5,234.7305,918.5,238.7305,922.5,234.7305" style="stroke: #A80036; stroke-width: 1.0;"/><line style="stroke: #A80036; stroke-width: 1.0;" x1="559.5" x2="924.5" y1="234.7305" y2="234.7305"/><text fill="#000000" font-family="sans-serif" font-size="13" lengthAdjust="spacingAndGlyphs" textLength="347" x="566.5" y="230.2988">addCommit(whichVSS, userid:int, comment:String):void</text><polygon fill="#A80036" points="1325.5,260.041,1335.5,264.041,1325.5,268.041,1329.5,264.041" style="stroke: #A80036; stroke-width: 1.0;"/><line style="stroke: #A80036; stroke-width: 1.0;" x1="930.5" x2="1331.5" y1="264.041" y2="264.041"/><text fill="#000000" font-family="sans-serif" font-size="13" lengthAdjust="spacingAndGlyphs" textLength="383" x="937.5" y="259.6094">CommentRequest(VSSID:int, userid:int, comment:String):void</text><!--
@startuml Diagrams/CommentVSS
hide footbox
skinparam sequenceParticipant underline
actor User as user
participant ":PreviewPage" as page
participant ":PreviewOnlineControl" as control
participant ":UserInfoControl" as info
participant ":OnlineSoundSpaceLibrary" as library

user -> page: submitComment(comment: String):void
page -> control: submitComment(commit: String):void
control -> info: getCurrentUserID()
info - -> control: currentUserID
control -> library: addCommit(whichVSS, userid:int, comment:String):void
library->:CommentRequest(VSSID:int, userid:int, comment:String):void
@enduml

PlantUML version 1.2018.01(Mon Jan 29 02:08:22 CST 2018)
(GPL source distribution)
Java Runtime: Java(TM) SE Runtime Environment
JVM: Java HotSpot(TM) 64-Bit Server VM
Java Version: 9+181
Operating System: Mac OS X
OS Version: 10.12.6
Default Encoding: UTF-8
Language: zh
Country: CN
--></g></svg>