<?xml version="1.0" encoding="UTF-8" standalone="no"?><svg xmlns="http://www.w3.org/2000/svg" xmlns:xlink="http://www.w3.org/1999/xlink" contentScriptType="application/ecmascript" contentStyleType="text/css" height="441px" preserveAspectRatio="none" style="width:727px;height:441px;" version="1.1" viewBox="0 0 727 441"
    width="727px" zoomAndPan="magnify"><defs><filter height="300%" id="fmmvrb2zwlqjr" width="300%" x="-1" y="-1"><feGaussianBlur result="blurOut" stdDeviation="2.0"/><feColorMatrix in="blurOut" result="blurOut2" type="matrix" values="0 0 0 0 0 0 0 0 0 0 0 0 0 0 0 0 0 0 .4 0"/><feOffset dx="4.0" dy="4.0" in="blurOut2" result="blurOut3"/><feBlend in="SourceGraphic" in2="blurOut3" mode="normal"/></filter></defs><g><rect fill="#FFFFFF" filter="url(#fmmvrb2zwlqjr)" height="250.4395" style="stroke: #000000; stroke-width: 2.0;" width="702" x="13" y="162.1094"/><rect fill="#FFFFFF" height="44.2656" style="stroke: none; stroke-width: 1.0;" width="702" x="13" y="368.2832"/><line style="stroke: #A80036; stroke-width: 1.0; stroke-dasharray: 5.0,5.0;" x1="41" x2="41" y1="86.4883" y2="429.5488"/><line style="stroke: #A80036; stroke-width: 1.0; stroke-dasharray: 5.0,5.0;" x1="217" x2="217" y1="86.4883" y2="429.5488"/><line style="stroke: #A80036; stroke-width: 1.0; stroke-dasharray: 5.0,5.0;" x1="419" x2="419" y1="86.4883" y2="429.5488"/><line style="stroke: #A80036; stroke-width: 1.0; stroke-dasharray: 5.0,5.0;" x1="611" x2="611" y1="86.4883" y2="429.5488"/><text fill="#000000" font-family="sans-serif" font-size="14" lengthAdjust="spacingAndGlyphs" text-decoration="underline" textLength="31" x="23" y="83.5352">User</text><line style="stroke: #000000; stroke-width: 1.0;" x1="23" x2="54" y1="85.5352" y2="85.5352"/><ellipse cx="41.5" cy="13" fill="#FEFECE" filter="url(#fmmvrb2zwlqjr)" rx="8" ry="8" style="stroke: #A80036; stroke-width: 2.0;"/><path d="M41.5,21 L41.5,48 M28.5,29 L54.5,29 M41.5,48 L28.5,63 M41.5,48 L54.5,63 " fill="none" filter="url(#fmmvrb2zwlqjr)" style="stroke: #A80036; stroke-width: 2.0;"/><rect fill="#FEFECE" filter="url(#fmmvrb2zwlqjr)" height="30.4883" style="stroke: #A80036; stroke-width: 1.5;" width="111" x="160" y="51"/><text fill="#000000" font-family="sans-serif" font-size="14" lengthAdjust="spacingAndGlyphs" text-decoration="underline" textLength="97" x="167" y="71.5352">:LocalVSSPage</text><line style="stroke: #000000; stroke-width: 1.0;" x1="167" x2="264" y1="73.5352" y2="73.5352"/><rect fill="#FEFECE" filter="url(#fmmvrb2zwlqjr)" height="30.4883" style="stroke: #A80036; stroke-width: 1.5;" width="171" x="332" y="51"/><text fill="#000000" font-family="sans-serif" font-size="14" lengthAdjust="spacingAndGlyphs" text-decoration="underline" textLength="157" x="339" y="71.5352">:LocalVSSManagerPage</text><line style="stroke: #000000; stroke-width: 1.0;" x1="339" x2="496" y1="73.5352" y2="73.5352"/><rect fill="#FEFECE" filter="url(#fmmvrb2zwlqjr)" height="30.4883" style="stroke: #A80036; stroke-width: 1.5;" width="184" x="517" y="51"/><text fill="#000000" font-family="sans-serif" font-size="14" lengthAdjust="spacingAndGlyphs" text-decoration="underline" textLength="170" x="524" y="71.5352">:LocalSoundSpaceLibrary</text><line style="stroke: #000000; stroke-width: 1.0;" x1="524" x2="694" y1="73.5352" y2="73.5352"/><polygon fill="#A80036" points="205.5,113.4883,215.5,117.4883,205.5,121.4883,209.5,117.4883" style="stroke: #A80036; stroke-width: 1.0;"/><line style="stroke: #A80036; stroke-width: 1.0;" x1="41.5" x2="211.5" y1="117.4883" y2="117.4883"/><text fill="#000000" font-family="sans-serif" font-size="13" lengthAdjust="spacingAndGlyphs" textLength="152" x="48.5" y="113.0566">onDeleteButtonClicked()</text><polygon fill="#A80036" points="407.5,142.7988,417.5,146.7988,407.5,150.7988,411.5,146.7988" style="stroke: #A80036; stroke-width: 1.0;"/><line style="stroke: #A80036; stroke-width: 1.0;" x1="217.5" x2="413.5" y1="146.7988" y2="146.7988"/><text fill="#000000" font-family="sans-serif" font-size="13" lengthAdjust="spacingAndGlyphs" textLength="78" x="224.5" y="142.3672">&lt;&lt;create&gt;&gt;</text><path d="M13,162.1094 L75,162.1094 L75,169.1094 L65,179.1094 L13,179.1094 L13,162.1094 " fill="#EEEEEE" style="stroke: #000000; stroke-width: 1.0;"/><rect fill="none" height="250.4395" style="stroke: #000000; stroke-width: 2.0;" width="702" x="13" y="162.1094"/><text fill="#000000" font-family="sans-serif" font-size="13" font-weight="bold" lengthAdjust="spacingAndGlyphs" textLength="17" x="28" y="175.6777">alt</text><text fill="#000000" font-family="sans-serif" font-size="11" font-weight="bold" lengthAdjust="spacingAndGlyphs" textLength="53" x="90" y="174.7441">[confirm]</text><polygon fill="#A80036" points="407.5,196.4199,417.5,200.4199,407.5,204.4199,411.5,200.4199" style="stroke: #A80036; stroke-width: 1.0;"/><line style="stroke: #A80036; stroke-width: 1.0;" x1="41.5" x2="413.5" y1="200.4199" y2="200.4199"/><text fill="#000000" font-family="sans-serif" font-size="13" lengthAdjust="spacingAndGlyphs" textLength="163" x="48.5" y="195.9883">onConfirmButtonClicked()</text><polygon fill="#A80036" points="228.5,225.7305,218.5,229.7305,228.5,233.7305,224.5,229.7305" style="stroke: #A80036; stroke-width: 1.0;"/><line style="stroke: #A80036; stroke-width: 1.0;" x1="222.5" x2="418.5" y1="229.7305" y2="229.7305"/><text fill="#000000" font-family="sans-serif" font-size="13" lengthAdjust="spacingAndGlyphs" textLength="143" x="234.5" y="225.2988">confirmDeleteMessage</text><polygon fill="#A80036" points="599,255.041,609,259.041,599,263.041,603,259.041" style="stroke: #A80036; stroke-width: 1.0;"/><line style="stroke: #A80036; stroke-width: 1.0;" x1="217.5" x2="605" y1="259.041" y2="259.041"/><text fill="#000000" font-family="sans-serif" font-size="13" lengthAdjust="spacingAndGlyphs" textLength="127" x="224.5" y="254.6094">deleteVSS(whichVSS)</text><polygon fill="#A80036" points="599,284.3516,609,288.3516,599,292.3516,603,288.3516" style="stroke: #A80036; stroke-width: 1.0;"/><line style="stroke: #A80036; stroke-width: 1.0;" x1="217.5" x2="605" y1="288.3516" y2="288.3516"/><text fill="#000000" font-family="sans-serif" font-size="13" lengthAdjust="spacingAndGlyphs" textLength="157" x="224.5" y="283.9199">getVSSList(viewModelNo)</text><polygon fill="#A80036" points="228.5,313.6621,218.5,317.6621,228.5,321.6621,224.5,317.6621" style="stroke: #A80036; stroke-width: 1.0;"/><line style="stroke: #A80036; stroke-width: 1.0; stroke-dasharray: 2.0,2.0;" x1="222.5" x2="610" y1="317.6621" y2="317.6621"/><text fill="#000000" font-family="sans-serif" font-size="13" lengthAdjust="spacingAndGlyphs" textLength="187" x="234.5" y="313.2305">receiveVSSList(listOfLocalVSS)</text><line style="stroke: #A80036; stroke-width: 1.0;" x1="217.5" x2="259.5" y1="347.2832" y2="347.2832"/><line style="stroke: #A80036; stroke-width: 1.0;" x1="259.5" x2="259.5" y1="347.2832" y2="360.2832"/><line style="stroke: #A80036; stroke-width: 1.0;" x1="218.5" x2="259.5" y1="360.2832" y2="360.2832"/><polygon fill="#A80036" points="228.5,356.2832,218.5,360.2832,228.5,364.2832,224.5,360.2832" style="stroke: #A80036; stroke-width: 1.0;"/><text fill="#000000" font-family="sans-serif" font-size="13" lengthAdjust="spacingAndGlyphs" textLength="188" x="224.5" y="342.541">displayVSSList(listOfLocalVSS)</text><line style="stroke: #000000; stroke-width: 1.0; stroke-dasharray: 2.0,2.0;" x1="13" x2="715" y1="369.2832" y2="369.2832"/><text fill="#000000" font-family="sans-serif" font-size="11" font-weight="bold" lengthAdjust="spacingAndGlyphs" textLength="43" x="18" y="379.918">[cancel]</text><polygon fill="#A80036" points="407.5,400.2383,417.5,404.2383,407.5,408.2383,411.5,404.2383" style="stroke: #A80036; stroke-width: 1.0;"/><line style="stroke: #A80036; stroke-width: 1.0;" x1="41.5" x2="413.5" y1="404.2383" y2="404.2383"/><text fill="#000000" font-family="sans-serif" font-size="13" lengthAdjust="spacingAndGlyphs" textLength="154" x="48.5" y="399.8066">onCancelButtonClicked()</text><line style="stroke: #A80036; stroke-width: 2.0;" x1="410.5" x2="428.5" y1="395.2383" y2="413.2383"/><line style="stroke: #A80036; stroke-width: 2.0;" x1="410.5" x2="428.5" y1="413.2383" y2="395.2383"/><!--
@startuml Diagrams/DeleteVSS
hide footbox
skinparam sequenceParticipant underline

actor User as user
participant ":LocalVSSPage" as viewModel
participant ":LocalVSSManagerPage" as page
participant ":LocalSoundSpaceLibrary" as library

user -> viewModel: onDeleteButtonClicked()
viewModel -> page: <<create>>
alt confirm
    user -> page: onConfirmButtonClicked()
    page -> viewModel: confirmDeleteMessage
    viewModel -> library: deleteVSS(whichVSS)
    viewModel -> library: getVSSList(viewModelNo)
    library - -> viewModel: receiveVSSList(listOfLocalVSS)
    viewModel -> viewModel: displayVSSList(listOfLocalVSS)
else cancel
    user -> page: onCancelButtonClicked()
    destroy page
end

@enduml

PlantUML version 1.2018.01(Mon Jan 29 02:08:22 CST 2018)
(GPL source distribution)
Java Runtime: Java(TM) SE Runtime Environment
JVM: Java HotSpot(TM) 64-Bit Server VM
Java Version: 9+181
Operating System: Mac OS X
OS Version: 10.12.6
Default Encoding: UTF-8
Language: zh
Country: CN
--></g></svg>