<?xml version="1.0" encoding="UTF-8" standalone="no"?><svg xmlns="http://www.w3.org/2000/svg" xmlns:xlink="http://www.w3.org/1999/xlink" contentScriptType="application/ecmascript" contentStyleType="text/css" height="679px" preserveAspectRatio="none" style="width:961px;height:679px;" version="1.1" viewBox="0 0 961 679"
    width="961px" zoomAndPan="magnify"><defs><filter height="300%" id="f179ocrtek18ac" width="300%" x="-1" y="-1"><feGaussianBlur result="blurOut" stdDeviation="2.0"/><feColorMatrix in="blurOut" result="blurOut2" type="matrix" values="0 0 0 0 0 0 0 0 0 0 0 0 0 0 0 0 0 0 .4 0"/><feOffset dx="4.0" dy="4.0" in="blurOut2" result="blurOut3"/><feBlend in="SourceGraphic" in2="blurOut3" mode="normal"/></filter></defs><g><!--cluster ClientPhone--><polygon fill="#FFFFFF" filter="url(#f179ocrtek18ac)" points="157.5,26,167.5,16,939.5,16,939.5,508,929.5,518,157.5,518,157.5,26" style="stroke: #000000; stroke-width: 1.5;"/><line style="stroke: #000000; stroke-width: 1.5;" x1="929.5" x2="938.5" y1="26" y2="17"/><line style="stroke: #000000; stroke-width: 1.5;" x1="157.5" x2="929.5" y1="26" y2="26"/><line style="stroke: #000000; stroke-width: 1.5;" x1="929.5" x2="929.5" y1="26" y2="518"/><text fill="#000000" font-family="sans-serif" font-size="14" font-style="italic" lengthAdjust="spacingAndGlyphs" textLength="57" x="516" y="42.5352">«device»</text><text fill="#000000" font-family="sans-serif" font-size="14" font-weight="bold" lengthAdjust="spacingAndGlyphs" textLength="87" x="501" y="59.0234">ClientPhone</text><!--cluster ServerComputer--><polygon fill="#FFFFFF" filter="url(#f179ocrtek18ac)" points="664.5,575,674.5,565,855.5,565,855.5,657,845.5,667,664.5,667,664.5,575" style="stroke: #000000; stroke-width: 1.5;"/><line style="stroke: #000000; stroke-width: 1.5;" x1="845.5" x2="854.5" y1="575" y2="566"/><line style="stroke: #000000; stroke-width: 1.5;" x1="664.5" x2="845.5" y1="575" y2="575"/><line style="stroke: #000000; stroke-width: 1.5;" x1="845.5" x2="845.5" y1="575" y2="667"/><text fill="#000000" font-family="sans-serif" font-size="14" font-style="italic" lengthAdjust="spacingAndGlyphs" textLength="56" x="728" y="591.5352">«server»</text><text fill="#000000" font-family="sans-serif" font-size="14" font-weight="bold" lengthAdjust="spacingAndGlyphs" textLength="115" x="698.5" y="608.0234">ServerComputer</text><!--entity UISubsystem--><rect fill="#FEFECE" filter="url(#f179ocrtek18ac)" height="46.4883" style="stroke: #A80036; stroke-width: 1.5;" width="127" x="491" y="64"/><rect fill="#FEFECE" height="10" style="stroke: #A80036; stroke-width: 1.5;" width="15" x="598" y="69"/><rect fill="#FEFECE" height="2" style="stroke: #A80036; stroke-width: 1.5;" width="4" x="596" y="71"/><rect fill="#FEFECE" height="2" style="stroke: #A80036; stroke-width: 1.5;" width="4" x="596" y="75"/><text fill="#000000" font-family="sans-serif" font-size="14" lengthAdjust="spacingAndGlyphs" textLength="87" x="506" y="97.5352">UISubsystem</text><!--entity SensorSubsystem--><rect fill="#FEFECE" filter="url(#f179ocrtek18ac)" height="46.4883" style="stroke: #A80036; stroke-width: 1.5;" width="160" x="165.5" y="233"/><rect fill="#FEFECE" height="10" style="stroke: #A80036; stroke-width: 1.5;" width="15" x="305.5" y="238"/><rect fill="#FEFECE" height="2" style="stroke: #A80036; stroke-width: 1.5;" width="4" x="303.5" y="240"/><rect fill="#FEFECE" height="2" style="stroke: #A80036; stroke-width: 1.5;" width="4" x="303.5" y="244"/><text fill="#000000" font-family="sans-serif" font-size="14" lengthAdjust="spacingAndGlyphs" textLength="120" x="180.5" y="266.5352">SensorSubsystem</text><!--entity CommunicationSubsystem--><rect fill="#FEFECE" filter="url(#f179ocrtek18ac)" height="46.4883" style="stroke: #A80036; stroke-width: 1.5;" width="222" x="648.5" y="464"/><rect fill="#FEFECE" height="10" style="stroke: #A80036; stroke-width: 1.5;" width="15" x="850.5" y="469"/><rect fill="#FEFECE" height="2" style="stroke: #A80036; stroke-width: 1.5;" width="4" x="848.5" y="471"/><rect fill="#FEFECE" height="2" style="stroke: #A80036; stroke-width: 1.5;" width="4" x="848.5" y="475"/><text fill="#000000" font-family="sans-serif" font-size="14" lengthAdjust="spacingAndGlyphs" textLength="182" x="663.5" y="497.5352">CommunicationSubsystem</text><!--entity LocalStorageSubsystem--><rect fill="#FEFECE" filter="url(#f179ocrtek18ac)" height="46.4883" style="stroke: #A80036; stroke-width: 1.5;" width="201" x="412" y="464"/><rect fill="#FEFECE" height="10" style="stroke: #A80036; stroke-width: 1.5;" width="15" x="593" y="469"/><rect fill="#FEFECE" height="2" style="stroke: #A80036; stroke-width: 1.5;" width="4" x="591" y="471"/><rect fill="#FEFECE" height="2" style="stroke: #A80036; stroke-width: 1.5;" width="4" x="591" y="475"/><text fill="#000000" font-family="sans-serif" font-size="14" lengthAdjust="spacingAndGlyphs" textLength="161" x="427" y="497.5352">LocalStorageSubsystem</text><!--entity LocalVSSSubsystem--><rect fill="#FEFECE" filter="url(#f179ocrtek18ac)" height="46.4883" style="stroke: #A80036; stroke-width: 1.5;" width="173" x="361" y="233"/><rect fill="#FEFECE" height="10" style="stroke: #A80036; stroke-width: 1.5;" width="15" x="514" y="238"/><rect fill="#FEFECE" height="2" style="stroke: #A80036; stroke-width: 1.5;" width="4" x="512" y="240"/><rect fill="#FEFECE" height="2" style="stroke: #A80036; stroke-width: 1.5;" width="4" x="512" y="244"/><text fill="#000000" font-family="sans-serif" font-size="14" lengthAdjust="spacingAndGlyphs" textLength="133" x="376" y="266.5352">LocalVSSSubsystem</text><!--entity OnlineVSSSubsystem--><rect fill="#FEFECE" filter="url(#f179ocrtek18ac)" height="46.4883" style="stroke: #A80036; stroke-width: 1.5;" width="183" x="569" y="233"/><rect fill="#FEFECE" height="10" style="stroke: #A80036; stroke-width: 1.5;" width="15" x="732" y="238"/><rect fill="#FEFECE" height="2" style="stroke: #A80036; stroke-width: 1.5;" width="4" x="730" y="240"/><rect fill="#FEFECE" height="2" style="stroke: #A80036; stroke-width: 1.5;" width="4" x="730" y="244"/><text fill="#000000" font-family="sans-serif" font-size="14" lengthAdjust="spacingAndGlyphs" textLength="143" x="584" y="266.5352">OnlineVSSSubsystem</text><!--entity UserSubsystem--><rect fill="#FEFECE" filter="url(#f179ocrtek18ac)" height="46.4883" style="stroke: #A80036; stroke-width: 1.5;" width="144" x="787.5" y="233"/><rect fill="#FEFECE" height="10" style="stroke: #A80036; stroke-width: 1.5;" width="15" x="911.5" y="238"/><rect fill="#FEFECE" height="2" style="stroke: #A80036; stroke-width: 1.5;" width="4" x="909.5" y="240"/><rect fill="#FEFECE" height="2" style="stroke: #A80036; stroke-width: 1.5;" width="4" x="909.5" y="244"/><text fill="#000000" font-family="sans-serif" font-size="14" lengthAdjust="spacingAndGlyphs" textLength="104" x="802.5" y="266.5352">UserSubsystem</text><!--entity SensorHardwareWrapper--><rect fill="#FEFECE" filter="url(#f179ocrtek18ac)" height="46.4883" style="stroke: #A80036; stroke-width: 1.5;" width="211" x="166" y="464"/><rect fill="#FEFECE" height="10" style="stroke: #A80036; stroke-width: 1.5;" width="15" x="357" y="469"/><rect fill="#FEFECE" height="2" style="stroke: #A80036; stroke-width: 1.5;" width="4" x="355" y="471"/><rect fill="#FEFECE" height="2" style="stroke: #A80036; stroke-width: 1.5;" width="4" x="355" y="475"/><text fill="#000000" font-family="sans-serif" font-size="14" lengthAdjust="spacingAndGlyphs" textLength="171" x="181" y="497.5352">SensorHardwareWrapper</text><!--entity ServerSubsystem--><rect fill="#FEFECE" filter="url(#f179ocrtek18ac)" height="46.4883" style="stroke: #A80036; stroke-width: 1.5;" width="156" x="681.5" y="613"/><rect fill="#FEFECE" height="10" style="stroke: #A80036; stroke-width: 1.5;" width="15" x="817.5" y="618"/><rect fill="#FEFECE" height="2" style="stroke: #A80036; stroke-width: 1.5;" width="4" x="815.5" y="620"/><rect fill="#FEFECE" height="2" style="stroke: #A80036; stroke-width: 1.5;" width="4" x="815.5" y="624"/><text fill="#000000" font-family="sans-serif" font-size="14" lengthAdjust="spacingAndGlyphs" textLength="116" x="696.5" y="646.5352">ServerSubsystem</text><!--entity WirelessSensor--><polygon fill="#FEFECE" filter="url(#f179ocrtek18ac)" points="6,350,16,340,149,340,149,392.9766,139,402.9766,6,402.9766,6,350" style="stroke: #000000; stroke-width: 1.5;"/><line style="stroke: #000000; stroke-width: 1.5;" x1="139" x2="148" y1="350" y2="341"/><line style="stroke: #000000; stroke-width: 1.5;" x1="6" x2="139" y1="350" y2="350"/><line style="stroke: #000000; stroke-width: 1.5;" x1="139" x2="139" y1="350" y2="402.9766"/><text fill="#000000" font-family="sans-serif" font-size="14" font-style="italic" lengthAdjust="spacingAndGlyphs" textLength="57" x="44" y="373.5352">«device»</text><text fill="#000000" font-family="sans-serif" font-size="14" lengthAdjust="spacingAndGlyphs" textLength="103" x="21" y="390.0234">WirelessSensor</text><!--link UISubsystem to UserSubsystem--><path d="M596.2694,110.1444 C653.0345,141.5978 754.2097,197.6588 813.222,230.3574 " fill="none" id="UISubsystem-UserSubsystem" style="stroke: #A80036; stroke-width: 1.0; stroke-dasharray: 7.0,7.0;"/><polygon fill="#A80036" points="817.7468,232.8646,811.8132,225.0038,813.3733,230.4413,807.9358,232.0014,817.7468,232.8646" style="stroke: #A80036; stroke-width: 1.0;"/><!--link UISubsystem to OnlineVSSSubsystem--><path d="M569.0166,110.1444 C588.3889,141.0305 622.644,195.6446 643.2926,228.5656 " fill="none" id="UISubsystem-OnlineVSSSubsystem" style="stroke: #A80036; stroke-width: 1.0; stroke-dasharray: 7.0,7.0;"/><polygon fill="#A80036" points="645.989,232.8646,644.5954,223.1148,643.3322,228.6289,637.8182,227.3657,645.989,232.8646" style="stroke: #A80036; stroke-width: 1.0;"/><!--link UISubsystem to LocalVSSSubsystem--><path d="M539.8465,110.1444 C520.2913,141.0305 485.7132,195.6446 464.8697,228.5656 " fill="none" id="UISubsystem-LocalVSSSubsystem" style="stroke: #A80036; stroke-width: 1.0; stroke-dasharray: 7.0,7.0;"/><polygon fill="#A80036" points="462.1479,232.8646,470.3419,227.4004,464.8226,228.6402,463.5828,223.1208,462.1479,232.8646" style="stroke: #A80036; stroke-width: 1.0;"/><!--link SensorSubsystem to SensorHardwareWrapper--><path d="M248.1361,279.4207 C252.9469,322.1628 263.131,412.6449 268.3186,458.7349 " fill="none" id="SensorSubsystem-SensorHardwareWrapper" style="stroke: #A80036; stroke-width: 1.0; stroke-dasharray: 7.0,7.0;"/><polygon fill="#A80036" points="268.8956,463.8607,271.8638,454.4698,268.3363,458.8921,263.914,455.3646,268.8956,463.8607" style="stroke: #A80036; stroke-width: 1.0;"/><!--link UISubsystem to SensorSubsystem--><path d="M512.1828,110.1444 C454.6733,141.5978 352.1711,197.6588 292.385,230.3574 " fill="none" id="UISubsystem-SensorSubsystem" style="stroke: #A80036; stroke-width: 1.0; stroke-dasharray: 7.0,7.0;"/><polygon fill="#A80036" points="287.8008,232.8646,297.6164,232.0556,292.1876,230.4655,293.7778,225.0367,287.8008,232.8646" style="stroke: #A80036; stroke-width: 1.0;"/><!--link LocalVSSSubsystem to LocalStorageSubsystem--><path d="M454.0903,279.4207 C466.1416,322.2495 491.6809,413.0122 504.6254,459.0148 " fill="none" id="LocalVSSSubsystem-LocalStorageSubsystem" style="stroke: #A80036; stroke-width: 1.0; stroke-dasharray: 7.0,7.0;"/><polygon fill="#A80036" points="505.9889,463.8607,507.4013,454.1136,504.6345,459.0476,499.7005,456.2808,505.9889,463.8607" style="stroke: #A80036; stroke-width: 1.0;"/><!--link UserSubsystem to CommunicationSubsystem--><path d="M849.3612,279.4207 C830.8206,322.2495 791.5294,413.0122 771.6148,459.0148 " fill="none" id="UserSubsystem-CommunicationSubsystem" style="stroke: #A80036; stroke-width: 1.0; stroke-dasharray: 7.0,7.0;"/><polygon fill="#A80036" points="769.517,463.8607,776.7632,457.1904,771.5033,459.2722,769.4216,454.0123,769.517,463.8607" style="stroke: #A80036; stroke-width: 1.0;"/><!--link OnlineVSSSubsystem to CommunicationSubsystem--><path d="M670.5375,279.4207 C688.8926,322.2495 727.7909,413.0122 747.5064,459.0148 " fill="none" id="OnlineVSSSubsystem-CommunicationSubsystem" style="stroke: #A80036; stroke-width: 1.0; stroke-dasharray: 7.0,7.0;"/><polygon fill="#A80036" points="749.5832,463.8607,749.7143,454.0127,747.6135,459.265,742.3612,457.1642,749.5832,463.8607" style="stroke: #A80036; stroke-width: 1.0;"/><!--link LocalVSSSubsystem to CommunicationSubsystem--><path d="M478.8443,279.2068 C537.2454,322.4461 662.3468,415.0692 723.8593,460.6122 " fill="none" id="LocalVSSSubsystem-CommunicationSubsystem" style="stroke: #A80036; stroke-width: 1.0; stroke-dasharray: 7.0,7.0;"/><polygon fill="#A80036" points="728.1766,463.8086,723.3237,455.2384,724.1582,460.8333,718.5632,461.6678,728.1766,463.8086" style="stroke: #A80036; stroke-width: 1.0;"/><!--link CommunicationSubsystem to ServerSubsystem--><path d="M759.5,510.2812 C759.5,536.6332 759.5,579.5559 759.5,607.7888 " fill="none" id="CommunicationSubsystem-ServerSubsystem" style="stroke: #A80036; stroke-width: 1.0; stroke-dasharray: 7.0,7.0;"/><polygon fill="#A80036" points="759.5,612.8822,763.5,603.8822,759.5,607.8822,755.5,603.8822,759.5,612.8822" style="stroke: #A80036; stroke-width: 1.0;"/><text fill="#000000" font-family="sans-serif" font-size="13" lengthAdjust="spacingAndGlyphs" textLength="28" x="760.5" y="553.5684">Http</text><!--link WirelessSensor to SensorHardwareWrapper--><path d="M135.1074,405.7972 C166.6,424.5467 204.7664,447.2694 232.7075,463.9044 " fill="none" id="WirelessSensor-SensorHardwareWrapper" style="stroke: #A80036; stroke-width: 1.0; stroke-dasharray: 7.0,7.0;"/><polygon fill="#A80036" points="130.5114,403.0609,136.1982,411.102,134.8076,405.6188,140.2908,404.2281,130.5114,403.0609" style="stroke: #A80036; stroke-width: 1.0;"/><!--
@startuml Diagrams/DeploymentDiagram
skinparam componentStyle uml2

node ClientPhone <<device>> {
    component UISubsystem
    component SensorSubsystem
    component CommunicationSubsystem
    component LocalStorageSubsystem
    component LocalVSSSubsystem
    component OnlineVSSSubsystem
    component UserSubsystem
    component CommunicationSubsystem
    component SensorHardwareWrapper
    UISubsystem ..> UserSubsystem
    UISubsystem ..> OnlineVSSSubsystem
    UISubsystem ..> LocalVSSSubsystem
    SensorSubsystem ..> SensorHardwareWrapper
    UISubsystem ..> SensorSubsystem
    LocalVSSSubsystem ..> LocalStorageSubsystem
    UserSubsystem ..> CommunicationSubsystem
    OnlineVSSSubsystem ..> CommunicationSubsystem
    LocalVSSSubsystem ..> CommunicationSubsystem

}

node ServerComputer <<server>> {
    component ServerSubsystem
}

CommunicationSubsystem ..> ServerSubsystem: Http

node WirelessSensor <<device>>

WirelessSensor <.. SensorHardwareWrapper

@enduml

PlantUML version 1.2018.01(Mon Jan 29 02:08:22 CST 2018)
(GPL source distribution)
Java Runtime: Java(TM) SE Runtime Environment
JVM: Java HotSpot(TM) 64-Bit Server VM
Java Version: 9+181
Operating System: Mac OS X
OS Version: 10.12.6
Default Encoding: UTF-8
Language: zh
Country: CN
--></g></svg>