<?xml version="1.0" encoding="UTF-8" standalone="no"?><svg xmlns="http://www.w3.org/2000/svg" xmlns:xlink="http://www.w3.org/1999/xlink" contentScriptType="application/ecmascript" contentStyleType="text/css" height="617px" preserveAspectRatio="none" style="width:1193px;height:617px;" version="1.1" viewBox="0 0 1193 617"
    width="1193px" zoomAndPan="magnify"><defs><filter height="300%" id="f5wkshpxweejn" width="300%" x="-1" y="-1"><feGaussianBlur result="blurOut" stdDeviation="2.0"/><feColorMatrix in="blurOut" result="blurOut2" type="matrix" values="0 0 0 0 0 0 0 0 0 0 0 0 0 0 0 0 0 0 .4 0"/><feOffset dx="4.0" dy="4.0" in="blurOut2" result="blurOut3"/><feBlend in="SourceGraphic" in2="blurOut3" mode="normal"/></filter></defs><g><rect fill="#FFFFFF" filter="url(#f5wkshpxweejn)" height="284.7949" style="stroke: #A80036; stroke-width: 1.0;" width="10" x="21.5" y="96.4883"/><rect fill="#FFFFFF" filter="url(#f5wkshpxweejn)" height="205.1738" style="stroke: #A80036; stroke-width: 1.0;" width="10" x="179.5" y="117.4883"/><rect fill="#FFFFFF" filter="url(#f5wkshpxweejn)" height="29.3105" style="stroke: #A80036; stroke-width: 1.0;" width="10" x="179.5" y="351.9727"/><rect fill="#FFFFFF" filter="url(#f5wkshpxweejn)" height="146.5527" style="stroke: #A80036; stroke-width: 1.0;" width="10" x="358.5" y="146.7988"/><rect fill="#FFFFFF" filter="url(#f5wkshpxweejn)" height="205.8633" style="stroke: #A80036; stroke-width: 1.0;" width="10" x="528.5" y="381.2832"/><rect fill="#FFFFFF" filter="url(#f5wkshpxweejn)" height="87.9316" style="stroke: #A80036; stroke-width: 1.0;" width="10" x="738.5" y="176.1094"/><rect fill="#FFFFFF" filter="url(#f5wkshpxweejn)" height="87.9316" style="stroke: #A80036; stroke-width: 1.0;" width="10" x="738.5" y="469.9043"/><rect fill="#FFFFFF" filter="url(#f5wkshpxweejn)" height="29.3105" style="stroke: #A80036; stroke-width: 1.0;" width="10" x="919.5" y="205.4199"/><rect fill="#FFFFFF" filter="url(#f5wkshpxweejn)" height="29.3105" style="stroke: #A80036; stroke-width: 1.0;" width="10" x="919.5" y="499.2148"/><rect fill="#FFFFFF" filter="url(#f5wkshpxweejn)" height="30" style="stroke: #A80036; stroke-width: 1.0;" width="10" x="1090" y="410.5938"/><line style="stroke: #A80036; stroke-width: 1.0; stroke-dasharray: 5.0,5.0;" x1="26" x2="26" y1="86.4883" y2="605.457"/><line style="stroke: #A80036; stroke-width: 1.0; stroke-dasharray: 5.0,5.0;" x1="184" x2="184" y1="86.4883" y2="605.457"/><line style="stroke: #A80036; stroke-width: 1.0; stroke-dasharray: 5.0,5.0;" x1="363" x2="363" y1="86.4883" y2="605.457"/><line style="stroke: #A80036; stroke-width: 1.0; stroke-dasharray: 5.0,5.0;" x1="533" x2="533" y1="86.4883" y2="605.457"/><line style="stroke: #A80036; stroke-width: 1.0; stroke-dasharray: 5.0,5.0;" x1="743.5" x2="743.5" y1="86.4883" y2="605.457"/><line style="stroke: #A80036; stroke-width: 1.0; stroke-dasharray: 5.0,5.0;" x1="924.5" x2="924.5" y1="86.4883" y2="605.457"/><line style="stroke: #A80036; stroke-width: 1.0; stroke-dasharray: 5.0,5.0;" x1="1094.5" x2="1094.5" y1="86.4883" y2="605.457"/><text fill="#000000" font-family="sans-serif" font-size="14" lengthAdjust="spacingAndGlyphs" text-decoration="underline" textLength="31" x="8" y="83.5352">User</text><line style="stroke: #000000; stroke-width: 1.0;" x1="8" x2="39" y1="85.5352" y2="85.5352"/><ellipse cx="26.5" cy="13" fill="#FEFECE" filter="url(#f5wkshpxweejn)" rx="8" ry="8" style="stroke: #A80036; stroke-width: 2.0;"/><path d="M26.5,21 L26.5,48 M13.5,29 L39.5,29 M26.5,48 L13.5,63 M26.5,48 L39.5,63 " fill="none" filter="url(#f5wkshpxweejn)" style="stroke: #A80036; stroke-width: 2.0;"/><rect fill="#FEFECE" filter="url(#f5wkshpxweejn)" height="30.4883" style="stroke: #A80036; stroke-width: 1.5;" width="105" x="130" y="51"/><text fill="#000000" font-family="sans-serif" font-size="14" lengthAdjust="spacingAndGlyphs" text-decoration="underline" textLength="91" x="137" y="71.5352">:UISubsystem</text><line style="stroke: #000000; stroke-width: 1.0;" x1="137" x2="228" y1="73.5352" y2="73.5352"/><rect fill="#FEFECE" filter="url(#f5wkshpxweejn)" height="30.4883" style="stroke: #A80036; stroke-width: 1.5;" width="161" x="281" y="51"/><text fill="#000000" font-family="sans-serif" font-size="14" lengthAdjust="spacingAndGlyphs" text-decoration="underline" textLength="147" x="288" y="71.5352">:OnlineVSSSubsystem</text><line style="stroke: #000000; stroke-width: 1.0;" x1="288" x2="435" y1="73.5352" y2="73.5352"/><rect fill="#FEFECE" filter="url(#f5wkshpxweejn)" height="30.4883" style="stroke: #A80036; stroke-width: 1.5;" width="151" x="456" y="51"/><text fill="#000000" font-family="sans-serif" font-size="14" lengthAdjust="spacingAndGlyphs" text-decoration="underline" textLength="137" x="463" y="71.5352">:LocalVSSSubsystem</text><line style="stroke: #000000; stroke-width: 1.0;" x1="463" x2="600" y1="73.5352" y2="73.5352"/><rect fill="#FEFECE" filter="url(#f5wkshpxweejn)" height="30.4883" style="stroke: #A80036; stroke-width: 1.5;" width="200" x="641.5" y="51"/><text fill="#000000" font-family="sans-serif" font-size="14" lengthAdjust="spacingAndGlyphs" text-decoration="underline" textLength="186" x="648.5" y="71.5352">:CommunicationSubsystem</text><line style="stroke: #000000; stroke-width: 1.0;" x1="648.5" x2="834.5" y1="73.5352" y2="73.5352"/><rect fill="#FEFECE" filter="url(#f5wkshpxweejn)" height="30.4883" style="stroke: #A80036; stroke-width: 1.5;" width="134" x="855.5" y="51"/><text fill="#000000" font-family="sans-serif" font-size="14" lengthAdjust="spacingAndGlyphs" text-decoration="underline" textLength="120" x="862.5" y="71.5352">:ServerSubsystem</text><line style="stroke: #000000; stroke-width: 1.0;" x1="862.5" x2="982.5" y1="73.5352" y2="73.5352"/><rect fill="#FEFECE" filter="url(#f5wkshpxweejn)" height="30.4883" style="stroke: #A80036; stroke-width: 1.5;" width="179" x="1003.5" y="51"/><text fill="#000000" font-family="sans-serif" font-size="14" lengthAdjust="spacingAndGlyphs" text-decoration="underline" textLength="165" x="1010.5" y="71.5352">:LocalStorageSubsystem</text><line style="stroke: #000000; stroke-width: 1.0;" x1="1010.5" x2="1175.5" y1="73.5352" y2="73.5352"/><rect fill="#FFFFFF" filter="url(#f5wkshpxweejn)" height="284.7949" style="stroke: #A80036; stroke-width: 1.0;" width="10" x="21.5" y="96.4883"/><rect fill="#FFFFFF" filter="url(#f5wkshpxweejn)" height="205.1738" style="stroke: #A80036; stroke-width: 1.0;" width="10" x="179.5" y="117.4883"/><rect fill="#FFFFFF" filter="url(#f5wkshpxweejn)" height="29.3105" style="stroke: #A80036; stroke-width: 1.0;" width="10" x="179.5" y="351.9727"/><rect fill="#FFFFFF" filter="url(#f5wkshpxweejn)" height="146.5527" style="stroke: #A80036; stroke-width: 1.0;" width="10" x="358.5" y="146.7988"/><rect fill="#FFFFFF" filter="url(#f5wkshpxweejn)" height="205.8633" style="stroke: #A80036; stroke-width: 1.0;" width="10" x="528.5" y="381.2832"/><rect fill="#FFFFFF" filter="url(#f5wkshpxweejn)" height="87.9316" style="stroke: #A80036; stroke-width: 1.0;" width="10" x="738.5" y="176.1094"/><rect fill="#FFFFFF" filter="url(#f5wkshpxweejn)" height="87.9316" style="stroke: #A80036; stroke-width: 1.0;" width="10" x="738.5" y="469.9043"/><rect fill="#FFFFFF" filter="url(#f5wkshpxweejn)" height="29.3105" style="stroke: #A80036; stroke-width: 1.0;" width="10" x="919.5" y="205.4199"/><rect fill="#FFFFFF" filter="url(#f5wkshpxweejn)" height="29.3105" style="stroke: #A80036; stroke-width: 1.0;" width="10" x="919.5" y="499.2148"/><rect fill="#FFFFFF" filter="url(#f5wkshpxweejn)" height="30" style="stroke: #A80036; stroke-width: 1.0;" width="10" x="1090" y="410.5938"/><polygon fill="#A80036" points="167.5,113.4883,177.5,117.4883,167.5,121.4883,171.5,117.4883" style="stroke: #A80036; stroke-width: 1.0;"/><line style="stroke: #A80036; stroke-width: 1.0;" x1="31.5" x2="173.5" y1="117.4883" y2="117.4883"/><text fill="#000000" font-family="sans-serif" font-size="13" lengthAdjust="spacingAndGlyphs" textLength="129" x="38.5" y="113.0566">viewListOfOnlineVSS</text><polygon fill="#A80036" points="346.5,142.7988,356.5,146.7988,346.5,150.7988,350.5,146.7988" style="stroke: #A80036; stroke-width: 1.0;"/><line style="stroke: #A80036; stroke-width: 1.0;" x1="189.5" x2="352.5" y1="146.7988" y2="146.7988"/><text fill="#000000" font-family="sans-serif" font-size="13" lengthAdjust="spacingAndGlyphs" textLength="121" x="196.5" y="142.3672">askForVSSMetadata</text><polygon fill="#A80036" points="726.5,172.1094,736.5,176.1094,726.5,180.1094,730.5,176.1094" style="stroke: #A80036; stroke-width: 1.0;"/><line style="stroke: #A80036; stroke-width: 1.0;" x1="368.5" x2="732.5" y1="176.1094" y2="176.1094"/><text fill="#000000" font-family="sans-serif" font-size="13" lengthAdjust="spacingAndGlyphs" textLength="121" x="375.5" y="171.6777">askForVSSMetadata</text><polygon fill="#A80036" points="907.5,201.4199,917.5,205.4199,907.5,209.4199,911.5,205.4199" style="stroke: #A80036; stroke-width: 1.0;"/><line style="stroke: #A80036; stroke-width: 1.0;" x1="748.5" x2="913.5" y1="205.4199" y2="205.4199"/><text fill="#000000" font-family="sans-serif" font-size="13" lengthAdjust="spacingAndGlyphs" textLength="121" x="755.5" y="200.9883">askForVSSMetadata</text><polygon fill="#A80036" points="759.5,230.7305,749.5,234.7305,759.5,238.7305,755.5,234.7305" style="stroke: #A80036; stroke-width: 1.0;"/><line style="stroke: #A80036; stroke-width: 1.0; stroke-dasharray: 2.0,2.0;" x1="753.5" x2="923.5" y1="234.7305" y2="234.7305"/><text fill="#000000" font-family="sans-serif" font-size="13" lengthAdjust="spacingAndGlyphs" textLength="58" x="765.5" y="230.2988">metadata</text><polygon fill="#A80036" points="379.5,260.041,369.5,264.041,379.5,268.041,375.5,264.041" style="stroke: #A80036; stroke-width: 1.0;"/><line style="stroke: #A80036; stroke-width: 1.0; stroke-dasharray: 2.0,2.0;" x1="373.5" x2="742.5" y1="264.041" y2="264.041"/><text fill="#000000" font-family="sans-serif" font-size="13" lengthAdjust="spacingAndGlyphs" textLength="58" x="385.5" y="259.6094">metadata</text><polygon fill="#A80036" points="200.5,289.3516,190.5,293.3516,200.5,297.3516,196.5,293.3516" style="stroke: #A80036; stroke-width: 1.0;"/><line style="stroke: #A80036; stroke-width: 1.0; stroke-dasharray: 2.0,2.0;" x1="194.5" x2="362.5" y1="293.3516" y2="293.3516"/><text fill="#000000" font-family="sans-serif" font-size="13" lengthAdjust="spacingAndGlyphs" textLength="145" x="206.5" y="288.9199">constructedVSSObjects</text><polygon fill="#A80036" points="42.5,318.6621,32.5,322.6621,42.5,326.6621,38.5,322.6621" style="stroke: #A80036; stroke-width: 1.0;"/><line style="stroke: #A80036; stroke-width: 1.0;" x1="36.5" x2="183.5" y1="322.6621" y2="322.6621"/><text fill="#000000" font-family="sans-serif" font-size="13" lengthAdjust="spacingAndGlyphs" textLength="57" x="48.5" y="318.2305">listOfVSS</text><polygon fill="#A80036" points="167.5,347.9727,177.5,351.9727,167.5,355.9727,171.5,351.9727" style="stroke: #A80036; stroke-width: 1.0;"/><line style="stroke: #A80036; stroke-width: 1.0;" x1="31.5" x2="173.5" y1="351.9727" y2="351.9727"/><text fill="#000000" font-family="sans-serif" font-size="13" lengthAdjust="spacingAndGlyphs" textLength="110" x="38.5" y="347.541">downloadThisVSS</text><polygon fill="#A80036" points="516.5,377.2832,526.5,381.2832,516.5,385.2832,520.5,381.2832" style="stroke: #A80036; stroke-width: 1.0;"/><line style="stroke: #A80036; stroke-width: 1.0;" x1="184.5" x2="522.5" y1="381.2832" y2="381.2832"/><text fill="#000000" font-family="sans-serif" font-size="13" lengthAdjust="spacingAndGlyphs" textLength="216" x="191.5" y="376.8516">registerVSSInLocalStorage(thisVSS)</text><polygon fill="#A80036" points="1078,406.5938,1088,410.5938,1078,414.5938,1082,410.5938" style="stroke: #A80036; stroke-width: 1.0;"/><line style="stroke: #A80036; stroke-width: 1.0;" x1="538.5" x2="1084" y1="410.5938" y2="410.5938"/><text fill="#000000" font-family="sans-serif" font-size="13" lengthAdjust="spacingAndGlyphs" textLength="135" x="545.5" y="406.1621">storeThisVSS(thisVSS)</text><polygon fill="#A80036" points="726.5,465.9043,736.5,469.9043,726.5,473.9043,730.5,469.9043" style="stroke: #A80036; stroke-width: 1.0;"/><line style="stroke: #A80036; stroke-width: 1.0;" x1="538.5" x2="732.5" y1="469.9043" y2="469.9043"/><text fill="#000000" font-family="sans-serif" font-size="13" lengthAdjust="spacingAndGlyphs" textLength="181" x="545.5" y="465.4727">downloadAllAudioFragments</text><polygon fill="#A80036" points="907.5,495.2148,917.5,499.2148,907.5,503.2148,911.5,499.2148" style="stroke: #A80036; stroke-width: 1.0;"/><line style="stroke: #A80036; stroke-width: 1.0;" x1="748.5" x2="913.5" y1="499.2148" y2="499.2148"/><text fill="#000000" font-family="sans-serif" font-size="13" lengthAdjust="spacingAndGlyphs" textLength="145" x="755.5" y="494.7832">askForAudioFragments</text><polygon fill="#A80036" points="759.5,524.5254,749.5,528.5254,759.5,532.5254,755.5,528.5254" style="stroke: #A80036; stroke-width: 1.0;"/><line style="stroke: #A80036; stroke-width: 1.0; stroke-dasharray: 2.0,2.0;" x1="753.5" x2="923.5" y1="528.5254" y2="528.5254"/><text fill="#000000" font-family="sans-serif" font-size="13" lengthAdjust="spacingAndGlyphs" textLength="101" x="765.5" y="524.0938">audioFragments</text><polygon fill="#A80036" points="549.5,553.8359,539.5,557.8359,549.5,561.8359,545.5,557.8359" style="stroke: #A80036; stroke-width: 1.0;"/><line style="stroke: #A80036; stroke-width: 1.0; stroke-dasharray: 2.0,2.0;" x1="543.5" x2="742.5" y1="557.8359" y2="557.8359"/><text fill="#000000" font-family="sans-serif" font-size="13" lengthAdjust="spacingAndGlyphs" textLength="101" x="555.5" y="553.4043">audioFragments</text><polygon fill="#A80036" points="195.5,583.1465,185.5,587.1465,195.5,591.1465,191.5,587.1465" style="stroke: #A80036; stroke-width: 1.0;"/><line style="stroke: #A80036; stroke-width: 1.0; stroke-dasharray: 2.0,2.0;" x1="189.5" x2="532.5" y1="587.1465" y2="587.1465"/><text fill="#000000" font-family="sans-serif" font-size="13" lengthAdjust="spacingAndGlyphs" textLength="144" x="201.5" y="582.7148">alertDownloadFinished</text><!--
@startuml Diagrams/DownloadVSSSystemSequenceDiagram
hide footbox
skinparam sequenceParticipant underline
actor "User" as user
participant ":UISubsystem" as ui
participant ":OnlineVSSSubsystem" as online
participant ":LocalVSSSubsystem" as local
participant ":CommunicationSubsystem" as com
participant ":ServerSubsystem" as server
participant ":LocalStorageSubsystem" as storage

activate user
    user -> ui: viewListOfOnlineVSS
activate ui
    ui -> online: askForVSSMetadata
activate online
    online -> com: askForVSSMetadata
activate com
    com -> server: askForVSSMetadata
activate server
    server - -> com: metadata
deactivate server
    com - -> online: metadata
deactivate com

    online - -> ui: constructedVSSObjects
deactivate online
    ui -> user: listOfVSS
deactivate ui
    user -> ui: downloadThisVSS
activate ui
    ui -> local: registerVSSInLocalStorage(thisVSS)
deactivate ui
deactivate user
activate local
    local -> storage: storeThisVSS(thisVSS)
activate storage
deactivate storage
    local -> com: downloadAllAudioFragments
activate com
    com -> server: askForAudioFragments
activate server
    server - -> com: audioFragments
deactivate server
    com - -> local: audioFragments
deactivate com
    local - -> ui: alertDownloadFinished
deactivate local
@enduml

PlantUML version 1.2018.01(Mon Jan 29 02:08:22 CST 2018)
(GPL source distribution)
Java Runtime: Java(TM) SE Runtime Environment
JVM: Java HotSpot(TM) 64-Bit Server VM
Java Version: 9+181
Operating System: Mac OS X
OS Version: 10.12.6
Default Encoding: UTF-8
Language: zh
Country: CN
--></g></svg>