<?xml version="1.0" encoding="UTF-8" standalone="no"?><svg xmlns="http://www.w3.org/2000/svg" xmlns:xlink="http://www.w3.org/1999/xlink" contentScriptType="application/ecmascript" contentStyleType="text/css" height="311px" preserveAspectRatio="none" style="width:594px;height:311px;" version="1.1" viewBox="0 0 594 311"
    width="594px" zoomAndPan="magnify"><defs><filter height="300%" id="fuiuq29vi5vj7" width="300%" x="-1" y="-1"><feGaussianBlur result="blurOut" stdDeviation="2.0"/><feColorMatrix in="blurOut" result="blurOut2" type="matrix" values="0 0 0 0 0 0 0 0 0 0 0 0 0 0 0 0 0 0 .4 0"/><feOffset dx="4.0" dy="4.0" in="blurOut2" result="blurOut3"/><feBlend in="SourceGraphic" in2="blurOut3" mode="normal"/></filter></defs><g><text fill="#000000" font-family="sans-serif" font-size="14" font-weight="bold" lengthAdjust="spacingAndGlyphs" textLength="98" x="248.5" y="23.5352">DownloadVSS</text><rect fill="#FEFECE" filter="url(#fuiuq29vi5vj7)" height="30.4883" style="stroke: #A80036; stroke-width: 1.5;" width="142" x="441" y="156.2871"/><text fill="#000000" font-family="sans-serif" font-size="14" lengthAdjust="spacingAndGlyphs" text-decoration="underline" textLength="128" x="448" y="176.8223">:WebServerControl</text><line style="stroke: #000000; stroke-width: 1.0;" x1="448" x2="576" y1="178.8223" y2="178.8223"/><line style="stroke: #A80036; stroke-width: 1.0; stroke-dasharray: 5.0,5.0;" x1="96" x2="96" y1="116.9766" y2="299.707"/><line style="stroke: #A80036; stroke-width: 1.0; stroke-dasharray: 5.0,5.0;" x1="305" x2="305" y1="116.9766" y2="299.707"/><line style="stroke: #A80036; stroke-width: 1.0; stroke-dasharray: 5.0,5.0;" x1="514" x2="514" y1="189.0313" y2="299.707"/><text fill="#000000" font-family="sans-serif" font-size="14" lengthAdjust="spacingAndGlyphs" text-decoration="underline" textLength="170" x="8" y="114.0234">:LocalSoundSpaceLibrary</text><line style="stroke: #000000; stroke-width: 1.0;" x1="8" x2="178" y1="116.0234" y2="116.0234"/><ellipse cx="96" cy="43.4883" fill="#FEFECE" filter="url(#fuiuq29vi5vj7)" rx="8" ry="8" style="stroke: #A80036; stroke-width: 2.0;"/><path d="M96,51.4883 L96,78.4883 M83,59.4883 L109,59.4883 M96,78.4883 L83,93.4883 M96,78.4883 L109,93.4883 " fill="none" filter="url(#fuiuq29vi5vj7)" style="stroke: #A80036; stroke-width: 2.0;"/><rect fill="#FEFECE" filter="url(#fuiuq29vi5vj7)" height="30.4883" style="stroke: #A80036; stroke-width: 1.5;" width="120" x="243" y="81.4883"/><text fill="#000000" font-family="sans-serif" font-size="14" lengthAdjust="spacingAndGlyphs" text-decoration="underline" textLength="106" x="250" y="102.0234">:Communicator</text><line style="stroke: #000000; stroke-width: 1.0;" x1="250" x2="356" y1="104.0234" y2="104.0234"/><polygon fill="#A80036" points="293,143.9766,303,147.9766,293,151.9766,297,147.9766" style="stroke: #A80036; stroke-width: 1.0;"/><line style="stroke: #A80036; stroke-width: 1.0;" x1="96" x2="299" y1="147.9766" y2="147.9766"/><text fill="#000000" font-family="sans-serif" font-size="13" lengthAdjust="spacingAndGlyphs" textLength="185" x="103" y="143.5449">DownloadRequest(SFHash):SF</text><polygon fill="#A80036" points="429,173.2871,439,177.2871,429,181.2871,433,177.2871" style="stroke: #A80036; stroke-width: 1.0;"/><line style="stroke: #A80036; stroke-width: 1.0;" x1="305" x2="435" y1="177.2871" y2="177.2871"/><text fill="#000000" font-family="sans-serif" font-size="13" lengthAdjust="spacingAndGlyphs" textLength="78" x="312" y="172.8555">&lt;&lt;create&gt;&gt;</text><rect fill="#FEFECE" filter="url(#fuiuq29vi5vj7)" height="30.4883" style="stroke: #A80036; stroke-width: 1.5;" width="142" x="441" y="156.2871"/><text fill="#000000" font-family="sans-serif" font-size="14" lengthAdjust="spacingAndGlyphs" text-decoration="underline" textLength="128" x="448" y="176.8223">:WebServerControl</text><line style="stroke: #000000; stroke-width: 1.0;" x1="448" x2="576" y1="178.8223" y2="178.8223"/><polygon fill="#A80036" points="502,218.7754,512,222.7754,502,226.7754,506,222.7754" style="stroke: #A80036; stroke-width: 1.0;"/><line style="stroke: #A80036; stroke-width: 1.0;" x1="305" x2="508" y1="222.7754" y2="222.7754"/><text fill="#000000" font-family="sans-serif" font-size="13" lengthAdjust="spacingAndGlyphs" textLength="185" x="312" y="218.3438">DownloadRequest(SFHash):SF</text><polygon fill="#A80036" points="316,248.0859,306,252.0859,316,256.0859,312,252.0859" style="stroke: #A80036; stroke-width: 1.0;"/><line style="stroke: #A80036; stroke-width: 1.0; stroke-dasharray: 2.0,2.0;" x1="310" x2="513" y1="252.0859" y2="252.0859"/><text fill="#000000" font-family="sans-serif" font-size="13" lengthAdjust="spacingAndGlyphs" textLength="14" x="322" y="247.6543">SF</text><polygon fill="#A80036" points="107,277.3965,97,281.3965,107,285.3965,103,281.3965" style="stroke: #A80036; stroke-width: 1.0;"/><line style="stroke: #A80036; stroke-width: 1.0; stroke-dasharray: 2.0,2.0;" x1="101" x2="304" y1="281.3965" y2="281.3965"/><text fill="#000000" font-family="sans-serif" font-size="13" lengthAdjust="spacingAndGlyphs" textLength="14" x="113" y="276.9648">SF</text><line style="stroke: #A80036; stroke-width: 2.0;" x1="505" x2="523" y1="272.3965" y2="290.3965"/><line style="stroke: #A80036; stroke-width: 2.0;" x1="505" x2="523" y1="290.3965" y2="272.3965"/><!--
@startuml Diagrams/DownloadVSSServerSequenceDiagram
title DownloadVSS
hide footbox
skinparam sequenceParticipant underline
actor ":LocalSoundSpaceLibrary" as Client
participant ":Communicator" as Communicator
participant ":WebServerControl" as WebServer
Client->Communicator:DownloadRequest(SFHash):SF
create WebServer
Communicator->WebServer:<<create>>
Communicator->WebServer:DownloadRequest(SFHash):SF
WebServer- ->Communicator:SF
Communicator- ->Client:SF
destroy WebServer
@enduml

PlantUML version 1.2018.01(Mon Jan 29 02:08:22 CST 2018)
(GPL source distribution)
Java Runtime: Java(TM) SE Runtime Environment
JVM: Java HotSpot(TM) 64-Bit Server VM
Java Version: 9+181
Operating System: Mac OS X
OS Version: 10.12.6
Default Encoding: UTF-8
Language: zh
Country: CN
--></g></svg>