<?xml version="1.0" encoding="UTF-8" standalone="no"?><svg xmlns="http://www.w3.org/2000/svg" xmlns:xlink="http://www.w3.org/1999/xlink" contentScriptType="application/ecmascript" contentStyleType="text/css" height="766px" preserveAspectRatio="none" style="width:1065px;height:766px;" version="1.1" viewBox="0 0 1065 766" width="1065px" zoomAndPan="magnify"><defs><filter height="300%" id="fws0df5peq8w2" width="300%" x="-1" y="-1"><feGaussianBlur result="blurOut" stdDeviation="2.0"/><feColorMatrix in="blurOut" result="blurOut2" type="matrix" values="0 0 0 0 0 0 0 0 0 0 0 0 0 0 0 0 0 0 .4 0"/><feOffset dx="4.0" dy="4.0" in="blurOut2" result="blurOut3"/><feBlend in="SourceGraphic" in2="blurOut3" mode="normal"/></filter></defs><g><!--class LocalSoundSpaceLibrary--><rect fill="#FFFFE0" filter="url(#fws0df5peq8w2)" height="118.8691" id="LocalSoundSpaceLibrary" style="stroke: #FFFF00; stroke-width: 1.5;" width="272" x="35.5" y="53"/><ellipse cx="98.25" cy="74.3887" fill="#ADD1B2" rx="11" ry="11" style="stroke: #FFFF00; stroke-width: 1.0;"/><path d="M96.8281,79.748 Q94.9688,79.748 93.875,78.3574 Q92.7813,76.9668 92.7813,73.9824 Q92.7813,71.4512 93.9453,69.7949 Q95.1094,68.1387 97.0938,68.1387 Q98.5625,68.1387 99.0313,68.2637 Q99.5,68.4668 99.5,68.4668 Q99.5,68.4668 99.5,68.3965 Q99.5,68.3262 100.1094,67.4043 L101.1563,71.0605 L99.8281,71.4668 Q99.3594,69.9199 98.6953,69.2559 Q98.0313,68.5918 96.9688,68.5918 Q96.5781,68.5918 95.8125,70.123 Q95.0469,71.6543 95.0469,73.9043 Q95.0469,76.373 95.7109,77.7637 Q96.375,79.1543 96.9063,79.1543 Q97.9688,79.1543 98.7266,78.3887 Q99.4844,77.623 99.8281,75.9668 L101.1563,76.5605 Q100.8281,77.9668 99.9297,78.8574 Q99.0313,79.748 96.8281,79.748 Z "/><text fill="#000000" font-family="sans-serif" font-size="12" font-style="italic" lengthAdjust="spacingAndGlyphs" textLength="43" x="166.25" y="71.752">«entity»</text><text fill="#000000" font-family="sans-serif" font-size="12" lengthAdjust="spacingAndGlyphs" textLength="138" x="118.75" y="88.1406">LocalSoundSpaceLibrary</text><line style="stroke: #FFFF00; stroke-width: 1.5;" x1="36.5" x2="306.5" y1="95.7773" y2="95.7773"/><rect fill="none" height="6" style="stroke: #C82930; stroke-width: 1.0;" width="6" x="43.5" y="124.8118"/><text fill="#000000" font-family="sans-serif" font-size="11" lengthAdjust="spacingAndGlyphs" textLength="189" x="55.5" y="131.4063">localVSSList: List&lt;VirtualSoundSpace&gt;</text><line style="stroke: #FFFF00; stroke-width: 1.0; stroke-dasharray: 1.0,2.0;" x1="36.5" x2="155" y1="111.2888" y2="111.2888"/><text fill="#000000" font-family="sans-serif" font-size="11" lengthAdjust="spacingAndGlyphs" textLength="33" x="155" y="115.8833">private</text><line style="stroke: #FFFF00; stroke-width: 1.0; stroke-dasharray: 1.0,2.0;" x1="188" x2="306.5" y1="111.2888" y2="111.2888"/><ellipse cx="46.5" cy="161.8577" fill="#84BE84" rx="3" ry="3" style="stroke: #038048; stroke-width: 1.0;"/><text fill="#000000" font-family="sans-serif" font-size="11" lengthAdjust="spacingAndGlyphs" textLength="246" x="55.5" y="165.4521">getlocalVSSList(int num): List&lt;VirtualSoundSpace&gt;</text><line style="stroke: #FFFF00; stroke-width: 1.0; stroke-dasharray: 1.0,2.0;" x1="36.5" x2="157.5" y1="145.3347" y2="145.3347"/><text fill="#000000" font-family="sans-serif" font-size="11" lengthAdjust="spacingAndGlyphs" textLength="28" x="157.5" y="149.9292">public</text><line style="stroke: #FFFF00; stroke-width: 1.0; stroke-dasharray: 1.0,2.0;" x1="185.5" x2="306.5" y1="145.3347" y2="145.3347"/><!--class LocalVSSManagerViewModel--><rect fill="#ADD8E6" filter="url(#fws0df5peq8w2)" height="209.0068" id="LocalVSSManagerViewModel" style="stroke: #0000FF; stroke-width: 1.5;" width="257" x="343" y="8"/><ellipse cx="387.25" cy="29.3887" fill="#ADD1B2" rx="11" ry="11" style="stroke: #0000FF; stroke-width: 1.0;"/><path d="M385.8281,34.748 Q383.9688,34.748 382.875,33.3574 Q381.7813,31.9668 381.7813,28.9824 Q381.7813,26.4512 382.9453,24.7949 Q384.1094,23.1387 386.0938,23.1387 Q387.5625,23.1387 388.0313,23.2637 Q388.5,23.4668 388.5,23.4668 Q388.5,23.4668 388.5,23.3965 Q388.5,23.3262 389.1094,22.4043 L390.1563,26.0605 L388.8281,26.4668 Q388.3594,24.9199 387.6953,24.2559 Q387.0313,23.5918 385.9688,23.5918 Q385.5781,23.5918 384.8125,25.123 Q384.0469,26.6543 384.0469,28.9043 Q384.0469,31.373 384.7109,32.7637 Q385.375,34.1543 385.9063,34.1543 Q386.9688,34.1543 387.7266,33.3887 Q388.4844,32.623 388.8281,30.9668 L390.1563,31.5605 Q389.8281,32.9668 388.9297,33.8574 Q388.0313,34.748 385.8281,34.748 Z "/><text fill="#000000" font-family="sans-serif" font-size="12" font-style="italic" lengthAdjust="spacingAndGlyphs" textLength="71" x="452.25" y="26.752">«viewModel»</text><text fill="#000000" font-family="sans-serif" font-size="12" lengthAdjust="spacingAndGlyphs" textLength="160" x="407.75" y="43.1406">LocalVSSManagerViewModel</text><line style="stroke: #0000FF; stroke-width: 1.5;" x1="344" x2="599" y1="50.7773" y2="50.7773"/><rect fill="none" height="6" style="stroke: #C82930; stroke-width: 1.0;" width="6" x="351" y="79.8118"/><text fill="#000000" font-family="sans-serif" font-size="11" lengthAdjust="spacingAndGlyphs" textLength="87" x="363" y="86.4063">prevPage:boolean</text><rect fill="none" height="6" style="stroke: #C82930; stroke-width: 1.0;" width="6" x="351" y="94.8347"/><text fill="#000000" font-family="sans-serif" font-size="11" lengthAdjust="spacingAndGlyphs" textLength="86" x="363" y="101.4292">nextPage:boolean</text><rect fill="none" height="6" style="stroke: #C82930; stroke-width: 1.0;" width="6" x="351" y="109.8577"/><text fill="#000000" font-family="sans-serif" font-size="11" lengthAdjust="spacingAndGlyphs" textLength="231" x="363" y="116.4521">virtualSoundSpaces:List&lt;LocalVSSViewModel&gt;</text><ellipse cx="354" cy="127.8806" fill="#84BE84" rx="3" ry="3" style="stroke: #038048; stroke-width: 1.0;"/><text fill="#000000" font-family="sans-serif" font-size="11" lengthAdjust="spacingAndGlyphs" textLength="180" x="363" y="131.4751">displayVSSList(listOfLocalVSS): void</text><line style="stroke: #0000FF; stroke-width: 1.0; stroke-dasharray: 1.0,2.0;" x1="344" x2="455" y1="66.2888" y2="66.2888"/><text fill="#000000" font-family="sans-serif" font-size="11" lengthAdjust="spacingAndGlyphs" textLength="33" x="455" y="70.8833">private</text><line style="stroke: #0000FF; stroke-width: 1.0; stroke-dasharray: 1.0,2.0;" x1="488" x2="599" y1="66.2888" y2="66.2888"/><ellipse cx="354" cy="161.9265" fill="#84BE84" rx="3" ry="3" style="stroke: #038048; stroke-width: 1.0;"/><text fill="#000000" font-family="sans-serif" font-size="11" lengthAdjust="spacingAndGlyphs" textLength="182" x="363" y="165.521">receiveVSSList(listOfLocalVSS): void</text><ellipse cx="354" cy="176.9495" fill="#84BE84" rx="3" ry="3" style="stroke: #038048; stroke-width: 1.0;"/><text fill="#000000" font-family="sans-serif" font-size="11" lengthAdjust="spacingAndGlyphs" textLength="140" x="363" y="180.5439">onCreateButtonClicked():void</text><ellipse cx="354" cy="191.9724" fill="#84BE84" rx="3" ry="3" style="stroke: #038048; stroke-width: 1.0;"/><text fill="#000000" font-family="sans-serif" font-size="11" lengthAdjust="spacingAndGlyphs" textLength="130" x="363" y="195.5669">onPrevButtonClicked():void</text><ellipse cx="354" cy="206.9954" fill="#84BE84" rx="3" ry="3" style="stroke: #038048; stroke-width: 1.0;"/><text fill="#000000" font-family="sans-serif" font-size="11" lengthAdjust="spacingAndGlyphs" textLength="130" x="363" y="210.5898">onNextButtonClicked():void</text><line style="stroke: #0000FF; stroke-width: 1.0; stroke-dasharray: 1.0,2.0;" x1="344" x2="457.5" y1="145.4036" y2="145.4036"/><text fill="#000000" font-family="sans-serif" font-size="11" lengthAdjust="spacingAndGlyphs" textLength="28" x="457.5" y="149.998">public</text><line style="stroke: #0000FF; stroke-width: 1.0; stroke-dasharray: 1.0,2.0;" x1="485.5" x2="599" y1="145.4036" y2="145.4036"/><!--class LocalVSSViewModel--><rect fill="#ADD8E6" filter="url(#fws0df5peq8w2)" height="163.938" id="LocalVSSViewModel" style="stroke: #0000FF; stroke-width: 1.5;" width="174" x="635.5" y="30.5"/><ellipse cx="664" cy="51.8887" fill="#ADD1B2" rx="11" ry="11" style="stroke: #0000FF; stroke-width: 1.0;"/><path d="M662.5781,57.248 Q660.7188,57.248 659.625,55.8574 Q658.5313,54.4668 658.5313,51.4824 Q658.5313,48.9512 659.6953,47.2949 Q660.8594,45.6387 662.8438,45.6387 Q664.3125,45.6387 664.7813,45.7637 Q665.25,45.9668 665.25,45.9668 Q665.25,45.9668 665.25,45.8965 Q665.25,45.8262 665.8594,44.9043 L666.9063,48.5605 L665.5781,48.9668 Q665.1094,47.4199 664.4453,46.7559 Q663.7813,46.0918 662.7188,46.0918 Q662.3281,46.0918 661.5625,47.623 Q660.7969,49.1543 660.7969,51.4043 Q660.7969,53.873 661.4609,55.2637 Q662.125,56.6543 662.6563,56.6543 Q663.7188,56.6543 664.4766,55.8887 Q665.2344,55.123 665.5781,53.4668 L666.9063,54.0605 Q666.5781,55.4668 665.6797,56.3574 Q664.7813,57.248 662.5781,57.248 Z "/><text fill="#000000" font-family="sans-serif" font-size="12" font-style="italic" lengthAdjust="spacingAndGlyphs" textLength="71" x="701.5" y="49.252">«viewModel»</text><text fill="#000000" font-family="sans-serif" font-size="12" lengthAdjust="spacingAndGlyphs" textLength="112" x="681" y="65.6406">LocalVSSViewModel</text><line style="stroke: #0000FF; stroke-width: 1.5;" x1="636.5" x2="808.5" y1="73.2773" y2="73.2773"/><rect fill="none" height="6" style="stroke: #C82930; stroke-width: 1.0;" width="6" x="643.5" y="102.3118"/><text fill="#000000" font-family="sans-serif" font-size="11" lengthAdjust="spacingAndGlyphs" textLength="135" x="655.5" y="108.9063">thisVSS:VirtualSoundSpace</text><line style="stroke: #0000FF; stroke-width: 1.0; stroke-dasharray: 1.0,2.0;" x1="636.5" x2="706" y1="88.7888" y2="88.7888"/><text fill="#000000" font-family="sans-serif" font-size="11" lengthAdjust="spacingAndGlyphs" textLength="33" x="706" y="93.3833">private</text><line style="stroke: #0000FF; stroke-width: 1.0; stroke-dasharray: 1.0,2.0;" x1="739" x2="808.5" y1="88.7888" y2="88.7888"/><ellipse cx="646.5" cy="139.3577" fill="#84BE84" rx="3" ry="3" style="stroke: #038048; stroke-width: 1.0;"/><text fill="#000000" font-family="sans-serif" font-size="11" lengthAdjust="spacingAndGlyphs" textLength="141" x="655.5" y="142.9521">onUploadButtonClicked():void</text><ellipse cx="646.5" cy="154.3806" fill="#84BE84" rx="3" ry="3" style="stroke: #038048; stroke-width: 1.0;"/><text fill="#000000" font-family="sans-serif" font-size="11" lengthAdjust="spacingAndGlyphs" textLength="138" x="655.5" y="157.9751">onDeleteButtonClicked():void</text><ellipse cx="646.5" cy="169.4036" fill="#84BE84" rx="3" ry="3" style="stroke: #038048; stroke-width: 1.0;"/><text fill="#000000" font-family="sans-serif" font-size="11" lengthAdjust="spacingAndGlyphs" textLength="147" x="655.5" y="172.998">onRenameButtonClicked():void</text><ellipse cx="646.5" cy="184.4265" fill="#84BE84" rx="3" ry="3" style="stroke: #038048; stroke-width: 1.0;"/><text fill="#000000" font-family="sans-serif" font-size="11" lengthAdjust="spacingAndGlyphs" textLength="148" x="655.5" y="188.021">onPreviewButtonClicked():void</text><line style="stroke: #0000FF; stroke-width: 1.0; stroke-dasharray: 1.0,2.0;" x1="636.5" x2="708.5" y1="122.8347" y2="122.8347"/><text fill="#000000" font-family="sans-serif" font-size="11" lengthAdjust="spacingAndGlyphs" textLength="28" x="708.5" y="127.4292">public</text><line style="stroke: #0000FF; stroke-width: 1.0; stroke-dasharray: 1.0,2.0;" x1="736.5" x2="808.5" y1="122.8347" y2="122.8347"/><!--class PreviewLocalMapViewModel--><rect fill="#ADD8E6" filter="url(#fws0df5peq8w2)" height="163.938" id="PreviewLocalMapViewModel" style="stroke: #0000FF; stroke-width: 1.5;" width="209" x="845" y="30.5"/><ellipse cx="869.9" cy="51.8887" fill="#ADD1B2" rx="11" ry="11" style="stroke: #0000FF; stroke-width: 1.0;"/><path d="M868.4781,57.248 Q866.6188,57.248 865.525,55.8574 Q864.4313,54.4668 864.4313,51.4824 Q864.4313,48.9512 865.5953,47.2949 Q866.7594,45.6387 868.7438,45.6387 Q870.2125,45.6387 870.6813,45.7637 Q871.15,45.9668 871.15,45.9668 Q871.15,45.9668 871.15,45.8965 Q871.15,45.8262 871.7594,44.9043 L872.8063,48.5605 L871.4781,48.9668 Q871.0094,47.4199 870.3453,46.7559 Q869.6813,46.0918 868.6188,46.0918 Q868.2281,46.0918 867.4625,47.623 Q866.6969,49.1543 866.6969,51.4043 Q866.6969,53.873 867.3609,55.2637 Q868.025,56.6543 868.5563,56.6543 Q869.6188,56.6543 870.3766,55.8887 Q871.1344,55.123 871.4781,53.4668 L872.8063,54.0605 Q872.4781,55.4668 871.5797,56.3574 Q870.6813,57.248 868.4781,57.248 Z "/><text fill="#000000" font-family="sans-serif" font-size="12" font-style="italic" lengthAdjust="spacingAndGlyphs" textLength="71" x="928.1" y="49.252">«viewModel»</text><text fill="#000000" font-family="sans-serif" font-size="12" lengthAdjust="spacingAndGlyphs" textLength="155" x="886.1" y="65.6406">PreviewLocalMapViewModel</text><line style="stroke: #0000FF; stroke-width: 1.5;" x1="846" x2="1053" y1="73.2773" y2="73.2773"/><rect fill="none" height="6" style="stroke: #C82930; stroke-width: 1.0;" width="6" x="853" y="102.3118"/><text fill="#000000" font-family="sans-serif" font-size="11" lengthAdjust="spacingAndGlyphs" textLength="80" x="865" y="108.9063">VSSName:String</text><rect fill="none" height="6" style="stroke: #C82930; stroke-width: 1.0;" width="6" x="853" y="117.3347"/><text fill="#000000" font-family="sans-serif" font-size="11" lengthAdjust="spacingAndGlyphs" textLength="107" x="865" y="123.9292">VSSDescription:String</text><rect fill="none" height="6" style="stroke: #C82930; stroke-width: 1.0;" width="6" x="853" y="132.3577"/><text fill="#000000" font-family="sans-serif" font-size="11" lengthAdjust="spacingAndGlyphs" textLength="183" x="865" y="138.9521">soundSourceList: List&lt;SoundSource&gt;</text><line style="stroke: #0000FF; stroke-width: 1.0; stroke-dasharray: 1.0,2.0;" x1="846" x2="933" y1="88.7888" y2="88.7888"/><text fill="#000000" font-family="sans-serif" font-size="11" lengthAdjust="spacingAndGlyphs" textLength="33" x="933" y="93.3833">private</text><line style="stroke: #0000FF; stroke-width: 1.0; stroke-dasharray: 1.0,2.0;" x1="966" x2="1053" y1="88.7888" y2="88.7888"/><ellipse cx="856" cy="169.4036" fill="#84BE84" rx="3" ry="3" style="stroke: #038048; stroke-width: 1.0;"/><text fill="#000000" font-family="sans-serif" font-size="11" lengthAdjust="spacingAndGlyphs" textLength="125" x="865" y="172.998">onExitButtonClicked():void</text><ellipse cx="856" cy="184.4265" fill="#84BE84" rx="3" ry="3" style="stroke: #038048; stroke-width: 1.0;"/><text fill="#000000" font-family="sans-serif" font-size="11" lengthAdjust="spacingAndGlyphs" textLength="128" x="865" y="188.021">onPlayButtonClicked():void</text><line style="stroke: #0000FF; stroke-width: 1.0; stroke-dasharray: 1.0,2.0;" x1="846" x2="935.5" y1="152.8806" y2="152.8806"/><text fill="#000000" font-family="sans-serif" font-size="11" lengthAdjust="spacingAndGlyphs" textLength="28" x="935.5" y="157.4751">public</text><line style="stroke: #0000FF; stroke-width: 1.0; stroke-dasharray: 1.0,2.0;" x1="963.5" x2="1053" y1="152.8806" y2="152.8806"/><!--class PreviewLocalConcertViewModel--><rect fill="#ADD8E6" filter="url(#fws0df5peq8w2)" height="163.938" id="PreviewLocalConcertViewModel" style="stroke: #0000FF; stroke-width: 1.5;" width="209" x="67" y="299.5"/><ellipse cx="82.9" cy="320.8887" fill="#ADD1B2" rx="11" ry="11" style="stroke: #0000FF; stroke-width: 1.0;"/><path d="M81.4781,326.248 Q79.6188,326.248 78.525,324.8574 Q77.4313,323.4668 77.4313,320.4824 Q77.4313,317.9512 78.5953,316.2949 Q79.7594,314.6387 81.7438,314.6387 Q83.2125,314.6387 83.6813,314.7637 Q84.15,314.9668 84.15,314.9668 Q84.15,314.9668 84.15,314.8965 Q84.15,314.8262 84.7594,313.9043 L85.8063,317.5605 L84.4781,317.9668 Q84.0094,316.4199 83.3453,315.7559 Q82.6813,315.0918 81.6188,315.0918 Q81.2281,315.0918 80.4625,316.623 Q79.6969,318.1543 79.6969,320.4043 Q79.6969,322.873 80.3609,324.2637 Q81.025,325.6543 81.5563,325.6543 Q82.6188,325.6543 83.3766,324.8887 Q84.1344,324.123 84.4781,322.4668 L85.8063,323.0605 Q85.4781,324.4668 84.5797,325.3574 Q83.6813,326.248 81.4781,326.248 Z "/><text fill="#000000" font-family="sans-serif" font-size="12" font-style="italic" lengthAdjust="spacingAndGlyphs" textLength="71" x="149.1" y="318.252">«viewModel»</text><text fill="#000000" font-family="sans-serif" font-size="12" lengthAdjust="spacingAndGlyphs" textLength="175" x="97.1" y="334.6406">PreviewLocalConcertViewModel</text><line style="stroke: #0000FF; stroke-width: 1.5;" x1="68" x2="275" y1="342.2773" y2="342.2773"/><rect fill="none" height="6" style="stroke: #C82930; stroke-width: 1.0;" width="6" x="75" y="371.3118"/><text fill="#000000" font-family="sans-serif" font-size="11" lengthAdjust="spacingAndGlyphs" textLength="80" x="87" y="377.9063">VSSName:String</text><rect fill="none" height="6" style="stroke: #C82930; stroke-width: 1.0;" width="6" x="75" y="386.3347"/><text fill="#000000" font-family="sans-serif" font-size="11" lengthAdjust="spacingAndGlyphs" textLength="107" x="87" y="392.9292">VSSDescription:String</text><rect fill="none" height="6" style="stroke: #C82930; stroke-width: 1.0;" width="6" x="75" y="401.3577"/><text fill="#000000" font-family="sans-serif" font-size="11" lengthAdjust="spacingAndGlyphs" textLength="183" x="87" y="407.9521">soundSourceList: List&lt;SoundSource&gt;</text><line style="stroke: #0000FF; stroke-width: 1.0; stroke-dasharray: 1.0,2.0;" x1="68" x2="155" y1="357.7888" y2="357.7888"/><text fill="#000000" font-family="sans-serif" font-size="11" lengthAdjust="spacingAndGlyphs" textLength="33" x="155" y="362.3833">private</text><line style="stroke: #0000FF; stroke-width: 1.0; stroke-dasharray: 1.0,2.0;" x1="188" x2="275" y1="357.7888" y2="357.7888"/><ellipse cx="78" cy="438.4036" fill="#84BE84" rx="3" ry="3" style="stroke: #038048; stroke-width: 1.0;"/><text fill="#000000" font-family="sans-serif" font-size="11" lengthAdjust="spacingAndGlyphs" textLength="125" x="87" y="441.998">onExitButtonClicked():void</text><ellipse cx="78" cy="453.4265" fill="#84BE84" rx="3" ry="3" style="stroke: #038048; stroke-width: 1.0;"/><text fill="#000000" font-family="sans-serif" font-size="11" lengthAdjust="spacingAndGlyphs" textLength="128" x="87" y="457.021">onPlayButtonClicked():void</text><line style="stroke: #0000FF; stroke-width: 1.0; stroke-dasharray: 1.0,2.0;" x1="68" x2="157.5" y1="421.8806" y2="421.8806"/><text fill="#000000" font-family="sans-serif" font-size="11" lengthAdjust="spacingAndGlyphs" textLength="28" x="157.5" y="426.4751">public</text><line style="stroke: #0000FF; stroke-width: 1.0; stroke-dasharray: 1.0,2.0;" x1="185.5" x2="275" y1="421.8806" y2="421.8806"/><!--class RenameVSSViewModel--><rect fill="#ADD8E6" filter="url(#fws0df5peq8w2)" height="163.938" id="RenameVSSViewModel" style="stroke: #0000FF; stroke-width: 1.5;" width="176" x="311.5" y="299.5"/><ellipse cx="332.8" cy="320.8887" fill="#ADD1B2" rx="11" ry="11" style="stroke: #0000FF; stroke-width: 1.0;"/><path d="M331.3781,326.248 Q329.5188,326.248 328.425,324.8574 Q327.3313,323.4668 327.3313,320.4824 Q327.3313,317.9512 328.4953,316.2949 Q329.6594,314.6387 331.6438,314.6387 Q333.1125,314.6387 333.5813,314.7637 Q334.05,314.9668 334.05,314.9668 Q334.05,314.9668 334.05,314.8965 Q334.05,314.8262 334.6594,313.9043 L335.7063,317.5605 L334.3781,317.9668 Q333.9094,316.4199 333.2453,315.7559 Q332.5813,315.0918 331.5188,315.0918 Q331.1281,315.0918 330.3625,316.623 Q329.5969,318.1543 329.5969,320.4043 Q329.5969,322.873 330.2609,324.2637 Q330.925,325.6543 331.4563,325.6543 Q332.5188,325.6543 333.2766,324.8887 Q334.0344,324.123 334.3781,322.4668 L335.7063,323.0605 Q335.3781,324.4668 334.4797,325.3574 Q333.5813,326.248 331.3781,326.248 Z "/><text fill="#000000" font-family="sans-serif" font-size="12" font-style="italic" lengthAdjust="spacingAndGlyphs" textLength="71" x="377.7" y="318.252">«viewModel»</text><text fill="#000000" font-family="sans-serif" font-size="12" lengthAdjust="spacingAndGlyphs" textLength="130" x="348.2" y="334.6406">RenameVSSViewModel</text><line style="stroke: #0000FF; stroke-width: 1.5;" x1="312.5" x2="486.5" y1="342.2773" y2="342.2773"/><rect fill="none" height="6" style="stroke: #C82930; stroke-width: 1.0;" width="6" x="319.5" y="371.3118"/><text fill="#000000" font-family="sans-serif" font-size="11" lengthAdjust="spacingAndGlyphs" textLength="83" x="331.5" y="377.9063">newName: String</text><rect fill="none" height="6" style="stroke: #C82930; stroke-width: 1.0;" width="6" x="319.5" y="386.3347"/><text fill="#000000" font-family="sans-serif" font-size="11" lengthAdjust="spacingAndGlyphs" textLength="110" x="331.5" y="392.9292">newDescription: String</text><line style="stroke: #0000FF; stroke-width: 1.0; stroke-dasharray: 1.0,2.0;" x1="312.5" x2="383" y1="357.7888" y2="357.7888"/><text fill="#000000" font-family="sans-serif" font-size="11" lengthAdjust="spacingAndGlyphs" textLength="33" x="383" y="362.3833">private</text><line style="stroke: #0000FF; stroke-width: 1.0; stroke-dasharray: 1.0,2.0;" x1="416" x2="486.5" y1="357.7888" y2="357.7888"/><ellipse cx="322.5" cy="423.3806" fill="#84BE84" rx="3" ry="3" style="stroke: #038048; stroke-width: 1.0;"/><text fill="#000000" font-family="sans-serif" font-size="11" lengthAdjust="spacingAndGlyphs" textLength="136" x="331.5" y="426.9751">onSaveButtonClicked(): void</text><ellipse cx="322.5" cy="438.4036" fill="#84BE84" rx="3" ry="3" style="stroke: #038048; stroke-width: 1.0;"/><text fill="#000000" font-family="sans-serif" font-size="11" lengthAdjust="spacingAndGlyphs" textLength="144" x="331.5" y="441.998">onCancelButtonClicked(): void</text><ellipse cx="322.5" cy="453.4265" fill="#84BE84" rx="3" ry="3" style="stroke: #038048; stroke-width: 1.0;"/><text fill="#000000" font-family="sans-serif" font-size="11" lengthAdjust="spacingAndGlyphs" textLength="150" x="331.5" y="457.021">onRenameDataChanged(): void</text><line style="stroke: #0000FF; stroke-width: 1.0; stroke-dasharray: 1.0,2.0;" x1="312.5" x2="385.5" y1="406.8577" y2="406.8577"/><text fill="#000000" font-family="sans-serif" font-size="11" lengthAdjust="spacingAndGlyphs" textLength="28" x="385.5" y="411.4521">public</text><line style="stroke: #0000FF; stroke-width: 1.0; stroke-dasharray: 1.0,2.0;" x1="413.5" x2="486.5" y1="406.8577" y2="406.8577"/><!--class CreateVSSViewModel--><rect fill="#ADD8E6" filter="url(#fws0df5peq8w2)" height="99.8462" id="CreateVSSViewModel" style="stroke: #0000FF; stroke-width: 1.5;" width="198" x="522.5" y="331.5"/><ellipse cx="558.65" cy="352.8887" fill="#ADD1B2" rx="11" ry="11" style="stroke: #0000FF; stroke-width: 1.0;"/><path d="M557.2281,358.248 Q555.3688,358.248 554.275,356.8574 Q553.1813,355.4668 553.1813,352.4824 Q553.1813,349.9512 554.3453,348.2949 Q555.5094,346.6387 557.4938,346.6387 Q558.9625,346.6387 559.4313,346.7637 Q559.9,346.9668 559.9,346.9668 Q559.9,346.9668 559.9,346.8965 Q559.9,346.8262 560.5094,345.9043 L561.5563,349.5605 L560.2281,349.9668 Q559.7594,348.4199 559.0953,347.7559 Q558.4313,347.0918 557.3688,347.0918 Q556.9781,347.0918 556.2125,348.623 Q555.4469,350.1543 555.4469,352.4043 Q555.4469,354.873 556.1109,356.2637 Q556.775,357.6543 557.3063,357.6543 Q558.3688,357.6543 559.1266,356.8887 Q559.8844,356.123 560.2281,354.4668 L561.5563,355.0605 Q561.2281,356.4668 560.3297,357.3574 Q559.4313,358.248 557.2281,358.248 Z "/><text fill="#000000" font-family="sans-serif" font-size="12" font-style="italic" lengthAdjust="spacingAndGlyphs" textLength="71" x="601.35" y="350.252">«viewModel»</text><text fill="#000000" font-family="sans-serif" font-size="12" lengthAdjust="spacingAndGlyphs" textLength="119" x="577.35" y="366.6406">CreateVSSViewModel</text><line style="stroke: #0000FF; stroke-width: 1.5;" x1="523.5" x2="719.5" y1="374.2773" y2="374.2773"/><ellipse cx="533.5" cy="406.3118" fill="#84BE84" rx="3" ry="3" style="stroke: #038048; stroke-width: 1.0;"/><text fill="#000000" font-family="sans-serif" font-size="11" lengthAdjust="spacingAndGlyphs" textLength="154" x="542.5" y="409.9063">onMapModeButtonClicked():void</text><ellipse cx="533.5" cy="421.3347" fill="#84BE84" rx="3" ry="3" style="stroke: #038048; stroke-width: 1.0;"/><text fill="#000000" font-family="sans-serif" font-size="11" lengthAdjust="spacingAndGlyphs" textLength="172" x="542.5" y="424.9292">onConcertModeButtonClicked():void</text><line style="stroke: #0000FF; stroke-width: 1.0; stroke-dasharray: 1.0,2.0;" x1="523.5" x2="607.5" y1="389.7888" y2="389.7888"/><text fill="#000000" font-family="sans-serif" font-size="11" lengthAdjust="spacingAndGlyphs" textLength="28" x="607.5" y="394.3833">public</text><line style="stroke: #0000FF; stroke-width: 1.0; stroke-dasharray: 1.0,2.0;" x1="635.5" x2="719.5" y1="389.7888" y2="389.7888"/><!--class CreateMapVSSViewModel--><rect fill="#ADD8E6" filter="url(#fws0df5peq8w2)" height="209.0068" id="CreateMapVSSViewModel" style="stroke: #0000FF; stroke-width: 1.5;" width="249" x="756" y="277"/><ellipse cx="805.25" cy="298.3887" fill="#ADD1B2" rx="11" ry="11" style="stroke: #0000FF; stroke-width: 1.0;"/><path d="M803.8281,303.748 Q801.9688,303.748 800.875,302.3574 Q799.7813,300.9668 799.7813,297.9824 Q799.7813,295.4512 800.9453,293.7949 Q802.1094,292.1387 804.0938,292.1387 Q805.5625,292.1387 806.0313,292.2637 Q806.5,292.4668 806.5,292.4668 Q806.5,292.4668 806.5,292.3965 Q806.5,292.3262 807.1094,291.4043 L808.1563,295.0605 L806.8281,295.4668 Q806.3594,293.9199 805.6953,293.2559 Q805.0313,292.5918 803.9688,292.5918 Q803.5781,292.5918 802.8125,294.123 Q802.0469,295.6543 802.0469,297.9043 Q802.0469,300.373 802.7109,301.7637 Q803.375,303.1543 803.9063,303.1543 Q804.9688,303.1543 805.7266,302.3887 Q806.4844,301.623 806.8281,299.9668 L808.1563,300.5605 Q807.8281,301.9668 806.9297,302.8574 Q806.0313,303.748 803.8281,303.748 Z "/><text fill="#000000" font-family="sans-serif" font-size="12" font-style="italic" lengthAdjust="spacingAndGlyphs" textLength="71" x="861.25" y="295.752">«viewModel»</text><text fill="#000000" font-family="sans-serif" font-size="12" lengthAdjust="spacingAndGlyphs" textLength="142" x="825.75" y="312.1406">CreateMapVSSViewModel</text><line style="stroke: #0000FF; stroke-width: 1.5;" x1="757" x2="1004" y1="319.7773" y2="319.7773"/><rect fill="none" height="6" style="stroke: #C82930; stroke-width: 1.0;" width="6" x="764" y="348.8118"/><text fill="#000000" font-family="sans-serif" font-size="11" lengthAdjust="spacingAndGlyphs" textLength="223" x="776" y="355.4063">soundSources:List&lt;SoundSourceViewModel&gt;</text><rect fill="none" height="6" style="stroke: #C82930; stroke-width: 1.0;" width="6" x="764" y="363.8347"/><text fill="#000000" font-family="sans-serif" font-size="11" lengthAdjust="spacingAndGlyphs" textLength="86" x="776" y="370.4292">isConfirm:boolean</text><rect fill="none" height="6" style="stroke: #C82930; stroke-width: 1.0;" width="6" x="764" y="378.8577"/><text fill="#000000" font-family="sans-serif" font-size="11" lengthAdjust="spacingAndGlyphs" textLength="80" x="776" y="385.4521">VSSName:String</text><rect fill="none" height="6" style="stroke: #C82930; stroke-width: 1.0;" width="6" x="764" y="393.8806"/><text fill="#000000" font-family="sans-serif" font-size="11" lengthAdjust="spacingAndGlyphs" textLength="107" x="776" y="400.4751">VSSDescription:String</text><line style="stroke: #0000FF; stroke-width: 1.0; stroke-dasharray: 1.0,2.0;" x1="757" x2="864" y1="335.2888" y2="335.2888"/><text fill="#000000" font-family="sans-serif" font-size="11" lengthAdjust="spacingAndGlyphs" textLength="33" x="864" y="339.8833">private</text><line style="stroke: #0000FF; stroke-width: 1.0; stroke-dasharray: 1.0,2.0;" x1="897" x2="1004" y1="335.2888" y2="335.2888"/><ellipse cx="767" cy="430.9265" fill="#84BE84" rx="3" ry="3" style="stroke: #038048; stroke-width: 1.0;"/><text fill="#000000" font-family="sans-serif" font-size="11" lengthAdjust="spacingAndGlyphs" textLength="189" x="776" y="434.521">onAddFromLibraryButtonClicked(): void</text><ellipse cx="767" cy="445.9495" fill="#84BE84" rx="3" ry="3" style="stroke: #038048; stroke-width: 1.0;"/><text fill="#000000" font-family="sans-serif" font-size="11" lengthAdjust="spacingAndGlyphs" textLength="171" x="776" y="449.5439">onAddFromFileButtonClicked(): void</text><ellipse cx="767" cy="460.9724" fill="#84BE84" rx="3" ry="3" style="stroke: #038048; stroke-width: 1.0;"/><text fill="#000000" font-family="sans-serif" font-size="11" lengthAdjust="spacingAndGlyphs" textLength="148" x="776" y="464.5669">onConfirmButtonClicked(): void</text><ellipse cx="767" cy="475.9954" fill="#84BE84" rx="3" ry="3" style="stroke: #038048; stroke-width: 1.0;"/><text fill="#000000" font-family="sans-serif" font-size="11" lengthAdjust="spacingAndGlyphs" textLength="144" x="776" y="479.5898">onCancelButtonClicked(): void</text><line style="stroke: #0000FF; stroke-width: 1.0; stroke-dasharray: 1.0,2.0;" x1="757" x2="866.5" y1="414.4036" y2="414.4036"/><text fill="#000000" font-family="sans-serif" font-size="11" lengthAdjust="spacingAndGlyphs" textLength="28" x="866.5" y="418.998">public</text><line style="stroke: #0000FF; stroke-width: 1.0; stroke-dasharray: 1.0,2.0;" x1="894.5" x2="1004" y1="414.4036" y2="414.4036"/><!--class MapSoundSourceViewModel--><rect fill="#ADD8E6" filter="url(#fws0df5peq8w2)" height="148.915" id="MapSoundSourceViewModel" style="stroke: #0000FF; stroke-width: 1.5;" width="331" x="6" y="576"/><ellipse cx="88.75" cy="597.3887" fill="#ADD1B2" rx="11" ry="11" style="stroke: #0000FF; stroke-width: 1.0;"/><path d="M87.3281,602.748 Q85.4688,602.748 84.375,601.3574 Q83.2813,599.9668 83.2813,596.9824 Q83.2813,594.4512 84.4453,592.7949 Q85.6094,591.1387 87.5938,591.1387 Q89.0625,591.1387 89.5313,591.2637 Q90,591.4668 90,591.4668 Q90,591.4668 90,591.3965 Q90,591.3262 90.6094,590.4043 L91.6563,594.0605 L90.3281,594.4668 Q89.8594,592.9199 89.1953,592.2559 Q88.5313,591.5918 87.4688,591.5918 Q87.0781,591.5918 86.3125,593.123 Q85.5469,594.6543 85.5469,596.9043 Q85.5469,599.373 86.2109,600.7637 Q86.875,602.1543 87.4063,602.1543 Q88.4688,602.1543 89.2266,601.3887 Q89.9844,600.623 90.3281,598.9668 L91.6563,599.5605 Q91.3281,600.9668 90.4297,601.8574 Q89.5313,602.748 87.3281,602.748 Z "/><text fill="#000000" font-family="sans-serif" font-size="12" font-style="italic" lengthAdjust="spacingAndGlyphs" textLength="71" x="152.25" y="594.752">«viewModel»</text><text fill="#000000" font-family="sans-serif" font-size="12" lengthAdjust="spacingAndGlyphs" textLength="157" x="109.25" y="611.1406">MapSoundSourceViewModel</text><line style="stroke: #0000FF; stroke-width: 1.5;" x1="7" x2="336" y1="618.7773" y2="618.7773"/><rect fill="none" height="6" style="stroke: #C82930; stroke-width: 1.0;" width="6" x="14" y="647.8118"/><text fill="#000000" font-family="sans-serif" font-size="11" lengthAdjust="spacingAndGlyphs" textLength="123" x="26" y="654.4063">soundSourceName:String</text><line style="stroke: #0000FF; stroke-width: 1.0; stroke-dasharray: 1.0,2.0;" x1="7" x2="155" y1="634.2888" y2="634.2888"/><text fill="#000000" font-family="sans-serif" font-size="11" lengthAdjust="spacingAndGlyphs" textLength="33" x="155" y="638.8833">private</text><line style="stroke: #0000FF; stroke-width: 1.0; stroke-dasharray: 1.0,2.0;" x1="188" x2="336" y1="634.2888" y2="634.2888"/><ellipse cx="17" cy="684.8577" fill="#84BE84" rx="3" ry="3" style="stroke: #038048; stroke-width: 1.0;"/><text fill="#000000" font-family="sans-serif" font-size="11" lengthAdjust="spacingAndGlyphs" textLength="148" x="26" y="688.4521">onPositionButtonClicked(): void</text><ellipse cx="17" cy="699.8806" fill="#84BE84" rx="3" ry="3" style="stroke: #038048; stroke-width: 1.0;"/><text fill="#000000" font-family="sans-serif" font-size="11" lengthAdjust="spacingAndGlyphs" textLength="137" x="26" y="703.4751">onModeButtonClicked(): void</text><ellipse cx="17" cy="714.9036" fill="#84BE84" rx="3" ry="3" style="stroke: #038048; stroke-width: 1.0;"/><text fill="#000000" font-family="sans-serif" font-size="11" lengthAdjust="spacingAndGlyphs" textLength="305" x="26" y="718.498">displayMapSoundSourceList(listOfLocalMapSoundSource):void</text><line style="stroke: #0000FF; stroke-width: 1.0; stroke-dasharray: 1.0,2.0;" x1="7" x2="157.5" y1="668.3347" y2="668.3347"/><text fill="#000000" font-family="sans-serif" font-size="11" lengthAdjust="spacingAndGlyphs" textLength="28" x="157.5" y="672.9292">public</text><line style="stroke: #0000FF; stroke-width: 1.0; stroke-dasharray: 1.0,2.0;" x1="185.5" x2="336" y1="668.3347" y2="668.3347"/><!--class CreateConcertVSSViewModel--><rect fill="#ADD8E6" filter="url(#fws0df5peq8w2)" height="209.0068" id="CreateConcertVSSViewModel" style="stroke: #0000FF; stroke-width: 1.5;" width="249" x="372" y="546"/><ellipse cx="411.75" cy="567.3887" fill="#ADD1B2" rx="11" ry="11" style="stroke: #0000FF; stroke-width: 1.0;"/><path d="M410.3281,572.748 Q408.4688,572.748 407.375,571.3574 Q406.2813,569.9668 406.2813,566.9824 Q406.2813,564.4512 407.4453,562.7949 Q408.6094,561.1387 410.5938,561.1387 Q412.0625,561.1387 412.5313,561.2637 Q413,561.4668 413,561.4668 Q413,561.4668 413,561.3965 Q413,561.3262 413.6094,560.4043 L414.6563,564.0605 L413.3281,564.4668 Q412.8594,562.9199 412.1953,562.2559 Q411.5313,561.5918 410.4688,561.5918 Q410.0781,561.5918 409.3125,563.123 Q408.5469,564.6543 408.5469,566.9043 Q408.5469,569.373 409.2109,570.7637 Q409.875,572.1543 410.4063,572.1543 Q411.4688,572.1543 412.2266,571.3887 Q412.9844,570.623 413.3281,568.9668 L414.6563,569.5605 Q414.3281,570.9668 413.4297,571.8574 Q412.5313,572.748 410.3281,572.748 Z "/><text fill="#000000" font-family="sans-serif" font-size="12" font-style="italic" lengthAdjust="spacingAndGlyphs" textLength="71" x="476.75" y="564.752">«viewModel»</text><text fill="#000000" font-family="sans-serif" font-size="12" lengthAdjust="spacingAndGlyphs" textLength="162" x="431.25" y="581.1406">CreateConcertVSSViewModel</text><line style="stroke: #0000FF; stroke-width: 1.5;" x1="373" x2="620" y1="588.7773" y2="588.7773"/><rect fill="none" height="6" style="stroke: #C82930; stroke-width: 1.0;" width="6" x="380" y="617.8118"/><text fill="#000000" font-family="sans-serif" font-size="11" lengthAdjust="spacingAndGlyphs" textLength="223" x="392" y="624.4063">soundSources:List&lt;SoundSourceViewModel&gt;</text><rect fill="none" height="6" style="stroke: #C82930; stroke-width: 1.0;" width="6" x="380" y="632.8347"/><text fill="#000000" font-family="sans-serif" font-size="11" lengthAdjust="spacingAndGlyphs" textLength="86" x="392" y="639.4292">isConfirm:boolean</text><rect fill="none" height="6" style="stroke: #C82930; stroke-width: 1.0;" width="6" x="380" y="647.8577"/><text fill="#000000" font-family="sans-serif" font-size="11" lengthAdjust="spacingAndGlyphs" textLength="80" x="392" y="654.4521">VSSName:String</text><rect fill="none" height="6" style="stroke: #C82930; stroke-width: 1.0;" width="6" x="380" y="662.8806"/><text fill="#000000" font-family="sans-serif" font-size="11" lengthAdjust="spacingAndGlyphs" textLength="107" x="392" y="669.4751">VSSDescription:String</text><line style="stroke: #0000FF; stroke-width: 1.0; stroke-dasharray: 1.0,2.0;" x1="373" x2="480" y1="604.2888" y2="604.2888"/><text fill="#000000" font-family="sans-serif" font-size="11" lengthAdjust="spacingAndGlyphs" textLength="33" x="480" y="608.8833">private</text><line style="stroke: #0000FF; stroke-width: 1.0; stroke-dasharray: 1.0,2.0;" x1="513" x2="620" y1="604.2888" y2="604.2888"/><ellipse cx="383" cy="699.9265" fill="#84BE84" rx="3" ry="3" style="stroke: #038048; stroke-width: 1.0;"/><text fill="#000000" font-family="sans-serif" font-size="11" lengthAdjust="spacingAndGlyphs" textLength="189" x="392" y="703.521">onAddFromLibraryButtonClicked(): void</text><ellipse cx="383" cy="714.9495" fill="#84BE84" rx="3" ry="3" style="stroke: #038048; stroke-width: 1.0;"/><text fill="#000000" font-family="sans-serif" font-size="11" lengthAdjust="spacingAndGlyphs" textLength="171" x="392" y="718.5439">onAddFromFileButtonClicked(): void</text><ellipse cx="383" cy="729.9724" fill="#84BE84" rx="3" ry="3" style="stroke: #038048; stroke-width: 1.0;"/><text fill="#000000" font-family="sans-serif" font-size="11" lengthAdjust="spacingAndGlyphs" textLength="148" x="392" y="733.5669">onConfirmButtonClicked(): void</text><ellipse cx="383" cy="744.9954" fill="#84BE84" rx="3" ry="3" style="stroke: #038048; stroke-width: 1.0;"/><text fill="#000000" font-family="sans-serif" font-size="11" lengthAdjust="spacingAndGlyphs" textLength="144" x="392" y="748.5898">onCancelButtonClicked(): void</text><line style="stroke: #0000FF; stroke-width: 1.0; stroke-dasharray: 1.0,2.0;" x1="373" x2="482.5" y1="683.4036" y2="683.4036"/><text fill="#000000" font-family="sans-serif" font-size="11" lengthAdjust="spacingAndGlyphs" textLength="28" x="482.5" y="687.998">public</text><line style="stroke: #0000FF; stroke-width: 1.0; stroke-dasharray: 1.0,2.0;" x1="510.5" x2="620" y1="683.4036" y2="683.4036"/><!--class ConcertSoundSourceViewModel--><rect fill="#ADD8E6" filter="url(#fws0df5peq8w2)" height="118.8691" id="ConcertSoundSourceViewModel" style="stroke: #0000FF; stroke-width: 1.5;" width="367" x="656" y="591"/><ellipse cx="746.75" cy="612.3887" fill="#ADD1B2" rx="11" ry="11" style="stroke: #0000FF; stroke-width: 1.0;"/><path d="M745.3281,617.748 Q743.4688,617.748 742.375,616.3574 Q741.2813,614.9668 741.2813,611.9824 Q741.2813,609.4512 742.4453,607.7949 Q743.6094,606.1387 745.5938,606.1387 Q747.0625,606.1387 747.5313,606.2637 Q748,606.4668 748,606.4668 Q748,606.4668 748,606.3965 Q748,606.3262 748.6094,605.4043 L749.6563,609.0605 L748.3281,609.4668 Q747.8594,607.9199 747.1953,607.2559 Q746.5313,606.5918 745.4688,606.5918 Q745.0781,606.5918 744.3125,608.123 Q743.5469,609.6543 743.5469,611.9043 Q743.5469,614.373 744.2109,615.7637 Q744.875,617.1543 745.4063,617.1543 Q746.4688,617.1543 747.2266,616.3887 Q747.9844,615.623 748.3281,613.9668 L749.6563,614.5605 Q749.3281,615.9668 748.4297,616.8574 Q747.5313,617.748 745.3281,617.748 Z "/><text fill="#000000" font-family="sans-serif" font-size="12" font-style="italic" lengthAdjust="spacingAndGlyphs" textLength="71" x="820.25" y="609.752">«viewModel»</text><text fill="#000000" font-family="sans-serif" font-size="12" lengthAdjust="spacingAndGlyphs" textLength="177" x="767.25" y="626.1406">ConcertSoundSourceViewModel</text><line style="stroke: #0000FF; stroke-width: 1.5;" x1="657" x2="1022" y1="633.7773" y2="633.7773"/><rect fill="none" height="6" style="stroke: #C82930; stroke-width: 1.0;" width="6" x="664" y="662.8118"/><text fill="#000000" font-family="sans-serif" font-size="11" lengthAdjust="spacingAndGlyphs" textLength="123" x="676" y="669.4063">soundSourceName:String</text><line style="stroke: #0000FF; stroke-width: 1.0; stroke-dasharray: 1.0,2.0;" x1="657" x2="823" y1="649.2888" y2="649.2888"/><text fill="#000000" font-family="sans-serif" font-size="11" lengthAdjust="spacingAndGlyphs" textLength="33" x="823" y="653.8833">private</text><line style="stroke: #0000FF; stroke-width: 1.0; stroke-dasharray: 1.0,2.0;" x1="856" x2="1022" y1="649.2888" y2="649.2888"/><ellipse cx="667" cy="699.8577" fill="#84BE84" rx="3" ry="3" style="stroke: #038048; stroke-width: 1.0;"/><text fill="#000000" font-family="sans-serif" font-size="11" lengthAdjust="spacingAndGlyphs" textLength="341" x="676" y="703.4521">displayConcertSoundSourceList(listOfLocalConcertSoundSource):void</text><line style="stroke: #0000FF; stroke-width: 1.0; stroke-dasharray: 1.0,2.0;" x1="657" x2="825.5" y1="683.3347" y2="683.3347"/><text fill="#000000" font-family="sans-serif" font-size="11" lengthAdjust="spacingAndGlyphs" textLength="28" x="825.5" y="687.9292">public</text><line style="stroke: #0000FF; stroke-width: 1.0; stroke-dasharray: 1.0,2.0;" x1="853.5" x2="1022" y1="683.3347" y2="683.3347"/><!--link LocalSoundSpaceLibrary to LocalVSSManagerViewModel--><!--link LocalVSSManagerViewModel to LocalVSSViewModel--><!--link LocalVSSViewModel to PreviewLocalMapViewModel--><!--link LocalSoundSpaceLibrary to PreviewLocalConcertViewModel--><!--link PreviewLocalConcertViewModel to RenameVSSViewModel--><!--link RenameVSSViewModel to CreateVSSViewModel--><!--link CreateVSSViewModel to CreateMapVSSViewModel--><!--link PreviewLocalConcertViewModel to MapSoundSourceViewModel--><!--link MapSoundSourceViewModel to CreateConcertVSSViewModel--><!--link CreateConcertVSSViewModel to ConcertSoundSourceViewModel--><!--
@startuml Diagrams/LocalVSSSubsystemClassDiagram

    skinparam class {
        BackgroundColor<<viewModel>> LightBlue
        BorderColor<<viewModel>> Blue
        BackgroundColor<<control>> LightGray
        BorderColor<<control>> Red
        BackgroundColor<<entity>> LightYellow
        BorderColor<<entity>> Yellow
    }


    class LocalSoundSpaceLibrary <<entity>> {
    ..private..
    - localVSSList: List<VirtualSoundSpace>
    ..public..
    + getlocalVSSList(int num): List<VirtualSoundSpace>
    }
    class LocalVSSManagerViewModel <<viewModel>> {
    ..private..
    -prevPage:boolean
    -nextPage:boolean
    -virtualSoundSpaces:List<LocalVSSViewModel>
        +displayVSSList(listOfLocalVSS): void
    ..public..
        +receiveVSSList(listOfLocalVSS): void
    +onCreateButtonClicked():void
    +onPrevButtonClicked():void
    +onNextButtonClicked():void
    }
    class LocalVSSViewModel <<viewModel>> {
    ..private..
    -thisVSS:VirtualSoundSpace
    ..public..
    +onUploadButtonClicked():void
    +onDeleteButtonClicked():void
    +onRenameButtonClicked():void
    +onPreviewButtonClicked():void
    }

    class PreviewLocalMapViewModel <<viewModel>> {
        ..private..
    - VSSName:String
    - VSSDescription:String
        - soundSourceList: List<SoundSource>
    ..public..
    +onExitButtonClicked():void
    +onPlayButtonClicked():void
    }
    class PreviewLocalConcertViewModel <<viewModel>> {
        ..private..
    - VSSName:String
    - VSSDescription:String
        - soundSourceList: List<SoundSource>
    ..public..
    +onExitButtonClicked():void
    +onPlayButtonClicked():void
    }

    class RenameVSSViewModel <<viewModel>> {
        ..private..
        - newName: String
        - newDescription: String
        ..public..
        + onSaveButtonClicked(): void
        + onCancelButtonClicked(): void
        + onRenameDataChanged(): void
    }

    class CreateVSSViewModel <<viewModel>> {
    ..public..
    +onMapModeButtonClicked():void
    +onConcertModeButtonClicked():void
    }
    class CreateMapVSSViewModel <<viewModel>> {
    ..private..
    -soundSources:List<SoundSourceViewModel>
    -isConfirm:boolean
    -VSSName:String
    -VSSDescription:String
    ..public..
    +onAddFromLibraryButtonClicked(): void
    +onAddFromFileButtonClicked(): void
    +onConfirmButtonClicked(): void
    +onCancelButtonClicked(): void
    }
    class MapSoundSourceViewModel <<viewModel>> {
    ..private..
    -soundSourceName:String
    ..public..
    +onPositionButtonClicked(): void
    +onModeButtonClicked(): void
    +displayMapSoundSourceList(listOfLocalMapSoundSource):void
    }
    class CreateConcertVSSViewModel <<viewModel>> {
    ..private..
    -soundSources:List<SoundSourceViewModel>
    -isConfirm:boolean
    -VSSName:String
    -VSSDescription:String
    ..public..
    +onAddFromLibraryButtonClicked(): void
    +onAddFromFileButtonClicked(): void
    +onConfirmButtonClicked(): void
    +onCancelButtonClicked(): void
    }
    class ConcertSoundSourceViewModel <<viewModel>> {
    ..private..
    -soundSourceName:String
    ..public..
    +displayConcertSoundSourceList(listOfLocalConcertSoundSource):void
}

@enduml

PlantUML version 1.2018.03(Fri Apr 06 00:59:15 CST 2018)
(GPL source distribution)
Java Runtime: Java(TM) SE Runtime Environment
JVM: Java HotSpot(TM) Client VM
Java Version: 1.8.0_171-b11
Operating System: Windows 8.1
OS Version: 6.3
Default Encoding: GBK
Language: zh
Country: CN
--></g></svg>