<?xml version="1.0" encoding="UTF-8" standalone="no"?><svg xmlns="http://www.w3.org/2000/svg" xmlns:xlink="http://www.w3.org/1999/xlink" contentScriptType="application/ecmascript" contentStyleType="text/css" height="166px" preserveAspectRatio="none" style="width:383px;height:166px;" version="1.1" viewBox="0 0 383 166" width="383px" zoomAndPan="magnify"><defs/><g><text fill="#000000" font-family="sans-serif" font-size="12" lengthAdjust="spacingAndGlyphs" textLength="95" x="6" y="17.6016">User Login Panel</text><line style="stroke: #AAAAAA; stroke-width: 1.0;" x1="6" x2="203" y1="24.6328" y2="24.6328"/><line style="stroke: #AAAAAA; stroke-width: 1.0;" x1="6" x2="203" y1="26.6328" y2="26.6328"/><text fill="#000000" font-family="sans-serif" font-size="12" lengthAdjust="spacingAndGlyphs" textLength="109" x="6" y="41.7344">Username or Email</text><text fill="#000000" font-family="sans-serif" font-size="12" lengthAdjust="spacingAndGlyphs" textLength="144" x="207" y="41.7344">someEmail@AudioAR.org</text><line style="stroke: #000000; stroke-width: 1.0;" x1="205" x2="376" y1="44.2656" y2="44.2656"/><line style="stroke: #000000; stroke-width: 1.0;" x1="205" x2="205" y1="41.2656" y2="43.2656"/><line style="stroke: #000000; stroke-width: 1.0;" x1="376" x2="376" y1="41.2656" y2="43.2656"/><text fill="#000000" font-family="sans-serif" font-size="12" lengthAdjust="spacingAndGlyphs" textLength="55" x="6" y="59.8672">Password</text><text fill="#000000" font-family="sans-serif" font-size="12" lengthAdjust="spacingAndGlyphs" textLength="24" x="207" y="59.8672">****</text><line style="stroke: #000000; stroke-width: 1.0;" x1="205" x2="240" y1="62.3984" y2="62.3984"/><line style="stroke: #000000; stroke-width: 1.0;" x1="205" x2="205" y1="59.3984" y2="61.3984"/><line style="stroke: #000000; stroke-width: 1.0;" x1="240" x2="240" y1="59.3984" y2="61.3984"/><text fill="#000000" font-family="sans-serif" font-size="12" lengthAdjust="spacingAndGlyphs" textLength="144" x="26" y="78">Remember me next time</text><rect fill="none" height="10" style="stroke: #000000; stroke-width: 1.5;" width="10" x="8" y="68.4648"/><polygon fill="#000000" points="9,72.3984,12,75.3984,19,66.3984,12,73.3984" style="stroke: #000000; stroke-width: 1.5;"/><line style="stroke: #AAAAAA; stroke-width: 1.0;" x1="6" x2="203" y1="85.0313" y2="85.0313"/><line style="stroke: #AAAAAA; stroke-width: 1.0;" x1="6" x2="203" y1="87.0313" y2="87.0313"/><rect fill="#EEEEEE" height="18.1328" rx="5" ry="5" style="stroke: #000000; stroke-width: 2.5;" width="84" x="8.5" y="93.0313"/><text fill="#000000" font-family="sans-serif" font-size="12" lengthAdjust="spacingAndGlyphs" textLength="39" x="24" y="106.6328">Sign IN</text><path d="M71,98.1641 L71,99.1641 L75,99.1641 L75,104.1641 L71,104.1641 L71,105.1641 L76,105.1641 L76,98.1641 L71,98.1641 M72,100.1641 L72,101.1641 L68,101.1641 L68,102.1641 L72,102.1641 L72,103.1641 L74,101.6641 L72,100.1641 " fill="#000000" style="stroke: ; stroke-width: 0.0; stroke-dasharray: ;"/><line style="stroke: #AAAAAA; stroke-width: 1.0;" x1="6" x2="203" y1="118.1641" y2="118.1641"/><line style="stroke: #AAAAAA; stroke-width: 1.0;" x1="6" x2="203" y1="120.1641" y2="120.1641"/><text fill="#000000" font-family="sans-serif" font-size="12" lengthAdjust="spacingAndGlyphs" textLength="196" x="6" y="135.2656">New to AudioAR? Click to register:</text><rect fill="#EEEEEE" height="18.1328" rx="5" ry="5" style="stroke: #000000; stroke-width: 2.5;" width="84" x="8.5" y="142.2969"/><text fill="#000000" font-family="sans-serif" font-size="12" lengthAdjust="spacingAndGlyphs" textLength="42" x="22.5" y="155.8984">Sign UP</text><path d="M75,147.4297 C73.62,147.4297 72.5,148.5497 72.5,149.9297 C72.5,150.0897 72.533,150.2267 72.563,150.3677 L69.5,153.4307 L69.5,155.4307 L72.5,155.4307 L72.5,153.4307 L74.5,153.4307 L74.5,152.4307 L74.563,152.3677 C74.703,152.3977 74.84,152.4307 75.001,152.4307 C76.381,152.4307 77.501,151.3107 77.501,149.9307 C77.501,148.5507 76.381,147.4307 75.001,147.4307 M75.501,148.4307 C76.051,148.4307 76.501,148.8807 76.501,149.4307 C76.501,149.9807 76.051,150.4307 75.501,150.4307 C74.951,150.4307 74.501,149.9807 74.501,149.4307 C74.501,148.8807 74.951,148.4307 75.501,148.4307 " fill="#000000" style="stroke: ; stroke-width: 0.0; stroke-dasharray: ;"/></g></svg>