<?xml version="1.0" encoding="UTF-8" standalone="no"?><svg xmlns="http://www.w3.org/2000/svg" xmlns:xlink="http://www.w3.org/1999/xlink" contentScriptType="application/ecmascript" contentStyleType="text/css" height="643px" preserveAspectRatio="none" style="width:1323px;height:643px;" version="1.1" viewBox="0 0 1323 643"
    width="1323px" zoomAndPan="magnify"><defs><filter height="300%" id="f1q30p0cy2n5c3" width="300%" x="-1" y="-1"><feGaussianBlur result="blurOut" stdDeviation="2.0"/><feColorMatrix in="blurOut" result="blurOut2" type="matrix" values="0 0 0 0 0 0 0 0 0 0 0 0 0 0 0 0 0 0 .4 0"/><feOffset dx="4.0" dy="4.0" in="blurOut2" result="blurOut3"/><feBlend in="SourceGraphic" in2="blurOut3" mode="normal"/></filter></defs><g><rect fill="#FFFFFF" filter="url(#f1q30p0cy2n5c3)" height="173.8633" style="stroke: #000000; stroke-width: 2.0;" width="1230.5" x="12" y="250.041"/><rect fill="#FFFFFF" filter="url(#f1q30p0cy2n5c3)" height="59.6211" style="stroke: #000000; stroke-width: 2.0;" width="276" x="812.5" y="509.5254"/><rect fill="#FEFECE" filter="url(#f1q30p0cy2n5c3)" height="30.4883" style="stroke: #A80036; stroke-width: 1.5;" width="171" x="1132" y="576.1465"/><text fill="#000000" font-family="sans-serif" font-size="14" lengthAdjust="spacingAndGlyphs" text-decoration="underline" textLength="157" x="1139" y="596.6816">:LocalVSSManagerPage</text><line style="stroke: #000000; stroke-width: 1.0;" x1="1139" x2="1296" y1="598.6816" y2="598.6816"/><line style="stroke: #A80036; stroke-width: 1.0; stroke-dasharray: 5.0,5.0;" x1="249" x2="249" y1="86.4883" y2="631.6348"/><line style="stroke: #A80036; stroke-width: 1.0; stroke-dasharray: 5.0,5.0;" x1="451" x2="451" y1="86.4883" y2="631.6348"/><line style="stroke: #A80036; stroke-width: 1.0; stroke-dasharray: 5.0,5.0;" x1="888.5" x2="888.5" y1="86.4883" y2="631.6348"/><line style="stroke: #A80036; stroke-width: 1.0; stroke-dasharray: 5.0,5.0;" x1="1219" x2="1219" y1="608.8906" y2="631.6348"/><text fill="#000000" font-family="sans-serif" font-size="14" lengthAdjust="spacingAndGlyphs" text-decoration="underline" textLength="31" x="231" y="83.5352">User</text><line style="stroke: #000000; stroke-width: 1.0;" x1="231" x2="262" y1="85.5352" y2="85.5352"/><ellipse cx="249.5" cy="13" fill="#FEFECE" filter="url(#f1q30p0cy2n5c3)" rx="8" ry="8" style="stroke: #A80036; stroke-width: 2.0;"/><path d="M249.5,21 L249.5,48 M236.5,29 L262.5,29 M249.5,48 L236.5,63 M249.5,48 L262.5,63 " fill="none" filter="url(#f1q30p0cy2n5c3)" style="stroke: #A80036; stroke-width: 2.0;"/><rect fill="#FEFECE" filter="url(#f1q30p0cy2n5c3)" height="30.4883" style="stroke: #A80036; stroke-width: 1.5;" width="89" x="405" y="51"/><text fill="#000000" font-family="sans-serif" font-size="14" lengthAdjust="spacingAndGlyphs" text-decoration="underline" textLength="75" x="412" y="71.5352">:LoginPage</text><line style="stroke: #000000; stroke-width: 1.0;" x1="412" x2="487" y1="73.5352" y2="73.5352"/><rect fill="#FEFECE" filter="url(#f1q30p0cy2n5c3)" height="30.4883" style="stroke: #A80036; stroke-width: 1.5;" width="128" x="822.5" y="51"/><text fill="#000000" font-family="sans-serif" font-size="14" lengthAdjust="spacingAndGlyphs" text-decoration="underline" textLength="114" x="829.5" y="71.5352">:UserInfoControl</text><line style="stroke: #000000; stroke-width: 1.0;" x1="829.5" x2="943.5" y1="73.5352" y2="73.5352"/><polygon fill="#A80036" points="439.5,113.4883,449.5,117.4883,439.5,121.4883,443.5,117.4883" style="stroke: #A80036; stroke-width: 1.0;"/><line style="stroke: #A80036; stroke-width: 1.0;" x1="3" x2="445.5" y1="117.4883" y2="117.4883"/><text fill="#000000" font-family="sans-serif" font-size="13" lengthAdjust="spacingAndGlyphs" textLength="78" x="10" y="113.0566">&lt;&lt;create&gt;&gt;</text><polygon fill="#A80036" points="439.5,142.7988,449.5,146.7988,439.5,150.7988,443.5,146.7988" style="stroke: #A80036; stroke-width: 1.0;"/><line style="stroke: #A80036; stroke-width: 1.0;" x1="249.5" x2="445.5" y1="146.7988" y2="146.7988"/><text fill="#000000" font-family="sans-serif" font-size="13" lengthAdjust="spacingAndGlyphs" textLength="178" x="256.5" y="142.3672">onLoginDataChanged(): void</text><polygon fill="#A80036" points="876.5,172.1094,886.5,176.1094,876.5,180.1094,880.5,176.1094" style="stroke: #A80036; stroke-width: 1.0;"/><line style="stroke: #A80036; stroke-width: 1.0;" x1="451.5" x2="882.5" y1="176.1094" y2="176.1094"/><text fill="#000000" font-family="sans-serif" font-size="13" lengthAdjust="spacingAndGlyphs" textLength="413" x="458.5" y="171.6777">login(username: String, password: String, remember: boolean): int</text><polygon fill="#A80036" points="1300,201.4199,1310,205.4199,1300,209.4199,1304,205.4199" style="stroke: #A80036; stroke-width: 1.0;"/><line style="stroke: #A80036; stroke-width: 1.0;" x1="888.5" x2="1306" y1="205.4199" y2="205.4199"/><text fill="#000000" font-family="sans-serif" font-size="13" lengthAdjust="spacingAndGlyphs" textLength="333" x="895.5" y="200.9883">LoginRequest(username: String, password: String):int</text><polygon fill="#A80036" points="899.5,230.7305,889.5,234.7305,899.5,238.7305,895.5,234.7305" style="stroke: #A80036; stroke-width: 1.0;"/><line style="stroke: #A80036; stroke-width: 1.0; stroke-dasharray: 2.0,2.0;" x1="893.5" x2="1311" y1="234.7305" y2="234.7305"/><text fill="#000000" font-family="sans-serif" font-size="13" lengthAdjust="spacingAndGlyphs" textLength="42" x="905.5" y="230.2988">UserID</text><path d="M12,250.041 L86,250.041 L86,257.041 L76,267.041 L12,267.041 L12,250.041 " fill="#EEEEEE" style="stroke: #000000; stroke-width: 1.0;"/><rect fill="none" height="173.8633" style="stroke: #000000; stroke-width: 2.0;" width="1230.5" x="12" y="250.041"/><text fill="#000000" font-family="sans-serif" font-size="13" font-weight="bold" lengthAdjust="spacingAndGlyphs" textLength="29" x="27" y="263.6094">loop</text><text fill="#000000" font-family="sans-serif" font-size="11" font-weight="bold" lengthAdjust="spacingAndGlyphs" textLength="71" x="101" y="262.6758">[UserID is 0]</text><polygon fill="#A80036" points="462.5,289.3516,452.5,293.3516,462.5,297.3516,458.5,293.3516" style="stroke: #A80036; stroke-width: 1.0;"/><line style="stroke: #A80036; stroke-width: 1.0; stroke-dasharray: 2.0,2.0;" x1="456.5" x2="887.5" y1="293.3516" y2="293.3516"/><text fill="#000000" font-family="sans-serif" font-size="13" lengthAdjust="spacingAndGlyphs" textLength="42" x="468.5" y="288.9199">UserID</text><path d="M22,272.3516 L22,297.3516 L442,297.3516 L442,282.3516 L432,272.3516 L22,272.3516 " fill="#FBFB77" filter="url(#f1q30p0cy2n5c3)" style="stroke: #A80036; stroke-width: 1.0;"/><path d="M432,272.3516 L432,282.3516 L442,282.3516 L432,272.3516 " fill="#FBFB77" style="stroke: #A80036; stroke-width: 1.0;"/><text fill="#000000" font-family="sans-serif" font-size="13" lengthAdjust="spacingAndGlyphs" textLength="399" x="28" y="289.9199">若UserID为-1则说明用户名不存在，若Response为0则说明密码错误</text><polygon fill="#A80036" points="439.5,323.6621,449.5,327.6621,439.5,331.6621,443.5,327.6621" style="stroke: #A80036; stroke-width: 1.0;"/><line style="stroke: #A80036; stroke-width: 1.0;" x1="249.5" x2="445.5" y1="327.6621" y2="327.6621"/><text fill="#000000" font-family="sans-serif" font-size="13" lengthAdjust="spacingAndGlyphs" textLength="178" x="256.5" y="323.2305">onLoginDataChanged(): void</text><polygon fill="#A80036" points="876.5,352.9727,886.5,356.9727,876.5,360.9727,880.5,356.9727" style="stroke: #A80036; stroke-width: 1.0;"/><line style="stroke: #A80036; stroke-width: 1.0;" x1="451.5" x2="882.5" y1="356.9727" y2="356.9727"/><text fill="#000000" font-family="sans-serif" font-size="13" lengthAdjust="spacingAndGlyphs" textLength="413" x="458.5" y="352.541">login(username: String, password: String, remember: boolean): int</text><polygon fill="#A80036" points="1300,382.2832,1310,386.2832,1300,390.2832,1304,386.2832" style="stroke: #A80036; stroke-width: 1.0;"/><line style="stroke: #A80036; stroke-width: 1.0;" x1="888.5" x2="1306" y1="386.2832" y2="386.2832"/><text fill="#000000" font-family="sans-serif" font-size="13" lengthAdjust="spacingAndGlyphs" textLength="333" x="895.5" y="381.8516">LoginRequest(username: String, password: String):int</text><polygon fill="#A80036" points="899.5,411.5938,889.5,415.5938,899.5,419.5938,895.5,415.5938" style="stroke: #A80036; stroke-width: 1.0;"/><line style="stroke: #A80036; stroke-width: 1.0; stroke-dasharray: 2.0,2.0;" x1="893.5" x2="1311" y1="415.5938" y2="415.5938"/><text fill="#000000" font-family="sans-serif" font-size="13" lengthAdjust="spacingAndGlyphs" textLength="42" x="905.5" y="411.1621">UserID</text><polygon fill="#A80036" points="462.5,447.9043,452.5,451.9043,462.5,455.9043,458.5,451.9043" style="stroke: #A80036; stroke-width: 1.0;"/><line style="stroke: #A80036; stroke-width: 1.0; stroke-dasharray: 2.0,2.0;" x1="456.5" x2="887.5" y1="451.9043" y2="451.9043"/><text fill="#000000" font-family="sans-serif" font-size="13" lengthAdjust="spacingAndGlyphs" textLength="8" x="468.5" y="447.4727">1</text><line style="stroke: #A80036; stroke-width: 1.0;" x1="888.5" x2="930.5" y1="481.5254" y2="481.5254"/><line style="stroke: #A80036; stroke-width: 1.0;" x1="930.5" x2="930.5" y1="481.5254" y2="494.5254"/><line style="stroke: #A80036; stroke-width: 1.0;" x1="889.5" x2="930.5" y1="494.5254" y2="494.5254"/><polygon fill="#A80036" points="899.5,490.5254,889.5,494.5254,899.5,498.5254,895.5,494.5254" style="stroke: #A80036; stroke-width: 1.0;"/><text fill="#000000" font-family="sans-serif" font-size="13" lengthAdjust="spacingAndGlyphs" textLength="317" x="895.5" y="476.7832">setCurrentUser(userID: int, username: String): void</text><path d="M812.5,509.5254 L874.5,509.5254 L874.5,516.5254 L864.5,526.5254 L812.5,526.5254 L812.5,509.5254 " fill="#EEEEEE" style="stroke: #000000; stroke-width: 1.0;"/><rect fill="none" height="59.6211" style="stroke: #000000; stroke-width: 2.0;" width="276" x="812.5" y="509.5254"/><text fill="#000000" font-family="sans-serif" font-size="13" font-weight="bold" lengthAdjust="spacingAndGlyphs" textLength="17" x="827.5" y="523.0938">alt</text><text fill="#000000" font-family="sans-serif" font-size="11" font-weight="bold" lengthAdjust="spacingAndGlyphs" textLength="135" x="889.5" y="522.1602">[remember me selected]</text><line style="stroke: #A80036; stroke-width: 1.0;" x1="888.5" x2="930.5" y1="548.1465" y2="548.1465"/><line style="stroke: #A80036; stroke-width: 1.0;" x1="930.5" x2="930.5" y1="548.1465" y2="561.1465"/><line style="stroke: #A80036; stroke-width: 1.0;" x1="889.5" x2="930.5" y1="561.1465" y2="561.1465"/><polygon fill="#A80036" points="899.5,557.1465,889.5,561.1465,899.5,565.1465,895.5,561.1465" style="stroke: #A80036; stroke-width: 1.0;"/><text fill="#000000" font-family="sans-serif" font-size="13" lengthAdjust="spacingAndGlyphs" textLength="181" x="895.5" y="543.4043">rememberCurrentUser(): void</text><polygon fill="#A80036" points="1120,593.1465,1130,597.1465,1120,601.1465,1124,597.1465" style="stroke: #A80036; stroke-width: 1.0;"/><line style="stroke: #A80036; stroke-width: 1.0;" x1="888.5" x2="1126" y1="597.1465" y2="597.1465"/><text fill="#000000" font-family="sans-serif" font-size="13" lengthAdjust="spacingAndGlyphs" textLength="78" x="895.5" y="592.7148">&lt;&lt;create&gt;&gt;</text><rect fill="#FEFECE" filter="url(#f1q30p0cy2n5c3)" height="30.4883" style="stroke: #A80036; stroke-width: 1.5;" width="171" x="1132" y="576.1465"/><text fill="#000000" font-family="sans-serif" font-size="14" lengthAdjust="spacingAndGlyphs" text-decoration="underline" textLength="157" x="1139" y="596.6816">:LocalVSSManagerPage</text><line style="stroke: #000000; stroke-width: 1.0;" x1="1139" x2="1296" y1="598.6816" y2="598.6816"/><!--
@startuml Diagrams/Login
hide footbox
skinparam sequenceParticipant underline

actor User as user
participant ":LoginPage" as boundary
participant ":UserInfoControl" as control
participant ":LocalVSSManagerPage" as nextpage


[-> boundary: <<create>>
user -> boundary: onLoginDataChanged(): void
boundary -> control: login(username: String, password: String, remember: boolean): int
control ->: LoginRequest(username: String, password: String):int
control <- -:UserID

loop UserID is 0
    control - -> boundary: UserID
    note left:若UserID为-1则说明用户名不存在，若Response为0则说明密码错误
    user -> boundary: onLoginDataChanged(): void
    boundary -> control: login(username: String, password: String, remember: boolean): int
    control ->: LoginRequest(username: String, password: String):int
    control <- -:UserID
end
control - -> boundary: 1
control -> control: setCurrentUser(userID: int, username: String): void

alt remember me selected
    control -> control: rememberCurrentUser(): void
end
create nextpage
control -> nextpage: <<create>>
@enduml

PlantUML version 1.2018.01(Mon Jan 29 02:08:22 CST 2018)
(GPL source distribution)
Java Runtime: Java(TM) SE Runtime Environment
JVM: Java HotSpot(TM) 64-Bit Server VM
Java Version: 9+181
Operating System: Mac OS X
OS Version: 10.12.6
Default Encoding: UTF-8
Language: zh
Country: CN
--></g></svg>