<?xml version="1.0" encoding="UTF-8" standalone="no"?><svg xmlns="http://www.w3.org/2000/svg" xmlns:xlink="http://www.w3.org/1999/xlink" contentScriptType="application/ecmascript" contentStyleType="text/css" height="1081px" preserveAspectRatio="none" style="width:1136px;height:1081px;" version="1.1" viewBox="0 0 1136 1081"
    width="1136px" zoomAndPan="magnify"><defs><filter height="300%" id="fen9bnr3kxniw" width="300%" x="-1" y="-1"><feGaussianBlur result="blurOut" stdDeviation="2.0"/><feColorMatrix in="blurOut" result="blurOut2" type="matrix" values="0 0 0 0 0 0 0 0 0 0 0 0 0 0 0 0 0 0 .4 0"/><feOffset dx="4.0" dy="4.0" in="blurOut2" result="blurOut3"/><feBlend in="SourceGraphic" in2="blurOut3" mode="normal"/></filter></defs><g><rect fill="#FEFECE" filter="url(#fen9bnr3kxniw)" height="30.4883" style="stroke: #A80036; stroke-width: 1.5;" width="152" x="552.5" y="184.4199"/><text fill="#000000" font-family="sans-serif" font-size="14" lengthAdjust="spacingAndGlyphs" text-decoration="underline" textLength="138" x="559.5" y="204.9551">:LocalVSSViewModel</text><line style="stroke: #000000; stroke-width: 1.0;" x1="559.5" x2="697.5" y1="206.9551" y2="206.9551"/><rect fill="#FFFFFF" filter="url(#fen9bnr3kxniw)" height="786.4746" style="stroke: #000000; stroke-width: 2.0;" width="1112.5" x="13" y="266.2188"/><rect fill="#FFFFFF" filter="url(#fen9bnr3kxniw)" height="755.1641" style="stroke: #000000; stroke-width: 2.0;" width="1092.5" x="23" y="290.5293"/><rect fill="#FFFFFF" height="85.2207" style="stroke: none; stroke-width: 1.0;" width="1092.5" x="23" y="378.1055"/><rect fill="#FFFFFF" height="85.2207" style="stroke: none; stroke-width: 1.0;" width="1092.5" x="23" y="463.3262"/><rect fill="#FFFFFF" height="85.2207" style="stroke: none; stroke-width: 1.0;" width="1092.5" x="23" y="548.5469"/><rect fill="#FFFFFF" height="181.5078" style="stroke: none; stroke-width: 1.0;" width="1092.5" x="23" y="633.7676"/><rect fill="#FFFFFF" filter="url(#fen9bnr3kxniw)" height="123.2422" style="stroke: #000000; stroke-width: 2.0;" width="1035.5" x="70" y="685.0332"/><rect fill="#FEFECE" filter="url(#fen9bnr3kxniw)" height="30.4883" style="stroke: #A80036; stroke-width: 1.5;" width="167" x="718.5" y="702.3438"/><text fill="#000000" font-family="sans-serif" font-size="14" lengthAdjust="spacingAndGlyphs" text-decoration="underline" textLength="153" x="725.5" y="722.8789">:PreviewLocalMapPage</text><line style="stroke: #000000; stroke-width: 1.0;" x1="725.5" x2="878.5" y1="724.8789" y2="724.8789"/><rect fill="#FFFFFF" height="60.4434" style="stroke: none; stroke-width: 1.0;" width="1035.5" x="70" y="747.832"/><rect fill="#FEFECE" filter="url(#fen9bnr3kxniw)" height="30.4883" style="stroke: #A80036; stroke-width: 1.5;" width="192" x="899.5" y="762.7871"/><text fill="#000000" font-family="sans-serif" font-size="14" lengthAdjust="spacingAndGlyphs" text-decoration="underline" textLength="178" x="906.5" y="783.3223">:PreviewLocalConcertPage</text><line style="stroke: #000000; stroke-width: 1.0;" x1="906.5" x2="1084.5" y1="785.3223" y2="785.3223"/><rect fill="#FFFFFF" height="174.5078" style="stroke: none; stroke-width: 1.0;" width="1092.5" x="23" y="815.2754"/><rect fill="#FFFFFF" height="55.9102" style="stroke: none; stroke-width: 1.0;" width="1092.5" x="23" y="989.7832"/><line style="stroke: #A80036; stroke-width: 1.0;" x1="51" x2="51" y1="86.4883" y2="337.1504"/><line style="stroke: #A80036; stroke-width: 1.0; stroke-dasharray: 1.0,4.0;" x1="51" x2="51" y1="337.1504" y2="378.1055"/><line style="stroke: #A80036; stroke-width: 1.0;" x1="51" x2="51" y1="378.1055" y2="422.3711"/><line style="stroke: #A80036; stroke-width: 1.0; stroke-dasharray: 1.0,4.0;" x1="51" x2="51" y1="422.3711" y2="463.3262"/><line style="stroke: #A80036; stroke-width: 1.0;" x1="51" x2="51" y1="463.3262" y2="507.5918"/><line style="stroke: #A80036; stroke-width: 1.0; stroke-dasharray: 1.0,4.0;" x1="51" x2="51" y1="507.5918" y2="548.5469"/><line style="stroke: #A80036; stroke-width: 1.0;" x1="51" x2="51" y1="548.5469" y2="592.8125"/><line style="stroke: #A80036; stroke-width: 1.0; stroke-dasharray: 1.0,4.0;" x1="51" x2="51" y1="592.8125" y2="633.7676"/><line style="stroke: #A80036; stroke-width: 1.0;" x1="51" x2="51" y1="633.7676" y2="1004.7383"/><line style="stroke: #A80036; stroke-width: 1.0; stroke-dasharray: 1.0,4.0;" x1="51" x2="51" y1="1004.7383" y2="1045.6934"/><line style="stroke: #A80036; stroke-width: 1.0;" x1="51" x2="51" y1="1045.6934" y2="1069.6934"/><line style="stroke: #A80036; stroke-width: 1.0;" x1="167" x2="167" y1="86.4883" y2="337.1504"/><line style="stroke: #A80036; stroke-width: 1.0; stroke-dasharray: 1.0,4.0;" x1="167" x2="167" y1="337.1504" y2="378.1055"/><line style="stroke: #A80036; stroke-width: 1.0;" x1="167" x2="167" y1="378.1055" y2="422.3711"/><line style="stroke: #A80036; stroke-width: 1.0; stroke-dasharray: 1.0,4.0;" x1="167" x2="167" y1="422.3711" y2="463.3262"/><line style="stroke: #A80036; stroke-width: 1.0;" x1="167" x2="167" y1="463.3262" y2="507.5918"/><line style="stroke: #A80036; stroke-width: 1.0; stroke-dasharray: 1.0,4.0;" x1="167" x2="167" y1="507.5918" y2="548.5469"/><line style="stroke: #A80036; stroke-width: 1.0;" x1="167" x2="167" y1="548.5469" y2="592.8125"/><line style="stroke: #A80036; stroke-width: 1.0; stroke-dasharray: 1.0,4.0;" x1="167" x2="167" y1="592.8125" y2="633.7676"/><line style="stroke: #A80036; stroke-width: 1.0;" x1="167" x2="167" y1="633.7676" y2="1004.7383"/><line style="stroke: #A80036; stroke-width: 1.0; stroke-dasharray: 1.0,4.0;" x1="167" x2="167" y1="1004.7383" y2="1045.6934"/><line style="stroke: #A80036; stroke-width: 1.0;" x1="167" x2="167" y1="1045.6934" y2="1069.6934"/><line style="stroke: #A80036; stroke-width: 1.0;" x1="448.5" x2="448.5" y1="86.4883" y2="337.1504"/><line style="stroke: #A80036; stroke-width: 1.0; stroke-dasharray: 1.0,4.0;" x1="448.5" x2="448.5" y1="337.1504" y2="378.1055"/><line style="stroke: #A80036; stroke-width: 1.0;" x1="448.5" x2="448.5" y1="378.1055" y2="422.3711"/><line style="stroke: #A80036; stroke-width: 1.0; stroke-dasharray: 1.0,4.0;" x1="448.5" x2="448.5" y1="422.3711" y2="463.3262"/><line style="stroke: #A80036; stroke-width: 1.0;" x1="448.5" x2="448.5" y1="463.3262" y2="507.5918"/><line style="stroke: #A80036; stroke-width: 1.0; stroke-dasharray: 1.0,4.0;" x1="448.5" x2="448.5" y1="507.5918" y2="548.5469"/><line style="stroke: #A80036; stroke-width: 1.0;" x1="448.5" x2="448.5" y1="548.5469" y2="592.8125"/><line style="stroke: #A80036; stroke-width: 1.0; stroke-dasharray: 1.0,4.0;" x1="448.5" x2="448.5" y1="592.8125" y2="633.7676"/><line style="stroke: #A80036; stroke-width: 1.0;" x1="448.5" x2="448.5" y1="633.7676" y2="1004.7383"/><line style="stroke: #A80036; stroke-width: 1.0; stroke-dasharray: 1.0,4.0;" x1="448.5" x2="448.5" y1="1004.7383" y2="1045.6934"/><line style="stroke: #A80036; stroke-width: 1.0;" x1="448.5" x2="448.5" y1="1045.6934" y2="1069.6934"/><line style="stroke: #A80036; stroke-width: 1.0;" x1="630.5" x2="630.5" y1="217.1641" y2="337.1504"/><line style="stroke: #A80036; stroke-width: 1.0; stroke-dasharray: 1.0,4.0;" x1="630.5" x2="630.5" y1="337.1504" y2="378.1055"/><line style="stroke: #A80036; stroke-width: 1.0;" x1="630.5" x2="630.5" y1="378.1055" y2="422.3711"/><line style="stroke: #A80036; stroke-width: 1.0; stroke-dasharray: 1.0,4.0;" x1="630.5" x2="630.5" y1="422.3711" y2="463.3262"/><line style="stroke: #A80036; stroke-width: 1.0;" x1="630.5" x2="630.5" y1="463.3262" y2="507.5918"/><line style="stroke: #A80036; stroke-width: 1.0; stroke-dasharray: 1.0,4.0;" x1="630.5" x2="630.5" y1="507.5918" y2="548.5469"/><line style="stroke: #A80036; stroke-width: 1.0;" x1="630.5" x2="630.5" y1="548.5469" y2="592.8125"/><line style="stroke: #A80036; stroke-width: 1.0; stroke-dasharray: 1.0,4.0;" x1="630.5" x2="630.5" y1="592.8125" y2="633.7676"/><line style="stroke: #A80036; stroke-width: 1.0;" x1="630.5" x2="630.5" y1="633.7676" y2="1004.7383"/><line style="stroke: #A80036; stroke-width: 1.0; stroke-dasharray: 1.0,4.0;" x1="630.5" x2="630.5" y1="1004.7383" y2="1045.6934"/><line style="stroke: #A80036; stroke-width: 1.0;" x1="630.5" x2="630.5" y1="1045.6934" y2="1069.6934"/><line style="stroke: #A80036; stroke-width: 1.0;" x1="803.5" x2="803.5" y1="735.0879" y2="1004.7383"/><line style="stroke: #A80036; stroke-width: 1.0; stroke-dasharray: 1.0,4.0;" x1="803.5" x2="803.5" y1="1004.7383" y2="1045.6934"/><line style="stroke: #A80036; stroke-width: 1.0;" x1="803.5" x2="803.5" y1="1045.6934" y2="1069.6934"/><line style="stroke: #A80036; stroke-width: 1.0;" x1="997.5" x2="997.5" y1="795.5313" y2="1004.7383"/><line style="stroke: #A80036; stroke-width: 1.0; stroke-dasharray: 1.0,4.0;" x1="997.5" x2="997.5" y1="1004.7383" y2="1045.6934"/><line style="stroke: #A80036; stroke-width: 1.0;" x1="997.5" x2="997.5" y1="1045.6934" y2="1069.6934"/><text fill="#000000" font-family="sans-serif" font-size="14" lengthAdjust="spacingAndGlyphs" text-decoration="underline" textLength="31" x="33" y="83.5352">User</text><line style="stroke: #000000; stroke-width: 1.0;" x1="33" x2="64" y1="85.5352" y2="85.5352"/><ellipse cx="51.5" cy="13" fill="#FEFECE" filter="url(#fen9bnr3kxniw)" rx="8" ry="8" style="stroke: #A80036; stroke-width: 2.0;"/><path d="M51.5,21 L51.5,48 M38.5,29 L64.5,29 M51.5,48 L38.5,63 M51.5,48 L64.5,63 " fill="none" filter="url(#fen9bnr3kxniw)" style="stroke: #A80036; stroke-width: 2.0;"/><rect fill="#FEFECE" filter="url(#fen9bnr3kxniw)" height="30.4883" style="stroke: #A80036; stroke-width: 1.5;" width="171" x="80" y="51"/><text fill="#000000" font-family="sans-serif" font-size="14" lengthAdjust="spacingAndGlyphs" text-decoration="underline" textLength="157" x="87" y="71.5352">:LocalVSSManagerPage</text><line style="stroke: #000000; stroke-width: 1.0;" x1="87" x2="244" y1="73.5352" y2="73.5352"/><rect fill="#FEFECE" filter="url(#fen9bnr3kxniw)" height="30.4883" style="stroke: #A80036; stroke-width: 1.5;" width="184" x="354.5" y="51"/><text fill="#000000" font-family="sans-serif" font-size="14" lengthAdjust="spacingAndGlyphs" text-decoration="underline" textLength="170" x="361.5" y="71.5352">:LocalSoundSpaceLibrary</text><line style="stroke: #000000; stroke-width: 1.0;" x1="361.5" x2="531.5" y1="73.5352" y2="73.5352"/><polygon fill="#A80036" points="155.5,113.4883,165.5,117.4883,155.5,121.4883,159.5,117.4883" style="stroke: #A80036; stroke-width: 1.0;"/><line style="stroke: #A80036; stroke-width: 1.0;" x1="3" x2="161.5" y1="117.4883" y2="117.4883"/><text fill="#000000" font-family="sans-serif" font-size="13" lengthAdjust="spacingAndGlyphs" textLength="78" x="10" y="113.0566">&lt;&lt;create&gt;&gt;</text><polygon fill="#A80036" points="436.5,142.7988,446.5,146.7988,436.5,150.7988,440.5,146.7988" style="stroke: #A80036; stroke-width: 1.0;"/><line style="stroke: #A80036; stroke-width: 1.0;" x1="167.5" x2="442.5" y1="146.7988" y2="146.7988"/><text fill="#000000" font-family="sans-serif" font-size="13" lengthAdjust="spacingAndGlyphs" textLength="177" x="174.5" y="142.3672">getVSSList(pageNo: int): List</text><polygon fill="#A80036" points="178.5,172.1094,168.5,176.1094,178.5,180.1094,174.5,176.1094" style="stroke: #A80036; stroke-width: 1.0;"/><line style="stroke: #A80036; stroke-width: 1.0; stroke-dasharray: 2.0,2.0;" x1="172.5" x2="447.5" y1="176.1094" y2="176.1094"/><text fill="#000000" font-family="sans-serif" font-size="13" lengthAdjust="spacingAndGlyphs" textLength="257" x="184.5" y="171.6777">listOfLocalVSS: List&lt;VirtualSoundSpace&gt;</text><polygon fill="#A80036" points="540.5,201.4199,550.5,205.4199,540.5,209.4199,544.5,205.4199" style="stroke: #A80036; stroke-width: 1.0;"/><line style="stroke: #A80036; stroke-width: 1.0;" x1="167.5" x2="546.5" y1="205.4199" y2="205.4199"/><text fill="#000000" font-family="sans-serif" font-size="13" lengthAdjust="spacingAndGlyphs" textLength="78" x="174.5" y="200.9883">&lt;&lt;create&gt;&gt;</text><rect fill="#FEFECE" filter="url(#fen9bnr3kxniw)" height="30.4883" style="stroke: #A80036; stroke-width: 1.5;" width="152" x="552.5" y="184.4199"/><text fill="#000000" font-family="sans-serif" font-size="14" lengthAdjust="spacingAndGlyphs" text-decoration="underline" textLength="138" x="559.5" y="204.9551">:LocalVSSViewModel</text><line style="stroke: #000000; stroke-width: 1.0;" x1="559.5" x2="697.5" y1="206.9551" y2="206.9551"/><polygon fill="#A80036" points="618.5,246.9082,628.5,250.9082,618.5,254.9082,622.5,250.9082" style="stroke: #A80036; stroke-width: 1.0;"/><line style="stroke: #A80036; stroke-width: 1.0;" x1="167.5" x2="624.5" y1="250.9082" y2="250.9082"/><text fill="#000000" font-family="sans-serif" font-size="13" lengthAdjust="spacingAndGlyphs" textLength="219" x="174.5" y="246.4766">displayVSSList(listOfLocalVSS):void</text><path d="M13,266.2188 L87,266.2188 L87,273.2188 L77,283.2188 L13,283.2188 L13,266.2188 " fill="#EEEEEE" style="stroke: #000000; stroke-width: 1.0;"/><rect fill="none" height="786.4746" style="stroke: #000000; stroke-width: 2.0;" width="1112.5" x="13" y="266.2188"/><text fill="#000000" font-family="sans-serif" font-size="13" font-weight="bold" lengthAdjust="spacingAndGlyphs" textLength="29" x="28" y="279.7871">loop</text><path d="M23,290.5293 L85,290.5293 L85,297.5293 L75,307.5293 L23,307.5293 L23,290.5293 " fill="#EEEEEE" style="stroke: #000000; stroke-width: 1.0;"/><rect fill="none" height="755.1641" style="stroke: #000000; stroke-width: 2.0;" width="1092.5" x="23" y="290.5293"/><text fill="#000000" font-family="sans-serif" font-size="13" font-weight="bold" lengthAdjust="spacingAndGlyphs" textLength="17" x="38" y="304.0977">alt</text><text fill="#000000" font-family="sans-serif" font-size="11" font-weight="bold" lengthAdjust="spacingAndGlyphs" textLength="63" x="100" y="303.1641">[CreateVSS]</text><polygon fill="#A80036" points="155.5,324.8398,165.5,328.8398,155.5,332.8398,159.5,328.8398" style="stroke: #A80036; stroke-width: 1.0;"/><line style="stroke: #A80036; stroke-width: 1.0;" x1="51.5" x2="161.5" y1="328.8398" y2="328.8398"/><text fill="#000000" font-family="sans-serif" font-size="13" lengthAdjust="spacingAndGlyphs" textLength="60" x="58.5" y="324.4082">createVSS</text><text fill="#000000" font-family="sans-serif" font-size="11" lengthAdjust="spacingAndGlyphs" textLength="109" x="470" y="361.7852">described in PlayVSS</text><line style="stroke: #000000; stroke-width: 1.0; stroke-dasharray: 2.0,2.0;" x1="23" x2="1115.5" y1="379.1055" y2="379.1055"/><text fill="#000000" font-family="sans-serif" font-size="11" font-weight="bold" lengthAdjust="spacingAndGlyphs" textLength="72" x="28" y="389.7402">[RenameVSS]</text><polygon fill="#A80036" points="618.5,410.0605,628.5,414.0605,618.5,418.0605,622.5,414.0605" style="stroke: #A80036; stroke-width: 1.0;"/><line style="stroke: #A80036; stroke-width: 1.0;" x1="51.5" x2="624.5" y1="414.0605" y2="414.0605"/><text fill="#000000" font-family="sans-serif" font-size="13" lengthAdjust="spacingAndGlyphs" textLength="192" x="58.5" y="409.6289">onRenameButtonClicked():void</text><text fill="#000000" font-family="sans-serif" font-size="11" lengthAdjust="spacingAndGlyphs" textLength="130" x="459.5" y="447.0059">described in RenameVSS</text><line style="stroke: #000000; stroke-width: 1.0; stroke-dasharray: 2.0,2.0;" x1="23" x2="1115.5" y1="464.3262" y2="464.3262"/><text fill="#000000" font-family="sans-serif" font-size="11" font-weight="bold" lengthAdjust="spacingAndGlyphs" textLength="63" x="28" y="474.9609">[DeleteVSS]</text><polygon fill="#A80036" points="618.5,495.2813,628.5,499.2813,618.5,503.2813,622.5,499.2813" style="stroke: #A80036; stroke-width: 1.0;"/><line style="stroke: #A80036; stroke-width: 1.0;" x1="51.5" x2="624.5" y1="499.2813" y2="499.2813"/><text fill="#000000" font-family="sans-serif" font-size="13" lengthAdjust="spacingAndGlyphs" textLength="183" x="58.5" y="494.8496">onDeleteButtonClicked():void</text><text fill="#000000" font-family="sans-serif" font-size="11" lengthAdjust="spacingAndGlyphs" textLength="121" x="464" y="532.2266">described in DeleteVSS</text><line style="stroke: #000000; stroke-width: 1.0; stroke-dasharray: 2.0,2.0;" x1="23" x2="1115.5" y1="549.5469" y2="549.5469"/><text fill="#000000" font-family="sans-serif" font-size="11" font-weight="bold" lengthAdjust="spacingAndGlyphs" textLength="67" x="28" y="560.1816">[UploadVSS]</text><polygon fill="#A80036" points="618.5,580.502,628.5,584.502,618.5,588.502,622.5,584.502" style="stroke: #A80036; stroke-width: 1.0;"/><line style="stroke: #A80036; stroke-width: 1.0;" x1="51.5" x2="624.5" y1="584.502" y2="584.502"/><text fill="#000000" font-family="sans-serif" font-size="13" lengthAdjust="spacingAndGlyphs" textLength="187" x="58.5" y="580.0703">onUploadButtonClicked():void</text><text fill="#000000" font-family="sans-serif" font-size="11" lengthAdjust="spacingAndGlyphs" textLength="126" x="461.5" y="617.4473">described in UploadVSS</text><line style="stroke: #000000; stroke-width: 1.0; stroke-dasharray: 2.0,2.0;" x1="23" x2="1115.5" y1="634.7676" y2="634.7676"/><text fill="#000000" font-family="sans-serif" font-size="11" font-weight="bold" lengthAdjust="spacingAndGlyphs" textLength="72" x="28" y="645.4023">[PreviewVSS]</text><polygon fill="#A80036" points="618.5,665.7227,628.5,669.7227,618.5,673.7227,622.5,669.7227" style="stroke: #A80036; stroke-width: 1.0;"/><line style="stroke: #A80036; stroke-width: 1.0;" x1="51.5" x2="624.5" y1="669.7227" y2="669.7227"/><text fill="#000000" font-family="sans-serif" font-size="13" lengthAdjust="spacingAndGlyphs" textLength="190" x="58.5" y="665.291">onPreviewButtonClicked():void</text><path d="M70,685.0332 L132,685.0332 L132,692.0332 L122,702.0332 L70,702.0332 L70,685.0332 " fill="#EEEEEE" style="stroke: #000000; stroke-width: 1.0;"/><rect fill="none" height="123.2422" style="stroke: #000000; stroke-width: 2.0;" width="1035.5" x="70" y="685.0332"/><text fill="#000000" font-family="sans-serif" font-size="13" font-weight="bold" lengthAdjust="spacingAndGlyphs" textLength="17" x="85" y="698.6016">alt</text><text fill="#000000" font-family="sans-serif" font-size="11" font-weight="bold" lengthAdjust="spacingAndGlyphs" textLength="63" x="147" y="697.668">[local map]</text><polygon fill="#A80036" points="706.5,719.3438,716.5,723.3438,706.5,727.3438,710.5,723.3438" style="stroke: #A80036; stroke-width: 1.0;"/><line style="stroke: #A80036; stroke-width: 1.0;" x1="167.5" x2="712.5" y1="723.3438" y2="723.3438"/><text fill="#000000" font-family="sans-serif" font-size="13" lengthAdjust="spacingAndGlyphs" textLength="78" x="174.5" y="718.9121">&lt;&lt;create&gt;&gt;</text><rect fill="#FEFECE" filter="url(#fen9bnr3kxniw)" height="30.4883" style="stroke: #A80036; stroke-width: 1.5;" width="167" x="718.5" y="702.3438"/><text fill="#000000" font-family="sans-serif" font-size="14" lengthAdjust="spacingAndGlyphs" text-decoration="underline" textLength="153" x="725.5" y="722.8789">:PreviewLocalMapPage</text><line style="stroke: #000000; stroke-width: 1.0;" x1="725.5" x2="878.5" y1="724.8789" y2="724.8789"/><line style="stroke: #000000; stroke-width: 1.0; stroke-dasharray: 2.0,2.0;" x1="70" x2="1105.5" y1="748.832" y2="748.832"/><text fill="#000000" font-family="sans-serif" font-size="11" font-weight="bold" lengthAdjust="spacingAndGlyphs" textLength="80" x="75" y="759.4668">[local concert]</text><polygon fill="#A80036" points="887.5,779.7871,897.5,783.7871,887.5,787.7871,891.5,783.7871" style="stroke: #A80036; stroke-width: 1.0;"/><line style="stroke: #A80036; stroke-width: 1.0;" x1="167.5" x2="893.5" y1="783.7871" y2="783.7871"/><text fill="#000000" font-family="sans-serif" font-size="13" lengthAdjust="spacingAndGlyphs" textLength="78" x="174.5" y="779.3555">&lt;&lt;create&gt;&gt;</text><rect fill="#FEFECE" filter="url(#fen9bnr3kxniw)" height="30.4883" style="stroke: #A80036; stroke-width: 1.5;" width="192" x="899.5" y="762.7871"/><text fill="#000000" font-family="sans-serif" font-size="14" lengthAdjust="spacingAndGlyphs" text-decoration="underline" textLength="178" x="906.5" y="783.3223">:PreviewLocalConcertPage</text><line style="stroke: #000000; stroke-width: 1.0;" x1="906.5" x2="1084.5" y1="785.3223" y2="785.3223"/><line style="stroke: #000000; stroke-width: 1.0; stroke-dasharray: 2.0,2.0;" x1="23" x2="1115.5" y1="816.2754" y2="816.2754"/><text fill="#000000" font-family="sans-serif" font-size="11" font-weight="bold" lengthAdjust="spacingAndGlyphs" textLength="59" x="28" y="826.9102">[prevPage]</text><polygon fill="#A80036" points="155.5,847.2305,165.5,851.2305,155.5,855.2305,159.5,851.2305" style="stroke: #A80036; stroke-width: 1.0;"/><line style="stroke: #A80036; stroke-width: 1.0;" x1="51.5" x2="161.5" y1="851.2305" y2="851.2305"/><text fill="#000000" font-family="sans-serif" font-size="13" lengthAdjust="spacingAndGlyphs" textLength="64" x="58.5" y="846.7988">prevPage()</text><line style="stroke: #A80036; stroke-width: 1.0;" x1="167.5" x2="209.5" y1="880.8516" y2="880.8516"/><line style="stroke: #A80036; stroke-width: 1.0;" x1="209.5" x2="209.5" y1="880.8516" y2="893.8516"/><line style="stroke: #A80036; stroke-width: 1.0;" x1="168.5" x2="209.5" y1="893.8516" y2="893.8516"/><polygon fill="#A80036" points="178.5,889.8516,168.5,893.8516,178.5,897.8516,174.5,893.8516" style="stroke: #A80036; stroke-width: 1.0;"/><text fill="#000000" font-family="sans-serif" font-size="13" lengthAdjust="spacingAndGlyphs" textLength="64" x="174.5" y="876.1094">prevPage()</text><polygon fill="#A80036" points="436.5,918.8516,446.5,922.8516,436.5,926.8516,440.5,922.8516" style="stroke: #A80036; stroke-width: 1.0;"/><line style="stroke: #A80036; stroke-width: 1.0;" x1="167.5" x2="442.5" y1="922.8516" y2="922.8516"/><text fill="#000000" font-family="sans-serif" font-size="13" lengthAdjust="spacingAndGlyphs" textLength="148" x="174.5" y="918.4199">getVSSList(nextPageNo)</text><polygon fill="#A80036" points="178.5,948.1621,168.5,952.1621,178.5,956.1621,174.5,952.1621" style="stroke: #A80036; stroke-width: 1.0;"/><line style="stroke: #A80036; stroke-width: 1.0; stroke-dasharray: 2.0,2.0;" x1="172.5" x2="447.5" y1="952.1621" y2="952.1621"/><text fill="#000000" font-family="sans-serif" font-size="13" lengthAdjust="spacingAndGlyphs" textLength="257" x="184.5" y="947.7305">listOfLocalVSS: List&lt;VirtualSoundSpace&gt;</text><polygon fill="#A80036" points="618.5,977.4727,628.5,981.4727,618.5,985.4727,622.5,981.4727" style="stroke: #A80036; stroke-width: 1.0;"/><line style="stroke: #A80036; stroke-width: 1.0;" x1="167.5" x2="624.5" y1="981.4727" y2="981.4727"/><text fill="#000000" font-family="sans-serif" font-size="13" lengthAdjust="spacingAndGlyphs" textLength="219" x="174.5" y="977.041">displayVSSList(listOfLocalVSS):void</text><line style="stroke: #000000; stroke-width: 1.0; stroke-dasharray: 2.0,2.0;" x1="23" x2="1115.5" y1="990.7832" y2="990.7832"/><text fill="#000000" font-family="sans-serif" font-size="11" font-weight="bold" lengthAdjust="spacingAndGlyphs" textLength="57" x="28" y="1001.418">[nextPage]</text><text fill="#000000" font-family="sans-serif" font-size="11" lengthAdjust="spacingAndGlyphs" textLength="83" x="483" y="1029.373">similar, omitted</text><!--
@startuml Diagrams/ManageLocalVSSLibrary
hide footbox
skinparam sequenceParticipant underline

actor User as user
participant ":LocalVSSManagerPage" as boundary
participant ":LocalSoundSpaceLibrary" as library

create boundary
[-> boundary: <<create>>
boundary -> library: getVSSList(pageNo: int): List
library - -> boundary: listOfLocalVSS: List<VirtualSoundSpace>
participant ":LocalVSSViewModel" as lvvw
create lvvw
boundary -> lvvw: <<create>>
boundary -> lvvw: displayVSSList(listOfLocalVSS):void

loop
    alt CreateVSS
        user -> boundary: createVSS
        ...described in PlayVSS...
    else RenameVSS
        user -> lvvw: onRenameButtonClicked():void
        ...described in RenameVSS...
    else DeleteVSS
        user -> lvvw: onDeleteButtonClicked():void
        ...described in DeleteVSS...
    else UploadVSS
        user -> lvvw: onUploadButtonClicked():void
        ...described in UploadVSS...
    else PreviewVSS
        user -> lvvw: onPreviewButtonClicked():void
        alt local map
            participant ":PreviewLocalMapPage" as plmp
            create plmp
            boundary -> plmp: <<create>>

        else local concert
            participant ":PreviewLocalConcertPage" as plcp
            create plcp
            boundary -> plcp: <<create>>
        end
    else prevPage
        user -> boundary: prevPage()
        boundary -> boundary: prevPage()
        boundary -> library: getVSSList(nextPageNo)
        library - -> boundary: listOfLocalVSS: List<VirtualSoundSpace>
        boundary -> lvvw: displayVSSList(listOfLocalVSS):void
    else nextPage
    ...similar, omitted...
    end
end
@enduml

PlantUML version 1.2018.01(Mon Jan 29 02:08:22 CST 2018)
(GPL source distribution)
Java Runtime: Java(TM) SE Runtime Environment
JVM: Java HotSpot(TM) 64-Bit Server VM
Java Version: 9+181
Operating System: Mac OS X
OS Version: 10.12.6
Default Encoding: UTF-8
Language: zh
Country: CN
--></g></svg>