<?xml version="1.0" encoding="UTF-8" standalone="no"?><svg xmlns="http://www.w3.org/2000/svg" xmlns:xlink="http://www.w3.org/1999/xlink" contentScriptType="application/ecmascript" contentStyleType="text/css" height="264px" preserveAspectRatio="none" style="width:317px;height:264px;" version="1.1" viewBox="0 0 317 264"
    width="317px" zoomAndPan="magnify"><defs><filter height="300%" id="fdaoftv24bln3" width="300%" x="-1" y="-1"><feGaussianBlur result="blurOut" stdDeviation="2.0"/><feColorMatrix in="blurOut" result="blurOut2" type="matrix" values="0 0 0 0 0 0 0 0 0 0 0 0 0 0 0 0 0 0 .4 0"/><feOffset dx="4.0" dy="4.0" in="blurOut2" result="blurOut3"/><feBlend in="SourceGraphic" in2="blurOut3" mode="normal"/></filter></defs><g><!--cluster OnlineVSSSubsystem--><rect fill="#FFFFFF" filter="url(#fdaoftv24bln3)" height="161" style="stroke: #000000; stroke-width: 1.5;" width="292" x="14" y="16"/><rect fill="#FFFFFF" height="10" style="stroke: #000000; stroke-width: 1.5;" width="15" x="286" y="21"/><rect fill="#FFFFFF" height="2" style="stroke: #000000; stroke-width: 1.5;" width="4" x="284" y="23"/><rect fill="#FFFFFF" height="2" style="stroke: #000000; stroke-width: 1.5;" width="4" x="284" y="27"/><text fill="#000000" font-family="sans-serif" font-size="14" font-weight="bold" lengthAdjust="spacingAndGlyphs" textLength="152" x="84" y="42.5352">OnlineVSSSubsystem</text><!--class OnlineSoundSpaceLibrary--><rect fill="#FEFECE" filter="url(#fdaoftv24bln3)" height="125.7305" id="OnlineSoundSpaceLibrary" style="stroke: #A80036; stroke-width: 1.5;" width="275" x="22.5" y="43"/><ellipse cx="83.25" cy="59" fill="#ADD1B2" rx="11" ry="11" style="stroke: #A80036; stroke-width: 1.0;"/><path d="M86.2231,64.6431 Q85.6421,64.9419 85.0029,65.0913 Q84.3638,65.2407 83.6582,65.2407 Q81.1514,65.2407 79.8315,63.5889 Q78.5117,61.937 78.5117,58.8159 Q78.5117,55.6865 79.8315,54.0347 Q81.1514,52.3828 83.6582,52.3828 Q84.3638,52.3828 85.0112,52.5322 Q85.6587,52.6816 86.2231,52.9805 L86.2231,55.7031 Q85.5923,55.1221 84.9988,54.8523 Q84.4053,54.5825 83.7744,54.5825 Q82.4297,54.5825 81.7449,55.6492 Q81.0601,56.7158 81.0601,58.8159 Q81.0601,60.9077 81.7449,61.9744 Q82.4297,63.041 83.7744,63.041 Q84.4053,63.041 84.9988,62.7712 Q85.5923,62.5015 86.2231,61.9204 Z "/><text fill="#000000" font-family="sans-serif" font-size="12" lengthAdjust="spacingAndGlyphs" textLength="145" x="103.75" y="63.5352">OnlineSoundSpaceLibrary</text><line style="stroke: #A80036; stroke-width: 1.5;" x1="23.5" x2="296.5" y1="75" y2="75"/><rect fill="none" height="6" style="stroke: #C82930; stroke-width: 1.0;" width="6" x="30.5" y="100.9326"/><text fill="#000000" font-family="sans-serif" font-size="11" lengthAdjust="spacingAndGlyphs" textLength="243" x="42.5" y="106.5898">nowPreviewVSSList: List&lt;VirtualSoundSpace&gt;</text><line style="stroke: #A80036; stroke-width: 1.0; stroke-dasharray: 1.0,2.0;" x1="23.5" x2="141.5" y1="89.4775" y2="89.4775"/><text fill="#000000" font-family="sans-serif" font-size="11" lengthAdjust="spacingAndGlyphs" textLength="37" x="141.5" y="93.1348">private</text><line style="stroke: #A80036; stroke-width: 1.0; stroke-dasharray: 1.0,2.0;" x1="178.5" x2="296.5" y1="89.4775" y2="89.4775"/><ellipse cx="33.5" cy="133.8428" fill="#84BE84" rx="3" ry="3" style="stroke: #038048; stroke-width: 1.0;"/><text fill="#000000" font-family="sans-serif" font-size="11" lengthAdjust="spacingAndGlyphs" textLength="249" x="42.5" y="136.5">getPreview(int num): List&lt;VirtualSoundSpace&gt;</text><ellipse cx="33.5" cy="146.7979" fill="#84BE84" rx="3" ry="3" style="stroke: #038048; stroke-width: 1.0;"/><text fill="#000000" font-family="sans-serif" font-size="11" lengthAdjust="spacingAndGlyphs" textLength="224" x="42.5" y="149.4551">commentVSS(VirtualSoundSpace vss):void</text><ellipse cx="33.5" cy="159.7529" fill="#84BE84" rx="3" ry="3" style="stroke: #038048; stroke-width: 1.0;"/><text fill="#000000" font-family="sans-serif" font-size="11" lengthAdjust="spacingAndGlyphs" textLength="192" x="42.5" y="162.4102">likeVSS(VirtualSoundSpace vss):void</text><line style="stroke: #A80036; stroke-width: 1.0; stroke-dasharray: 1.0,2.0;" x1="23.5" x2="143.5" y1="119.3877" y2="119.3877"/><text fill="#000000" font-family="sans-serif" font-size="11" lengthAdjust="spacingAndGlyphs" textLength="33" x="143.5" y="123.0449">public</text><line style="stroke: #A80036; stroke-width: 1.0; stroke-dasharray: 1.0,2.0;" x1="176.5" x2="296.5" y1="119.3877" y2="119.3877"/><ellipse cx="160" cy="234" fill="#FEFECE" filter="url(#fdaoftv24bln3)" rx="5" ry="5" style="stroke: #A80036; stroke-width: 1.5;"/><text fill="#000000" font-family="sans-serif" font-size="12" lengthAdjust="spacingAndGlyphs" textLength="95" x="112.5" y="250.6016">OnlineVSSAccess</text><!--link OnlineSoundSpaceLibrary to OnlineSoundSpaceLibrarylol118--><path d="M160,169.25 C160,193.688 160,218.2718 160,228.7461 " fill="none" id="OnlineSoundSpaceLibrary-OnlineSoundSpaceLibrarylol118" style="stroke: #A80036; stroke-width: 1.0;"/><!--
@startuml Diagrams/OnlineVSSSubsystemClassDiagram
component OnlineVSSSubsystem {
    class OnlineSoundSpaceLibrary {
    ..private..
    - nowPreviewVSSList: List<VirtualSoundSpace>
    ..public..
    + getPreview(int num): List<VirtualSoundSpace>
    + commentVSS(VirtualSoundSpace vss):void
    + likeVSS(VirtualSoundSpace vss):void
    }
}

OnlineSoundSpaceLibrary - -() OnlineVSSAccess
@enduml

PlantUML version 1.2018.01(Mon Jan 29 02:08:22 CST 2018)
(GPL source distribution)
Java Runtime: Java(TM) SE Runtime Environment
JVM: Java HotSpot(TM) 64-Bit Server VM
Java Version: 9+181
Operating System: Mac OS X
OS Version: 10.12.6
Default Encoding: UTF-8
Language: zh
Country: CN
--></g></svg>