<?xml version="1.0" encoding="UTF-8" standalone="no"?><svg xmlns="http://www.w3.org/2000/svg" xmlns:xlink="http://www.w3.org/1999/xlink" contentScriptType="application/ecmascript" contentStyleType="text/css" height="207px" preserveAspectRatio="none" style="width:206px;height:207px;" version="1.1" viewBox="0 0 206 207" width="206px" zoomAndPan="magnify"><defs/><g><text fill="#000000" font-family="sans-serif" font-size="12" lengthAdjust="spacingAndGlyphs" textLength="192" x="6" y="17.6016">Preview Online Concert Mode VSS</text><line style="stroke: #AAAAAA; stroke-width: 1.0;" x1="6" x2="199" y1="24.6328" y2="24.6328"/><line style="stroke: #AAAAAA; stroke-width: 1.0;" x1="6" x2="199" y1="26.6328" y2="26.6328"/><text fill="#000000" font-family="sans-serif" font-size="12" lengthAdjust="spacingAndGlyphs" textLength="97" x="7" y="42.7344">SoundSource1.ss</text><line style="stroke: #000000; stroke-width: 1.0;" x1="6" x2="105" y1="30.1328" y2="30.1328"/><line style="stroke: #000000; stroke-width: 1.0;" x1="6" x2="105" y1="46.2656" y2="46.2656"/><line style="stroke: #000000; stroke-width: 1.0;" x1="6" x2="6" y1="30.1328" y2="46.2656"/><line style="stroke: #000000; stroke-width: 1.0;" x1="105" x2="105" y1="30.1328" y2="46.2656"/><text fill="#000000" font-family="sans-serif" font-size="12" lengthAdjust="spacingAndGlyphs" textLength="97" x="7" y="60.8672">SoundSource2.ss</text><line style="stroke: #000000; stroke-width: 1.0;" x1="6" x2="105" y1="48.2656" y2="48.2656"/><line style="stroke: #000000; stroke-width: 1.0;" x1="6" x2="105" y1="64.3984" y2="64.3984"/><line style="stroke: #000000; stroke-width: 1.0;" x1="6" x2="6" y1="48.2656" y2="64.3984"/><line style="stroke: #000000; stroke-width: 1.0;" x1="105" x2="105" y1="48.2656" y2="64.3984"/><text fill="#000000" font-family="sans-serif" font-size="12" lengthAdjust="spacingAndGlyphs" textLength="54" x="7" y="79">VSSName</text><text fill="#000000" font-family="sans-serif" font-size="12" lengthAdjust="spacingAndGlyphs" textLength="32" x="97" y="79">name</text><line style="stroke: #000000; stroke-width: 1.0;" x1="95" x2="130" y1="81.5313" y2="81.5313"/><line style="stroke: #000000; stroke-width: 1.0;" x1="95" x2="95" y1="78.5313" y2="80.5313"/><line style="stroke: #000000; stroke-width: 1.0;" x1="130" x2="130" y1="78.5313" y2="80.5313"/><text fill="#000000" font-family="sans-serif" font-size="12" lengthAdjust="spacingAndGlyphs" textLength="85" x="7" y="97.1328">VSSDescription</text><text fill="#000000" font-family="sans-serif" font-size="12" lengthAdjust="spacingAndGlyphs" textLength="64" x="97" y="97.1328">description</text><line style="stroke: #000000; stroke-width: 1.0;" x1="95" x2="186" y1="99.6641" y2="99.6641"/><line style="stroke: #000000; stroke-width: 1.0;" x1="95" x2="95" y1="96.6641" y2="98.6641"/><line style="stroke: #000000; stroke-width: 1.0;" x1="186" x2="186" y1="96.6641" y2="98.6641"/><line style="stroke: #000000; stroke-width: 1.0;" x1="6" x2="93" y1="66.3984" y2="66.3984"/><line style="stroke: #000000; stroke-width: 1.0;" x1="93" x2="189" y1="66.3984" y2="66.3984"/><line style="stroke: #000000; stroke-width: 1.0;" x1="6" x2="93" y1="102.6641" y2="102.6641"/><line style="stroke: #000000; stroke-width: 1.0;" x1="93" x2="189" y1="102.6641" y2="102.6641"/><line style="stroke: #000000; stroke-width: 1.0;" x1="6" x2="6" y1="66.3984" y2="84.5313"/><line style="stroke: #000000; stroke-width: 1.0;" x1="189" x2="189" y1="84.5313" y2="102.6641"/><line style="stroke: #000000; stroke-width: 1.0;" x1="189" x2="189" y1="66.3984" y2="84.5313"/><line style="stroke: #000000; stroke-width: 1.0;" x1="6" x2="6" y1="84.5313" y2="102.6641"/><rect fill="#EEEEEE" height="18.1328" rx="5" ry="5" style="stroke: #000000; stroke-width: 2.5;" width="68" x="73.5" y="108.1641"/><text fill="#000000" font-family="sans-serif" font-size="12" lengthAdjust="spacingAndGlyphs" textLength="57" x="79" y="121.7656">Download</text><text fill="#000000" font-family="sans-serif" font-size="12" lengthAdjust="spacingAndGlyphs" textLength="53" x="10" y="142.3984">comment</text><line style="stroke: #000000; stroke-width: 1.0;" x1="8" x2="67" y1="144.9297" y2="144.9297"/><line style="stroke: #000000; stroke-width: 1.0;" x1="8" x2="8" y1="141.9297" y2="143.9297"/><line style="stroke: #000000; stroke-width: 1.0;" x1="67" x2="67" y1="141.9297" y2="143.9297"/><rect fill="#EEEEEE" height="18.1328" rx="5" ry="5" style="stroke: #000000; stroke-width: 2.5;" width="60" x="73.5" y="133.2969"/><text fill="#000000" font-family="sans-serif" font-size="12" lengthAdjust="spacingAndGlyphs" textLength="55" x="76" y="146.8984">Comment</text><rect fill="#EEEEEE" height="18.1328" rx="5" ry="5" style="stroke: #000000; stroke-width: 2.5;" width="36" x="73.5" y="158.4297"/><text fill="#000000" font-family="sans-serif" font-size="12" lengthAdjust="spacingAndGlyphs" textLength="23" x="80" y="172.0313">Like</text><rect fill="#EEEEEE" height="18.1328" rx="5" ry="5" style="stroke: #000000; stroke-width: 2.5;" width="36" x="73.5" y="183.5625"/><text fill="#000000" font-family="sans-serif" font-size="12" lengthAdjust="spacingAndGlyphs" textLength="21" x="81" y="197.1641">Exit</text></g></svg>