<?xml version="1.0" encoding="UTF-8" standalone="no"?><svg xmlns="http://www.w3.org/2000/svg" xmlns:xlink="http://www.w3.org/1999/xlink" contentScriptType="application/ecmascript" contentStyleType="text/css" height="487px" preserveAspectRatio="none" style="width:1065px;height:487px;" version="1.1" viewBox="0 0 1065 487"
    width="1065px" zoomAndPan="magnify"><defs><filter height="300%" id="fm8ayfwst1a3v" width="300%" x="-1" y="-1"><feGaussianBlur result="blurOut" stdDeviation="2.0"/><feColorMatrix in="blurOut" result="blurOut2" type="matrix" values="0 0 0 0 0 0 0 0 0 0 0 0 0 0 0 0 0 0 .4 0"/><feOffset dx="4.0" dy="4.0" in="blurOut2" result="blurOut3"/><feBlend in="SourceGraphic" in2="blurOut3" mode="normal"/></filter></defs><g><text fill="#000000" font-family="sans-serif" font-size="14" font-weight="bold" lengthAdjust="spacingAndGlyphs" textLength="130" x="468" y="23.5352">PreviewOnlineVSS</text><rect fill="#FEFECE" filter="url(#fm8ayfwst1a3v)" height="30.4883" style="stroke: #A80036; stroke-width: 1.5;" width="142" x="596" y="156.2871"/><text fill="#000000" font-family="sans-serif" font-size="14" lengthAdjust="spacingAndGlyphs" text-decoration="underline" textLength="128" x="603" y="176.8223">:WebServerControl</text><line style="stroke: #000000; stroke-width: 1.0;" x1="603" x2="731" y1="178.8223" y2="178.8223"/><line style="stroke: #A80036; stroke-width: 1.0; stroke-dasharray: 5.0,5.0;" x1="101" x2="101" y1="116.9766" y2="475.5703"/><line style="stroke: #A80036; stroke-width: 1.0; stroke-dasharray: 5.0,5.0;" x1="383" x2="383" y1="116.9766" y2="475.5703"/><line style="stroke: #A80036; stroke-width: 1.0; stroke-dasharray: 5.0,5.0;" x1="669" x2="669" y1="189.0313" y2="475.5703"/><line style="stroke: #A80036; stroke-width: 1.0; stroke-dasharray: 5.0,5.0;" x1="993" x2="993" y1="116.9766" y2="475.5703"/><text fill="#000000" font-family="sans-serif" font-size="14" lengthAdjust="spacingAndGlyphs" text-decoration="underline" textLength="180" x="8" y="114.0234">:OnlineSoundSpaceLibrary</text><line style="stroke: #000000; stroke-width: 1.0;" x1="8" x2="188" y1="116.0234" y2="116.0234"/><ellipse cx="101" cy="43.4883" fill="#FEFECE" filter="url(#fm8ayfwst1a3v)" rx="8" ry="8" style="stroke: #A80036; stroke-width: 2.0;"/><path d="M101,51.4883 L101,78.4883 M88,59.4883 L114,59.4883 M101,78.4883 L88,93.4883 M101,78.4883 L114,93.4883 " fill="none" filter="url(#fm8ayfwst1a3v)" style="stroke: #A80036; stroke-width: 2.0;"/><rect fill="#FEFECE" filter="url(#fm8ayfwst1a3v)" height="30.4883" style="stroke: #A80036; stroke-width: 1.5;" width="120" x="321" y="81.4883"/><text fill="#000000" font-family="sans-serif" font-size="14" lengthAdjust="spacingAndGlyphs" text-decoration="underline" textLength="106" x="328" y="102.0234">:Communicator</text><line style="stroke: #000000; stroke-width: 1.0;" x1="328" x2="434" y1="104.0234" y2="104.0234"/><rect fill="#FEFECE" filter="url(#fm8ayfwst1a3v)" height="30.4883" style="stroke: #A80036; stroke-width: 1.5;" width="126" x="928" y="81.4883"/><text fill="#000000" font-family="sans-serif" font-size="14" lengthAdjust="spacingAndGlyphs" text-decoration="underline" textLength="112" x="935" y="102.0234">:DatabaseHelper</text><line style="stroke: #000000; stroke-width: 1.0;" x1="935" x2="1047" y1="104.0234" y2="104.0234"/><polygon fill="#A80036" points="371,143.9766,381,147.9766,371,151.9766,375,147.9766" style="stroke: #A80036; stroke-width: 1.0;"/><line style="stroke: #A80036; stroke-width: 1.0;" x1="101" x2="377" y1="147.9766" y2="147.9766"/><text fill="#000000" font-family="sans-serif" font-size="13" lengthAdjust="spacingAndGlyphs" textLength="258" x="108" y="143.5449">PreviewRequest(userid:int, vssid:int)JSON</text><polygon fill="#A80036" points="584,173.2871,594,177.2871,584,181.2871,588,177.2871" style="stroke: #A80036; stroke-width: 1.0;"/><line style="stroke: #A80036; stroke-width: 1.0;" x1="383" x2="590" y1="177.2871" y2="177.2871"/><text fill="#000000" font-family="sans-serif" font-size="13" lengthAdjust="spacingAndGlyphs" textLength="78" x="390" y="172.8555">&lt;&lt;create&gt;&gt;</text><rect fill="#FEFECE" filter="url(#fm8ayfwst1a3v)" height="30.4883" style="stroke: #A80036; stroke-width: 1.5;" width="142" x="596" y="156.2871"/><text fill="#000000" font-family="sans-serif" font-size="14" lengthAdjust="spacingAndGlyphs" text-decoration="underline" textLength="128" x="603" y="176.8223">:WebServerControl</text><line style="stroke: #000000; stroke-width: 1.0;" x1="603" x2="731" y1="178.8223" y2="178.8223"/><polygon fill="#A80036" points="657,218.7754,667,222.7754,657,226.7754,661,222.7754" style="stroke: #A80036; stroke-width: 1.0;"/><line style="stroke: #A80036; stroke-width: 1.0;" x1="383" x2="663" y1="222.7754" y2="222.7754"/><text fill="#000000" font-family="sans-serif" font-size="13" lengthAdjust="spacingAndGlyphs" textLength="262" x="390" y="218.3438">PreviewRequest(userid:int, vssid:int):JSON</text><polygon fill="#A80036" points="981,248.0859,991,252.0859,981,256.0859,985,252.0859" style="stroke: #A80036; stroke-width: 1.0;"/><line style="stroke: #A80036; stroke-width: 1.0;" x1="669" x2="987" y1="252.0859" y2="252.0859"/><text fill="#000000" font-family="sans-serif" font-size="13" lengthAdjust="spacingAndGlyphs" textLength="261" x="676" y="247.6543">GetLikeList(userid:int, vssid:int):list&lt;int&gt;</text><polygon fill="#A80036" points="680,277.3965,670,281.3965,680,285.3965,676,281.3965" style="stroke: #A80036; stroke-width: 1.0;"/><line style="stroke: #A80036; stroke-width: 1.0; stroke-dasharray: 2.0,2.0;" x1="674" x2="992" y1="281.3965" y2="281.3965"/><text fill="#000000" font-family="sans-serif" font-size="13" lengthAdjust="spacingAndGlyphs" textLength="91" x="686" y="276.9648">LikeUserIDList</text><polygon fill="#A80036" points="680,306.707,670,310.707,680,314.707,676,310.707" style="stroke: #A80036; stroke-width: 1.0;"/><line style="stroke: #A80036; stroke-width: 1.0;" x1="674" x2="992" y1="310.707" y2="310.707"/><text fill="#000000" font-family="sans-serif" font-size="13" lengthAdjust="spacingAndGlyphs" textLength="113" x="686" y="306.2754">LikeUserNameList</text><polygon fill="#A80036" points="981,336.0176,991,340.0176,981,344.0176,985,340.0176" style="stroke: #A80036; stroke-width: 1.0;"/><line style="stroke: #A80036; stroke-width: 1.0;" x1="669" x2="987" y1="340.0176" y2="340.0176"/><text fill="#000000" font-family="sans-serif" font-size="13" lengthAdjust="spacingAndGlyphs" textLength="300" x="676" y="335.5859">GetCommentList(userid:int, vssid: int):list&lt;int&gt;</text><polygon fill="#A80036" points="680,365.3281,670,369.3281,680,373.3281,676,369.3281" style="stroke: #A80036; stroke-width: 1.0;"/><line style="stroke: #A80036; stroke-width: 1.0; stroke-dasharray: 2.0,2.0;" x1="674" x2="992" y1="369.3281" y2="369.3281"/><text fill="#000000" font-family="sans-serif" font-size="13" lengthAdjust="spacingAndGlyphs" textLength="126" x="686" y="364.8965">CommentUserIDList</text><polygon fill="#A80036" points="680,394.6387,670,398.6387,680,402.6387,676,398.6387" style="stroke: #A80036; stroke-width: 1.0;"/><line style="stroke: #A80036; stroke-width: 1.0; stroke-dasharray: 2.0,2.0;" x1="674" x2="992" y1="398.6387" y2="398.6387"/><text fill="#000000" font-family="sans-serif" font-size="13" lengthAdjust="spacingAndGlyphs" textLength="148" x="686" y="394.207">CommentUserNameList</text><polygon fill="#A80036" points="394,423.9492,384,427.9492,394,431.9492,390,427.9492" style="stroke: #A80036; stroke-width: 1.0;"/><line style="stroke: #A80036; stroke-width: 1.0; stroke-dasharray: 2.0,2.0;" x1="388" x2="668" y1="427.9492" y2="427.9492"/><text fill="#000000" font-family="sans-serif" font-size="13" lengthAdjust="spacingAndGlyphs" textLength="47" x="400" y="423.5176">VSSInfo</text><line style="stroke: #A80036; stroke-width: 2.0;" x1="660" x2="678" y1="418.9492" y2="436.9492"/><line style="stroke: #A80036; stroke-width: 2.0;" x1="660" x2="678" y1="436.9492" y2="418.9492"/><polygon fill="#A80036" points="112,453.2598,102,457.2598,112,461.2598,108,457.2598" style="stroke: #A80036; stroke-width: 1.0;"/><line style="stroke: #A80036; stroke-width: 1.0; stroke-dasharray: 2.0,2.0;" x1="106" x2="382" y1="457.2598" y2="457.2598"/><text fill="#000000" font-family="sans-serif" font-size="13" lengthAdjust="spacingAndGlyphs" textLength="47" x="118" y="452.8281">VSSInfo</text><!--
@startuml Diagrams/PreviewVSSServerSequenceDiagram
title PreviewOnlineVSS
hide footbox
skinparam sequenceParticipant underline
actor ":OnlineSoundSpaceLibrary" as Client
participant ":Communicator" as Communicator
participant ":WebServerControl" as WebServer
participant ":DatabaseHelper" as vd

Client->Communicator:PreviewRequest(userid:int, vssid:int)JSON
create WebServer
Communicator->WebServer:<<create>>
Communicator->WebServer:PreviewRequest(userid:int, vssid:int):JSON
WebServer->vd:GetLikeList(userid:int, vssid:int):list<int>
vd- ->WebServer:LikeUserIDList
vd->WebServer:LikeUserNameList
WebServer->vd:GetCommentList(userid:int, vssid: int):list<int>
vd- ->WebServer:CommentUserIDList
vd- ->WebServer:CommentUserNameList
WebServer- ->Communicator:VSSInfo
destroy WebServer
Communicator- ->Client:VSSInfo
@enduml

PlantUML version 1.2018.01(Mon Jan 29 02:08:22 CST 2018)
(GPL source distribution)
Java Runtime: Java(TM) SE Runtime Environment
JVM: Java HotSpot(TM) 64-Bit Server VM
Java Version: 9+181
Operating System: Mac OS X
OS Version: 10.12.6
Default Encoding: UTF-8
Language: zh
Country: CN
--></g></svg>