<?xml version="1.0" encoding="UTF-8" standalone="no"?><svg xmlns="http://www.w3.org/2000/svg" xmlns:xlink="http://www.w3.org/1999/xlink" contentScriptType="application/ecmascript" contentStyleType="text/css" height="561px" preserveAspectRatio="none" style="width:1454px;height:561px;" version="1.1" viewBox="0 0 1454 561"
    width="1454px" zoomAndPan="magnify"><defs><filter height="300%" id="f1dcnhbgo0zuow" width="300%" x="-1" y="-1"><feGaussianBlur result="blurOut" stdDeviation="2.0"/><feColorMatrix in="blurOut" result="blurOut2" type="matrix" values="0 0 0 0 0 0 0 0 0 0 0 0 0 0 0 0 0 0 .4 0"/><feOffset dx="4.0" dy="4.0" in="blurOut2" result="blurOut3"/><feBlend in="SourceGraphic" in2="blurOut3" mode="normal"/></filter></defs><g><text fill="#000000" font-family="sans-serif" font-size="14" font-weight="bold" lengthAdjust="spacingAndGlyphs" textLength="60" x="697.5" y="23.5352">Register</text><rect fill="#FEFECE" filter="url(#f1dcnhbgo0zuow)" height="30.4883" style="stroke: #A80036; stroke-width: 1.5;" width="142" x="906" y="126.9766"/><text fill="#000000" font-family="sans-serif" font-size="14" lengthAdjust="spacingAndGlyphs" text-decoration="underline" textLength="128" x="913" y="147.5117">:WebServerControl</text><line style="stroke: #000000; stroke-width: 1.0;" x1="913" x2="1041" y1="149.5117" y2="149.5117"/><rect fill="#FFFFFF" filter="url(#f1dcnhbgo0zuow)" height="208.1289" style="stroke: #000000; stroke-width: 2.0;" width="1429" x="13" y="306.707"/><rect fill="#FFFFFF" height="132.1973" style="stroke: none; stroke-width: 1.0;" width="1429" x="13" y="382.6387"/><line style="stroke: #A80036; stroke-width: 1.0; stroke-dasharray: 5.0,5.0;" x1="83" x2="83" y1="116.9766" y2="549.8359"/><line style="stroke: #A80036; stroke-width: 1.0; stroke-dasharray: 5.0,5.0;" x1="531" x2="531" y1="116.9766" y2="549.8359"/><line style="stroke: #A80036; stroke-width: 1.0; stroke-dasharray: 5.0,5.0;" x1="979" x2="979" y1="159.7207" y2="549.8359"/><line style="stroke: #A80036; stroke-width: 1.0; stroke-dasharray: 5.0,5.0;" x1="1367" x2="1367" y1="116.9766" y2="549.8359"/><text fill="#000000" font-family="sans-serif" font-size="14" lengthAdjust="spacingAndGlyphs" text-decoration="underline" textLength="114" x="23" y="114.0234">:UserInfoControl</text><line style="stroke: #000000; stroke-width: 1.0;" x1="23" x2="137" y1="116.0234" y2="116.0234"/><ellipse cx="83" cy="43.4883" fill="#FEFECE" filter="url(#f1dcnhbgo0zuow)" rx="8" ry="8" style="stroke: #A80036; stroke-width: 2.0;"/><path d="M83,51.4883 L83,78.4883 M70,59.4883 L96,59.4883 M83,78.4883 L70,93.4883 M83,78.4883 L96,93.4883 " fill="none" filter="url(#f1dcnhbgo0zuow)" style="stroke: #A80036; stroke-width: 2.0;"/><rect fill="#FEFECE" filter="url(#f1dcnhbgo0zuow)" height="30.4883" style="stroke: #A80036; stroke-width: 1.5;" width="120" x="469" y="81.4883"/><text fill="#000000" font-family="sans-serif" font-size="14" lengthAdjust="spacingAndGlyphs" text-decoration="underline" textLength="106" x="476" y="102.0234">:Communicator</text><line style="stroke: #000000; stroke-width: 1.0;" x1="476" x2="582" y1="104.0234" y2="104.0234"/><rect fill="#FEFECE" filter="url(#f1dcnhbgo0zuow)" height="30.4883" style="stroke: #A80036; stroke-width: 1.5;" width="126" x="1302" y="81.4883"/><text fill="#000000" font-family="sans-serif" font-size="14" lengthAdjust="spacingAndGlyphs" text-decoration="underline" textLength="112" x="1309" y="102.0234">:DatabaseHelper</text><line style="stroke: #000000; stroke-width: 1.0;" x1="1309" x2="1421" y1="104.0234" y2="104.0234"/><polygon fill="#A80036" points="894,143.9766,904,147.9766,894,151.9766,898,147.9766" style="stroke: #A80036; stroke-width: 1.0;"/><line style="stroke: #A80036; stroke-width: 1.0;" x1="531" x2="900" y1="147.9766" y2="147.9766"/><text fill="#000000" font-family="sans-serif" font-size="13" lengthAdjust="spacingAndGlyphs" textLength="78" x="538" y="143.5449">&lt;&lt;create&gt;&gt;</text><rect fill="#FEFECE" filter="url(#f1dcnhbgo0zuow)" height="30.4883" style="stroke: #A80036; stroke-width: 1.5;" width="142" x="906" y="126.9766"/><text fill="#000000" font-family="sans-serif" font-size="14" lengthAdjust="spacingAndGlyphs" text-decoration="underline" textLength="128" x="913" y="147.5117">:WebServerControl</text><line style="stroke: #000000; stroke-width: 1.0;" x1="913" x2="1041" y1="149.5117" y2="149.5117"/><polygon fill="#A80036" points="519,189.4648,529,193.4648,519,197.4648,523,193.4648" style="stroke: #A80036; stroke-width: 1.0;"/><line style="stroke: #A80036; stroke-width: 1.0;" x1="83" x2="525" y1="193.4648" y2="193.4648"/><text fill="#000000" font-family="sans-serif" font-size="13" lengthAdjust="spacingAndGlyphs" textLength="424" x="90" y="189.0332">RegisterRequest(username:String, password:String, email:String):int</text><polygon fill="#A80036" points="967,218.7754,977,222.7754,967,226.7754,971,222.7754" style="stroke: #A80036; stroke-width: 1.0;"/><line style="stroke: #A80036; stroke-width: 1.0;" x1="531" x2="973" y1="222.7754" y2="222.7754"/><text fill="#000000" font-family="sans-serif" font-size="13" lengthAdjust="spacingAndGlyphs" textLength="424" x="538" y="218.3438">RegisterRequest(username:String, password:String, email:String):int</text><polygon fill="#A80036" points="1355,248.0859,1365,252.0859,1355,256.0859,1359,252.0859" style="stroke: #A80036; stroke-width: 1.0;"/><line style="stroke: #A80036; stroke-width: 1.0;" x1="979" x2="1361" y1="252.0859" y2="252.0859"/><text fill="#000000" font-family="sans-serif" font-size="13" lengthAdjust="spacingAndGlyphs" textLength="364" x="986" y="247.6543">Search(username:String, password:String, email:String):int</text><polygon fill="#A80036" points="990,282.3965,980,286.3965,990,290.3965,986,286.3965" style="stroke: #A80036; stroke-width: 1.0;"/><line style="stroke: #A80036; stroke-width: 1.0; stroke-dasharray: 2.0,2.0;" x1="984" x2="1366" y1="286.3965" y2="286.3965"/><text fill="#000000" font-family="sans-serif" font-size="13" lengthAdjust="spacingAndGlyphs" textLength="42" x="996" y="281.9648">UserID</text><path d="M738,265.3965 L738,290.3965 L970,290.3965 L970,275.3965 L960,265.3965 L738,265.3965 " fill="#FBFB77" filter="url(#f1dcnhbgo0zuow)" style="stroke: #A80036; stroke-width: 1.0;"/><path d="M960,265.3965 L960,275.3965 L970,275.3965 L960,265.3965 " fill="#FBFB77" style="stroke: #A80036; stroke-width: 1.0;"/><text fill="#000000" font-family="sans-serif" font-size="13" lengthAdjust="spacingAndGlyphs" textLength="211" x="744" y="282.9648">当UserID小于等于0的时候进入Exist</text><path d="M13,306.707 L75,306.707 L75,313.707 L65,323.707 L13,323.707 L13,306.707 " fill="#EEEEEE" style="stroke: #000000; stroke-width: 1.0;"/><rect fill="none" height="208.1289" style="stroke: #000000; stroke-width: 2.0;" width="1429" x="13" y="306.707"/><text fill="#000000" font-family="sans-serif" font-size="13" font-weight="bold" lengthAdjust="spacingAndGlyphs" textLength="17" x="28" y="320.2754">alt</text><text fill="#000000" font-family="sans-serif" font-size="11" font-weight="bold" lengthAdjust="spacingAndGlyphs" textLength="35" x="90" y="319.3418">[Exist]</text><polygon fill="#A80036" points="542,341.0176,532,345.0176,542,349.0176,538,345.0176" style="stroke: #A80036; stroke-width: 1.0;"/><line style="stroke: #A80036; stroke-width: 1.0; stroke-dasharray: 2.0,2.0;" x1="536" x2="978" y1="345.0176" y2="345.0176"/><text fill="#000000" font-family="sans-serif" font-size="13" lengthAdjust="spacingAndGlyphs" textLength="42" x="548" y="340.5859">UserID</text><polygon fill="#A80036" points="94,370.3281,84,374.3281,94,378.3281,90,374.3281" style="stroke: #A80036; stroke-width: 1.0;"/><line style="stroke: #A80036; stroke-width: 1.0; stroke-dasharray: 2.0,2.0;" x1="88" x2="530" y1="374.3281" y2="374.3281"/><text fill="#000000" font-family="sans-serif" font-size="13" lengthAdjust="spacingAndGlyphs" textLength="42" x="100" y="369.8965">UserID</text><line style="stroke: #000000; stroke-width: 1.0; stroke-dasharray: 2.0,2.0;" x1="13" x2="1442" y1="383.6387" y2="383.6387"/><text fill="#000000" font-family="sans-serif" font-size="11" font-weight="bold" lengthAdjust="spacingAndGlyphs" textLength="54" x="18" y="394.2734">[NotExist]</text><polygon fill="#A80036" points="1355,414.5938,1365,418.5938,1355,422.5938,1359,418.5938" style="stroke: #A80036; stroke-width: 1.0;"/><line style="stroke: #A80036; stroke-width: 1.0;" x1="979" x2="1361" y1="418.5938" y2="418.5938"/><text fill="#000000" font-family="sans-serif" font-size="13" lengthAdjust="spacingAndGlyphs" textLength="156" x="986" y="414.1621">AddUser(RegisterList):int</text><polygon fill="#A80036" points="990,443.9043,980,447.9043,990,451.9043,986,447.9043" style="stroke: #A80036; stroke-width: 1.0;"/><line style="stroke: #A80036; stroke-width: 1.0; stroke-dasharray: 2.0,2.0;" x1="984" x2="1366" y1="447.9043" y2="447.9043"/><text fill="#000000" font-family="sans-serif" font-size="13" lengthAdjust="spacingAndGlyphs" textLength="42" x="996" y="443.4727">UserID</text><polygon fill="#A80036" points="542,473.2148,532,477.2148,542,481.2148,538,477.2148" style="stroke: #A80036; stroke-width: 1.0;"/><line style="stroke: #A80036; stroke-width: 1.0; stroke-dasharray: 2.0,2.0;" x1="536" x2="978" y1="477.2148" y2="477.2148"/><text fill="#000000" font-family="sans-serif" font-size="13" lengthAdjust="spacingAndGlyphs" textLength="42" x="548" y="472.7832">UserID</text><polygon fill="#A80036" points="94,502.5254,84,506.5254,94,510.5254,90,506.5254" style="stroke: #A80036; stroke-width: 1.0;"/><line style="stroke: #A80036; stroke-width: 1.0; stroke-dasharray: 2.0,2.0;" x1="88" x2="530" y1="506.5254" y2="506.5254"/><text fill="#000000" font-family="sans-serif" font-size="13" lengthAdjust="spacingAndGlyphs" textLength="42" x="100" y="502.0938">UserID</text><line style="stroke: #A80036; stroke-width: 2.0;" x1="970" x2="988" y1="521.8359" y2="539.8359"/><line style="stroke: #A80036; stroke-width: 2.0;" x1="970" x2="988" y1="539.8359" y2="521.8359"/><!--
@startuml Diagrams/RegisterServerSequence
hide footbox
skinparam sequenceParticipant underline
title Register
actor ":UserInfoControl" as Client
participant ":Communicator" as Communicator
participant ":WebServerControl" as WebServer
participant ":DatabaseHelper" as UserDatabase
create WebServer
Communicator->WebServer:<<create>>
Client->Communicator:RegisterRequest(username:String, password:String, email:String):int

Communicator->WebServer:RegisterRequest(username:String, password:String, email:String):int
WebServer->UserDatabase:Search(username:String, password:String, email:String):int
UserDatabase- ->WebServer:UserID

alt Exist
  note left: 当UserID小于等于0的时候进入Exist
  WebServer- ->Communicator:UserID
  Communicator- ->Client:UserID
else NotExist
  WebServer->UserDatabase:AddUser(RegisterList):int

  UserDatabase- ->WebServer:UserID
  WebServer- ->Communicator:UserID
  Communicator- ->Client:UserID
end
destroy WebServer
@enduml

PlantUML version 1.2018.01(Mon Jan 29 02:08:22 CST 2018)
(GPL source distribution)
Java Runtime: Java(TM) SE Runtime Environment
JVM: Java HotSpot(TM) 64-Bit Server VM
Java Version: 9+181
Operating System: Mac OS X
OS Version: 10.12.6
Default Encoding: UTF-8
Language: zh
Country: CN
--></g></svg>