<?xml version="1.0" encoding="UTF-8" standalone="no"?><svg xmlns="http://www.w3.org/2000/svg" xmlns:xlink="http://www.w3.org/1999/xlink" contentScriptType="application/ecmascript" contentStyleType="text/css" height="186px" preserveAspectRatio="none" style="width:163px;height:186px;" version="1.1" viewBox="0 0 163 186"
    width="163px" zoomAndPan="magnify"><defs><filter height="300%" id="f1hfz0w4mpf7q5" width="300%" x="-1" y="-1"><feGaussianBlur result="blurOut" stdDeviation="2.0"/><feColorMatrix in="blurOut" result="blurOut2" type="matrix" values="0 0 0 0 0 0 0 0 0 0 0 0 0 0 0 0 0 0 .4 0"/><feOffset dx="4.0" dy="4.0" in="blurOut2" result="blurOut3"/><feBlend in="SourceGraphic" in2="blurOut3" mode="normal"/></filter></defs><g><!--cluster ServerSubsystem--><rect fill="#FFFFFF" filter="url(#f1hfz0w4mpf7q5)" height="83" style="stroke: #000000; stroke-width: 1.5;" width="138" x="14" y="16"/><rect fill="#FFFFFF" height="10" style="stroke: #000000; stroke-width: 1.5;" width="15" x="132" y="21"/><rect fill="#FFFFFF" height="2" style="stroke: #000000; stroke-width: 1.5;" width="4" x="130" y="23"/><rect fill="#FFFFFF" height="2" style="stroke: #000000; stroke-width: 1.5;" width="4" x="130" y="27"/><text fill="#000000" font-family="sans-serif" font-size="14" font-weight="bold" lengthAdjust="spacingAndGlyphs" textLength="122" x="22" y="42.5352">ServerSubsystem</text><!--class WebService--><rect fill="#FEFECE" filter="url(#f1hfz0w4mpf7q5)" height="48" id="WebService" style="stroke: #A80036; stroke-width: 1.5;" width="97" x="34.5" y="43"/><ellipse cx="49.5" cy="59" fill="#ADD1B2" rx="11" ry="11" style="stroke: #A80036; stroke-width: 1.0;"/><path d="M52.4731,64.6431 Q51.8921,64.9419 51.2529,65.0913 Q50.6138,65.2407 49.9082,65.2407 Q47.4014,65.2407 46.0815,63.5889 Q44.7617,61.937 44.7617,58.8159 Q44.7617,55.6865 46.0815,54.0347 Q47.4014,52.3828 49.9082,52.3828 Q50.6138,52.3828 51.2612,52.5322 Q51.9087,52.6816 52.4731,52.9805 L52.4731,55.7031 Q51.8423,55.1221 51.2488,54.8523 Q50.6553,54.5825 50.0244,54.5825 Q48.6797,54.5825 47.9949,55.6492 Q47.3101,56.7158 47.3101,58.8159 Q47.3101,60.9077 47.9949,61.9744 Q48.6797,63.041 50.0244,63.041 Q50.6553,63.041 51.2488,62.7712 Q51.8423,62.5015 52.4731,61.9204 Z "/><text fill="#000000" font-family="sans-serif" font-size="12" lengthAdjust="spacingAndGlyphs" textLength="65" x="63.5" y="63.5352">WebService</text><line style="stroke: #A80036; stroke-width: 1.5;" x1="35.5" x2="130.5" y1="75" y2="75"/><line style="stroke: #A80036; stroke-width: 1.5;" x1="35.5" x2="130.5" y1="83" y2="83"/><ellipse cx="83" cy="156" fill="#FEFECE" filter="url(#f1hfz0w4mpf7q5)" rx="5" ry="5" style="stroke: #A80036; stroke-width: 1.5;"/><text fill="#000000" font-family="sans-serif" font-size="12" lengthAdjust="spacingAndGlyphs" textLength="65" x="50.5" y="172.6016">HttpService</text><!--link WebService to WebServicelol147--><path d="M83,91.3196 C83,111.7007 83,139.247 83,150.6827 " fill="none" id="WebService-WebServicelol147" style="stroke: #A80036; stroke-width: 1.0;"/><!--
@startuml Diagrams/ServerSubsystemClassDiagram
component ServerSubsystem {
    class WebService {

    }
}
WebService - -() HttpService
@enduml

PlantUML version 1.2018.01(Mon Jan 29 02:08:22 CST 2018)
(GPL source distribution)
Java Runtime: Java(TM) SE Runtime Environment
JVM: Java HotSpot(TM) 64-Bit Server VM
Java Version: 9+181
Operating System: Mac OS X
OS Version: 10.12.6
Default Encoding: UTF-8
Language: zh
Country: CN
--></g></svg>