<?xml version="1.0" encoding="UTF-8" standalone="no"?><svg xmlns="http://www.w3.org/2000/svg" xmlns:xlink="http://www.w3.org/1999/xlink" contentScriptType="application/ecmascript" contentStyleType="text/css" height="879px" preserveAspectRatio="none" style="width:1163px;height:879px;" version="1.1" viewBox="0 0 1163 879"
    width="1163px" zoomAndPan="magnify"><defs><filter height="300%" id="f9wryik12n08v" width="300%" x="-1" y="-1"><feGaussianBlur result="blurOut" stdDeviation="2.0"/><feColorMatrix in="blurOut" result="blurOut2" type="matrix" values="0 0 0 0 0 0 0 0 0 0 0 0 0 0 0 0 0 0 .4 0"/><feOffset dx="4.0" dy="4.0" in="blurOut2" result="blurOut3"/><feBlend in="SourceGraphic" in2="blurOut3" mode="normal"/></filter></defs><g><!--cluster CommunicationService--><polygon fill="#FFFFFF" filter="url(#f9wryik12n08v)" points="14,453,184,453,191,475.4883,775,475.4883,775,546,14,546,14,453" style="stroke: #000000; stroke-width: 1.5;"/><line style="stroke: #000000; stroke-width: 1.5;" x1="14" x2="191" y1="475.4883" y2="475.4883"/><text fill="#000000" font-family="sans-serif" font-size="14" font-weight="bold" lengthAdjust="spacingAndGlyphs" textLength="164" x="18" y="468.5352">CommunicationService</text><!--entity UM--><ellipse cx="591" cy="509" fill="#FEFECE" filter="url(#f9wryik12n08v)" rx="8" ry="8" style="stroke: #A80036; stroke-width: 2.0;"/><text fill="#000000" font-family="sans-serif" font-size="14" lengthAdjust="spacingAndGlyphs" textLength="107" x="537.5" y="539.5352">UploadVSSMeta</text><!--entity DL--><ellipse cx="289" cy="509" fill="#FEFECE" filter="url(#f9wryik12n08v)" rx="8" ry="8" style="stroke: #A80036; stroke-width: 2.0;"/><text fill="#000000" font-family="sans-serif" font-size="14" lengthAdjust="spacingAndGlyphs" textLength="127" x="225.5" y="539.5352">DownloadVSSMeta</text><!--entity GR--><ellipse cx="727" cy="509" fill="#FEFECE" filter="url(#f9wryik12n08v)" rx="8" ry="8" style="stroke: #A80036; stroke-width: 2.0;"/><text fill="#000000" font-family="sans-serif" font-size="14" lengthAdjust="spacingAndGlyphs" textLength="65" x="694.5" y="539.5352">UploadSF</text><!--entity US--><ellipse cx="445" cy="509" fill="#FEFECE" filter="url(#f9wryik12n08v)" rx="8" ry="8" style="stroke: #A80036; stroke-width: 2.0;"/><text fill="#000000" font-family="sans-serif" font-size="14" lengthAdjust="spacingAndGlyphs" textLength="85" x="402.5" y="539.5352">DownloadSF</text><!--entity RG--><ellipse cx="147" cy="509" fill="#FEFECE" filter="url(#f9wryik12n08v)" rx="8" ry="8" style="stroke: #A80036; stroke-width: 2.0;"/><text fill="#000000" font-family="sans-serif" font-size="14" lengthAdjust="spacingAndGlyphs" textLength="56" x="119" y="539.5352">Register</text><!--entity LG--><ellipse cx="49" cy="509" fill="#FEFECE" filter="url(#f9wryik12n08v)" rx="8" ry="8" style="stroke: #A80036; stroke-width: 2.0;"/><text fill="#000000" font-family="sans-serif" font-size="14" lengthAdjust="spacingAndGlyphs" textLength="38" x="30" y="539.5352">Login</text><!--entity LS--><ellipse cx="854" cy="509" fill="#FEFECE" filter="url(#f9wryik12n08v)" rx="8" ry="8" style="stroke: #A80036; stroke-width: 2.0;"/><text fill="#000000" font-family="sans-serif" font-size="14" lengthAdjust="spacingAndGlyphs" textLength="88" x="810" y="539.5352">LocalStorage</text><!--entity SA--><ellipse cx="690" cy="155" fill="#FEFECE" filter="url(#f9wryik12n08v)" rx="8" ry="8" style="stroke: #A80036; stroke-width: 2.0;"/><text fill="#000000" font-family="sans-serif" font-size="14" lengthAdjust="spacingAndGlyphs" textLength="93" x="643.5" y="185.5352">SensorAccess</text><!--entity BC--><ellipse cx="932" cy="391" fill="#FEFECE" filter="url(#f9wryik12n08v)" rx="8" ry="8" style="stroke: #A80036; stroke-width: 2.0;"/><text fill="#000000" font-family="sans-serif" font-size="14" lengthAdjust="spacingAndGlyphs" textLength="152" x="856" y="421.5352">RawSensorDataAccess</text><!--entity UIA--><ellipse cx="226" cy="273" fill="#FEFECE" filter="url(#f9wryik12n08v)" rx="8" ry="8" style="stroke: #A80036; stroke-width: 2.0;"/><text fill="#000000" font-family="sans-serif" font-size="14" lengthAdjust="spacingAndGlyphs" textLength="104" x="174" y="303.5352">UserInfoAccess</text><!--entity OVA--><ellipse cx="430" cy="155" fill="#FEFECE" filter="url(#f9wryik12n08v)" rx="8" ry="8" style="stroke: #A80036; stroke-width: 2.0;"/><text fill="#000000" font-family="sans-serif" font-size="14" lengthAdjust="spacingAndGlyphs" textLength="116" x="372" y="185.5352">OnlineVSSAccess</text><!--entity LVA--><ellipse cx="601" cy="273" fill="#FEFECE" filter="url(#f9wryik12n08v)" rx="8" ry="8" style="stroke: #A80036; stroke-width: 2.0;"/><text fill="#000000" font-family="sans-serif" font-size="14" lengthAdjust="spacingAndGlyphs" textLength="106" x="548" y="303.5352">LocalVSSAccess</text><!--entity AC--><ellipse cx="796" cy="37" fill="#FEFECE" filter="url(#f9wryik12n08v)" rx="8" ry="8" style="stroke: #A80036; stroke-width: 2.0;"/><text fill="#000000" font-family="sans-serif" font-size="14" lengthAdjust="spacingAndGlyphs" textLength="93" x="749.5" y="67.5352">AudioControl</text><!--entity CommunicationSubsystem--><rect fill="#FEFECE" filter="url(#f9wryik12n08v)" height="46.4883" style="stroke: #A80036; stroke-width: 1.5;" width="222" x="256" y="598"/><rect fill="#FEFECE" height="10" style="stroke: #A80036; stroke-width: 1.5;" width="15" x="458" y="603"/><rect fill="#FEFECE" height="2" style="stroke: #A80036; stroke-width: 1.5;" width="4" x="456" y="605"/><rect fill="#FEFECE" height="2" style="stroke: #A80036; stroke-width: 1.5;" width="4" x="456" y="609"/><text fill="#000000" font-family="sans-serif" font-size="14" lengthAdjust="spacingAndGlyphs" textLength="182" x="271" y="631.5352">CommunicationSubsystem</text><!--entity LocalVSSSubsystem--><rect fill="#FEFECE" filter="url(#f9wryik12n08v)" height="46.4883" style="stroke: #A80036; stroke-width: 1.5;" width="173" x="514.5" y="368"/><rect fill="#FEFECE" height="10" style="stroke: #A80036; stroke-width: 1.5;" width="15" x="667.5" y="373"/><rect fill="#FEFECE" height="2" style="stroke: #A80036; stroke-width: 1.5;" width="4" x="665.5" y="375"/><rect fill="#FEFECE" height="2" style="stroke: #A80036; stroke-width: 1.5;" width="4" x="665.5" y="379"/><text fill="#000000" font-family="sans-serif" font-size="14" lengthAdjust="spacingAndGlyphs" textLength="133" x="529.5" y="401.5352">LocalVSSSubsystem</text><!--entity OnlineVSSSubsystem--><rect fill="#FEFECE" filter="url(#f9wryik12n08v)" height="46.4883" style="stroke: #A80036; stroke-width: 1.5;" width="183" x="321.5" y="250"/><rect fill="#FEFECE" height="10" style="stroke: #A80036; stroke-width: 1.5;" width="15" x="484.5" y="255"/><rect fill="#FEFECE" height="2" style="stroke: #A80036; stroke-width: 1.5;" width="4" x="482.5" y="257"/><rect fill="#FEFECE" height="2" style="stroke: #A80036; stroke-width: 1.5;" width="4" x="482.5" y="261"/><text fill="#000000" font-family="sans-serif" font-size="14" lengthAdjust="spacingAndGlyphs" textLength="143" x="336.5" y="283.5352">OnlineVSSSubsystem</text><!--entity SensorSubsystem--><rect fill="#FEFECE" filter="url(#f9wryik12n08v)" height="46.4883" style="stroke: #A80036; stroke-width: 1.5;" width="160" x="775" y="250"/><rect fill="#FEFECE" height="10" style="stroke: #A80036; stroke-width: 1.5;" width="15" x="915" y="255"/><rect fill="#FEFECE" height="2" style="stroke: #A80036; stroke-width: 1.5;" width="4" x="913" y="257"/><rect fill="#FEFECE" height="2" style="stroke: #A80036; stroke-width: 1.5;" width="4" x="913" y="261"/><text fill="#000000" font-family="sans-serif" font-size="14" lengthAdjust="spacingAndGlyphs" textLength="120" x="790" y="283.5352">SensorSubsystem</text><!--entity SensorHardwareWrapper--><rect fill="#FEFECE" filter="url(#f9wryik12n08v)" height="46.4883" style="stroke: #A80036; stroke-width: 1.5;" width="211" x="941.5" y="486"/><rect fill="#FEFECE" height="10" style="stroke: #A80036; stroke-width: 1.5;" width="15" x="1132.5" y="491"/><rect fill="#FEFECE" height="2" style="stroke: #A80036; stroke-width: 1.5;" width="4" x="1130.5" y="493"/><rect fill="#FEFECE" height="2" style="stroke: #A80036; stroke-width: 1.5;" width="4" x="1130.5" y="497"/><text fill="#000000" font-family="sans-serif" font-size="14" lengthAdjust="spacingAndGlyphs" textLength="171" x="956.5" y="519.5352">SensorHardwareWrapper</text><!--entity UserSubsystem--><rect fill="#FEFECE" filter="url(#f9wryik12n08v)" height="46.4883" style="stroke: #A80036; stroke-width: 1.5;" width="144" x="75" y="368"/><rect fill="#FEFECE" height="10" style="stroke: #A80036; stroke-width: 1.5;" width="15" x="199" y="373"/><rect fill="#FEFECE" height="2" style="stroke: #A80036; stroke-width: 1.5;" width="4" x="197" y="375"/><rect fill="#FEFECE" height="2" style="stroke: #A80036; stroke-width: 1.5;" width="4" x="197" y="379"/><text fill="#000000" font-family="sans-serif" font-size="14" lengthAdjust="spacingAndGlyphs" textLength="104" x="90" y="401.5352">UserSubsystem</text><!--entity UISubsystem--><rect fill="#FEFECE" filter="url(#f9wryik12n08v)" height="46.4883" style="stroke: #A80036; stroke-width: 1.5;" width="127" x="519.5" y="14"/><rect fill="#FEFECE" height="10" style="stroke: #A80036; stroke-width: 1.5;" width="15" x="626.5" y="19"/><rect fill="#FEFECE" height="2" style="stroke: #A80036; stroke-width: 1.5;" width="4" x="624.5" y="21"/><rect fill="#FEFECE" height="2" style="stroke: #A80036; stroke-width: 1.5;" width="4" x="624.5" y="25"/><text fill="#000000" font-family="sans-serif" font-size="14" lengthAdjust="spacingAndGlyphs" textLength="87" x="534.5" y="47.5352">UISubsystem</text><!--entity LocalStorageSubsystem--><rect fill="#FEFECE" filter="url(#f9wryik12n08v)" height="46.4883" style="stroke: #A80036; stroke-width: 1.5;" width="201" x="753.5" y="598"/><rect fill="#FEFECE" height="10" style="stroke: #A80036; stroke-width: 1.5;" width="15" x="934.5" y="603"/><rect fill="#FEFECE" height="2" style="stroke: #A80036; stroke-width: 1.5;" width="4" x="932.5" y="605"/><rect fill="#FEFECE" height="2" style="stroke: #A80036; stroke-width: 1.5;" width="4" x="932.5" y="609"/><text fill="#000000" font-family="sans-serif" font-size="14" lengthAdjust="spacingAndGlyphs" textLength="161" x="768.5" y="631.5352">LocalStorageSubsystem</text><!--entity AudioSubsystem--><rect fill="#FEFECE" filter="url(#f9wryik12n08v)" height="46.4883" style="stroke: #A80036; stroke-width: 1.5;" width="154" x="779" y="132"/><rect fill="#FEFECE" height="10" style="stroke: #A80036; stroke-width: 1.5;" width="15" x="913" y="137"/><rect fill="#FEFECE" height="2" style="stroke: #A80036; stroke-width: 1.5;" width="4" x="911" y="139"/><rect fill="#FEFECE" height="2" style="stroke: #A80036; stroke-width: 1.5;" width="4" x="911" y="143"/><text fill="#000000" font-family="sans-serif" font-size="14" lengthAdjust="spacingAndGlyphs" textLength="114" x="794" y="165.5352">AudioSubsystem</text><!--entity HttpService--><ellipse cx="367" cy="733" fill="#FEFECE" filter="url(#f9wryik12n08v)" rx="8" ry="8" style="stroke: #A80036; stroke-width: 2.0;"/><text fill="#000000" font-family="sans-serif" font-size="14" lengthAdjust="spacingAndGlyphs" textLength="77" x="328.5" y="763.5352">HttpService</text><!--entity ServerSubsystem--><rect fill="#FEFECE" filter="url(#f9wryik12n08v)" height="46.4883" style="stroke: #A80036; stroke-width: 1.5;" width="156" x="289" y="822"/><rect fill="#FEFECE" height="10" style="stroke: #A80036; stroke-width: 1.5;" width="15" x="425" y="827"/><rect fill="#FEFECE" height="2" style="stroke: #A80036; stroke-width: 1.5;" width="4" x="423" y="829"/><rect fill="#FEFECE" height="2" style="stroke: #A80036; stroke-width: 1.5;" width="4" x="423" y="833"/><text fill="#000000" font-family="sans-serif" font-size="14" lengthAdjust="spacingAndGlyphs" textLength="116" x="304" y="855.5352">ServerSubsystem</text><!--link UM to CommunicationSubsystem--><path d="M581.9415,513.5292 C553.949,527.5255 467.4497,570.7752 413.0947,597.9526 " fill="none" id="UM-CommunicationSubsystem" style="stroke: #A80036; stroke-width: 1.0;"/><!--link DL to CommunicationSubsystem--><path d="M295.3831,518.1654 C307.3898,535.4059 333.6703,573.1419 350.8369,597.7914 " fill="none" id="DL-CommunicationSubsystem" style="stroke: #A80036; stroke-width: 1.0;"/><!--link GR to CommunicationSubsystem--><path d="M717.8706,516.3148 C707.0494,524.6437 688.184,538.1139 670,546 C608.9717,572.467 536.805,590.796 478.2127,602.7061 " fill="none" id="GR-CommunicationSubsystem" style="stroke: #A80036; stroke-width: 1.0;"/><!--link US to CommunicationSubsystem--><path d="M438.6169,518.1654 C426.6102,535.4059 400.3297,573.1419 383.1631,597.7914 " fill="none" id="US-CommunicationSubsystem" style="stroke: #A80036; stroke-width: 1.0;"/><!--link RG to CommunicationSubsystem--><path d="M156.0374,516.0971 C166.3211,523.9825 183.7952,536.8123 200,546 C234.8365,565.7514 275.8363,584.2287 308.4933,597.9013 " fill="none" id="RG-CommunicationSubsystem" style="stroke: #A80036; stroke-width: 1.0;"/><!--link LG to CommunicationSubsystem--><path d="M57.585,518.2151 C65.8896,526.6091 79.2125,538.7662 93,546 C143.5517,572.5228 204.4058,590.394 255.911,602.0149 " fill="none" id="LG-CommunicationSubsystem" style="stroke: #A80036; stroke-width: 1.0;"/><!--link SA to SensorSubsystem--><path d="M699.3439,161.6823 C722.6591,178.3562 784.2777,222.4228 822.6258,249.8476 " fill="none" id="SA-SensorSubsystem" style="stroke: #A80036; stroke-width: 1.0;"/><!--link BC to SensorHardwareWrapper--><path d="M941.0239,400.2593 C958.8149,418.5144 998.8953,459.6404 1024.3483,485.7574 " fill="none" id="BC-SensorHardwareWrapper" style="stroke: #A80036; stroke-width: 1.0;"/><!--link SensorSubsystem to BC--><path d="M870.0292,296.0317 C885.8312,320.2479 910.1638,357.5367 923.1375,377.4185 " fill="none" id="SensorSubsystem-BC" style="stroke: #A80036; stroke-width: 1.0; stroke-dasharray: 7.0,7.0;"/><polygon fill="#A80036" points="926.0285,381.8489,924.4597,372.1258,923.2959,377.6616,917.7601,376.4979,926.0285,381.8489" style="stroke: #A80036; stroke-width: 1.0;"/><!--link UIA to UserSubsystem--><path d="M219.801,282.2593 C207.5793,300.5144 180.0458,341.6404 162.5607,367.7574 " fill="none" id="UIA-UserSubsystem" style="stroke: #A80036; stroke-width: 1.0;"/><!--link UISubsystem to UIA--><path d="M519.2893,51.3531 C469.1464,64.8249 399.2489,88.591 347,126 C294.1549,163.8359 251.1058,230.27 233.9795,259.0512 " fill="none" id="UISubsystem-UIA" style="stroke: #A80036; stroke-width: 1.0; stroke-dasharray: 7.0,7.0;"/><polygon fill="#A80036" points="231.2706,263.6554,239.282,257.9267,233.8061,259.3459,232.3868,253.87,231.2706,263.6554" style="stroke: #A80036; stroke-width: 1.0;"/><!--link LS to LocalStorageSubsystem--><path d="M854,518.1654 C854,535.4059 854,573.1419 854,597.7914 " fill="none" id="LS-LocalStorageSubsystem" style="stroke: #A80036; stroke-width: 1.0;"/><!--link LocalVSSSubsystem to LS--><path d="M687.7928,413.9494 C718.8054,423.8453 753.3821,436.8934 783,453 C804.9977,464.9626 827.1455,483.7572 840.7172,496.2267 " fill="none" id="LocalVSSSubsystem-LS" style="stroke: #A80036; stroke-width: 1.0; stroke-dasharray: 7.0,7.0;"/><polygon fill="#A80036" points="844.644,499.879,840.778,490.8206,840.9828,496.4738,835.3296,496.6786,844.644,499.879" style="stroke: #A80036; stroke-width: 1.0;"/><!--link AC to AudioSubsystem--><path d="M800.7081,46.2593 C809.9904,64.5144 830.9019,105.6404 844.1817,131.7574 " fill="none" id="AC-AudioSubsystem" style="stroke: #A80036; stroke-width: 1.0;"/><!--link UISubsystem to AC--><path d="M646.6185,37 C697.1238,37 763.075,37 786.9105,37 " fill="none" id="UISubsystem-AC" style="stroke: #A80036; stroke-width: 1.0; stroke-dasharray: 7.0,7.0;"/><polygon fill="#A80036" points="786.9105,37,777.9105,33,781.9105,37,777.9105,41,786.9105,37" style="stroke: #A80036; stroke-width: 1.0;"/><!--link UIA to OnlineVSSSubsystem--><path d="M235.0194,278.8738 C249.5683,283.0906 279.7838,285.3679 311.2549,285.7058 " fill="none" id="UIA-OnlineVSSSubsystem" style="stroke: #A80036; stroke-width: 1.0; stroke-dasharray: 7.0,7.0;"/><polygon fill="#A80036" points="321.4987,285.7474,312.515,281.7109,316.4987,285.7271,312.4825,289.7109,321.4987,285.7474" style="stroke: #A80036; stroke-width: 1.0;"/><!--link CommunicationSubsystem to HttpService--><path d="M367,644.2065 C367,666.504 367,699.5112 367,718.3687 " fill="none" id="CommunicationSubsystem-HttpService" style="stroke: #A80036; stroke-width: 1.0; stroke-dasharray: 7.0,7.0;"/><polygon fill="#A80036" points="367,723.7393,371,714.7393,367,718.7393,363,714.7393,367,723.7393" style="stroke: #A80036; stroke-width: 1.0;"/><!--link HttpService to ServerSubsystem--><path d="M367,742.1654 C367,759.4059 367,797.1419 367,821.7914 " fill="none" id="HttpService-ServerSubsystem" style="stroke: #A80036; stroke-width: 1.0;"/><!--link OVA to OnlineVSSSubsystem--><path d="M428.666,164.2593 C426.0361,182.5144 420.1111,223.6404 416.3485,249.7574 " fill="none" id="OVA-OnlineVSSSubsystem" style="stroke: #A80036; stroke-width: 1.0;"/><!--link LVA to LocalVSSSubsystem--><path d="M601,282.2593 C601,300.5144 601,341.6404 601,367.7574 " fill="none" id="LVA-LocalVSSSubsystem" style="stroke: #A80036; stroke-width: 1.0;"/><!--link UserSubsystem to LG--><path d="M126.4609,414.0201 C116.2585,425.5959 103.8288,439.913 93,453 C81.1705,467.2964 68.0889,484.0766 59.2889,495.515 " fill="none" id="UserSubsystem-LG" style="stroke: #A80036; stroke-width: 1.0; stroke-dasharray: 7.0,7.0;"/><polygon fill="#A80036" points="56.0238,499.7694,64.6764,495.0649,59.0679,495.8029,58.33,490.1944,56.0238,499.7694" style="stroke: #A80036; stroke-width: 1.0;"/><!--link UserSubsystem to RG--><path d="M147,414.0317 C147,437.9413 147,474.5947 147,494.6552 " fill="none" id="UserSubsystem-RG" style="stroke: #A80036; stroke-width: 1.0; stroke-dasharray: 7.0,7.0;"/><polygon fill="#A80036" points="147,499.8489,151,490.8489,147,494.8489,143,490.8489,147,499.8489" style="stroke: #A80036; stroke-width: 1.0;"/><!--link LocalVSSSubsystem to UM--><path d="M599.0482,414.0317 C597.0219,437.9413 593.9157,474.5947 592.2157,494.6552 " fill="none" id="LocalVSSSubsystem-UM" style="stroke: #A80036; stroke-width: 1.0; stroke-dasharray: 7.0,7.0;"/><polygon fill="#A80036" points="591.7755,499.8489,596.5213,491.2189,592.1978,494.8668,588.5499,490.5432,591.7755,499.8489" style="stroke: #A80036; stroke-width: 1.0;"/><!--link GR to LocalVSSSubsystem--><path d="M714.1957,496.0975 C702.7468,484.6387 685.4412,467.509 670,453 C656.1509,439.987 640.409,425.7977 627.4616,414.2812 " fill="none" id="GR-LocalVSSSubsystem" style="stroke: #A80036; stroke-width: 1.0; stroke-dasharray: 7.0,7.0;"/><polygon fill="#A80036" points="717.8427,499.7541,714.3194,490.557,714.3119,496.2139,708.655,496.2063,717.8427,499.7541" style="stroke: #A80036; stroke-width: 1.0;"/><!--link LocalVSSSubsystem to US--><path d="M566.7219,414.2617 C550.2649,425.654 530.3893,439.7436 513,453 C493.3804,467.9566 471.4864,486.2995 457.9745,497.8224 " fill="none" id="LocalVSSSubsystem-US" style="stroke: #A80036; stroke-width: 1.0; stroke-dasharray: 7.0,7.0;"/><polygon fill="#A80036" points="454.062,501.1682,463.5017,498.359,457.862,497.9186,458.3024,492.2789,454.062,501.1682" style="stroke: #A80036; stroke-width: 1.0;"/><!--link OnlineVSSSubsystem to DL--><path d="M400.8846,296.0584 C375.4561,344.4544 317.1632,455.399 296.4621,494.7979 " fill="none" id="OnlineVSSSubsystem-DL" style="stroke: #A80036; stroke-width: 1.0; stroke-dasharray: 7.0,7.0;"/><polygon fill="#A80036" points="293.9075,499.6599,301.6347,493.5533,296.2332,495.2337,294.5527,489.8322,293.9075,499.6599" style="stroke: #A80036; stroke-width: 1.0;"/><!--link OnlineVSSSubsystem to US--><!--link UISubsystem to OVA--><path d="M553.1369,60.0317 C519.8981,85.6668 467.6646,125.9515 443.3187,144.728 " fill="none" id="UISubsystem-OVA" style="stroke: #A80036; stroke-width: 1.0; stroke-dasharray: 7.0,7.0;"/><polygon fill="#A80036" points="439.1082,147.9754,448.6777,145.6464,443.0675,144.9218,443.792,139.3116,439.1082,147.9754" style="stroke: #A80036; stroke-width: 1.0;"/><!--link UISubsystem to LVA--><path d="M584.7587,60.0584 C588.4348,108.2569 596.8428,218.4944 599.8797,258.3119 " fill="none" id="UISubsystem-LVA" style="stroke: #A80036; stroke-width: 1.0; stroke-dasharray: 7.0,7.0;"/><polygon fill="#A80036" points="600.2876,263.6599,603.5915,254.3817,599.9073,258.6744,595.6147,254.9902,600.2876,263.6599" style="stroke: #A80036; stroke-width: 1.0;"/><!--link UISubsystem to SA--><path d="M603.8847,60.0317 C626.0287,84.4522 660.2277,122.1669 678.1376,141.9181 " fill="none" id="UISubsystem-SA" style="stroke: #A80036; stroke-width: 1.0; stroke-dasharray: 7.0,7.0;"/><polygon fill="#A80036" points="681.7019,145.8489,678.6194,136.4948,678.3432,142.1449,672.6931,141.8687,681.7019,145.8489" style="stroke: #A80036; stroke-width: 1.0;"/><!--
@startuml Diagrams/SubsystemDecomposition
skinparam componentStyle uml2

interface "LocalStorage" as LS

interface "SensorAccess" as SA
interface "RawSensorDataAccess" as BC
interface "UserInfoAccess" as UIA
interface "OnlineVSSAccess" as OVA
interface "LocalVSSAccess" as LVA
interface "AudioControl" as AC




package "CommunicationService" {
    interface "UploadVSSMeta" as UM
    interface "DownloadVSSMeta" as DL
    interface "UploadSF" as GR
    interface "DownloadSF" as US
    interface "Register" as RG
    interface "Login" as LG
}
component "CommunicationSubsystem" as CommunicationSubsystem

    UM - - CommunicationSubsystem
    DL - - CommunicationSubsystem
    GR - - CommunicationSubsystem
    US - - CommunicationSubsystem
    RG - - CommunicationSubsystem
    LG - - CommunicationSubsystem

[LocalVSSSubsystem]
[OnlineVSSSubsystem]
[SensorSubsystem] -up- SA
[SensorHardwareWrapper] -up- BC
[SensorSubsystem] ..> BC
[UserSubsystem] -up- UIA
[UISubsystem] ..> UIA

[LocalStorageSubsystem] -up- LS
[LocalVSSSubsystem] ..> LS
[AudioSubsystem] -up- AC
[UISubsystem] .-r.> AC


UIA <. [OnlineVSSSubsystem]


[CommunicationSubsystem] .down.> HttpService
[ServerSubsystem] -up- HttpService
[OnlineVSSSubsystem] -up- OVA
[LocalVSSSubsystem] -up- LVA
[UserSubsystem] ..> LG
[UserSubsystem] ..> RG

[LocalVSSSubsystem] .down.> UM
[LocalVSSSubsystem] .up.> GR
[LocalVSSSubsystem] .down.> US

[OnlineVSSSubsystem] .-down.> DL
[OnlineVSSSubsystem] .[hidden].> US
[UISubsystem] -down.> OVA
[UISubsystem] .down.> LVA
[UISubsystem] ..> SA
@enduml

PlantUML version 1.2018.01(Mon Jan 29 02:08:22 CST 2018)
(GPL source distribution)
Java Runtime: Java(TM) SE Runtime Environment
JVM: Java HotSpot(TM) 64-Bit Server VM
Java Version: 9+181
Operating System: Mac OS X
OS Version: 10.12.6
Default Encoding: UTF-8
Language: zh
Country: CN
--></g></svg>