<?xml version="1.0" encoding="UTF-8" standalone="no"?><svg xmlns="http://www.w3.org/2000/svg" xmlns:xlink="http://www.w3.org/1999/xlink" contentScriptType="application/ecmascript" contentStyleType="text/css" height="526px" preserveAspectRatio="none" style="width:738px;height:526px;" version="1.1" viewBox="0 0 738 526"
    width="738px" zoomAndPan="magnify"><defs><filter height="300%" id="f1u9ps622yxdlr" width="300%" x="-1" y="-1"><feGaussianBlur result="blurOut" stdDeviation="2.0"/><feColorMatrix in="blurOut" result="blurOut2" type="matrix" values="0 0 0 0 0 0 0 0 0 0 0 0 0 0 0 0 0 0 .4 0"/><feOffset dx="4.0" dy="4.0" in="blurOut2" result="blurOut3"/><feBlend in="SourceGraphic" in2="blurOut3" mode="normal"/></filter></defs><g><rect fill="#FFFFFF" filter="url(#f1u9ps622yxdlr)" height="247.4844" style="stroke: #000000; stroke-width: 2.0;" width="602" x="115" y="250.041"/><rect fill="#FFFFFF" filter="url(#f1u9ps622yxdlr)" height="46.6211" style="stroke: #000000; stroke-width: 2.0;" width="323" x="264" y="385.2832"/><line style="stroke: #A80036; stroke-width: 1.0; stroke-dasharray: 5.0,5.0;" x1="26" x2="26" y1="86.4883" y2="514.5254"/><line style="stroke: #A80036; stroke-width: 1.0; stroke-dasharray: 5.0,5.0;" x1="206" x2="206" y1="86.4883" y2="514.5254"/><line style="stroke: #A80036; stroke-width: 1.0; stroke-dasharray: 5.0,5.0;" x1="368" x2="368" y1="86.4883" y2="514.5254"/><line style="stroke: #A80036; stroke-width: 1.0; stroke-dasharray: 5.0,5.0;" x1="596.5" x2="596.5" y1="86.4883" y2="514.5254"/><line style="stroke: #A80036; stroke-width: 1.0; stroke-dasharray: 5.0,5.0;" x1="681" x2="681" y1="86.4883" y2="514.5254"/><text fill="#000000" font-family="sans-serif" font-size="14" lengthAdjust="spacingAndGlyphs" text-decoration="underline" textLength="31" x="8" y="83.5352">User</text><line style="stroke: #000000; stroke-width: 1.0;" x1="8" x2="39" y1="85.5352" y2="85.5352"/><ellipse cx="26.5" cy="13" fill="#FEFECE" filter="url(#f1u9ps622yxdlr)" rx="8" ry="8" style="stroke: #A80036; stroke-width: 2.0;"/><path d="M26.5,21 L26.5,48 M13.5,29 L39.5,29 M26.5,48 L13.5,63 M26.5,48 L39.5,63 " fill="none" filter="url(#f1u9ps622yxdlr)" style="stroke: #A80036; stroke-width: 2.0;"/><rect fill="#FEFECE" filter="url(#f1u9ps622yxdlr)" height="30.4883" style="stroke: #A80036; stroke-width: 1.5;" width="111" x="149" y="51"/><text fill="#000000" font-family="sans-serif" font-size="14" lengthAdjust="spacingAndGlyphs" text-decoration="underline" textLength="97" x="156" y="71.5352">:LocalVSSPage</text><line style="stroke: #000000; stroke-width: 1.0;" x1="156" x2="253" y1="73.5352" y2="73.5352"/><rect fill="#FEFECE" filter="url(#f1u9ps622yxdlr)" height="30.4883" style="stroke: #A80036; stroke-width: 1.5;" width="184" x="274" y="51"/><text fill="#000000" font-family="sans-serif" font-size="14" lengthAdjust="spacingAndGlyphs" text-decoration="underline" textLength="170" x="281" y="71.5352">:LocalSoundSpaceLibrary</text><line style="stroke: #000000; stroke-width: 1.0;" x1="281" x2="451" y1="73.5352" y2="73.5352"/><rect fill="#FEFECE" filter="url(#f1u9ps622yxdlr)" height="30.4883" style="stroke: #A80036; stroke-width: 1.5;" width="63" x="563.5" y="51"/><text fill="#000000" font-family="sans-serif" font-size="14" lengthAdjust="spacingAndGlyphs" text-decoration="underline" textLength="49" x="570.5" y="71.5352">control</text><line style="stroke: #000000; stroke-width: 1.0;" x1="570.5" x2="619.5" y1="73.5352" y2="73.5352"/><rect fill="#FEFECE" filter="url(#f1u9ps622yxdlr)" height="30.4883" style="stroke: #A80036; stroke-width: 1.5;" width="48" x="655" y="51"/><text fill="#000000" font-family="sans-serif" font-size="14" lengthAdjust="spacingAndGlyphs" text-decoration="underline" textLength="34" x="662" y="71.5352">page</text><line style="stroke: #000000; stroke-width: 1.0;" x1="662" x2="696" y1="73.5352" y2="73.5352"/><polygon fill="#A80036" points="194.5,113.4883,204.5,117.4883,194.5,121.4883,198.5,117.4883" style="stroke: #A80036; stroke-width: 1.0;"/><line style="stroke: #A80036; stroke-width: 1.0;" x1="26.5" x2="200.5" y1="117.4883" y2="117.4883"/><text fill="#000000" font-family="sans-serif" font-size="13" lengthAdjust="spacingAndGlyphs" textLength="156" x="33.5" y="113.0566">onUploadButtonClicked()</text><polygon fill="#A80036" points="356,142.7988,366,146.7988,356,150.7988,360,146.7988" style="stroke: #A80036; stroke-width: 1.0;"/><line style="stroke: #A80036; stroke-width: 1.0;" x1="206.5" x2="362" y1="146.7988" y2="146.7988"/><text fill="#000000" font-family="sans-serif" font-size="13" lengthAdjust="spacingAndGlyphs" textLength="132" x="213.5" y="142.3672">uploadVSS(whichVSS)</text><polygon fill="#A80036" points="379,172.1094,369,176.1094,379,180.1094,375,176.1094" style="stroke: #A80036; stroke-width: 1.0;"/><line style="stroke: #A80036; stroke-width: 1.0;" x1="373" x2="596" y1="176.1094" y2="176.1094"/><text fill="#000000" font-family="sans-serif" font-size="13" lengthAdjust="spacingAndGlyphs" textLength="136" x="385" y="171.6777">beamMeUp(whichVSS)</text><polygon fill="#A80036" points="715,201.4199,725,205.4199,715,209.4199,719,205.4199" style="stroke: #A80036; stroke-width: 1.0;"/><line style="stroke: #A80036; stroke-width: 1.0;" x1="368" x2="721" y1="205.4199" y2="205.4199"/><text fill="#000000" font-family="sans-serif" font-size="13" lengthAdjust="spacingAndGlyphs" textLength="284" x="375" y="200.9883">UploadRequest(VSSID:int, UserID:int):boolean</text><polygon fill="#A80036" points="379,230.7305,369,234.7305,379,238.7305,375,234.7305" style="stroke: #A80036; stroke-width: 1.0;"/><line style="stroke: #A80036; stroke-width: 1.0; stroke-dasharray: 2.0,2.0;" x1="373" x2="726" y1="234.7305" y2="234.7305"/><text fill="#000000" font-family="sans-serif" font-size="13" lengthAdjust="spacingAndGlyphs" textLength="60" x="385" y="230.2988">Response</text><path d="M115,250.041 L177,250.041 L177,257.041 L167,267.041 L115,267.041 L115,250.041 " fill="#EEEEEE" style="stroke: #000000; stroke-width: 1.0;"/><rect fill="none" height="247.4844" style="stroke: #000000; stroke-width: 2.0;" width="602" x="115" y="250.041"/><text fill="#000000" font-family="sans-serif" font-size="13" font-weight="bold" lengthAdjust="spacingAndGlyphs" textLength="17" x="130" y="263.6094">alt</text><text fill="#000000" font-family="sans-serif" font-size="11" font-weight="bold" lengthAdjust="spacingAndGlyphs" textLength="105" x="192" y="262.6758">[Response is True]</text><line style="stroke: #A80036; stroke-width: 1.0;" x1="368" x2="410" y1="288.6621" y2="288.6621"/><line style="stroke: #A80036; stroke-width: 1.0;" x1="410" x2="410" y1="288.6621" y2="301.6621"/><line style="stroke: #A80036; stroke-width: 1.0;" x1="369" x2="410" y1="301.6621" y2="301.6621"/><polygon fill="#A80036" points="379,297.6621,369,301.6621,379,305.6621,375,301.6621" style="stroke: #A80036; stroke-width: 1.0;"/><text fill="#000000" font-family="sans-serif" font-size="13" lengthAdjust="spacingAndGlyphs" textLength="215" x="375" y="283.9199">GetSFList(whichVSS):list&lt;SFHash&gt;</text><polygon fill="#A80036" points="715,326.6621,725,330.6621,715,334.6621,719,330.6621" style="stroke: #A80036; stroke-width: 1.0;"/><line style="stroke: #A80036; stroke-width: 1.0;" x1="368" x2="721" y1="330.6621" y2="330.6621"/><text fill="#000000" font-family="sans-serif" font-size="13" lengthAdjust="spacingAndGlyphs" textLength="278" x="375" y="326.2305">UploadRequest(list&lt;SFHash&gt;):list&lt;SFHash&gt;</text><polygon fill="#A80036" points="379,360.9727,369,364.9727,379,368.9727,375,364.9727" style="stroke: #A80036; stroke-width: 1.0;"/><line style="stroke: #A80036; stroke-width: 1.0; stroke-dasharray: 2.0,2.0;" x1="373" x2="726" y1="364.9727" y2="364.9727"/><text fill="#000000" font-family="sans-serif" font-size="13" lengthAdjust="spacingAndGlyphs" textLength="79" x="385" y="360.541">MisssionList</text><path d="M125,343.9727 L125,368.9727 L359,368.9727 L359,353.9727 L349,343.9727 L125,343.9727 " fill="#FBFB77" filter="url(#f1u9ps622yxdlr)" style="stroke: #A80036; stroke-width: 1.0;"/><path d="M349,343.9727 L349,353.9727 L359,353.9727 L349,343.9727 " fill="#FBFB77" style="stroke: #A80036; stroke-width: 1.0;"/><text fill="#000000" font-family="sans-serif" font-size="13" lengthAdjust="spacingAndGlyphs" textLength="213" x="131" y="361.541">每上传成功一个任务push掉一个任务</text><path d="M264,385.2832 L338,385.2832 L338,392.2832 L328,402.2832 L264,402.2832 L264,385.2832 " fill="#EEEEEE" style="stroke: #000000; stroke-width: 1.0;"/><rect fill="none" height="46.6211" style="stroke: #000000; stroke-width: 2.0;" width="323" x="264" y="385.2832"/><text fill="#000000" font-family="sans-serif" font-size="13" font-weight="bold" lengthAdjust="spacingAndGlyphs" textLength="29" x="279" y="398.8516">loop</text><text fill="#000000" font-family="sans-serif" font-size="11" font-weight="bold" lengthAdjust="spacingAndGlyphs" textLength="100" x="353" y="397.918">[list is not empty]</text><polygon fill="#A80036" points="715,419.5938,725,423.5938,715,427.5938,719,423.5938" style="stroke: #A80036; stroke-width: 1.0;"/><line style="stroke: #A80036; stroke-width: 1.0;" x1="368" x2="721" y1="423.5938" y2="423.5938"/><text fill="#000000" font-family="sans-serif" font-size="13" lengthAdjust="spacingAndGlyphs" textLength="198" x="375" y="419.1621">UploadRequest(SFAddress):void</text><polygon fill="#A80036" points="585,455.9043,595,459.9043,585,463.9043,589,459.9043" style="stroke: #A80036; stroke-width: 1.0;"/><line style="stroke: #A80036; stroke-width: 1.0;" x1="368" x2="591" y1="459.9043" y2="459.9043"/><text fill="#000000" font-family="sans-serif" font-size="13" lengthAdjust="spacingAndGlyphs" textLength="60" x="375" y="455.4727">Response</text><polygon fill="#A80036" points="669,485.2148,679,489.2148,669,493.2148,673,489.2148" style="stroke: #A80036; stroke-width: 1.0;"/><line style="stroke: #A80036; stroke-width: 1.0;" x1="597" x2="675" y1="489.2148" y2="489.2148"/><text fill="#000000" font-family="sans-serif" font-size="13" lengthAdjust="spacingAndGlyphs" textLength="60" x="604" y="484.7832">Response</text><!--
@startuml Diagrams/UploadVSS
hide footbox
skinparam sequenceParticipant underline

actor User as user
participant ":LocalVSSPage" as viewModel
participant ":LocalSoundSpaceLibrary" as library

user -> viewModel: onUploadButtonClicked()
viewModel -> library: uploadVSS(whichVSS)
control -> library: beamMeUp(whichVSS)
library->:UploadRequest(VSSID:int, UserID:int):boolean
library<- -:Response
alt Response is True
  library -> library: GetSFList(whichVSS):list<SFHash>
  library->:UploadRequest(list<SFHash>):list<SFHash>
  library<- -:MisssionList
  loop list is not empty
  note left:每上传成功一个任务push掉一个任务
    library->:UploadRequest(SFAddress):void
  end
  library->control:Response
  control->page:Response
end
@enduml

PlantUML version 1.2018.01(Mon Jan 29 02:08:22 CST 2018)
(GPL source distribution)
Java Runtime: Java(TM) SE Runtime Environment
JVM: Java HotSpot(TM) 64-Bit Server VM
Java Version: 9+181
Operating System: Mac OS X
OS Version: 10.12.6
Default Encoding: UTF-8
Language: zh
Country: CN
--></g></svg>