<?xml version="1.0" encoding="UTF-8" standalone="no"?><svg xmlns="http://www.w3.org/2000/svg" xmlns:xlink="http://www.w3.org/1999/xlink" contentScriptType="application/ecmascript" contentStyleType="text/css" height="683px" preserveAspectRatio="none" style="width:1068px;height:683px;" version="1.1" viewBox="0 0 1068 683"
    width="1068px" zoomAndPan="magnify"><defs><filter height="300%" id="fb186vby44jaz" width="300%" x="-1" y="-1"><feGaussianBlur result="blurOut" stdDeviation="2.0"/><feColorMatrix in="blurOut" result="blurOut2" type="matrix" values="0 0 0 0 0 0 0 0 0 0 0 0 0 0 0 0 0 0 .4 0"/><feOffset dx="4.0" dy="4.0" in="blurOut2" result="blurOut3"/><feBlend in="SourceGraphic" in2="blurOut3" mode="normal"/></filter></defs><g><text fill="#000000" font-family="sans-serif" font-size="14" font-weight="bold" lengthAdjust="spacingAndGlyphs" textLength="76" x="497" y="23.5352">UploadVSS</text><rect fill="#FEFECE" filter="url(#fb186vby44jaz)" height="30.4883" style="stroke: #A80036; stroke-width: 1.5;" width="142" x="654" y="156.2871"/><text fill="#000000" font-family="sans-serif" font-size="14" lengthAdjust="spacingAndGlyphs" text-decoration="underline" textLength="128" x="661" y="176.8223">:WebServerControl</text><line style="stroke: #000000; stroke-width: 1.0;" x1="661" x2="789" y1="178.8223" y2="178.8223"/><rect fill="#FFFFFF" filter="url(#fb186vby44jaz)" height="105.2422" style="stroke: #000000; stroke-width: 2.0;" width="1044" x="13" y="531.1914"/><line style="stroke: #A80036; stroke-width: 1.0; stroke-dasharray: 5.0,5.0;" x1="111" x2="111" y1="116.9766" y2="671.4336"/><line style="stroke: #A80036; stroke-width: 1.0; stroke-dasharray: 5.0,5.0;" x1="419" x2="419" y1="116.9766" y2="671.4336"/><line style="stroke: #A80036; stroke-width: 1.0; stroke-dasharray: 5.0,5.0;" x1="727" x2="727" y1="189.0313" y2="671.4336"/><line style="stroke: #A80036; stroke-width: 1.0; stroke-dasharray: 5.0,5.0;" x1="982" x2="982" y1="116.9766" y2="671.4336"/><text fill="#000000" font-family="sans-serif" font-size="14" lengthAdjust="spacingAndGlyphs" text-decoration="underline" textLength="170" x="23" y="114.0234">:LocalSoundSpaceLibrary</text><line style="stroke: #000000; stroke-width: 1.0;" x1="23" x2="193" y1="116.0234" y2="116.0234"/><ellipse cx="111" cy="43.4883" fill="#FEFECE" filter="url(#fb186vby44jaz)" rx="8" ry="8" style="stroke: #A80036; stroke-width: 2.0;"/><path d="M111,51.4883 L111,78.4883 M98,59.4883 L124,59.4883 M111,78.4883 L98,93.4883 M111,78.4883 L124,93.4883 " fill="none" filter="url(#fb186vby44jaz)" style="stroke: #A80036; stroke-width: 2.0;"/><rect fill="#FEFECE" filter="url(#fb186vby44jaz)" height="30.4883" style="stroke: #A80036; stroke-width: 1.5;" width="120" x="357" y="81.4883"/><text fill="#000000" font-family="sans-serif" font-size="14" lengthAdjust="spacingAndGlyphs" text-decoration="underline" textLength="106" x="364" y="102.0234">:Communicator</text><line style="stroke: #000000; stroke-width: 1.0;" x1="364" x2="470" y1="104.0234" y2="104.0234"/><rect fill="#FEFECE" filter="url(#fb186vby44jaz)" height="30.4883" style="stroke: #A80036; stroke-width: 1.5;" width="126" x="917" y="81.4883"/><text fill="#000000" font-family="sans-serif" font-size="14" lengthAdjust="spacingAndGlyphs" text-decoration="underline" textLength="112" x="924" y="102.0234">:DatabaseHelper</text><line style="stroke: #000000; stroke-width: 1.0;" x1="924" x2="1036" y1="104.0234" y2="104.0234"/><polygon fill="#A80036" points="407,143.9766,417,147.9766,407,151.9766,411,147.9766" style="stroke: #A80036; stroke-width: 1.0;"/><line style="stroke: #A80036; stroke-width: 1.0;" x1="111" x2="413" y1="147.9766" y2="147.9766"/><text fill="#000000" font-family="sans-serif" font-size="13" lengthAdjust="spacingAndGlyphs" textLength="284" x="118" y="143.5449">UploadRequest(VSSID:int, UserID:int):boolean</text><polygon fill="#A80036" points="642,173.2871,652,177.2871,642,181.2871,646,177.2871" style="stroke: #A80036; stroke-width: 1.0;"/><line style="stroke: #A80036; stroke-width: 1.0;" x1="419" x2="648" y1="177.2871" y2="177.2871"/><text fill="#000000" font-family="sans-serif" font-size="13" lengthAdjust="spacingAndGlyphs" textLength="78" x="426" y="172.8555">&lt;&lt;create&gt;&gt;</text><rect fill="#FEFECE" filter="url(#fb186vby44jaz)" height="30.4883" style="stroke: #A80036; stroke-width: 1.5;" width="142" x="654" y="156.2871"/><text fill="#000000" font-family="sans-serif" font-size="14" lengthAdjust="spacingAndGlyphs" text-decoration="underline" textLength="128" x="661" y="176.8223">:WebServerControl</text><line style="stroke: #000000; stroke-width: 1.0;" x1="661" x2="789" y1="178.8223" y2="178.8223"/><polygon fill="#A80036" points="715,218.7754,725,222.7754,715,226.7754,719,222.7754" style="stroke: #A80036; stroke-width: 1.0;"/><line style="stroke: #A80036; stroke-width: 1.0;" x1="419" x2="721" y1="222.7754" y2="222.7754"/><text fill="#000000" font-family="sans-serif" font-size="13" lengthAdjust="spacingAndGlyphs" textLength="284" x="426" y="218.3438">UploadRequest(VSSID:int, UserID:int):boolean</text><polygon fill="#A80036" points="970,248.0859,980,252.0859,970,256.0859,974,252.0859" style="stroke: #A80036; stroke-width: 1.0;"/><line style="stroke: #A80036; stroke-width: 1.0;" x1="727" x2="976" y1="252.0859" y2="252.0859"/><text fill="#000000" font-family="sans-serif" font-size="13" lengthAdjust="spacingAndGlyphs" textLength="231" x="734" y="247.6543">Search(VSSID:int, UserID:int):boolean</text><polygon fill="#A80036" points="738,277.3965,728,281.3965,738,285.3965,734,281.3965" style="stroke: #A80036; stroke-width: 1.0;"/><line style="stroke: #A80036; stroke-width: 1.0; stroke-dasharray: 2.0,2.0;" x1="732" x2="981" y1="281.3965" y2="281.3965"/><text fill="#000000" font-family="sans-serif" font-size="13" lengthAdjust="spacingAndGlyphs" textLength="60" x="744" y="276.9648">Response</text><polygon fill="#A80036" points="430,306.707,420,310.707,430,314.707,426,310.707" style="stroke: #A80036; stroke-width: 1.0;"/><line style="stroke: #A80036; stroke-width: 1.0; stroke-dasharray: 2.0,2.0;" x1="424" x2="726" y1="310.707" y2="310.707"/><text fill="#000000" font-family="sans-serif" font-size="13" lengthAdjust="spacingAndGlyphs" textLength="60" x="436" y="306.2754">Response</text><polygon fill="#A80036" points="122,336.0176,112,340.0176,122,344.0176,118,340.0176" style="stroke: #A80036; stroke-width: 1.0;"/><line style="stroke: #A80036; stroke-width: 1.0; stroke-dasharray: 2.0,2.0;" x1="116" x2="418" y1="340.0176" y2="340.0176"/><text fill="#000000" font-family="sans-serif" font-size="13" lengthAdjust="spacingAndGlyphs" textLength="60" x="128" y="335.5859">Response</text><polygon fill="#A80036" points="407,365.3281,417,369.3281,407,373.3281,411,369.3281" style="stroke: #A80036; stroke-width: 1.0;"/><line style="stroke: #A80036; stroke-width: 1.0;" x1="111" x2="413" y1="369.3281" y2="369.3281"/><text fill="#000000" font-family="sans-serif" font-size="13" lengthAdjust="spacingAndGlyphs" textLength="278" x="118" y="364.8965">UploadRequest(list&lt;SFHash&gt;):list&lt;SFHash&gt;</text><polygon fill="#A80036" points="715,394.6387,725,398.6387,715,402.6387,719,398.6387" style="stroke: #A80036; stroke-width: 1.0;"/><line style="stroke: #A80036; stroke-width: 1.0;" x1="419" x2="721" y1="398.6387" y2="398.6387"/><text fill="#000000" font-family="sans-serif" font-size="13" lengthAdjust="spacingAndGlyphs" textLength="278" x="426" y="394.207">UploadRequest(list&lt;SFHash&gt;):list&lt;SFHash&gt;</text><polygon fill="#A80036" points="970,423.9492,980,427.9492,970,431.9492,974,427.9492" style="stroke: #A80036; stroke-width: 1.0;"/><line style="stroke: #A80036; stroke-width: 1.0;" x1="727" x2="976" y1="427.9492" y2="427.9492"/><text fill="#000000" font-family="sans-serif" font-size="13" lengthAdjust="spacingAndGlyphs" textLength="216" x="734" y="423.5176">Filter(list&lt;SFHash&gt;):list&lt;SFHash&gt;</text><polygon fill="#A80036" points="738,453.2598,728,457.2598,738,461.2598,734,457.2598" style="stroke: #A80036; stroke-width: 1.0;"/><line style="stroke: #A80036; stroke-width: 1.0; stroke-dasharray: 2.0,2.0;" x1="732" x2="981" y1="457.2598" y2="457.2598"/><text fill="#000000" font-family="sans-serif" font-size="13" lengthAdjust="spacingAndGlyphs" textLength="79" x="744" y="452.8281">MisssionList</text><polygon fill="#A80036" points="430,482.5703,420,486.5703,430,490.5703,426,486.5703" style="stroke: #A80036; stroke-width: 1.0;"/><line style="stroke: #A80036; stroke-width: 1.0; stroke-dasharray: 2.0,2.0;" x1="424" x2="726" y1="486.5703" y2="486.5703"/><text fill="#000000" font-family="sans-serif" font-size="13" lengthAdjust="spacingAndGlyphs" textLength="79" x="436" y="482.1387">MisssionList</text><polygon fill="#A80036" points="122,511.8809,112,515.8809,122,519.8809,118,515.8809" style="stroke: #A80036; stroke-width: 1.0;"/><line style="stroke: #A80036; stroke-width: 1.0; stroke-dasharray: 2.0,2.0;" x1="116" x2="418" y1="515.8809" y2="515.8809"/><text fill="#000000" font-family="sans-serif" font-size="13" lengthAdjust="spacingAndGlyphs" textLength="79" x="128" y="511.4492">MisssionList</text><path d="M13,531.1914 L87,531.1914 L87,538.1914 L77,548.1914 L13,548.1914 L13,531.1914 " fill="#EEEEEE" style="stroke: #000000; stroke-width: 1.0;"/><rect fill="none" height="105.2422" style="stroke: #000000; stroke-width: 2.0;" width="1044" x="13" y="531.1914"/><text fill="#000000" font-family="sans-serif" font-size="13" font-weight="bold" lengthAdjust="spacingAndGlyphs" textLength="29" x="28" y="544.7598">loop</text><polygon fill="#A80036" points="407,565.502,417,569.502,407,573.502,411,569.502" style="stroke: #A80036; stroke-width: 1.0;"/><line style="stroke: #A80036; stroke-width: 1.0;" x1="111" x2="413" y1="569.502" y2="569.502"/><text fill="#000000" font-family="sans-serif" font-size="13" lengthAdjust="spacingAndGlyphs" textLength="198" x="118" y="565.0703">UploadRequest(SFAddress):void</text><polygon fill="#A80036" points="715,594.8125,725,598.8125,715,602.8125,719,598.8125" style="stroke: #A80036; stroke-width: 1.0;"/><line style="stroke: #A80036; stroke-width: 1.0;" x1="419" x2="721" y1="598.8125" y2="598.8125"/><text fill="#000000" font-family="sans-serif" font-size="13" lengthAdjust="spacingAndGlyphs" textLength="147" x="426" y="594.3809">UploadRequest(SF):void</text><polygon fill="#A80036" points="970,624.123,980,628.123,970,632.123,974,628.123" style="stroke: #A80036; stroke-width: 1.0;"/><line style="stroke: #A80036; stroke-width: 1.0;" x1="727" x2="976" y1="628.123" y2="628.123"/><text fill="#000000" font-family="sans-serif" font-size="13" lengthAdjust="spacingAndGlyphs" textLength="170" x="734" y="623.6914">Update(VSSInfor:JSON):void</text><line style="stroke: #A80036; stroke-width: 2.0;" x1="718" x2="736" y1="643.4336" y2="661.4336"/><line style="stroke: #A80036; stroke-width: 2.0;" x1="718" x2="736" y1="661.4336" y2="643.4336"/><!--
@startuml Diagrams/UploadVSSServerSequenceDiagram
title UploadVSS
hide footbox
skinparam sequenceParticipant underline
actor ":LocalSoundSpaceLibrary" as Client
participant ":Communicator" as Communicator
participant ":WebServerControl" as WebServer
participant ":DatabaseHelper" as VSSInformationDatabase
Client->Communicator:UploadRequest(VSSID:int, UserID:int):boolean
create WebServer
Communicator->WebServer:<<create>>
Communicator->WebServer:UploadRequest(VSSID:int, UserID:int):boolean
WebServer->VSSInformationDatabase:Search(VSSID:int, UserID:int):boolean
VSSInformationDatabase- ->WebServer:Response
WebServer- ->Communicator:Response
Communicator- ->Client:Response
Client->Communicator:UploadRequest(list<SFHash>):list<SFHash>
Communicator->WebServer:UploadRequest(list<SFHash>):list<SFHash>
WebServer->VSSInformationDatabase:Filter(list<SFHash>):list<SFHash>
VSSInformationDatabase- ->WebServer:MisssionList
WebServer- ->Communicator:MisssionList
Communicator- ->Client:MisssionList
loop
  Client->Communicator:UploadRequest(SFAddress):void
  Communicator->WebServer:UploadRequest(SF):void
  WebServer->VSSInformationDatabase:Update(VSSInfor:JSON):void
end
destroy WebServer
@enduml

PlantUML version 1.2018.01(Mon Jan 29 02:08:22 CST 2018)
(GPL source distribution)
Java Runtime: Java(TM) SE Runtime Environment
JVM: Java HotSpot(TM) 64-Bit Server VM
Java Version: 9+181
Operating System: Mac OS X
OS Version: 10.12.6
Default Encoding: UTF-8
Language: zh
Country: CN
--></g></svg>