<?xml version="1.0" encoding="UTF-8" standalone="no"?><svg xmlns="http://www.w3.org/2000/svg" xmlns:xlink="http://www.w3.org/1999/xlink" contentScriptType="application/ecmascript" contentStyleType="text/css" height="871px" preserveAspectRatio="none" style="width:1932px;height:871px;" version="1.1" viewBox="0 0 1932 871"
    width="1932px" zoomAndPan="magnify"><defs><filter height="300%" id="f1azbs4dzgmm9v" width="300%" x="-1" y="-1"><feGaussianBlur result="blurOut" stdDeviation="2.0"/><feColorMatrix in="blurOut" result="blurOut2" type="matrix" values="0 0 0 0 0 0 0 0 0 0 0 0 0 0 0 0 0 0 .4 0"/><feOffset dx="4.0" dy="4.0" in="blurOut2" result="blurOut3"/><feBlend in="SourceGraphic" in2="blurOut3" mode="normal"/></filter></defs><g><!--class RegisterPage--><rect fill="#ADD8E6" filter="url(#f1azbs4dzgmm9v)" height="54.2656" id="RegisterPage" style="stroke: #0000FF; stroke-width: 1.5;" width="107" x="136" y="350"/><ellipse cx="151" cy="369.1328" fill="#ADD1B2" rx="11" ry="11" style="stroke: #0000FF; stroke-width: 1.0;"/><path d="M153.9731,374.7759 Q153.3921,375.0747 152.7529,375.2241 Q152.1138,375.3735 151.4082,375.3735 Q148.9014,375.3735 147.5815,373.7217 Q146.2617,372.0698 146.2617,368.9487 Q146.2617,365.8193 147.5815,364.1675 Q148.9014,362.5156 151.4082,362.5156 Q152.1138,362.5156 152.7612,362.665 Q153.4087,362.8145 153.9731,363.1133 L153.9731,365.8359 Q153.3423,365.2549 152.7488,364.9851 Q152.1553,364.7153 151.5244,364.7153 Q150.1797,364.7153 149.4949,365.782 Q148.8101,366.8486 148.8101,368.9487 Q148.8101,371.0405 149.4949,372.1072 Q150.1797,373.1738 151.5244,373.1738 Q152.1553,373.1738 152.7488,372.9041 Q153.3423,372.6343 153.9731,372.0532 Z "/><text fill="#000000" font-family="sans-serif" font-size="12" font-style="italic" lengthAdjust="spacingAndGlyphs" textLength="67" x="169" y="366.6016">«boundary»</text><text fill="#000000" font-family="sans-serif" font-size="12" lengthAdjust="spacingAndGlyphs" textLength="75" x="165" y="380.7344">RegisterPage</text><line style="stroke: #0000FF; stroke-width: 1.5;" x1="137" x2="242" y1="388.2656" y2="388.2656"/><line style="stroke: #0000FF; stroke-width: 1.5;" x1="137" x2="242" y1="396.2656" y2="396.2656"/><!--class UserInfoControl--><rect fill="#D3D3D3" filter="url(#f1azbs4dzgmm9v)" height="54.2656" id="UserInfoControl" style="stroke: #FF0000; stroke-width: 1.5;" width="120" x="61.5" y="464"/><ellipse cx="76.5" cy="483.1328" fill="#ADD1B2" rx="11" ry="11" style="stroke: #FF0000; stroke-width: 1.0;"/><path d="M79.4731,488.7759 Q78.8921,489.0747 78.2529,489.2241 Q77.6138,489.3735 76.9082,489.3735 Q74.4014,489.3735 73.0815,487.7217 Q71.7617,486.0698 71.7617,482.9487 Q71.7617,479.8193 73.0815,478.1675 Q74.4014,476.5156 76.9082,476.5156 Q77.6138,476.5156 78.2612,476.665 Q78.9087,476.8145 79.4731,477.1133 L79.4731,479.8359 Q78.8423,479.2549 78.2488,478.9851 Q77.6553,478.7153 77.0244,478.7153 Q75.6797,478.7153 74.9949,479.782 Q74.3101,480.8486 74.3101,482.9487 Q74.3101,485.0405 74.9949,486.1072 Q75.6797,487.1738 77.0244,487.1738 Q77.6553,487.1738 78.2488,486.9041 Q78.8423,486.6343 79.4731,486.0532 Z "/><text fill="#000000" font-family="sans-serif" font-size="12" font-style="italic" lengthAdjust="spacingAndGlyphs" textLength="51" x="109" y="480.6016">«control»</text><text fill="#000000" font-family="sans-serif" font-size="12" lengthAdjust="spacingAndGlyphs" textLength="88" x="90.5" y="494.7344">UserInfoControl</text><line style="stroke: #FF0000; stroke-width: 1.5;" x1="62.5" x2="180.5" y1="502.2656" y2="502.2656"/><line style="stroke: #FF0000; stroke-width: 1.5;" x1="62.5" x2="180.5" y1="510.2656" y2="510.2656"/><!--class LocalVSSManagerPage--><rect fill="#ADD8E6" filter="url(#f1azbs4dzgmm9v)" height="54.2656" id="LocalVSSManagerPage" style="stroke: #0000FF; stroke-width: 1.5;" width="159" x="1046" y="350"/><ellipse cx="1061" cy="369.1328" fill="#ADD1B2" rx="11" ry="11" style="stroke: #0000FF; stroke-width: 1.0;"/><path d="M1063.9731,374.7759 Q1063.3921,375.0747 1062.7529,375.2241 Q1062.1138,375.3735 1061.4082,375.3735 Q1058.9014,375.3735 1057.5815,373.7217 Q1056.2617,372.0698 1056.2617,368.9487 Q1056.2617,365.8193 1057.5815,364.1675 Q1058.9014,362.5156 1061.4082,362.5156 Q1062.1138,362.5156 1062.7612,362.665 Q1063.4087,362.8145 1063.9731,363.1133 L1063.9731,365.8359 Q1063.3423,365.2549 1062.7488,364.9851 Q1062.1553,364.7153 1061.5244,364.7153 Q1060.1797,364.7153 1059.4949,365.782 Q1058.8101,366.8486 1058.8101,368.9487 Q1058.8101,371.0405 1059.4949,372.1072 Q1060.1797,373.1738 1061.5244,373.1738 Q1062.1553,373.1738 1062.7488,372.9041 Q1063.3423,372.6343 1063.9731,372.0532 Z "/><text fill="#000000" font-family="sans-serif" font-size="12" font-style="italic" lengthAdjust="spacingAndGlyphs" textLength="67" x="1105" y="366.6016">«boundary»</text><text fill="#000000" font-family="sans-serif" font-size="12" lengthAdjust="spacingAndGlyphs" textLength="127" x="1075" y="380.7344">LocalVSSManagerPage</text><line style="stroke: #0000FF; stroke-width: 1.5;" x1="1047" x2="1204" y1="388.2656" y2="388.2656"/><line style="stroke: #0000FF; stroke-width: 1.5;" x1="1047" x2="1204" y1="396.2656" y2="396.2656"/><!--class User--><rect fill="#FFFFE0" filter="url(#f1azbs4dzgmm9v)" height="54.2656" id="User" style="stroke: #FFFF00; stroke-width: 1.5;" width="71" x="86" y="578"/><ellipse cx="101" cy="597.1328" fill="#ADD1B2" rx="11" ry="11" style="stroke: #FFFF00; stroke-width: 1.0;"/><path d="M103.9731,602.7759 Q103.3921,603.0747 102.7529,603.2241 Q102.1138,603.3735 101.4082,603.3735 Q98.9014,603.3735 97.5815,601.7217 Q96.2617,600.0698 96.2617,596.9487 Q96.2617,593.8193 97.5815,592.1675 Q98.9014,590.5156 101.4082,590.5156 Q102.1138,590.5156 102.7612,590.665 Q103.4087,590.8145 103.9731,591.1133 L103.9731,593.8359 Q103.3423,593.2549 102.7488,592.9851 Q102.1553,592.7153 101.5244,592.7153 Q100.1797,592.7153 99.4949,593.782 Q98.8101,594.8486 98.8101,596.9487 Q98.8101,599.0405 99.4949,600.1072 Q100.1797,601.1738 101.5244,601.1738 Q102.1553,601.1738 102.7488,600.9041 Q103.3423,600.6343 103.9731,600.0532 Z "/><text fill="#000000" font-family="sans-serif" font-size="12" font-style="italic" lengthAdjust="spacingAndGlyphs" textLength="43" x="113" y="594.6016">«entity»</text><text fill="#000000" font-family="sans-serif" font-size="12" lengthAdjust="spacingAndGlyphs" textLength="26" x="121.5" y="608.7344">User</text><line style="stroke: #FFFF00; stroke-width: 1.5;" x1="87" x2="156" y1="616.2656" y2="616.2656"/><line style="stroke: #FFFF00; stroke-width: 1.5;" x1="87" x2="156" y1="624.2656" y2="624.2656"/><!--class LoginPage--><rect fill="#ADD8E6" filter="url(#f1azbs4dzgmm9v)" height="54.2656" id="LoginPage" style="stroke: #0000FF; stroke-width: 1.5;" width="95" x="6" y="350"/><ellipse cx="21" cy="369.1328" fill="#ADD1B2" rx="11" ry="11" style="stroke: #0000FF; stroke-width: 1.0;"/><path d="M23.9731,374.7759 Q23.3921,375.0747 22.7529,375.2241 Q22.1138,375.3735 21.4082,375.3735 Q18.9014,375.3735 17.5815,373.7217 Q16.2617,372.0698 16.2617,368.9487 Q16.2617,365.8193 17.5815,364.1675 Q18.9014,362.5156 21.4082,362.5156 Q22.1138,362.5156 22.7612,362.665 Q23.4087,362.8145 23.9731,363.1133 L23.9731,365.8359 Q23.3423,365.2549 22.7488,364.9851 Q22.1553,364.7153 21.5244,364.7153 Q20.1797,364.7153 19.4949,365.782 Q18.8101,366.8486 18.8101,368.9487 Q18.8101,371.0405 19.4949,372.1072 Q20.1797,373.1738 21.5244,373.1738 Q22.1553,373.1738 22.7488,372.9041 Q23.3423,372.6343 23.9731,372.0532 Z "/><text fill="#000000" font-family="sans-serif" font-size="12" font-style="italic" lengthAdjust="spacingAndGlyphs" textLength="67" x="33" y="366.6016">«boundary»</text><text fill="#000000" font-family="sans-serif" font-size="12" lengthAdjust="spacingAndGlyphs" textLength="58" x="37.5" y="380.7344">LoginPage</text><line style="stroke: #0000FF; stroke-width: 1.5;" x1="7" x2="100" y1="388.2656" y2="388.2656"/><line style="stroke: #0000FF; stroke-width: 1.5;" x1="7" x2="100" y1="396.2656" y2="396.2656"/><!--class LocalVSSLibraryControl--><rect fill="#D3D3D3" filter="url(#f1azbs4dzgmm9v)" height="54.2656" id="LocalVSSLibraryControl" style="stroke: #FF0000; stroke-width: 1.5;" width="162" x="1044.5" y="464"/><ellipse cx="1059.5" cy="483.1328" fill="#ADD1B2" rx="11" ry="11" style="stroke: #FF0000; stroke-width: 1.0;"/><path d="M1062.4731,488.7759 Q1061.8921,489.0747 1061.2529,489.2241 Q1060.6138,489.3735 1059.9082,489.3735 Q1057.4014,489.3735 1056.0815,487.7217 Q1054.7617,486.0698 1054.7617,482.9487 Q1054.7617,479.8193 1056.0815,478.1675 Q1057.4014,476.5156 1059.9082,476.5156 Q1060.6138,476.5156 1061.2612,476.665 Q1061.9087,476.8145 1062.4731,477.1133 L1062.4731,479.8359 Q1061.8423,479.2549 1061.2488,478.9851 Q1060.6553,478.7153 1060.0244,478.7153 Q1058.6797,478.7153 1057.9949,479.782 Q1057.3101,480.8486 1057.3101,482.9487 Q1057.3101,485.0405 1057.9949,486.1072 Q1058.6797,487.1738 1060.0244,487.1738 Q1060.6553,487.1738 1061.2488,486.9041 Q1061.8423,486.6343 1062.4731,486.0532 Z "/><text fill="#000000" font-family="sans-serif" font-size="12" font-style="italic" lengthAdjust="spacingAndGlyphs" textLength="51" x="1113" y="480.6016">«control»</text><text fill="#000000" font-family="sans-serif" font-size="12" lengthAdjust="spacingAndGlyphs" textLength="130" x="1073.5" y="494.7344">LocalVSSLibraryControl</text><line style="stroke: #FF0000; stroke-width: 1.5;" x1="1045.5" x2="1205.5" y1="502.2656" y2="502.2656"/><line style="stroke: #FF0000; stroke-width: 1.5;" x1="1045.5" x2="1205.5" y1="510.2656" y2="510.2656"/><!--class LocalSoundSpaceLibrary--><rect fill="#FFFFE0" filter="url(#f1azbs4dzgmm9v)" height="54.2656" id="LocalSoundSpaceLibrary" style="stroke: #FFFF00; stroke-width: 1.5;" width="170" x="1032.5" y="578"/><ellipse cx="1047.5" cy="597.1328" fill="#ADD1B2" rx="11" ry="11" style="stroke: #FFFF00; stroke-width: 1.0;"/><path d="M1050.4731,602.7759 Q1049.8921,603.0747 1049.2529,603.2241 Q1048.6138,603.3735 1047.9082,603.3735 Q1045.4014,603.3735 1044.0815,601.7217 Q1042.7617,600.0698 1042.7617,596.9487 Q1042.7617,593.8193 1044.0815,592.1675 Q1045.4014,590.5156 1047.9082,590.5156 Q1048.6138,590.5156 1049.2612,590.665 Q1049.9087,590.8145 1050.4731,591.1133 L1050.4731,593.8359 Q1049.8423,593.2549 1049.2488,592.9851 Q1048.6553,592.7153 1048.0244,592.7153 Q1046.6797,592.7153 1045.9949,593.782 Q1045.3101,594.8486 1045.3101,596.9487 Q1045.3101,599.0405 1045.9949,600.1072 Q1046.6797,601.1738 1048.0244,601.1738 Q1048.6553,601.1738 1049.2488,600.9041 Q1049.8423,600.6343 1050.4731,600.0532 Z "/><text fill="#000000" font-family="sans-serif" font-size="12" font-style="italic" lengthAdjust="spacingAndGlyphs" textLength="43" x="1109" y="594.6016">«entity»</text><text fill="#000000" font-family="sans-serif" font-size="12" lengthAdjust="spacingAndGlyphs" textLength="138" x="1061.5" y="608.7344">LocalSoundSpaceLibrary</text><line style="stroke: #FFFF00; stroke-width: 1.5;" x1="1033.5" x2="1201.5" y1="616.2656" y2="616.2656"/><line style="stroke: #FFFF00; stroke-width: 1.5;" x1="1033.5" x2="1201.5" y1="624.2656" y2="624.2656"/><!--class PreviewLocalMapPage--><rect fill="#ADD8E6" filter="url(#f1azbs4dzgmm9v)" height="54.2656" id="PreviewLocalMapPage" style="stroke: #0000FF; stroke-width: 1.5;" width="158" x="216.5" y="464"/><ellipse cx="231.5" cy="483.1328" fill="#ADD1B2" rx="11" ry="11" style="stroke: #0000FF; stroke-width: 1.0;"/><path d="M234.4731,488.7759 Q233.8921,489.0747 233.2529,489.2241 Q232.6138,489.3735 231.9082,489.3735 Q229.4014,489.3735 228.0815,487.7217 Q226.7617,486.0698 226.7617,482.9487 Q226.7617,479.8193 228.0815,478.1675 Q229.4014,476.5156 231.9082,476.5156 Q232.6138,476.5156 233.2612,476.665 Q233.9087,476.8145 234.4731,477.1133 L234.4731,479.8359 Q233.8423,479.2549 233.2488,478.9851 Q232.6553,478.7153 232.0244,478.7153 Q230.6797,478.7153 229.9949,479.782 Q229.3101,480.8486 229.3101,482.9487 Q229.3101,485.0405 229.9949,486.1072 Q230.6797,487.1738 232.0244,487.1738 Q232.6553,487.1738 233.2488,486.9041 Q233.8423,486.6343 234.4731,486.0532 Z "/><text fill="#000000" font-family="sans-serif" font-size="12" font-style="italic" lengthAdjust="spacingAndGlyphs" textLength="67" x="275" y="480.6016">«boundary»</text><text fill="#000000" font-family="sans-serif" font-size="12" lengthAdjust="spacingAndGlyphs" textLength="126" x="245.5" y="494.7344">PreviewLocalMapPage</text><line style="stroke: #0000FF; stroke-width: 1.5;" x1="217.5" x2="373.5" y1="502.2656" y2="502.2656"/><line style="stroke: #0000FF; stroke-width: 1.5;" x1="217.5" x2="373.5" y1="510.2656" y2="510.2656"/><!--class PreviewLocalConcertPage--><rect fill="#ADD8E6" filter="url(#f1azbs4dzgmm9v)" height="54.2656" id="PreviewLocalConcertPage" style="stroke: #0000FF; stroke-width: 1.5;" width="177" x="410" y="464"/><ellipse cx="425" cy="483.1328" fill="#ADD1B2" rx="11" ry="11" style="stroke: #0000FF; stroke-width: 1.0;"/><path d="M427.9731,488.7759 Q427.3921,489.0747 426.7529,489.2241 Q426.1138,489.3735 425.4082,489.3735 Q422.9014,489.3735 421.5815,487.7217 Q420.2617,486.0698 420.2617,482.9487 Q420.2617,479.8193 421.5815,478.1675 Q422.9014,476.5156 425.4082,476.5156 Q426.1138,476.5156 426.7612,476.665 Q427.4087,476.8145 427.9731,477.1133 L427.9731,479.8359 Q427.3423,479.2549 426.7488,478.9851 Q426.1553,478.7153 425.5244,478.7153 Q424.1797,478.7153 423.4949,479.782 Q422.8101,480.8486 422.8101,482.9487 Q422.8101,485.0405 423.4949,486.1072 Q424.1797,487.1738 425.5244,487.1738 Q426.1553,487.1738 426.7488,486.9041 Q427.3423,486.6343 427.9731,486.0532 Z "/><text fill="#000000" font-family="sans-serif" font-size="12" font-style="italic" lengthAdjust="spacingAndGlyphs" textLength="67" x="478" y="480.6016">«boundary»</text><text fill="#000000" font-family="sans-serif" font-size="12" lengthAdjust="spacingAndGlyphs" textLength="145" x="439" y="494.7344">PreviewLocalConcertPage</text><line style="stroke: #0000FF; stroke-width: 1.5;" x1="411" x2="586" y1="502.2656" y2="502.2656"/><line style="stroke: #0000FF; stroke-width: 1.5;" x1="411" x2="586" y1="510.2656" y2="510.2656"/><!--class CreateVSSPage--><rect fill="#ADD8E6" filter="url(#f1azbs4dzgmm9v)" height="54.2656" id="CreateVSSPage" style="stroke: #0000FF; stroke-width: 1.5;" width="118" x="1061.5" y="236"/><ellipse cx="1076.5" cy="255.1328" fill="#ADD1B2" rx="11" ry="11" style="stroke: #0000FF; stroke-width: 1.0;"/><path d="M1079.4731,260.7759 Q1078.8921,261.0747 1078.2529,261.2241 Q1077.6138,261.3735 1076.9082,261.3735 Q1074.4014,261.3735 1073.0815,259.7217 Q1071.7617,258.0698 1071.7617,254.9487 Q1071.7617,251.8193 1073.0815,250.1675 Q1074.4014,248.5156 1076.9082,248.5156 Q1077.6138,248.5156 1078.2612,248.665 Q1078.9087,248.8145 1079.4731,249.1133 L1079.4731,251.8359 Q1078.8423,251.2549 1078.2488,250.9851 Q1077.6553,250.7153 1077.0244,250.7153 Q1075.6797,250.7153 1074.9949,251.782 Q1074.3101,252.8486 1074.3101,254.9487 Q1074.3101,257.0405 1074.9949,258.1072 Q1075.6797,259.1738 1077.0244,259.1738 Q1077.6553,259.1738 1078.2488,258.9041 Q1078.8423,258.6343 1079.4731,258.0532 Z "/><text fill="#000000" font-family="sans-serif" font-size="12" font-style="italic" lengthAdjust="spacingAndGlyphs" textLength="67" x="1100" y="252.6016">«boundary»</text><text fill="#000000" font-family="sans-serif" font-size="12" lengthAdjust="spacingAndGlyphs" textLength="86" x="1090.5" y="266.7344">CreateVSSPage</text><line style="stroke: #0000FF; stroke-width: 1.5;" x1="1062.5" x2="1178.5" y1="274.2656" y2="274.2656"/><line style="stroke: #0000FF; stroke-width: 1.5;" x1="1062.5" x2="1178.5" y1="282.2656" y2="282.2656"/><!--class CreateMapVSSPage--><rect fill="#ADD8E6" filter="url(#f1azbs4dzgmm9v)" height="54.2656" id="CreateMapVSSPage" style="stroke: #0000FF; stroke-width: 1.5;" width="143" x="1244" y="350"/><ellipse cx="1259" cy="369.1328" fill="#ADD1B2" rx="11" ry="11" style="stroke: #0000FF; stroke-width: 1.0;"/><path d="M1261.9731,374.7759 Q1261.3921,375.0747 1260.7529,375.2241 Q1260.1138,375.3735 1259.4082,375.3735 Q1256.9014,375.3735 1255.5815,373.7217 Q1254.2617,372.0698 1254.2617,368.9487 Q1254.2617,365.8193 1255.5815,364.1675 Q1256.9014,362.5156 1259.4082,362.5156 Q1260.1138,362.5156 1260.7612,362.665 Q1261.4087,362.8145 1261.9731,363.1133 L1261.9731,365.8359 Q1261.3423,365.2549 1260.7488,364.9851 Q1260.1553,364.7153 1259.5244,364.7153 Q1258.1797,364.7153 1257.4949,365.782 Q1256.8101,366.8486 1256.8101,368.9487 Q1256.8101,371.0405 1257.4949,372.1072 Q1258.1797,373.1738 1259.5244,373.1738 Q1260.1553,373.1738 1260.7488,372.9041 Q1261.3423,372.6343 1261.9731,372.0532 Z "/><text fill="#000000" font-family="sans-serif" font-size="12" font-style="italic" lengthAdjust="spacingAndGlyphs" textLength="67" x="1295" y="366.6016">«boundary»</text><text fill="#000000" font-family="sans-serif" font-size="12" lengthAdjust="spacingAndGlyphs" textLength="111" x="1273" y="380.7344">CreateMapVSSPage</text><line style="stroke: #0000FF; stroke-width: 1.5;" x1="1245" x2="1386" y1="388.2656" y2="388.2656"/><line style="stroke: #0000FF; stroke-width: 1.5;" x1="1245" x2="1386" y1="396.2656" y2="396.2656"/><!--class CreateMapVSSControl--><rect fill="#D3D3D3" filter="url(#f1azbs4dzgmm9v)" height="54.2656" id="CreateMapVSSControl" style="stroke: #FF0000; stroke-width: 1.5;" width="156" x="1241.5" y="464"/><ellipse cx="1256.5" cy="483.1328" fill="#ADD1B2" rx="11" ry="11" style="stroke: #FF0000; stroke-width: 1.0;"/><path d="M1259.4731,488.7759 Q1258.8921,489.0747 1258.2529,489.2241 Q1257.6138,489.3735 1256.9082,489.3735 Q1254.4014,489.3735 1253.0815,487.7217 Q1251.7617,486.0698 1251.7617,482.9487 Q1251.7617,479.8193 1253.0815,478.1675 Q1254.4014,476.5156 1256.9082,476.5156 Q1257.6138,476.5156 1258.2612,476.665 Q1258.9087,476.8145 1259.4731,477.1133 L1259.4731,479.8359 Q1258.8423,479.2549 1258.2488,478.9851 Q1257.6553,478.7153 1257.0244,478.7153 Q1255.6797,478.7153 1254.9949,479.782 Q1254.3101,480.8486 1254.3101,482.9487 Q1254.3101,485.0405 1254.9949,486.1072 Q1255.6797,487.1738 1257.0244,487.1738 Q1257.6553,487.1738 1258.2488,486.9041 Q1258.8423,486.6343 1259.4731,486.0532 Z "/><text fill="#000000" font-family="sans-serif" font-size="12" font-style="italic" lengthAdjust="spacingAndGlyphs" textLength="51" x="1307" y="480.6016">«control»</text><text fill="#000000" font-family="sans-serif" font-size="12" lengthAdjust="spacingAndGlyphs" textLength="124" x="1270.5" y="494.7344">CreateMapVSSControl</text><line style="stroke: #FF0000; stroke-width: 1.5;" x1="1242.5" x2="1396.5" y1="502.2656" y2="502.2656"/><line style="stroke: #FF0000; stroke-width: 1.5;" x1="1242.5" x2="1396.5" y1="510.2656" y2="510.2656"/><!--class Sensor--><rect fill="#FFFFE0" filter="url(#f1azbs4dzgmm9v)" height="54.2656" id="Sensor" style="stroke: #FFFF00; stroke-width: 1.5;" width="71" x="1568" y="806"/><ellipse cx="1583" cy="825.1328" fill="#ADD1B2" rx="11" ry="11" style="stroke: #FFFF00; stroke-width: 1.0;"/><path d="M1585.9731,830.7759 Q1585.3921,831.0747 1584.7529,831.2241 Q1584.1138,831.3735 1583.4082,831.3735 Q1580.9014,831.3735 1579.5815,829.7217 Q1578.2617,828.0698 1578.2617,824.9487 Q1578.2617,821.8193 1579.5815,820.1675 Q1580.9014,818.5156 1583.4082,818.5156 Q1584.1138,818.5156 1584.7612,818.665 Q1585.4087,818.8145 1585.9731,819.1133 L1585.9731,821.8359 Q1585.3423,821.2549 1584.7488,820.9851 Q1584.1553,820.7153 1583.5244,820.7153 Q1582.1797,820.7153 1581.4949,821.782 Q1580.8101,822.8486 1580.8101,824.9487 Q1580.8101,827.0405 1581.4949,828.1072 Q1582.1797,829.1738 1583.5244,829.1738 Q1584.1553,829.1738 1584.7488,828.9041 Q1585.3423,828.6343 1585.9731,828.0532 Z "/><text fill="#000000" font-family="sans-serif" font-size="12" font-style="italic" lengthAdjust="spacingAndGlyphs" textLength="43" x="1595" y="822.6016">«entity»</text><text fill="#000000" font-family="sans-serif" font-size="12" lengthAdjust="spacingAndGlyphs" textLength="38" x="1597.5" y="836.7344">Sensor</text><line style="stroke: #FFFF00; stroke-width: 1.5;" x1="1569" x2="1638" y1="844.2656" y2="844.2656"/><line style="stroke: #FFFF00; stroke-width: 1.5;" x1="1569" x2="1638" y1="852.2656" y2="852.2656"/><!--class MapModeVirtualSoundSpace--><rect fill="#FFFFE0" filter="url(#f1azbs4dzgmm9v)" height="54.2656" id="MapModeVirtualSoundSpace" style="stroke: #FFFF00; stroke-width: 1.5;" width="195" x="369" y="806"/><ellipse cx="384" cy="825.1328" fill="#ADD1B2" rx="11" ry="11" style="stroke: #FFFF00; stroke-width: 1.0;"/><path d="M386.9731,830.7759 Q386.3921,831.0747 385.7529,831.2241 Q385.1138,831.3735 384.4082,831.3735 Q381.9014,831.3735 380.5815,829.7217 Q379.2617,828.0698 379.2617,824.9487 Q379.2617,821.8193 380.5815,820.1675 Q381.9014,818.5156 384.4082,818.5156 Q385.1138,818.5156 385.7612,818.665 Q386.4087,818.8145 386.9731,819.1133 L386.9731,821.8359 Q386.3423,821.2549 385.7488,820.9851 Q385.1553,820.7153 384.5244,820.7153 Q383.1797,820.7153 382.4949,821.782 Q381.8101,822.8486 381.8101,824.9487 Q381.8101,827.0405 382.4949,828.1072 Q383.1797,829.1738 384.5244,829.1738 Q385.1553,829.1738 385.7488,828.9041 Q386.3423,828.6343 386.9731,828.0532 Z "/><text fill="#000000" font-family="sans-serif" font-size="12" font-style="italic" lengthAdjust="spacingAndGlyphs" textLength="43" x="458" y="822.6016">«entity»</text><text fill="#000000" font-family="sans-serif" font-size="12" lengthAdjust="spacingAndGlyphs" textLength="163" x="398" y="836.7344">MapModeVirtualSoundSpace</text><line style="stroke: #FFFF00; stroke-width: 1.5;" x1="370" x2="563" y1="844.2656" y2="844.2656"/><line style="stroke: #FFFF00; stroke-width: 1.5;" x1="370" x2="563" y1="852.2656" y2="852.2656"/><!--class ConcertModeVirtualSoundSpace--><rect fill="#FFFFE0" filter="url(#f1azbs4dzgmm9v)" height="54.2656" id="ConcertModeVirtualSoundSpace" style="stroke: #FFFF00; stroke-width: 1.5;" width="214" x="599.5" y="806"/><ellipse cx="614.5" cy="825.1328" fill="#ADD1B2" rx="11" ry="11" style="stroke: #FFFF00; stroke-width: 1.0;"/><path d="M617.4731,830.7759 Q616.8921,831.0747 616.2529,831.2241 Q615.6138,831.3735 614.9082,831.3735 Q612.4014,831.3735 611.0815,829.7217 Q609.7617,828.0698 609.7617,824.9487 Q609.7617,821.8193 611.0815,820.1675 Q612.4014,818.5156 614.9082,818.5156 Q615.6138,818.5156 616.2612,818.665 Q616.9087,818.8145 617.4731,819.1133 L617.4731,821.8359 Q616.8423,821.2549 616.2488,820.9851 Q615.6553,820.7153 615.0244,820.7153 Q613.6797,820.7153 612.9949,821.782 Q612.3101,822.8486 612.3101,824.9487 Q612.3101,827.0405 612.9949,828.1072 Q613.6797,829.1738 615.0244,829.1738 Q615.6553,829.1738 616.2488,828.9041 Q616.8423,828.6343 617.4731,828.0532 Z "/><text fill="#000000" font-family="sans-serif" font-size="12" font-style="italic" lengthAdjust="spacingAndGlyphs" textLength="43" x="698" y="822.6016">«entity»</text><text fill="#000000" font-family="sans-serif" font-size="12" lengthAdjust="spacingAndGlyphs" textLength="182" x="628.5" y="836.7344">ConcertModeVirtualSoundSpace</text><line style="stroke: #FFFF00; stroke-width: 1.5;" x1="600.5" x2="812.5" y1="844.2656" y2="844.2656"/><line style="stroke: #FFFF00; stroke-width: 1.5;" x1="600.5" x2="812.5" y1="852.2656" y2="852.2656"/><!--class VirtualSoundSpace--><rect fill="#FFFFE0" filter="url(#f1azbs4dzgmm9v)" height="54.2656" id="VirtualSoundSpace" style="stroke: #FFFF00; stroke-width: 1.5;" width="138" x="631.5" y="692"/><ellipse cx="646.5" cy="711.1328" fill="#A9DCDF" rx="11" ry="11" style="stroke: #FFFF00; stroke-width: 1.0;"/><path d="M646.6133,706.481 L645.4595,711.5527 L647.7754,711.5527 Z M645.1191,704.2397 L648.1157,704.2397 L651.4609,716.6328 L649.0122,716.6328 L648.2485,713.5698 L644.9697,713.5698 L644.2227,716.6328 L641.7739,716.6328 Z "/><text fill="#000000" font-family="sans-serif" font-size="12" font-style="italic" lengthAdjust="spacingAndGlyphs" textLength="43" x="692" y="708.6016">«entity»</text><text fill="#000000" font-family="sans-serif" font-size="12" font-style="italic" lengthAdjust="spacingAndGlyphs" textLength="106" x="660.5" y="722.7344">VirtualSoundSpace</text><line style="stroke: #FFFF00; stroke-width: 1.5;" x1="632.5" x2="768.5" y1="730.2656" y2="730.2656"/><line style="stroke: #FFFF00; stroke-width: 1.5;" x1="632.5" x2="768.5" y1="738.2656" y2="738.2656"/><!--class SoundSource--><rect fill="#FFFFE0" filter="url(#f1azbs4dzgmm9v)" height="54.2656" id="SoundSource" style="stroke: #FFFF00; stroke-width: 1.5;" width="105" x="869" y="806"/><ellipse cx="884" cy="825.1328" fill="#ADD1B2" rx="11" ry="11" style="stroke: #FFFF00; stroke-width: 1.0;"/><path d="M886.9731,830.7759 Q886.3921,831.0747 885.7529,831.2241 Q885.1138,831.3735 884.4082,831.3735 Q881.9014,831.3735 880.5815,829.7217 Q879.2617,828.0698 879.2617,824.9487 Q879.2617,821.8193 880.5815,820.1675 Q881.9014,818.5156 884.4082,818.5156 Q885.1138,818.5156 885.7612,818.665 Q886.4087,818.8145 886.9731,819.1133 L886.9731,821.8359 Q886.3423,821.2549 885.7488,820.9851 Q885.1553,820.7153 884.5244,820.7153 Q883.1797,820.7153 882.4949,821.782 Q881.8101,822.8486 881.8101,824.9487 Q881.8101,827.0405 882.4949,828.1072 Q883.1797,829.1738 884.5244,829.1738 Q885.1553,829.1738 885.7488,828.9041 Q886.3423,828.6343 886.9731,828.0532 Z "/><text fill="#000000" font-family="sans-serif" font-size="12" font-style="italic" lengthAdjust="spacingAndGlyphs" textLength="43" x="913" y="822.6016">«entity»</text><text fill="#000000" font-family="sans-serif" font-size="12" lengthAdjust="spacingAndGlyphs" textLength="73" x="898" y="836.7344">SoundSource</text><line style="stroke: #FFFF00; stroke-width: 1.5;" x1="870" x2="973" y1="844.2656" y2="844.2656"/><line style="stroke: #FFFF00; stroke-width: 1.5;" x1="870" x2="973" y1="852.2656" y2="852.2656"/><!--class CreateConcertVSSPage--><rect fill="#ADD8E6" filter="url(#f1azbs4dzgmm9v)" height="54.2656" id="CreateConcertVSSPage" style="stroke: #0000FF; stroke-width: 1.5;" width="162" x="844.5" y="350"/><ellipse cx="859.5" cy="369.1328" fill="#ADD1B2" rx="11" ry="11" style="stroke: #0000FF; stroke-width: 1.0;"/><path d="M862.4731,374.7759 Q861.8921,375.0747 861.2529,375.2241 Q860.6138,375.3735 859.9082,375.3735 Q857.4014,375.3735 856.0815,373.7217 Q854.7617,372.0698 854.7617,368.9487 Q854.7617,365.8193 856.0815,364.1675 Q857.4014,362.5156 859.9082,362.5156 Q860.6138,362.5156 861.2612,362.665 Q861.9087,362.8145 862.4731,363.1133 L862.4731,365.8359 Q861.8423,365.2549 861.2488,364.9851 Q860.6553,364.7153 860.0244,364.7153 Q858.6797,364.7153 857.9949,365.782 Q857.3101,366.8486 857.3101,368.9487 Q857.3101,371.0405 857.9949,372.1072 Q858.6797,373.1738 860.0244,373.1738 Q860.6553,373.1738 861.2488,372.9041 Q861.8423,372.6343 862.4731,372.0532 Z "/><text fill="#000000" font-family="sans-serif" font-size="12" font-style="italic" lengthAdjust="spacingAndGlyphs" textLength="67" x="905" y="366.6016">«boundary»</text><text fill="#000000" font-family="sans-serif" font-size="12" lengthAdjust="spacingAndGlyphs" textLength="130" x="873.5" y="380.7344">CreateConcertVSSPage</text><line style="stroke: #0000FF; stroke-width: 1.5;" x1="845.5" x2="1005.5" y1="388.2656" y2="388.2656"/><line style="stroke: #0000FF; stroke-width: 1.5;" x1="845.5" x2="1005.5" y1="396.2656" y2="396.2656"/><!--class CreateConcertVSSControl--><rect fill="#D3D3D3" filter="url(#f1azbs4dzgmm9v)" height="54.2656" id="CreateConcertVSSControl" style="stroke: #FF0000; stroke-width: 1.5;" width="175" x="834" y="464"/><ellipse cx="849" cy="483.1328" fill="#ADD1B2" rx="11" ry="11" style="stroke: #FF0000; stroke-width: 1.0;"/><path d="M851.9731,488.7759 Q851.3921,489.0747 850.7529,489.2241 Q850.1138,489.3735 849.4082,489.3735 Q846.9014,489.3735 845.5815,487.7217 Q844.2617,486.0698 844.2617,482.9487 Q844.2617,479.8193 845.5815,478.1675 Q846.9014,476.5156 849.4082,476.5156 Q850.1138,476.5156 850.7612,476.665 Q851.4087,476.8145 851.9731,477.1133 L851.9731,479.8359 Q851.3423,479.2549 850.7488,478.9851 Q850.1553,478.7153 849.5244,478.7153 Q848.1797,478.7153 847.4949,479.782 Q846.8101,480.8486 846.8101,482.9487 Q846.8101,485.0405 847.4949,486.1072 Q848.1797,487.1738 849.5244,487.1738 Q850.1553,487.1738 850.7488,486.9041 Q851.3423,486.6343 851.9731,486.0532 Z "/><text fill="#000000" font-family="sans-serif" font-size="12" font-style="italic" lengthAdjust="spacingAndGlyphs" textLength="51" x="909" y="480.6016">«control»</text><text fill="#000000" font-family="sans-serif" font-size="12" lengthAdjust="spacingAndGlyphs" textLength="143" x="863" y="494.7344">CreateConcertVSSControl</text><line style="stroke: #FF0000; stroke-width: 1.5;" x1="835" x2="1008" y1="502.2656" y2="502.2656"/><line style="stroke: #FF0000; stroke-width: 1.5;" x1="835" x2="1008" y1="510.2656" y2="510.2656"/><!--class PreviewOnlineMapPage--><rect fill="#ADD8E6" filter="url(#f1azbs4dzgmm9v)" height="54.2656" id="PreviewOnlineMapPage" style="stroke: #0000FF; stroke-width: 1.5;" width="165" x="351" y="236"/><ellipse cx="366" cy="255.1328" fill="#ADD1B2" rx="11" ry="11" style="stroke: #0000FF; stroke-width: 1.0;"/><path d="M368.9731,260.7759 Q368.3921,261.0747 367.7529,261.2241 Q367.1138,261.3735 366.4082,261.3735 Q363.9014,261.3735 362.5815,259.7217 Q361.2617,258.0698 361.2617,254.9487 Q361.2617,251.8193 362.5815,250.1675 Q363.9014,248.5156 366.4082,248.5156 Q367.1138,248.5156 367.7612,248.665 Q368.4087,248.8145 368.9731,249.1133 L368.9731,251.8359 Q368.3423,251.2549 367.7488,250.9851 Q367.1553,250.7153 366.5244,250.7153 Q365.1797,250.7153 364.4949,251.782 Q363.8101,252.8486 363.8101,254.9487 Q363.8101,257.0405 364.4949,258.1072 Q365.1797,259.1738 366.5244,259.1738 Q367.1553,259.1738 367.7488,258.9041 Q368.3423,258.6343 368.9731,258.0532 Z "/><text fill="#000000" font-family="sans-serif" font-size="12" font-style="italic" lengthAdjust="spacingAndGlyphs" textLength="67" x="413" y="252.6016">«boundary»</text><text fill="#000000" font-family="sans-serif" font-size="12" lengthAdjust="spacingAndGlyphs" textLength="133" x="380" y="266.7344">PreviewOnlineMapPage</text><line style="stroke: #0000FF; stroke-width: 1.5;" x1="352" x2="515" y1="274.2656" y2="274.2656"/><line style="stroke: #0000FF; stroke-width: 1.5;" x1="352" x2="515" y1="282.2656" y2="282.2656"/><!--class PreviewOnlineMapControl--><rect fill="#D3D3D3" filter="url(#f1azbs4dzgmm9v)" height="54.2656" id="PreviewOnlineMapControl" style="stroke: #FF0000; stroke-width: 1.5;" width="178" x="340.5" y="350"/><ellipse cx="355.5" cy="369.1328" fill="#ADD1B2" rx="11" ry="11" style="stroke: #FF0000; stroke-width: 1.0;"/><path d="M358.4731,374.7759 Q357.8921,375.0747 357.2529,375.2241 Q356.6138,375.3735 355.9082,375.3735 Q353.4014,375.3735 352.0815,373.7217 Q350.7617,372.0698 350.7617,368.9487 Q350.7617,365.8193 352.0815,364.1675 Q353.4014,362.5156 355.9082,362.5156 Q356.6138,362.5156 357.2612,362.665 Q357.9087,362.8145 358.4731,363.1133 L358.4731,365.8359 Q357.8423,365.2549 357.2488,364.9851 Q356.6553,364.7153 356.0244,364.7153 Q354.6797,364.7153 353.9949,365.782 Q353.3101,366.8486 353.3101,368.9487 Q353.3101,371.0405 353.9949,372.1072 Q354.6797,373.1738 356.0244,373.1738 Q356.6553,373.1738 357.2488,372.9041 Q357.8423,372.6343 358.4731,372.0532 Z "/><text fill="#000000" font-family="sans-serif" font-size="12" font-style="italic" lengthAdjust="spacingAndGlyphs" textLength="51" x="417" y="366.6016">«control»</text><text fill="#000000" font-family="sans-serif" font-size="12" lengthAdjust="spacingAndGlyphs" textLength="146" x="369.5" y="380.7344">PreviewOnlineMapControl</text><line style="stroke: #FF0000; stroke-width: 1.5;" x1="341.5" x2="517.5" y1="388.2656" y2="388.2656"/><line style="stroke: #FF0000; stroke-width: 1.5;" x1="341.5" x2="517.5" y1="396.2656" y2="396.2656"/><!--class PreviewOnlineConcertPage--><rect fill="#ADD8E6" filter="url(#f1azbs4dzgmm9v)" height="54.2656" id="PreviewOnlineConcertPage" style="stroke: #0000FF; stroke-width: 1.5;" width="184" x="554.5" y="236"/><ellipse cx="569.5" cy="255.1328" fill="#ADD1B2" rx="11" ry="11" style="stroke: #0000FF; stroke-width: 1.0;"/><path d="M572.4731,260.7759 Q571.8921,261.0747 571.2529,261.2241 Q570.6138,261.3735 569.9082,261.3735 Q567.4014,261.3735 566.0815,259.7217 Q564.7617,258.0698 564.7617,254.9487 Q564.7617,251.8193 566.0815,250.1675 Q567.4014,248.5156 569.9082,248.5156 Q570.6138,248.5156 571.2612,248.665 Q571.9087,248.8145 572.4731,249.1133 L572.4731,251.8359 Q571.8423,251.2549 571.2488,250.9851 Q570.6553,250.7153 570.0244,250.7153 Q568.6797,250.7153 567.9949,251.782 Q567.3101,252.8486 567.3101,254.9487 Q567.3101,257.0405 567.9949,258.1072 Q568.6797,259.1738 570.0244,259.1738 Q570.6553,259.1738 571.2488,258.9041 Q571.8423,258.6343 572.4731,258.0532 Z "/><text fill="#000000" font-family="sans-serif" font-size="12" font-style="italic" lengthAdjust="spacingAndGlyphs" textLength="67" x="626" y="252.6016">«boundary»</text><text fill="#000000" font-family="sans-serif" font-size="12" lengthAdjust="spacingAndGlyphs" textLength="152" x="583.5" y="266.7344">PreviewOnlineConcertPage</text><line style="stroke: #0000FF; stroke-width: 1.5;" x1="555.5" x2="737.5" y1="274.2656" y2="274.2656"/><line style="stroke: #0000FF; stroke-width: 1.5;" x1="555.5" x2="737.5" y1="282.2656" y2="282.2656"/><!--class PreviewOnlineConcertControl--><rect fill="#D3D3D3" filter="url(#f1azbs4dzgmm9v)" height="54.2656" id="PreviewOnlineConcertControl" style="stroke: #FF0000; stroke-width: 1.5;" width="197" x="554" y="350"/><ellipse cx="569" cy="369.1328" fill="#ADD1B2" rx="11" ry="11" style="stroke: #FF0000; stroke-width: 1.0;"/><path d="M571.9731,374.7759 Q571.3921,375.0747 570.7529,375.2241 Q570.1138,375.3735 569.4082,375.3735 Q566.9014,375.3735 565.5815,373.7217 Q564.2617,372.0698 564.2617,368.9487 Q564.2617,365.8193 565.5815,364.1675 Q566.9014,362.5156 569.4082,362.5156 Q570.1138,362.5156 570.7612,362.665 Q571.4087,362.8145 571.9731,363.1133 L571.9731,365.8359 Q571.3423,365.2549 570.7488,364.9851 Q570.1553,364.7153 569.5244,364.7153 Q568.1797,364.7153 567.4949,365.782 Q566.8101,366.8486 566.8101,368.9487 Q566.8101,371.0405 567.4949,372.1072 Q568.1797,373.1738 569.5244,373.1738 Q570.1553,373.1738 570.7488,372.9041 Q571.3423,372.6343 571.9731,372.0532 Z "/><text fill="#000000" font-family="sans-serif" font-size="12" font-style="italic" lengthAdjust="spacingAndGlyphs" textLength="51" x="640" y="366.6016">«control»</text><text fill="#000000" font-family="sans-serif" font-size="12" lengthAdjust="spacingAndGlyphs" textLength="165" x="583" y="380.7344">PreviewOnlineConcertControl</text><line style="stroke: #FF0000; stroke-width: 1.5;" x1="555" x2="750" y1="388.2656" y2="388.2656"/><line style="stroke: #FF0000; stroke-width: 1.5;" x1="555" x2="750" y1="396.2656" y2="396.2656"/><!--class OnlineSoundSpaceLibrary--><rect fill="#FFFFE0" filter="url(#f1azbs4dzgmm9v)" height="54.2656" id="OnlineSoundSpaceLibrary" style="stroke: #FFFF00; stroke-width: 1.5;" width="177" x="622" y="464"/><ellipse cx="637" cy="483.1328" fill="#ADD1B2" rx="11" ry="11" style="stroke: #FFFF00; stroke-width: 1.0;"/><path d="M639.9731,488.7759 Q639.3921,489.0747 638.7529,489.2241 Q638.1138,489.3735 637.4082,489.3735 Q634.9014,489.3735 633.5815,487.7217 Q632.2617,486.0698 632.2617,482.9487 Q632.2617,479.8193 633.5815,478.1675 Q634.9014,476.5156 637.4082,476.5156 Q638.1138,476.5156 638.7612,476.665 Q639.4087,476.8145 639.9731,477.1133 L639.9731,479.8359 Q639.3423,479.2549 638.7488,478.9851 Q638.1553,478.7153 637.5244,478.7153 Q636.1797,478.7153 635.4949,479.782 Q634.8101,480.8486 634.8101,482.9487 Q634.8101,485.0405 635.4949,486.1072 Q636.1797,487.1738 637.5244,487.1738 Q638.1553,487.1738 638.7488,486.9041 Q639.3423,486.6343 639.9731,486.0532 Z "/><text fill="#000000" font-family="sans-serif" font-size="12" font-style="italic" lengthAdjust="spacingAndGlyphs" textLength="43" x="702" y="480.6016">«entity»</text><text fill="#000000" font-family="sans-serif" font-size="12" lengthAdjust="spacingAndGlyphs" textLength="145" x="651" y="494.7344">OnlineSoundSpaceLibrary</text><line style="stroke: #FFFF00; stroke-width: 1.5;" x1="623" x2="798" y1="502.2656" y2="502.2656"/><line style="stroke: #FFFF00; stroke-width: 1.5;" x1="623" x2="798" y1="510.2656" y2="510.2656"/><!--class PreviewLocalMapControl--><rect fill="#D3D3D3" filter="url(#f1azbs4dzgmm9v)" height="54.2656" id="PreviewLocalMapControl" style="stroke: #FF0000; stroke-width: 1.5;" width="171" x="217" y="578"/><ellipse cx="232" cy="597.1328" fill="#ADD1B2" rx="11" ry="11" style="stroke: #FF0000; stroke-width: 1.0;"/><path d="M234.9731,602.7759 Q234.3921,603.0747 233.7529,603.2241 Q233.1138,603.3735 232.4082,603.3735 Q229.9014,603.3735 228.5815,601.7217 Q227.2617,600.0698 227.2617,596.9487 Q227.2617,593.8193 228.5815,592.1675 Q229.9014,590.5156 232.4082,590.5156 Q233.1138,590.5156 233.7612,590.665 Q234.4087,590.8145 234.9731,591.1133 L234.9731,593.8359 Q234.3423,593.2549 233.7488,592.9851 Q233.1553,592.7153 232.5244,592.7153 Q231.1797,592.7153 230.4949,593.782 Q229.8101,594.8486 229.8101,596.9487 Q229.8101,599.0405 230.4949,600.1072 Q231.1797,601.1738 232.5244,601.1738 Q233.1553,601.1738 233.7488,600.9041 Q234.3423,600.6343 234.9731,600.0532 Z "/><text fill="#000000" font-family="sans-serif" font-size="12" font-style="italic" lengthAdjust="spacingAndGlyphs" textLength="51" x="290" y="594.6016">«control»</text><text fill="#000000" font-family="sans-serif" font-size="12" lengthAdjust="spacingAndGlyphs" textLength="139" x="246" y="608.7344">PreviewLocalMapControl</text><line style="stroke: #FF0000; stroke-width: 1.5;" x1="218" x2="387" y1="616.2656" y2="616.2656"/><line style="stroke: #FF0000; stroke-width: 1.5;" x1="218" x2="387" y1="624.2656" y2="624.2656"/><!--class PreviewLocalConcertControl--><rect fill="#D3D3D3" filter="url(#f1azbs4dzgmm9v)" height="54.2656" id="PreviewLocalConcertControl" style="stroke: #FF0000; stroke-width: 1.5;" width="190" x="430.5" y="578"/><ellipse cx="445.5" cy="597.1328" fill="#ADD1B2" rx="11" ry="11" style="stroke: #FF0000; stroke-width: 1.0;"/><path d="M448.4731,602.7759 Q447.8921,603.0747 447.2529,603.2241 Q446.6138,603.3735 445.9082,603.3735 Q443.4014,603.3735 442.0815,601.7217 Q440.7617,600.0698 440.7617,596.9487 Q440.7617,593.8193 442.0815,592.1675 Q443.4014,590.5156 445.9082,590.5156 Q446.6138,590.5156 447.2612,590.665 Q447.9087,590.8145 448.4731,591.1133 L448.4731,593.8359 Q447.8423,593.2549 447.2488,592.9851 Q446.6553,592.7153 446.0244,592.7153 Q444.6797,592.7153 443.9949,593.782 Q443.3101,594.8486 443.3101,596.9487 Q443.3101,599.0405 443.9949,600.1072 Q444.6797,601.1738 446.0244,601.1738 Q446.6553,601.1738 447.2488,600.9041 Q447.8423,600.6343 448.4731,600.0532 Z "/><text fill="#000000" font-family="sans-serif" font-size="12" font-style="italic" lengthAdjust="spacingAndGlyphs" textLength="51" x="513" y="594.6016">«control»</text><text fill="#000000" font-family="sans-serif" font-size="12" lengthAdjust="spacingAndGlyphs" textLength="158" x="459.5" y="608.7344">PreviewLocalConcertControl</text><line style="stroke: #FF0000; stroke-width: 1.5;" x1="431.5" x2="619.5" y1="616.2656" y2="616.2656"/><line style="stroke: #FF0000; stroke-width: 1.5;" x1="431.5" x2="619.5" y1="624.2656" y2="624.2656"/><!--class PlayMapModeVSSPage--><rect fill="#ADD8E6" filter="url(#f1azbs4dzgmm9v)" height="54.2656" id="PlayMapModeVSSPage" style="stroke: #0000FF; stroke-width: 1.5;" width="160" x="1459.5" y="350"/><ellipse cx="1474.5" cy="369.1328" fill="#ADD1B2" rx="11" ry="11" style="stroke: #0000FF; stroke-width: 1.0;"/><path d="M1477.4731,374.7759 Q1476.8921,375.0747 1476.2529,375.2241 Q1475.6138,375.3735 1474.9082,375.3735 Q1472.4014,375.3735 1471.0815,373.7217 Q1469.7617,372.0698 1469.7617,368.9487 Q1469.7617,365.8193 1471.0815,364.1675 Q1472.4014,362.5156 1474.9082,362.5156 Q1475.6138,362.5156 1476.2612,362.665 Q1476.9087,362.8145 1477.4731,363.1133 L1477.4731,365.8359 Q1476.8423,365.2549 1476.2488,364.9851 Q1475.6553,364.7153 1475.0244,364.7153 Q1473.6797,364.7153 1472.9949,365.782 Q1472.3101,366.8486 1472.3101,368.9487 Q1472.3101,371.0405 1472.9949,372.1072 Q1473.6797,373.1738 1475.0244,373.1738 Q1475.6553,373.1738 1476.2488,372.9041 Q1476.8423,372.6343 1477.4731,372.0532 Z "/><text fill="#000000" font-family="sans-serif" font-size="12" font-style="italic" lengthAdjust="spacingAndGlyphs" textLength="67" x="1519" y="366.6016">«boundary»</text><text fill="#000000" font-family="sans-serif" font-size="12" lengthAdjust="spacingAndGlyphs" textLength="128" x="1488.5" y="380.7344">PlayMapModeVSSPage</text><line style="stroke: #0000FF; stroke-width: 1.5;" x1="1460.5" x2="1618.5" y1="388.2656" y2="388.2656"/><line style="stroke: #0000FF; stroke-width: 1.5;" x1="1460.5" x2="1618.5" y1="396.2656" y2="396.2656"/><!--class MapVSSPlayControl--><rect fill="#D3D3D3" filter="url(#f1azbs4dzgmm9v)" height="54.2656" id="MapVSSPlayControl" style="stroke: #FF0000; stroke-width: 1.5;" width="141" x="1469" y="464"/><ellipse cx="1484" cy="483.1328" fill="#ADD1B2" rx="11" ry="11" style="stroke: #FF0000; stroke-width: 1.0;"/><path d="M1486.9731,488.7759 Q1486.3921,489.0747 1485.7529,489.2241 Q1485.1138,489.3735 1484.4082,489.3735 Q1481.9014,489.3735 1480.5815,487.7217 Q1479.2617,486.0698 1479.2617,482.9487 Q1479.2617,479.8193 1480.5815,478.1675 Q1481.9014,476.5156 1484.4082,476.5156 Q1485.1138,476.5156 1485.7612,476.665 Q1486.4087,476.8145 1486.9731,477.1133 L1486.9731,479.8359 Q1486.3423,479.2549 1485.7488,478.9851 Q1485.1553,478.7153 1484.5244,478.7153 Q1483.1797,478.7153 1482.4949,479.782 Q1481.8101,480.8486 1481.8101,482.9487 Q1481.8101,485.0405 1482.4949,486.1072 Q1483.1797,487.1738 1484.5244,487.1738 Q1485.1553,487.1738 1485.7488,486.9041 Q1486.3423,486.6343 1486.9731,486.0532 Z "/><text fill="#000000" font-family="sans-serif" font-size="12" font-style="italic" lengthAdjust="spacingAndGlyphs" textLength="51" x="1527" y="480.6016">«control»</text><text fill="#000000" font-family="sans-serif" font-size="12" lengthAdjust="spacingAndGlyphs" textLength="109" x="1498" y="494.7344">MapVSSPlayControl</text><line style="stroke: #FF0000; stroke-width: 1.5;" x1="1470" x2="1609" y1="502.2656" y2="502.2656"/><line style="stroke: #FF0000; stroke-width: 1.5;" x1="1470" x2="1609" y1="510.2656" y2="510.2656"/><!--class GVRAudioEngine--><rect fill="#D3D3D3" filter="url(#f1azbs4dzgmm9v)" height="54.2656" id="GVRAudioEngine" style="stroke: #FF0000; stroke-width: 1.5;" width="128" x="1763.5" y="578"/><ellipse cx="1778.5" cy="597.1328" fill="#ADD1B2" rx="11" ry="11" style="stroke: #FF0000; stroke-width: 1.0;"/><path d="M1781.4731,602.7759 Q1780.8921,603.0747 1780.2529,603.2241 Q1779.6138,603.3735 1778.9082,603.3735 Q1776.4014,603.3735 1775.0815,601.7217 Q1773.7617,600.0698 1773.7617,596.9487 Q1773.7617,593.8193 1775.0815,592.1675 Q1776.4014,590.5156 1778.9082,590.5156 Q1779.6138,590.5156 1780.2612,590.665 Q1780.9087,590.8145 1781.4731,591.1133 L1781.4731,593.8359 Q1780.8423,593.2549 1780.2488,592.9851 Q1779.6553,592.7153 1779.0244,592.7153 Q1777.6797,592.7153 1776.9949,593.782 Q1776.3101,594.8486 1776.3101,596.9487 Q1776.3101,599.0405 1776.9949,600.1072 Q1777.6797,601.1738 1779.0244,601.1738 Q1779.6553,601.1738 1780.2488,600.9041 Q1780.8423,600.6343 1781.4731,600.0532 Z "/><text fill="#000000" font-family="sans-serif" font-size="12" font-style="italic" lengthAdjust="spacingAndGlyphs" textLength="51" x="1815" y="594.6016">«control»</text><text fill="#000000" font-family="sans-serif" font-size="12" lengthAdjust="spacingAndGlyphs" textLength="96" x="1792.5" y="608.7344">GVRAudioEngine</text><line style="stroke: #FF0000; stroke-width: 1.5;" x1="1764.5" x2="1890.5" y1="616.2656" y2="616.2656"/><line style="stroke: #FF0000; stroke-width: 1.5;" x1="1764.5" x2="1890.5" y1="624.2656" y2="624.2656"/><!--class AdjustSensorPage--><rect fill="#ADD8E6" filter="url(#f1azbs4dzgmm9v)" height="54.2656" id="AdjustSensorPage" style="stroke: #0000FF; stroke-width: 1.5;" width="135" x="1593" y="578"/><ellipse cx="1608" cy="597.1328" fill="#ADD1B2" rx="11" ry="11" style="stroke: #0000FF; stroke-width: 1.0;"/><path d="M1610.9731,602.7759 Q1610.3921,603.0747 1609.7529,603.2241 Q1609.1138,603.3735 1608.4082,603.3735 Q1605.9014,603.3735 1604.5815,601.7217 Q1603.2617,600.0698 1603.2617,596.9487 Q1603.2617,593.8193 1604.5815,592.1675 Q1605.9014,590.5156 1608.4082,590.5156 Q1609.1138,590.5156 1609.7612,590.665 Q1610.4087,590.8145 1610.9731,591.1133 L1610.9731,593.8359 Q1610.3423,593.2549 1609.7488,592.9851 Q1609.1553,592.7153 1608.5244,592.7153 Q1607.1797,592.7153 1606.4949,593.782 Q1605.8101,594.8486 1605.8101,596.9487 Q1605.8101,599.0405 1606.4949,600.1072 Q1607.1797,601.1738 1608.5244,601.1738 Q1609.1553,601.1738 1609.7488,600.9041 Q1610.3423,600.6343 1610.9731,600.0532 Z "/><text fill="#000000" font-family="sans-serif" font-size="12" font-style="italic" lengthAdjust="spacingAndGlyphs" textLength="67" x="1640" y="594.6016">«boundary»</text><text fill="#000000" font-family="sans-serif" font-size="12" lengthAdjust="spacingAndGlyphs" textLength="103" x="1622" y="608.7344">AdjustSensorPage</text><line style="stroke: #0000FF; stroke-width: 1.5;" x1="1594" x2="1727" y1="616.2656" y2="616.2656"/><line style="stroke: #0000FF; stroke-width: 1.5;" x1="1594" x2="1727" y1="624.2656" y2="624.2656"/><!--class PlayConcertModeVSSPage--><rect fill="#ADD8E6" filter="url(#f1azbs4dzgmm9v)" height="54.2656" id="PlayConcertModeVSSPage" style="stroke: #0000FF; stroke-width: 1.5;" width="179" x="1696" y="350"/><ellipse cx="1711" cy="369.1328" fill="#ADD1B2" rx="11" ry="11" style="stroke: #0000FF; stroke-width: 1.0;"/><path d="M1713.9731,374.7759 Q1713.3921,375.0747 1712.7529,375.2241 Q1712.1138,375.3735 1711.4082,375.3735 Q1708.9014,375.3735 1707.5815,373.7217 Q1706.2617,372.0698 1706.2617,368.9487 Q1706.2617,365.8193 1707.5815,364.1675 Q1708.9014,362.5156 1711.4082,362.5156 Q1712.1138,362.5156 1712.7612,362.665 Q1713.4087,362.8145 1713.9731,363.1133 L1713.9731,365.8359 Q1713.3423,365.2549 1712.7488,364.9851 Q1712.1553,364.7153 1711.5244,364.7153 Q1710.1797,364.7153 1709.4949,365.782 Q1708.8101,366.8486 1708.8101,368.9487 Q1708.8101,371.0405 1709.4949,372.1072 Q1710.1797,373.1738 1711.5244,373.1738 Q1712.1553,373.1738 1712.7488,372.9041 Q1713.3423,372.6343 1713.9731,372.0532 Z "/><text fill="#000000" font-family="sans-serif" font-size="12" font-style="italic" lengthAdjust="spacingAndGlyphs" textLength="67" x="1765" y="366.6016">«boundary»</text><text fill="#000000" font-family="sans-serif" font-size="12" lengthAdjust="spacingAndGlyphs" textLength="147" x="1725" y="380.7344">PlayConcertModeVSSPage</text><line style="stroke: #0000FF; stroke-width: 1.5;" x1="1697" x2="1874" y1="388.2656" y2="388.2656"/><line style="stroke: #0000FF; stroke-width: 1.5;" x1="1697" x2="1874" y1="396.2656" y2="396.2656"/><!--class ConcertVSSPlayControl--><rect fill="#D3D3D3" filter="url(#f1azbs4dzgmm9v)" height="54.2656" id="ConcertVSSPlayControl" style="stroke: #FF0000; stroke-width: 1.5;" width="160" x="1705.5" y="464"/><ellipse cx="1720.5" cy="483.1328" fill="#ADD1B2" rx="11" ry="11" style="stroke: #FF0000; stroke-width: 1.0;"/><path d="M1723.4731,488.7759 Q1722.8921,489.0747 1722.2529,489.2241 Q1721.6138,489.3735 1720.9082,489.3735 Q1718.4014,489.3735 1717.0815,487.7217 Q1715.7617,486.0698 1715.7617,482.9487 Q1715.7617,479.8193 1717.0815,478.1675 Q1718.4014,476.5156 1720.9082,476.5156 Q1721.6138,476.5156 1722.2612,476.665 Q1722.9087,476.8145 1723.4731,477.1133 L1723.4731,479.8359 Q1722.8423,479.2549 1722.2488,478.9851 Q1721.6553,478.7153 1721.0244,478.7153 Q1719.6797,478.7153 1718.9949,479.782 Q1718.3101,480.8486 1718.3101,482.9487 Q1718.3101,485.0405 1718.9949,486.1072 Q1719.6797,487.1738 1721.0244,487.1738 Q1721.6553,487.1738 1722.2488,486.9041 Q1722.8423,486.6343 1723.4731,486.0532 Z "/><text fill="#000000" font-family="sans-serif" font-size="12" font-style="italic" lengthAdjust="spacingAndGlyphs" textLength="51" x="1773" y="480.6016">«control»</text><text fill="#000000" font-family="sans-serif" font-size="12" lengthAdjust="spacingAndGlyphs" textLength="128" x="1734.5" y="494.7344">ConcertVSSPlayControl</text><line style="stroke: #FF0000; stroke-width: 1.5;" x1="1706.5" x2="1864.5" y1="502.2656" y2="502.2656"/><line style="stroke: #FF0000; stroke-width: 1.5;" x1="1706.5" x2="1864.5" y1="510.2656" y2="510.2656"/><!--class OnlineVSSViewerPage--><rect fill="#ADD8E6" filter="url(#f1azbs4dzgmm9v)" height="54.2656" id="OnlineVSSViewerPage" style="stroke: #0000FF; stroke-width: 1.5;" width="155" x="461" y="8"/><ellipse cx="476" cy="27.1328" fill="#ADD1B2" rx="11" ry="11" style="stroke: #0000FF; stroke-width: 1.0;"/><path d="M478.9731,32.7759 Q478.3921,33.0747 477.7529,33.2241 Q477.1138,33.3735 476.4082,33.3735 Q473.9014,33.3735 472.5815,31.7217 Q471.2617,30.0698 471.2617,26.9487 Q471.2617,23.8193 472.5815,22.1675 Q473.9014,20.5156 476.4082,20.5156 Q477.1138,20.5156 477.7612,20.665 Q478.4087,20.8145 478.9731,21.1133 L478.9731,23.8359 Q478.3423,23.2549 477.7488,22.9851 Q477.1553,22.7153 476.5244,22.7153 Q475.1797,22.7153 474.4949,23.782 Q473.8101,24.8486 473.8101,26.9487 Q473.8101,29.0405 474.4949,30.1072 Q475.1797,31.1738 476.5244,31.1738 Q477.1553,31.1738 477.7488,30.9041 Q478.3423,30.6343 478.9731,30.0532 Z "/><text fill="#000000" font-family="sans-serif" font-size="12" font-style="italic" lengthAdjust="spacingAndGlyphs" textLength="67" x="518" y="24.6016">«boundary»</text><text fill="#000000" font-family="sans-serif" font-size="12" lengthAdjust="spacingAndGlyphs" textLength="123" x="490" y="38.7344">OnlineVSSViewerPage</text><line style="stroke: #0000FF; stroke-width: 1.5;" x1="462" x2="615" y1="46.2656" y2="46.2656"/><line style="stroke: #0000FF; stroke-width: 1.5;" x1="462" x2="615" y1="54.2656" y2="54.2656"/><!--class AdjustSensorControl--><rect fill="#D3D3D3" filter="url(#f1azbs4dzgmm9v)" height="54.2656" id="AdjustSensorControl" style="stroke: #FF0000; stroke-width: 1.5;" width="148" x="1592.5" y="692"/><ellipse cx="1607.5" cy="711.1328" fill="#ADD1B2" rx="11" ry="11" style="stroke: #FF0000; stroke-width: 1.0;"/><path d="M1610.4731,716.7759 Q1609.8921,717.0747 1609.2529,717.2241 Q1608.6138,717.3735 1607.9082,717.3735 Q1605.4014,717.3735 1604.0815,715.7217 Q1602.7617,714.0698 1602.7617,710.9487 Q1602.7617,707.8193 1604.0815,706.1675 Q1605.4014,704.5156 1607.9082,704.5156 Q1608.6138,704.5156 1609.2612,704.665 Q1609.9087,704.8145 1610.4731,705.1133 L1610.4731,707.8359 Q1609.8423,707.2549 1609.2488,706.9851 Q1608.6553,706.7153 1608.0244,706.7153 Q1606.6797,706.7153 1605.9949,707.782 Q1605.3101,708.8486 1605.3101,710.9487 Q1605.3101,713.0405 1605.9949,714.1072 Q1606.6797,715.1738 1608.0244,715.1738 Q1608.6553,715.1738 1609.2488,714.9041 Q1609.8423,714.6343 1610.4731,714.0532 Z "/><text fill="#000000" font-family="sans-serif" font-size="12" font-style="italic" lengthAdjust="spacingAndGlyphs" textLength="51" x="1654" y="708.6016">«control»</text><text fill="#000000" font-family="sans-serif" font-size="12" lengthAdjust="spacingAndGlyphs" textLength="116" x="1621.5" y="722.7344">AdjustSensorControl</text><line style="stroke: #FF0000; stroke-width: 1.5;" x1="1593.5" x2="1739.5" y1="730.2656" y2="730.2656"/><line style="stroke: #FF0000; stroke-width: 1.5;" x1="1593.5" x2="1739.5" y1="738.2656" y2="738.2656"/><!--class SoundFragment--><rect fill="#FFFFE0" filter="url(#f1azbs4dzgmm9v)" height="54.2656" id="SoundFragment" style="stroke: #FFFF00; stroke-width: 1.5;" width="121" x="876" y="578"/><ellipse cx="891" cy="597.1328" fill="#ADD1B2" rx="11" ry="11" style="stroke: #FFFF00; stroke-width: 1.0;"/><path d="M893.9731,602.7759 Q893.3921,603.0747 892.7529,603.2241 Q892.1138,603.3735 891.4082,603.3735 Q888.9014,603.3735 887.5815,601.7217 Q886.2617,600.0698 886.2617,596.9487 Q886.2617,593.8193 887.5815,592.1675 Q888.9014,590.5156 891.4082,590.5156 Q892.1138,590.5156 892.7612,590.665 Q893.4087,590.8145 893.9731,591.1133 L893.9731,593.8359 Q893.3423,593.2549 892.7488,592.9851 Q892.1553,592.7153 891.5244,592.7153 Q890.1797,592.7153 889.4949,593.782 Q888.8101,594.8486 888.8101,596.9487 Q888.8101,599.0405 889.4949,600.1072 Q890.1797,601.1738 891.5244,601.1738 Q892.1553,601.1738 892.7488,600.9041 Q893.3423,600.6343 893.9731,600.0532 Z "/><text fill="#000000" font-family="sans-serif" font-size="12" font-style="italic" lengthAdjust="spacingAndGlyphs" textLength="43" x="928" y="594.6016">«entity»</text><text fill="#000000" font-family="sans-serif" font-size="12" lengthAdjust="spacingAndGlyphs" textLength="89" x="905" y="608.7344">SoundFragment</text><line style="stroke: #FFFF00; stroke-width: 1.5;" x1="877" x2="996" y1="616.2656" y2="616.2656"/><line style="stroke: #FFFF00; stroke-width: 1.5;" x1="877" x2="996" y1="624.2656" y2="624.2656"/><!--class OnlineVSSLibraryControl--><rect fill="#D3D3D3" filter="url(#f1azbs4dzgmm9v)" height="54.2656" id="OnlineVSSLibraryControl" style="stroke: #FF0000; stroke-width: 1.5;" width="169" x="454" y="122"/><ellipse cx="469" cy="141.1328" fill="#ADD1B2" rx="11" ry="11" style="stroke: #FF0000; stroke-width: 1.0;"/><path d="M471.9731,146.7759 Q471.3921,147.0747 470.7529,147.2241 Q470.1138,147.3735 469.4082,147.3735 Q466.9014,147.3735 465.5815,145.7217 Q464.2617,144.0698 464.2617,140.9487 Q464.2617,137.8193 465.5815,136.1675 Q466.9014,134.5156 469.4082,134.5156 Q470.1138,134.5156 470.7612,134.665 Q471.4087,134.8145 471.9731,135.1133 L471.9731,137.8359 Q471.3423,137.2549 470.7488,136.9851 Q470.1553,136.7153 469.5244,136.7153 Q468.1797,136.7153 467.4949,137.782 Q466.8101,138.8486 466.8101,140.9487 Q466.8101,143.0405 467.4949,144.1072 Q468.1797,145.1738 469.5244,145.1738 Q470.1553,145.1738 470.7488,144.9041 Q471.3423,144.6343 471.9731,144.0532 Z "/><text fill="#000000" font-family="sans-serif" font-size="12" font-style="italic" lengthAdjust="spacingAndGlyphs" textLength="51" x="526" y="138.6016">«control»</text><text fill="#000000" font-family="sans-serif" font-size="12" lengthAdjust="spacingAndGlyphs" textLength="137" x="483" y="152.7344">OnlineVSSLibraryControl</text><line style="stroke: #FF0000; stroke-width: 1.5;" x1="455" x2="622" y1="160.2656" y2="160.2656"/><line style="stroke: #FF0000; stroke-width: 1.5;" x1="455" x2="622" y1="168.2656" y2="168.2656"/><!--link UserInfoControl to User--><path d="M121.5,531.4809 C121.5,546.8344 121.5,563.9382 121.5,577.7824 " fill="none" id="UserInfoControl-User" style="stroke: #2E8B57; stroke-width: 1.0;"/><polygon fill="#FFFFFF" points="121.5,518.0164,117.5,524.0164,121.5,530.0164,125.5,524.0164,121.5,518.0164" style="stroke: #2E8B57; stroke-width: 1.0;"/><!--link LocalVSSManagerPage to LocalVSSLibraryControl--><path d="M1125.5,404.0164 C1125.5,422.0572 1125.5,445.7002 1125.5,463.7824 " fill="none" id="LocalVSSManagerPage-LocalVSSLibraryControl" style="stroke: #2E8B57; stroke-width: 1.0; stroke-dasharray: 7.0,7.0;"/><text fill="#000000" font-family="sans-serif" font-size="13" lengthAdjust="spacingAndGlyphs" textLength="28" x="1094.0875" y="425.0036">view</text><text fill="#000000" font-family="sans-serif" font-size="13" lengthAdjust="spacingAndGlyphs" textLength="61" x="1057.4469" y="453.3275">controller</text><!--link LocalVSSLibraryControl to LocalSoundSpaceLibrary--><path d="M1123.6041,518.0164 C1122.4568,534.3659 1120.9866,555.3164 1119.7765,572.5594 " fill="none" id="LocalVSSLibraryControl-LocalSoundSpaceLibrary" style="stroke: #2E8B57; stroke-width: 1.0; stroke-dasharray: 7.0,7.0;"/><polygon fill="#2E8B57" points="1119.41,577.7824,1124.0302,569.0845,1119.76,572.7947,1116.0498,568.5245,1119.41,577.7824" style="stroke: #2E8B57; stroke-width: 1.0;"/><!--link CreateMapVSSPage to CreateMapVSSControl--><path d="M1316.4479,404.0164 C1317.081,422.0572 1317.9105,445.7002 1318.545,463.7824 " fill="none" id="CreateMapVSSPage-CreateMapVSSControl" style="stroke: #2E8B57; stroke-width: 1.0; stroke-dasharray: 7.0,7.0;"/><!--link CreateMapVSSControl to LocalSoundSpaceLibrary--><path d="M1271.6288,518.0164 C1241.049,535.2743 1201.3855,557.6587 1169.953,575.3978 " fill="none" id="CreateMapVSSControl-LocalSoundSpaceLibrary" style="stroke: #2E8B57; stroke-width: 1.0; stroke-dasharray: 7.0,7.0;"/><polygon fill="#2E8B57" points="1165.3772,577.9802,1175.1811,577.0404,1169.7316,575.5228,1171.2492,570.0733,1165.3772,577.9802" style="stroke: #2E8B57; stroke-width: 1.0;"/><!--link LocalSoundSpaceLibrary to VirtualSoundSpace--><path d="M1032.3595,628.2758 C956.6404,648.976 847.027,678.9423 774.7908,698.6903 " fill="none" id="LocalSoundSpaceLibrary-VirtualSoundSpace" style="stroke: #2E8B57; stroke-width: 1.0; stroke-dasharray: 7.0,7.0;"/><polygon fill="#2E8B57" points="769.6554,700.0942,779.3917,701.5792,774.4784,698.7756,777.2819,693.8624,769.6554,700.0942" style="stroke: #2E8B57; stroke-width: 1.0;"/><!--link VirtualSoundSpace to ConcertModeVirtualSoundSpace--><path d="M702.9818,766.1535 C703.6924,779.6547 704.4429,793.916 705.0675,805.7824 " fill="none" id="VirtualSoundSpace-ConcertModeVirtualSoundSpace" style="stroke: #2E8B57; stroke-width: 1.0;"/><polygon fill="none" points="695.9829,766.3567,701.9219,746.0164,709.9635,765.6208,695.9829,766.3567" style="stroke: #2E8B57; stroke-width: 1.0;"/><!--link VirtualSoundSpace to MapModeVirtualSoundSpace--><path d="M626.8635,754.8742 C592.9275,771.4071 553.322,790.7021 521.9617,805.9802 " fill="none" id="VirtualSoundSpace-MapModeVirtualSoundSpace" style="stroke: #2E8B57; stroke-width: 1.0;"/><polygon fill="none" points="623.9997,748.4829,645.0453,746.0164,630.1313,761.0688,623.9997,748.4829" style="stroke: #2E8B57; stroke-width: 1.0;"/><!--link LoginPage to UserInfoControl--><path d="M69.6151,404.0164 C79.5355,420.6478 92.2959,442.0402 102.6795,459.4479 " fill="none" id="LoginPage-UserInfoControl" style="stroke: #2E8B57; stroke-width: 1.0; stroke-dasharray: 7.0,7.0;"/><polygon fill="#2E8B57" points="105.265,463.7824,104.0898,454.0039,102.7036,459.4883,97.2192,458.1022,105.265,463.7824" style="stroke: #2E8B57; stroke-width: 1.0;"/><!--link RegisterPage to UserInfoControl--><path d="M173.3849,404.0164 C163.4645,420.6478 150.7041,442.0402 140.3205,459.4479 " fill="none" id="RegisterPage-UserInfoControl" style="stroke: #2E8B57; stroke-width: 1.0; stroke-dasharray: 7.0,7.0;"/><polygon fill="#2E8B57" points="137.735,463.7824,145.7808,458.1022,140.2964,459.4883,138.9102,454.0039,137.735,463.7824" style="stroke: #2E8B57; stroke-width: 1.0;"/><!--link CreateMapVSSControl to Sensor--><path d="M1342.0224,518.122 C1394.1187,580.8578 1522.6863,735.6821 1577.772,802.0177 " fill="none" id="CreateMapVSSControl-Sensor" style="stroke: #2E8B57; stroke-width: 1.0; stroke-dasharray: 7.0,7.0;"/><polygon fill="#2E8B57" points="1580.9753,805.8752,1578.303,796.3958,1577.7811,802.0285,1572.1483,801.5066,1580.9753,805.8752" style="stroke: #2E8B57; stroke-width: 1.0;"/><!--link CreateMapVSSControl to VirtualSoundSpace--><path d="M1308.4478,518.0076 C1293.5822,550.6686 1263.901,604.6561 1220.5,632 C1147.5522,677.9593 900.3678,703.3902 774.8899,713.6174 " fill="none" id="CreateMapVSSControl-VirtualSoundSpace" style="stroke: #2E8B57; stroke-width: 1.0; stroke-dasharray: 7.0,7.0;"/><polygon fill="#2E8B57" points="769.743,714.0339,779.0364,717.2947,774.7267,713.6305,778.3909,709.3208,769.743,714.0339" style="stroke: #2E8B57; stroke-width: 1.0;"/><!--link CreateMapVSSControl to SoundSource--><path d="M1316.3082,518.1885 C1311.4859,548.8174 1299.8042,598.6629 1272.5,632 C1193.9123,727.9516 1056.6874,787.1801 979.1445,814.685 " fill="none" id="CreateMapVSSControl-SoundSource" style="stroke: #2E8B57; stroke-width: 1.0; stroke-dasharray: 7.0,7.0;"/><polygon fill="#2E8B57" points="974.1244,816.4508,983.9418,817.2374,978.8411,814.7915,981.287,809.6908,974.1244,816.4508" style="stroke: #2E8B57; stroke-width: 1.0;"/><!--link VirtualSoundSpace to SoundSource--><path d="M764.7556,752.1454 C797.9161,769.2508 837.856,789.8533 869.1195,805.9802 " fill="none" id="VirtualSoundSpace-SoundSource" style="stroke: #2E8B57; stroke-width: 1.0;"/><polygon fill="#FFFFFF" points="752.8739,746.0164,756.3725,752.3219,763.5386,751.5176,760.04,745.2121,752.8739,746.0164" style="stroke: #2E8B57; stroke-width: 1.0;"/><!--link CreateConcertVSSPage to CreateConcertVSSControl--><path d="M924.5521,404.0164 C923.919,422.0572 923.0895,445.7002 922.455,463.7824 " fill="none" id="CreateConcertVSSPage-CreateConcertVSSControl" style="stroke: #2E8B57; stroke-width: 1.0; stroke-dasharray: 7.0,7.0;"/><!--link CreateConcertVSSControl to VirtualSoundSpace--><path d="M874.1661,518.1416 C849.3696,533.7285 819.4707,554.792 796.5,578 C763.674,611.1651 734.8877,656.9214 717.6043,687.2043 " fill="none" id="CreateConcertVSSControl-VirtualSoundSpace" style="stroke: #2E8B57; stroke-width: 1.0; stroke-dasharray: 7.0,7.0;"/><polygon fill="#2E8B57" points="714.9303,691.9273,722.8451,686.0659,717.3936,687.5762,715.8833,682.1247,714.9303,691.9273" style="stroke: #2E8B57; stroke-width: 1.0;"/><!--link CreateConcertVSSControl to LocalSoundSpaceLibrary--><path d="M967.9493,518.0164 C997.6208,535.2743 1036.1062,557.6587 1066.605,575.3978 " fill="none" id="CreateConcertVSSControl-LocalSoundSpaceLibrary" style="stroke: #2E8B57; stroke-width: 1.0; stroke-dasharray: 7.0,7.0;"/><polygon fill="#2E8B57" points="1071.0449,577.9802,1065.2765,569.9974,1066.7229,575.4662,1061.2541,576.9126,1071.0449,577.9802" style="stroke: #2E8B57; stroke-width: 1.0;"/><!--link CreateConcertVSSControl to SoundSource--><path d="M894.8654,518.2269 C881.1182,534.2224 865.7434,555.6473 858.5,578 C832.8976,657.0078 875.6096,752.6615 902.3928,801.2885 " fill="none" id="CreateConcertVSSControl-SoundSource" style="stroke: #2E8B57; stroke-width: 1.0; stroke-dasharray: 7.0,7.0;"/><polygon fill="#2E8B57" points="904.9322,805.8454,904.0452,796.0366,902.4983,801.4778,897.057,799.9309,904.9322,805.8454" style="stroke: #2E8B57; stroke-width: 1.0;"/><!--link PreviewOnlineConcertPage to PreviewOnlineConcertControl--><path d="M647.9219,290.0164 C648.8714,308.0572 650.1158,331.7002 651.0675,349.7824 " fill="none" id="PreviewOnlineConcertPage-PreviewOnlineConcertControl" style="stroke: #2E8B57; stroke-width: 1.0; stroke-dasharray: 7.0,7.0;"/><!--link PreviewOnlineMapPage to PreviewOnlineMapControl--><path d="M432.5521,290.0164 C431.919,308.0572 431.0895,331.7002 430.455,349.7824 " fill="none" id="PreviewOnlineMapPage-PreviewOnlineMapControl" style="stroke: #2E8B57; stroke-width: 1.0; stroke-dasharray: 7.0,7.0;"/><!--link PreviewOnlineMapControl to UserInfoControl--><path d="M356.5083,404.0164 C304.809,423.1519 236.0817,448.5899 186.3152,467.01 " fill="none" id="PreviewOnlineMapControl-UserInfoControl" style="stroke: #2E8B57; stroke-width: 1.0; stroke-dasharray: 7.0,7.0;"/><polygon fill="#2E8B57" points="181.5594,468.7702,191.3883,469.3975,186.2485,467.0346,188.6114,461.8949,181.5594,468.7702" style="stroke: #2E8B57; stroke-width: 1.0;"/><!--link PreviewOnlineConcertControl to UserInfoControl--><path d="M553.9527,400.1166 C547.7155,401.4636 541.5253,402.7692 535.5,404 C386.4448,434.4474 345.6473,425.3713 198.5,464 C194.6464,465.0116 190.7101,466.1269 186.7559,467.3108 " fill="none" id="PreviewOnlineConcertControl-UserInfoControl" style="stroke: #2E8B57; stroke-width: 1.0; stroke-dasharray: 7.0,7.0;"/><polygon fill="#2E8B57" points="181.7424,468.8444,191.5188,470.0368,186.5237,467.3818,189.1787,462.3867,181.7424,468.8444" style="stroke: #2E8B57; stroke-width: 1.0;"/><!--link PreviewOnlineMapControl to OnlineSoundSpaceLibrary--><path d="M496.0931,404.0164 C539.1554,421.4865 595.1665,444.2099 639.1408,462.05 " fill="none" id="PreviewOnlineMapControl-OnlineSoundSpaceLibrary" style="stroke: #2E8B57; stroke-width: 1.0; stroke-dasharray: 7.0,7.0;"/><polygon fill="#2E8B57" points="643.8986,463.9802,637.0625,456.8902,639.2654,462.1005,634.055,464.3033,643.8986,463.9802" style="stroke: #2E8B57; stroke-width: 1.0;"/><!--link PreviewOnlineConcertControl to OnlineSoundSpaceLibrary--><path d="M666.2452,404.0164 C674.6351,420.5069 685.4063,441.6779 694.2216,459.0045 " fill="none" id="PreviewOnlineConcertControl-OnlineSoundSpaceLibrary" style="stroke: #2E8B57; stroke-width: 1.0; stroke-dasharray: 7.0,7.0;"/><polygon fill="#2E8B57" points="696.6525,463.7824,696.1365,453.9471,694.3852,459.326,689.0063,457.5747,696.6525,463.7824" style="stroke: #2E8B57; stroke-width: 1.0;"/><!--link OnlineSoundSpaceLibrary to VirtualSoundSpace--><path d="M709.3136,518.0499 C707.4604,560.3022 703.8865,641.7882 701.9065,686.9321 " fill="none" id="OnlineSoundSpaceLibrary-VirtualSoundSpace" style="stroke: #2E8B57; stroke-width: 1.0; stroke-dasharray: 7.0,7.0;"/><polygon fill="#2E8B57" points="701.6849,691.9853,706.0755,683.1693,701.904,686.9901,698.0832,682.8186,701.6849,691.9853" style="stroke: #2E8B57; stroke-width: 1.0;"/><!--link OnlineSoundSpaceLibrary to LocalSoundSpaceLibrary--><path d="M799.0638,515.8066 C868.2821,535.1945 963.8972,561.9761 1032.2531,581.1225 " fill="none" id="OnlineSoundSpaceLibrary-LocalSoundSpaceLibrary" style="stroke: #2E8B57; stroke-width: 1.0; stroke-dasharray: 7.0,7.0;"/><!--link PreviewLocalMapPage to PreviewLocalMapControl--><path d="M297.1589,518.0164 C298.2667,536.0572 299.7184,559.7002 300.8287,577.7824 " fill="none" id="PreviewLocalMapPage-PreviewLocalMapControl" style="stroke: #2E8B57; stroke-width: 1.0; stroke-dasharray: 7.0,7.0;"/><!--link PreviewLocalConcertPage to PreviewLocalConcertControl--><path d="M504.8986,518.0164 C509.1715,536.0572 514.7711,559.7002 519.0537,577.7824 " fill="none" id="PreviewLocalConcertPage-PreviewLocalConcertControl" style="stroke: #2E8B57; stroke-width: 1.0; stroke-dasharray: 7.0,7.0;"/><!--link PreviewLocalConcertControl to VirtualSoundSpace--><path d="M566.9726,632.0164 C593.3564,649.2036 627.5454,671.4753 654.7229,689.1795 " fill="none" id="PreviewLocalConcertControl-VirtualSoundSpace" style="stroke: #2E8B57; stroke-width: 1.0; stroke-dasharray: 7.0,7.0;"/><polygon fill="#2E8B57" points="659.0222,691.9802,653.6647,683.716,654.8328,689.2509,649.2979,690.419,659.0222,691.9802" style="stroke: #2E8B57; stroke-width: 1.0;"/><!--link PreviewLocalMapControl to VirtualSoundSpace--><path d="M388.3701,629.596 C459.1936,649.8821 558.6445,678.368 626.1141,697.6935 " fill="none" id="PreviewLocalMapControl-VirtualSoundSpace" style="stroke: #2E8B57; stroke-width: 1.0; stroke-dasharray: 7.0,7.0;"/><polygon fill="#2E8B57" points="631.3211,699.1849,623.7705,692.8612,626.5144,697.808,621.5676,700.5519,631.3211,699.1849" style="stroke: #2E8B57; stroke-width: 1.0;"/><!--link CreateVSSPage to CreateMapVSSPage--><path d="M1166.7123,290.0164 C1196.2324,307.2743 1234.5214,329.6587 1264.8647,347.3978 " fill="none" id="CreateVSSPage-CreateMapVSSPage" style="stroke: #2E8B57; stroke-width: 1.0; stroke-dasharray: 7.0,7.0;"/><polygon fill="#2E8B57" points="1269.2819,349.9802,1263.5312,341.9846,1264.9655,347.4566,1259.4935,348.8909,1269.2819,349.9802" style="stroke: #2E8B57; stroke-width: 1.0;"/><!--link CreateVSSPage to CreateConcertVSSPage--><path d="M1074.2877,290.0164 C1044.7676,307.2743 1006.4786,329.6587 976.1353,347.3978 " fill="none" id="CreateVSSPage-CreateConcertVSSPage" style="stroke: #2E8B57; stroke-width: 1.0; stroke-dasharray: 7.0,7.0;"/><polygon fill="#2E8B57" points="971.7181,349.9802,981.5065,348.8909,976.0345,347.4566,977.4688,341.9846,971.7181,349.9802" style="stroke: #2E8B57; stroke-width: 1.0;"/><!--link PlayMapModeVSSPage to MapVSSPlayControl--><path d="M1539.5,404.0164 C1539.5,422.0572 1539.5,445.7002 1539.5,463.7824 " fill="none" id="PlayMapModeVSSPage-MapVSSPlayControl" style="stroke: #2E8B57; stroke-width: 1.0; stroke-dasharray: 7.0,7.0;"/><!--link MapVSSPlayControl to LocalSoundSpaceLibrary--><path d="M1468.8667,510.081 C1397.1186,529.4632 1285.7416,559.5508 1207.6636,580.643 " fill="none" id="MapVSSPlayControl-LocalSoundSpaceLibrary" style="stroke: #2E8B57; stroke-width: 1.0; stroke-dasharray: 7.0,7.0;"/><polygon fill="#2E8B57" points="1202.5697,582.0191,1212.3014,583.5335,1207.3967,580.7151,1210.215,575.8103,1202.5697,582.0191" style="stroke: #2E8B57; stroke-width: 1.0;"/><!--link MapVSSPlayControl to VirtualSoundSpace--><path d="M1498.8976,518.03 C1448.1649,550.4536 1357.6339,603.9383 1272.5,632 C1099.9437,688.8778 885.6731,708.8132 774.7797,715.6153 " fill="none" id="MapVSSPlayControl-VirtualSoundSpace" style="stroke: #2E8B57; stroke-width: 1.0; stroke-dasharray: 7.0,7.0;"/><polygon fill="#2E8B57" points="769.5778,715.9294,778.8026,719.3795,774.5687,715.628,778.3203,711.3941,769.5778,715.9294" style="stroke: #2E8B57; stroke-width: 1.0;"/><!--link MapVSSPlayControl to Sensor--><path d="M1541.7872,518.0775 C1546.0871,564.9565 1556.6806,664.0794 1575.5,746 C1579.7498,764.4992 1586.1418,784.7065 1591.746,800.9862 " fill="none" id="MapVSSPlayControl-Sensor" style="stroke: #2E8B57; stroke-width: 1.0; stroke-dasharray: 7.0,7.0;"/><polygon fill="#2E8B57" points="1593.4567,805.9062,1594.279,796.0917,1591.8146,801.1835,1586.7228,798.7191,1593.4567,805.9062" style="stroke: #2E8B57; stroke-width: 1.0;"/><!--link MapVSSPlayControl to GVRAudioEngine--><path d="M1607.752,518.0164 C1653.2629,536.0311 1712.8855,559.6318 1758.5415,577.7039 " fill="none" id="MapVSSPlayControl-GVRAudioEngine" style="stroke: #2E8B57; stroke-width: 1.0; stroke-dasharray: 7.0,7.0;"/><polygon fill="#2E8B57" points="1763.1949,579.5459,1756.2989,572.5142,1758.5459,577.7056,1753.3544,579.9526,1763.1949,579.5459" style="stroke: #2E8B57; stroke-width: 1.0;"/><!--link MapVSSPlayControl to AdjustSensorPage--><path d="M1568.1753,518.0164 C1586.1271,534.9297 1609.305,556.7667 1627.9463,574.3296 " fill="none" id="MapVSSPlayControl-AdjustSensorPage" style="stroke: #2E8B57; stroke-width: 1.0; stroke-dasharray: 7.0,7.0;"/><polygon fill="#2E8B57" points="1631.6112,577.7824,1627.8035,568.6994,1627.9719,574.3537,1622.3176,574.5222,1631.6112,577.7824" style="stroke: #2E8B57; stroke-width: 1.0;"/><!--link PlayConcertModeVSSPage to ConcertVSSPlayControl--><path d="M1785.5,404.0164 C1785.5,422.0572 1785.5,445.7002 1785.5,463.7824 " fill="none" id="PlayConcertModeVSSPage-ConcertVSSPlayControl" style="stroke: #2E8B57; stroke-width: 1.0; stroke-dasharray: 7.0,7.0;"/><!--link ConcertVSSPlayControl to LocalSoundSpaceLibrary--><path d="M1705.1221,504.7401 C1680.2403,508.9922 1652.7367,513.6912 1627.5,518 C1480.5701,543.0864 1309.8235,572.2073 1207.8794,589.5905 " fill="none" id="ConcertVSSPlayControl-LocalSoundSpaceLibrary" style="stroke: #2E8B57; stroke-width: 1.0; stroke-dasharray: 7.0,7.0;"/><polygon fill="#2E8B57" points="1202.7757,590.4607,1212.32,592.891,1207.7046,589.6203,1210.9753,585.0048,1202.7757,590.4607" style="stroke: #2E8B57; stroke-width: 1.0;"/><!--link ConcertVSSPlayControl to Sensor--><path d="M1846.8181,518.1888 C1870.9325,532.3052 1896.0334,552.1012 1909.5,578 C1920.5719,599.2935 1920.1991,610.5168 1909.5,632 C1855.8874,739.6515 1714.3675,797.9724 1644.1712,821.0767 " fill="none" id="ConcertVSSPlayControl-Sensor" style="stroke: #2E8B57; stroke-width: 1.0; stroke-dasharray: 7.0,7.0;"/><polygon fill="#2E8B57" points="1639.2425,822.6795,1649.0384,823.6998,1643.9973,821.1331,1646.5641,816.0921,1639.2425,822.6795" style="stroke: #2E8B57; stroke-width: 1.0;"/><!--link ConcertVSSPlayControl to GVRAudioEngine--><path d="M1795.4534,518.0164 C1801.5288,534.5069 1809.3287,555.6779 1815.7122,573.0045 " fill="none" id="ConcertVSSPlayControl-GVRAudioEngine" style="stroke: #2E8B57; stroke-width: 1.0; stroke-dasharray: 7.0,7.0;"/><polygon fill="#2E8B57" points="1817.4725,577.7824,1818.1144,567.9545,1815.7439,573.0907,1810.6077,570.7202,1817.4725,577.7824" style="stroke: #2E8B57; stroke-width: 1.0;"/><!--link ConcertVSSPlayControl to AdjustSensorPage--><path d="M1755.8767,518.0164 C1737.3315,534.9297 1713.3874,556.7667 1694.1298,574.3296 " fill="none" id="ConcertVSSPlayControl-AdjustSensorPage" style="stroke: #2E8B57; stroke-width: 1.0; stroke-dasharray: 7.0,7.0;"/><polygon fill="#2E8B57" points="1690.3438,577.7824,1699.689,574.6733,1694.0382,574.4132,1694.2983,568.7623,1690.3438,577.7824" style="stroke: #2E8B57; stroke-width: 1.0;"/><!--link OnlineVSSViewerPage to OnlineVSSLibraryControl--><path d="M538.5,62.0164 C538.5,80.0572 538.5,103.7002 538.5,121.7824 " fill="none" id="OnlineVSSViewerPage-OnlineVSSLibraryControl" style="stroke: #2E8B57; stroke-width: 1.0; stroke-dasharray: 7.0,7.0;"/><!--link OnlineVSSLibraryControl to PreviewOnlineConcertPage--><path d="M564.0945,176.0164 C579.9841,192.7887 600.4608,214.4031 617.027,231.8896 " fill="none" id="OnlineVSSLibraryControl-PreviewOnlineConcertPage" style="stroke: #2E8B57; stroke-width: 1.0; stroke-dasharray: 7.0,7.0;"/><polygon fill="#2E8B57" points="620.7149,235.7824,617.429,226.4979,617.2762,232.1527,611.6214,231.9999,620.7149,235.7824" style="stroke: #2E8B57; stroke-width: 1.0;"/><!--link OnlineVSSLibraryControl to PreviewOnlineMapPage--><path d="M513.6165,176.0164 C498.1683,192.7887 478.2603,214.4031 462.1543,231.8896 " fill="none" id="OnlineVSSLibraryControl-PreviewOnlineMapPage" style="stroke: #2E8B57; stroke-width: 1.0; stroke-dasharray: 7.0,7.0;"/><polygon fill="#2E8B57" points="458.5688,235.7824,467.6083,231.8725,461.9562,232.1047,461.724,226.4526,458.5688,235.7824" style="stroke: #2E8B57; stroke-width: 1.0;"/><!--link AdjustSensorPage to AdjustSensorControl--><path d="M1661.9219,632.0164 C1662.8714,650.0572 1664.1158,673.7002 1665.0675,691.7824 " fill="none" id="AdjustSensorPage-AdjustSensorControl" style="stroke: #2E8B57; stroke-width: 1.0; stroke-dasharray: 7.0,7.0;"/><!--link AdjustSensorControl to Sensor--><path d="M1651.5699,746.0164 C1641.5999,764.0572 1628.5341,787.7002 1618.5413,805.7824 " fill="none" id="AdjustSensorControl-Sensor" style="stroke: #2E8B57; stroke-width: 1.0; stroke-dasharray: 7.0,7.0;"/><!--link SoundFragment to SoundSource--><path d="M934.3878,637.1056 C931.4165,682.2697 926.0556,763.7548 923.2773,805.9853 " fill="none" id="SoundFragment-SoundSource" style="stroke: #2E8B57; stroke-width: 1.0;"/><polygon fill="#2E8B57" points="934.7204,632.0499,930.1379,640.7677,934.392,637.0391,938.1206,641.2932,934.7204,632.0499" style="stroke: #2E8B57; stroke-width: 1.0;"/><text fill="#000000" font-family="sans-serif" font-size="13" lengthAdjust="spacingAndGlyphs" textLength="8" x="925.3116" y="653.0453">1</text><text fill="#000000" font-family="sans-serif" font-size="13" lengthAdjust="spacingAndGlyphs" textLength="8" x="914.7355" y="795.1462">1</text><!--link CreateMapVSSControl to SoundFragment--><path d="M1241.4839,513.2208 C1155.1246,537.834 1026.5487,574.5334 1015.5,578 C1011.1329,579.3702 1006.6412,580.8132 1002.122,582.2902 " fill="none" id="CreateMapVSSControl-SoundFragment" style="stroke: #2E8B57; stroke-width: 1.0; stroke-dasharray: 7.0,7.0;"/><polygon fill="#2E8B57" points="997.212,583.9044,1007.0111,584.8935,1001.9619,582.3428,1004.5125,577.2936,997.212,583.9044" style="stroke: #2E8B57; stroke-width: 1.0;"/><!--link CreateConcertVSSControl to SoundFragment--><path d="M925.0548,518.0164 C927.206,534.3659 929.9627,555.3164 932.2315,572.5594 " fill="none" id="CreateConcertVSSControl-SoundFragment" style="stroke: #2E8B57; stroke-width: 1.0; stroke-dasharray: 7.0,7.0;"/><polygon fill="#2E8B57" points="932.9187,577.7824,935.7104,568.3375,932.2664,572.8251,927.7788,569.3811,932.9187,577.7824" style="stroke: #2E8B57; stroke-width: 1.0;"/><!--
@startuml Diagrams/ClassDiagram
skinparam class {
	BackgroundColor PaleGreen
	ArrowColor SeaGreen
	BorderColor SpringGreen
	BackgroundColor<<boundary>> LightBlue
	BorderColor<<boundary>> Blue
    BackgroundColor<<control>> LightGray
    BorderColor<<control>> Red
    BackgroundColor<<entity>> LightYellow
    BorderColor<<entity>> Yellow
}


class RegisterPage <<boundary>> {

}
class UserInfoControl <<control>> {

}
class LocalVSSManagerPage <<boundary>> {

}
class User <<entity>> {

}
class LoginPage <<boundary>> {

}
class LocalVSSLibraryControl <<control>> {

}
class LocalSoundSpaceLibrary <<entity>> {

}
class PreviewLocalMapPage <<boundary>> {

}
class PreviewLocalConcertPage <<boundary>> {

}
class CreateVSSPage <<boundary>> {

}
class CreateMapVSSPage <<boundary>> {

}
class CreateMapVSSControl <<control>> {

}
class Sensor <<entity>> {

}
class MapModeVirtualSoundSpace <<entity>> {

}
class ConcertModeVirtualSoundSpace <<entity>> {

}
abstract VirtualSoundSpace <<entity>> {

}
class SoundSource <<entity>> {

}
class CreateConcertVSSPage <<boundary>> {

}
class CreateConcertVSSControl <<control>> {

}
class PreviewOnlineMapPage <<boundary>> {

}
class PreviewOnlineMapControl <<control>> {

}
class PreviewOnlineConcertPage <<boundary>> {

}
class PreviewOnlineConcertControl <<control>> {

}
class OnlineSoundSpaceLibrary <<entity>> {

}
class PreviewLocalMapControl <<control>> {

}
class PreviewLocalConcertControl <<control>> {

}
class PlayMapModeVSSPage <<boundary>> {

}
class MapVSSPlayControl <<control>> {

}
class LocalSoundSpaceLibrary <<entity>> {

}
class GVRAudioEngine <<control>> {

}
class AdjustSensorPage <<boundary>> {

}
class PlayConcertModeVSSPage <<boundary>> {

}
class ConcertVSSPlayControl <<control>> {

}
class OnlineVSSViewerPage <<boundary>> {

}
class AdjustSensorControl <<control>> {

}
class SoundFragment <<entity>> {

}
class OnlineVSSLibraryControl <<control>> {

}


UserInfoControl o- - User
LocalVSSManagerPage "view" .. "controller" LocalVSSLibraryControl
LocalVSSLibraryControl ..> LocalSoundSpaceLibrary
CreateMapVSSPage .. CreateMapVSSControl
CreateMapVSSControl ..> LocalSoundSpaceLibrary
LocalSoundSpaceLibrary ..> VirtualSoundSpace
VirtualSoundSpace <|- - ConcertModeVirtualSoundSpace
VirtualSoundSpace <|- - MapModeVirtualSoundSpace
LoginPage ..> UserInfoControl
RegisterPage ..> UserInfoControl
CreateMapVSSControl ..> Sensor
CreateMapVSSControl ..> VirtualSoundSpace
CreateMapVSSControl ..> SoundSource
VirtualSoundSpace o- - SoundSource
CreateConcertVSSPage .. CreateConcertVSSControl
CreateConcertVSSControl ..> VirtualSoundSpace
CreateConcertVSSControl ..> LocalSoundSpaceLibrary
CreateConcertVSSControl ..> SoundSource
PreviewOnlineConcertPage .. PreviewOnlineConcertControl
PreviewOnlineMapPage .. PreviewOnlineMapControl
PreviewOnlineMapControl ..> UserInfoControl
PreviewOnlineConcertControl ..> UserInfoControl
PreviewOnlineMapControl ..> OnlineSoundSpaceLibrary
PreviewOnlineConcertControl ..> OnlineSoundSpaceLibrary
OnlineSoundSpaceLibrary ..> VirtualSoundSpace
OnlineSoundSpaceLibrary .. LocalSoundSpaceLibrary
PreviewLocalMapPage .. PreviewLocalMapControl
PreviewLocalConcertPage .. PreviewLocalConcertControl
PreviewLocalConcertControl ..> VirtualSoundSpace
PreviewLocalMapControl ..> VirtualSoundSpace
CreateVSSPage ..> CreateMapVSSPage
CreateVSSPage ..> CreateConcertVSSPage
PlayMapModeVSSPage .. MapVSSPlayControl
MapVSSPlayControl ..> LocalSoundSpaceLibrary
MapVSSPlayControl ..> VirtualSoundSpace
MapVSSPlayControl ..> Sensor
MapVSSPlayControl ..> GVRAudioEngine
MapVSSPlayControl ..> AdjustSensorPage
PlayConcertModeVSSPage .. ConcertVSSPlayControl
ConcertVSSPlayControl ..> LocalSoundSpaceLibrary
ConcertVSSPlayControl ..> Sensor
ConcertVSSPlayControl ..> GVRAudioEngine
ConcertVSSPlayControl ..> AdjustSensorPage
OnlineVSSViewerPage .. OnlineVSSLibraryControl
OnlineVSSLibraryControl ..> PreviewOnlineConcertPage
OnlineVSSLibraryControl ..> PreviewOnlineMapPage
AdjustSensorPage .. AdjustSensorControl
AdjustSensorControl .. Sensor
SoundFragment "1" <- - "1" SoundSource
CreateMapVSSControl ..> SoundFragment
CreateConcertVSSControl ..> SoundFragment

@enduml

PlantUML version 1.2018.01(Mon Jan 29 02:08:22 CST 2018)
(GPL source distribution)
Java Runtime: Java(TM) SE Runtime Environment
JVM: Java HotSpot(TM) 64-Bit Server VM
Java Version: 9+181
Operating System: Mac OS X
OS Version: 10.12.6
Default Encoding: UTF-8
Language: zh
Country: CN
--></g></svg>