<?xml version="1.0" encoding="UTF-8" standalone="no"?><svg xmlns="http://www.w3.org/2000/svg" xmlns:xlink="http://www.w3.org/1999/xlink" contentScriptType="application/ecmascript" contentStyleType="text/css" height="265px" preserveAspectRatio="none" style="width:950px;height:265px;" version="1.1" viewBox="0 0 950 265"
    width="950px" zoomAndPan="magnify"><defs><filter height="300%" id="fd5cif1jrodc5" width="300%" x="-1" y="-1"><feGaussianBlur result="blurOut" stdDeviation="2.0"/><feColorMatrix in="blurOut" result="blurOut2" type="matrix" values="0 0 0 0 0 0 0 0 0 0 0 0 0 0 0 0 0 0 .4 0"/><feOffset dx="4.0" dy="4.0" in="blurOut2" result="blurOut3"/><feBlend in="SourceGraphic" in2="blurOut3" mode="normal"/></filter></defs><g><line style="stroke: #A80036; stroke-width: 1.0; stroke-dasharray: 5.0,5.0;" x1="26" x2="26" y1="86.4883" y2="253.041"/><line style="stroke: #A80036; stroke-width: 1.0; stroke-dasharray: 5.0,5.0;" x1="267" x2="267" y1="86.4883" y2="253.041"/><line style="stroke: #A80036; stroke-width: 1.0; stroke-dasharray: 5.0,5.0;" x1="497.5" x2="497.5" y1="86.4883" y2="253.041"/><line style="stroke: #A80036; stroke-width: 1.0; stroke-dasharray: 5.0,5.0;" x1="669.5" x2="669.5" y1="86.4883" y2="253.041"/><line style="stroke: #A80036; stroke-width: 1.0; stroke-dasharray: 5.0,5.0;" x1="844.5" x2="844.5" y1="86.4883" y2="253.041"/><text fill="#000000" font-family="sans-serif" font-size="14" lengthAdjust="spacingAndGlyphs" text-decoration="underline" textLength="31" x="8" y="83.5352">User</text><line style="stroke: #000000; stroke-width: 1.0;" x1="8" x2="39" y1="85.5352" y2="85.5352"/><ellipse cx="26.5" cy="13" fill="#FEFECE" filter="url(#fd5cif1jrodc5)" rx="8" ry="8" style="stroke: #A80036; stroke-width: 2.0;"/><path d="M26.5,21 L26.5,48 M13.5,29 L39.5,29 M26.5,48 L13.5,63 M26.5,48 L39.5,63 " fill="none" filter="url(#fd5cif1jrodc5)" style="stroke: #A80036; stroke-width: 2.0;"/><rect fill="#FEFECE" filter="url(#fd5cif1jrodc5)" height="30.4883" style="stroke: #A80036; stroke-width: 1.5;" width="169" x="181" y="51"/><text fill="#000000" font-family="sans-serif" font-size="14" lengthAdjust="spacingAndGlyphs" text-decoration="underline" textLength="155" x="188" y="71.5352">:PreviewOnline***Page</text><line style="stroke: #000000; stroke-width: 1.0;" x1="188" x2="343" y1="73.5352" y2="73.5352"/><rect fill="#FEFECE" filter="url(#fd5cif1jrodc5)" height="30.4883" style="stroke: #A80036; stroke-width: 1.5;" width="188" x="401.5" y="51"/><text fill="#000000" font-family="sans-serif" font-size="14" lengthAdjust="spacingAndGlyphs" text-decoration="underline" textLength="174" x="408.5" y="71.5352">:PreviewOnline***Control</text><line style="stroke: #000000; stroke-width: 1.0;" x1="408.5" x2="582.5" y1="73.5352" y2="73.5352"/><rect fill="#FEFECE" filter="url(#fd5cif1jrodc5)" height="30.4883" style="stroke: #A80036; stroke-width: 1.5;" width="128" x="603.5" y="51"/><text fill="#000000" font-family="sans-serif" font-size="14" lengthAdjust="spacingAndGlyphs" text-decoration="underline" textLength="114" x="610.5" y="71.5352">:UserInfoControl</text><line style="stroke: #000000; stroke-width: 1.0;" x1="610.5" x2="724.5" y1="73.5352" y2="73.5352"/><rect fill="#FEFECE" filter="url(#fd5cif1jrodc5)" height="30.4883" style="stroke: #A80036; stroke-width: 1.5;" width="194" x="745.5" y="51"/><text fill="#000000" font-family="sans-serif" font-size="14" lengthAdjust="spacingAndGlyphs" text-decoration="underline" textLength="180" x="752.5" y="71.5352">:OnlineSoundSpaceLibrary</text><line style="stroke: #000000; stroke-width: 1.0;" x1="752.5" x2="932.5" y1="73.5352" y2="73.5352"/><polygon fill="#A80036" points="255.5,113.4883,265.5,117.4883,255.5,121.4883,259.5,117.4883" style="stroke: #A80036; stroke-width: 1.0;"/><line style="stroke: #A80036; stroke-width: 1.0;" x1="26.5" x2="261.5" y1="117.4883" y2="117.4883"/><text fill="#000000" font-family="sans-serif" font-size="13" lengthAdjust="spacingAndGlyphs" textLength="217" x="33.5" y="113.0566">submitComment(comment: String)</text><polygon fill="#A80036" points="485.5,142.7988,495.5,146.7988,485.5,150.7988,489.5,146.7988" style="stroke: #A80036; stroke-width: 1.0;"/><line style="stroke: #A80036; stroke-width: 1.0;" x1="267.5" x2="491.5" y1="146.7988" y2="146.7988"/><text fill="#000000" font-family="sans-serif" font-size="13" lengthAdjust="spacingAndGlyphs" textLength="206" x="274.5" y="142.3672">submitComment(commit: String)</text><polygon fill="#A80036" points="657.5,172.1094,667.5,176.1094,657.5,180.1094,661.5,176.1094" style="stroke: #A80036; stroke-width: 1.0;"/><line style="stroke: #A80036; stroke-width: 1.0;" x1="497.5" x2="663.5" y1="176.1094" y2="176.1094"/><text fill="#000000" font-family="sans-serif" font-size="13" lengthAdjust="spacingAndGlyphs" textLength="117" x="504.5" y="171.6777">getCurrentUserID()</text><polygon fill="#A80036" points="508.5,201.4199,498.5,205.4199,508.5,209.4199,504.5,205.4199" style="stroke: #A80036; stroke-width: 1.0;"/><line style="stroke: #A80036; stroke-width: 1.0; stroke-dasharray: 2.0,2.0;" x1="502.5" x2="668.5" y1="205.4199" y2="205.4199"/><text fill="#000000" font-family="sans-serif" font-size="13" lengthAdjust="spacingAndGlyphs" textLength="87" x="514.5" y="200.9883">currentUserID</text><polygon fill="#A80036" points="832.5,230.7305,842.5,234.7305,832.5,238.7305,836.5,234.7305" style="stroke: #A80036; stroke-width: 1.0;"/><line style="stroke: #A80036; stroke-width: 1.0;" x1="497.5" x2="838.5" y1="234.7305" y2="234.7305"/><text fill="#000000" font-family="sans-serif" font-size="13" lengthAdjust="spacingAndGlyphs" textLength="254" x="504.5" y="230.2988">addCommit(whichVSS, userid, comment)</text><!--
@startuml Diagrams/CommentVSS
hide footbox
skinparam sequenceParticipant underline
actor User as user
participant ":PreviewOnline***Page" as page
participant ":PreviewOnline***Control" as control
participant ":UserInfoControl" as info
participant ":OnlineSoundSpaceLibrary" as library

user -> page: submitComment(comment: String)
page -> control: submitComment(commit: String)
control -> info: getCurrentUserID()
info - -> control: currentUserID
control -> library: addCommit(whichVSS, userid, comment)
@enduml

PlantUML version 1.2018.01(Mon Jan 29 02:08:22 CST 2018)
(GPL source distribution)
Java Runtime: Java(TM) SE Runtime Environment
JVM: Java HotSpot(TM) 64-Bit Server VM
Java Version: 9+181
Operating System: Mac OS X
OS Version: 10.12.6
Default Encoding: UTF-8
Language: zh
Country: CN
--></g></svg>