<?xml version="1.0" encoding="UTF-8" standalone="no"?><svg xmlns="http://www.w3.org/2000/svg" xmlns:xlink="http://www.w3.org/1999/xlink" contentScriptType="application/ecmascript" contentStyleType="text/css" height="617px" preserveAspectRatio="none" style="width:633px;height:617px;" version="1.1" viewBox="0 0 633 617"
    width="633px" zoomAndPan="magnify"><defs><filter height="300%" id="f1wcn83j7nvduf" width="300%" x="-1" y="-1"><feGaussianBlur result="blurOut" stdDeviation="2.0"/><feColorMatrix in="blurOut" result="blurOut2" type="matrix" values="0 0 0 0 0 0 0 0 0 0 0 0 0 0 0 0 0 0 .4 0"/><feOffset dx="4.0" dy="4.0" in="blurOut2" result="blurOut3"/><feBlend in="SourceGraphic" in2="blurOut3" mode="normal"/></filter></defs><g><rect fill="#FFFFFF" filter="url(#f1wcn83j7nvduf)" height="147.5527" style="stroke: #000000; stroke-width: 2.0;" width="393.5" x="13" y="204.4199"/><rect fill="#FEFECE" filter="url(#f1wcn83j7nvduf)" height="30.4883" style="stroke: #A80036; stroke-width: 1.5;" width="49" x="388.5" y="388.2832"/><text fill="#000000" font-family="sans-serif" font-size="14" lengthAdjust="spacingAndGlyphs" text-decoration="underline" textLength="35" x="395.5" y="408.8184">:User</text><line style="stroke: #000000; stroke-width: 1.0;" x1="395.5" x2="430.5" y1="410.8184" y2="410.8184"/><rect fill="#FFFFFF" filter="url(#f1wcn83j7nvduf)" height="59.6211" style="stroke: #000000; stroke-width: 2.0;" width="217" x="210.5" y="483.082"/><rect fill="#FEFECE" filter="url(#f1wcn83j7nvduf)" height="30.4883" style="stroke: #A80036; stroke-width: 1.5;" width="171" x="451.5" y="549.7031"/><text fill="#000000" font-family="sans-serif" font-size="14" lengthAdjust="spacingAndGlyphs" text-decoration="underline" textLength="157" x="458.5" y="570.2383">:LocalVSSManagerPage</text><line style="stroke: #000000; stroke-width: 1.0;" x1="458.5" x2="615.5" y1="572.2383" y2="572.2383"/><line style="stroke: #A80036; stroke-width: 1.0; stroke-dasharray: 5.0,5.0;" x1="41" x2="41" y1="86.4883" y2="605.1914"/><line style="stroke: #A80036; stroke-width: 1.0; stroke-dasharray: 5.0,5.0;" x1="161" x2="161" y1="86.4883" y2="605.1914"/><line style="stroke: #A80036; stroke-width: 1.0; stroke-dasharray: 5.0,5.0;" x1="286.5" x2="286.5" y1="86.4883" y2="605.1914"/><line style="stroke: #A80036; stroke-width: 1.0; stroke-dasharray: 5.0,5.0;" x1="414.5" x2="414.5" y1="421.0273" y2="605.1914"/><line style="stroke: #A80036; stroke-width: 1.0; stroke-dasharray: 5.0,5.0;" x1="538.5" x2="538.5" y1="582.4473" y2="605.1914"/><text fill="#000000" font-family="sans-serif" font-size="14" lengthAdjust="spacingAndGlyphs" text-decoration="underline" textLength="31" x="23" y="83.5352">User</text><line style="stroke: #000000; stroke-width: 1.0;" x1="23" x2="54" y1="85.5352" y2="85.5352"/><ellipse cx="41.5" cy="13" fill="#FEFECE" filter="url(#f1wcn83j7nvduf)" rx="8" ry="8" style="stroke: #A80036; stroke-width: 2.0;"/><path d="M41.5,21 L41.5,48 M28.5,29 L54.5,29 M41.5,48 L28.5,63 M41.5,48 L54.5,63 " fill="none" filter="url(#f1wcn83j7nvduf)" style="stroke: #A80036; stroke-width: 2.0;"/><rect fill="#FEFECE" filter="url(#f1wcn83j7nvduf)" height="30.4883" style="stroke: #A80036; stroke-width: 1.5;" width="89" x="115" y="51"/><text fill="#000000" font-family="sans-serif" font-size="14" lengthAdjust="spacingAndGlyphs" text-decoration="underline" textLength="75" x="122" y="71.5352">:LoginPage</text><line style="stroke: #000000; stroke-width: 1.0;" x1="122" x2="197" y1="73.5352" y2="73.5352"/><rect fill="#FEFECE" filter="url(#f1wcn83j7nvduf)" height="30.4883" style="stroke: #A80036; stroke-width: 1.5;" width="128" x="220.5" y="51"/><text fill="#000000" font-family="sans-serif" font-size="14" lengthAdjust="spacingAndGlyphs" text-decoration="underline" textLength="114" x="227.5" y="71.5352">:UserInfoControl</text><line style="stroke: #000000; stroke-width: 1.0;" x1="227.5" x2="341.5" y1="73.5352" y2="73.5352"/><polygon fill="#A80036" points="149.5,113.4883,159.5,117.4883,149.5,121.4883,153.5,117.4883" style="stroke: #A80036; stroke-width: 1.0;"/><line style="stroke: #A80036; stroke-width: 1.0;" x1="41.5" x2="155.5" y1="117.4883" y2="117.4883"/><text fill="#000000" font-family="sans-serif" font-size="13" lengthAdjust="spacingAndGlyphs" textLength="96" x="48.5" y="113.0566">enterLoginData</text><polygon fill="#A80036" points="274.5,142.7988,284.5,146.7988,274.5,150.7988,278.5,146.7988" style="stroke: #A80036; stroke-width: 1.0;"/><line style="stroke: #A80036; stroke-width: 1.0;" x1="161.5" x2="280.5" y1="146.7988" y2="146.7988"/><text fill="#000000" font-family="sans-serif" font-size="13" lengthAdjust="spacingAndGlyphs" textLength="94" x="168.5" y="142.3672">sendLoginData</text><line style="stroke: #A80036; stroke-width: 1.0;" x1="286.5" x2="328.5" y1="176.4199" y2="176.4199"/><line style="stroke: #A80036; stroke-width: 1.0;" x1="328.5" x2="328.5" y1="176.4199" y2="189.4199"/><line style="stroke: #A80036; stroke-width: 1.0;" x1="287.5" x2="328.5" y1="189.4199" y2="189.4199"/><polygon fill="#A80036" points="297.5,185.4199,287.5,189.4199,297.5,193.4199,293.5,189.4199" style="stroke: #A80036; stroke-width: 1.0;"/><text fill="#000000" font-family="sans-serif" font-size="13" lengthAdjust="spacingAndGlyphs" textLength="101" x="293.5" y="171.6777">checkLoginData</text><path d="M13,204.4199 L87,204.4199 L87,211.4199 L77,221.4199 L13,221.4199 L13,204.4199 " fill="#EEEEEE" style="stroke: #000000; stroke-width: 1.0;"/><rect fill="none" height="147.5527" style="stroke: #000000; stroke-width: 2.0;" width="393.5" x="13" y="204.4199"/><text fill="#000000" font-family="sans-serif" font-size="13" font-weight="bold" lengthAdjust="spacingAndGlyphs" textLength="29" x="28" y="217.9883">loop</text><text fill="#000000" font-family="sans-serif" font-size="11" font-weight="bold" lengthAdjust="spacingAndGlyphs" textLength="174" x="102" y="217.0547">[wrong password or username]</text><polygon fill="#A80036" points="172.5,238.7305,162.5,242.7305,172.5,246.7305,168.5,242.7305" style="stroke: #A80036; stroke-width: 1.0;"/><line style="stroke: #A80036; stroke-width: 1.0; stroke-dasharray: 2.0,2.0;" x1="166.5" x2="285.5" y1="242.7305" y2="242.7305"/><text fill="#000000" font-family="sans-serif" font-size="13" lengthAdjust="spacingAndGlyphs" textLength="101" x="178.5" y="238.2988">loginDataWrong</text><polygon fill="#A80036" points="149.5,268.041,159.5,272.041,149.5,276.041,153.5,272.041" style="stroke: #A80036; stroke-width: 1.0;"/><line style="stroke: #A80036; stroke-width: 1.0;" x1="41.5" x2="155.5" y1="272.041" y2="272.041"/><text fill="#000000" font-family="sans-serif" font-size="13" lengthAdjust="spacingAndGlyphs" textLength="96" x="48.5" y="267.6094">enterLoginData</text><polygon fill="#A80036" points="274.5,297.3516,284.5,301.3516,274.5,305.3516,278.5,301.3516" style="stroke: #A80036; stroke-width: 1.0;"/><line style="stroke: #A80036; stroke-width: 1.0;" x1="161.5" x2="280.5" y1="301.3516" y2="301.3516"/><text fill="#000000" font-family="sans-serif" font-size="13" lengthAdjust="spacingAndGlyphs" textLength="94" x="168.5" y="296.9199">sendLoginData</text><line style="stroke: #A80036; stroke-width: 1.0;" x1="286.5" x2="328.5" y1="330.9727" y2="330.9727"/><line style="stroke: #A80036; stroke-width: 1.0;" x1="328.5" x2="328.5" y1="330.9727" y2="343.9727"/><line style="stroke: #A80036; stroke-width: 1.0;" x1="287.5" x2="328.5" y1="343.9727" y2="343.9727"/><polygon fill="#A80036" points="297.5,339.9727,287.5,343.9727,297.5,347.9727,293.5,343.9727" style="stroke: #A80036; stroke-width: 1.0;"/><text fill="#000000" font-family="sans-serif" font-size="13" lengthAdjust="spacingAndGlyphs" textLength="101" x="293.5" y="326.2305">checkLoginData</text><polygon fill="#A80036" points="172.5,375.9727,162.5,379.9727,172.5,383.9727,168.5,379.9727" style="stroke: #A80036; stroke-width: 1.0;"/><line style="stroke: #A80036; stroke-width: 1.0; stroke-dasharray: 2.0,2.0;" x1="166.5" x2="285.5" y1="379.9727" y2="379.9727"/><text fill="#000000" font-family="sans-serif" font-size="13" lengthAdjust="spacingAndGlyphs" textLength="85" x="178.5" y="375.541">LoginSuccess</text><polygon fill="#A80036" points="376.5,405.2832,386.5,409.2832,376.5,413.2832,380.5,409.2832" style="stroke: #A80036; stroke-width: 1.0;"/><line style="stroke: #A80036; stroke-width: 1.0;" x1="286.5" x2="382.5" y1="409.2832" y2="409.2832"/><text fill="#000000" font-family="sans-serif" font-size="13" lengthAdjust="spacingAndGlyphs" textLength="78" x="293.5" y="404.8516">&lt;&lt;create&gt;&gt;</text><rect fill="#FEFECE" filter="url(#f1wcn83j7nvduf)" height="30.4883" style="stroke: #A80036; stroke-width: 1.5;" width="49" x="388.5" y="388.2832"/><text fill="#000000" font-family="sans-serif" font-size="14" lengthAdjust="spacingAndGlyphs" text-decoration="underline" textLength="35" x="395.5" y="408.8184">:User</text><line style="stroke: #000000; stroke-width: 1.0;" x1="395.5" x2="430.5" y1="410.8184" y2="410.8184"/><line style="stroke: #A80036; stroke-width: 1.0;" x1="286.5" x2="328.5" y1="455.082" y2="455.082"/><line style="stroke: #A80036; stroke-width: 1.0;" x1="328.5" x2="328.5" y1="455.082" y2="468.082"/><line style="stroke: #A80036; stroke-width: 1.0;" x1="287.5" x2="328.5" y1="468.082" y2="468.082"/><polygon fill="#A80036" points="297.5,464.082,287.5,468.082,297.5,472.082,293.5,468.082" style="stroke: #A80036; stroke-width: 1.0;"/><text fill="#000000" font-family="sans-serif" font-size="13" lengthAdjust="spacingAndGlyphs" textLength="94" x="293.5" y="450.3398">setCurrentUser</text><path d="M210.5,483.082 L272.5,483.082 L272.5,490.082 L262.5,500.082 L210.5,500.082 L210.5,483.082 " fill="#EEEEEE" style="stroke: #000000; stroke-width: 1.0;"/><rect fill="none" height="59.6211" style="stroke: #000000; stroke-width: 2.0;" width="217" x="210.5" y="483.082"/><text fill="#000000" font-family="sans-serif" font-size="13" font-weight="bold" lengthAdjust="spacingAndGlyphs" textLength="17" x="225.5" y="496.6504">alt</text><text fill="#000000" font-family="sans-serif" font-size="11" font-weight="bold" lengthAdjust="spacingAndGlyphs" textLength="135" x="287.5" y="495.7168">[remember me selected]</text><line style="stroke: #A80036; stroke-width: 1.0;" x1="286.5" x2="328.5" y1="521.7031" y2="521.7031"/><line style="stroke: #A80036; stroke-width: 1.0;" x1="328.5" x2="328.5" y1="521.7031" y2="534.7031"/><line style="stroke: #A80036; stroke-width: 1.0;" x1="287.5" x2="328.5" y1="534.7031" y2="534.7031"/><polygon fill="#A80036" points="297.5,530.7031,287.5,534.7031,297.5,538.7031,293.5,534.7031" style="stroke: #A80036; stroke-width: 1.0;"/><text fill="#000000" font-family="sans-serif" font-size="13" lengthAdjust="spacingAndGlyphs" textLength="113" x="293.5" y="516.9609">setRememberUser</text><polygon fill="#A80036" points="439.5,566.7031,449.5,570.7031,439.5,574.7031,443.5,570.7031" style="stroke: #A80036; stroke-width: 1.0;"/><line style="stroke: #A80036; stroke-width: 1.0;" x1="286.5" x2="445.5" y1="570.7031" y2="570.7031"/><text fill="#000000" font-family="sans-serif" font-size="13" lengthAdjust="spacingAndGlyphs" textLength="78" x="293.5" y="566.2715">&lt;&lt;create&gt;&gt;</text><rect fill="#FEFECE" filter="url(#f1wcn83j7nvduf)" height="30.4883" style="stroke: #A80036; stroke-width: 1.5;" width="171" x="451.5" y="549.7031"/><text fill="#000000" font-family="sans-serif" font-size="14" lengthAdjust="spacingAndGlyphs" text-decoration="underline" textLength="157" x="458.5" y="570.2383">:LocalVSSManagerPage</text><line style="stroke: #000000; stroke-width: 1.0;" x1="458.5" x2="615.5" y1="572.2383" y2="572.2383"/><!--
@startuml Diagrams/Login
hide footbox
skinparam sequenceParticipant underline

actor User as user
participant ":LoginPage" as boundary
participant ":UserInfoControl" as control
participant ":User" as userdata
participant ":LocalVSSManagerPage" as nextpage

user -> boundary: enterLoginData
boundary -> control: sendLoginData
control -> control: checkLoginData
loop wrong password or username
    control - -> boundary: loginDataWrong
    user -> boundary: enterLoginData
    boundary -> control: sendLoginData
    control -> control: checkLoginData
end
control - -> boundary: LoginSuccess
create userdata
control -> userdata: <<create>>
control -> control: setCurrentUser
alt remember me selected
    control -> control: setRememberUser
end
create nextpage
control -> nextpage: <<create>>
@enduml

PlantUML version 1.2018.01(Mon Jan 29 02:08:22 CST 2018)
(GPL source distribution)
Java Runtime: Java(TM) SE Runtime Environment
JVM: Java HotSpot(TM) 64-Bit Server VM
Java Version: 9+181
Operating System: Mac OS X
OS Version: 10.12.6
Default Encoding: UTF-8
Language: zh
Country: CN
--></g></svg>