<?xml version="1.0" encoding="UTF-8" standalone="no"?><svg xmlns="http://www.w3.org/2000/svg" xmlns:xlink="http://www.w3.org/1999/xlink" contentScriptType="application/ecmascript" contentStyleType="text/css" height="645px" preserveAspectRatio="none" style="width:1533px;height:645px;" version="1.1" viewBox="0 0 1533 645"
    width="1533px" zoomAndPan="magnify"><defs><filter height="300%" id="f1deh79mz6rrb1" width="300%" x="-1" y="-1"><feGaussianBlur result="blurOut" stdDeviation="2.0"/><feColorMatrix in="blurOut" result="blurOut2" type="matrix" values="0 0 0 0 0 0 0 0 0 0 0 0 0 0 0 0 0 0 .4 0"/><feOffset dx="4.0" dy="4.0" in="blurOut2" result="blurOut3"/><feBlend in="SourceGraphic" in2="blurOut3" mode="normal"/></filter></defs><g><ellipse cx="701.94" cy="173.588" fill="#FEFECE" filter="url(#f1deh79mz6rrb1)" rx="93.44" ry="21.088" style="stroke: #A80036; stroke-width: 1.5;"/><text fill="#000000" font-family="sans-serif" font-size="14" lengthAdjust="spacingAndGlyphs" textLength="161" x="621.44" y="178.3321">ManageLocalVSSLibrary</text><ellipse cx="1043.8701" cy="294.659" fill="#FEFECE" filter="url(#f1deh79mz6rrb1)" rx="29.8701" ry="14.659" style="stroke: #A80036; stroke-width: 1.5;"/><text fill="#000000" font-family="sans-serif" font-size="14" lengthAdjust="spacingAndGlyphs" textLength="38" x="1024.8701" y="299.4031">Login</text><ellipse cx="1159.1723" cy="173.5345" fill="#FEFECE" filter="url(#f1deh79mz6rrb1)" rx="95.6723" ry="21.5345" style="stroke: #A80036; stroke-width: 1.5;"/><text fill="#000000" font-family="sans-serif" font-size="14" lengthAdjust="spacingAndGlyphs" textLength="166" x="1076.1723" y="178.2786">BrowseOnlineVSSLibrary</text><!--entity User--><ellipse cx="1159" cy="18" fill="#FEFECE" filter="url(#f1deh79mz6rrb1)" rx="8" ry="8" style="stroke: #A80036; stroke-width: 2.0;"/><path d="M1159,26 L1159,53 M1146,34 L1172,34 M1159,53 L1146,68 M1159,53 L1172,68 " fill="none" filter="url(#f1deh79mz6rrb1)" style="stroke: #A80036; stroke-width: 2.0;"/><text fill="#000000" font-family="sans-serif" font-size="14" lengthAdjust="spacingAndGlyphs" textLength="31" x="1143.5" y="88.5352">User</text><ellipse cx="1332.098" cy="173.659" fill="#FEFECE" filter="url(#f1deh79mz6rrb1)" rx="42.598" ry="14.659" style="stroke: #A80036; stroke-width: 1.5;"/><text fill="#000000" font-family="sans-serif" font-size="14" lengthAdjust="spacingAndGlyphs" textLength="56" x="1304.098" y="178.4031">Register</text><ellipse cx="771.9975" cy="294.659" fill="#FEFECE" filter="url(#f1deh79mz6rrb1)" rx="52.4975" ry="14.659" style="stroke: #A80036; stroke-width: 1.5;"/><text fill="#000000" font-family="sans-serif" font-size="14" lengthAdjust="spacingAndGlyphs" textLength="70" x="736.9975" y="299.4031">CreateVSS</text><ellipse cx="772.9462" cy="414.9892" fill="#FEFECE" filter="url(#f1deh79mz6rrb1)" rx="82.9462" ry="18.9892" style="stroke: #A80036; stroke-width: 1.5;"/><text fill="#000000" font-family="sans-serif" font-size="14" lengthAdjust="spacingAndGlyphs" textLength="137" x="704.4462" y="419.7334">CreateMapModeVSS</text><ellipse cx="984.8853" cy="415.1771" fill="#FEFECE" filter="url(#f1deh79mz6rrb1)" rx="93.8853" ry="21.1771" style="stroke: #A80036; stroke-width: 1.5;"/><text fill="#000000" font-family="sans-serif" font-size="14" lengthAdjust="spacingAndGlyphs" textLength="162" x="903.8853" y="419.9212">CreateConcertModeVSS</text><ellipse cx="919.0685" cy="294.659" fill="#FEFECE" filter="url(#f1deh79mz6rrb1)" rx="59.5685" ry="14.659" style="stroke: #A80036; stroke-width: 1.5;"/><text fill="#000000" font-family="sans-serif" font-size="14" lengthAdjust="spacingAndGlyphs" textLength="80" x="879.0685" y="299.4031">RenameVSS</text><ellipse cx="57.0833" cy="294.659" fill="#FEFECE" filter="url(#f1deh79mz6rrb1)" rx="51.0833" ry="14.659" style="stroke: #A80036; stroke-width: 1.5;"/><text fill="#000000" font-family="sans-serif" font-size="14" lengthAdjust="spacingAndGlyphs" textLength="68" x="23.0833" y="299.4031">DeleteVSS</text><ellipse cx="198.8259" cy="294.659" fill="#FEFECE" filter="url(#f1deh79mz6rrb1)" rx="55.3259" ry="14.659" style="stroke: #A80036; stroke-width: 1.5;"/><text fill="#000000" font-family="sans-serif" font-size="14" lengthAdjust="spacingAndGlyphs" textLength="74" x="161.8259" y="299.4031">UploadVSS</text><ellipse cx="1433.0197" cy="294.7039" fill="#FEFECE" filter="url(#f1deh79mz6rrb1)" rx="89.0197" ry="20.2039" style="stroke: #A80036; stroke-width: 1.5;"/><text fill="#000000" font-family="sans-serif" font-size="14" lengthAdjust="spacingAndGlyphs" textLength="151" x="1357.5197" y="299.4481">PreviewOnlineMapVSS</text><ellipse cx="1215.7696" cy="415.159" fill="#FEFECE" filter="url(#f1deh79mz6rrb1)" rx="39.7696" ry="14.659" style="stroke: #A80036; stroke-width: 1.5;"/><text fill="#000000" font-family="sans-serif" font-size="14" lengthAdjust="spacingAndGlyphs" textLength="52" x="1189.7696" y="419.9031">LikeVSS</text><ellipse cx="1424.7669" cy="414.8534" fill="#FEFECE" filter="url(#f1deh79mz6rrb1)" rx="64.7669" ry="15.3534" style="stroke: #A80036; stroke-width: 1.5;"/><text fill="#000000" font-family="sans-serif" font-size="14" lengthAdjust="spacingAndGlyphs" textLength="92" x="1378.7669" y="419.5975">CommentVSS</text><ellipse cx="1209.1759" cy="294.4352" fill="#FEFECE" filter="url(#f1deh79mz6rrb1)" rx="100.1759" ry="22.4352" style="stroke: #A80036; stroke-width: 1.5;"/><text fill="#000000" font-family="sans-serif" font-size="14" lengthAdjust="spacingAndGlyphs" textLength="176" x="1121.1759" y="299.1793">PreviewOnlineConcertVSS</text><ellipse cx="551.7696" cy="619.659" fill="#FEFECE" filter="url(#f1deh79mz6rrb1)" rx="39.7696" ry="14.659" style="stroke: #A80036; stroke-width: 1.5;"/><text fill="#000000" font-family="sans-serif" font-size="14" lengthAdjust="spacingAndGlyphs" textLength="52" x="525.7696" y="624.4031">PlayVSS</text><ellipse cx="371.8837" cy="414.9767" fill="#FEFECE" filter="url(#f1deh79mz6rrb1)" rx="75.3837" ry="17.4767" style="stroke: #A80036; stroke-width: 1.5;"/><text fill="#000000" font-family="sans-serif" font-size="14" lengthAdjust="spacingAndGlyphs" textLength="119" x="312.3837" y="419.7209">PlayMapModeVSS</text><ellipse cx="568.9647" cy="415.0929" fill="#FEFECE" filter="url(#f1deh79mz6rrb1)" rx="85.9647" ry="19.5929" style="stroke: #A80036; stroke-width: 1.5;"/><text fill="#000000" font-family="sans-serif" font-size="14" lengthAdjust="spacingAndGlyphs" textLength="144" x="496.9647" y="419.8371">PlayConcertModeVSS</text><ellipse cx="713.8954" cy="512.2791" fill="#FEFECE" filter="url(#f1deh79mz6rrb1)" rx="64.3954" ry="15.2791" style="stroke: #A80036; stroke-width: 1.5;"/><text fill="#000000" font-family="sans-serif" font-size="14" lengthAdjust="spacingAndGlyphs" textLength="91" x="668.3954" y="517.0232">AdjustSensor</text><ellipse cx="374.1664" cy="294.3333" fill="#FEFECE" filter="url(#f1deh79mz6rrb1)" rx="84.6664" ry="19.3333" style="stroke: #A80036; stroke-width: 1.5;"/><text fill="#000000" font-family="sans-serif" font-size="14" lengthAdjust="spacingAndGlyphs" textLength="141" x="303.6664" y="299.0774">PreviewLocalMapVSS</text><ellipse cx="589.1723" cy="294.5345" fill="#FEFECE" filter="url(#f1deh79mz6rrb1)" rx="95.6723" ry="21.5345" style="stroke: #A80036; stroke-width: 1.5;"/><text fill="#000000" font-family="sans-serif" font-size="14" lengthAdjust="spacingAndGlyphs" textLength="166" x="506.1723" y="299.2786">PreviewLocalConcertVSS</text><!--link ManageLocalVSSLibrary to Login--><path d="M776.6316,188.9178 C814.7139,197.7348 861.4388,210.0286 902,225 C947.3185,241.7273 997.4412,268.3042 1024.3423,283.2812 " fill="none" id="ManageLocalVSSLibrary-Login" style="stroke: #A80036; stroke-width: 1.0; stroke-dasharray: 7.0,7.0;"/><polygon fill="#A80036" points="771.5558,187.7513,779.4313,193.6654,776.4288,188.8712,781.223,185.8687,771.5558,187.7513" style="stroke: #A80036; stroke-width: 1.0;"/><text fill="#000000" font-family="sans-serif" font-size="13" lengthAdjust="spacingAndGlyphs" textLength="57" x="943" y="238.5684">«extend»</text><!--link BrowseOnlineVSSLibrary to Login--><path d="M1135.249,198.4901 C1111.405,223.5783 1075.5764,261.2761 1056.6911,281.1467 " fill="none" id="BrowseOnlineVSSLibrary-Login" style="stroke: #A80036; stroke-width: 1.0; stroke-dasharray: 7.0,7.0;"/><polygon fill="#A80036" points="1138.9685,194.5766,1129.8689,198.3446,1135.524,198.2008,1135.6677,203.8559,1138.9685,194.5766" style="stroke: #A80036; stroke-width: 1.0;"/><text fill="#000000" font-family="sans-serif" font-size="13" lengthAdjust="spacingAndGlyphs" textLength="57" x="1109" y="238.5684">«extend»</text><!--link User to Register--><path d="M1174.6577,60.7229 C1205.4292,82.7787 1273.8828,131.8437 1309.4954,157.3695 " fill="none" id="User-Register" style="stroke: #A80036; stroke-width: 1.0;"/><polygon fill="#A80036" points="1313.6708,160.3623,1308.6861,151.868,1309.6069,157.4494,1304.0255,158.3702,1313.6708,160.3623" style="stroke: #A80036; stroke-width: 1.0;"/><!--link User to ManageLocalVSSLibrary--><path d="M1143.269,53.7684 C1084.3278,69.7612 874.4542,126.7072 766.7679,155.9262 " fill="none" id="User-ManageLocalVSSLibrary" style="stroke: #A80036; stroke-width: 1.0;"/><polygon fill="#A80036" points="761.7182,157.2964,771.4516,158.7999,766.5437,155.987,769.3566,151.0791,761.7182,157.2964" style="stroke: #A80036; stroke-width: 1.0;"/><!--link User to BrowseOnlineVSSLibrary--><path d="M1159,91.1352 C1159,109.4667 1159,130.4703 1159,146.6793 " fill="none" id="User-BrowseOnlineVSSLibrary" style="stroke: #A80036; stroke-width: 1.0;"/><polygon fill="#A80036" points="1159,151.9816,1163,142.9816,1159,146.9816,1155,142.9816,1159,151.9816" style="stroke: #A80036; stroke-width: 1.0;"/><!--link ManageLocalVSSLibrary to CreateVSS--><path d="M716.7728,199.0358 C731.0344,223.688 752.1181,260.1327 763.6736,280.1072 " fill="none" id="ManageLocalVSSLibrary-CreateVSS" style="stroke: #A80036; stroke-width: 1.0; stroke-dasharray: 7.0,7.0;"/><polygon fill="#A80036" points="714.1931,194.5766,715.2376,204.3699,716.6969,198.9045,722.1623,200.3638,714.1931,194.5766" style="stroke: #A80036; stroke-width: 1.0;"/><text fill="#000000" font-family="sans-serif" font-size="13" lengthAdjust="spacingAndGlyphs" textLength="57" x="742" y="238.5684">«extend»</text><!--link CreateVSS to CreateMapModeVSS--><path d="M772.2912,329.5951 C772.4702,351.1564 772.6926,377.9562 772.84,395.7231 " fill="none" id="CreateVSS-CreateMapModeVSS" style="stroke: #A80036; stroke-width: 1.0;"/><polygon fill="none" points="765.2889,329.3331,772.1226,309.2757,779.2884,329.2169,765.2889,329.3331" style="stroke: #A80036; stroke-width: 1.0;"/><!--link CreateVSS to CreateConcertModeVSS--><path d="M812.6912,317.5201 C852.5249,340.0552 912.5589,374.0181 950.2267,395.3278 " fill="none" id="CreateVSS-CreateConcertModeVSS" style="stroke: #A80036; stroke-width: 1.0;"/><polygon fill="none" points="809.1609,323.5655,795.2002,307.625,816.0544,311.3803,809.1609,323.5655" style="stroke: #A80036; stroke-width: 1.0;"/><!--link ManageLocalVSSLibrary to RenameVSS--><path d="M748.2546,194.6504 C767.0284,203.5753 788.7782,214.353 808,225 C840.4195,242.9573 876.5554,266.2232 898.5319,280.7574 " fill="none" id="ManageLocalVSSLibrary-RenameVSS" style="stroke: #A80036; stroke-width: 1.0; stroke-dasharray: 7.0,7.0;"/><polygon fill="#A80036" points="743.5491,192.4225,749.9717,199.8891,748.0681,194.5622,753.3951,192.6587,743.5491,192.4225" style="stroke: #A80036; stroke-width: 1.0;"/><text fill="#000000" font-family="sans-serif" font-size="13" lengthAdjust="spacingAndGlyphs" textLength="57" x="836" y="238.5684">«extend»</text><!--link ManageLocalVSSLibrary to DeleteVSS--><path d="M611.3597,182.7458 C532.8486,191.4319 416.4171,205.9409 316,225 C230.536,241.221 209.6293,248.0554 126,272 C114.129,275.3989 101.2351,279.4928 89.8411,283.2514 " fill="none" id="ManageLocalVSSLibrary-DeleteVSS" style="stroke: #A80036; stroke-width: 1.0; stroke-dasharray: 7.0,7.0;"/><polygon fill="#A80036" points="616.4756,182.1821,607.0916,179.1921,611.5057,182.7298,607.9679,187.1439,616.4756,182.1821" style="stroke: #A80036; stroke-width: 1.0;"/><text fill="#000000" font-family="sans-serif" font-size="13" lengthAdjust="spacingAndGlyphs" textLength="57" x="317" y="238.5684">«extend»</text><!--link ManageLocalVSSLibrary to UploadVSS--><path d="M625.6087,188.1613 C575.9908,197.9488 509.993,211.4652 452,225 C371.4816,243.792 351.526,249.3733 272,272 C259.7545,275.4841 246.4275,279.5192 234.5522,283.202 " fill="none" id="ManageLocalVSSLibrary-UploadVSS" style="stroke: #A80036; stroke-width: 1.0; stroke-dasharray: 7.0,7.0;"/><polygon fill="#A80036" points="630.6619,187.1662,621.0586,184.9807,625.7561,188.1324,622.6044,192.8299,630.6619,187.1662" style="stroke: #A80036; stroke-width: 1.0;"/><text fill="#000000" font-family="sans-serif" font-size="13" lengthAdjust="spacingAndGlyphs" textLength="57" x="453" y="238.5684">«extend»</text><!--link PreviewOnlineMapVSS to LikeVSS--><path d="M1403.2849,316.8566 C1383.4097,331.2741 1356.3479,349.8957 1331,364 C1302.1817,380.0354 1267.3497,394.8977 1243.6246,404.3919 " fill="none" id="PreviewOnlineMapVSS-LikeVSS" style="stroke: #A80036; stroke-width: 1.0; stroke-dasharray: 7.0,7.0;"/><polygon fill="#A80036" points="1407.4138,313.847,1397.7848,315.9162,1403.3734,316.7923,1402.4972,322.3809,1407.4138,313.847" style="stroke: #A80036; stroke-width: 1.0;"/><text fill="#000000" font-family="sans-serif" font-size="13" lengthAdjust="spacingAndGlyphs" textLength="57" x="1358" y="360.5684">«extend»</text><!--link PreviewOnlineMapVSS to CommentVSS--><path d="M1432.2449,319.6666 C1431.7648,332.8755 1431.0355,349.323 1430,364 C1429.161,375.8919 1427.8304,389.3078 1426.7527,399.394 " fill="none" id="PreviewOnlineMapVSS-CommentVSS" style="stroke: #A80036; stroke-width: 1.0; stroke-dasharray: 7.0,7.0;"/><polygon fill="#A80036" points="1432.423,314.5893,1428.1097,323.4434,1432.2476,319.5862,1436.1048,323.7241,1432.423,314.5893" style="stroke: #A80036; stroke-width: 1.0;"/><text fill="#000000" font-family="sans-serif" font-size="13" lengthAdjust="spacingAndGlyphs" textLength="57" x="1431" y="360.5684">«extend»</text><!--link PreviewOnlineConcertVSS to LikeVSS--><path d="M1181.1631,320.3298 C1170.9083,333.032 1163.0797,348.8397 1169,364 C1174.8691,379.0291 1187.4714,392.298 1198.15,401.5315 " fill="none" id="PreviewOnlineConcertVSS-LikeVSS" style="stroke: #A80036; stroke-width: 1.0; stroke-dasharray: 7.0,7.0;"/><polygon fill="#A80036" points="1184.4111,316.4916,1175.5439,320.778,1181.1813,320.3084,1181.6509,325.9458,1184.4111,316.4916" style="stroke: #A80036; stroke-width: 1.0;"/><text fill="#000000" font-family="sans-serif" font-size="13" lengthAdjust="spacingAndGlyphs" textLength="57" x="1170" y="360.5684">«extend»</text><!--link PreviewOnlineConcertVSS to CommentVSS--><path d="M1226.1577,321.1745 C1236.681,335.65 1251.3195,352.8192 1268,364 C1299.6617,385.2226 1340.8012,398.1591 1373.0246,405.6911 " fill="none" id="PreviewOnlineConcertVSS-CommentVSS" style="stroke: #A80036; stroke-width: 1.0; stroke-dasharray: 7.0,7.0;"/><polygon fill="#A80036" points="1223.0262,316.7781,1224.9898,326.4292,1225.9271,320.8506,1231.5057,321.7878,1223.0262,316.7781" style="stroke: #A80036; stroke-width: 1.0;"/><text fill="#000000" font-family="sans-serif" font-size="13" lengthAdjust="spacingAndGlyphs" textLength="57" x="1269" y="360.5684">«extend»</text><!--link PlayMapModeVSS to PlayVSS--><path d="M390.7745,436.33 C427.6514,478.2262 508.645,570.2439 539.619,605.4338 " fill="none" id="PlayMapModeVSS-PlayVSS" style="stroke: #A80036; stroke-width: 1.0; stroke-dasharray: 7.0,7.0;"/><polygon fill="#A80036" points="387.3467,432.4356,390.2906,441.8342,390.6503,436.1888,396.2957,436.5484,387.3467,432.4356" style="stroke: #A80036; stroke-width: 1.0;"/><text fill="#000000" font-family="sans-serif" font-size="13" lengthAdjust="spacingAndGlyphs" textLength="60" x="472" y="517.5684">«include»</text><!--link PlayConcertModeVSS to PlayVSS--><path d="M566.9532,439.6215 C563.3813,482.5896 556.115,569.9995 553.2252,604.762 " fill="none" id="PlayConcertModeVSS-PlayVSS" style="stroke: #A80036; stroke-width: 1.0; stroke-dasharray: 7.0,7.0;"/><polygon fill="#A80036" points="567.37,434.6083,562.638,443.2459,566.9557,439.5911,570.6105,443.9088,567.37,434.6083" style="stroke: #A80036; stroke-width: 1.0;"/><text fill="#000000" font-family="sans-serif" font-size="13" lengthAdjust="spacingAndGlyphs" textLength="60" x="564" y="517.5684">«include»</text><!--link AdjustSensor to PlayVSS--><path d="M687.5617,529.9623 C654.9685,551.4899 600.3481,587.5664 571.3901,606.6929 " fill="none" id="AdjustSensor-PlayVSS" style="stroke: #A80036; stroke-width: 1.0; stroke-dasharray: 7.0,7.0;"/><polygon fill="#A80036" points="691.8143,527.1535,682.1,528.7758,687.6422,529.9091,686.5089,535.4513,691.8143,527.1535" style="stroke: #A80036; stroke-width: 1.0;"/><text fill="#000000" font-family="sans-serif" font-size="13" lengthAdjust="spacingAndGlyphs" textLength="60" x="643" y="571.5684">«include»</text><!--link ManageLocalVSSLibrary to PreviewLocalMapVSS--><path d="M648.3424,193.2944 C584.4548,216.8627 478.898,255.8029 419.0576,277.8781 " fill="none" id="ManageLocalVSSLibrary-PreviewLocalMapVSS" style="stroke: #A80036; stroke-width: 1.0; stroke-dasharray: 7.0,7.0;"/><polygon fill="#A80036" points="653.2493,191.4843,643.4211,190.8465,648.5583,193.2149,646.19,198.3521,653.2493,191.4843" style="stroke: #A80036; stroke-width: 1.0;"/><text fill="#000000" font-family="sans-serif" font-size="13" lengthAdjust="spacingAndGlyphs" textLength="57" x="559" y="238.5684">«extend»</text><!--link ManageLocalVSSLibrary to PreviewLocalConcertVSS--><path d="M679.0981,198.0233 C658.5038,220.0756 628.5567,252.1428 608.9309,273.1581 " fill="none" id="ManageLocalVSSLibrary-PreviewLocalConcertVSS" style="stroke: #A80036; stroke-width: 1.0; stroke-dasharray: 7.0,7.0;"/><polygon fill="#A80036" points="682.5746,194.3006,673.5084,198.1481,679.1619,197.9549,679.3552,203.6084,682.5746,194.3006" style="stroke: #A80036; stroke-width: 1.0;"/><text fill="#000000" font-family="sans-serif" font-size="13" lengthAdjust="spacingAndGlyphs" textLength="57" x="653" y="238.5684">«extend»</text><!--link BrowseOnlineVSSLibrary to PreviewOnlineMapVSS--><path d="M1207.0927,194.738 C1259.691,217.9657 1343.0659,254.7846 1392.4667,276.6003 " fill="none" id="BrowseOnlineVSSLibrary-PreviewOnlineMapVSS" style="stroke: #A80036; stroke-width: 1.0; stroke-dasharray: 7.0,7.0;"/><polygon fill="#A80036" points="1202.4161,192.6728,1209.033,199.9678,1206.9899,194.6928,1212.2649,192.6497,1202.4161,192.6728" style="stroke: #A80036; stroke-width: 1.0;"/><text fill="#000000" font-family="sans-serif" font-size="13" lengthAdjust="spacingAndGlyphs" textLength="57" x="1313" y="238.5684">«extend»</text><!--link BrowseOnlineVSSLibrary to PreviewOnlineConcertVSS--><path d="M1169.8903,199.8545 C1178.7719,221.3481 1191.1862,251.3907 1199.6293,271.8229 " fill="none" id="BrowseOnlineVSSLibrary-PreviewOnlineConcertVSS" style="stroke: #A80036; stroke-width: 1.0; stroke-dasharray: 7.0,7.0;"/><polygon fill="#A80036" points="1167.939,195.1324,1167.6794,204.9778,1169.8486,199.7534,1175.073,201.9225,1167.939,195.1324" style="stroke: #A80036; stroke-width: 1.0;"/><text fill="#000000" font-family="sans-serif" font-size="13" lengthAdjust="spacingAndGlyphs" textLength="57" x="1187" y="238.5684">«extend»</text><!--link PreviewLocalMapVSS to PlayMapModeVSS--><path d="M373.6742,314.1286 C373.3197,335.4906 372.7534,369.6052 372.3792,392.1544 " fill="none" id="PreviewLocalMapVSS-PlayMapModeVSS" style="stroke: #A80036; stroke-width: 1.0; stroke-dasharray: 7.0,7.0;"/><polygon fill="#A80036" points="372.2931,397.3421,376.4419,388.4097,372.3761,392.3428,368.4431,388.2769,372.2931,397.3421" style="stroke: #A80036; stroke-width: 1.0;"/><text fill="#000000" font-family="sans-serif" font-size="13" lengthAdjust="spacingAndGlyphs" textLength="60" x="375" y="360.5684">«include»</text><!--link PreviewLocalConcertVSS to PlayConcertModeVSS--><path d="M585.4244,316.043 C581.971,336.8498 576.7449,368.337 573.119,390.1832 " fill="none" id="PreviewLocalConcertVSS-PlayConcertModeVSS" style="stroke: #A80036; stroke-width: 1.0; stroke-dasharray: 7.0,7.0;"/><polygon fill="#A80036" points="572.2795,395.241,577.6995,387.0176,573.0984,390.3085,569.8075,385.7074,572.2795,395.241" style="stroke: #A80036; stroke-width: 1.0;"/><text fill="#000000" font-family="sans-serif" font-size="13" lengthAdjust="spacingAndGlyphs" textLength="60" x="582" y="360.5684">«include»</text><!--
@startuml Diagrams/UseCaseDiagram
(ManageLocalVSSLibrary) <.. (Login): <<extend>>
(BrowseOnlineVSSLibrary) <.. (Login): <<extend>>

User - -> (Register)
User - -> (ManageLocalVSSLibrary)
User - -> (BrowseOnlineVSSLibrary)

(ManageLocalVSSLibrary) <.. (CreateVSS): <<extend>>
(CreateVSS) <|- - (CreateMapModeVSS)
(CreateVSS) <|- - (CreateConcertModeVSS)
(ManageLocalVSSLibrary) <.. (RenameVSS): <<extend>>
(ManageLocalVSSLibrary) <.. (DeleteVSS): <<extend>>
(ManageLocalVSSLibrary) <.. (UploadVSS): <<extend>>

(PreviewOnlineMapVSS) <.. (LikeVSS): <<extend>>
(PreviewOnlineMapVSS) <.. (CommentVSS): <<extend>>

(PreviewOnlineConcertVSS) <.. (LikeVSS): <<extend>>
(PreviewOnlineConcertVSS) <.. (CommentVSS): <<extend>>

(PlayVSS) .-up.> (PlayMapModeVSS): <<include>>
(PlayVSS) .-up.> (PlayConcertModeVSS): <<include>>

(AdjustSensor) <.. (PlayVSS): <<include>>

(ManageLocalVSSLibrary) <.. (PreviewLocalMapVSS): <<extend>>
(ManageLocalVSSLibrary) <.. (PreviewLocalConcertVSS): <<extend>>

(BrowseOnlineVSSLibrary) <.. (PreviewOnlineMapVSS): <<extend>>
(BrowseOnlineVSSLibrary) <.. (PreviewOnlineConcertVSS): <<extend>>

(PreviewLocalMapVSS) ..> (PlayMapModeVSS): <<include>>
(PreviewLocalConcertVSS) ..> (PlayConcertModeVSS): <<include>>

@enduml

PlantUML version 1.2018.01(Mon Jan 29 02:08:22 CST 2018)
(GPL source distribution)
Java Runtime: Java(TM) SE Runtime Environment
JVM: Java HotSpot(TM) 64-Bit Server VM
Java Version: 9+181
Operating System: Mac OS X
OS Version: 10.12.6
Default Encoding: UTF-8
Language: zh
Country: CN
--></g></svg>