<?xml version="1.0" encoding="UTF-8" standalone="no"?><svg xmlns="http://www.w3.org/2000/svg" xmlns:xlink="http://www.w3.org/1999/xlink" contentScriptType="application/ecmascript" contentStyleType="text/css" height="313px" preserveAspectRatio="none" style="width:262px;height:313px;" version="1.1" viewBox="0 0 262 313"
    width="262px" zoomAndPan="magnify"><defs><filter height="300%" id="f1azl5jgxg2kuk" width="300%" x="-1" y="-1"><feGaussianBlur result="blurOut" stdDeviation="2.0"/><feColorMatrix in="blurOut" result="blurOut2" type="matrix" values="0 0 0 0 0 0 0 0 0 0 0 0 0 0 0 0 0 0 .4 0"/><feOffset dx="4.0" dy="4.0" in="blurOut2" result="blurOut3"/><feBlend in="SourceGraphic" in2="blurOut3" mode="normal"/></filter></defs><g><rect fill="#FFFFFF" filter="url(#f1azl5jgxg2kuk)" height="100.3091" style="stroke: #000000; stroke-width: 2.0;" width="237.5" x="13" y="106.1201"/><rect fill="#FFFFFF" height="48.7773" style="stroke: none; stroke-width: 1.0;" width="237.5" x="13" y="157.6519"/><line style="stroke: #A80036; stroke-width: 1.0; stroke-dasharray: 5.0,5.0;" x1="40" x2="40" y1="89.1201" y2="223.4292"/><line style="stroke: #A80036; stroke-width: 1.0; stroke-dasharray: 5.0,5.0;" x1="206.5" x2="206.5" y1="89.1201" y2="223.4292"/><text fill="#000000" font-family="sans-serif" font-size="14" lengthAdjust="spacingAndGlyphs" textLength="29" x="23" y="86.0439">User</text><ellipse cx="40.5" cy="13" fill="#FEFECE" filter="url(#f1azl5jgxg2kuk)" rx="8" ry="8" style="stroke: #A80036; stroke-width: 2.0;"/><path d="M40.5,21 L40.5,48 M27.5,29 L53.5,29 M40.5,48 L27.5,63 M40.5,48 L53.5,63 " fill="none" filter="url(#f1azl5jgxg2kuk)" style="stroke: #A80036; stroke-width: 2.0;"/><text fill="#000000" font-family="sans-serif" font-size="14" lengthAdjust="spacingAndGlyphs" textLength="29" x="23" y="238.4731">User</text><ellipse cx="40.5" cy="251.5493" fill="#FEFECE" filter="url(#f1azl5jgxg2kuk)" rx="8" ry="8" style="stroke: #A80036; stroke-width: 2.0;"/><path d="M40.5,259.5493 L40.5,286.5493 M27.5,267.5493 L53.5,267.5493 M40.5,286.5493 L27.5,301.5493 M40.5,286.5493 L53.5,301.5493 " fill="none" filter="url(#f1azl5jgxg2kuk)" style="stroke: #A80036; stroke-width: 2.0;"/><rect fill="#FEFECE" filter="url(#f1azl5jgxg2kuk)" height="33.1201" style="stroke: #A80036; stroke-width: 1.5;" width="64" x="172.5" y="51"/><text fill="#000000" font-family="sans-serif" font-size="14" lengthAdjust="spacingAndGlyphs" textLength="50" x="179.5" y="74.0439">:System</text><rect fill="#FEFECE" filter="url(#f1azl5jgxg2kuk)" height="33.1201" style="stroke: #A80036; stroke-width: 1.5;" width="64" x="172.5" y="222.4292"/><text fill="#000000" font-family="sans-serif" font-size="14" lengthAdjust="spacingAndGlyphs" textLength="50" x="179.5" y="245.4731">:System</text><path d="M13,106.1201 L74,106.1201 L74,115.1201 L64,125.1201 L13,125.1201 L13,106.1201 " fill="#EEEEEE" style="stroke: #000000; stroke-width: 1.0;"/><rect fill="none" height="100.3091" style="stroke: #000000; stroke-width: 2.0;" width="237.5" x="13" y="106.1201"/><text fill="#000000" font-family="sans-serif" font-size="13" font-weight="bold" lengthAdjust="spacingAndGlyphs" textLength="16" x="28" y="122.0181">alt</text><text fill="#000000" font-family="sans-serif" font-size="11" font-weight="bold" lengthAdjust="spacingAndGlyphs" textLength="62" x="89" y="120.7261">[MapMode]</text><polygon fill="#A80036" points="194.5,145.6519,204.5,149.6519,194.5,153.6519,198.5,149.6519" style="stroke: #A80036; stroke-width: 1.0;"/><line style="stroke: #A80036; stroke-width: 1.0;" x1="40.5" x2="200.5" y1="149.6519" y2="149.6519"/><text fill="#000000" font-family="sans-serif" font-size="13" lengthAdjust="spacingAndGlyphs" textLength="122" x="47.5" y="144.7954">CreateMapModeVSS</text><line style="stroke: #000000; stroke-width: 1.0; stroke-dasharray: 2.0,2.0;" x1="13" x2="250.5" y1="158.6519" y2="158.6519"/><text fill="#000000" font-family="sans-serif" font-size="11" font-weight="bold" lengthAdjust="spacingAndGlyphs" textLength="83" x="18" y="171.2578">[ConcertMode]</text><polygon fill="#A80036" points="194.5,194.4292,204.5,198.4292,194.5,202.4292,198.5,198.4292" style="stroke: #A80036; stroke-width: 1.0;"/><line style="stroke: #A80036; stroke-width: 1.0;" x1="40.5" x2="200.5" y1="198.4292" y2="198.4292"/><text fill="#000000" font-family="sans-serif" font-size="13" lengthAdjust="spacingAndGlyphs" textLength="142" x="47.5" y="193.5728">CreateConcertModeVSS</text><!--
@startuml
actor User
participant ":System"
alt MapMode
  User -> ":System": CreateMapModeVSS
else ConcertMode
  User -> ":System": CreateConcertModeVSS
end
@enduml

PlantUML version 1.2018.02(Sat Mar 10 01:20:44 CST 2018)
(GPL source distribution)
Java Runtime: Java(TM) SE Runtime Environment
JVM: Java HotSpot(TM) Client VM
Java Version: 1.8.0_162-b12
Operating System: Windows 10
OS Version: 10.0
Default Encoding: GBK
Language: zh
Country: CN
--></g></svg>