<?xml version="1.0" encoding="UTF-8" standalone="no"?><svg xmlns="http://www.w3.org/2000/svg" xmlns:xlink="http://www.w3.org/1999/xlink" contentScriptType="application/ecmascript" contentStyleType="text/css" height="262px" preserveAspectRatio="none" style="width:162px;height:262px;" version="1.1" viewBox="0 0 162 262"
    width="162px" zoomAndPan="magnify"><defs><filter height="300%" id="f1s8zvp4v54jj3" width="300%" x="-1" y="-1"><feGaussianBlur result="blurOut" stdDeviation="2.0"/><feColorMatrix in="blurOut" result="blurOut2" type="matrix" values="0 0 0 0 0 0 0 0 0 0 0 0 0 0 0 0 0 0 .4 0"/><feOffset dx="4.0" dy="4.0" in="blurOut2" result="blurOut3"/><feBlend in="SourceGraphic" in2="blurOut3" mode="normal"/></filter></defs><g><line style="stroke: #A80036; stroke-width: 1.0; stroke-dasharray: 5.0,5.0;" x1="25" x2="25" y1="89.1201" y2="172.6289"/><line style="stroke: #A80036; stroke-width: 1.0; stroke-dasharray: 5.0,5.0;" x1="121.5" x2="121.5" y1="89.1201" y2="172.6289"/><text fill="#000000" font-family="sans-serif" font-size="14" lengthAdjust="spacingAndGlyphs" textLength="29" x="8" y="86.0439">User</text><ellipse cx="25.5" cy="13" fill="#FEFECE" filter="url(#f1s8zvp4v54jj3)" rx="8" ry="8" style="stroke: #A80036; stroke-width: 2.0;"/><path d="M25.5,21 L25.5,48 M12.5,29 L38.5,29 M25.5,48 L12.5,63 M25.5,48 L38.5,63 " fill="none" filter="url(#f1s8zvp4v54jj3)" style="stroke: #A80036; stroke-width: 2.0;"/><text fill="#000000" font-family="sans-serif" font-size="14" lengthAdjust="spacingAndGlyphs" textLength="29" x="8" y="187.6729">User</text><ellipse cx="25.5" cy="200.749" fill="#FEFECE" filter="url(#f1s8zvp4v54jj3)" rx="8" ry="8" style="stroke: #A80036; stroke-width: 2.0;"/><path d="M25.5,208.749 L25.5,235.749 M12.5,216.749 L38.5,216.749 M25.5,235.749 L12.5,250.749 M25.5,235.749 L38.5,250.749 " fill="none" filter="url(#f1s8zvp4v54jj3)" style="stroke: #A80036; stroke-width: 2.0;"/><rect fill="#FEFECE" filter="url(#f1s8zvp4v54jj3)" height="33.1201" style="stroke: #A80036; stroke-width: 1.5;" width="64" x="87.5" y="51"/><text fill="#000000" font-family="sans-serif" font-size="14" lengthAdjust="spacingAndGlyphs" textLength="50" x="94.5" y="74.0439">:System</text><rect fill="#FEFECE" filter="url(#f1s8zvp4v54jj3)" height="33.1201" style="stroke: #A80036; stroke-width: 1.5;" width="64" x="87.5" y="171.6289"/><text fill="#000000" font-family="sans-serif" font-size="14" lengthAdjust="spacingAndGlyphs" textLength="50" x="94.5" y="194.6729">:System</text><polygon fill="#A80036" points="109.5,118.8745,119.5,122.8745,109.5,126.8745,113.5,122.8745" style="stroke: #A80036; stroke-width: 1.0;"/><line style="stroke: #A80036; stroke-width: 1.0;" x1="25.5" x2="115.5" y1="122.8745" y2="122.8745"/><text fill="#000000" font-family="sans-serif" font-size="13" lengthAdjust="spacingAndGlyphs" textLength="51" x="32.5" y="118.0181">LikeVSS</text><polygon fill="#A80036" points="36.5,150.6289,26.5,154.6289,36.5,158.6289,32.5,154.6289" style="stroke: #A80036; stroke-width: 1.0;"/><line style="stroke: #A80036; stroke-width: 1.0;" x1="30.5" x2="120.5" y1="154.6289" y2="154.6289"/><text fill="#000000" font-family="sans-serif" font-size="13" lengthAdjust="spacingAndGlyphs" textLength="72" x="42.5" y="149.7725">LikeUserList</text><!--
@startuml
actor User
participant ":System"
User -> ":System": LikeVSS
":System" -> User: LikeUserList
@enduml

PlantUML version 1.2018.02(Sat Mar 10 01:20:44 CST 2018)
(GPL source distribution)
Java Runtime: Java(TM) SE Runtime Environment
JVM: Java HotSpot(TM) Client VM
Java Version: 1.8.0_162-b12
Operating System: Windows 10
OS Version: 10.0
Default Encoding: GBK
Language: zh
Country: CN
--></g></svg>