<?xml version="1.0" encoding="UTF-8" standalone="no"?><svg xmlns="http://www.w3.org/2000/svg" xmlns:xlink="http://www.w3.org/1999/xlink" contentScriptType="application/ecmascript" contentStyleType="text/css" height="230px" preserveAspectRatio="none" style="width:128px;height:230px;" version="1.1" viewBox="0 0 128 230"
    width="128px" zoomAndPan="magnify"><defs><filter height="300%" id="f401u55cz988z" width="300%" x="-1" y="-1"><feGaussianBlur result="blurOut" stdDeviation="2.0"/><feColorMatrix in="blurOut" result="blurOut2" type="matrix" values="0 0 0 0 0 0 0 0 0 0 0 0 0 0 0 0 0 0 .4 0"/><feOffset dx="4.0" dy="4.0" in="blurOut2" result="blurOut3"/><feBlend in="SourceGraphic" in2="blurOut3" mode="normal"/></filter></defs><g><line style="stroke: #A80036; stroke-width: 1.0; stroke-dasharray: 5.0,5.0;" x1="25" x2="25" y1="89.1201" y2="140.8745"/><line style="stroke: #A80036; stroke-width: 1.0; stroke-dasharray: 5.0,5.0;" x1="87" x2="87" y1="89.1201" y2="140.8745"/><text fill="#000000" font-family="sans-serif" font-size="14" lengthAdjust="spacingAndGlyphs" textLength="29" x="8" y="86.0439">User</text><ellipse cx="25.5" cy="13" fill="#FEFECE" filter="url(#f401u55cz988z)" rx="8" ry="8" style="stroke: #A80036; stroke-width: 2.0;"/><path d="M25.5,21 L25.5,48 M12.5,29 L38.5,29 M25.5,48 L12.5,63 M25.5,48 L38.5,63 " fill="none" filter="url(#f401u55cz988z)" style="stroke: #A80036; stroke-width: 2.0;"/><text fill="#000000" font-family="sans-serif" font-size="14" lengthAdjust="spacingAndGlyphs" textLength="29" x="8" y="155.9185">User</text><ellipse cx="25.5" cy="168.9946" fill="#FEFECE" filter="url(#f401u55cz988z)" rx="8" ry="8" style="stroke: #A80036; stroke-width: 2.0;"/><path d="M25.5,176.9946 L25.5,203.9946 M12.5,184.9946 L38.5,184.9946 M25.5,203.9946 L12.5,218.9946 M25.5,203.9946 L38.5,218.9946 " fill="none" filter="url(#f401u55cz988z)" style="stroke: #A80036; stroke-width: 2.0;"/><rect fill="#FEFECE" filter="url(#f401u55cz988z)" height="33.1201" style="stroke: #A80036; stroke-width: 1.5;" width="64" x="53" y="51"/><text fill="#000000" font-family="sans-serif" font-size="14" lengthAdjust="spacingAndGlyphs" textLength="50" x="60" y="74.0439">:System</text><rect fill="#FEFECE" filter="url(#f401u55cz988z)" height="33.1201" style="stroke: #A80036; stroke-width: 1.5;" width="64" x="53" y="139.8745"/><text fill="#000000" font-family="sans-serif" font-size="14" lengthAdjust="spacingAndGlyphs" textLength="50" x="60" y="162.9185">:System</text><polygon fill="#A80036" points="75,118.8745,85,122.8745,75,126.8745,79,122.8745" style="stroke: #A80036; stroke-width: 1.0;"/><line style="stroke: #A80036; stroke-width: 1.0;" x1="25.5" x2="81" y1="122.8745" y2="122.8745"/><text fill="#000000" font-family="sans-serif" font-size="13" lengthAdjust="spacingAndGlyphs" textLength="31" x="32.5" y="118.0181">Login</text><!--
@startuml
actor User
participant ":System"
User -> ":System" : Login
@enduml

PlantUML version 1.2018.02(Sat Mar 10 01:20:44 CST 2018)
(GPL source distribution)
Java Runtime: Java(TM) SE Runtime Environment
JVM: Java HotSpot(TM) Client VM
Java Version: 1.8.0_162-b12
Operating System: Windows 10
OS Version: 10.0
Default Encoding: GBK
Language: zh
Country: CN
--></g></svg>