<?xml version="1.0" encoding="UTF-8" standalone="no"?><svg xmlns="http://www.w3.org/2000/svg" xmlns:xlink="http://www.w3.org/1999/xlink" contentScriptType="application/ecmascript" contentStyleType="text/css" height="444px" preserveAspectRatio="none" style="width:245px;height:444px;" version="1.1" viewBox="0 0 245 444"
    width="245px" zoomAndPan="magnify"><defs><filter height="300%" id="f1caybhwciaahp" width="300%" x="-1" y="-1"><feGaussianBlur result="blurOut" stdDeviation="2.0"/><feColorMatrix in="blurOut" result="blurOut2" type="matrix" values="0 0 0 0 0 0 0 0 0 0 0 0 0 0 0 0 0 0 .4 0"/><feOffset dx="4.0" dy="4.0" in="blurOut2" result="blurOut3"/><feBlend in="SourceGraphic" in2="blurOut3" mode="normal"/></filter></defs><g><rect fill="#FFFFFF" filter="url(#f1caybhwciaahp)" height="231.6411" style="stroke: #000000; stroke-width: 2.0;" width="220" x="13" y="106.1201"/><rect fill="#FFFFFF" height="180.1094" style="stroke: none; stroke-width: 1.0;" width="220" x="13" y="157.6519"/><rect fill="#FFFFFF" filter="url(#f1caybhwciaahp)" height="149.0864" style="stroke: #000000; stroke-width: 2.0;" width="200" x="23" y="181.6748"/><rect fill="#FFFFFF" height="48.7773" style="stroke: none; stroke-width: 1.0;" width="200" x="23" y="233.2065"/><rect fill="#FFFFFF" height="48.7773" style="stroke: none; stroke-width: 1.0;" width="200" x="23" y="281.9839"/><line style="stroke: #A80036; stroke-width: 1.0; stroke-dasharray: 5.0,5.0;" x1="50" x2="50" y1="89.1201" y2="354.7612"/><line style="stroke: #A80036; stroke-width: 1.0; stroke-dasharray: 5.0,5.0;" x1="157.5" x2="157.5" y1="89.1201" y2="354.7612"/><text fill="#000000" font-family="sans-serif" font-size="14" lengthAdjust="spacingAndGlyphs" textLength="29" x="33" y="86.0439">User</text><ellipse cx="50.5" cy="13" fill="#FEFECE" filter="url(#f1caybhwciaahp)" rx="8" ry="8" style="stroke: #A80036; stroke-width: 2.0;"/><path d="M50.5,21 L50.5,48 M37.5,29 L63.5,29 M50.5,48 L37.5,63 M50.5,48 L63.5,63 " fill="none" filter="url(#f1caybhwciaahp)" style="stroke: #A80036; stroke-width: 2.0;"/><text fill="#000000" font-family="sans-serif" font-size="14" lengthAdjust="spacingAndGlyphs" textLength="29" x="33" y="369.8052">User</text><ellipse cx="50.5" cy="382.8813" fill="#FEFECE" filter="url(#f1caybhwciaahp)" rx="8" ry="8" style="stroke: #A80036; stroke-width: 2.0;"/><path d="M50.5,390.8813 L50.5,417.8813 M37.5,398.8813 L63.5,398.8813 M50.5,417.8813 L37.5,432.8813 M50.5,417.8813 L63.5,432.8813 " fill="none" filter="url(#f1caybhwciaahp)" style="stroke: #A80036; stroke-width: 2.0;"/><rect fill="#FEFECE" filter="url(#f1caybhwciaahp)" height="33.1201" style="stroke: #A80036; stroke-width: 1.5;" width="64" x="123.5" y="51"/><text fill="#000000" font-family="sans-serif" font-size="14" lengthAdjust="spacingAndGlyphs" textLength="50" x="130.5" y="74.0439">:System</text><rect fill="#FEFECE" filter="url(#f1caybhwciaahp)" height="33.1201" style="stroke: #A80036; stroke-width: 1.5;" width="64" x="123.5" y="353.7612"/><text fill="#000000" font-family="sans-serif" font-size="14" lengthAdjust="spacingAndGlyphs" textLength="50" x="130.5" y="376.8052">:System</text><path d="M13,106.1201 L74,106.1201 L74,115.1201 L64,125.1201 L13,125.1201 L13,106.1201 " fill="#EEEEEE" style="stroke: #000000; stroke-width: 1.0;"/><rect fill="none" height="231.6411" style="stroke: #000000; stroke-width: 2.0;" width="220" x="13" y="106.1201"/><text fill="#000000" font-family="sans-serif" font-size="13" font-weight="bold" lengthAdjust="spacingAndGlyphs" textLength="16" x="28" y="122.0181">alt</text><text fill="#000000" font-family="sans-serif" font-size="11" font-weight="bold" lengthAdjust="spacingAndGlyphs" textLength="44" x="89" y="120.7261">[Offline]</text><polygon fill="#A80036" points="145.5,145.6519,155.5,149.6519,145.5,153.6519,149.5,149.6519" style="stroke: #A80036; stroke-width: 1.0;"/><line style="stroke: #A80036; stroke-width: 1.0;" x1="50.5" x2="151.5" y1="149.6519" y2="149.6519"/><text fill="#000000" font-family="sans-serif" font-size="13" lengthAdjust="spacingAndGlyphs" textLength="53" x="57.5" y="144.7954">PlayVSS</text><line style="stroke: #000000; stroke-width: 1.0; stroke-dasharray: 2.0,2.0;" x1="13" x2="233" y1="158.6519" y2="158.6519"/><text fill="#000000" font-family="sans-serif" font-size="11" font-weight="bold" lengthAdjust="spacingAndGlyphs" textLength="43" x="18" y="171.2578">[Online]</text><path d="M23,181.6748 L84,181.6748 L84,190.6748 L74,200.6748 L23,200.6748 L23,181.6748 " fill="#EEEEEE" style="stroke: #000000; stroke-width: 1.0;"/><rect fill="none" height="149.0864" style="stroke: #000000; stroke-width: 2.0;" width="200" x="23" y="181.6748"/><text fill="#000000" font-family="sans-serif" font-size="13" font-weight="bold" lengthAdjust="spacingAndGlyphs" textLength="16" x="38" y="197.5728">alt</text><text fill="#000000" font-family="sans-serif" font-size="11" font-weight="bold" lengthAdjust="spacingAndGlyphs" textLength="119" x="99" y="196.2808">[Download Operation]</text><polygon fill="#A80036" points="145.5,221.2065,155.5,225.2065,145.5,229.2065,149.5,225.2065" style="stroke: #A80036; stroke-width: 1.0;"/><line style="stroke: #A80036; stroke-width: 1.0;" x1="50.5" x2="151.5" y1="225.2065" y2="225.2065"/><text fill="#000000" font-family="sans-serif" font-size="13" lengthAdjust="spacingAndGlyphs" textLength="83" x="57.5" y="220.3501">DownloadVSS</text><line style="stroke: #000000; stroke-width: 1.0; stroke-dasharray: 2.0,2.0;" x1="23" x2="223" y1="234.2065" y2="234.2065"/><text fill="#000000" font-family="sans-serif" font-size="11" font-weight="bold" lengthAdjust="spacingAndGlyphs" textLength="89" x="28" y="246.8125">[Like Operation]</text><polygon fill="#A80036" points="145.5,269.9839,155.5,273.9839,145.5,277.9839,149.5,273.9839" style="stroke: #A80036; stroke-width: 1.0;"/><line style="stroke: #A80036; stroke-width: 1.0;" x1="50.5" x2="151.5" y1="273.9839" y2="273.9839"/><text fill="#000000" font-family="sans-serif" font-size="13" lengthAdjust="spacingAndGlyphs" textLength="51" x="57.5" y="269.1274">LikeVSS</text><line style="stroke: #000000; stroke-width: 1.0; stroke-dasharray: 2.0,2.0;" x1="23" x2="223" y1="282.9839" y2="282.9839"/><text fill="#000000" font-family="sans-serif" font-size="11" font-weight="bold" lengthAdjust="spacingAndGlyphs" textLength="120" x="28" y="295.5898">[Comment Operation]</text><polygon fill="#A80036" points="145.5,318.7612,155.5,322.7612,145.5,326.7612,149.5,322.7612" style="stroke: #A80036; stroke-width: 1.0;"/><line style="stroke: #A80036; stroke-width: 1.0;" x1="50.5" x2="151.5" y1="322.7612" y2="322.7612"/><text fill="#000000" font-family="sans-serif" font-size="13" lengthAdjust="spacingAndGlyphs" textLength="83" x="57.5" y="317.9048">CommentVSS</text><!--
@startuml
actor User
participant ":System"
alt Offline
  User -> ":System": PlayVSS
else Online
  alt Download Operation
      User -> ":System": DownloadVSS
  else Like Operation
      User -> ":System": LikeVSS
  else Comment Operation
      User -> ":System": CommentVSS
  end
end
@enduml

PlantUML version 1.2018.02(Sat Mar 10 01:20:44 CST 2018)
(GPL source distribution)
Java Runtime: Java(TM) SE Runtime Environment
JVM: Java HotSpot(TM) Client VM
Java Version: 1.8.0_162-b12
Operating System: Windows 10
OS Version: 10.0
Default Encoding: GBK
Language: zh
Country: CN
--></g></svg>