<?xml version="1.0" encoding="UTF-8" standalone="no"?><svg xmlns="http://www.w3.org/2000/svg" xmlns:xlink="http://www.w3.org/1999/xlink" contentScriptType="application/ecmascript" contentStyleType="text/css" height="1709px" preserveAspectRatio="none" style="width:868px;height:1709px;" version="1.1" viewBox="0 0 868 1709"
    width="868px" zoomAndPan="magnify"><defs><filter height="300%" id="f9qs4pbcp0t1z" width="300%" x="-1" y="-1"><feGaussianBlur result="blurOut" stdDeviation="2.0"/><feColorMatrix in="blurOut" result="blurOut2" type="matrix" values="0 0 0 0 0 0 0 0 0 0 0 0 0 0 0 0 0 0 .4 0"/><feOffset dx="4.0" dy="4.0" in="blurOut2" result="blurOut3"/><feBlend in="SourceGraphic" in2="blurOut3" mode="normal"/></filter></defs><g><ellipse cx="93.5" cy="18" fill="#000000" filter="url(#f9qs4pbcp0t1z)" rx="10" ry="10" style="stroke: none; stroke-width: 1.0;"/><rect fill="#FEFECE" filter="url(#f9qs4pbcp0t1z)" height="50" rx="12.5" ry="12.5" style="stroke: #A80036; stroke-width: 1.5;" width="140" x="23.5" y="89"/><line style="stroke: #A80036; stroke-width: 1.5;" x1="23.5" x2="163.5" y1="115.4883" y2="115.4883"/><text fill="#000000" font-family="sans-serif" font-size="14" lengthAdjust="spacingAndGlyphs" textLength="120" x="33.5" y="107.5352">SoftwarePlanning</text><rect fill="#FEFECE" filter="url(#f9qs4pbcp0t1z)" height="50" rx="12.5" ry="12.5" style="stroke: #A80036; stroke-width: 1.5;" width="175" x="6" y="200"/><line style="stroke: #A80036; stroke-width: 1.5;" x1="6" x2="181" y1="226.4883" y2="226.4883"/><text fill="#000000" font-family="sans-serif" font-size="14" lengthAdjust="spacingAndGlyphs" textLength="155" x="16" y="218.5352">RequirementElicitation</text><rect fill="#FEFECE" filter="url(#f9qs4pbcp0t1z)" height="50" rx="12.5" ry="12.5" style="stroke: #A80036; stroke-width: 1.5;" width="164" x="11.5" y="311"/><line style="stroke: #A80036; stroke-width: 1.5;" x1="11.5" x2="175.5" y1="337.4883" y2="337.4883"/><text fill="#000000" font-family="sans-serif" font-size="14" lengthAdjust="spacingAndGlyphs" textLength="144" x="21.5" y="329.5352">RequirementAnalysis</text><rect fill="#FEFECE" filter="url(#f9qs4pbcp0t1z)" height="50.6211" rx="12.5" ry="12.5" style="stroke: #A80036; stroke-width: 1.5;" width="148" x="19.5" y="1035"/><line style="stroke: #A80036; stroke-width: 1.5;" x1="19.5" x2="167.5" y1="1061.4883" y2="1061.4883"/><text fill="#000000" font-family="sans-serif" font-size="14" lengthAdjust="spacingAndGlyphs" textLength="108" x="39.5" y="1053.5352">TopLevelDesign</text><text fill="#000000" font-family="sans-serif" font-size="12" lengthAdjust="spacingAndGlyphs" textLength="128" x="24.5" y="1078.0898">do / Design Interfaces</text><rect fill="#FEFECE" filter="url(#f9qs4pbcp0t1z)" height="50" rx="12.5" ry="12.5" style="stroke: #A80036; stroke-width: 1.5;" width="144" x="712.5" y="1035.5"/><line style="stroke: #A80036; stroke-width: 1.5;" x1="712.5" x2="856.5" y1="1061.9883" y2="1061.9883"/><text fill="#000000" font-family="sans-serif" font-size="14" lengthAdjust="spacingAndGlyphs" textLength="124" x="722.5" y="1054.0352">SystemIntegration</text><rect fill="#FEFECE" filter="url(#f9qs4pbcp0t1z)" height="50" rx="12.5" ry="12.5" style="stroke: #A80036; stroke-width: 1.5;" width="125" x="722" y="311"/><line style="stroke: #A80036; stroke-width: 1.5;" x1="722" x2="847" y1="337.4883" y2="337.4883"/><text fill="#000000" font-family="sans-serif" font-size="14" lengthAdjust="spacingAndGlyphs" textLength="105" x="732" y="329.5352">IntegrationTest</text><rect fill="#FEFECE" filter="url(#f9qs4pbcp0t1z)" height="50" rx="12.5" ry="12.5" style="stroke: #A80036; stroke-width: 1.5;" width="102" x="733.5" y="200"/><line style="stroke: #A80036; stroke-width: 1.5;" x1="733.5" x2="835.5" y1="226.4883" y2="226.4883"/><text fill="#000000" font-family="sans-serif" font-size="14" lengthAdjust="spacingAndGlyphs" textLength="82" x="743.5" y="218.5352">Deployment</text><ellipse cx="784.5" cy="114" fill="none" filter="url(#f9qs4pbcp0t1z)" rx="10" ry="10" style="stroke: #000000; stroke-width: 1.0;"/><ellipse cx="785" cy="114.5" fill="#000000" rx="6" ry="6" style="stroke: none; stroke-width: 1.0;"/><rect fill="#FEFECE" filter="url(#f9qs4pbcp0t1z)" height="1276.6211" rx="12.5" ry="12.5" style="stroke: #A80036; stroke-width: 1.5;" width="346" x="331.5" y="422"/><rect fill="#FFFFFF" height="1225" rx="12.5" ry="12.5" style="stroke: #FFFFFF; stroke-width: 1.0;" width="340" x="334.5" y="470.6211"/><line style="stroke: #A80036; stroke-width: 1.5;" x1="331.5" x2="677.5" y1="467.6211" y2="467.6211"/><line style="stroke: #A80036; stroke-width: 1.5;" x1="331.5" x2="677.5" y1="448.4883" y2="448.4883"/><text fill="#000000" font-family="sans-serif" font-size="14" lengthAdjust="spacingAndGlyphs" textLength="140" x="434.5" y="440.5352">ParallelDevelopment</text><text fill="#000000" font-family="sans-serif" font-size="12" lengthAdjust="spacingAndGlyphs" textLength="313" x="336.5" y="460.0898">three groups, mutual independent, no synchronization</text><ellipse cx="486.5" cy="490.6211" fill="#000000" filter="url(#f9qs4pbcp0t1z)" rx="10" ry="10" style="stroke: none; stroke-width: 1.0;"/><rect fill="#FEFECE" filter="url(#f9qs4pbcp0t1z)" height="335.4883" rx="12.5" ry="12.5" style="stroke: #A80036; stroke-width: 1.5;" width="288" x="342.5" y="536.6211"/><rect fill="#FFFFFF" height="303" rx="12.5" ry="12.5" style="stroke: #FFFFFF; stroke-width: 1.0;" width="282" x="345.5" y="566.1094"/><line style="stroke: #A80036; stroke-width: 1.5;" x1="342.5" x2="630.5" y1="563.1094" y2="563.1094"/><text fill="#000000" font-family="sans-serif" font-size="14" lengthAdjust="spacingAndGlyphs" textLength="104" x="434.5" y="555.1563">UIDevelopment</text><ellipse cx="503" cy="586.1094" fill="#000000" filter="url(#f9qs4pbcp0t1z)" rx="10" ry="10" style="stroke: none; stroke-width: 1.0;"/><rect fill="#FEFECE" filter="url(#f9qs4pbcp0t1z)" height="50" rx="12.5" ry="12.5" style="stroke: #A80036; stroke-width: 1.5;" width="132" x="437" y="633.1094"/><line style="stroke: #A80036; stroke-width: 1.5;" x1="437" x2="569" y1="659.5977" y2="659.5977"/><text fill="#000000" font-family="sans-serif" font-size="14" lengthAdjust="spacingAndGlyphs" textLength="112" x="447" y="651.6445">UIModuleDesign</text><rect fill="#FEFECE" filter="url(#f9qs4pbcp0t1z)" height="50" rx="12.5" ry="12.5" style="stroke: #A80036; stroke-width: 1.5;" width="175" x="353.5" y="720.1094"/><line style="stroke: #A80036; stroke-width: 1.5;" x1="353.5" x2="528.5" y1="746.5977" y2="746.5977"/><text fill="#000000" font-family="sans-serif" font-size="14" lengthAdjust="spacingAndGlyphs" textLength="155" x="363.5" y="738.6445">UIModuleDevelopment</text><rect fill="#FEFECE" filter="url(#f9qs4pbcp0t1z)" height="50" rx="12.5" ry="12.5" style="stroke: #A80036; stroke-width: 1.5;" width="114" x="446" y="807.1094"/><line style="stroke: #A80036; stroke-width: 1.5;" x1="446" x2="560" y1="833.5977" y2="833.5977"/><text fill="#000000" font-family="sans-serif" font-size="14" lengthAdjust="spacingAndGlyphs" textLength="94" x="456" y="825.6445">UIModuleTest</text><!--link *start*UIDevelopment to UIModuleDesign--><path d="M503,596.1207 C503,604.3637 503,616.4991 503,627.8523 " fill="none" id="*start*UIDevelopment-UIModuleDesign" style="stroke: #A80036; stroke-width: 1.0;"/><polygon fill="#A80036" points="503,632.9968,507,623.9968,503,627.9968,499,623.9968,503,632.9968" style="stroke: #A80036; stroke-width: 1.0;"/><!--link UIModuleDesign to UIModuleDevelopment--><path d="M485.067,683.2734 C477.8053,693.4632 469.3727,705.296 461.84,715.8662 " fill="none" id="UIModuleDesign-UIModuleDevelopment" style="stroke: #A80036; stroke-width: 1.0;"/><polygon fill="#A80036" points="458.8927,720.0019,467.3733,714.9939,461.7944,715.93,460.8583,710.3512,458.8927,720.0019" style="stroke: #A80036; stroke-width: 1.0;"/><!--link UIModuleDevelopment to UIModuleTest--><path d="M458.933,770.2734 C466.1947,780.4632 474.6273,792.296 482.16,802.8662 " fill="none" id="UIModuleDevelopment-UIModuleTest" style="stroke: #A80036; stroke-width: 1.0;"/><polygon fill="#A80036" points="485.1073,807.0019,483.1417,797.3512,482.2056,802.93,476.6267,801.9939,485.1073,807.0019" style="stroke: #A80036; stroke-width: 1.0;"/><!--link UIModuleTest to UIModuleDesign--><path d="M520.4724,807.0799 C527.0223,796.2358 533.6791,783.0718 537,770.1094 C542.5151,748.5824 542.5151,741.6364 537,720.1094 C534.1201,708.8686 528.7317,697.4761 523.0797,687.5765 " fill="none" id="UIModuleTest-UIModuleDesign" style="stroke: #A80036; stroke-width: 1.0;"/><polygon fill="#A80036" points="520.4724,683.1389,521.583,692.9249,523.0054,687.4498,528.4805,688.8722,520.4724,683.1389" style="stroke: #A80036; stroke-width: 1.0;"/><text fill="#000000" font-family="sans-serif" font-size="13" lengthAdjust="spacingAndGlyphs" textLength="53" x="543" y="750.1777">Iteration</text><!--link *start*ParallelDevelopment to UIDevelopment--><path d="M486.5,500.6323 C486.5,507.8375 486.5,518.5122 486.5,531.262 " fill="none" id="*start*ParallelDevelopment-UIDevelopment" style="stroke: #A80036; stroke-width: 1.0;"/><polygon fill="#A80036" points="486.5,536.4458,490.5,527.4458,486.5,531.4458,482.5,527.4458,486.5,536.4458" style="stroke: #A80036; stroke-width: 1.0;"/><line style="stroke: #A80036; stroke-width: 1.5; stroke-dasharray: 8.0,10.0;" x1="336.5" x2="665.5" y1="881.6211" y2="881.6211"/><ellipse cx="488.5" cy="899.6211" fill="#000000" filter="url(#f9qs4pbcp0t1z)" rx="10" ry="10" style="stroke: none; stroke-width: 1.0;"/><rect fill="#FEFECE" filter="url(#f9qs4pbcp0t1z)" height="332.4883" rx="12.5" ry="12.5" style="stroke: #A80036; stroke-width: 1.5;" width="292" x="342.5" y="945.6211"/><rect fill="#FFFFFF" height="300" rx="12.5" ry="12.5" style="stroke: #FFFFFF; stroke-width: 1.0;" width="286" x="345.5" y="975.1094"/><line style="stroke: #A80036; stroke-width: 1.5;" x1="342.5" x2="634.5" y1="972.1094" y2="972.1094"/><text fill="#000000" font-family="sans-serif" font-size="14" lengthAdjust="spacingAndGlyphs" textLength="133" x="422" y="964.1563">ServerDevelopment</text><ellipse cx="520.5" cy="995.1094" fill="#000000" filter="url(#f9qs4pbcp0t1z)" rx="10" ry="10" style="stroke: none; stroke-width: 1.0;"/><rect fill="#FEFECE" filter="url(#f9qs4pbcp0t1z)" height="50" rx="12.5" ry="12.5" style="stroke: #A80036; stroke-width: 1.5;" width="161" x="440" y="1041.1094"/><line style="stroke: #A80036; stroke-width: 1.5;" x1="440" x2="601" y1="1067.5977" y2="1067.5977"/><text fill="#000000" font-family="sans-serif" font-size="14" lengthAdjust="spacingAndGlyphs" textLength="141" x="450" y="1059.6445">ServerModuleDesign</text><rect fill="#FEFECE" filter="url(#f9qs4pbcp0t1z)" height="50" rx="12.5" ry="12.5" style="stroke: #A80036; stroke-width: 1.5;" width="204" x="353.5" y="1127.1094"/><line style="stroke: #A80036; stroke-width: 1.5;" x1="353.5" x2="557.5" y1="1153.5977" y2="1153.5977"/><text fill="#000000" font-family="sans-serif" font-size="14" lengthAdjust="spacingAndGlyphs" textLength="184" x="363.5" y="1145.6445">ServerModuleDevelopment</text><rect fill="#FEFECE" filter="url(#f9qs4pbcp0t1z)" height="50" rx="12.5" ry="12.5" style="stroke: #A80036; stroke-width: 1.5;" width="143" x="449" y="1213.1094"/><line style="stroke: #A80036; stroke-width: 1.5;" x1="449" x2="592" y1="1239.5977" y2="1239.5977"/><text fill="#000000" font-family="sans-serif" font-size="14" lengthAdjust="spacingAndGlyphs" textLength="123" x="459" y="1231.6445">ServerModuleTest</text><!--link *start*ServerDevelopment to ServerModuleDesign--><path d="M520.5,1005.282 C520.5,1013.2563 520.5,1024.7884 520.5,1035.6722 " fill="none" id="*start*ServerDevelopment-ServerModuleDesign" style="stroke: #A80036; stroke-width: 1.0;"/><polygon fill="#A80036" points="520.5,1040.9447,524.5,1031.9447,520.5,1035.9447,516.5,1031.9447,520.5,1040.9447" style="stroke: #A80036; stroke-width: 1.0;"/><!--link ServerModuleDesign to ServerModuleDevelopment--><path d="M501.3494,1091.4471 C493.878,1101.3324 485.2672,1112.7251 477.5396,1122.9493 " fill="none" id="ServerModuleDesign-ServerModuleDevelopment" style="stroke: #A80036; stroke-width: 1.0;"/><polygon fill="#A80036" points="474.5137,1126.9528,483.1315,1122.1848,477.5285,1122.9639,476.7493,1117.361,474.5137,1126.9528" style="stroke: #A80036; stroke-width: 1.0;"/><!--link ServerModuleDevelopment to ServerModuleTest--><path d="M474.6506,1177.4471 C482.122,1187.3324 490.7328,1198.7251 498.4604,1208.9493 " fill="none" id="ServerModuleDevelopment-ServerModuleTest" style="stroke: #A80036; stroke-width: 1.0;"/><polygon fill="#A80036" points="501.4863,1212.9528,499.2507,1203.361,498.4715,1208.9639,492.8685,1208.1848,501.4863,1212.9528" style="stroke: #A80036; stroke-width: 1.0;"/><!--link ServerModuleTest to ServerModuleDesign--><path d="M545.2613,1212.9664 C553.7078,1202.7103 562.1207,1190.1903 566.5,1177.1094 C573.5549,1156.0368 573.5549,1148.182 566.5,1127.1094 C562.6681,1115.6636 555.748,1104.6472 548.4193,1095.2012 " fill="none" id="ServerModuleTest-ServerModuleDesign" style="stroke: #A80036; stroke-width: 1.0;"/><polygon fill="#A80036" points="545.2613,1091.2524,547.7585,1100.7794,548.3841,1095.1572,554.0063,1095.7828,545.2613,1091.2524" style="stroke: #A80036; stroke-width: 1.0;"/><!--link *start*CONC60 to ServerDevelopment--><path d="M488.5,909.8463 C488.5,917.0751 488.5,927.7154 488.5,940.3918 " fill="none" id="*start*CONC60-ServerDevelopment" style="stroke: #A80036; stroke-width: 1.0;"/><polygon fill="#A80036" points="488.5,945.5444,492.5,936.5444,488.5,940.5444,484.5,936.5444,488.5,945.5444" style="stroke: #A80036; stroke-width: 1.0;"/><line style="stroke: #A80036; stroke-width: 1.5; stroke-dasharray: 8.0,10.0;" x1="336.5" x2="665.5" y1="1287.6211" y2="1287.6211"/><ellipse cx="491" cy="1305.6211" fill="#000000" filter="url(#f9qs4pbcp0t1z)" rx="10" ry="10" style="stroke: none; stroke-width: 1.0;"/><rect fill="#FEFECE" filter="url(#f9qs4pbcp0t1z)" height="332.4883" rx="12.5" ry="12.5" style="stroke: #A80036; stroke-width: 1.5;" width="297" x="342.5" y="1351.6211"/><rect fill="#FFFFFF" height="300" rx="12.5" ry="12.5" style="stroke: #FFFFFF; stroke-width: 1.0;" width="291" x="345.5" y="1381.1094"/><line style="stroke: #A80036; stroke-width: 1.5;" x1="342.5" x2="639.5" y1="1378.1094" y2="1378.1094"/><text fill="#000000" font-family="sans-serif" font-size="14" lengthAdjust="spacingAndGlyphs" textLength="137" x="422.5" y="1370.1563">SensorDevelopment</text><ellipse cx="523.5" cy="1401.1094" fill="#000000" filter="url(#f9qs4pbcp0t1z)" rx="10" ry="10" style="stroke: none; stroke-width: 1.0;"/><rect fill="#FEFECE" filter="url(#f9qs4pbcp0t1z)" height="50" rx="12.5" ry="12.5" style="stroke: #A80036; stroke-width: 1.5;" width="165" x="441" y="1447.1094"/><line style="stroke: #A80036; stroke-width: 1.5;" x1="441" x2="606" y1="1473.5977" y2="1473.5977"/><text fill="#000000" font-family="sans-serif" font-size="14" lengthAdjust="spacingAndGlyphs" textLength="145" x="451" y="1465.6445">SensorModuleDesign</text><rect fill="#FEFECE" filter="url(#f9qs4pbcp0t1z)" height="50" rx="12.5" ry="12.5" style="stroke: #A80036; stroke-width: 1.5;" width="208" x="353.5" y="1533.1094"/><line style="stroke: #A80036; stroke-width: 1.5;" x1="353.5" x2="561.5" y1="1559.5977" y2="1559.5977"/><text fill="#000000" font-family="sans-serif" font-size="14" lengthAdjust="spacingAndGlyphs" textLength="188" x="363.5" y="1551.6445">SensorModuleDevelopment</text><rect fill="#FEFECE" filter="url(#f9qs4pbcp0t1z)" height="50" rx="12.5" ry="12.5" style="stroke: #A80036; stroke-width: 1.5;" width="147" x="450" y="1619.1094"/><line style="stroke: #A80036; stroke-width: 1.5;" x1="450" x2="597" y1="1645.5977" y2="1645.5977"/><text fill="#000000" font-family="sans-serif" font-size="14" lengthAdjust="spacingAndGlyphs" textLength="127" x="460" y="1637.6445">SensorModuleTest</text><!--link *start*SensorDevelopment to SensorModuleDesign--><path d="M523.5,1411.282 C523.5,1419.2563 523.5,1430.7884 523.5,1441.6722 " fill="none" id="*start*SensorDevelopment-SensorModuleDesign" style="stroke: #A80036; stroke-width: 1.0;"/><polygon fill="#A80036" points="523.5,1446.9447,527.5,1437.9447,523.5,1441.9447,519.5,1437.9447,523.5,1446.9447" style="stroke: #A80036; stroke-width: 1.0;"/><!--link SensorModuleDesign to SensorModuleDevelopment--><path d="M504.0548,1497.4471 C496.4684,1507.3324 487.7252,1518.7251 479.8787,1528.9493 " fill="none" id="SensorModuleDesign-SensorModuleDevelopment" style="stroke: #A80036; stroke-width: 1.0;"/><polygon fill="#A80036" points="476.8062,1532.9528,485.4588,1528.2483,479.8503,1528.9862,479.1124,1523.3777,476.8062,1532.9528" style="stroke: #A80036; stroke-width: 1.0;"/><!--link SensorModuleDevelopment to SensorModuleTest--><path d="M476.9452,1583.4471 C484.5316,1593.3324 493.2748,1604.7251 501.1213,1614.9493 " fill="none" id="SensorModuleDevelopment-SensorModuleTest" style="stroke: #A80036; stroke-width: 1.0;"/><polygon fill="#A80036" points="504.1938,1618.9528,501.8876,1609.3777,501.1497,1614.9862,495.5412,1614.2483,504.1938,1618.9528" style="stroke: #A80036; stroke-width: 1.0;"/><!--link SensorModuleTest to SensorModuleDesign--><path d="M548.7913,1619.0518 C557.4204,1608.8062 566.0176,1596.271 570.5,1583.1094 C577.664,1562.0736 577.664,1554.1452 570.5,1533.1094 C566.5779,1521.593 559.5054,1510.5562 552.0177,1501.1132 " fill="none" id="SensorModuleTest-SensorModuleDesign" style="stroke: #A80036; stroke-width: 1.0;"/><polygon fill="#A80036" points="548.7913,1497.167,551.3916,1506.6664,551.9563,1501.0378,557.5849,1501.6025,548.7913,1497.167" style="stroke: #A80036; stroke-width: 1.0;"/><!--link *start*CONC73 to SensorDevelopment--><path d="M491,1315.8463 C491,1323.0751 491,1333.7154 491,1346.3918 " fill="none" id="*start*CONC73-SensorDevelopment" style="stroke: #A80036; stroke-width: 1.0;"/><polygon fill="#A80036" points="491,1351.5444,495,1342.5444,491,1346.5444,487,1342.5444,491,1351.5444" style="stroke: #A80036; stroke-width: 1.0;"/><!--link *start to SoftwarePlanning--><path d="M93.5,28.2737 C93.5,41.3608 93.5,64.5555 93.5,83.5207 " fill="none" id="*start-SoftwarePlanning" style="stroke: #A80036; stroke-width: 1.0;"/><polygon fill="#A80036" points="93.5,88.7458,97.5,79.7458,93.5,83.7458,89.5,79.7458,93.5,88.7458" style="stroke: #A80036; stroke-width: 1.0;"/><!--link SoftwarePlanning to RequirementElicitation--><path d="M93.5,139.1876 C93.5,155.6504 93.5,177.2461 93.5,194.6543 " fill="none" id="SoftwarePlanning-RequirementElicitation" style="stroke: #A80036; stroke-width: 1.0;"/><polygon fill="#A80036" points="93.5,199.9121,97.5,190.9121,93.5,194.9121,89.5,190.9121,93.5,199.9121" style="stroke: #A80036; stroke-width: 1.0;"/><!--link RequirementElicitation to RequirementAnalysis--><path d="M93.5,250.1876 C93.5,266.6504 93.5,288.2461 93.5,305.6543 " fill="none" id="RequirementElicitation-RequirementAnalysis" style="stroke: #A80036; stroke-width: 1.0;"/><polygon fill="#A80036" points="93.5,310.9121,97.5,301.9121,93.5,305.9121,89.5,301.9121,93.5,310.9121" style="stroke: #A80036; stroke-width: 1.0;"/><!--link RequirementAnalysis to RequirementAnalysis--><path d="M180.5608,326.2808 C198.0261,327.3616 210.5,330.6013 210.5,336 C210.5,341.9062 195.5703,345.2285 175.5085,345.9668 " fill="none" id="RequirementAnalysis-RequirementAnalysis" style="stroke: #A80036; stroke-width: 1.0;"/><polygon fill="#A80036" points="175.5085,326.0332,184.3019,330.4689,180.5025,326.2779,184.6935,322.4785,175.5085,326.0332" style="stroke: #A80036; stroke-width: 1.0;"/><text fill="#000000" font-family="sans-serif" font-size="13" lengthAdjust="spacingAndGlyphs" textLength="40" x="216.5" y="341.0684">Iterate</text><!--link RequirementAnalysis to TopLevelDesign--><path d="M93.5,361.3605 C93.5,471.6726 93.5,909.5849 93.5,1029.8202 " fill="none" id="RequirementAnalysis-TopLevelDesign" style="stroke: #A80036; stroke-width: 1.0;"/><polygon fill="#A80036" points="93.5,1034.9698,97.5,1025.9698,93.5,1029.9698,89.5,1025.9698,93.5,1034.9698" style="stroke: #A80036; stroke-width: 1.0;"/><!--link TopLevelDesign to ParallelDevelopment--><path d="M167.657,1062.5242 C185.5063,1062.9298 204.5161,1063.2943 222.1667,1063.5 C255.8037,1063.8921 291.6951,1063.8584 326.2152,1063.599 " fill="none" id="TopLevelDesign-ParallelDevelopment" style="stroke: #A80036; stroke-width: 1.0;"/><polygon fill="#A80036" points="331.2979,1063.5591,322.2666,1059.6302,326.2981,1063.5985,322.3297,1067.6299,331.2979,1063.5591" style="stroke: #A80036; stroke-width: 1.0;"/><!--link TopLevelDesign to ParallelDevelopment--><path d="M173.0756,1060.5 C218.103,1060.5 276.2562,1060.5 331.2495,1060.5 " fill="none" id="TopLevelDesign-ParallelDevelopment" style="stroke: #A80036; stroke-width: 1.0;"/><polygon fill="#A80036" points="167.929,1060.5,176.929,1064.5,172.929,1060.5,176.929,1056.5,167.929,1060.5" style="stroke: #A80036; stroke-width: 1.0;"/><text fill="#000000" font-family="sans-serif" font-size="13" lengthAdjust="spacingAndGlyphs" textLength="127" x="186" y="1054.0684">Amend in rare cases</text><!--link ParallelDevelopment to SystemIntegration--><path d="M677.5859,1060.5 C687.4253,1060.5 697.2647,1060.5 707.1041,1060.5 " fill="none" id="ParallelDevelopment-SystemIntegration" style="stroke: #A80036; stroke-width: 1.0;"/><polygon fill="#A80036" points="712.2495,1060.5,703.2495,1056.5,707.2495,1060.5,703.2495,1064.5,712.2495,1060.5" style="stroke: #A80036; stroke-width: 1.0;"/><!--link IntegrationTest to SystemIntegration--><path d="M784.5,366.5014 C784.5,486.5558 784.5,925.3189 784.5,1035.3453 " fill="none" id="IntegrationTest-SystemIntegration" style="stroke: #A80036; stroke-width: 1.0;"/><polygon fill="#A80036" points="784.5,361.3605,780.5,370.3605,784.5,366.3605,788.5,370.3605,784.5,361.3605" style="stroke: #A80036; stroke-width: 1.0;"/><!--link Deployment to IntegrationTest--><path d="M784.5,255.4512 C784.5,272.8763 784.5,294.4701 784.5,310.9121 " fill="none" id="Deployment-IntegrationTest" style="stroke: #A80036; stroke-width: 1.0;"/><polygon fill="#A80036" points="784.5,250.1876,780.5,259.1876,784.5,255.1876,788.5,259.1876,784.5,250.1876" style="stroke: #A80036; stroke-width: 1.0;"/><!--link *end to Deployment--><path d="M784.5,129.4861 C784.5,147.7279 784.5,178.2827 784.5,199.9164 " fill="none" id="*end-Deployment" style="stroke: #A80036; stroke-width: 1.0;"/><polygon fill="#A80036" points="784.5,124.2437,780.5,133.2437,784.5,129.2437,788.5,133.2437,784.5,124.2437" style="stroke: #A80036; stroke-width: 1.0;"/><!--
@startuml
[*] -down-> SoftwarePlanning
SoftwarePlanning -down-> RequirementElicitation
RequirementElicitation -down-> RequirementAnalysis
RequirementAnalysis -up-> RequirementAnalysis : Iterate
RequirementAnalysis -down-> TopLevelDesign
TopLevelDesign : do / Design Interfaces
TopLevelDesign -right-> ParallelDevelopment
ParallelDevelopment -left-> TopLevelDesign : Amend in rare cases
state ParallelDevelopment {
    state UIDevelopment {
        [*] - -> UIModuleDesign
        UIModuleDesign - -> UIModuleDevelopment
        UIModuleDevelopment - -> UIModuleTest
        UIModuleTest - -> UIModuleDesign : Iteration
    }
    [*] - -> UIDevelopment
    - -
    state ServerDevelopment {
        [*] - -> ServerModuleDesign
        ServerModuleDesign - -> ServerModuleDevelopment
        ServerModuleDevelopment - -> ServerModuleTest
        ServerModuleTest - -> ServerModuleDesign
    }
    [*] - -> ServerDevelopment
    - -
    state SensorDevelopment {
        [*] - -> SensorModuleDesign
        SensorModuleDesign - -> SensorModuleDevelopment
        SensorModuleDevelopment - -> SensorModuleTest
        SensorModuleTest - -> SensorModuleDesign
    }
    [*] - -> SensorDevelopment
}
ParallelDevelopment : three groups, mutual independent, no synchronization
ParallelDevelopment -right-> SystemIntegration
SystemIntegration -up-> IntegrationTest
IntegrationTest -up-> Deployment
Deployment -up-> [*]
@enduml

PlantUML version 1.2018.01(Mon Jan 29 02:08:22 CST 2018)
(GPL source distribution)
Java Runtime: Java(TM) SE Runtime Environment
JVM: Java HotSpot(TM) 64-Bit Server VM
Java Version: 9+181
Operating System: Mac OS X
OS Version: 10.12.6
Default Encoding: UTF-8
Language: zh
Country: CN
--></g></svg>