<?xml version="1.0" encoding="UTF-8" standalone="no"?><svg xmlns="http://www.w3.org/2000/svg" xmlns:xlink="http://www.w3.org/1999/xlink" contentScriptType="application/ecmascript" contentStyleType="text/css" height="256px" preserveAspectRatio="none" style="width:1083px;height:256px;" version="1.1" viewBox="0 0 1083 256"
    width="1083px" zoomAndPan="magnify"><defs><filter height="300%" id="f155m3bu72pu7y" width="300%" x="-1" y="-1"><feGaussianBlur result="blurOut" stdDeviation="2.0"/><feColorMatrix in="blurOut" result="blurOut2" type="matrix" values="0 0 0 0 0 0 0 0 0 0 0 0 0 0 0 0 0 0 .4 0"/><feOffset dx="4.0" dy="4.0" in="blurOut2" result="blurOut3"/><feBlend in="SourceGraphic" in2="blurOut3" mode="normal"/></filter></defs><g><!--cluster CommonTasks--><polygon fill="#FFFFFF" filter="url(#f155m3bu72pu7y)" points="548,173,662,173,669,195.4883,1061,195.4883,1061,244,548,244,548,173" style="stroke: #000000; stroke-width: 1.5;"/><line style="stroke: #000000; stroke-width: 1.5;" x1="548" x2="669" y1="195.4883" y2="195.4883"/><text fill="#000000" font-family="sans-serif" font-size="14" font-weight="bold" lengthAdjust="spacingAndGlyphs" textLength="108" x="552" y="188.5352">CommonTasks</text><!--entity Design--><rect fill="#FEFECE" filter="url(#f155m3bu72pu7y)" height="36.4883" style="stroke: #000000; stroke-width: 1.5;" width="67" x="985.5" y="200"/><text fill="#000000" font-family="sans-serif" font-size="14" lengthAdjust="spacingAndGlyphs" textLength="47" x="995.5" y="223.5352">Design</text><!--entity Realization--><rect fill="#FEFECE" filter="url(#f155m3bu72pu7y)" height="36.4883" style="stroke: #000000; stroke-width: 1.5;" width="96" x="854" y="200"/><text fill="#000000" font-family="sans-serif" font-size="14" lengthAdjust="spacingAndGlyphs" textLength="76" x="864" y="223.5352">Realization</text><!--entity TestIntegration--><rect fill="#FEFECE" filter="url(#f155m3bu72pu7y)" height="36.4883" style="stroke: #000000; stroke-width: 1.5;" width="125" x="693.5" y="200"/><text fill="#000000" font-family="sans-serif" font-size="14" lengthAdjust="spacingAndGlyphs" textLength="105" x="703.5" y="223.5352">TestIntegration</text><!--entity Deployment--><rect fill="#FEFECE" filter="url(#f155m3bu72pu7y)" height="36.4883" style="stroke: #000000; stroke-width: 1.5;" width="102" x="556" y="200"/><text fill="#000000" font-family="sans-serif" font-size="14" lengthAdjust="spacingAndGlyphs" textLength="82" x="566" y="223.5352">Deployment</text><!--entity Project--><rect fill="#FEFECE" filter="url(#f155m3bu72pu7y)" height="36.4883" style="stroke: #000000; stroke-width: 1.5;" width="67" x="520.5" y="8"/><text fill="#000000" font-family="sans-serif" font-size="14" lengthAdjust="spacingAndGlyphs" textLength="47" x="530.5" y="31.5352">Project</text><!--entity TopLevelDesign--><rect fill="#FEFECE" filter="url(#f155m3bu72pu7y)" height="36.4883" style="stroke: #000000; stroke-width: 1.5;" width="128" x="6" y="104"/><text fill="#000000" font-family="sans-serif" font-size="14" lengthAdjust="spacingAndGlyphs" textLength="108" x="16" y="127.5352">TopLevelDesign</text><!--entity RequirementElicitation--><rect fill="#FEFECE" filter="url(#f155m3bu72pu7y)" height="36.4883" style="stroke: #000000; stroke-width: 1.5;" width="175" x="169.5" y="104"/><text fill="#000000" font-family="sans-serif" font-size="14" lengthAdjust="spacingAndGlyphs" textLength="155" x="179.5" y="127.5352">RequirementElicitation</text><!--entity RequirementAnalysis--><rect fill="#FEFECE" filter="url(#f155m3bu72pu7y)" height="36.4883" style="stroke: #000000; stroke-width: 1.5;" width="164" x="380" y="104"/><text fill="#000000" font-family="sans-serif" font-size="14" lengthAdjust="spacingAndGlyphs" textLength="144" x="390" y="127.5352">RequirementAnalysis</text><!--entity UISubProject--><rect fill="#FEFECE" filter="url(#f155m3bu72pu7y)" height="36.4883" style="stroke: #000000; stroke-width: 1.5;" width="107" x="925.5" y="104"/><text fill="#000000" font-family="sans-serif" font-size="14" lengthAdjust="spacingAndGlyphs" textLength="87" x="935.5" y="127.5352">UISubProject</text><!--entity ServerSubProject--><rect fill="#FEFECE" filter="url(#f155m3bu72pu7y)" height="36.4883" style="stroke: #000000; stroke-width: 1.5;" width="136" x="579" y="104"/><text fill="#000000" font-family="sans-serif" font-size="14" lengthAdjust="spacingAndGlyphs" textLength="116" x="589" y="127.5352">ServerSubProject</text><!--entity SensorSubProject--><rect fill="#FEFECE" filter="url(#f155m3bu72pu7y)" height="36.4883" style="stroke: #000000; stroke-width: 1.5;" width="140" x="750" y="104"/><text fill="#000000" font-family="sans-serif" font-size="14" lengthAdjust="spacingAndGlyphs" textLength="120" x="760" y="127.5352">SensorSubProject</text><!--link Project to ServerSubProject--><path d="M571.4926,44.0569 C586.8526,59.9124 609.2434,83.0255 625.6544,99.9658 " fill="none" id="Project-ServerSubProject" style="stroke: #A80036; stroke-width: 1.0;"/><polygon fill="#A80036" points="629.2697,103.6977,625.8806,94.4503,625.7908,100.1065,620.1346,100.0166,629.2697,103.6977" style="stroke: #A80036; stroke-width: 1.0;"/><!--link Project to SensorSubProject--><path d="M587.6891,38.1585 C632.3353,54.2714 711.6697,82.9034 765.0482,102.1678 " fill="none" id="Project-SensorSubProject" style="stroke: #A80036; stroke-width: 1.0;"/><polygon fill="#A80036" points="769.8087,103.8859,762.7012,97.0681,765.1057,102.1885,759.9853,104.5929,769.8087,103.8859" style="stroke: #A80036; stroke-width: 1.0;"/><!--link Project to UISubProject--><path d="M587.7592,33.0693 C650.8172,46.3558 790.7291,76.2222 908,104 C912.0022,104.948 916.1264,105.9438 920.278,106.9601 " fill="none" id="Project-UISubProject" style="stroke: #A80036; stroke-width: 1.0;"/><polygon fill="#A80036" points="925.1584,108.161,917.3749,102.1264,920.3032,106.9663,915.4633,109.8946,925.1584,108.161" style="stroke: #A80036; stroke-width: 1.0;"/><!--link Project to RequirementAnalysis--><path d="M536.6955,44.0569 C521.5007,59.9124 499.3506,83.0255 483.1161,99.9658 " fill="none" id="Project-RequirementAnalysis" style="stroke: #A80036; stroke-width: 1.0;"/><polygon fill="#A80036" points="479.5397,103.6977,488.6549,99.9676,482.9993,100.0878,482.8791,94.4322,479.5397,103.6977" style="stroke: #A80036; stroke-width: 1.0;"/><!--link Project to RequirementElicitation--><path d="M520.2195,36.919 C471.0491,52.8124 378.9744,82.5739 317.8154,102.3425 " fill="none" id="Project-RequirementElicitation" style="stroke: #A80036; stroke-width: 1.0;"/><polygon fill="#A80036" points="312.7323,103.9855,322.5263,105.0235,317.4899,102.4477,320.0658,97.4113,312.7323,103.9855" style="stroke: #A80036; stroke-width: 1.0;"/><!--link Project to TopLevelDesign--><path d="M520.3267,32.2458 C451.1932,45.1323 288.2831,75.825 152,104 C147.8964,104.8484 143.6804,105.7332 139.4288,106.6356 " fill="none" id="Project-TopLevelDesign" style="stroke: #A80036; stroke-width: 1.0;"/><polygon fill="#A80036" points="134.4262,107.7019,144.0624,109.7376,139.3163,106.6595,142.3945,101.9134,134.4262,107.7019" style="stroke: #A80036; stroke-width: 1.0;"/><!--link ServerSubProject to Design--><path d="M715.1178,136.8617 C720.8193,137.9727 726.5029,139.0348 732,140 C836.3137,158.3151 871.7742,128.7576 968,173 C979.8281,178.4383 990.9274,187.5387 999.7318,196.1382 " fill="none" id="ServerSubProject-Design" style="stroke: #A80036; stroke-width: 1.0;"/><polygon fill="#A80036" points="1003.3601,199.7809,999.8428,190.5815,999.8316,196.2384,994.1747,196.2272,1003.3601,199.7809" style="stroke: #A80036; stroke-width: 1.0;"/><!--link ServerSubProject to Realization--><path d="M715.4179,137.9198 C760.2759,148.8424 814.4625,163.0966 836,173 C849.8029,179.3469 863.8783,188.502 875.4655,196.8997 " fill="none" id="ServerSubProject-Realization" style="stroke: #A80036; stroke-width: 1.0;"/><polygon fill="#A80036" points="879.6167,199.9528,874.7363,191.3982,875.5888,196.9904,869.9965,197.8429,879.6167,199.9528" style="stroke: #A80036; stroke-width: 1.0;"/><!--link ServerSubProject to TestIntegration--><path d="M667.5021,140.0569 C685.6559,156.0456 712.1893,179.4144 731.4654,196.3916 " fill="none" id="ServerSubProject-TestIntegration" style="stroke: #A80036; stroke-width: 1.0;"/><polygon fill="#A80036" points="735.2193,199.6977,731.109,190.7475,731.4671,196.393,725.8216,196.7511,735.2193,199.6977" style="stroke: #A80036; stroke-width: 1.0;"/><!--link ServerSubProject to Deployment--><path d="M639.4763,140.0569 C633.0364,155.5126 623.723,177.8647 616.7196,194.6731 " fill="none" id="ServerSubProject-Deployment" style="stroke: #A80036; stroke-width: 1.0;"/><polygon fill="#A80036" points="614.626,199.6977,621.7799,192.9285,616.5491,195.0823,614.3953,189.8515,614.626,199.6977" style="stroke: #A80036; stroke-width: 1.0;"/><!--link UISubProject to Design--><path d="M986.5237,140.0569 C992.9636,155.5126 1002.277,177.8647 1009.2804,194.6731 " fill="none" id="UISubProject-Design" style="stroke: #A80036; stroke-width: 1.0;"/><polygon fill="#A80036" points="1011.374,199.6977,1011.6047,189.8515,1009.4509,195.0823,1004.2201,192.9285,1011.374,199.6977" style="stroke: #A80036; stroke-width: 1.0;"/><!--link UISubProject to Realization--><path d="M964.5169,140.0569 C951.9063,155.7791 933.572,178.6375 920.0168,195.5375 " fill="none" id="UISubProject-Realization" style="stroke: #A80036; stroke-width: 1.0;"/><polygon fill="#A80036" points="916.68,199.6977,925.4315,195.1799,919.8085,195.7974,919.191,190.1743,916.68,199.6977" style="stroke: #A80036; stroke-width: 1.0;"/><!--link UISubProject to TestIntegration--><path d="M925.2509,139.0048 C898.3401,148.0944 865.5055,160.0662 837,173 C821.3376,180.1065 804.6297,189.126 790.4813,197.2211 " fill="none" id="UISubProject-TestIntegration" style="stroke: #A80036; stroke-width: 1.0;"/><polygon fill="#A80036" points="785.7865,199.9268,795.5815,198.8983,790.1185,197.4301,791.5868,191.9671,785.7865,199.9268" style="stroke: #A80036; stroke-width: 1.0;"/><!--link UISubProject to Deployment--><path d="M925.2519,136.2696 C919.4484,137.618 913.6141,138.8924 908,140 C805.8207,160.1593 773.4875,136.3502 676,173 C660.8457,178.6972 645.6015,188.1551 633.3103,196.9337 " fill="none" id="UISubProject-Deployment" style="stroke: #A80036; stroke-width: 1.0;"/><polygon fill="#A80036" points="629.2595,199.8784,638.8913,197.822,633.3038,196.9385,634.1874,191.351,629.2595,199.8784" style="stroke: #A80036; stroke-width: 1.0;"/><!--link SensorSubProject to Design--><path d="M890.2318,140.016 C915.6852,148.1177 944.0462,159.0481 968,173 C978.8923,179.3442 989.5685,188.2221 998.315,196.4176 " fill="none" id="SensorSubProject-Design" style="stroke: #A80036; stroke-width: 1.0;"/><polygon fill="#A80036" points="1001.9403,199.8788,998.1929,190.7707,998.3239,196.4261,992.6685,196.557,1001.9403,199.8788" style="stroke: #A80036; stroke-width: 1.0;"/><!--link SensorSubProject to Realization--><path d="M835.4236,140.0569 C848.853,155.7791 868.3779,178.6375 882.8132,195.5375 " fill="none" id="SensorSubProject-Realization" style="stroke: #A80036; stroke-width: 1.0;"/><polygon fill="#A80036" points="886.3668,199.6977,883.5629,190.2564,883.1194,195.8958,877.4799,195.4523,886.3668,199.6977" style="stroke: #A80036; stroke-width: 1.0;"/><!--link SensorSubProject to TestIntegration--><path d="M807.9621,140.0569 C797.5694,155.6459 782.4996,178.2506 771.2623,195.1065 " fill="none" id="SensorSubProject-TestIntegration" style="stroke: #A80036; stroke-width: 1.0;"/><polygon fill="#A80036" points="768.2015,199.6977,776.522,194.4281,770.975,195.5375,769.8657,189.9905,768.2015,199.6977" style="stroke: #A80036; stroke-width: 1.0;"/><!--link SensorSubProject to Deployment--><path d="M758.7857,140.1103 C732.6921,148.7343 702.2712,160.012 676,173 C662.2982,179.7739 648.0108,188.7349 636.0149,196.8763 " fill="none" id="SensorSubProject-Deployment" style="stroke: #A80036; stroke-width: 1.0;"/><polygon fill="#A80036" points="631.7044,199.833,641.3888,198.0406,635.8276,197.0047,636.8635,191.4435,631.7044,199.833" style="stroke: #A80036; stroke-width: 1.0;"/><!--
@startuml
rectangle Project
rectangle TopLevelDesign
rectangle RequirementElicitation
rectangle RequirementAnalysis
rectangle UISubProject
rectangle ServerSubProject
rectangle SensorSubProject
Project - -> ServerSubProject
Project - -> SensorSubProject
Project - -> UISubProject
Project - -> RequirementAnalysis
Project - -> RequirementElicitation
Project - -> TopLevelDesign
package CommonTasks {
    rectangle Design
    rectangle Realization
    rectangle TestIntegration
    rectangle Deployment
}
ServerSubProject - -> Design
ServerSubProject - -> Realization
ServerSubProject - -> TestIntegration
ServerSubProject - -> Deployment

UISubProject - -> Design
UISubProject - -> Realization
UISubProject - -> TestIntegration
UISubProject - -> Deployment

SensorSubProject - -> Design
SensorSubProject - -> Realization
SensorSubProject - -> TestIntegration
SensorSubProject - -> Deployment
@enduml

PlantUML version 1.2018.01(Mon Jan 29 02:08:22 CST 2018)
(GPL source distribution)
Java Runtime: Java(TM) SE Runtime Environment
JVM: Java HotSpot(TM) 64-Bit Server VM
Java Version: 9+181
Operating System: Mac OS X
OS Version: 10.12.6
Default Encoding: UTF-8
Language: zh
Country: CN
--></g></svg>